<svg height="248" viewBox="0 0 400 248" width="400" xmlns="http://www.w3.org/2000/svg"><path d="m337.001754 245.615789v-53.089473h-21.910526v53.089473zm-115.992982-22.043859v-30.242105h-21.236842v23.117543c0 6.719299-.268421 8.603509-.670176 10.350878-1.478947 4.84035-6.587719 6.985965-11.82807 6.985965-7.25614 0-10.617544-2.821053-11.961754-7.256141-.402807-1.475438-.537018-3.087719-.671228-4.701754-.134211-1.747369 0-3.631579 0-5.642105v-22.852632h-21.504737v30.377193c0 6.857895 2.286667 11.963158 6.047895 15.45614 6.450877 6.319299 17.338947 8.2 27.417894 8.2 12.231579 0 21.640351-1.747368 28.35965-8.331579 3.496491-3.363158 6.047368-7.798245 6.047368-15.461403zm-104.297368-3.763158c-1.064737-.185965-2.143685-.273684-3.224211-.266667h-24.1921053c-1.2105263 0-2.5552631.135088-3.2264912.266667.402807-.405263 1.2105263-1.208772 2.0159649-2.284211l10.885614-18.01228c1.4789476-2.417544 2.1501756-4.029825 2.4185966-4.701755.268596.67193.939824 2.284211 2.418772 4.840351l11.156316 18.145614c.539298.803509 1.344736 1.607018 1.747544 2.012281zm40.590701 25.807017-48.386316-72.575964h-27.1477188l7.1219298 8.467193c.134386.133333.4050877.266666.6714035.405263-.2685965.133333-.5370175.264912-.6714035.4l-42.2017544 63.303508h24.4605263l6.5873685-10.887719c.268421-.536842.4026315-1.075438.4026315-1.342105.2685965 0 .9421053.266667 1.6133334.266667h43.6807017c.671404 0 1.208246-.135088 1.476842-.266667-.024737.377193.069123.754386.268421 1.075439l6.85579 11.154385zm151.878597-27.282456c0-5.915789-2.421053-12.771929-9.945614-22.314035l-18.147369-22.981754h-25.268421l14.380702 16.127368c2.421053 2.689474 5.512281 5.107018 5.512281 5.107018-3.492983-2.019298-7.92807-2.821053-11.422807-2.821053-8.333334 0-16.803509 1.747369-24.326316 5.91579-8.066667 4.429824-13.44386 11.824561-13.44386 21.638596 0 7.524562 3.361404 13.307018 7.661404 17.740351 9.680702 9.675439 27.282456 10.617544 33.735087 10.617544 9.540351 0 24.461404-2.149123 32.931579-9.810526 4.973685-4.57193 8.333334-10.885965 8.333334-19.219299zm-20.968421.67193c0 5.510526-3.631579 9.675439-8.2 11.959649-3.763158 2.017544-8.2 2.554386-12.096492 2.554386-3.894736 0-8.466666-.807017-12.229824-2.689473-4.568421-2.284211-8.066667-6.719299-8.066667-11.557895 0-5.777193 4.435088-10.350877 9.678948-12.635088 3.22807-1.475438 7.124561-2.014035 10.21228-2.014035 2.961404 0 7.261404.4 10.622807 1.747368 6.049123 2.550878 10.078948 7.389474 10.078948 12.635088zm41.829824-219.00028005c-15.736842-.02540576-31.019298 5.28368372-43.349123 15.06085915-12.331578-9.77780701-27.61228-15.08698403-43.349122-15.06085915-15.735088-.0243519-31.01579 5.28464863-43.345614 15.06085915-12.329825-9.7782807-27.610527-15.08754806-43.346842-15.06085915-15.735965-.0243519-31.015615 5.28464863-43.346316 15.06085915-12.330527-9.77652631-27.6103512-15.08557052-43.3463161-15.06085915-38.6157894 0-69.90930137 31.29133285-69.90930137 69.90922755 0 38.6135085 31.29123127 69.9094735 69.90930137 69.9094735 15.7359649.024035 31.0156141-5.284912 43.3463161-15.060877 12.330526 9.776491 27.610351 15.085439 43.346316 15.060877 15.736315.026316 31.017017-5.282982 43.346842-15.060877 12.329824 9.77614 27.610526 15.085088 43.345614 15.060877 15.736842.02579 31.017544-5.283333 43.349122-15.060877 12.329825 9.777544 27.610527 15.086667 43.349123 15.060877 38.614035 0 69.907018-31.293684 69.907018-69.9094735 0-38.615614-31.292983-69.90922755-69.907018-69.90922755zm-228.175438 113.33747305c-8.9082459 6.498597-20.0371933 10.464562-31.9078951 10.464562-29.7894737 0-53.8950526-24.1031584-53.8950526-53.8928075 0-29.7894737 24.1055789-53.8949824 53.8950526-53.8949824 11.8707018 0 22.9929825 3.9683158 31.9078951 10.4690175-9.822281 12.3401755-15.1550881 27.6542105-15.122281 43.4259649.0073684 15.7659649 5.335614 31.0677195 15.122281 43.4282455zm11.440701-11.406491c-6.870175-9.2607018-10.568947-20.4908773-10.546491-32.0217545-.028947-11.5317544 3.670527-22.7640351 10.546491-32.0215789 6.874737 9.2582456 10.57386 20.4901754 10.546492 32.0215789.021579 11.5307018-3.677018 22.7607018-10.546492 32.0217545zm75.254036 11.406491c-9.254386 6.814035-20.453509 10.476491-31.946316 10.448772-11.469299.023333-22.642281-3.639649-31.871579-10.448772 9.787544-12.359123 15.115965-27.6605262 15.12228-43.4259648.032807-15.7717544-5.3-31.0857894-15.12228-43.4259649 9.228421-6.8108772 20.40193-10.4747719 31.871579-10.4508245 11.957193 0 23.00421 3.8681929 31.946316 10.4508245-9.822808 12.3401755-15.154913 27.6542105-15.122106 43.4259649.006667 15.7652632 5.334386 31.0666668 15.122106 43.4259648zm11.436842-11.406491c-6.870176-9.2607018-10.570176-20.4908773-10.547369-32.0217545-.02807-11.5315789 3.67193-22.7635087 10.547369-32.0215789 6.875438 9.2575438 10.575438 20.4896491 10.547368 32.0215789.022807 11.5310527-3.677193 22.7614035-10.547368 32.0217545zm75.25614 11.406491c-8.942105 6.585088-19.989474 10.448772-31.94386 10.448772-11.95614 0-22.931579-3.870526-31.873684-10.448772 9.787719-12.358596 15.11579-27.6603507 15.121053-43.4259648.033333-15.7717544-5.3-31.0857894-15.121053-43.4259649 8.942105-6.5803509 19.917544-10.4508245 31.873684-10.4508245 11.954386 0 23.001755 3.8681929 31.94386 10.4508245-9.821053 12.3407018-15.154386 27.654386-15.122807 43.4259649.008772 15.7650877 5.336842 31.0661408 15.122807 43.4259648zm11.440351-11.406491c-6.870176-9.2607018-10.568421-20.4908773-10.545614-32.0217545-.029825-11.5319298 3.668421-22.7643859 10.545614-32.0215789 6.875438 9.2582456 10.573684 20.4901754 10.547368 32.0215789.019299 11.5305263-3.678947 22.7603509-10.547368 32.0217545zm43.347368 21.871053c-11.875438 0-23.003509-3.965965-31.908772-10.464562 9.785965-12.359649 15.114035-27.6607016 15.122807-43.4259648.031579-15.7715789-5.301754-31.0852631-15.122807-43.4259649 8.91579-6.498421 20.035088-10.4690175 31.908772-10.4690175 29.784211 0 53.894737 24.1055087 53.894737 53.8949824 0 29.7850877-24.110526 53.8905268-53.894737 53.8905268z" fill="#e3e8f0" fill-rule="evenodd"/></svg>