<svg fill="none" height="91" viewBox="0 0 400 91" width="400" xmlns="http://www.w3.org/2000/svg"><g fill="#e3e8f0"><path d="m122.42 30.135-10.352 25.7938h14.322l-3.924-25.9031zm-54.8355 59.2063 42.4635-87.41399h32.095l17.907 87.41399h-28.188l-2.071-11.6472h-27.345l-6.2915 11.6472zm105.8055 0 12.301-87.41399h28.399l-12.298 87.41399zm188.872-59.3156-10.393 25.9031h14.322zm-54.879 59.3156 42.463-87.41399h32.092l17.906 87.41399h-28.185l-2.073-11.6472h-27.344l-6.291 11.6472zm-62.779-40.8736h35.58l24.384 40.385h-35.59z"/><path d="m248.3 42.2636h36.78l31.942-40.20983h-36.78zm-36.78 46.8347h36.78l31.942-40.706h-36.78z"/><path d="m224.782 1.56265h34.33l23.518 40.70085h-34.33zm-156.354 3.49589-2.7326 25.70846c-10.468-14.438-34.7254-4.4755-36.6313 13.5119-2.4213 22.8326 20.9268 28.1592 33.634 14.7129l-2.7399 25.7694c-3.7925 1.8671-7.4999 3.3087-11.1585 4.2885-3.5592.9634-7.222 1.4924-10.9084 1.5752-4.5509.0949-8.6716-.384-12.3887-1.4294-3.6231-.9842-7.0313-2.6347-10.05-4.8671-5.73737-4.1936-9.88477-9.5248-12.44226-16.0157-2.552618-6.5106-3.396198-13.8548-2.523443-22.0645.700153-6.5955 2.365433-12.6124 5.012873-18.0677 2.62555-5.4555 6.26243-10.4075 10.89363-14.9001 4.3783-4.28596 9.1457-7.51687 14.3069-9.71457 5.1368-2.1758 10.7477-3.337838 16.8109-3.464253 3.5745-.0860822 7.1453.289787 10.6236 1.118293 3.4643.829 6.8825 2.12233 10.2932 3.83867z"/></g></svg>