<svg fill="none" height="80" viewBox="0 0 382 80" width="382" xmlns="http://www.w3.org/2000/svg"><g fill="#e3e8f0"><g clip-rule="evenodd" fill-rule="evenodd"><path d="m7.15637 62.7996c2.64302 3.7427 5.90613 7.0064 9.64853 9.65l13.1794-22.8309z"/><path d="m16.8049 7.15485c-3.7455 2.6399-7.00921 5.90415-9.64853 9.64995l22.82793 13.1749z"/><path d="m56.579 3.55755c-4.1558-1.93098-8.6158-3.124517-13.1806-3.5272766v26.3582266z"/><path d="m23.0254 76.045c4.1579 1.9302 8.6188 3.1253 13.1848 3.5321v-26.3642z"/><path d="m72.4528 16.8048c-2.6394-3.7459-5.9032-7.01014-9.6488-9.64995l-13.1791 22.82485z"/><path d="m62.8024 72.4497c3.7431-2.6423 7.006-5.9062 9.6473-9.65l-22.8264-13.1809z"/><path d="m79.5758 36.206c-.4088-4.5637-1.6006-9.0229-3.5231-13.1821l-22.8366 13.1821z"/><path d="m.0302734 43.3927c.4046766 4.5632 1.5971766 9.0217 3.5245466 13.1776l22.83818-13.1776z"/><path d="m3.55482 23.0238c-1.92643 4.1578-3.118872 8.6177-3.5245466 13.1821h26.3627266z"/><path d="m53.2161 43.3927 22.8366 13.1776c1.9282-4.1556 3.1202-8.6143 3.5231-13.1776z"/><path d="m36.2102.0302734c-4.5664.4011546-9.028 1.5947566-13.1848 3.5272766l13.1848 22.83095z"/><path d="m43.3983 79.5773c4.5646-.4071 9.0242-1.6021 13.1806-3.5322l-13.1806-22.8321z"/><path d="m125.387 30.919c-.738-3.6331-4.074-6.142-7.77-5.843-9.043 0-10.718 8.2788-10.718 14.7312 0 7.567 2.293 14.7136 10.264 14.7136 3.784.4069 7.265-2.1089 8.066-5.8296h5.329c-.504 6.1448-6.701 10.1933-13.852 10.1933-10.818 0-15.125-8.8249-15.125-19.0773 0-8.9857 3.949-19.4482 16.233-19.093 7.055.2039 12.342 3.6576 12.895 10.2048z"/></g><path d="m139.486 46.3c-.352 4.4715 1.478 9.0867 6.395 9.0867 1.529.2417 3.087-.1884 4.275-1.1799 1.188-.9914 1.89-2.4476 1.926-3.9947h5.074c-.765 5.787-5.226 8.6724-11.321 8.6724-8.172 0-11.419-5.7782-11.419-13.2903 0-7.4618 3.751-13.7088 11.82-13.7088 7.619.1479 11.218 4.9731 11.218 12.0222v2.3924zm12.898-3.3394c.098-4.2749-1.834-7.5758-6.503-7.5758-1.879.0882-3.637.9552-4.85 2.3928-1.214 1.4375-1.773 3.3157-1.545 5.183z"/><path clip-rule="evenodd" d="m167.123 36.4012h.099c1.565-2.7896 4.515-4.5165 7.713-4.5158 1.78 0 9.655.46 9.655 8.6322v17.6033h-4.828v-16.0364c0-4.2139-1.771-6.4954-5.843-6.4954-1.742-.0126-3.419.6626-4.665 1.8791-.709.7057-2.032 1.8318-2.032 6.8048v13.8479h-4.825v-25.4749h4.726z" fill-rule="evenodd"/><path clip-rule="evenodd" d="m192.212 32.6369v-5.4182l4.825-1.5285v6.9467h5.889v3.5009h-5.889v16.3588c0 1.82 1.422 2.6843 3.15 2.6843.852-.0015 1.7-.1018 2.529-.2988v3.7033c-1.108.0564-2.184.2991-3.288.2991-1.088.0182-2.176-.0631-3.249-.2427-1.125-.1858-2.139-.7854-2.844-1.6809-.864-1.2179-1.123-1.3155-1.123-4.717v-16.1061h-4.359v-3.5009z" fill-rule="evenodd"/><path clip-rule="evenodd" d="m224.123 32.6461h4.818v25.4748h-4.716v-3.7464h-.102c-1.874 2.98-5.218 4.7072-8.733 4.51-2.372.0208-4.641-.9687-6.24-2.7212s-2.378-4.1025-2.14-6.463v-17.0542h4.828v15.073c0 4.4227 1.012 7.6676 5.634 7.6676 2.464.0518 4.714-1.3946 5.689-3.6579.641-1.9304.966-3.9514.962-5.9852z" fill-rule="evenodd"/><path clip-rule="evenodd" d="m240.207 58.1208h-4.821v-25.4748h4.821v4.9181h.106c.859-3.3469 4.016-5.5795 7.458-5.2748.608 0 1.123.056 1.673.056v4.5664c-.672-.2049-1.375-.2891-2.077-.2485-6.096.1952-7.16 3.4446-7.16 8.8303z" fill-rule="evenodd"/><path clip-rule="evenodd" d="m263.712 67.8788h-4.936l3.86-9.8515-10.6-25.3819h5.367l7.976 20.1031 8.133-20.1031h5.17z" fill-rule="evenodd"/><path clip-rule="evenodd" d="m282.297 58.1212v-36.6485h7.87v30.5667h15.887v6.0818z" fill-rule="evenodd"/><path d="m310.567 21.4733h8.123v6.5518h-8.123zm.254 11.1728h7.614v25.4748h-7.614z"/><path clip-rule="evenodd" d="m333.297 35.589.101.1552c1.725-2.5959 4.708-4.0685 7.818-3.8588 2.536 0 7.462 1.8703 8.372 5.5827.332 1.3296.506 2.694.516 4.0646v16.5882h-7.619v-15.3204c-.045-2.746-.815-5.8342-4.567-5.8342-2.39 0-4.467 2.1309-4.571 5.8342v15.3204h-7.611v-25.4749h7.561z" fill-rule="evenodd"/><path clip-rule="evenodd" d="m365.085 42.9606.097.0909 7.512-10.7061h8.476l-8.782 11.1637 9.339 14.6121h-8.879l-7.666-13.9515-.097.103v13.8485h-7.612v-36.6485h7.612z" fill-rule="evenodd"/></g></svg>