<svg height="264" viewBox="0 0 400 264" width="400" xmlns="http://www.w3.org/2000/svg"><g fill="#e3e8f0"><path d="m189.865263 234.971228c-78.983158 7.286316-161.3059648-4.190175-172.8364911-65.915789-5.6407017-30.428772 8.24-62.695439 26.628772-82.7508776v-10.7094737c-33.1256141 29.0519303-51.07789478 65.8119303-40.7375439 109.2357893 13.2084211 55.696141 83.8435088 87.236491 191.687719 76.762807 42.687018-4.136842 98.512983-17.861754 137.350176-39.194386v-30.282105c-35.24772 21.001403-93.534737 38.349474-142.092632 42.854035zm208.06807-160.0996491c-18.734737-91.4673684-196.330526-97.2659649-310.8119295-27.5789473v7.6968421c114.3501755-58.78877195 276.5501755-58.43157896 291.3178945 25.8266667 4.95579 27.8722806-10.745263 56.9101756-38.794386 73.6301756v21.862456c33.741053-12.37614 68.350877-52.405614 58.288421-101.4371931z"/><path d="m325.57193 61.5522807h-20.708772v92.2329823c0 10.809123 5.225263 20.209123 20.708772 21.710877zm-246.5817546 33.6757895h-20.7466666l-.0112281 60.2589478c0 10.847017 5.2421053 20.237193 20.7578947 21.710877zm-20.7466666-30.8701755h20.6821052v19.6301755h-20.6821052zm144.7677192 111.8856143c-16.762105 0-23.855439-11.650527-23.855439-23.126316v-80.0098246h20.528422v22.1207018h15.46035v16.5810528h-15.46035v40.04c0 4.679298 2.221754 7.286316 7.101052 7.286316h8.359298v17.108772zm37.774737-34.087018c0 10.505965 6.569123 18.226667 18.192982 18.226667 9.108071 0 13.597193-2.527719 18.854737-7.720702l12.684912 12.083509c-8.132631 8.034386-16.653333 12.919298-31.691228 12.919298-19.645614 0-38.468772-10.722105-38.468772-41.981052 0-26.723509 16.44772-41.8294742 38.013334-41.8294742 21.922807 0 34.521403 17.6842102 34.521403 40.8975442v7.406315h-52.107368zm16.686316-31.323509c-7.026667 0-12.425263 3.618948-14.713685 8.500351-1.332631 2.934035-1.821052 5.220351-1.973333 8.825965h31.637895c-.4-8.825965-4.401404-17.326316-14.950877-17.326316zm-122.726316.976141c6.019649 0 8.522105 2.97614 8.522105 7.806316v56.74807h20.533334v-56.867369c0-11.522807-6.13965-24.2463154-24.170527-24.2463154l-42.4147366-.0217544v81.1354388h20.5410526v-64.554386zm213.107368-33.7761405c-4.564912 0-8.208421-3.6814036-8.208421-8.2407018 0-4.5375439 3.643509-8.24 8.208421-8.24 4.542456 0 8.272281 3.7024561 8.272281 8.24 0 4.5592982-3.730526 8.2407018-8.272281 8.2407018zm0-15.1066667c-3.762105 0-6.78807 3.1094737-6.78807 6.8659649 0 3.7782456 3.025965 6.8329825 6.78807 6.8329825 3.761404 0 6.884913-3.0547369 6.884913-6.8329825-.000702-3.7564912-3.122807-6.8659649-6.884913-6.8659649zm3.653334 11.8049123h-1.539649c-.135503-.0016218-.257693-.0818942-.312983-.2056141l-2.082807-3.5403508c-.065263-.0757895-.238596-.1621053-.29193-.1621053h-.953684v3.5291228c0 .1740351-.12.3796491-.346667.3796491h-1.388772c-.207017 0-.346666-.205614-.346666-.3796491v-8.9017544c0-.5207017.173333-.7347368.628772-.8.498947-.0540351 1.8-.1192982 2.527719-.1192982 2.569123 0 4.077193.7564912 4.077193 3.1389473v.1740351c0 1.471579-.726316 2.2736842-1.854035 2.631579l2.168421 3.6919298c.035497.0824628.05388.1712745.054035.2610526-.002807.1396492-.077895.3024562-.338947.3024562zm-1.994386-7.0610527c0-.9943859-.618246-1.3087719-1.941755-1.3087719h-1.311579v2.8238597c.206316 0 1.138948.0435087 1.311579.0435087 1.323509 0 1.941755-.4414035 1.941755-1.3845614z"/></g></svg>