<svg height="62" viewBox="0 0 400 62" width="400" xmlns="http://www.w3.org/2000/svg"><g fill="#e3e8f0" fill-rule="evenodd"><path d="m188.252366 13.4611987c0 6.2056783-3.559622 9.4309149-8.883281 9.4309149-5.263091 0-8.852997-3.2252366-8.852997-9.2479496v-12.38233435h2.403786v12.22965295c0 4.5943218 2.434069 7.1798108 6.509779 7.1798108 3.92429 0 6.418927-2.3735016 6.418927-7.0271294v-12.38233435h2.403786z"/><path d="m195.271924 22.5564669h-2.341956v-15.72744482h2.341956v2.73817035c1.034701-1.70347003 2.677603-3.07255521 5.385489-3.07255521 3.801893 0 6.022713 2.55520505 6.022713 6.29779178v9.7652997h-2.341956v-9.1873817c0-2.9198738-1.582334-4.74574132-4.350788-4.74574132-2.707887 0-4.715458 1.97728702-4.715458 4.92870662z"/><path d="m211.115457 3.39179811v-2.58548896h2.677603v2.58548896zm.152682 19.16466879v-15.72744482h2.341956v15.72744482z" fill-rule="nonzero"/><path d="m230.095899 6.82902208h2.524921l-6.844164 15.84984232h-2.0694l-6.813881-15.84984232h2.585489l5.293376 13.05110412z"/><path d="m241.711041 20.8832808c2.158991 0 3.680757-.882019 4.958991-2.2208202l1.459936 1.3085173c-1.582334 1.7640379-3.497791 2.9514196-6.479495 2.9514196-4.319243 0-7.84858-3.3160884-7.84858-8.2145111 0-4.562776 3.194952-8.21324918 7.544479-8.21324918 4.65489 0 7.332492 3.71104098 7.332492 8.33564668 0 .2119874 0 .4555205-.030284.7305994h-12.471924c.331861 3.40694 2.765931 5.3223975 5.534385 5.3223975zm4.59306-7.0574133c-.243533-2.859306-1.886435-5.35394321-5.019558-5.35394321-2.736909 0-4.80631 2.28264981-5.110411 5.35394321z" fill-rule="nonzero"/><path d="m254.512303 22.5564669h-2.341956v-15.72744482h2.341956v4.10725552c1.155836-2.61577287 3.437224-4.5022082 6.418927-4.38107255v2.52492113h-.182965c-3.437224 0-6.235962 2.46435332-6.235962 7.21009462z"/><path d="m269.080126 22.8618297c-2.251104 0-4.745741-.882019-6.509779-2.3129338l1.18612-1.6731861c1.70347 1.2769716 3.589905 2.007571 5.444795 2.007571 1.886435 0 3.25552-.9728707 3.25552-2.4946373v-.0605678c0-1.5823344-1.856151-2.1905363-3.92429-2.7684542-2.464353-.7003155-5.202524-1.5507887-5.202524-4.4416404v-.0605679c0-2.70788639 2.251105-4.50220815 5.353944-4.50220815 1.916719 0 4.046687.66876971 5.658044 1.73375394l-1.064984 1.76403781c-1.459937-.94384854-3.133123-1.52176652-4.653628-1.52176652-1.856152 0-3.042271.97287067-3.042271 2.28138802v.0605678c0 1.4902208 1.947003 2.0681388 4.046687 2.7078865 2.43407.7305993 5.049843 1.6731861 5.049843 4.5022082v.0605678c0 2.9829653-2.464354 4.7179811-5.597477 4.7179811z"/><path d="m278.47571 3.39179811v-2.58548896h2.677602v2.58548896zm.151419 19.16466879v-15.72744482h2.341956v15.72744482z" fill-rule="nonzero"/><path d="m288.967823 18.0858044c0 1.9167193 1.064985 2.6157729 2.647319 2.6157729.791167 0 1.459937-.1526814 2.281388-.5476341v2.007571c-.821451.4252366-1.70347.6687697-2.829022.6687697-2.524921 0-4.44164-1.2466877-4.44164-4.4416404v-9.49148262h-2.190537v-2.06940063h2.190537v-4.74574132h2.341955v4.74574132h4.989275v2.06940063h-4.989275z"/><path d="m305.148265 23.073817c-1.338801 3.2555205-2.860568 4.4416404-5.232808 4.4416404-1.308517 0-2.281388-.273817-3.346372-.7911672l.791167-1.8548896c.760884.3949527 1.459937.577918 2.464354.577918 1.399369 0 2.281388-.7305994 3.225236-2.9514195l-7.149527-15.66687702h2.585489l5.718612 13.11167192 5.049843-13.11167192h2.494637z"/><path d="m330.541325 22.9223975c-4.715457 0-8.152681-3.711041-8.152681-8.1829653s3.468769-8.24479498 8.213249-8.24479498c4.715457 0 8.182965 3.71104098 8.182965 8.18296528s-3.497792 8.244795-8.243533 8.244795zm0-14.35962147c-3.40694 0-5.750158 2.70788647-5.750158 6.11482647 0 3.4069401 2.494637 6.1451104 5.809464 6.1451104 3.40694 0 5.780442-2.7078864 5.780442-6.0845426.001261-3.4372239-2.52366-6.17539427-5.839748-6.17539427z" fill-rule="nonzero"/><path d="m350.582965 6.88958991v2.00757097h-4.95899v13.65930602h-2.341956v-13.65804419h-2.160252v-2.03785489h2.160252v-1.36908517c0-3.4384858 1.733754-5.26309148 4.745741-5.26309148 1.095268 0 1.824606.12113564 2.585489.39495268v2.03785489c-.851735-.24353312-1.491482-.39495268-2.28265-.39495268-1.824605 0-2.736908 1.09526814-2.736908 3.34637224v1.27823344h4.989274z"/><path d="m180.585489 58.4063091c-6.14511 0-10.677603-4.836593-10.677603-10.9817034 0-6.0845426 4.502209-11.0422713 10.768455-11.0422713 3.863722 0 6.175394 1.3690852 8.305362 3.3766561l-1.642902 1.7640379c-1.794322-1.70347-3.801892-2.9198738-6.692744-2.9198738-4.715458 0-8.244795 3.8031545-8.244795 8.7608833 0 4.9589905 3.559621 8.8227129 8.244795 8.8227129 2.919874 0 4.836593-1.1255521 6.87571-3.0725552l1.581072 1.5507886c-2.219558 2.2511041-4.653628 3.7413249-8.51735 3.7413249z"/><path d="m193.203785 45.3249211-.700315-1.9167192c1.733754-.7911672 3.437224-1.3085174 5.718612-1.3085174 4.288959 0 6.692744 2.1892745 6.692744 6.3280758v9.6126182h-2.251104v-2.3722397c-1.095268 1.429653-2.919873 2.7078864-5.688328 2.7078864-2.919873 0-5.871293-1.6429022-5.871293-4.9287066 0-3.3463722 2.736908-5.1104101 6.723028-5.1104101 2.007571 0 3.438486.2738171 4.836593.6700316v-.5476341c0-2.8290221-1.733754-4.288959-4.685173-4.288959-1.853628-.0012618-3.314827.4858044-4.774764 1.1545741zm.273818 8.0315458c0 2.007571 1.824605 3.1634069 3.954574 3.1634069 2.88959 0 5.261829-1.7640378 5.261829-4.2586751v-1.5217665c-1.155836-.3343849-2.707886-.6687697-4.623344-.6687697-2.950157.0012618-4.593059 1.2782334-4.593059 3.2858044z" fill-rule="nonzero"/><path d="m209.504101 58.0416404v-22.2082019h2.341956v22.2082019z"/><path d="m216.741956 38.8769716v-2.5867508h2.677602v2.585489h-2.677602zm.151419 19.1646688v-15.7274448h2.341956v15.7274448z" fill-rule="nonzero"/><path d="m232.253628 42.3747634v2.007571h-4.958991v13.659306h-2.341956v-13.659306h-2.15899v-2.0391167h2.15899v-1.3678234c0-3.4384858 1.735016-5.2630915 4.745742-5.2630915 1.095268 0 1.824605.1211357 2.585489.3949527v2.0378549c-.851735-.2435331-1.490221-.3949527-2.281388-.3949527-1.824606 0-2.736909 1.0952682-2.736909 3.3463723v1.2782334z"/><path d="m241.497792 58.4063091c-4.715458 0-8.152682-3.711041-8.152682-8.1829653 0-4.4719242 3.46877-8.2447949 8.214511-8.2447949 4.715458 0 8.182966 3.711041 8.182966 8.1829653s-3.499054 8.2447949-8.244795 8.2447949zm0-14.3583596c-3.40694 0-5.750158 2.7078865-5.750158 6.1148265 0 3.4069401 2.494637 6.1451104 5.810726 6.1451104 3.40694 0 5.780441-2.7078864 5.780441-6.0845426 0-3.4372239-2.524921-6.1753943-5.841009-6.1753943z" fill-rule="nonzero"/><path d="m255.698423 58.0416404h-2.341956v-15.7274448h2.341956v4.1072555c1.155836-2.6170347 3.437224-4.5022082 6.418927-4.3810726v2.5249212h-.182965c-3.437224 0-6.235962 2.4643533-6.235962 7.2100946z"/><path d="m267.40694 58.0416404h-2.341956v-15.7274448h2.341956v2.7381703c1.0347-1.70347 2.677603-3.0725552 5.385489-3.0725552 3.801893 0 6.022713 2.5552051 6.022713 6.2977918v9.7652997h-2.341956v-9.1873817c0-2.9198738-1.582334-4.7457413-4.350789-4.7457413-2.707886 0-4.715457 1.977287-4.715457 4.9287066z"/><path d="m283.250473 38.8769716v-2.5867508h2.677603v2.585489h-2.677603zm.152682 19.1646688v-15.7274448h2.341955v15.7274448z" fill-rule="nonzero"/><path d="m291.492744 45.3249211-.700315-1.9167192c1.733754-.7911672 3.437224-1.3085174 5.718612-1.3085174 4.288959 0 6.692744 2.1892745 6.692744 6.3280758v9.6126182h-2.251104v-2.3722397c-1.095268 1.429653-2.919873 2.7078864-5.688328 2.7078864-2.919874 0-5.871293-1.6429022-5.871293-4.9287066 0-3.3463722 2.736908-5.1104101 6.723028-5.1104101 2.007571 0 3.438486.2738171 4.836593.6700316v-.5476341c0-2.8290221-1.733754-4.288959-4.685173-4.288959-1.85489-.0012618-3.314827.4858044-4.774764 1.1545741zm.273818 8.0315458c0 2.007571 1.824605 3.1634069 3.954574 3.1634069 2.88959 0 5.261829-1.7640378 5.261829-4.2586751v-1.5217665c-1.155836-.3343849-2.707886-.6687697-4.623344-.6687697-2.951419.0012618-4.593059 1.2782334-4.593059 3.2858044z" fill-rule="nonzero"/><path d="m308.4 58.0416404h-1.095268v-3.1936909h2.798738v2.7369085c0 2.4643534-1.064984 3.6504732-3.376656 4.1678234l-.365931-1.0649842c1.523029-.5463723 2.161514-1.3375395 2.039117-2.6460568z"/><path d="m325.948265 36.7470032v21.2946372h-2.402524v-21.2946372z"/><path d="m333.520505 58.0416404h-2.341956v-15.7274448h2.341956v4.1072555c1.155836-2.6170347 3.437224-4.5022082 6.418927-4.3810726v2.5249212h-.182965c-3.437224 0-6.235962 2.4643533-6.235962 7.2100946z"/><path d="m354.537539 42.3141956h2.524922l-6.844164 15.8498423h-2.069401l-6.81388-15.8498423h2.585489l5.293375 13.0511041z"/><path d="m360.190536 38.8769716v-2.5867508h2.677603v2.585489h-2.677603zm.152682 19.1646688v-15.7274448h2.341956v15.7274448z" fill-rule="nonzero"/><path d="m369.861199 58.0416404h-2.341956v-15.7274448h2.341956v2.7381703c1.0347-1.70347 2.677602-3.0725552 5.385489-3.0725552 3.801892 0 6.022713 2.5552051 6.022713 6.2977918v9.7652997h-2.341956v-9.1873817c0-2.9198738-1.582335-4.7457413-4.350789-4.7457413-2.707886 0-4.715457 1.977287-4.715457 4.9287066z"/><path d="m392.580442 56.3684543c2.160252 0 3.680757-.882019 4.95899-2.2208202l1.459937 1.3085173c-1.582334 1.7640379-3.497792 2.9501577-6.480757 2.9501577-4.319243 0-7.84858-3.3148265-7.84858-8.2132492 0-4.562776 3.19369-8.2132492 7.544479-8.2132492 4.653628 0 7.33123 3.711041 7.33123 8.3356467 0 .2119874 0 .4555205-.029022.7305994h-12.473186c.334385 3.4056782 2.768454 5.3223975 5.536909 5.3223975zm4.594321-7.0574133c-.243533-2.859306-1.886435-5.3539432-5.02082-5.3539432-2.73817 0-4.806309 2.281388-5.11041 5.3539432z" fill-rule="nonzero"/><path d="m0 33.1356467v-31.8801262h15.8990536v31.555836c0 8.1930599 4.1362776 12.0870662 10.4643533 12.0870662 6.4088328 0 10.5463723-3.7312303 10.5463723-11.6820189v-31.9608833h15.9003154v31.473817c0 18.252366-10.4656151 26.3646688-26.6082019 26.3646688-16.0630914 0-26.2018927-8.1930599-26.2018927-25.9583596z"/><path d="m60.4328076 29.8107256v-.1615142c0-16.5488959 12.6548896-29.52681392 29.8536277-29.52681392 11.5987387 0 19.0611987 4.86687697 24.0908517 11.76151422l-11.842271 9.1671924c-3.2466879-3.9735016-6.9779182-6.6523659-12.4113567-6.6523659-7.9507886 0-13.5457413 6.8151419-13.5457413 15.088959v.162776c0 8.5173501 5.5962145 15.1671924 13.5457413 15.1671924 5.9205047 0 9.4094637-2.7583596 12.8176657-6.8921135l11.842271 8.4353312c-5.355205 7.3829653-12.574132 12.8164038-25.064984 12.8164038-16.2258675-.0025237-29.2858044-12.4138802-29.2858044-29.3665615z"/><path d="m123.622713 1.2555205h15.737539v56.7823344h-15.737539z"/></g></svg>