<svg height="84" viewBox="0 0 84 84" width="84" xmlns="http://www.w3.org/2000/svg" xmlns:xlink="http://www.w3.org/1999/xlink"><defs><circle id="a" cx="32" cy="32" r="32"/><linearGradient id="b" x1="100%" x2="22.777%" y1="24.691%" y2="50%"><stop offset="0" stop-color="#0b4e9b"/><stop offset="1" stop-color="#1d74f5"/></linearGradient><circle id="c" cx="8.571" cy="8.571" r="8.571"/><linearGradient id="d" x1="100%" x2="0%" y1="50%" y2="50%"><stop offset="0" stop-color="#c2cddd"/><stop offset="1" stop-color="#e0e7ef"/></linearGradient><mask id="e" fill="#fff"><use fill="#fff" fill-rule="evenodd" xlink:href="#a"/></mask><mask id="f" fill="#fff"><use fill="#fff" fill-rule="evenodd" xlink:href="#c"/></mask></defs><g fill="none" fill-rule="evenodd" transform="translate(10 10)"><use fill="#a3b4cc" xlink:href="#a"/><g mask="url(#e)"><path d="m20.89 19.504h-7.014l-13.876-15.64 4.59-3.864z" fill="url(#b)" fill-rule="nonzero" transform="translate(14 -2)"/><g transform="translate(14.152 .36)"><rect fill="#ecf0f4" height="38.571" rx="2" width="34.286" y="12.857"/><g transform="translate(8.571 23.143)"><use fill="#a3b4cc" xlink:href="#c"/><g fill-rule="nonzero" mask="url(#f)"><path d="m11.088 11.697c.088.04.203.088.351.146-.212-.083.778.292 1.045.408 1.651.715 2.567 1.798 2.567 3.722l.663 3.855c-.15.115-4.886.38-14.21.797l.783-4.652c0-1.924.916-3.007 2.568-3.722.267-.116 1.257-.49 1.044-.408.171-.066.298-.12.39-.165 1.6.928 3.2.934 4.799.02z" fill="#1d74f5"/><path d="m11.088 11.697c-1.6.915-3.2.909-4.799-.02.18-.086.233-.136.237-.167a2.083 2.083 0 0 0 -.056-.61.644.644 0 0 0 -.123-.265c-.82-.861-1.236-1.796-1.236-3.096 0-2.22 1.571-4.057 3.558-4.057 1.988 0 3.559 1.836 3.559 4.057 0 1.304-.428 2.267-1.243 3.088a.668.668 0 0 0 -.117.27 2.254 2.254 0 0 0 -.052.675c0-.012.057.03.272.125z" fill="#f3f5f8"/></g></g><rect fill="#1867de" height="1.714" opacity=".529" rx=".857" width="19.876" x="7.143" y="43.143"/><path d="m2.025 12.8h30.285a2 2 0 0 1 2 2v4.857h-34.285v-4.857a2 2 0 0 1 2-2z" fill="url(#d)"/><rect fill="#a3b4cc" height="1.714" rx=".857" width="15.429" x="9.429" y="15.429"/><path d="m13.724 17.143h7.583l11.836-13.71c-1.026-.716-1.822-1.233-2.389-1.55-.567-.319-1.377-.72-2.43-1.207z" fill="#1d74f5" fill-rule="nonzero"/></g><rect fill="#1867de" height="1.371" opacity=".529" rx=".686" transform="translate(23.866 46.075)" width="13.714" y=".229"/></g></g></svg>