<svg height="84" viewBox="0 0 84 84" width="84" xmlns="http://www.w3.org/2000/svg" xmlns:xlink="http://www.w3.org/1999/xlink"><defs><path id="a" d="m29.14 21.2c-1.653-.844-1.574-1.012-1.312-1.561.15-.345.318-.695.488-1.048.61-1.258 1.299-2.686 1.299-4.314 0-7.874-6.645-14.277-14.809-14.277s-14.806 6.403-14.806 14.277c0 8.272 6.936 14.276 16.49 14.276l.324.002h.38c5.278 0 12.25-.457 13.974-3.993.91-1.866-1.073-2.876-2.028-3.362"/><filter id="b" height="128%" width="125.5%" x="-19.1%" y="-17.5%"><feOffset dx="-2" dy="-1" in="SourceAlpha" result="shadowOffsetOuter1"/><feGaussianBlur in="shadowOffsetOuter1" result="shadowBlurOuter1" stdDeviation="1"/><feColorMatrix in="shadowBlurOuter1" values="0 0 0 0 0.0285078408 0 0 0 0 0.279478654 0 0 0 0 0.65160779 0 0 0 0.15 0"/></filter></defs><g fill="none" fill-rule="evenodd"><circle cx="32" cy="32" fill="#a3b4cc" r="32" transform="translate(10 10)"/><path d="m26.134 42.926c1.666-.833 1.586-.999 1.322-1.541-.15-.34-.32-.686-.491-1.035-.615-1.241-1.31-2.65-1.31-4.257.001-7.773 6.698-14.093 14.925-14.093 8.228 0 14.922 6.32 14.922 14.093 0 8.165-6.99 14.09-16.618 14.09l-.328.002h-.383c-5.319 0-12.346-.45-14.083-3.94-.917-1.843 1.082-2.84 2.044-3.32" fill="#ebedf2"/><g fill="#1d74f5" transform="matrix(-1 0 0 1 48.481 31.653)"><rect height="2.633" rx="1.316" width="11.119" y="5.265"/><rect height="2.633" rx="1.316" width="16.251"/></g><g transform="translate(46.587 35.885)"><use fill="#000" filter="url(#b)" xlink:href="#a"/><use fill="#1d74f5" xlink:href="#a"/></g><g fill="#fff"><rect height="2.633" rx="1.316" width="11.033" x="53.607" y="50.803"/><rect height="2.633" rx="1.316" width="16.125" x="53.607" y="45.538"/></g></g></svg>