<svg xmlns="http://www.w3.org/2000/svg" xmlns:xlink="http://www.w3.org/1999/xlink" width="84" height="84" viewBox="0 0 84 84">
    <defs>
        <circle id="a" cx="32" cy="32" r="32"/>
        <path id="c" d="M29.14 21.2c-1.653-.844-1.574-1.012-1.312-1.561.15-.345.318-.695.488-1.048.61-1.258 1.299-2.686 1.299-4.314C29.615 6.403 22.97 0 14.806 0 6.642 0 0 6.403 0 14.277c0 8.272 6.936 14.276 16.49 14.276l.324.002h.38c5.278 0 12.25-.457 13.974-3.993.91-1.866-1.073-2.876-2.028-3.362"/>
        <filter id="b" width="125.5%" height="128%" x="-19.1%" y="-17.5%" filterUnits="objectBoundingBox">
            <feOffset dx="-2" dy="-1" in="SourceAlpha" result="shadowOffsetOuter1"/>
            <feGaussianBlur in="shadowOffsetOuter1" result="shadowBlurOuter1" stdDeviation="1"/>
            <feColorMatrix in="shadowBlurOuter1" values="0 0 0 0 0.0285078408 0 0 0 0 0.279478654 0 0 0 0 0.65160779 0 0 0 0.15 0"/>
        </filter>
    </defs>
    <g fill="none" fill-rule="evenodd">
        <use fill="#A3B4CC" transform="translate(10 10)" xlink:href="#a"/>
        <path fill="#EBEDF2" d="M26.134 42.926c1.666-.833 1.586-.999 1.322-1.541-.15-.34-.32-.686-.491-1.035-.615-1.241-1.31-2.65-1.31-4.257C25.656 28.32 32.353 22 40.58 22c8.228 0 14.922 6.32 14.922 14.093 0 8.165-6.99 14.09-16.618 14.09l-.328.002h-.383c-5.319 0-12.346-.45-14.083-3.94-.917-1.843 1.082-2.84 2.044-3.32"/>
        <g fill="#1D74F5" transform="matrix(-1 0 0 1 48.481 31.653)">
            <rect width="11.119" height="2.633" y="5.265" rx="1.316"/>
            <rect width="16.251" height="2.633" rx="1.316"/>
        </g>
        <g>
            <g transform="translate(46.587 35.885)">
                <use fill="#000" filter="url(#b)" xlink:href="#c"/>
                <use fill="#1D74F5" xlink:href="#c"/>
            </g>
            <g fill="#FFF" transform="translate(53.607 45.538)">
                <rect width="11.033" height="2.633" y="5.265" rx="1.316"/>
                <rect width="16.125" height="2.633" rx="1.316"/>
            </g>
        </g>
    </g>
</svg>
