<svg xmlns="http://www.w3.org/2000/svg" width="36" height="36" viewBox="0 0 36 36">
    <g fill="none" fill-rule="evenodd">
        <path fill="#030C1A" d="M10.927 16.893c0 .39.042.707.115.94.085.231.19.485.338.76a.46.46 0 0 1 .073.242c0 .106-.063.211-.2.317l-.664.443a.505.505 0 0 1-.273.095c-.106 0-.211-.053-.317-.148a3.265 3.265 0 0 1-.379-.496c-.105-.18-.21-.38-.326-.623-.822.971-1.855 1.457-3.098 1.457-.885 0-1.59-.253-2.107-.76-.516-.507-.78-1.182-.78-2.027 0-.897.317-1.625.96-2.174.642-.549 1.495-.823 2.58-.823.359 0 .727.031 1.117.084.39.053.79.137 1.212.232v-.77c0-.803-.169-1.362-.495-1.69-.338-.326-.906-.485-1.718-.485-.368 0-.748.042-1.137.137-.39.095-.77.212-1.138.36a3.02 3.02 0 0 1-.369.137.645.645 0 0 1-.169.031c-.147 0-.22-.105-.22-.327v-.517c0-.17.02-.296.073-.37a.788.788 0 0 1 .295-.221c.369-.19.811-.349 1.327-.475a6.375 6.375 0 0 1 1.644-.2c1.254 0 2.17.284 2.76.854.58.57.874 1.436.874 2.597v3.42h.022zm-4.278 1.604c.348 0 .706-.063 1.085-.19.38-.126.717-.359 1.001-.675.169-.2.295-.423.358-.676.064-.253.106-.56.106-.918v-.444a8.782 8.782 0 0 0-.97-.179 7.923 7.923 0 0 0-.99-.063c-.706 0-1.222.137-1.57.422-.347.285-.516.686-.516 1.214 0 .496.127.865.39 1.119.253.264.622.39 1.106.39zm8.46 1.14c-.19 0-.316-.031-.4-.105-.085-.064-.158-.211-.222-.412l-2.475-8.16c-.064-.21-.095-.348-.095-.422 0-.169.084-.264.253-.264h1.032c.2 0 .337.032.411.106.084.063.147.211.21.412l1.77 6.987 1.644-6.987c.053-.211.116-.349.2-.412s.232-.106.422-.106h.842c.2 0 .337.032.422.106.084.063.158.211.2.412l1.664 7.072 1.823-7.072c.063-.211.137-.349.21-.412.085-.063.222-.106.412-.106h.98c.168 0 .263.085.263.264 0 .053-.01.106-.021.17-.011.063-.032.147-.074.263l-2.539 8.16c-.063.21-.137.348-.221.411-.085.064-.222.106-.4.106h-.907c-.2 0-.337-.032-.421-.106-.084-.074-.158-.21-.2-.422l-1.633-6.808-1.622 6.797c-.053.212-.116.349-.2.423-.085.074-.232.105-.422.105h-.906zm13.537.285a6.959 6.959 0 0 1-1.622-.19c-.527-.126-.938-.264-1.212-.422-.168-.095-.284-.2-.326-.296a.746.746 0 0 1-.063-.295v-.538c0-.222.084-.328.242-.328.063 0 .126.01.19.032.063.021.158.063.263.106.358.158.748.285 1.159.369.421.084.832.127 1.253.127.664 0 1.18-.116 1.538-.349.359-.232.548-.57.548-1.002 0-.296-.094-.539-.284-.74-.19-.2-.548-.38-1.064-.548l-1.528-.475c-.769-.243-1.338-.602-1.685-1.077a2.518 2.518 0 0 1-.527-1.53c0-.444.095-.834.284-1.172.19-.338.443-.633.759-.866a3.341 3.341 0 0 1 1.096-.549c.421-.126.863-.179 1.327-.179.232 0 .474.01.706.042.242.032.463.074.685.116.21.053.41.106.6.17a2.3 2.3 0 0 1 .443.19.911.911 0 0 1 .316.263.57.57 0 0 1 .094.348v.497c0 .221-.084.337-.242.337-.084 0-.221-.042-.4-.126-.6-.275-1.275-.412-2.023-.412-.6 0-1.074.095-1.401.296-.327.2-.495.506-.495.939 0 .296.105.549.316.75.21.2.6.4 1.159.58l1.496.475c.758.243 1.306.58 1.633 1.013.326.433.484.93.484 1.478 0 .454-.095.866-.274 1.225-.19.358-.442.675-.769.928-.326.264-.716.454-1.17.592a5 5 0 0 1-1.506.221z"/>
        <path fill="#F90" d="M30.637 25.052c-3.466 2.565-8.501 3.927-12.831 3.927-6.068 0-11.536-2.248-15.666-5.985-.326-.296-.031-.697.359-.465 4.466 2.597 9.976 4.17 15.676 4.17 3.845 0 8.07-.802 11.957-2.449.58-.264 1.074.38.505.802zm1.444-1.646c-.443-.57-2.929-.275-4.056-.138-.337.043-.39-.253-.084-.475 1.98-1.393 5.235-.992 5.615-.527.379.475-.106 3.736-1.96 5.298-.284.243-.558.117-.432-.2.422-1.045 1.36-3.399.917-3.958z"/>
    </g>
</svg>
