<svg xmlns="http://www.w3.org/2000/svg" xmlns:xlink="http://www.w3.org/1999/xlink" width="84" height="84" viewBox="0 0 84 84">
    <defs>
        <circle id="a" cx="32" cy="32" r="32"/>
        <linearGradient id="b" x1="100%" x2="0%" y1="50%" y2="50%">
            <stop offset="0%" stop-color="#C2CDDD"/>
            <stop offset="100%" stop-color="#E0E7EF"/>
        </linearGradient>
    </defs>
    <g fill="none" fill-rule="evenodd">
        <use fill="#A3B4CC" transform="translate(10 10)" xlink:href="#a"/>
        <path fill="url(#b)" d="M38.716 22.125A1.28 1.28 0 0 0 40 20.855a1.28 1.28 0 0 0-1.284-1.27h-6.55a7.65 7.65 0 0 0 .033-.856c0-.985-.128-1.969-.353-2.89 2.376-.507 4.398-2.221 5.2-4.57l2.055-5.873a1.273 1.273 0 0 0-.802-1.619c-.675-.222-1.413.127-1.638.794l-2.054 5.873a4.526 4.526 0 0 1-3.66 2.983 11.952 11.952 0 0 0-4.238-4.761c.161-.571.225-1.175.225-1.778C26.998 3.111 23.852 0 20 0c-3.852 0-6.998 3.11-6.998 6.92 0 .603.096 1.206.224 1.778a12.197 12.197 0 0 0-4.237 4.761c-1.67-.254-3.114-1.397-3.66-2.984L3.307 4.603c-.225-.667-.964-1.016-1.638-.794a1.273 1.273 0 0 0-.802 1.62L2.92 11.3a7.108 7.108 0 0 0 5.201 4.57c-.225.921-.353 1.873-.353 2.89 0 .285 0 .57.032.856H1.284A1.28 1.28 0 0 0 0 20.887c0 .698.578 1.27 1.284 1.27h6.902c.257 1.174.642 2.38 1.156 3.555a7.119 7.119 0 0 0-6.42 4.73L.866 36.314a1.273 1.273 0 0 0 .802 1.62c.674.221 1.413-.128 1.638-.794l2.054-5.873a4.602 4.602 0 0 1 4.334-3.047h.931c2.247 3.809 5.618 6.825 9.374 6.825 3.756 0 7.127-3.016 9.374-6.825h.931a4.602 4.602 0 0 1 4.334 3.047l2.054 5.873c.193.54.675.857 1.22.857.129 0 .29-.032.418-.064a1.273 1.273 0 0 0 .802-1.619l-2.054-5.872a7.119 7.119 0 0 0-6.42-4.73c.513-1.174.898-2.38 1.155-3.555h6.902v-.032z" transform="translate(19 20)"/>
        <path fill="#1D74F5" fill-rule="nonzero" d="M51.467 39.844c.033-.299.033-.597.033-.896 0-1.028-.131-2.057-.361-3.019.032-.033-.953-2.521-.92-2.521-.986-2.024-2.464-3.749-4.337-4.976.165-.598-13.929-.564-13.797.033a12.663 12.663 0 0 0-4.337 4.976c-.065-.033-.887 2.62-.887 2.521-.23.962-.361 1.958-.361 3.02 0 .298 0 .596.033.895l.394 2.654a20.28 20.28 0 0 0 1.183 3.716c-.066-.045.372.829 1.314 2.62 2.3 3.981 5.749 7.133 9.592 7.133 3.844 0 7.293-3.152 9.593-7.133.942-1.791 1.38-2.665 1.314-2.62a20.28 20.28 0 0 0 1.183-3.716l.361-2.687z"/>
        <circle cx="45.5" cy="44.5" r="13.5" fill="#FFF" opacity=".25"/>
        <g fill-rule="nonzero">
            <path fill="#1D74F5" d="M61.621 56.023L73.027 67.33a3.321 3.321 0 1 1-4.696 4.698l-11.405-11.31 4.695-4.696z"/>
            <path fill="#ECF0F4" d="M34.537 33.536c6.047-6.048 15.888-6.048 21.935 0 5.506 5.503 5.984 14.14 1.468 20.213l3.042 3.04-3.194 3.192-3.041-3.042c-6.068 4.517-14.706 4.04-20.21-1.466-6.05-6.048-6.05-15.888 0-21.937zm2.308 19.627c4.774 4.777 12.545 4.777 17.319 0 4.774-4.774 4.774-12.543 0-17.319-4.776-4.774-12.546-4.774-17.319 0-4.777 4.777-4.777 12.545 0 17.32z"/>
            <path fill="#E7EBF2" d="M39.366 36.655c3.724-2.203 8.54-2.208 12.266-.007.376.223.482.677.233 1.013a.732.732 0 0 1-.104.115.888.888 0 0 1-1.025.094c-3.184-1.876-7.29-1.874-10.47.008-.377.225-.884.13-1.13-.207-.247-.336-.15-.79.23-1.016z"/>
        </g>
    </g>
</svg>
