<svg xmlns="http://www.w3.org/2000/svg" xmlns:xlink="http://www.w3.org/1999/xlink" width="84" height="84" viewBox="0 0 84 84">
    <defs>
        <circle id="a" cx="32" cy="32" r="32"/>
        <linearGradient id="c" x1="16.6%" x2="83.286%" y1="31.484%" y2="50%">
            <stop offset="0%" stop-color="#0B4E9B"/>
            <stop offset="100%" stop-color="#1D74F5"/>
        </linearGradient>
        <linearGradient id="d" x1="94.328%" x2="25.865%" y1="20.966%" y2="50%">
            <stop offset="0%" stop-color="#0B4E9B"/>
            <stop offset="100%" stop-color="#1D74F5"/>
        </linearGradient>
    </defs>
    <g fill="none" fill-rule="evenodd" transform="translate(10 10)">
        <mask id="b" fill="#fff">
            <use xlink:href="#a"/>
        </mask>
        <use fill="#A3B4CC" xlink:href="#a"/>
        <g fill-rule="nonzero" mask="url(#b)">
            <path fill="url(#c)" d="M16.849 15.851c.169.076.389.17.673.282-.407-.16 1.489.563 2 .786 3.162 1.379 4.916 3.47 4.916 7.182v.73c-.09 8.64-.278 13.07-.564 13.292-.428.333-18.503 1.366-20.648.813C1.837 38.578.992 25.602.564 25.269L0 24.832V24.1c0-3.712 1.754-5.803 4.916-7.182.51-.223 2.407-.946 2-.786.327-.129.57-.234.747-.32 3.062 1.79 6.124 1.803 9.186.038z" transform="translate(40.492 25.815)"/>
            <path fill="#E7EBF2" d="M57.341 41.666c-3.062 1.766-6.124 1.753-9.186-.038.343-.166.445-.263.452-.324a4.05 4.05 0 0 0-.107-1.178c-.065-.246-.151-.421-.234-.51-1.57-1.661-2.367-3.465-2.367-5.974 0-4.284 3.007-7.827 6.812-7.827s6.813 3.543 6.813 7.827c0 2.517-.82 4.375-2.38 5.958-.076.084-.16.264-.223.523-.093.379-.12.813-.106 1.161l.005.141c0-.023.111.057.521.241z"/>
            <path fill="url(#d)" d="M16.849 15.851c.169.076.389.17.673.282-.407-.16 1.489.563 2 .786 3.162 1.379 4.916 3.47 4.916 7.182v.73l-.564.438c-.428.333-1.273 16.127-2.662 16.485C19.067 42.307.992 25.602.564 25.269L0 24.832V24.1c0-3.712 1.754-5.803 4.916-7.182.51-.223 2.407-.946 2-.786.327-.129.57-.234.747-.32 3.062 1.79 6.124 1.803 9.186.038z" transform="translate(0 25.815)"/>
            <path fill="#E7EBF2" d="M16.849 41.666c-3.062 1.766-6.124 1.753-9.186-.038.343-.166.444-.263.452-.324a4.05 4.05 0 0 0-.108-1.178c-.065-.246-.15-.421-.233-.51-1.57-1.661-2.367-3.465-2.367-5.974 0-4.284 3.007-7.827 6.812-7.827s6.812 3.543 6.812 7.827c0 2.517-.819 4.375-2.379 5.958-.076.084-.16.264-.224.523-.093.379-.12.813-.105 1.161l.005.141c0-.023.11.057.52.241z"/>
            <g>
                <path fill="#1D74F5" d="M38.519 48.606c.22.1.506.221.875.366-.529-.207 1.936.733 2.6 1.022 4.11 1.793 6.39 4.512 6.39 9.337L50.034 69c-.372.288-12.16.955-35.366 2l1.948-11.669c0-4.825 2.28-7.544 6.391-9.337.664-.29 3.129-1.23 2.6-1.022.425-.167.74-.303.97-.415 3.982 2.328 7.962 2.344 11.943.05z"/>
                <path fill="#F3F5F8" d="M38.519 48.606c-3.98 2.295-7.961 2.279-11.942-.05.446-.216.578-.34.588-.42a5.264 5.264 0 0 0-.14-1.532c-.084-.32-.196-.548-.304-.663-2.04-2.16-3.077-4.505-3.077-7.766 0-5.57 3.91-10.175 8.856-10.175s8.856 4.605 8.856 10.175c0 3.272-1.065 5.687-3.092 7.745-.1.109-.209.343-.292.68a5.696 5.696 0 0 0-.137 1.51l.007.183c0-.03.144.074.677.313z"/>
            </g>
        </g>
    </g>
</svg>
