<svg xmlns="http://www.w3.org/2000/svg" xmlns:xlink="http://www.w3.org/1999/xlink" width="375" height="376" viewBox="0 0 375 376">
    <defs>
        <circle id="a" cx="21.284" cy="21.284" r="21.284"/>
        <linearGradient id="c" x1="16.6%" x2="83.286%" y1="31.484%" y2="50%">
            <stop offset="0%" stop-color="#0B4E9B"/>
            <stop offset="100%" stop-color="#1D74F5"/>
        </linearGradient>
        <linearGradient id="d" x1="94.328%" x2="25.865%" y1="20.966%" y2="50%">
            <stop offset="0%" stop-color="#0B4E9B"/>
            <stop offset="100%" stop-color="#1D74F5"/>
        </linearGradient>
        <circle id="e" cx="21.284" cy="21.284" r="21.284"/>
        <circle id="g" cx="21.284" cy="21.284" r="21.284"/>
        <circle id="i" cx="21.284" cy="21.284" r="21.284"/>
        <circle id="k" cx="28.378" cy="28.378" r="28.378"/>
        <circle id="m" cx="28.378" cy="28.378" r="28.378"/>
        <circle id="o" cx="21.284" cy="21.284" r="21.284"/>
        <circle id="q" cx="28.378" cy="28.378" r="28.378"/>
        <circle id="s" cx="28.378" cy="28.378" r="28.378"/>
    </defs>
    <g fill="none" fill-rule="evenodd">
        <path fill="#A3B4CC" fill-opacity=".3" stroke="#A3B4CC" stroke-dasharray="4,4" stroke-linecap="round" stroke-linejoin="round" stroke-width="2" d="M185.473 375c101.874 0 184.46-82.585 184.46-184.46 0-101.874-82.586-184.459-184.46-184.459-101.874 0-184.46 82.585-184.46 184.46C1.014 292.415 83.6 375 185.474 375z" opacity=".407"/>
        <g transform="translate(0 87.162)">
            <mask id="b" fill="#fff">
                <use xlink:href="#a"/>
            </mask>
            <use fill="#A3B4CC" xlink:href="#a"/>
            <g fill-rule="nonzero" mask="url(#b)">
                <path fill="url(#c)" d="M11.206 10.543c.113.05.26.113.448.187-.27-.106.99.375 1.33.523 2.103.917 3.27 2.308 3.27 4.777v.486c-.06 5.746-.185 8.693-.375 8.84-.285.222-12.307.909-13.733.54-.924-.237-1.486-8.868-1.771-9.09L0 16.517v-.486c0-2.469 1.167-3.86 3.27-4.777.34-.148 1.6-.63 1.33-.523.217-.085.379-.155.497-.213 2.036 1.192 4.073 1.2 6.11.026z" transform="translate(26.932 17.17)"/>
                <path fill="#E7EBF2" d="M38.139 27.713c-2.037 1.174-4.074 1.166-6.11-.025.228-.11.296-.175.3-.216a2.693 2.693 0 0 0-.07-.783c-.044-.164-.101-.28-.157-.34-1.043-1.105-1.574-2.304-1.574-3.973 0-2.85 2-5.206 4.531-5.206 2.53 0 4.531 2.356 4.531 5.206 0 1.674-.544 2.91-1.582 3.963-.05.055-.107.175-.149.348-.062.251-.08.54-.07.772l.003.094c0-.016.074.037.347.16z"/>
                <path fill="url(#d)" d="M11.206 10.543c.113.05.26.113.448.187-.27-.106.99.375 1.33.523 2.103.917 3.27 2.308 3.27 4.777v.486l-.375.29c-.285.222-.847 10.727-1.77 10.965C12.681 28.14.658 17.028.374 16.807L0 16.516v-.486c0-2.469 1.167-3.86 3.27-4.777.34-.148 1.6-.63 1.33-.523.217-.085.379-.155.497-.213 2.036 1.192 4.073 1.2 6.11.026z" transform="translate(0 17.17)"/>
                <path fill="#E7EBF2" d="M11.206 27.713c-2.036 1.174-4.073 1.166-6.11-.025.229-.11.296-.175.301-.216a2.693 2.693 0 0 0-.071-.783c-.043-.164-.1-.28-.156-.34-1.043-1.105-1.574-2.304-1.574-3.973 0-2.85 2-5.206 4.531-5.206 2.53 0 4.531 2.356 4.531 5.206 0 1.674-.545 2.91-1.582 3.963-.05.055-.107.175-.15.348-.061.251-.079.54-.07.772l.004.094c0-.016.074.037.346.16z"/>
                <g>
                    <path fill="#1D74F5" d="M25.62 32.329c.146.066.336.147.582.243-.352-.138 1.287.487 1.729.68 2.734 1.193 4.25 3.001 4.25 6.21l1.097 6.431c-.247.192-8.088.635-23.523 1.33l1.296-7.76c0-3.21 1.517-5.018 4.25-6.21.443-.194 2.082-.819 1.73-.68.283-.112.492-.202.646-.277 2.647 1.548 5.295 1.56 7.943.033z"/>
                    <path fill="#F3F5F8" d="M25.62 32.329c-2.648 1.526-5.296 1.515-7.943-.033.296-.144.384-.227.39-.28a3.501 3.501 0 0 0-.092-1.019c-.056-.213-.13-.364-.202-.44-1.357-1.437-2.047-2.997-2.047-5.166 0-3.705 2.6-6.768 5.89-6.768 3.29 0 5.89 3.063 5.89 6.768 0 2.176-.707 3.783-2.056 5.152-.066.072-.139.228-.194.451-.08.328-.103.703-.091 1.005l.004.122c0-.02.096.049.45.208z"/>
                </g>
            </g>
        </g>
        <g transform="translate(96.284)">
            <mask id="f" fill="#fff">
                <use xlink:href="#e"/>
            </mask>
            <use fill="#A3B4CC" xlink:href="#e"/>
            <g fill-rule="nonzero" mask="url(#f)">
                <path fill="url(#c)" d="M11.206 10.543c.113.05.26.113.448.187-.27-.106.99.375 1.33.523 2.103.917 3.27 2.308 3.27 4.777v.486c-.06 5.746-.185 8.693-.375 8.84-.285.222-12.307.909-13.733.54-.924-.237-1.486-8.868-1.771-9.09L0 16.517v-.486c0-2.469 1.167-3.86 3.27-4.777.34-.148 1.6-.63 1.33-.523.217-.085.379-.155.497-.213 2.036 1.192 4.073 1.2 6.11.026z" transform="translate(26.932 17.17)"/>
                <path fill="#E7EBF2" d="M38.139 27.713c-2.037 1.174-4.074 1.166-6.11-.025.228-.11.296-.175.3-.216a2.693 2.693 0 0 0-.07-.783c-.044-.164-.101-.28-.157-.34-1.043-1.105-1.574-2.304-1.574-3.973 0-2.85 2-5.206 4.531-5.206 2.53 0 4.531 2.356 4.531 5.206 0 1.674-.544 2.91-1.582 3.963-.05.055-.107.175-.149.348-.062.251-.08.54-.07.772l.003.094c0-.016.074.037.347.16z"/>
                <path fill="url(#d)" d="M11.206 10.543c.113.05.26.113.448.187-.27-.106.99.375 1.33.523 2.103.917 3.27 2.308 3.27 4.777v.486l-.375.29c-.285.222-.847 10.727-1.77 10.965C12.681 28.14.658 17.028.374 16.807L0 16.516v-.486c0-2.469 1.167-3.86 3.27-4.777.34-.148 1.6-.63 1.33-.523.217-.085.379-.155.497-.213 2.036 1.192 4.073 1.2 6.11.026z" transform="translate(0 17.17)"/>
                <path fill="#E7EBF2" d="M11.206 27.713c-2.036 1.174-4.073 1.166-6.11-.025.229-.11.296-.175.301-.216a2.693 2.693 0 0 0-.071-.783c-.043-.164-.1-.28-.156-.34-1.043-1.105-1.574-2.304-1.574-3.973 0-2.85 2-5.206 4.531-5.206 2.53 0 4.531 2.356 4.531 5.206 0 1.674-.545 2.91-1.582 3.963-.05.055-.107.175-.15.348-.061.251-.079.54-.07.772l.004.094c0-.016.074.037.346.16z"/>
                <g>
                    <path fill="#1D74F5" d="M25.62 32.329c.146.066.336.147.582.243-.352-.138 1.287.487 1.729.68 2.734 1.193 4.25 3.001 4.25 6.21l1.097 6.431c-.247.192-8.088.635-23.523 1.33l1.296-7.76c0-3.21 1.517-5.018 4.25-6.21.443-.194 2.082-.819 1.73-.68.283-.112.492-.202.646-.277 2.647 1.548 5.295 1.56 7.943.033z"/>
                    <path fill="#F3F5F8" d="M25.62 32.329c-2.648 1.526-5.296 1.515-7.943-.033.296-.144.384-.227.39-.28a3.501 3.501 0 0 0-.092-1.019c-.056-.213-.13-.364-.202-.44-1.357-1.437-2.047-2.997-2.047-5.166 0-3.705 2.6-6.768 5.89-6.768 3.29 0 5.89 3.063 5.89 6.768 0 2.176-.707 3.783-2.056 5.152-.066.072-.139.228-.194.451-.08.328-.103.703-.091 1.005l.004.122c0-.02.096.049.45.208z"/>
                </g>
            </g>
        </g>
        <path fill="#E6F1FF" stroke="#ABD0FF" stroke-dasharray="4,4" stroke-linecap="round" stroke-linejoin="round" stroke-width="2" d="M185.473 302.027c61.572 0 111.486-49.914 111.486-111.486 0-61.573-49.914-111.487-111.486-111.487S73.986 128.968 73.986 190.541c0 61.572 49.915 111.486 111.487 111.486z"/>
        <path stroke="#1D74F5" stroke-dasharray="4,4" stroke-linecap="square" stroke-width="2" d="M130.743 30.405l87.162 56.757M226.014 112.5l-25.338 46.622M150 196.622l-64.865 6.08M268.581 215.878l-47.635-16.216M188.514 276.182v-50.168M66.892 307.095l3.04-81.081M31.419 123.649l34.966 60.81M111.486 34.46l-37.5 145.945M331.419 115.54l-72.973-13.175"/>
        <g transform="translate(332.432 97.297)">
            <mask id="h" fill="#fff">
                <use xlink:href="#g"/>
            </mask>
            <use fill="#A3B4CC" xlink:href="#g"/>
            <g fill-rule="nonzero" mask="url(#h)">
                <path fill="url(#c)" d="M11.206 10.543c.113.05.26.113.448.187-.27-.106.99.375 1.33.523 2.103.917 3.27 2.308 3.27 4.777v.486c-.06 5.746-.185 8.693-.375 8.84-.285.222-12.307.909-13.733.54-.924-.237-1.486-8.868-1.771-9.09L0 16.517v-.486c0-2.469 1.167-3.86 3.27-4.777.34-.148 1.6-.63 1.33-.523.217-.085.379-.155.497-.213 2.036 1.192 4.073 1.2 6.11.026z" transform="translate(26.932 17.17)"/>
                <path fill="#E7EBF2" d="M38.139 27.713c-2.037 1.174-4.074 1.166-6.11-.025.228-.11.296-.175.3-.216a2.693 2.693 0 0 0-.07-.783c-.044-.164-.101-.28-.157-.34-1.043-1.105-1.574-2.304-1.574-3.973 0-2.85 2-5.206 4.531-5.206 2.53 0 4.531 2.356 4.531 5.206 0 1.674-.544 2.91-1.582 3.963-.05.055-.107.175-.149.348-.062.251-.08.54-.07.772l.003.094c0-.016.074.037.347.16z"/>
                <path fill="url(#d)" d="M11.206 10.543c.113.05.26.113.448.187-.27-.106.99.375 1.33.523 2.103.917 3.27 2.308 3.27 4.777v.486l-.375.29c-.285.222-.847 10.727-1.77 10.965C12.681 28.14.658 17.028.374 16.807L0 16.516v-.486c0-2.469 1.167-3.86 3.27-4.777.34-.148 1.6-.63 1.33-.523.217-.085.379-.155.497-.213 2.036 1.192 4.073 1.2 6.11.026z" transform="translate(0 17.17)"/>
                <path fill="#E7EBF2" d="M11.206 27.713c-2.036 1.174-4.073 1.166-6.11-.025.229-.11.296-.175.301-.216a2.693 2.693 0 0 0-.071-.783c-.043-.164-.1-.28-.156-.34-1.043-1.105-1.574-2.304-1.574-3.973 0-2.85 2-5.206 4.531-5.206 2.53 0 4.531 2.356 4.531 5.206 0 1.674-.545 2.91-1.582 3.963-.05.055-.107.175-.15.348-.061.251-.079.54-.07.772l.004.094c0-.016.074.037.346.16z"/>
                <g>
                    <path fill="#1D74F5" d="M25.62 32.329c.146.066.336.147.582.243-.352-.138 1.287.487 1.729.68 2.734 1.193 4.25 3.001 4.25 6.21l1.097 6.431c-.247.192-8.088.635-23.523 1.33l1.296-7.76c0-3.21 1.517-5.018 4.25-6.21.443-.194 2.082-.819 1.73-.68.283-.112.492-.202.646-.277 2.647 1.548 5.295 1.56 7.943.033z"/>
                    <path fill="#F3F5F8" d="M25.62 32.329c-2.648 1.526-5.296 1.515-7.943-.033.296-.144.384-.227.39-.28a3.501 3.501 0 0 0-.092-1.019c-.056-.213-.13-.364-.202-.44-1.357-1.437-2.047-2.997-2.047-5.166 0-3.705 2.6-6.768 5.89-6.768 3.29 0 5.89 3.063 5.89 6.768 0 2.176-.707 3.783-2.056 5.152-.066.072-.139.228-.194.451-.08.328-.103.703-.091 1.005l.004.122c0-.02.096.049.45.208z"/>
                </g>
            </g>
        </g>
        <path stroke="#1D74F5" stroke-dasharray="4,4" stroke-linecap="square" stroke-width="2" d="M283.784 325.338l-70.44-23.311M164.19 302.027L73.985 320.27M340.818 132.724l-38.323 72.082M302.027 313.176l-15.203-78.04"/>
        <g transform="translate(280.743 310.135)">
            <mask id="j" fill="#fff">
                <use xlink:href="#i"/>
            </mask>
            <use fill="#A3B4CC" xlink:href="#i"/>
            <g fill-rule="nonzero" mask="url(#j)">
                <path fill="url(#c)" d="M11.206 10.543c.113.05.26.113.448.187-.27-.106.99.375 1.33.523 2.103.917 3.27 2.308 3.27 4.777v.486c-.06 5.746-.185 8.693-.375 8.84-.285.222-12.307.909-13.733.54-.924-.237-1.486-8.868-1.771-9.09L0 16.517v-.486c0-2.469 1.167-3.86 3.27-4.777.34-.148 1.6-.63 1.33-.523.217-.085.379-.155.497-.213 2.036 1.192 4.073 1.2 6.11.026z" transform="translate(26.932 17.17)"/>
                <path fill="#E7EBF2" d="M38.139 27.713c-2.037 1.174-4.074 1.166-6.11-.025.228-.11.296-.175.3-.216a2.693 2.693 0 0 0-.07-.783c-.044-.164-.101-.28-.157-.34-1.043-1.105-1.574-2.304-1.574-3.973 0-2.85 2-5.206 4.531-5.206 2.53 0 4.531 2.356 4.531 5.206 0 1.674-.544 2.91-1.582 3.963-.05.055-.107.175-.149.348-.062.251-.08.54-.07.772l.003.094c0-.016.074.037.347.16z"/>
                <path fill="url(#d)" d="M11.206 10.543c.113.05.26.113.448.187-.27-.106.99.375 1.33.523 2.103.917 3.27 2.308 3.27 4.777v.486l-.375.29c-.285.222-.847 10.727-1.77 10.965C12.681 28.14.658 17.028.374 16.807L0 16.516v-.486c0-2.469 1.167-3.86 3.27-4.777.34-.148 1.6-.63 1.33-.523.217-.085.379-.155.497-.213 2.036 1.192 4.073 1.2 6.11.026z" transform="translate(0 17.17)"/>
                <path fill="#E7EBF2" d="M11.206 27.713c-2.036 1.174-4.073 1.166-6.11-.025.229-.11.296-.175.301-.216a2.693 2.693 0 0 0-.071-.783c-.043-.164-.1-.28-.156-.34-1.043-1.105-1.574-2.304-1.574-3.973 0-2.85 2-5.206 4.531-5.206 2.53 0 4.531 2.356 4.531 5.206 0 1.674-.545 2.91-1.582 3.963-.05.055-.107.175-.15.348-.061.251-.079.54-.07.772l.004.094c0-.016.074.037.346.16z"/>
                <g>
                    <path fill="#1D74F5" d="M25.62 32.329c.146.066.336.147.582.243-.352-.138 1.287.487 1.729.68 2.734 1.193 4.25 3.001 4.25 6.21l1.097 6.431c-.247.192-8.088.635-23.523 1.33l1.296-7.76c0-3.21 1.517-5.018 4.25-6.21.443-.194 2.082-.819 1.73-.68.283-.112.492-.202.646-.277 2.647 1.548 5.295 1.56 7.943.033z"/>
                    <path fill="#F3F5F8" d="M25.62 32.329c-2.648 1.526-5.296 1.515-7.943-.033.296-.144.384-.227.39-.28a3.501 3.501 0 0 0-.092-1.019c-.056-.213-.13-.364-.202-.44-1.357-1.437-2.047-2.997-2.047-5.166 0-3.705 2.6-6.768 5.89-6.768 3.29 0 5.89 3.063 5.89 6.768 0 2.176-.707 3.783-2.056 5.152-.066.072-.139.228-.194.451-.08.328-.103.703-.091 1.005l.004.122c0-.02.096.049.45.208z"/>
                </g>
            </g>
        </g>
        <g transform="translate(211.824 68.919)">
            <mask id="l" fill="#fff">
                <use xlink:href="#k"/>
            </mask>
            <use fill="#1D74F5" xlink:href="#k"/>
            <path fill="#0B182B" fill-rule="nonzero" d="M58.361 52.323h-1.266V22.836c0-.857-.681-1.552-1.52-1.552H34.29c-.84 0-1.52.695-1.52 1.552v29.487h-1.268c-.42 0-.76.347-.76.776v1.293h28.379v-1.293a.768.768 0 0 0-.76-.776zm-19.104-25.6a.71.71 0 0 1 .71-.71h2.364a.71.71 0 0 1 .71.71v2.365a.71.71 0 0 1-.71.71h-2.365a.71.71 0 0 1-.71-.71v-2.365zm0 5.676a.71.71 0 0 1 .71-.71h2.364a.71.71 0 0 1 .71.71v2.365a.71.71 0 0 1-.71.709h-2.365a.71.71 0 0 1-.71-.71V32.4zm3.074 9.696h-2.365a.71.71 0 0 1-.71-.71V39.02a.71.71 0 0 1 .71-.71h2.365a.71.71 0 0 1 .71.71v2.365a.71.71 0 0 1-.71.71zM46.824 52.5h-3.783v-5.794c0-.457.317-.828.709-.828h2.365c.392 0 .71.371.71.828V52.5zm3.784-11.115a.71.71 0 0 1-.71.71h-2.364a.71.71 0 0 1-.71-.71V39.02a.71.71 0 0 1 .71-.71h2.365a.71.71 0 0 1 .71.71v2.365zm0-6.621a.71.71 0 0 1-.71.709h-2.364a.71.71 0 0 1-.71-.71V32.4a.71.71 0 0 1 .71-.71h2.365a.71.71 0 0 1 .71.71v2.365zm0-5.676a.71.71 0 0 1-.71.71h-2.364a.71.71 0 0 1-.71-.71v-2.365a.71.71 0 0 1 .71-.71h2.365a.71.71 0 0 1 .71.71v2.365z" mask="url(#l)"/>
            <path fill="#FFF" d="M39.257 26.723a.71.71 0 0 1 .71-.71h2.364a.71.71 0 0 1 .71.71v2.365a.71.71 0 0 1-.71.71h-2.365a.71.71 0 0 1-.71-.71v-2.365zM39.257 32.399a.71.71 0 0 1 .71-.71h2.364a.71.71 0 0 1 .71.71v2.365a.71.71 0 0 1-.71.709h-2.365a.71.71 0 0 1-.71-.71V32.4zM42.331 42.095h-2.365a.71.71 0 0 1-.71-.71V39.02a.71.71 0 0 1 .71-.71h2.365a.71.71 0 0 1 .71.71v2.365a.71.71 0 0 1-.71.71zM46.824 52.5h-3.783v-5.794c0-.457.317-.828.709-.828h2.365c.392 0 .71.371.71.828V52.5zM50.608 41.385a.71.71 0 0 1-.71.71h-2.364a.71.71 0 0 1-.71-.71V39.02a.71.71 0 0 1 .71-.71h2.365a.71.71 0 0 1 .71.71v2.365zM50.608 34.764a.71.71 0 0 1-.71.709h-2.364a.71.71 0 0 1-.71-.71V32.4a.71.71 0 0 1 .71-.71h2.365a.71.71 0 0 1 .71.71v2.365zM50.608 29.088a.71.71 0 0 1-.71.71h-2.364a.71.71 0 0 1-.71-.71v-2.365a.71.71 0 0 1 .71-.71h2.365a.71.71 0 0 1 .71.71v2.365z" mask="url(#l)"/>
            <path fill="#384A66" fill-rule="nonzero" d="M42.736 54.392h-1.689V15.076c0-1.143-.907-2.07-2.027-2.07H10.642c-1.12 0-2.027.927-2.027 2.07v39.316h-1.69c-.559 0-1.013.463-1.013 1.035v1.724H43.75v-1.724c0-.572-.454-1.035-1.014-1.035z" mask="url(#l)"/>
            <path fill="#FFF" fill-rule="nonzero" d="M17.264 20.259c0-.522.423-.946.945-.946h3.154c.522 0 .946.424.946.946v3.153a.946.946 0 0 1-.946.946h-3.154a.946.946 0 0 1-.945-.946V20.26zM17.264 27.827c0-.523.423-.946.945-.946h3.154c.522 0 .946.423.946.946v3.153a.946.946 0 0 1-.946.946h-3.154a.946.946 0 0 1-.945-.946v-3.153zM21.363 40.755h-3.154a.946.946 0 0 1-.945-.946v-3.154c0-.522.423-.946.945-.946h3.154c.522 0 .946.424.946.946v3.154a.946.946 0 0 1-.946.946zM27.354 54.628h-5.045v-7.725c0-.61.423-1.103.946-1.103h3.153c.522 0 .946.494.946 1.103v7.725zM32.399 39.809a.946.946 0 0 1-.946.946H28.3a.946.946 0 0 1-.946-.946v-3.154c0-.522.423-.946.946-.946h3.153c.522 0 .946.424.946.946v3.154zM32.399 30.98a.946.946 0 0 1-.946.946H28.3a.946.946 0 0 1-.946-.946v-3.153c0-.523.423-.946.946-.946h3.153c.522 0 .946.423.946.946v3.153zM32.399 23.412a.946.946 0 0 1-.946.946H28.3a.946.946 0 0 1-.946-.946V20.26c0-.522.423-.946.946-.946h3.153c.522 0 .946.424.946.946v3.153z" mask="url(#l)"/>
        </g>
        <g transform="translate(260.473 197.635)">
            <mask id="n" fill="#fff">
                <use xlink:href="#m"/>
            </mask>
            <use fill="#1D74F5" xlink:href="#m"/>
            <path fill="#0B182B" fill-rule="nonzero" d="M58.361 52.323h-1.266V22.836c0-.857-.681-1.552-1.52-1.552H34.29c-.84 0-1.52.695-1.52 1.552v29.487h-1.268c-.42 0-.76.347-.76.776v1.293h28.379v-1.293a.768.768 0 0 0-.76-.776zm-19.104-25.6a.71.71 0 0 1 .71-.71h2.364a.71.71 0 0 1 .71.71v2.365a.71.71 0 0 1-.71.71h-2.365a.71.71 0 0 1-.71-.71v-2.365zm0 5.676a.71.71 0 0 1 .71-.71h2.364a.71.71 0 0 1 .71.71v2.365a.71.71 0 0 1-.71.709h-2.365a.71.71 0 0 1-.71-.71V32.4zm3.074 9.696h-2.365a.71.71 0 0 1-.71-.71V39.02a.71.71 0 0 1 .71-.71h2.365a.71.71 0 0 1 .71.71v2.365a.71.71 0 0 1-.71.71zM46.824 52.5h-3.783v-5.794c0-.457.317-.828.709-.828h2.365c.392 0 .71.371.71.828V52.5zm3.784-11.115a.71.71 0 0 1-.71.71h-2.364a.71.71 0 0 1-.71-.71V39.02a.71.71 0 0 1 .71-.71h2.365a.71.71 0 0 1 .71.71v2.365zm0-6.621a.71.71 0 0 1-.71.709h-2.364a.71.71 0 0 1-.71-.71V32.4a.71.71 0 0 1 .71-.71h2.365a.71.71 0 0 1 .71.71v2.365zm0-5.676a.71.71 0 0 1-.71.71h-2.364a.71.71 0 0 1-.71-.71v-2.365a.71.71 0 0 1 .71-.71h2.365a.71.71 0 0 1 .71.71v2.365z" mask="url(#n)"/>
            <path fill="#FFF" d="M39.257 26.723a.71.71 0 0 1 .71-.71h2.364a.71.71 0 0 1 .71.71v2.365a.71.71 0 0 1-.71.71h-2.365a.71.71 0 0 1-.71-.71v-2.365zM39.257 32.399a.71.71 0 0 1 .71-.71h2.364a.71.71 0 0 1 .71.71v2.365a.71.71 0 0 1-.71.709h-2.365a.71.71 0 0 1-.71-.71V32.4zM42.331 42.095h-2.365a.71.71 0 0 1-.71-.71V39.02a.71.71 0 0 1 .71-.71h2.365a.71.71 0 0 1 .71.71v2.365a.71.71 0 0 1-.71.71zM46.824 52.5h-3.783v-5.794c0-.457.317-.828.709-.828h2.365c.392 0 .71.371.71.828V52.5zM50.608 41.385a.71.71 0 0 1-.71.71h-2.364a.71.71 0 0 1-.71-.71V39.02a.71.71 0 0 1 .71-.71h2.365a.71.71 0 0 1 .71.71v2.365zM50.608 34.764a.71.71 0 0 1-.71.709h-2.364a.71.71 0 0 1-.71-.71V32.4a.71.71 0 0 1 .71-.71h2.365a.71.71 0 0 1 .71.71v2.365zM50.608 29.088a.71.71 0 0 1-.71.71h-2.364a.71.71 0 0 1-.71-.71v-2.365a.71.71 0 0 1 .71-.71h2.365a.71.71 0 0 1 .71.71v2.365z" mask="url(#n)"/>
            <path fill="#384A66" fill-rule="nonzero" d="M42.736 54.392h-1.689V15.076c0-1.143-.907-2.07-2.027-2.07H10.642c-1.12 0-2.027.927-2.027 2.07v39.316h-1.69c-.559 0-1.013.463-1.013 1.035v1.724H43.75v-1.724c0-.572-.454-1.035-1.014-1.035z" mask="url(#n)"/>
            <path fill="#FFF" fill-rule="nonzero" d="M17.264 20.259c0-.522.423-.946.945-.946h3.154c.522 0 .946.424.946.946v3.153a.946.946 0 0 1-.946.946h-3.154a.946.946 0 0 1-.945-.946V20.26zM17.264 27.827c0-.523.423-.946.945-.946h3.154c.522 0 .946.423.946.946v3.153a.946.946 0 0 1-.946.946h-3.154a.946.946 0 0 1-.945-.946v-3.153zM21.363 40.755h-3.154a.946.946 0 0 1-.945-.946v-3.154c0-.522.423-.946.945-.946h3.154c.522 0 .946.424.946.946v3.154a.946.946 0 0 1-.946.946zM27.354 54.628h-5.045v-7.725c0-.61.423-1.103.946-1.103h3.153c.522 0 .946.494.946 1.103v7.725zM32.399 39.809a.946.946 0 0 1-.946.946H28.3a.946.946 0 0 1-.946-.946v-3.154c0-.522.423-.946.946-.946h3.153c.522 0 .946.424.946.946v3.154zM32.399 30.98a.946.946 0 0 1-.946.946H28.3a.946.946 0 0 1-.946-.946v-3.153c0-.523.423-.946.946-.946h3.153c.522 0 .946.423.946.946v3.153zM32.399 23.412a.946.946 0 0 1-.946.946H28.3a.946.946 0 0 1-.946-.946V20.26c0-.522.423-.946.946-.946h3.153c.522 0 .946.424.946.946v3.153z" mask="url(#n)"/>
        </g>
        <g transform="translate(41.554 302.027)">
            <mask id="p" fill="#fff">
                <use xlink:href="#o"/>
            </mask>
            <use fill="#A3B4CC" xlink:href="#o"/>
            <g fill-rule="nonzero" mask="url(#p)">
                <path fill="url(#c)" d="M11.206 10.543c.113.05.26.113.448.187-.27-.106.99.375 1.33.523 2.103.917 3.27 2.308 3.27 4.777v.486c-.06 5.746-.185 8.693-.375 8.84-.285.222-12.307.909-13.733.54-.924-.237-1.486-8.868-1.771-9.09L0 16.517v-.486c0-2.469 1.167-3.86 3.27-4.777.34-.148 1.6-.63 1.33-.523.217-.085.379-.155.497-.213 2.036 1.192 4.073 1.2 6.11.026z" transform="translate(26.932 17.17)"/>
                <path fill="#E7EBF2" d="M38.139 27.713c-2.037 1.174-4.074 1.166-6.11-.025.228-.11.296-.175.3-.216a2.693 2.693 0 0 0-.07-.783c-.044-.164-.101-.28-.157-.34-1.043-1.105-1.574-2.304-1.574-3.973 0-2.85 2-5.206 4.531-5.206 2.53 0 4.531 2.356 4.531 5.206 0 1.674-.544 2.91-1.582 3.963-.05.055-.107.175-.149.348-.062.251-.08.54-.07.772l.003.094c0-.016.074.037.347.16z"/>
                <path fill="url(#d)" d="M11.206 10.543c.113.05.26.113.448.187-.27-.106.99.375 1.33.523 2.103.917 3.27 2.308 3.27 4.777v.486l-.375.29c-.285.222-.847 10.727-1.77 10.965C12.681 28.14.658 17.028.374 16.807L0 16.516v-.486c0-2.469 1.167-3.86 3.27-4.777.34-.148 1.6-.63 1.33-.523.217-.085.379-.155.497-.213 2.036 1.192 4.073 1.2 6.11.026z" transform="translate(0 17.17)"/>
                <path fill="#E7EBF2" d="M11.206 27.713c-2.036 1.174-4.073 1.166-6.11-.025.229-.11.296-.175.301-.216a2.693 2.693 0 0 0-.071-.783c-.043-.164-.1-.28-.156-.34-1.043-1.105-1.574-2.304-1.574-3.973 0-2.85 2-5.206 4.531-5.206 2.53 0 4.531 2.356 4.531 5.206 0 1.674-.545 2.91-1.582 3.963-.05.055-.107.175-.15.348-.061.251-.079.54-.07.772l.004.094c0-.016.074.037.346.16z"/>
                <g>
                    <path fill="#1D74F5" d="M25.62 32.329c.146.066.336.147.582.243-.352-.138 1.287.487 1.729.68 2.734 1.193 4.25 3.001 4.25 6.21l1.097 6.431c-.247.192-8.088.635-23.523 1.33l1.296-7.76c0-3.21 1.517-5.018 4.25-6.21.443-.194 2.082-.819 1.73-.68.283-.112.492-.202.646-.277 2.647 1.548 5.295 1.56 7.943.033z"/>
                    <path fill="#F3F5F8" d="M25.62 32.329c-2.648 1.526-5.296 1.515-7.943-.033.296-.144.384-.227.39-.28a3.501 3.501 0 0 0-.092-1.019c-.056-.213-.13-.364-.202-.44-1.357-1.437-2.047-2.997-2.047-5.166 0-3.705 2.6-6.768 5.89-6.768 3.29 0 5.89 3.063 5.89 6.768 0 2.176-.707 3.783-2.056 5.152-.066.072-.139.228-.194.451-.08.328-.103.703-.091 1.005l.004.122c0-.02.096.049.45.208z"/>
                </g>
            </g>
        </g>
        <g transform="translate(160.135 266.554)">
            <mask id="r" fill="#fff">
                <use xlink:href="#q"/>
            </mask>
            <use fill="#1D74F5" xlink:href="#q"/>
            <path fill="#0B182B" fill-rule="nonzero" d="M58.361 52.323h-1.266V22.836c0-.857-.681-1.552-1.52-1.552H34.29c-.84 0-1.52.695-1.52 1.552v29.487h-1.268c-.42 0-.76.347-.76.776v1.293h28.379v-1.293a.768.768 0 0 0-.76-.776zm-19.104-25.6a.71.71 0 0 1 .71-.71h2.364a.71.71 0 0 1 .71.71v2.365a.71.71 0 0 1-.71.71h-2.365a.71.71 0 0 1-.71-.71v-2.365zm0 5.676a.71.71 0 0 1 .71-.71h2.364a.71.71 0 0 1 .71.71v2.365a.71.71 0 0 1-.71.709h-2.365a.71.71 0 0 1-.71-.71V32.4zm3.074 9.696h-2.365a.71.71 0 0 1-.71-.71V39.02a.71.71 0 0 1 .71-.71h2.365a.71.71 0 0 1 .71.71v2.365a.71.71 0 0 1-.71.71zM46.824 52.5h-3.783v-5.794c0-.457.317-.828.709-.828h2.365c.392 0 .71.371.71.828V52.5zm3.784-11.115a.71.71 0 0 1-.71.71h-2.364a.71.71 0 0 1-.71-.71V39.02a.71.71 0 0 1 .71-.71h2.365a.71.71 0 0 1 .71.71v2.365zm0-6.621a.71.71 0 0 1-.71.709h-2.364a.71.71 0 0 1-.71-.71V32.4a.71.71 0 0 1 .71-.71h2.365a.71.71 0 0 1 .71.71v2.365zm0-5.676a.71.71 0 0 1-.71.71h-2.364a.71.71 0 0 1-.71-.71v-2.365a.71.71 0 0 1 .71-.71h2.365a.71.71 0 0 1 .71.71v2.365z" mask="url(#r)"/>
            <path fill="#FFF" d="M39.257 26.723a.71.71 0 0 1 .71-.71h2.364a.71.71 0 0 1 .71.71v2.365a.71.71 0 0 1-.71.71h-2.365a.71.71 0 0 1-.71-.71v-2.365zM39.257 32.399a.71.71 0 0 1 .71-.71h2.364a.71.71 0 0 1 .71.71v2.365a.71.71 0 0 1-.71.709h-2.365a.71.71 0 0 1-.71-.71V32.4zM42.331 42.095h-2.365a.71.71 0 0 1-.71-.71V39.02a.71.71 0 0 1 .71-.71h2.365a.71.71 0 0 1 .71.71v2.365a.71.71 0 0 1-.71.71zM46.824 52.5h-3.783v-5.794c0-.457.317-.828.709-.828h2.365c.392 0 .71.371.71.828V52.5zM50.608 41.385a.71.71 0 0 1-.71.71h-2.364a.71.71 0 0 1-.71-.71V39.02a.71.71 0 0 1 .71-.71h2.365a.71.71 0 0 1 .71.71v2.365zM50.608 34.764a.71.71 0 0 1-.71.709h-2.364a.71.71 0 0 1-.71-.71V32.4a.71.71 0 0 1 .71-.71h2.365a.71.71 0 0 1 .71.71v2.365zM50.608 29.088a.71.71 0 0 1-.71.71h-2.364a.71.71 0 0 1-.71-.71v-2.365a.71.71 0 0 1 .71-.71h2.365a.71.71 0 0 1 .71.71v2.365z" mask="url(#r)"/>
            <path fill="#384A66" fill-rule="nonzero" d="M42.736 54.392h-1.689V15.076c0-1.143-.907-2.07-2.027-2.07H10.642c-1.12 0-2.027.927-2.027 2.07v39.316h-1.69c-.559 0-1.013.463-1.013 1.035v1.724H43.75v-1.724c0-.572-.454-1.035-1.014-1.035z" mask="url(#r)"/>
            <path fill="#FFF" fill-rule="nonzero" d="M17.264 20.259c0-.522.423-.946.945-.946h3.154c.522 0 .946.424.946.946v3.153a.946.946 0 0 1-.946.946h-3.154a.946.946 0 0 1-.945-.946V20.26zM17.264 27.827c0-.523.423-.946.945-.946h3.154c.522 0 .946.423.946.946v3.153a.946.946 0 0 1-.946.946h-3.154a.946.946 0 0 1-.945-.946v-3.153zM21.363 40.755h-3.154a.946.946 0 0 1-.945-.946v-3.154c0-.522.423-.946.945-.946h3.154c.522 0 .946.424.946.946v3.154a.946.946 0 0 1-.946.946zM27.354 54.628h-5.045v-7.725c0-.61.423-1.103.946-1.103h3.153c.522 0 .946.494.946 1.103v7.725zM32.399 39.809a.946.946 0 0 1-.946.946H28.3a.946.946 0 0 1-.946-.946v-3.154c0-.522.423-.946.946-.946h3.153c.522 0 .946.424.946.946v3.154zM32.399 30.98a.946.946 0 0 1-.946.946H28.3a.946.946 0 0 1-.946-.946v-3.153c0-.523.423-.946.946-.946h3.153c.522 0 .946.423.946.946v3.153zM32.399 23.412a.946.946 0 0 1-.946.946H28.3a.946.946 0 0 1-.946-.946V20.26c0-.522.423-.946.946-.946h3.153c.522 0 .946.424.946.946v3.153z" mask="url(#r)"/>
        </g>
        <g transform="translate(41.554 177.365)">
            <mask id="t" fill="#fff">
                <use xlink:href="#s"/>
            </mask>
            <use fill="#1D74F5" xlink:href="#s"/>
            <path fill="#0B182B" fill-rule="nonzero" d="M58.361 52.323h-1.266V22.836c0-.857-.681-1.552-1.52-1.552H34.29c-.84 0-1.52.695-1.52 1.552v29.487h-1.268c-.42 0-.76.347-.76.776v1.293h28.379v-1.293a.768.768 0 0 0-.76-.776zm-19.104-25.6a.71.71 0 0 1 .71-.71h2.364a.71.71 0 0 1 .71.71v2.365a.71.71 0 0 1-.71.71h-2.365a.71.71 0 0 1-.71-.71v-2.365zm0 5.676a.71.71 0 0 1 .71-.71h2.364a.71.71 0 0 1 .71.71v2.365a.71.71 0 0 1-.71.709h-2.365a.71.71 0 0 1-.71-.71V32.4zm3.074 9.696h-2.365a.71.71 0 0 1-.71-.71V39.02a.71.71 0 0 1 .71-.71h2.365a.71.71 0 0 1 .71.71v2.365a.71.71 0 0 1-.71.71zM46.824 52.5h-3.783v-5.794c0-.457.317-.828.709-.828h2.365c.392 0 .71.371.71.828V52.5zm3.784-11.115a.71.71 0 0 1-.71.71h-2.364a.71.71 0 0 1-.71-.71V39.02a.71.71 0 0 1 .71-.71h2.365a.71.71 0 0 1 .71.71v2.365zm0-6.621a.71.71 0 0 1-.71.709h-2.364a.71.71 0 0 1-.71-.71V32.4a.71.71 0 0 1 .71-.71h2.365a.71.71 0 0 1 .71.71v2.365zm0-5.676a.71.71 0 0 1-.71.71h-2.364a.71.71 0 0 1-.71-.71v-2.365a.71.71 0 0 1 .71-.71h2.365a.71.71 0 0 1 .71.71v2.365z" mask="url(#t)"/>
            <path fill="#FFF" d="M39.257 26.723a.71.71 0 0 1 .71-.71h2.364a.71.71 0 0 1 .71.71v2.365a.71.71 0 0 1-.71.71h-2.365a.71.71 0 0 1-.71-.71v-2.365zM39.257 32.399a.71.71 0 0 1 .71-.71h2.364a.71.71 0 0 1 .71.71v2.365a.71.71 0 0 1-.71.709h-2.365a.71.71 0 0 1-.71-.71V32.4zM42.331 42.095h-2.365a.71.71 0 0 1-.71-.71V39.02a.71.71 0 0 1 .71-.71h2.365a.71.71 0 0 1 .71.71v2.365a.71.71 0 0 1-.71.71zM46.824 52.5h-3.783v-5.794c0-.457.317-.828.709-.828h2.365c.392 0 .71.371.71.828V52.5zM50.608 41.385a.71.71 0 0 1-.71.71h-2.364a.71.71 0 0 1-.71-.71V39.02a.71.71 0 0 1 .71-.71h2.365a.71.71 0 0 1 .71.71v2.365zM50.608 34.764a.71.71 0 0 1-.71.709h-2.364a.71.71 0 0 1-.71-.71V32.4a.71.71 0 0 1 .71-.71h2.365a.71.71 0 0 1 .71.71v2.365zM50.608 29.088a.71.71 0 0 1-.71.71h-2.364a.71.71 0 0 1-.71-.71v-2.365a.71.71 0 0 1 .71-.71h2.365a.71.71 0 0 1 .71.71v2.365z" mask="url(#t)"/>
            <path fill="#384A66" fill-rule="nonzero" d="M42.736 54.392h-1.689V15.076c0-1.143-.907-2.07-2.027-2.07H10.642c-1.12 0-2.027.927-2.027 2.07v39.316h-1.69c-.559 0-1.013.463-1.013 1.035v1.724H43.75v-1.724c0-.572-.454-1.035-1.014-1.035z" mask="url(#t)"/>
            <path fill="#FFF" fill-rule="nonzero" d="M17.264 20.259c0-.522.423-.946.945-.946h3.154c.522 0 .946.424.946.946v3.153a.946.946 0 0 1-.946.946h-3.154a.946.946 0 0 1-.945-.946V20.26zM17.264 27.827c0-.523.423-.946.945-.946h3.154c.522 0 .946.423.946.946v3.153a.946.946 0 0 1-.946.946h-3.154a.946.946 0 0 1-.945-.946v-3.153zM21.363 40.755h-3.154a.946.946 0 0 1-.945-.946v-3.154c0-.522.423-.946.945-.946h3.154c.522 0 .946.424.946.946v3.154a.946.946 0 0 1-.946.946zM27.354 54.628h-5.045v-7.725c0-.61.423-1.103.946-1.103h3.153c.522 0 .946.494.946 1.103v7.725zM32.399 39.809a.946.946 0 0 1-.946.946H28.3a.946.946 0 0 1-.946-.946v-3.154c0-.522.423-.946.946-.946h3.153c.522 0 .946.424.946.946v3.154zM32.399 30.98a.946.946 0 0 1-.946.946H28.3a.946.946 0 0 1-.946-.946v-3.153c0-.523.423-.946.946-.946h3.153c.522 0 .946.423.946.946v3.153zM32.399 23.412a.946.946 0 0 1-.946.946H28.3a.946.946 0 0 1-.946-.946V20.26c0-.522.423-.946.946-.946h3.153c.522 0 .946.424.946.946v3.153z" mask="url(#t)"/>
        </g>
        <circle cx="185.473" cy="190.541" r="35.473" fill="#FFE8E9" stroke="#FCADAE" stroke-width="2"/>
        <g>
            <path fill="#DB2323" fill-rule="nonzero" d="M200.676 186.46l.004.005a51.042 51.042 0 0 0-.004-.006zm-23.951-12.62a17.013 17.013 0 0 1 3.53 2.606 28.922 28.922 0 0 1 5.135-.453c5.227 0 10.181 1.367 13.951 3.848 1.953 1.285 3.504 2.81 4.612 4.533 1.234 1.92 1.859 3.984 1.859 6.196 0 2.153-.625 4.218-1.859 6.137-1.108 1.724-2.66 3.249-4.612 4.534-3.77 2.48-8.724 3.847-13.95 3.847-1.746 0-3.467-.152-5.136-.453a17.04 17.04 0 0 1-3.53 2.607c-6.853 3.421-12.536.08-12.536.08s5.284-4.471 4.424-8.391c-2.364-2.415-3.644-5.329-3.644-8.42 0-3.032 1.28-5.945 3.644-8.361.86-3.919-4.422-8.39-4.424-8.391.002-.001 5.684-3.341 12.536.08z"/>
            <path fill="#FFF" d="M172.626 197.314c-2.349-1.845-3.759-4.206-3.759-6.78 0-5.905 7.424-10.693 16.58-10.693 9.158 0 16.58 4.788 16.58 10.693 0 5.906-7.422 10.693-16.58 10.693-2.256 0-4.408-.291-6.369-.818l-1.433 1.379a13.162 13.162 0 0 1-2.644 1.96c-1.262.618-2.507.955-3.74 1.058.07-.126.134-.254.202-.38 1.437-2.638 1.824-5.009 1.163-7.112z"/>
            <path fill="#DB2323" fill-rule="nonzero" d="M177.497 193.078c-1.346 0-2.438-1.105-2.438-2.469 0-1.363 1.092-2.469 2.438-2.469s2.437 1.106 2.437 2.47c0 1.363-1.091 2.468-2.437 2.468zm7.847 0c-1.346 0-2.437-1.105-2.437-2.469 0-1.363 1.091-2.469 2.437-2.469 1.347 0 2.438 1.106 2.438 2.47 0 1.363-1.091 2.468-2.438 2.468zm7.848 0c-1.346 0-2.437-1.105-2.437-2.469 0-1.363 1.091-2.469 2.437-2.469 1.346 0 2.438 1.106 2.438 2.47 0 1.363-1.092 2.468-2.438 2.468z"/>
        </g>
    </g>
</svg>
