<svg height="367" viewBox="0 0 431 367" width="431" xmlns="http://www.w3.org/2000/svg" xmlns:xlink="http://www.w3.org/1999/xlink"><mask id="a" fill="#fff"><path d="m13 23.4c-5.743 0-10.4-4.656-10.4-10.4s4.657-10.4 10.4-10.4 10.4 4.656 10.4 10.4-4.657 10.4-10.4 10.4zm-1.405-14.208a.78.78 0 0 0 -1.195.66v6.295a.78.78 0 0 0 1.195.66l5.014-3.146a.78.78 0 0 0 0-1.322z" fill="#fff" fill-rule="evenodd"/></mask><g fill="none" fill-rule="evenodd"><path d="m123 309h28a7 7 0 0 1 7 7v28a7 7 0 0 1 -7 7h-28a7 7 0 0 1 -7-7v-28a7 7 0 0 1 7-7z" fill="#1d74f5" fill-rule="nonzero"/><path d="m146.304 327.574c.673-.214 1.356-.124 1.876.244.522.37.82.977.82 1.666v6.11c0 .689-.3 1.294-.82 1.664a1.991 1.991 0 0 1 -1.16.359c-.236 0-.478-.037-.717-.113l-4.273-1.354v2.85h-16.03v-12.92h16.03v2.847zm-16.82-3.534v-2.04h9.061v2.04h-9.06z" fill="#fff"/><path d="m194 290h-2v-35h2z" fill="#1d74f5" fill-rule="nonzero"/><path d="m136 290v-2h58v2z" fill="#1d74f5" fill-rule="nonzero"/><path d="m138 314h-2v-25h2z" fill="#1d74f5" fill-rule="nonzero"/><path d="m332 171c30.928 0 56-25.072 56-56s-25.072-56-56-56-56 25.072-56 56 25.072 56 56 56z" stroke="#35363e" stroke-dasharray="4" stroke-linecap="round" stroke-linejoin="round" stroke-width="2"/><path d="m287 291h28a7 7 0 0 1 7 7v28a7 7 0 0 1 -7 7h-28a7 7 0 0 1 -7-7v-28a7 7 0 0 1 7-7z" fill="#1d74f5" fill-rule="nonzero"/><g fill="#fff" mask="url(#a)" transform="translate(288 299)"><path d="m0 0h26v26h-26z"/></g><path d="m302.146 293h-2v-59h2zm15.139-285h29.138c4.023 0 7.284 3.254 7.284 7.267v29.07c0 4.013-3.261 7.267-7.284 7.267h-29.138c-4.024 0-7.285-3.254-7.285-7.267v-29.07c0-4.013 3.261-7.267 7.285-7.267z" fill="#1d74f5" fill-rule="nonzero"/><rect height="19.125" rx="2" stroke="#fff" stroke-width="2" width="24" x="320" y="20"/><path d="m13.932 10.08.452 2.22-3.614-5.284-5.082 7.397c-.056.687 3.219 1.215 7.284 1.215 4.066 0 7.34-.528 7.34-1.215l-4.46-6.181-1.92 1.849zm-.449-2.563c.725 0 1.295-.582 1.295-1.321 0-.74-.57-1.321-1.295-1.321-.726 0-1.296.581-1.296 1.32 0 .74.57 1.322 1.296 1.322z" fill="#fff" transform="translate(319 19)"/><path d="m333.068 122.009h-2.428v-71.009h2.428zm-106.783-84.009h29.138c4.023 0 7.284 3.254 7.284 7.267v29.07c0 4.013-3.261 7.267-7.284 7.267h-29.138c-4.024 0-7.285-3.254-7.285-7.267v-29.07c0-4.013 3.261-7.267 7.285-7.267z" fill="#1d74f5" fill-rule="nonzero"/><g transform="translate(229 49)"><path d="m20.724 14.69c.111-.252.236-.507.363-.765.453-.918.876-2.057.966-3.149.477-5.731-4.943-10.42-11.02-10.42s-11.019 4.672-11.019 10.419c0 6.038 5.162 10.42 12.271 10.42l.242.001h.283c3.928 0 9.117-.333 10.4-2.914.677-1.362-.8-2.1-1.51-2.454-1.23-.616-1.171-.738-.976-1.14z" fill="#fff"/><g fill="#1d74f5"><rect height="1.846" rx=".923" width="12" x="5" y="7"/><rect height="1.846" rx=".923" width="9.231" x="5" y="11"/></g></g><path d="m242.068 152.009h-2.428v-71.009h2.428z" fill="#1d74f5" fill-rule="nonzero"/><g fill-rule="nonzero" transform="translate(108 20)"><path d="m7.285 0h29.138c4.023 0 7.284 3.254 7.284 7.267v29.07c0 4.013-3.261 7.267-7.284 7.267h-29.138c-4.025 0-7.285-3.254-7.285-7.267v-29.07c0-4.013 3.261-7.267 7.285-7.267zm51.783 97.009h-2.428v-41.009h2.428z" fill="#1d74f5"/><path d="m23 56h-2v-14h2zm-2 2v-2h38v2z" fill="#1d74f5"/><path d="m25.994 32.313c0 .38-.308.687-.687.687h-6.875a.688.688 0 0 1 0-1.375h2.406v-3.14c-4.074-.38-6.384-3.082-6.806-7.82a12.1 12.1 0 0 1 -.025-.356 1 1 0 0 1 .986-1.059h.062a1 1 0 0 1 1.01.942c.01.186.022.34.034.464.386 3.987 2.26 5.813 5.77 5.813 3.503 0 5.377-1.818 5.768-5.788.013-.13.025-.293.036-.489a1 1 0 0 1 1.01-.943l.063.001a1 1 0 0 1 .986 1.059c-.008.132-.016.247-.024.344-.42 4.746-2.73 7.451-6.808 7.832v3.14h2.407c.38 0 .687.308.687.688zm-4.094-21.313c2.485 0 4.5 2.155 4.5 4.813v4.124c0 2.658-2.015 4.813-4.5 4.813s-4.5-2.155-4.5-4.813v-4.125c0-2.657 2.015-4.812 4.5-4.812z" fill="#fff"/></g><g stroke="#35363e" stroke-width="2"><ellipse cx="372" cy="314.905" rx="4" ry="3.905"/><ellipse cx="245" cy="322.905" rx="4" ry="3.905"/><ellipse cx="199" cy="62.905" rx="4" ry="3.905"/><ellipse cx="43" cy="157.905" rx="4" ry="3.905"/><path d="m105 293c30.928 0 56-25.072 56-56s-25.072-56-56-56-56 25.072-56 56 25.072 56 56 56zm263 18.435-134-121.435m11 128.766v-156.766m-46 60.766v-156.766m-152 89 50.478-50.478" stroke-dasharray="4" stroke-linecap="round" stroke-linejoin="round"/></g><g transform="translate(87 97)"><path d="m7.294 0h250.412c4.029 0 7.294 3.25 7.294 7.259v158.481c0 4.01-3.265 7.259-7.294 7.259h-250.412c-4.029.001-7.294-3.249-7.294-7.258v-158.481c0-4.011 3.265-7.26 7.294-7.26z" fill="#fff"/><rect fill="#d8d8d8" height="8" opacity=".48" rx="1" width="8" x="77" y="146"/><rect fill="#d8d8d8" height="3" opacity=".48" rx="1" width="15" x="88" y="146"/><rect fill="#d8d8d8" height="3" opacity=".48" rx="1" width="98" x="88" y="152"/><path d="m7.1 0h63.9v173h-63.9c-3.921 0-7.1-3.25-7.1-7.259v-158.481c0-4.011 3.179-7.26 7.1-7.26z" fill="#1d74f5"/><path d="m71 22h194v1h-194zm0 139h123.5v1h-123.5zm123.5 12v-150h1v150z" fill="#c6c7ca" opacity=".23"/><rect fill="#fff" height="8" rx="1" width="8" x="8" y="8"/><rect fill="#d8d8d8" height="12" opacity=".48" rx="1" width="12" x="76" y="6"/><rect fill="#d8d8d8" height="4" opacity=".48" rx="1" width="30" x="91" y="8"/><rect fill="#d8d8d8" height="2" opacity=".48" rx="1" width="20" x="91" y="14"/><rect fill="#fff" height="8" rx="1" width="8" x="8" y="34"/><g transform="translate(202 29)"><g fill="#d8d8d8"><rect height="30" opacity=".19" rx="1" width="56" y="16"/><rect height="3" opacity=".48" rx="1" width="15" x="11"/><rect height="3" opacity=".48" rx="1" width="46" x="11" y="6"/><rect height="8" opacity=".48" rx="1" width="8"/></g><path d="m29.402 30.982.68 3.607-5.438-8.589-7.644 12.025c-.084 1.115 4.843 1.975 10.958 1.975 6.116 0 11.042-.859 11.042-1.975l-6.71-10.05zm.598-4.982c1.12 0 2-.88 2-2s-.88-2-2-2-2 .88-2 2 .88 2 2 2z" fill="#b0b8be" fill-rule="nonzero" opacity=".149"/></g><g transform="translate(88 81)"><rect fill="#d8d8d8" height="30" opacity=".19" rx="1" width="56" x="114" y="16"/><g transform="translate(0 19)"><rect fill="#d8d8d8" height="38" opacity=".19" rx="1" width="99"/><path d="m49.402 18.982.68 3.607-5.438-8.589-7.644 12.025c-.084 1.115 4.843 1.975 10.958 1.975 6.116 0 11.042-.859 11.042-1.975l-6.71-10.05zm.598-4.982c1.12 0 2-.88 2-2s-.88-2-2-2-2 .88-2 2 .88 2 2 2z" fill="#b0b8be" fill-rule="nonzero" opacity=".149"/></g><g fill="#d8d8d8"><rect height="3" opacity=".48" rx="1" width="15" x="125"/><rect height="3" opacity=".48" rx="1" width="46" x="125" y="6"/><rect height="8" opacity=".48" rx="1" width="8" x="114"/></g><path d="m143.402 30.982.68 3.607-5.438-8.589-7.644 12.025c-.084 1.115 4.843 1.975 10.958 1.975 6.116 0 11.042-.859 11.042-1.975l-6.71-10.05zm.598-4.982c1.12 0 2-.88 2-2s-.88-2-2-2-2 .88-2 2 .88 2 2 2z" fill="#b0b8be" fill-rule="nonzero" opacity=".149"/></g><g transform="translate(202 133)"><g fill="#d8d8d8"><rect height="24" opacity=".19" rx="1" width="56" y="16"/><rect height="3" opacity=".48" rx="1" width="15" x="11"/><rect height="3" opacity=".48" rx="1" width="46" x="11" y="6"/><rect height="8" opacity=".48" rx="1" width="8"/></g><path d="m29.402 30.982.68 3.607-5.438-8.589-7.644 12.025c-.084 1.115 4.843 1.975 10.958 1.975 6.116 0 11.042-.859 11.042-1.975l-6.71-10.05zm.598-4.982c1.12 0 2-.88 2-2s-.88-2-2-2-2 .88-2 2 .88 2 2 2z" fill="#b0b8be" fill-rule="nonzero" opacity=".149"/></g><rect fill="#d8d8d8" height="3" opacity=".48" rx="1" width="15" x="88" y="29"/><rect fill="#d8d8d8" height="3" opacity=".48" rx="1" width="98" x="88" y="35"/><rect fill="#d8d8d8" height="3" opacity=".48" rx="1" width="98" x="88" y="41"/><rect fill="#d8d8d8" height="3" opacity=".48" rx="1" width="49" x="88" y="47"/><rect fill="#d8d8d8" height="3" opacity=".48" rx="1" width="98" x="76" y="166"/><g fill="#d8d8d8" opacity=".48"><rect height="8" rx="1" width="8" x="77" y="58"/><rect height="8" rx="1" width="8" x="77" y="29"/><rect height="3" rx="1" width="9" x="88" y="58"/><rect height="3" rx="1" width="99" x="88" y="64"/><rect height="3" rx="1" width="49" x="88" y="70"/></g><g fill="#d8d8d8" opacity=".48"><rect height="8" rx="1" width="8" x="77" y="81"/><rect height="3" rx="1" width="15" x="88" y="81"/><rect height="3" rx="1" width="99" x="88" y="87"/><rect height="3" rx="1" width="99" x="88" y="93"/></g><rect fill="#fff" height="8" rx="1" width="8" x="8" y="94"/><rect fill="#fff" height="8" rx="1" width="8" x="8" y="106"/><rect fill="#fff" height="8" rx="1" width="8" x="8" y="118"/><rect fill="#fff" height="8" rx="1" width="8" x="8" y="130"/><rect fill="#fff" height="8" rx="1" width="8" x="8" y="142"/><rect fill="#d8d8d8" height="2" opacity=".564" rx="1" width="17" x="8" y="88"/><g fill="#fff"><rect height="4" opacity=".564" rx="1" width="43" x="20" y="96"/><rect height="4" opacity=".564" rx="1" width="43" x="20" y="108"/><rect height="4" opacity=".564" rx="1" width="43" x="20" y="120"/><rect height="4" opacity=".564" rx="1" width="43" x="20" y="132"/><rect height="4" opacity=".564" rx="1" width="43" x="20" y="144"/><rect height="8" rx="1" width="8" x="8" y="154"/><rect height="4" opacity=".564" rx="1" width="43" x="20" y="156"/><rect height="8" rx="1" width="8" x="8" y="46"/><rect height="8" rx="1" width="8" x="8" y="58"/><rect height="8" rx="1" width="8" x="8" y="70"/><rect height="2" opacity=".564" rx="1" width="17" x="8" y="28"/><rect height="4" opacity=".564" rx="1" width="43" x="20" y="36"/><rect height="4" opacity=".564" rx="1" width="43" x="20" y="48"/><rect height="4" opacity=".564" rx="1" width="43" x="20" y="60"/><rect height="4" opacity=".564" rx="1" width="43" x="20" y="72"/><rect height="6" opacity=".564" rx="1" width="6" x="28" y="9"/><rect height="6" opacity=".564" rx="1" width="6" x="38" y="9"/><rect height="6" opacity=".564" rx="1" width="6" x="47" y="9"/><rect height="6" opacity=".564" rx="1" width="6" x="57" y="9"/></g></g><g transform="translate(324 132)"><rect fill="#fff" height="117" rx="8" stroke="#000" stroke-width="3" width="69"/><path d="m7.496 1.467h53.933a6 6 0 0 1 5.984 5.555l.079 1.057v11.921h-65.996v-12.533a6 6 0 0 1 6-6z" fill="#1d74f5"/><rect fill="#d8d8d8" height="3" opacity=".48" rx="1" width="27" x="16" y="10"/><rect fill="#fff" height="5" opacity=".564" rx="1" width="5" x="9" y="9"/><g fill="#d8d8d8" opacity=".48"><rect height="8" rx="1" width="8" x="8" y="26"/><rect height="3" rx="1" width="15" x="19" y="26"/><rect height="3" rx="1" width="42" x="19" y="32"/><rect height="3" rx="1" width="23" x="19" y="38"/></g><g transform="translate(8 49)"><g fill="#d8d8d8"><rect height="8" opacity=".48" rx="1" width="8"/><rect height="3" opacity=".48" rx="1" width="15" x="11"/><rect height="3" opacity=".48" rx="1" width="42" x="11" y="6"/><rect height="23" opacity=".19" rx="1" width="42" x="11" y="12"/></g><path d="m33.147 23.27.556 3.092-4.448-7.362-6.254 10.307c-.07.957 3.961 1.693 8.965 1.693 5.003 0 9.034-.736 9.034-1.693l-5.49-8.614zm.353-4.27c.84 0 1.5-.66 1.5-1.5s-.66-1.5-1.5-1.5-1.5.66-1.5 1.5.66 1.5 1.5 1.5z" fill="#b0b8be" fill-rule="nonzero" opacity=".149"/></g><g fill="#d8d8d8" opacity=".48"><rect height="8" rx="1" width="8" x="8" y="92"/><rect height="3" rx="1" width="15" x="19" y="92"/><rect height="3" rx="1" width="42" x="19" y="98"/><rect height="3" rx="1" width="23" x="19" y="104"/></g></g></g></svg>