<svg xmlns="http://www.w3.org/2000/svg" width="84" height="84" viewBox="0 0 84 84">
    <g fill="none" fill-rule="evenodd" transform="translate(10 .776)">
        <circle cx="32" cy="41" r="32" fill="#A3B4CC"/>
        <path fill="#1867DE" d="M38.357 57.317C25.47 57.317 15 46.864 15 34h2.819c0 11.323 9.195 20.503 20.538 20.503v2.814z"/>
        <path fill="#1867DE" d="M37.523 49.475c-7.785 0-14.094-6.298-14.094-14.07h2.818c0 6.164 5.034 11.256 11.276 11.256v2.814z"/>
        <path fill="#ECF0F4" d="M42.141 27.104a6.5 6.5 0 0 1 1.44-6.536l.067-.066.067-.067 3.215-3.232-2.122-2.174-2.888 2.884c-.133.133-.266.133-.4 0L31.35 7.757c-.133-.132-.133-.265 0-.398L38.396.323c.133-.133.266-.133.399 0L48.967 10.48c.133.133.133.265 0 .398L46.27 13.57l2.117 2.168 4.967-4.993c.265-.199.598-.199.797 0l8.444 8.364c.199.265.199.597 0 .796l-5.152 5.11 2.117 2.168 2.769-2.764c.133-.133.266-.133.399 0L72.9 34.574c.133.132.133.265 0 .398l-7.047 7.036c-.133.133-.266.133-.399 0L55.283 31.852c-.133-.133-.133-.265 0-.398l2.815-2.811-2.122-2.174-3.22 3.193c-1.8 1.749-4.34 2.219-6.567 1.457 1.636 3.28 1.066 7.328-1.743 10.026l-.93.93c-.267.198-.6.198-.799 0l-5.119-5.112-1.33 1.328c.333.863.134 1.792-.531 2.456-.864.929-2.327.929-3.258 0-.93-.863-.93-2.324 0-3.253.665-.664 1.662-.863 2.46-.53l1.33-1.328-5.12-5.111c-.199-.266-.199-.598 0-.797l.931-.93c2.692-2.74 6.766-3.304 10.061-1.694z"/>
    </g>
</svg>
