<svg height="84" viewBox="0 0 84 84" width="84" xmlns="http://www.w3.org/2000/svg"><g fill="none" fill-rule="evenodd"><g transform="translate(10 10)"><circle cx="32" cy="32" fill="#a3b4cc" r="32"/><rect fill="#ecf0f4" height="42.667" rx="2" width="56" x="9" y="11"/><path d="m11 10.667h52a2 2 0 0 1 2 2v6h-56v-6a2 2 0 0 1 2-2z" fill="#1d74f5"/><g fill="#d8d8d8"><circle cx="13" cy="15" r="1"/><circle cx="16" cy="15" r="1"/><circle cx="19" cy="15" r="1"/></g></g><g fill="#a8c2ea"><rect height="22" rx="1" width="2" x="32" y="34"/><rect height="22" rx="1" width="2" x="39" y="34"/><rect height="22" rx="1" width="2" x="46" y="34"/><rect height="22" rx="1" width="2" x="53" y="34"/><rect height="22" rx="1" width="2" x="60" y="34"/></g><g fill="#1d74f5"><circle cx="33" cy="47" r="2"/><circle cx="40" cy="40" r="2"/><circle cx="47" cy="45" r="2"/><circle cx="54" cy="51" r="2"/><circle cx="61" cy="39" r="2"/></g></g></svg>