<svg height="367" viewBox="0 0 431 367" width="431" xmlns="http://www.w3.org/2000/svg" xmlns:xlink="http://www.w3.org/1999/xlink"><linearGradient id="a" x1="80.814%" x2="43.696%" y1="15.801%" y2="97.438%"><stop offset="0" stop-color="#0052cc"/><stop offset=".923" stop-color="#2684ff"/></linearGradient><radialGradient id="b" cy="54.652%" gradientTransform="matrix(.9243 0 0 1 .038 0)" r="71.69%"><stop offset="0" stop-color="#ffb900"/><stop offset=".6" stop-color="#f95d8f"/><stop offset=".9991" stop-color="#f95353"/></radialGradient><g fill="none" fill-rule="evenodd"><path d="m247 321.66a5.327 5.327 0 0 0 -5.333 5.321v31.925a5.327 5.327 0 0 0 5.333 5.32h32a5.327 5.327 0 0 0 5.333-5.32v-31.926a5.327 5.327 0 0 0 -5.333-5.32zm0-2.66h32c4.418 0 8 3.573 8 7.981v31.925c0 4.408-3.582 7.98-8 7.98h-32c-4.418 0-8-3.572-8-7.98v-31.926c0-4.408 3.582-7.981 8-7.981z" fill="#35363e" fill-rule="nonzero"/><g opacity=".4" stroke="#fff" stroke-width="2"><g opacity=".3" transform="translate(318 266)"><path d="m.487.945v32.996h39.573" stroke-dasharray="4" stroke-linecap="round" stroke-linejoin="round"/><ellipse cx="44.1" cy="34.323" rx="3.675" ry="3.677"/></g><g opacity=".3" transform="translate(350 79)"><ellipse cx="21.571" cy="3.616" rx="3.571" ry="3.616"/><path d="m.991 93h20.599v-84.854" stroke-dasharray="4" stroke-linecap="round" stroke-linejoin="round"/></g><g opacity=".3" transform="translate(314 31)"><circle cx="3" cy="3" r="3"/><path d="m3.32 64.889v-58.127" stroke-dasharray="4" stroke-linecap="round" stroke-linejoin="round"/></g><g opacity=".3" transform="translate(29 168)"><ellipse cx="3.647" cy="3.5" rx="3.647" ry="3.5"/><path d="m59.999 3.5h-55.954" stroke-dasharray="4" stroke-linecap="round" stroke-linejoin="round"/></g><g opacity=".3" transform="translate(69 265)"><ellipse cx="3.659" cy="21.429" rx="3.659" ry="3.571"/><path d="m99.759.75v20.68h-92.391" stroke-dasharray="4" stroke-linecap="round" stroke-linejoin="round"/></g><g opacity=".3" transform="translate(216 266)"><circle cx="4" cy="48.196" r="3.5"/><path d="m3.94.182v47.488" stroke-dasharray="4" stroke-linecap="round" stroke-linejoin="round"/></g><g opacity=".3" transform="translate(118 46)"><ellipse cx="4.135" cy="3.628" rx="3.635" ry="3.628"/><path d="m101.891 50.154v-19.24h-97.755v-26.755" stroke-dasharray="4" stroke-linecap="round" stroke-linejoin="round"/></g></g><path d="m129.285 308.422a4.85 4.85 0 0 0 -4.857 4.845v29.07a4.85 4.85 0 0 0 4.857 4.845h29.138a4.85 4.85 0 0 0 4.856-4.845v-29.07a4.85 4.85 0 0 0 -4.856-4.845zm0-2.422h29.138c4.023 0 7.284 3.254 7.284 7.267v29.07c0 4.013-3.261 7.267-7.284 7.267h-29.138c-4.024 0-7.285-3.254-7.285-7.267v-29.07c0-4.013 3.261-7.267 7.285-7.267z" fill="#35363e" fill-rule="nonzero"/><path d="m154.81 333.347-5.083-1.634v-3.105l5.091-1.629-.009 6.368zm-7.265 1.495h-12.363v-9.36h12.363zm8.6-9.68c.544.391.855 1.034.855 1.764v6.469c0 .73-.313 1.37-.855 1.763-.35.252-.77.38-1.212.38-.246 0-.497-.04-.748-.12l-4.458-1.434v3.018h-16.727v-13.681h16.727v3.014l4.46-1.433c.702-.226 1.415-.13 1.958.26zm-19.509-4.002v-2.16h9.455v2.16z" fill="#fff"/><g fill-rule="nonzero"><path d="m384.167 220.389a4.778 4.778 0 0 0 -4.778 4.778v28.666a4.778 4.778 0 0 0 4.778 4.778h28.666a4.778 4.778 0 0 0 4.778-4.778v-28.666a4.778 4.778 0 0 0 -4.778-4.778zm0-2.389h28.666a7.167 7.167 0 0 1 7.167 7.167v28.666a7.167 7.167 0 0 1 -7.167 7.167h-28.666a7.167 7.167 0 0 1 -7.167-7.167v-28.666a7.167 7.167 0 0 1 7.167-7.167z" fill="#35363e"/><path d="m392.97 245.297-1.253-1.069 8.05-9.76a3.496 3.496 0 0 1 4.993-.444c1.497 1.278 1.69 3.557.435 5.079l-8.058 9.768a5.118 5.118 0 0 1 -7.29.644c-2.19-1.868-2.472-5.199-.633-7.429l8.757-10.615a6.735 6.735 0 0 1 9.595-.85c2.882 2.46 3.258 6.833.842 9.762l-8.757 10.617-1.253-1.07 8.758-10.616c1.835-2.225 1.549-5.55-.64-7.419a5.119 5.119 0 0 0 -7.292.645l-8.757 10.616c-1.26 1.527-1.067 3.807.43 5.085a3.502 3.502 0 0 0 4.988-.439l8.057-9.768a1.969 1.969 0 0 0 -.234-2.736 1.88 1.88 0 0 0 -2.688.24l-8.05 9.76z" fill="#fff"/></g><path d="m391 119.66a5.327 5.327 0 0 0 -5.333 5.321v31.925a5.327 5.327 0 0 0 5.333 5.32h32a5.327 5.327 0 0 0 5.333-5.32v-31.926a5.327 5.327 0 0 0 -5.333-5.32zm0-2.66h32c4.418 0 8 3.573 8 7.981v31.925c0 4.408-3.582 7.98-8 7.98h-32c-4.418 0-8-3.572-8-7.98v-31.926c0-4.408 3.582-7.981 8-7.981z" fill="#35363e" fill-rule="nonzero"/><path d="m407.008 153.82 5.152-15.855h-10.304z" fill="#e24329"/><path d="m407.008 153.82-5.152-15.855h-7.22z" fill="#fc6d26"/><path d="m394.636 137.965-1.566 4.818c-.143.44.014.921.388 1.193l13.55 9.845z" fill="#fca326"/><path d="m394.636 137.965h7.22l-3.103-9.55a.533.533 0 0 0 -1.014 0z" fill="#e24329"/><path d="m407.008 153.82 5.152-15.855h7.22z" fill="#fc6d26"/><path d="m419.38 137.965 1.566 4.818c.143.44-.013.921-.387 1.193l-13.55 9.845 12.372-15.856z" fill="#fca326"/><path d="m419.38 137.965h-7.22l3.103-9.55a.533.533 0 0 1 1.015 0l3.103 9.55z" fill="#e24329"/><path d="m249.8 2.667a5.333 5.333 0 0 0 -5.333 5.333v32a5.333 5.333 0 0 0 5.333 5.333h32a5.333 5.333 0 0 0 5.333-5.333v-32a5.333 5.333 0 0 0 -5.333-5.333zm0-2.667h32a8 8 0 0 1 8 8v32a8 8 0 0 1 -8 8h-32a8 8 0 0 1 -8-8v-32a8 8 0 0 1 8-8z" fill="#35363e" fill-rule="nonzero"/><path d="m7.15 11.036c-.357-.382-.914-.36-1.157.126l-5.86 11.721a.7.7 0 0 0 .626 1.014h8.162a.676.676 0 0 0 .626-.387c1.76-3.639.694-9.171-2.397-12.474z" fill="url(#a)" transform="translate(253.8 12)"/><path d="m265.25 12.375c-3.278 5.194-3.062 10.946-.902 15.264l3.935 7.87a.7.7 0 0 0 .627.388h8.161a.7.7 0 0 0 .627-1.014s-10.98-21.963-11.256-22.512c-.247-.492-.874-.499-1.192.004z" fill="#2681ff"/><g fill-rule="nonzero"><path d="m7.2 116.333a4.667 4.667 0 0 0 -4.667 4.667v28a4.667 4.667 0 0 0 4.667 4.667h28a4.667 4.667 0 0 0 4.667-4.667v-28a4.667 4.667 0 0 0 -4.667-4.667zm0-2.333h28a7 7 0 0 1 7 7v28a7 7 0 0 1 -7 7h-28a7 7 0 0 1 -7-7v-28a7 7 0 0 1 7-7z" fill="#35363e"/><path d="m13.5 126a2.5 2.5 0 0 0 -2.5 2.5v15a2.5 2.5 0 0 0 2.5 2.5h15a2.5 2.5 0 0 0 2.5-2.5v-15a2.5 2.5 0 0 0 -2.5-2.5z" fill="#0079bf"/><path d="m23.5 128.6a1.2 1.2 0 0 0 -1.2 1.2v6.35a1.2 1.2 0 0 0 1.2 1.2h3.7a1.2 1.2 0 0 0 1.2-1.2v-6.35a1.2 1.2 0 0 0 -1.2-1.2zm-8.7 0a1.2 1.2 0 0 0 -1.2 1.2v11.35a1.2 1.2 0 0 0 1.2 1.2h3.7a1.2 1.2 0 0 0 1.2-1.2v-11.35a1.2 1.2 0 0 0 -1.2-1.2z" fill="#fff"/><g fill="#35363e"><path d="m159.4 26.433a4.667 4.667 0 0 0 -4.667 4.667v28a4.667 4.667 0 0 0 4.667 4.667h28a4.667 4.667 0 0 0 4.667-4.667v-28a4.667 4.667 0 0 0 -4.667-4.667zm0-2.333h28a7 7 0 0 1 7 7v28a7 7 0 0 1 -7 7h-28a7 7 0 0 1 -7-7v-28a7 7 0 0 1 7-7z"/><path d="m174.58 97.235c0 .734-.543 1.33-1.213 1.33-.671 0-1.215-.596-1.215-1.33v-30.94c0-.735.544-1.33 1.215-1.33.67 0 1.214.595 1.214 1.33v30.94z"/></g></g><path d="m167.746 43.813c0 .33.036.596.098.791.071.196.16.41.285.64a.387.387 0 0 1 .062.205c0 .089-.053.178-.169.267l-.56.373a.426.426 0 0 1 -.231.08c-.089 0-.178-.045-.267-.125a2.75 2.75 0 0 1 -.32-.417 6.881 6.881 0 0 1 -.275-.525c-.694.818-1.565 1.227-2.614 1.227-.746 0-1.342-.213-1.777-.64-.436-.427-.658-.996-.658-1.707 0-.755.266-1.369.809-1.83.542-.463 1.262-.694 2.177-.694.303 0 .614.026.943.07.329.045.666.116 1.022.196v-.648c0-.676-.142-1.147-.418-1.423-.284-.275-.764-.409-1.449-.409-.31 0-.63.036-.96.116-.329.08-.649.178-.96.302a2.55 2.55 0 0 1 -.31.116.545.545 0 0 1 -.143.026c-.125 0-.187-.088-.187-.275v-.436c0-.142.018-.249.062-.31a.665.665 0 0 1 .25-.187c.31-.16.684-.294 1.12-.4a5.39 5.39 0 0 1 1.386-.17c1.058 0 1.831.24 2.329.72.489.48.738 1.21.738 2.187v2.88zm-3.608 1.351c.293 0 .595-.053.915-.16a1.98 1.98 0 0 0 .845-.568c.142-.17.248-.356.302-.57.053-.213.089-.47.089-.773v-.373a7.423 7.423 0 0 0 -.818-.151 6.698 6.698 0 0 0 -.836-.053c-.595 0-1.03.115-1.324.355-.293.24-.436.578-.436 1.022 0 .418.107.73.33.943.213.222.524.328.933.328zm7.137.96c-.16 0-.266-.026-.337-.088-.072-.054-.134-.178-.187-.347l-2.089-6.871a1.552 1.552 0 0 1 -.08-.356c0-.142.071-.222.213-.222h.871c.17 0 .285.027.347.089.071.053.125.178.178.347l1.493 5.884 1.387-5.884c.044-.178.098-.294.169-.347.07-.053.195-.089.355-.089h.711c.17 0 .285.027.356.089.071.053.133.178.169.347l1.404 5.955 1.538-5.955c.053-.178.116-.294.178-.347.071-.053.187-.089.347-.089h.826c.142 0 .222.071.222.222 0 .045-.008.09-.017.142a1.273 1.273 0 0 1 -.063.223l-2.142 6.87c-.053.179-.115.294-.187.347a.568.568 0 0 1 -.337.09h-.765c-.169 0-.284-.027-.355-.09-.071-.062-.134-.177-.17-.355l-1.377-5.733-1.369 5.724c-.044.178-.098.293-.169.356-.07.062-.195.088-.355.088zm11.423.24c-.463 0-.925-.053-1.37-.16-.444-.106-.79-.222-1.022-.355-.142-.08-.24-.169-.275-.249a.627.627 0 0 1 -.053-.249v-.453c0-.187.07-.276.204-.276.053 0 .107.01.16.027.053.018.133.053.222.089.302.133.631.24.978.31.356.072.702.108 1.058.108.56 0 .995-.098 1.297-.294a.957.957 0 0 0 .463-.844.865.865 0 0 0 -.24-.622c-.16-.17-.462-.32-.898-.463l-1.289-.4c-.649-.204-1.129-.506-1.422-.906a2.118 2.118 0 0 1 -.445-1.29c0-.373.08-.701.24-.986.16-.284.374-.533.64-.729.267-.204.57-.355.925-.462a3.874 3.874 0 0 1 1.12-.151c.195 0 .4.009.595.035.205.027.391.063.578.098.178.045.347.09.507.142.16.054.284.107.373.16a.769.769 0 0 1 .267.223c.053.07.08.169.08.293v.418c0 .186-.071.284-.205.284-.07 0-.186-.035-.337-.106-.507-.232-1.076-.347-1.707-.347-.507 0-.907.08-1.182.249-.276.169-.418.426-.418.79a.84.84 0 0 0 .267.632c.177.169.506.338.977.489l1.263.4c.64.204 1.102.489 1.377.853.276.365.41.782.41 1.245 0 .382-.08.729-.232 1.03a2.39 2.39 0 0 1 -.649.783 2.865 2.865 0 0 1 -.986.498c-.4.124-.818.186-1.271.186z" fill="#fff"/><path d="m184.377 50.684c-2.924 2.16-7.173 3.307-10.826 3.307-5.12 0-9.733-1.893-13.218-5.04-.276-.249-.027-.587.302-.391 3.77 2.187 8.418 3.511 13.227 3.511 3.244 0 6.809-.675 10.089-2.062.489-.222.907.32.426.675zm1.218-1.386c-.373-.48-2.47-.231-3.422-.116-.284.036-.329-.213-.071-.4 1.671-1.173 4.418-.835 4.738-.444.32.4-.09 3.146-1.654 4.462-.24.204-.47.098-.364-.169.355-.88 1.147-2.862.773-3.333z" fill="#f90"/><path d="m29.1 208.633a4.667 4.667 0 0 0 -4.667 4.667v28a4.667 4.667 0 0 0 4.667 4.667h28a4.667 4.667 0 0 0 4.667-4.667v-28a4.667 4.667 0 0 0 -4.667-4.667zm0-2.333h28a7 7 0 0 1 7 7v28a7 7 0 0 1 -7 7h-28a7 7 0 0 1 -7-7v-28a7 7 0 0 1 7-7z" fill="#35363e" fill-rule="nonzero"/><path d="m43.1 215.3c6.627 0 12 5.372 12 12 0 5.3-3.434 9.797-8.2 11.385-.608.118-.824-.256-.824-.576 0-.395.014-1.687.014-3.293 0-1.12-.383-1.85-.814-2.222 2.672-.297 5.48-1.312 5.48-5.92 0-1.311-.466-2.381-1.235-3.222.124-.302.535-1.523-.118-3.176 0 0-1.006-.322-3.297 1.23-.959-.265-1.986-.399-3.006-.403-1.02.004-2.046.138-3.004.404-2.293-1.553-3.3-1.23-3.3-1.23-.652 1.652-.241 2.873-.117 3.175-.767.84-1.236 1.911-1.236 3.221 0 4.598 2.802 5.627 5.467 5.93-.343.3-.654.83-.762 1.605-.684.307-2.421.837-3.492-.997 0 0-.634-1.152-1.84-1.237 0 0-1.17-.015-.081.73 0 0 .786.368 1.332 1.755 0 0 .705 2.142 4.043 1.416.005 1.003.016 1.948.016 2.234 0 .317-.22.689-.82.578-4.768-1.587-8.206-6.085-8.206-11.387 0-6.628 5.373-12 12-12zm-7.455 17.23c-.026.06-.12.077-.206.036-.087-.04-.136-.12-.107-.18.026-.062.12-.079.206-.038.088.04.137.122.107.181zm.486.541c-.057.053-.169.029-.245-.055-.078-.084-.093-.196-.035-.25.059-.052.167-.028.246.056.079.085.094.196.034.25zm.473.692c-.073.05-.193.003-.268-.104-.073-.107-.073-.235.002-.286.074-.051.193-.005.268.1.073.11.073.237-.002.29zm.648.667c-.065.073-.205.053-.308-.046-.105-.096-.134-.234-.068-.306.066-.073.207-.053.31.046.105.096.137.235.066.306zm.895.388c-.03.094-.164.137-.3.097-.136-.041-.225-.152-.197-.246.028-.095.163-.14.3-.097.136.041.225.15.197.246zm.982.072c.003.099-.112.18-.255.183s-.26-.077-.26-.175c0-.1.112-.18.255-.183s.26.077.26.175zm.914-.156c.017.097-.082.196-.224.222-.14.026-.268-.034-.286-.13-.017-.098.084-.198.223-.223.142-.025.269.033.287.131z" fill="#fffffe"/><path d="m297.134 266.574c0-.669.543-1.211 1.214-1.211.67 0 1.214.542 1.214 1.211v26.35c0 .669-.544 1.211-1.214 1.211h-33.768v26.104c0 .669-.544 1.211-1.214 1.211s-1.214-.542-1.214-1.211v-27.315c0-.669.543-1.211 1.214-1.211h33.767v-25.139zm54.21-73.97c-.67 0-1.214.177-1.214-.492s.544-1.21 1.214-1.21h47.333c.67 0 1.214.541 1.214 1.21v26.4c0 .668-.543 1.21-1.214 1.21-.67 0-1.214-.542-1.214-1.21v-25.188zm-1.464-50.482c-.602 0-1.09-.542-1.09-1.211 0-.67.488-1.211 1.09-1.211h33.058c.602 0 1.09.542 1.09 1.21 0 .67-.488 1.212-1.09 1.212zm-82.817-45.31c0 .633-.544 1.145-1.214 1.145s-1.214-.512-1.214-1.145v-49.534c0-.632.543-1.145 1.214-1.145.67 0 1.214.513 1.214 1.145zm-179.933 37.09a1.213 1.213 0 0 1 0 2.422h-45.396c-.67 0-1.214-.542-1.214-1.21 0-.67.544-1.212 1.214-1.212zm-8.732 57.949c0-.668.543-1.21 1.214-1.21h9.117c.67 0 1.214.542 1.214 1.21 0 .67-.543 1.212-1.214 1.212h-7.903v34.225c0 .67-.544 1.212-1.214 1.212h-15.75a1.213 1.213 0 0 1 0-2.422h14.536v-34.228zm66.67 115.799h-2.428v-41.009h2.428z" fill="#35363e" fill-rule="nonzero"/><g transform="translate(87 97)"><path d="m7.294 0h250.412c4.029 0 7.294 3.25 7.294 7.259v158.481c0 4.01-3.265 7.259-7.294 7.259h-250.412c-4.029.001-7.294-3.249-7.294-7.258v-158.481c0-4.011 3.265-7.26 7.294-7.26z" fill="#fff"/><path d="m7.1 0h63.9v173h-63.9c-3.921 0-7.1-3.25-7.1-7.259v-158.481c0-4.011 3.179-7.26 7.1-7.26z" fill="#1d74f5"/><path d="m71 22h194v1h-194z" fill="#c6c7ca" opacity=".23"/><rect fill="#fff" height="8" rx="1" width="8" x="8" y="8"/><rect fill="#d8d8d8" height="12" opacity=".48" rx="1" width="12" x="76" y="6"/><rect fill="#d8d8d8" height="4" opacity=".48" rx="1" width="30" x="91" y="8"/><rect fill="#d8d8d8" height="2" opacity=".48" rx="1" width="20" x="91" y="14"/><rect fill="#fff" height="8" rx="1" width="8" x="8" y="34"/><g fill="#d8d8d8" opacity=".48"><rect height="8" rx="1" width="8" x="77" y="29"/><rect height="3" rx="1" width="15" x="88" y="29"/><rect height="3" rx="1" width="160" x="88" y="35"/><rect height="3" rx="1" width="160" x="88" y="41"/><rect height="3" rx="1" width="80" x="88" y="47"/></g><g fill="#d8d8d8" opacity=".48"><rect height="8" rx="1" width="8" x="77" y="116"/><rect height="3" rx="1" width="15" x="88" y="116"/><rect height="3" rx="1" width="160" x="88" y="122"/><rect height="3" rx="1" width="160" x="88" y="128"/><rect height="3" rx="1" width="78" x="88" y="134"/></g><g fill="#d8d8d8" opacity=".48"><rect height="8" rx="1" width="8" x="77" y="58"/><rect height="3" rx="1" width="15" x="88" y="58"/><rect height="3" rx="1" width="160" x="88" y="64"/><rect height="3" rx="1" width="78.396" x="88" y="70"/></g><g fill="#d8d8d8" opacity=".48"><rect height="8" rx="1" width="8" x="77" y="145"/><rect height="3" rx="1" width="15" x="88" y="145"/><rect height="3" rx="1" width="160" x="88" y="151"/><rect height="3" rx="1" width="78.396" x="88" y="157"/></g><g fill="#d8d8d8" opacity=".48"><rect height="8" rx="1" width="8" x="77" y="81"/><rect height="3" rx="1" width="15" x="88" y="81"/><rect height="3" rx="1" width="160" x="88" y="87"/><rect height="3" rx="1" width="160" x="88" y="93"/><rect height="3" rx="1" width="160" x="88" y="99"/><rect height="3" rx="1" width="130" x="88" y="105"/></g><g fill="#fff"><rect height="8" rx="1" width="8" x="8" y="94"/><rect height="8" rx="1" width="8" x="8" y="106"/><rect height="8" rx="1" width="8" x="8" y="118"/><rect height="8" rx="1" width="8" x="8" y="130"/><rect height="8" rx="1" width="8" x="8" y="142"/></g><rect fill="#d8d8d8" height="2" opacity=".564" rx="1" width="17" x="8" y="88"/><g fill="#fff"><rect height="4" opacity=".564" rx="1" width="43" x="20" y="96"/><rect height="4" opacity=".564" rx="1" width="43" x="20" y="108"/><rect height="4" opacity=".564" rx="1" width="43" x="20" y="120"/><rect height="4" opacity=".564" rx="1" width="43" x="20" y="132"/><rect height="4" opacity=".564" rx="1" width="43" x="20" y="144"/><rect height="8" rx="1" width="8" x="8" y="154"/><rect height="4" opacity=".564" rx="1" width="43" x="20" y="156"/><rect height="8" rx="1" width="8" x="8" y="46"/><rect height="8" rx="1" width="8" x="8" y="58"/><rect height="8" rx="1" width="8" x="8" y="70"/><rect height="2" opacity=".564" rx="1" width="17" x="8" y="28"/><rect height="4" opacity=".564" rx="1" width="43" x="20" y="36"/><rect height="4" opacity=".564" rx="1" width="43" x="20" y="48"/><rect height="4" opacity=".564" rx="1" width="43" x="20" y="60"/><rect height="4" opacity=".564" rx="1" width="43" x="20" y="72"/><rect height="6" opacity=".564" rx="1" width="6" x="28" y="9"/><rect height="6" opacity=".564" rx="1" width="6" x="38" y="9"/><rect height="6" opacity=".564" rx="1" width="6" x="47" y="9"/><rect height="6" opacity=".564" rx="1" width="6" x="57" y="9"/></g></g><path d="m270.86 343.67a6.075 6.075 0 1 0 0 12.151 6.075 6.075 0 0 0 0-12.15zm-15.784 0a6.075 6.075 0 1 0 -.001 12.151 6.075 6.075 0 0 0 0-12.15zm13.968-7.594a6.076 6.076 0 1 1 -12.152 0 6.076 6.076 0 0 1 12.152 0z" fill="url(#b)" fill-rule="nonzero"/></g></svg>