<svg xmlns="http://www.w3.org/2000/svg" xmlns:xlink="http://www.w3.org/1999/xlink" width="84" height="84" viewBox="0 0 84 84">
    <defs>
        <circle id="a" cx="32" cy="32" r="32"/>
    </defs>
    <g fill="none" fill-rule="evenodd">
        <use fill="#A3B4CC" transform="translate(10 10)" xlink:href="#a"/>
        <g transform="translate(26 22)">
            <rect width="28.806" height="38.148" y="3.114" fill="#F3F5F8" rx="2"/>
            <rect width="28.806" height="38.148" x="1.557" y="1.557" fill="#1D74F5" rx="2"/>
            <rect width="28.806" height="38.148" x="3.114" fill="#F3F5F8" rx="2"/>
            <rect width="21.02" height="1.666" x="7.007" y="14.792" fill="#A8C2EA" rx=".833"/>
            <rect width="21.02" height="1.666" x="7.007" y="27.249" fill="#A8C2EA" rx=".833"/>
            <rect width="21.02" height="1.666" x="7.007" y="6.228" fill="#1D74F5" rx=".833"/>
            <rect width="21.02" height="1.666" x="7.007" y="18.124" fill="#A8C2EA" rx=".833"/>
            <rect width="21.02" height="1.666" x="7.007" y="30.58" fill="#A8C2EA" rx=".833"/>
            <rect width="10.9" height="1.666" x="7.007" y="9.56" fill="#1D74F5" rx=".833"/>
            <rect width="11.678" height="1.666" x="7.007" y="21.799" fill="#A8C2EA" rx=".833"/>
            <rect width="11.678" height="1.666" x="7.007" y="34.256" fill="#A8C2EA" rx=".833"/>
        </g>
    </g>
</svg>
