<svg height="84" viewBox="0 0 84 84" width="84" xmlns="http://www.w3.org/2000/svg"><g fill="none" fill-rule="evenodd"><circle cx="42" cy="42" fill="#a3b4cc" r="32"/><path d="m28.495 23h-5.495v5.592m32.14-5.592h5.495v5.592" stroke="#1d74f5" stroke-linecap="round" stroke-linejoin="round" stroke-width="2"/><path d="m51.296 30.077a.868.868 0 0 1 -.423-.108c-3.134-1.586-5.842-2.259-9.09-2.259-3.245 0-6.31.76-9.089 2.258a.944.944 0 0 1 -1.25-.362.907.907 0 0 1 .369-1.23c3.074-1.64 6.437-2.476 9.97-2.476 3.507 0 6.573.76 9.936 2.458a.88.88 0 0 1 .388 1.213.905.905 0 0 1 -.811.506zm-23.47 8.452a.968.968 0 0 1 -.533-.162.894.894 0 0 1 -.221-1.268 16.967 16.967 0 0 1 6.186-5.296c5.186-2.626 11.812-2.635 17-.016a17.034 17.034 0 0 1 6.186 5.262c.299.403.2.982-.22 1.27a.927.927 0 0 1 -1.286-.217 15.218 15.218 0 0 0 -5.524-4.703c-4.683-2.355-10.67-2.35-15.327.016a15.373 15.373 0 0 0 -5.536 4.726c-.145.25-.417.388-.726.388zm10.25 19.433a.872.872 0 0 1 -.644-.27c-1.564-1.536-2.284-2.447-3.313-4.272-1.138-1.99-1.736-4.421-1.736-7.037 0-4.84 4.213-8.778 9.384-8.778 5.17 0 9.383 3.938 9.383 8.778a.905.905 0 0 1 -.92.905.905.905 0 0 1 -.92-.905c0-3.84-3.382-6.968-7.543-6.968s-7.544 3.128-7.544 6.968c0 2.304.522 4.428 1.513 6.149.937 1.653 1.54 2.406 3.019 3.876.35.36.35.921-.005 1.287a1.009 1.009 0 0 1 -.674.267zm11.76-2.979c-1.974 0-3.715-.49-5.14-1.45-2.472-1.644-3.948-4.316-3.948-7.15 0-.507.406-.905.92-.905s.92.398.92.905c0 2.24 1.168 4.349 3.137 5.648 1.145.76 2.485 1.126 4.111 1.126.443 0 1.097-.058 1.688-.16.5-.09.976.239 1.067.74.093.493-.242.962-.752 1.051-.745.142-1.465.195-2.003.195zm-3.296 3.317c-.067 0-.148-.013-.24-.036-2.616-.71-4.339-1.666-6.144-3.406-2.316-2.257-3.59-5.262-3.59-8.475 0-2.667 2.312-4.834 5.152-4.834s5.152 2.167 5.152 4.834c0 1.666 1.48 3.023 3.312 3.023 1.83 0 3.311-1.357 3.311-3.023 0-6.012-5.283-10.897-11.791-10.897-4.626 0-8.852 2.527-10.752 6.433-.632 1.29-.957 2.803-.957 4.464 0 1.866.276 3.64 1.092 5.775a.88.88 0 0 1 -.534 1.16.918.918 0 0 1 -1.178-.524c-.808-2.122-1.204-4.227-1.204-6.411 0-1.943.38-3.714 1.125-5.26 2.2-4.53 7.076-7.463 12.408-7.463 7.517 0 13.631 5.695 13.631 12.706 0 2.667-2.311 4.834-5.151 4.834-2.841 0-5.152-2.167-5.152-4.834 0-1.666-1.48-3.023-3.312-3.023-1.83 0-3.311 1.357-3.311 3.024a9.946 9.946 0 0 0 3.037 7.189c1.553 1.509 3.034 2.333 5.318 2.953.49.125.777.626.647 1.1a.897.897 0 0 1 -.869.691z" fill="#fff" fill-rule="nonzero" stroke="#fff" stroke-width=".2"/><path d="m28.495 60.745h-5.495v-5.591m32.14 5.591h5.495v-5.591" stroke="#1d74f5" stroke-linecap="round" stroke-linejoin="round" stroke-width="2"/></g></svg>