<svg xmlns="http://www.w3.org/2000/svg" width="36" height="36" viewBox="0 0 36 36">
    <defs>
        <linearGradient id="a" x1="50%" x2="50%" y1="0%" y2="100.001%">
            <stop offset="0%" stop-color="#00B2FF"/>
            <stop offset="100%" stop-color="#006AFF"/>
        </linearGradient>
    </defs>
    <g fill="none" fill-rule="evenodd">
        <path fill="url(#a)" d="M16.89.72C7.374.72 0 7.537 0 16.74c0 4.815 2.019 8.975 5.305 11.85.275.242.442.577.455.94l.092 2.937c.03.937 1.02 1.545 1.896 1.17l3.35-1.446c.286-.123.602-.146.901-.066 1.54.415 3.181.634 4.89.634 9.516 0 16.89-6.815 16.89-16.019C33.78 7.536 26.405.72 16.89.72z" transform="translate(1 1)"/>
        <path fill="#FFF" d="M7.886 21.854l4.894-7.324c.778-1.164 2.448-1.455 3.614-.63l3.893 2.755c.358.253.848.25 1.203-.003l5.257-3.763c.7-.503 1.62.29 1.147.993l-4.892 7.32c-.778 1.165-2.447 1.456-3.614.63l-3.892-2.754a1.05 1.05 0 0 0-1.204.003l-5.26 3.766c-.7.503-1.62-.29-1.146-.993z"/>
    </g>
</svg>
