<svg height="84" viewBox="0 0 84 84" width="84" xmlns="http://www.w3.org/2000/svg"><g fill="none" fill-rule="evenodd"><circle cx="42" cy="42" fill="#a3b4cc" r="32"/><g transform="translate(22 15)"><g fill="#ecf0f4"><path d="m39.205 36.225 7.91-22.833c2.81-8.118 6.737-11.502 11.778-10.153.777.266.72.813.503 1.439l-11.91 34.384c-1.002 2.89-3.668 4.6-5.955 3.817-2.287-.784-3.329-3.763-2.327-6.654z"/><path d="m6.631 35.31c.819-.854 1.084-1.406 1.019-1.578.12.283-.42.096-.955.041-1.498-.152-1.768-.35-2.165-1.396-.397-1.045-.035-1.627 1.01-2.666.21-.21.314-.322.376-.355-.004.18-.16.158-.463.127-1.498-.153-2.165-.375-2.562-1.42-.398-1.046-.036-1.627 1.009-2.667.21-.209.315-.322.376-.355l.065.166c-.068.014-.225-.008-.528-.039-1.497-.152-2.165-.375-2.562-1.42-.307-.809-.192-1.352.212-2.16.151-.302.152-.308.118-.399-.226-.596-.754-1.168-.119-1.39.635-.221 1.334.082 1.56.678.307.809.192 1.352-.212 2.16-.128.256-.148.3-.13.362-.025-.104.084-.078.57-.029 1.497.153 2.164.376 2.562 1.42.397 1.046.035 1.628-1.01 2.667-.21.21-.314.322-.376.355.003-.18.16-.158.463-.127 1.498.153 2.165.375 2.562 1.42.397 1.046.036 1.627-1.009 2.667-.21.209-.315.322-.377.355.004-.18.16-.158.464-.127 1.497.152 2.165.375 2.562 1.42.176.463.195.939.07 1.432z" fill-rule="nonzero"/><path d="m6.074 13.144.038-.074a1.561 1.561 0 0 1 1.958-.752l.095.037a3 3 0 0 1 1.713 1.716l8.806 22.805-3.927 1.5-8.804-22.799a3 3 0 0 1 .12-2.433z"/></g><path d="m5.982 34.017 34.873-1.008a5.972 5.972 0 0 1 6.145 5.971 6.016 6.016 0 0 1 -6.146 6.015l-34.87-.756a5.094 5.094 0 0 1 -4.984-5.094 5.13 5.13 0 0 1 4.982-5.128z" fill="#1867de"/><circle cx="41" cy="39" fill="#fff" r="2"/></g></g></svg>