<svg xmlns="http://www.w3.org/2000/svg" width="36" height="36" viewBox="0 0 36 36">
    <path fill="#000" fill-rule="evenodd" d="M18 2c8.836 0 16 7.344 16 16.405 0 7.246-4.579 13.393-10.933 15.565-.81.16-1.099-.35-1.099-.787 0-.541.019-2.308.019-4.502 0-1.53-.511-2.53-1.085-3.038 3.563-.407 7.306-1.794 7.306-8.095 0-1.791-.621-3.254-1.647-4.403.166-.414.714-2.082-.157-4.342 0 0-1.342-.44-4.396 1.682A15.02 15.02 0 0 0 18 9.933c-1.36.006-2.728.188-4.005.552-3.057-2.123-4.4-1.682-4.4-1.682-.87 2.26-.322 3.928-.156 4.342-1.023 1.149-1.648 2.612-1.648 4.403 0 6.286 3.735 7.693 7.29 8.108-.458.409-.873 1.133-1.017 2.193-.913.42-3.229 1.145-4.656-1.363 0 0-.846-1.576-2.452-1.691 0 0-1.561-.02-.11.997 0 0 1.049.504 1.777 2.4 0 0 .94 2.929 5.39 1.936.007 1.371.022 2.663.022 3.055 0 .433-.293.94-1.093.789C6.585 31.802 2 25.653 2 18.405 2 9.345 9.165 2 18 2zM8.06 25.554c-.035.082-.16.106-.274.05-.116-.053-.181-.165-.144-.246.035-.084.16-.107.276-.052.116.054.182.166.142.248zm.648.741c-.076.073-.225.039-.327-.076-.104-.114-.124-.267-.046-.34.078-.073.223-.04.328.075.104.116.125.268.045.341zm.631.945c-.098.07-.258.004-.357-.142-.098-.145-.098-.32.002-.39s.257-.008.357.137c.098.148.098.324-.002.395zm.864.913c-.087.099-.274.072-.41-.063-.14-.132-.18-.32-.092-.42.089-.099.277-.07.415.064.138.132.18.32.087.419zm1.193.53c-.04.128-.219.187-.4.132-.181-.056-.3-.207-.263-.337.038-.129.218-.19.4-.131.182.056.3.205.263.336zm1.309.098c.005.135-.15.248-.34.25-.19.004-.345-.105-.348-.238 0-.137.15-.248.342-.251.19-.004.346.105.346.24zm1.219-.213c.022.132-.11.268-.299.304-.186.035-.358-.047-.381-.178-.023-.135.111-.27.297-.305.19-.034.358.045.383.18z"/>
</svg>
