<svg xmlns="http://www.w3.org/2000/svg" width="36" height="36" viewBox="0 0 36 36">
    <g fill="none" fill-rule="evenodd">
        <path fill="#E24329" d="M18.01 33.51l5.887-18.122H12.121z"/>
        <path fill="#FC6D26" d="M18.01 33.51L12.12 15.387H3.87z"/>
        <path fill="#FCA326" d="M3.87 15.388l-1.79 5.507a1.219 1.219 0 0 0 .443 1.363l15.486 11.251L3.87 15.39z"/>
        <path fill="#E24329" d="M3.87 15.388h8.251L8.575 4.474c-.182-.562-.977-.562-1.16 0L3.87 15.388z"/>
        <path fill="#FC6D26" d="M18.01 33.51l5.887-18.122h8.252z"/>
        <path fill="#FCA326" d="M32.15 15.388l1.788 5.507a1.219 1.219 0 0 1-.442 1.363L18.009 33.509l14.14-18.12z"/>
        <path fill="#E24329" d="M32.15 15.388h-8.253l3.547-10.914c.182-.562.977-.562 1.159 0l3.546 10.914z"/>
    </g>
</svg>
