<svg height="36" viewBox="0 0 36 36" width="36" xmlns="http://www.w3.org/2000/svg"><g fill="none" fill-rule="evenodd"><path d="m18.01 33.51 5.887-18.122h-11.776z" fill="#e24329"/><path d="m18.01 33.51-5.89-18.123h-8.25z" fill="#fc6d26"/><path d="m3.87 15.388-1.79 5.507a1.219 1.219 0 0 0 .443 1.363l15.486 11.251-14.139-18.119z" fill="#fca326"/><path d="m3.87 15.388h8.251l-3.546-10.914c-.182-.562-.977-.562-1.16 0z" fill="#e24329"/><path d="m18.01 33.51 5.887-18.122h8.252z" fill="#fc6d26"/><path d="m32.15 15.388 1.788 5.507a1.219 1.219 0 0 1 -.442 1.363l-15.487 11.251 14.14-18.12z" fill="#fca326"/><path d="m32.15 15.388h-8.253l3.547-10.914c.182-.562.977-.562 1.159 0l3.546 10.914z" fill="#e24329"/></g></svg>