<svg height="36" viewBox="0 0 36 36" width="36" xmlns="http://www.w3.org/2000/svg" xmlns:xlink="http://www.w3.org/1999/xlink"><linearGradient id="a" x1=".004%" x2="100.032%" y1="49.998%" y2="49.998%"><stop offset="0" stop-opacity=".1"/><stop offset="1" stop-opacity=".2"/></linearGradient><g fill="none"><path d="m31.854 30.2h-27.834c-1.079 0-1.988-.881-1.988-1.989v-20.11c0-1.078.88-1.987 1.988-1.987h27.835c1.08 0 1.988.88 1.988 1.988v20.11c0 1.107-.88 1.987-1.988 1.987z" fill="#e3e3e3"/><path d="m6.007 30.2 11.901-9.572.086-.512-12.27-8.833-.029 18.49z" fill="#231f20" opacity=".1"/><path d="m4.02 30.2a1.976 1.976 0 0 1 -1.99-1.99v-20.137c0-1.107.88-1.306 1.988-1.306s1.988.227 1.988 1.306v22.127z" fill="#d54b3d"/><path d="m4.02 7.05c1.42 0 1.703.427 1.703 1.023v21.842h-1.703a1.71 1.71 0 0 1 -1.704-1.704v-20.138c0-.624.284-1.022 1.704-1.022zm0-.283c-1.108 0-1.989.227-1.989 1.306v20.138c0 1.108.88 1.988 1.988 1.988h1.988v-22.126c0-1.107-.88-1.306-1.988-1.306z" fill="#d72b27"/><path d="m31.854 30.2h-1.988v-22.184c0-1.108.88-1.25 1.988-1.25s1.988.142 1.988 1.25v20.224c0 1.079-.88 1.96-1.988 1.96z" fill="#d54b3d"/><path d="m31.854 7.05c1.278 0 1.704.257 1.704.967v20.223a1.71 1.71 0 0 1 -1.704 1.704h-1.704v-21.927c0-.739.426-.966 1.704-.966zm0-.283c-1.107 0-1.988.142-1.988 1.25v22.21h1.988c1.108 0 1.988-.88 1.988-1.987v-20.223c0-1.108-.88-1.25-1.988-1.25z" fill="#d72b27"/><path d="m21.333 24.2-21.136-21.3 1.112.452 14.713 10.594 15.82-11.6v19.894c0 1.079-.88 1.96-1.988 1.96h-8.52z" fill="url(#a)" transform="translate(2 6)"/><path d="m17.908 20.628-15.025-10.908c-.88-.653-1.136-1.903-.483-2.784.654-.88 1.932-1.079 2.84-.426l12.697 9.231 12.781-9.344a1.976 1.976 0 0 1 2.784.454c.653.88.454 2.13-.455 2.784z" fill="#d54b3d"/><path d="m31.854 6.284c.54 0 1.051.256 1.392.71.54.767.37 1.818-.37 2.386l-14.967 10.907-14.855-10.793c-.767-.568-.966-1.648-.426-2.386.312-.426.852-.71 1.42-.71.369 0 .738.113 1.022.34l12.668 9.203.17.114.17-.114 12.754-9.345a1.882 1.882 0 0 1 1.022-.312zm0-.284c-.397 0-.823.114-1.164.37l-12.782 9.344-12.696-9.231c-.34-.256-.767-.37-1.193-.37-.625 0-1.25.285-1.647.824-.625.88-.37 2.13.511 2.784l15.025 10.935 15.11-11.02a2.023 2.023 0 0 0 .455-2.784 1.946 1.946 0 0 0 -1.619-.852z" fill="#d72b27"/></g></svg>