<svg xmlns="http://www.w3.org/2000/svg" width="36" height="36" viewBox="0 0 36 36">
    <defs>
        <linearGradient id="a" x1=".004%" x2="100.032%" y1="49.998%" y2="49.998%">
            <stop offset="0%" stop-opacity=".1"/>
            <stop offset="100%" stop-opacity=".2"/>
        </linearGradient>
    </defs>
    <g fill="none" fill-rule="nonzero">
        <path fill="#E3E3E3" d="M31.854 30.2H4.02c-1.079 0-1.988-.881-1.988-1.989V8.101c0-1.078.88-1.987 1.988-1.987h27.835c1.08 0 1.988.88 1.988 1.988v20.11c0 1.107-.88 1.987-1.988 1.987z"/>
        <path fill="#231F20" d="M6.007 30.2l11.901-9.572.086-.512-12.27-8.833-.029 18.49z" opacity=".1"/>
        <path fill="#D54B3D" d="M4.02 30.2A1.976 1.976 0 0 1 2.03 28.21V8.073c0-1.107.88-1.306 1.988-1.306s1.988.227 1.988 1.306V30.2H4.02z"/>
        <path fill="#D72B27" d="M4.02 7.05c1.42 0 1.703.427 1.703 1.023v21.842H4.02a1.71 1.71 0 0 1-1.704-1.704V8.073c0-.624.284-1.022 1.704-1.022zm0-.283c-1.108 0-1.989.227-1.989 1.306v20.138c0 1.108.88 1.988 1.988 1.988h1.988V8.073c0-1.107-.88-1.306-1.988-1.306z"/>
        <path fill="#D54B3D" d="M31.854 30.2h-1.988V8.016c0-1.108.88-1.25 1.988-1.25s1.988.142 1.988 1.25V28.24c0 1.079-.88 1.96-1.988 1.96z"/>
        <path fill="#D72B27" d="M31.854 7.05c1.278 0 1.704.257 1.704.967V28.24a1.71 1.71 0 0 1-1.704 1.704H30.15V8.017c0-.739.426-.966 1.704-.966zm0-.283c-1.107 0-1.988.142-1.988 1.25v22.21h1.988c1.108 0 1.988-.88 1.988-1.987V8.017c0-1.108-.88-1.25-1.988-1.25z"/>
        <path fill="url(#a)" d="M21.333 24.2L.197 2.9l1.112.452 14.713 10.594 15.82-11.6V22.24c0 1.079-.88 1.96-1.988 1.96h-8.52z" transform="translate(2 6)"/>
        <path fill="#D54B3D" d="M17.908 20.628L2.883 9.72c-.88-.653-1.136-1.903-.483-2.784.654-.88 1.932-1.079 2.84-.426l12.697 9.231 12.781-9.344a1.976 1.976 0 0 1 2.784.454c.653.88.454 2.13-.455 2.784L17.908 20.628z"/>
        <path fill="#D72B27" d="M31.854 6.284c.54 0 1.051.256 1.392.71.54.767.37 1.818-.37 2.386L17.909 20.287 3.054 9.494c-.767-.568-.966-1.648-.426-2.386.312-.426.852-.71 1.42-.71.369 0 .738.113 1.022.34l12.668 9.203.17.114.17-.114 12.754-9.345a1.882 1.882 0 0 1 1.022-.312zm0-.284c-.397 0-.823.114-1.164.37l-12.782 9.344L5.212 6.483c-.34-.256-.767-.37-1.193-.37-.625 0-1.25.285-1.647.824-.625.88-.37 2.13.511 2.784l15.025 10.935 15.11-11.02a2.023 2.023 0 0 0 .455-2.784A1.946 1.946 0 0 0 31.854 6z"/>
    </g>
</svg>
