<svg xmlns="http://www.w3.org/2000/svg" xmlns:xlink="http://www.w3.org/1999/xlink" width="84" height="84" viewBox="0 0 84 84">
    <defs>
        <circle id="a" cx="32" cy="32" r="32"/>
        <linearGradient id="c" x1="0%" x2="0%" y1="100%" y2=".923%">
            <stop offset="0%" stop-color="#1355B8"/>
            <stop offset="100%" stop-color="#1D74F5"/>
        </linearGradient>
    </defs>
    <g fill="none" fill-rule="evenodd">
        <g transform="translate(10 10)">
            <mask id="b" fill="#fff">
                <use xlink:href="#a"/>
            </mask>
            <use fill="#A3B4CC" xlink:href="#a"/>
            <g mask="url(#b)">
                <g transform="translate(14 11)">
                    <rect width="4.241" height="2.324" x="25.444" y="40.676" rx="1"/>
                    <path fill="url(#c)" d="M27.564 2.634l.009 39.95c11.105-2.186 19.256-2.515 24.455-.987a1.856 1.856 0 0 0 2.38-1.78V4.134a2 2 0 0 0-1.46-1.926c-.375-.105-.69-.19-.946-.254C47.064.72 38.918.946 27.564 2.634z"/>
                    <path fill="url(#c)" d="M0 1.634l.009 39.95c11.104-2.186 19.256-2.515 24.455-.987a1.856 1.856 0 0 0 2.38-1.78V3.134a2 2 0 0 0-1.46-1.926c-.375-.105-.69-.19-.946-.254C19.5-.28 11.354-.054 0 1.634z" transform="matrix(-1 0 0 1 27.564 1)"/>
                </g>
            </g>
        </g>
        <path fill="#9A9DA2" d="M51.618 23.053l.009 38.47c10.17-2.07 17.796-2.37 22.881-.898a1.82 1.82 0 0 0 2.327-1.749V24.614a2 2 0 0 0-1.468-1.928c-.349-.097-.644-.174-.885-.234-4.83-1.19-12.45-.989-22.864.601z"/>
        <path fill="#EBECEF" d="M51.738 22.822l.009 38.26c9.974-2.058 17.454-2.356 22.441-.892a1.78 1.78 0 0 0 2.283-1.71V24.378a2 2 0 0 0-1.462-1.927 32.54 32.54 0 0 0-.846-.226c-4.737-1.183-12.212-.984-22.425.598z"/>
        <path fill="#7CA7E7" fill-rule="nonzero" d="M56.084 30.112l-.597.083a.653.653 0 0 1-.742-.647.92.92 0 0 1 .734-.901l.163-.034c2.077-.428 4.682-.64 7.822-.64 2.227 0 4.272.118 6.09.315.64.07 1.206.144 1.694.219.297.045.506.082.62.104l.16.03a.911.911 0 0 1 .74.896.66.66 0 0 1-.746.653l-.57-.075a20.977 20.977 0 0 0-.536-.09c-.458-.07-.993-.14-1.6-.206a54.564 54.564 0 0 0-5.852-.302c-3.002 0-5.464.2-7.38.595zM56.084 35.923l-.597.083a.653.653 0 0 1-.742-.647.92.92 0 0 1 .734-.901l.163-.034c2.077-.428 4.682-.64 7.822-.64 2.227 0 4.272.118 6.09.315.64.07 1.206.144 1.694.219.297.045.506.081.62.103l.16.032a.911.911 0 0 1 .74.894.66.66 0 0 1-.746.654l-.57-.075a20.977 20.977 0 0 0-.536-.09c-.458-.07-.993-.14-1.6-.206a54.564 54.564 0 0 0-5.852-.302c-3.002 0-5.464.2-7.38.595zM56.084 41.734l-.597.082a.653.653 0 0 1-.742-.647.92.92 0 0 1 .734-.9l.163-.034c2.077-.429 4.682-.64 7.822-.64 2.227 0 4.272.118 6.09.315.64.07 1.206.144 1.694.218.297.046.506.082.62.104l.16.031a.911.911 0 0 1 .74.895.66.66 0 0 1-.746.654l-.57-.075a20.977 20.977 0 0 0-.536-.09c-.458-.07-.993-.14-1.6-.206a54.564 54.564 0 0 0-5.852-.302c-3.002 0-5.464.2-7.38.595zM56.084 47.545l-.597.082a.653.653 0 0 1-.742-.647.92.92 0 0 1 .734-.9l.163-.034c2.077-.429 4.682-.64 7.822-.64 2.227 0 4.272.118 6.09.315.64.069 1.206.144 1.694.218.297.046.506.082.62.104l.16.031a.911.911 0 0 1 .74.895.66.66 0 0 1-.746.654l-.57-.076a20.977 20.977 0 0 0-.536-.09c-.458-.069-.993-.14-1.6-.205a54.564 54.564 0 0 0-5.852-.303c-3.002 0-5.464.2-7.38.596zM56.084 53.356l-.597.082a.653.653 0 0 1-.742-.647.92.92 0 0 1 .734-.901l.163-.034c2.077-.428 4.682-.64 7.822-.64 2.227 0 4.272.118 6.09.316.64.069 1.206.143 1.694.218.297.046.506.082.62.104l.16.031a.911.911 0 0 1 .74.895.66.66 0 0 1-.746.654l-.57-.076a20.977 20.977 0 0 0-.536-.09c-.458-.07-.993-.14-1.6-.205a54.564 54.564 0 0 0-5.852-.303c-3.002 0-5.464.2-7.38.596z" opacity=".6"/>
        <g>
            <path fill="#9A9DA2" d="M51.602 23.053l-.01 38.47c-10.169-2.07-17.796-2.37-22.88-.898a1.82 1.82 0 0 1-2.328-1.749V24.614a2 2 0 0 1 1.468-1.928c.35-.097.645-.174.886-.234 4.829-1.19 12.45-.989 22.864.601z"/>
            <path fill="#EBECEF" d="M51.482 22.822l-.009 38.26c-9.974-2.058-17.454-2.356-22.442-.892a1.78 1.78 0 0 1-2.282-1.71V24.378a2 2 0 0 1 1.462-1.927c.333-.093.615-.168.846-.226 4.737-1.183 12.212-.984 22.425.598z"/>
            <path fill="#7CA7E7" fill-rule="nonzero" d="M47.135 30.112l.598.083a.653.653 0 0 0 .742-.647.92.92 0 0 0-.734-.901l-.163-.034c-2.077-.428-4.682-.64-7.822-.64a56.76 56.76 0 0 0-6.09.315c-.64.07-1.206.144-1.694.219a17.74 17.74 0 0 0-.62.104l-.161.03a.911.911 0 0 0-.739.896.66.66 0 0 0 .746.653l.57-.075.128-.023a36.898 36.898 0 0 1 2.008-.273 54.564 54.564 0 0 1 5.852-.302c3.002 0 5.464.2 7.38.595zM47.135 35.923l.598.083a.653.653 0 0 0 .742-.647.92.92 0 0 0-.734-.901l-.163-.034c-2.077-.428-4.682-.64-7.822-.64a56.76 56.76 0 0 0-6.09.315c-.64.07-1.206.144-1.694.219a17.74 17.74 0 0 0-.62.103l-.161.032a.911.911 0 0 0-.739.894.66.66 0 0 0 .746.654l.57-.075.128-.023c.114-.02.251-.042.41-.067.456-.07.99-.14 1.597-.206a54.564 54.564 0 0 1 5.853-.302c3.002 0 5.464.2 7.38.595zM47.135 41.734l.598.082a.653.653 0 0 0 .742-.647.92.92 0 0 0-.734-.9l-.163-.034c-2.077-.429-4.682-.64-7.822-.64a56.76 56.76 0 0 0-6.09.315c-.64.07-1.206.144-1.694.218-.298.046-.506.082-.62.104l-.161.031a.911.911 0 0 0-.739.895.66.66 0 0 0 .746.654l.57-.075.128-.023c.114-.02.251-.043.41-.067.456-.07.99-.14 1.597-.206a54.564 54.564 0 0 1 5.853-.302c3.002 0 5.464.2 7.38.595zM47.135 47.545l.598.082a.653.653 0 0 0 .742-.647.92.92 0 0 0-.734-.9l-.163-.034c-2.077-.429-4.682-.64-7.822-.64a56.76 56.76 0 0 0-6.09.315c-.64.069-1.206.144-1.694.218a17.74 17.74 0 0 0-.62.104l-.161.031a.911.911 0 0 0-.739.895.66.66 0 0 0 .746.654l.57-.076.128-.022c.114-.02.251-.043.41-.067.456-.07.99-.14 1.597-.206a54.564 54.564 0 0 1 5.853-.303c3.002 0 5.464.2 7.38.596zM47.135 53.356l.598.082a.653.653 0 0 0 .742-.647.92.92 0 0 0-.734-.901l-.163-.034c-2.077-.428-4.682-.64-7.822-.64a56.76 56.76 0 0 0-6.09.316c-.64.069-1.206.143-1.694.218a17.74 17.74 0 0 0-.62.104l-.161.031a.911.911 0 0 0-.739.895.66.66 0 0 0 .746.654l.57-.076.128-.023a36.898 36.898 0 0 1 2.008-.273 54.564 54.564 0 0 1 5.852-.302c3.002 0 5.464.2 7.38.596z" opacity=".6"/>
        </g>
        <path fill="#1D74F5" d="M50.534 22.67c.41.022.778.074 1.104.154a8.55 8.55 0 0 1 .92-.155l.042 45-.982-1.651-1.018 1.651-.066-45z"/>
    </g>
</svg>
