<svg height="84" viewBox="0 0 84 84" width="84" xmlns="http://www.w3.org/2000/svg" xmlns:xlink="http://www.w3.org/1999/xlink"><defs><circle id="a" cx="42" cy="42" r="32"/><linearGradient id="b" x1="100%" x2="0%" y1="50%" y2="50%"><stop offset="0" stop-color="#c2cddd"/><stop offset="1" stop-color="#e0e7ef"/></linearGradient><mask id="c" fill="#fff"><use fill="#fff" fill-rule="evenodd" xlink:href="#a"/></mask></defs><g fill="none" fill-rule="evenodd"><use fill="#a3b4cc" xlink:href="#a"/><g mask="url(#c)"><path d="m33.75 9.205h-31.5c-1.243 0-2.25-1.03-2.25-2.302v-4.602c0-1.27 1.007-2.301 2.25-2.301h31.5c1.243 0 2.25 1.03 2.25 2.301v4.602c0 1.271-1.007 2.302-2.25 2.302z" fill="url(#b)" transform="translate(22 23)"/><path d="m53.065 25.876a1.726 1.726 0 1 0 0 3.452 1.726 1.726 0 0 0 0-3.452zm-4.602 0a1.726 1.726 0 1 0 0 3.452 1.726 1.726 0 0 0 0-3.452z" fill="#1d74f5"/><path d="m55.75 41.205h-31.5c-1.243 0-2.25-1.03-2.25-2.302v-4.602c0-1.27 1.007-2.301 2.25-2.301h31.5c1.243 0 2.25 1.03 2.25 2.301v4.602c0 1.271-1.007 2.302-2.25 2.302zm0 18.409h-31.5c-1.243 0-2.25-1.03-2.25-2.301v-4.603c0-1.27 1.007-2.3 2.25-2.3h31.5c1.243 0 2.25 1.03 2.25 2.3v4.602c0 1.271-1.007 2.302-2.25 2.302z" fill="#f2f7fb" fill-rule="nonzero"/><path d="m33.75 18.41h-31.5c-1.243 0-2.25-1.032-2.25-2.303v-4.602c0-1.271 1.007-2.301 2.25-2.301h31.5c1.243 0 2.25 1.03 2.25 2.3v4.603c0 1.27-1.007 2.301-2.25 2.301z" fill="url(#b)" transform="translate(22 32)"/><path d="m53.065 34.876a1.726 1.726 0 1 0 0 3.452 1.726 1.726 0 0 0 0-3.452zm-4.602 0a1.726 1.726 0 1 0 0 3.452 1.726 1.726 0 0 0 0-3.452zm4.602 9.205a1.726 1.726 0 1 0 0 3.452 1.726 1.726 0 0 0 0-3.452zm-4.602 0a1.726 1.726 0 1 0 0 3.452 1.726 1.726 0 0 0 0-3.452zm4.602 9.205a1.726 1.726 0 1 0 0 3.451 1.726 1.726 0 0 0 0-3.451zm-4.602 0a1.726 1.726 0 1 0 0 3.451 1.726 1.726 0 0 0 0-3.451z" fill="#1d74f5"/></g><g fill="#1867de" mask="url(#c)"><path d="m54.737 65s10.737-3.63 10.737-14.22v-8.169a36.582 36.582 0 0 0 -21.474 0v8.169c0 10.59 10.737 14.22 10.737 14.22z"/></g><path d="m59.839 49.338a.94.94 0 0 1 -.157 1.239l-5.967 5.213a1 1 0 0 1 -1.488-.195l-2.084-3.095a.91.91 0 0 1 .161-1.198.72.72 0 0 1 1.066.143l1.777 2.64 5.591-4.885a.742.742 0 0 1 1.1.14z" fill="#e7ebf2" fill-rule="nonzero" mask="url(#c)"/></g></svg>