<svg height="84" viewBox="0 0 84 84" width="84" xmlns="http://www.w3.org/2000/svg"><g fill="none" fill-rule="evenodd"><circle cx="42" cy="42" fill="#a3b4cc" r="32"/><g transform="translate(30 22)"><path d="m5.714 2.857h39.048v28.571h-39.048z" fill="#ecf0f4"/><g fill="#1d74f5" fill-rule="nonzero"><path d="m25.714 24.762a7.62 7.62 0 1 1 .001-15.24 7.62 7.62 0 0 1 0 15.24zm-1.511-5.852-1.709-1.718a.71.71 0 0 0 -1.007 0 .716.716 0 0 0 0 1.01l2.132 2.144a.828.828 0 0 0 1.167.007l5.037-4.943a.71.71 0 0 0 .006-1.007.717.717 0 0 0 -1.01-.007z"/><path d="m7.43 0c-2.269 0-4.106 1.877-4.106 4.192v29.07h-3.324v1.115c0 3.105 2.464 5.623 5.504 5.623h39.898a5.492 5.492 0 0 0 1.637-.253c.171-.056.34-.12.505-.189a5.437 5.437 0 0 0 .935-.518 5.552 5.552 0 0 0 1.63-1.747h.001a5.707 5.707 0 0 0 .686-1.78 5.65 5.65 0 0 0 .113-1.133v-1.114h-3.326v-29.071c0-2.315-1.838-4.192-4.105-4.192h-34.696l-1.353-.003zm0 3.184h36.048a1 1 0 0 1 .988 1.008v25.888h-38.023v-25.888a.998.998 0 0 1 .986-1.008z"/></g></g></g></svg>