<svg height="84" viewBox="0 0 84 84" width="84" xmlns="http://www.w3.org/2000/svg"><g fill="none" fill-rule="evenodd" transform="translate(10 10)"><circle cx="32" cy="32" fill="#a3b4cc" r="32"/><path d="m39.703 19.432v8.973c0 .633.37 1.209.946 1.473a1.628 1.628 0 0 0 1.736-.243 3.446 3.446 0 0 1 5.686 2.608 3.446 3.446 0 0 1 -5.687 2.608 1.627 1.627 0 0 0 -2.681 1.231v8.975h9.007a1.62 1.62 0 1 1 1.21 2.704 3.42 3.42 0 0 0 -.883 2.289 3.445 3.445 0 0 0 6.89 0c0-.844-.313-1.657-.883-2.29a1.618 1.618 0 0 1 -.275-1.743c.262-.584.843-.96 1.485-.96h9.07v-8.975a1.627 1.627 0 0 1 2.682-1.231 3.446 3.446 0 0 0 5.687-2.608 3.446 3.446 0 0 0 -5.686-2.608c-.481.411-1.16.508-1.736.243a1.62 1.62 0 0 1 -.947-1.473v-8.973z" fill="#1867de"/><path d="m39.686 44.565h-9.07a1.625 1.625 0 0 1 -1.485-.96 1.618 1.618 0 0 1 .275-1.744c.57-.632.883-1.445.883-2.289a3.446 3.446 0 0 0 -6.89 0c0 .844.313 1.657.882 2.29a1.62 1.62 0 0 1 -1.21 2.703h-9.071v-25.135h9.072a1.62 1.62 0 1 0 1.21-2.704 3.42 3.42 0 0 1 -.884-2.29 3.445 3.445 0 0 1 6.891 0c0 .845-.313 1.657-.883 2.29a1.618 1.618 0 0 0 -.275 1.744c.262.584.842.96 1.484.96h9.071v8.974a1.627 1.627 0 0 0 2.682 1.231 3.446 3.446 0 0 1 5.687 2.608 3.446 3.446 0 0 1 -5.687 2.608 1.628 1.628 0 0 0 -1.736-.242 1.62 1.62 0 0 0 -.946 1.472z" fill="#ecf0f4"/></g></svg>