<svg xmlns="http://www.w3.org/2000/svg" xmlns:xlink="http://www.w3.org/1999/xlink" width="431" height="367" viewBox="0 0 431 367">
    <defs>
        <linearGradient id="a" x1="50%" x2="50%" y1="0%" y2="100.001%">
            <stop offset="0%" stop-color="#00B2FF"/>
            <stop offset="100%" stop-color="#006AFF"/>
        </linearGradient>
        <path id="b" d="M33.636 5.365v42.27c0 2.962-2.413 5.365-5.388 5.365H5.388C2.413 53 0 50.597 0 47.635V5.365C0 2.403 2.413 0 5.388 0h22.86c2.975 0 5.388 2.403 5.388 5.365z"/>
        <path id="c" d="M0 .025h39.568V29.7H0z"/>
        <path id="e" d="M20.99.019C9.399.019 0 9.399 0 20.97s9.398 20.951 20.99 20.951c11.594 0 20.991-9.38 20.991-20.951S32.584.019 20.991.019z"/>
    </defs>
    <g fill="none" fill-rule="evenodd">
        <path stroke="#35363E" stroke-dasharray="4" stroke-linecap="round" stroke-linejoin="round" stroke-width="2" d="M171 49h175c16.569 0 30 14.55 30 32.5S362.569 114 346 114H101"/>
        <ellipse cx="163" cy="49.005" stroke="#35363E" stroke-width="2" rx="4" ry="3.905"/>
        <g transform="rotate(15 -32.522 1403.037)">
            <path fill="#1D74F5" d="M34.358 25.063c-1.948-.975-1.854-1.17-1.545-1.805.176-.398.374-.802.574-1.21.719-1.454 1.53-3.104 1.53-4.985 0-9.1-7.828-16.5-17.448-16.5-9.62 0-17.446 7.4-17.446 16.5 0 9.56 8.172 16.498 19.429 16.498l.383.002h.448c6.218 0 14.434-.528 16.465-4.614 1.073-2.158-1.265-3.325-2.39-3.886"/>
            <rect width="13" height="5" x="7.711" y="17.789" fill="#FFF" rx="2.5"/>
            <rect width="19" height="5" x="7.987" y="10.699" fill="#FFF" rx="2.5"/>
        </g>
        <g transform="translate(215 29)">
            <circle cx="20" cy="20" r="20" fill="#1DA1F3"/>
            <path fill="#FFF" fill-rule="nonzero" d="M28.739 17.237c.014.186.014.372.014.558 0 5.67-4.537 12.205-12.83 12.205-2.554 0-4.927-.704-6.923-1.926a9.8 9.8 0 0 0 1.089.053 9.327 9.327 0 0 0 5.598-1.832c-1.983-.04-3.644-1.275-4.216-2.975.279.04.558.066.851.066.405 0 .81-.053 1.187-.146-2.066-.399-3.616-2.125-3.616-4.21v-.053c.6.318 1.299.518 2.038.544-1.214-.77-2.01-2.085-2.01-3.573 0-.796.224-1.527.614-2.164 2.22 2.603 5.556 4.303 9.297 4.489a4.617 4.617 0 0 1-.111-.983c0-2.364 2.01-4.29 4.509-4.29 1.298 0 2.47.518 3.294 1.355a9.158 9.158 0 0 0 2.862-1.036c-.335.996-1.047 1.833-1.982 2.364A9.405 9.405 0 0 0 31 15.019a9.45 9.45 0 0 1-2.261 2.218z"/>
        </g>
        <path stroke="#35363E" stroke-dasharray="4" stroke-linecap="round" stroke-linejoin="round" stroke-width="2" d="M305 185H60c-16.569 0-30-13.431-30-30 0-16.569 13.431-30 30-30h245v60zM316.195 318H69.5C49.894 318 34 302.106 34 282.5S49.894 247 69.5 247h230"/>
        <ellipse cx="324" cy="317.905" stroke="#35363E" stroke-width="2" rx="4" ry="3.905"/>
        <path stroke="#35363E" stroke-dasharray="4" stroke-linecap="round" stroke-linejoin="round" stroke-width="2" d="M121 164h245c16.569 0 30 13.431 30 30 0 16.569-13.431 30-30 30H121v-60z"/>
        <g transform="translate(87 97)">
            <path fill="#FFF" d="M7.294 0h250.412C261.735 0 265 3.25 265 7.259V165.74c0 4.01-3.265 7.259-7.294 7.259H7.294C3.265 173 0 169.75 0 165.741V7.26C0 3.249 3.265 0 7.294 0z"/>
            <path fill="#1D74F5" d="M7.1 0H71v173H7.1c-3.921 0-7.1-3.25-7.1-7.259V7.26C0 3.249 3.179 0 7.1 0z"/>
            <path fill="#C6C7CA" d="M71 22h194v1H71z" opacity=".23"/>
            <rect width="8" height="8" x="8" y="8" fill="#FFF" rx="1"/>
            <rect width="12" height="12" x="76" y="6" fill="#D8D8D8" opacity=".48" rx="1"/>
            <rect width="30" height="4" x="91" y="8" fill="#D8D8D8" opacity=".48" rx="1"/>
            <rect width="20" height="2" x="91" y="14" fill="#D8D8D8" opacity=".48" rx="1"/>
            <rect width="8" height="8" x="8" y="34" fill="#FFF" rx="1"/>
            <g fill="#D8D8D8" opacity=".48" transform="translate(77 29)">
                <rect width="8" height="8" rx="1"/>
                <rect width="15" height="3" x="11" rx="1"/>
                <rect width="160" height="3" x="11" y="6" rx="1"/>
                <rect width="160" height="3" x="11" y="12" rx="1"/>
                <rect width="80" height="3" x="11" y="18" rx="1"/>
            </g>
            <g fill="#D8D8D8" opacity=".48" transform="translate(77 116)">
                <rect width="8" height="8" rx="1"/>
                <rect width="15" height="3" x="11" rx="1"/>
                <rect width="160" height="3" x="11" y="6" rx="1"/>
                <rect width="160" height="3" x="11" y="12" rx="1"/>
                <rect width="78" height="3" x="11" y="18" rx="1"/>
            </g>
            <g fill="#D8D8D8" opacity=".48" transform="translate(77 58)">
                <rect width="8" height="8" rx="1"/>
                <rect width="15" height="3" x="11" rx="1"/>
                <rect width="160" height="3" x="11" y="6" rx="1"/>
                <rect width="78.396" height="3" x="11" y="12" rx="1"/>
            </g>
            <g fill="#D8D8D8" opacity=".48" transform="translate(77 145)">
                <rect width="8" height="8" rx="1"/>
                <rect width="15" height="3" x="11" rx="1"/>
                <rect width="160" height="3" x="11" y="6" rx="1"/>
                <rect width="78.396" height="3" x="11" y="12" rx="1"/>
            </g>
            <g fill="#D8D8D8" opacity=".48" transform="translate(77 81)">
                <rect width="8" height="8" rx="1"/>
                <rect width="15" height="3" x="11" rx="1"/>
                <rect width="160" height="3" x="11" y="6" rx="1"/>
                <rect width="160" height="3" x="11" y="12" rx="1"/>
                <rect width="160" height="3" x="11" y="18" rx="1"/>
                <rect width="130" height="3" x="11" y="24" rx="1"/>
            </g>
            <g transform="translate(8 88)">
                <rect width="8" height="8" y="6" fill="#FFF" rx="1"/>
                <rect width="8" height="8" y="18" fill="#FFF" rx="1"/>
                <rect width="8" height="8" y="30" fill="#FFF" rx="1"/>
                <rect width="8" height="8" y="42" fill="#FFF" rx="1"/>
                <rect width="8" height="8" y="54" fill="#FFF" rx="1"/>
                <rect width="17" height="2" fill="#D8D8D8" opacity=".564" rx="1"/>
                <rect width="43" height="4" x="12" y="8" fill="#FFF" opacity=".564" rx="1"/>
                <rect width="43" height="4" x="12" y="20" fill="#FFF" opacity=".564" rx="1"/>
                <rect width="43" height="4" x="12" y="32" fill="#FFF" opacity=".564" rx="1"/>
                <rect width="43" height="4" x="12" y="44" fill="#FFF" opacity=".564" rx="1"/>
                <rect width="43" height="4" x="12" y="56" fill="#FFF" opacity=".564" rx="1"/>
                <rect width="8" height="8" y="66" fill="#FFF" rx="1"/>
                <rect width="43" height="4" x="12" y="68" fill="#FFF" opacity=".564" rx="1"/>
            </g>
            <rect width="8" height="8" x="8" y="46" fill="#FFF" rx="1"/>
            <rect width="8" height="8" x="8" y="58" fill="#FFF" rx="1"/>
            <rect width="8" height="8" x="8" y="70" fill="#FFF" rx="1"/>
            <rect width="17" height="2" x="8" y="28" fill="#FFF" opacity=".564" rx="1"/>
            <rect width="43" height="4" x="20" y="36" fill="#FFF" opacity=".564" rx="1"/>
            <rect width="43" height="4" x="20" y="48" fill="#FFF" opacity=".564" rx="1"/>
            <rect width="43" height="4" x="20" y="60" fill="#FFF" opacity=".564" rx="1"/>
            <rect width="43" height="4" x="20" y="72" fill="#FFF" opacity=".564" rx="1"/>
            <rect width="6" height="6" x="28" y="9" fill="#FFF" opacity=".564" rx="1"/>
            <rect width="6" height="6" x="38" y="9" fill="#FFF" opacity=".564" rx="1"/>
            <rect width="6" height="6" x="47" y="9" fill="#FFF" opacity=".564" rx="1"/>
            <rect width="6" height="6" x="57" y="9" fill="#FFF" opacity=".564" rx="1"/>
        </g>
        <g fill-rule="nonzero">
            <path fill="#FFF" d="M209.009 303.813A19.672 19.672 0 0 0 194.99 298c-10.929 0-19.821 8.893-19.821 19.821 0 3.491.91 6.902 2.642 9.911L175 338l10.509-2.759a19.761 19.761 0 0 0 9.473 2.41h.01c10.919 0 20.008-8.892 20.008-19.82 0-5.295-2.25-10.269-5.991-14.019z"/>
            <path fill="#24D366" d="M195.407 334c-2.953 0-5.843-.796-8.36-2.297l-.595-.358-6.207 1.636 1.654-6.087-.391-.626a16.5 16.5 0 0 1-2.508-8.777c0-9.09 7.363-16.491 16.416-16.491a16.22 16.22 0 0 1 11.595 4.836c3.095 3.119 4.998 7.257 4.989 11.664 0 9.1-7.55 16.5-16.593 16.5z"/>
            <path fill="#FFF" d="M203.996 322.513c-.488-.254-2.91-1.47-3.363-1.634-.452-.172-.78-.254-1.109.254-.328.509-1.269 1.634-1.561 1.979-.284.336-.577.381-1.065.127-2.893-1.48-4.791-2.64-6.699-5.99-.506-.889.506-.826 1.446-2.75.16-.335.08-.626-.044-.88s-1.109-2.731-1.517-3.739c-.4-.98-.808-.844-1.11-.862-.283-.018-.611-.018-.94-.018-.328 0-.86.127-1.313.626-.452.508-1.721 1.724-1.721 4.202 0 2.478 1.766 4.873 2.005 5.21.249.335 3.47 5.417 8.411 7.604 3.123 1.38 4.348 1.498 5.91 1.262.949-.146 2.91-1.217 3.317-2.396.409-1.18.409-2.187.284-2.396-.115-.227-.443-.354-.931-.6z"/>
        </g>
        <path fill="url(#a)" d="M22 .982C9.606.982 0 10.06 0 22.322c0 6.415 2.63 11.957 6.91 15.786.358.323.575.77.593 1.253l.12 3.913a1.763 1.763 0 0 0 2.47 1.558l4.364-1.926a1.755 1.755 0 0 1 1.173-.088c2.005.553 4.143.845 6.37.845 12.394 0 22-9.079 22-21.34C44 10.06 34.394.982 22 .982z" transform="translate(70 293)"/>
        <path fill="#FFF" d="M79.173 321.413l6.52-9.979c1.037-1.586 3.26-1.982 4.815-.857l5.185 3.752c.478.345 1.13.34 1.604-.004l7.003-5.127c.933-.685 2.157.396 1.527 1.353l-6.516 9.975c-1.036 1.585-3.26 1.982-4.815.857l-5.185-3.753a1.372 1.372 0 0 0-1.603.004l-7.008 5.132c-.933.685-2.157-.396-1.527-1.353z"/>
        <g transform="rotate(20 -269.388 1179.537)">
            <use fill="#B0B8BE" fill-rule="nonzero" xlink:href="#b"/>
            <path fill="#FFF" fill-rule="nonzero" d="M29.391 5.365c0-.625-.515-1.138-1.143-1.138H5.388c-.627 0-1.143.513-1.143 1.138v42.27c0 .625.516 1.138 1.143 1.138h22.86c.628 0 1.143-.513 1.143-1.138V5.365z"/>
            <g transform="translate(13.455 13.25)">
                <path fill="#1D74F5" d="M21.85 15.986c-1.24-.637-1.18-.763-.984-1.178.113-.26.239-.523.366-.79.457-.949.974-2.025.974-3.252C22.206 4.828 17.224 0 11.102 0 4.98 0 0 4.828 0 10.766 0 17.003 5.2 21.53 12.364 21.53l.244.001h.285c3.957 0 9.185-.344 10.478-3.01.682-1.408-.805-2.17-1.521-2.535"/>
                <rect width="8.409" height="3.313" x="5.045" y="11.594" fill="#FFF" rx="1.656"/>
                <rect width="11.773" height="3.313" x="5.045" y="6.625" fill="#FFF" rx="1.656"/>
            </g>
            <path fill="#B0B8BE" fill-rule="nonzero" d="M20.574 42.758a3.744 3.744 0 0 1-3.756 3.739 3.744 3.744 0 0 1-3.755-3.74 3.744 3.744 0 0 1 3.755-3.739 3.744 3.744 0 0 1 3.756 3.74z"/>
        </g>
        <g fill-rule="nonzero">
            <path fill="#0543A0" d="M11.472 155.4l16.663-16.136 22.287 6.425 4.145 16.624-38.95 9.711z"/>
            <path fill="#EFEFEF" d="M12.536 140.396l30.563-7.62c.673-.168 1.357.234 1.521.893l5.228 20.966c.164.659-.252 1.335-.924 1.503l-30.563 7.62c-.673.168-1.357-.234-1.522-.893l-5.227-20.966c-.164-.659.251-1.335.924-1.503z"/>
            <path fill="#3888FF" d="M55.577 166.364c.245.984-.375 1.994-1.38 2.245l-35.298 8.8c-1.004.251-2.026-.35-2.272-1.333L11.572 155.8l21.557 3.493 17.393-13.205 5.055 20.275z"/>
            <path fill="#1D74F5" d="M55.577 166.364c.245.984-.375 1.994-1.38 2.245l-35.298 8.8c-1.004.251-2.026-.35-2.272-1.333l-.892-3.578 34.787-26.409 5.055 20.275z"/>
            <path fill="#B0B8BE" d="M21.979 147.17l.567 1.236-2.723-2.603-1.667 5.01c.07.41 1.916.278 4.113-.27 2.197-.547 3.889-1.297 3.789-1.7l-3.312-3.014-.767 1.34zm-.18-1.761a.783.783 0 0 0 .57-.963.783.783 0 0 0-.955-.582.783.783 0 0 0-.57.962.783.783 0 0 0 .955.583zm6.177-1.868l12.203-3.043a.635.635 0 0 0 .456-.77.635.635 0 0 0-.764-.466l-12.203 3.042a.635.635 0 0 0-.456.77c.085.34.428.55.764.467zm12.511-1.807l-12.203 3.043a.635.635 0 0 0-.456.77c.085.34.429.55.764.466l12.204-3.043a.635.635 0 0 0 .456-.77.635.635 0 0 0-.765-.466zm-2.434 3.233l-9.152 2.282a.635.635 0 0 0-.456.77c.084.34.428.55.764.466l9.152-2.282a.635.635 0 0 0 .456-.77.635.635 0 0 0-.764-.466z"/>
        </g>
        <g transform="rotate(-22 699.999 102.745)">
            <mask id="d" fill="#fff">
                <use xlink:href="#c"/>
            </mask>
            <path fill="#C1272D" d="M39.568 1.35s-5.307-3.029-11.707.073a15.888 15.888 0 0 0-3.292 2.359c-2.371-.497-7.553-.42-9.57 0a15.892 15.892 0 0 0-3.292-2.36C5.307-1.677 0 1.35 0 1.35s4.895 4.022 4.14 7.565C1.904 11.113.484 14.086.723 17.265c.23 3.03 1.946 5.702 4.227 7.63 4.598 3.888 11.103 5.162 16.979 4.722 5.148-.385 10.692-2.202 14.188-6.187 1.762-2.008 2.85-4.562 2.748-7.259-.105-2.786-1.474-5.327-3.437-7.256-.756-3.543 4.14-7.565 4.14-7.565" mask="url(#d)"/>
        </g>
        <path fill="#FFF" d="M40.921 287.325c-8.38 3.385-16.926 1.79-19.089-3.562-2.163-5.353 2.878-12.437 11.257-15.823a24.734 24.734 0 0 1 5.55-1.533c.862-2.697 3.42-6.995 7.372-7.536-.66 1.724-1.533 4.54.246 7.876 2.824.804 4.98 2.423 5.921 4.755 2.163 5.353-2.877 12.437-11.257 15.823"/>
        <path fill="#C1272D" d="M36.023 281.003a2.174 2.174 0 1 1 4.03-1.628 2.174 2.174 0 0 1-4.03 1.628M27.566 280.25a2.174 2.174 0 1 1 4.03-1.63 2.174 2.174 0 0 1-4.03 1.63M41.582 274.586a2.174 2.174 0 1 1 4.031-1.629 2.174 2.174 0 0 1-4.03 1.63"/>
        <g>
            <g transform="translate(266 296.06)">
                <mask id="f" fill="#fff">
                    <use xlink:href="#e"/>
                </mask>
                <path fill="#2399D6" d="M20.99.019C9.399.019 0 9.399 0 20.97s9.398 20.951 20.99 20.951c11.594 0 20.991-9.38 20.991-20.951S32.584.019 20.991.019z" mask="url(#f)"/>
            </g>
            <path fill="#FEFEFE" d="M297.204 308.13l-3.749 18.868s-.524 1.308-1.966.68l-8.652-6.62-3.146-1.518-5.296-1.78s-.812-.287-.891-.915c-.079-.628.918-.969.918-.969l21.052-8.243s1.73-.758 1.73.498"/>
            <path fill="#D2E5F1" d="M282.172 326.786s-.252-.024-.567-1.018c-.314-.994-1.914-6.228-1.914-6.228l12.716-8.06s.734-.445.707 0c0 0 .132.079-.262.445-.393.366-9.988 8.976-9.988 8.976"/>
            <path fill="#B5D0E4" d="M286.155 323.596l-3.423 3.114s-.267.203-.56.076l.656-5.785"/>
        </g>
    </g>
</svg>
