<svg height="36" viewBox="0 0 36 36" width="36" xmlns="http://www.w3.org/2000/svg" xmlns:xlink="http://www.w3.org/1999/xlink"><mask id="a" fill="#fff"><path d="m0 .007h30.108v31.955h-30.108z" fill="#fff" fill-rule="evenodd"/></mask><g fill="#1a1919" fill-rule="evenodd"><path d="m25.648 17.107c.233-.028.456-.029.662 0 .118-.272.139-.742.032-1.254-.159-.76-.374-1.22-.818-1.149-.445.072-.461.623-.302 1.383.09.428.248.794.426 1.02m-3.815.603c.318.139.513.231.59.15.049-.05.034-.146-.042-.27-.157-.257-.48-.516-.822-.662-.7-.302-1.536-.201-2.18.262-.213.155-.414.371-.386.502.01.043.042.075.116.085.176.02.789-.29 1.494-.333.499-.03.912.126 1.23.265m-.64.365c-.414.065-.642.202-.789.329-.125.11-.203.23-.202.315a.1.1 0 0 0 .1.101c.093 0 .303-.084.303-.084.576-.206.956-.18 1.333-.138.208.023.307.036.352-.035.014-.02.03-.065-.011-.132-.098-.158-.516-.424-1.086-.356m3.167 1.34c.28.138.59.084.691-.121.1-.206-.046-.484-.327-.622s-.59-.084-.691.121.045.483.326.622m1.808-1.58c-.228-.004-.418.247-.423.56s.175.57.404.574c.228.004.418-.247.423-.56s-.175-.57-.404-.574"/><g transform="translate(3 2)"><path d="m7.824 21.482c-.057-.07-.15-.05-.24-.028a.849.849 0 0 1 -.213.03.462.462 0 0 1 -.39-.198c-.105-.16-.099-.398.016-.67l.054-.123c.183-.41.49-1.099.145-1.754-.259-.494-.681-.801-1.19-.866a1.53 1.53 0 0 0 -1.31.473c-.505.557-.584 1.316-.486 1.584.036.098.092.125.132.13.086.012.214-.05.293-.264l.023-.07c.035-.113.102-.324.21-.493a.917.917 0 0 1 1.272-.265c.354.232.49.665.339 1.08-.078.213-.205.622-.177.959.056.68.475.954.851.983.366.014.621-.192.686-.342.038-.089.006-.143-.015-.166" mask="url(#a)"/><path d="m11.301 8.981c1.193-1.378 2.661-2.577 3.976-3.25.046-.023.094.027.07.071-.105.19-.306.594-.37.902-.01.048.042.084.083.056.818-.558 2.242-1.155 3.49-1.232.054-.004.08.065.037.098-.19.146-.397.347-.55.551a.053.053 0 0 0 .043.085c.876.006 2.112.313 2.918.765.055.03.016.136-.045.122-1.22-.28-3.214-.491-5.287.014-1.85.452-3.262 1.148-4.293 1.898-.052.038-.114-.031-.072-.08zm10.86 13.935a.096.096 0 0 0 .055-.095.09.09 0 0 0 -.098-.08s-2.546.376-4.95-.504c.261-.851.958-.544 2.01-.459a14.706 14.706 0 0 0 4.855-.525c1.09-.312 2.52-.928 3.63-1.805.376.823.508 1.729.508 1.729s.29-.052.532.097c.23.14.397.434.283 1.192-.234 1.415-.836 2.564-1.847 3.62a7.609 7.609 0 0 1 -2.217 1.658 9.368 9.368 0 0 1 -1.449.612c-3.811 1.245-7.713-.124-8.97-3.063-.101-.221-.186-.453-.253-.695-.536-1.936-.081-4.26 1.341-5.723.088-.094.177-.203.177-.342 0-.115-.073-.237-.137-.323-.497-.722-2.22-1.952-1.875-4.332.249-1.71 1.744-2.914 3.138-2.843l.354.02c.604.036 1.131.114 1.628.134.833.036 1.582-.085 2.468-.823.3-.25.54-.466.945-.535.042-.007.149-.045.36-.035.217.012.423.071.608.194.711.473.812 1.619.849 2.457.02.478.079 1.636.098 1.968.046.76.245.867.65 1 .227.075.438.13.748.218.941.264 1.5.532 1.85.876.21.215.308.444.338.662.111.81-.628 1.81-2.585 2.718-2.14.993-4.736 1.244-6.529 1.045l-.628-.071c-1.435-.194-2.253 1.66-1.392 2.93.555.819 2.066 1.352 3.578 1.352 3.467 0 6.132-1.48 7.123-2.759.03-.038.033-.042.08-.113.049-.073.008-.114-.052-.072-.81.554-4.408 2.754-8.255 2.092 0 0-.468-.077-.895-.243-.34-.132-1.049-.458-1.135-1.187 3.105.96 5.06.053 5.06.053zm-17.057-7.38c-1.08.21-2.031.822-2.614 1.668-.347-.29-.996-.852-1.11-1.071-.93-1.765 1.014-5.195 2.372-7.132 3.355-4.788 8.61-8.412 11.042-7.755.396.112 1.705 1.63 1.705 1.63s-2.431 1.35-4.686 3.23c-3.039 2.34-5.334 5.74-6.709 9.43zm1.815 8.097c-.163.028-.33.039-.498.035-1.625-.044-3.38-1.507-3.555-3.241-.193-1.918.787-3.394 2.522-3.744.207-.041.458-.066.728-.052.972.054 2.405.8 2.732 2.917.29 1.876-.17 3.785-1.929 4.085zm22.012-3.396c-.014-.049-.105-.38-.23-.78-.124-.4-.253-.68-.253-.68.5-.749.509-1.418.442-1.797-.07-.47-.266-.87-.66-1.284-.395-.413-1.2-.837-2.334-1.155l-.594-.165c-.003-.025-.032-1.402-.057-1.993-.02-.427-.056-1.094-.263-1.751-.246-.89-.676-1.668-1.213-2.166 1.48-1.535 2.405-3.225 2.403-4.675-.005-2.79-3.43-3.633-7.65-1.885-.005.001-.889.376-.895.38-.004-.006-1.617-1.588-1.641-1.609-4.813-4.197-19.86 12.528-15.05 16.591l1.052.89c-.273.706-.38 1.516-.292 2.386.112 1.118.689 2.19 1.623 3.018.888.786 2.054 1.284 3.186 1.283 1.873 4.314 6.15 6.96 11.165 7.11 5.38.16 9.897-2.365 11.789-6.9.124-.318.65-1.752.65-3.018 0-1.272-.72-1.8-1.178-1.8z" mask="url(#a)"/></g></g></svg>