<svg height="84" viewBox="0 0 84 84" width="84" xmlns="http://www.w3.org/2000/svg"><g fill="none" fill-rule="evenodd"><circle cx="32" cy="32" fill="#a3b4cc" r="32" transform="translate(10 10)"/><g fill="#1d74f5"><rect height="3" rx="1.5" width="40" x="22" y="23"/><g><rect height="3" rx="1.5" width="40" x="22" y="44"/><rect height="3" rx="1.5" width="40" x="22" y="49"/><rect height="3" rx="1.5" width="40" x="22" y="33"/><rect height="3" rx="1.5" width="40" x="22" y="54"/><rect height="3" rx="1.5" width="20" x="22" y="38"/></g><rect height="3" rx="1.5" width="40" x="22" y="28"/><rect height="3" rx="1.5" width="20" x="22" y="59"/></g><circle cx="45.5" cy="44.5" fill="#fff" opacity=".32" r="13.5"/><g fill-rule="nonzero"><path d="m61.621 56.023 11.406 11.307a3.321 3.321 0 1 1 -4.696 4.698l-11.405-11.31 4.695-4.696z" fill="#1d74f5"/><path d="m34.537 33.536c6.047-6.048 15.888-6.048 21.935 0 5.506 5.503 5.984 14.14 1.468 20.213l3.042 3.04-3.194 3.192-3.041-3.042c-6.068 4.517-14.706 4.04-20.21-1.466-6.05-6.048-6.05-15.888 0-21.937zm2.308 19.627c4.774 4.777 12.545 4.777 17.319 0 4.774-4.774 4.774-12.543 0-17.319-4.776-4.774-12.546-4.774-17.319 0-4.777 4.777-4.777 12.545 0 17.32z" fill="#ecf0f4"/><path d="m39.366 36.655c3.724-2.203 8.54-2.208 12.266-.007.376.223.482.677.233 1.013a.732.732 0 0 1 -.104.115.888.888 0 0 1 -1.025.094c-3.184-1.876-7.29-1.874-10.47.008-.377.225-.884.13-1.13-.207-.247-.336-.15-.79.23-1.016z" fill="#e7ebf2"/></g></g></svg>