<svg height="84" viewBox="0 0 84 84" width="84" xmlns="http://www.w3.org/2000/svg" xmlns:xlink="http://www.w3.org/1999/xlink"><defs><circle id="a" cx="42" cy="42" r="32"/><linearGradient id="b"><stop offset="0" stop-color="#c2cddd"/><stop offset="1" stop-color="#e0e7ef"/></linearGradient><linearGradient id="c" x1="50%" x2="50%" xlink:href="#b" y1="95.558%" y2="72.203%"/><linearGradient id="d" x1="100%" x2="78.616%" xlink:href="#b" y1="50%" y2="50%"/><linearGradient id="e" x1="100%" x2="0%" xlink:href="#b" y1="50%" y2="50%"/><mask id="f" fill="#fff"><use fill="#fff" fill-rule="evenodd" xlink:href="#a"/></mask></defs><g fill="none" fill-rule="evenodd"><use fill="#a3b4cc" xlink:href="#a"/><path d="m33 52.143c0-.631.448-1.143 1-1.143s1 .512 1 1.143v13.714c0 .631-.448 1.143-1 1.143s-1-.512-1-1.143z" fill="#ecf0f4" fill-rule="nonzero" mask="url(#f)" transform="matrix(1 0 0 -1 0 118)"/><path d="m33 52.143c0-.631.448-1.143 1-1.143s1 .512 1 1.143v13.714c0 .631-.448 1.143-1 1.143s-1-.512-1-1.143z" fill="url(#c)" mask="url(#f)" transform="matrix(1 0 0 -1 0 118)"/><path d="m33 21.357c0-.75.448-1.357 1-1.357s1 .608 1 1.357v16.286c0 .75-.448 1.357-1 1.357s-1-.608-1-1.357z" fill="url(#c)" mask="url(#f)"/><path d="m53.004 65c.55 0 .996.448.996 1s-.446 1-.996 1h-40.008a.998.998 0 0 1 -.996-1c0-.552.446-1 .996-1z" fill="#ecf0f4" fill-rule="nonzero" mask="url(#f)" transform="matrix(1 0 0 -1 0 132)"/><path d="m55.933 65c.59 0 1.067.448 1.067 1s-.478 1-1.067 1h-42.866c-.59 0-1.067-.448-1.067-1s.478-1 1.067-1z" fill="url(#d)" mask="url(#f)" transform="matrix(1 0 0 -1 0 132)"/><path d="m55.933 20c.59 0 1.067.448 1.067 1s-.478 1-1.067 1h-42.866c-.59 0-1.067-.448-1.067-1s.478-1 1.067-1z" fill="url(#d)" mask="url(#f)" transform="matrix(1 0 0 -1 0 42)"/><g fill="#1d74f5"><rect height="4" mask="url(#f)" rx="1" width="8" x="30" y="64"/><rect height="4" mask="url(#f)" rx="1" width="8" x="30" y="19"/><path d="m76.125 63.125h-19.25c-.76 0-1.375-.63-1.375-1.406v-2.813c0-.776.616-1.406 1.375-1.406h19.25c.76 0 1.375.63 1.375 1.406v2.813c0 .776-.616 1.406-1.375 1.406zm0 11.25h-19.25c-.76 0-1.375-.63-1.375-1.406v-2.813c0-.776.616-1.406 1.375-1.406h19.25c.76 0 1.375.63 1.375 1.406v2.813c0 .776-.616 1.406-1.375 1.406z" fill-rule="nonzero"/></g><path d="m76.125 68.75h-19.25c-.76 0-1.375-.63-1.375-1.406v-2.814c0-.776.616-1.406 1.375-1.406h19.25c.76 0 1.375.63 1.375 1.406v2.813c0 .776-.616 1.406-1.375 1.406z" fill="#306bc4"/><path d="m74.484 59.258a1.055 1.055 0 1 0 0 2.11 1.055 1.055 0 0 0 0-2.11zm-2.812 0a1.055 1.055 0 1 0 0 2.11 1.055 1.055 0 0 0 0-2.11zm2.812 5.625a1.055 1.055 0 1 0 0 2.11 1.055 1.055 0 0 0 0-2.11zm-2.812 0a1.055 1.055 0 1 0 0 2.11 1.055 1.055 0 0 0 0-2.11zm2.812 5.625a1.055 1.055 0 1 0 0 2.11 1.055 1.055 0 0 0 0-2.11zm-2.812 0a1.055 1.055 0 1 0 0 2.11 1.055 1.055 0 0 0 0-2.11z" fill="#f2f7fb"/><path d="m76.125 18.125h-19.25c-.76 0-1.375-.63-1.375-1.406v-2.813c0-.776.616-1.406 1.375-1.406h19.25c.76 0 1.375.63 1.375 1.406v2.813c0 .776-.616 1.406-1.375 1.406zm0 11.25h-19.25c-.76 0-1.375-.63-1.375-1.406v-2.813c0-.776.616-1.406 1.375-1.406h19.25c.76 0 1.375.63 1.375 1.406v2.813c0 .776-.616 1.406-1.375 1.406z" fill="#1d74f5" fill-rule="nonzero"/><path d="m76.125 23.75h-19.25c-.76 0-1.375-.63-1.375-1.406v-2.814c0-.776.616-1.406 1.375-1.406h19.25c.76 0 1.375.63 1.375 1.406v2.813c0 .776-.616 1.406-1.375 1.406z" fill="#306bc4"/><path d="m74.484 14.258a1.055 1.055 0 1 0 0 2.11 1.055 1.055 0 0 0 0-2.11zm-2.812 0a1.055 1.055 0 1 0 0 2.11 1.055 1.055 0 0 0 0-2.11zm2.812 5.625a1.055 1.055 0 1 0 0 2.11 1.055 1.055 0 0 0 0-2.11zm-2.812 0a1.055 1.055 0 1 0 0 2.11 1.055 1.055 0 0 0 0-2.11zm2.812 5.625a1.055 1.055 0 1 0 0 2.11 1.055 1.055 0 0 0 0-2.11zm-2.812 0a1.055 1.055 0 1 0 0 2.11 1.055 1.055 0 0 0 0-2.11z" fill="#f2f7fb"/><path d="m43.625 40.625h-19.25c-.76 0-1.375-.63-1.375-1.406v-2.813c0-.776.616-1.406 1.375-1.406h19.25c.76 0 1.375.63 1.375 1.406v2.813c0 .776-.616 1.406-1.375 1.406zm0 11.25h-19.25c-.76 0-1.375-.63-1.375-1.406v-2.813c0-.776.616-1.406 1.375-1.406h19.25c.76 0 1.375.63 1.375 1.406v2.813c0 .776-.616 1.406-1.375 1.406z" fill="#f2f7fb" fill-rule="nonzero"/><path d="m20.625 11.25h-19.25c-.76 0-1.375-.63-1.375-1.406v-2.814c0-.776.616-1.406 1.375-1.406h19.25c.76 0 1.375.63 1.375 1.406v2.813c0 .776-.616 1.406-1.375 1.406z" fill="url(#e)" transform="translate(23 35)"/><path d="m41.984 36.758a1.055 1.055 0 1 0 0 2.11 1.055 1.055 0 0 0 0-2.11zm-2.812 0a1.055 1.055 0 1 0 0 2.11 1.055 1.055 0 0 0 0-2.11zm2.812 5.625a1.055 1.055 0 1 0 0 2.11 1.055 1.055 0 0 0 0-2.11zm-2.812 0a1.055 1.055 0 1 0 0 2.11 1.055 1.055 0 0 0 0-2.11zm2.812 5.625a1.055 1.055 0 1 0 0 2.11 1.055 1.055 0 0 0 0-2.11zm-2.812 0a1.055 1.055 0 1 0 0 2.11 1.055 1.055 0 0 0 0-2.11z" fill="#1d74f5"/></g></svg>