<svg xmlns="http://www.w3.org/2000/svg" xmlns:xlink="http://www.w3.org/1999/xlink" width="84" height="84" viewBox="0 0 84 84">
    <defs>
        <circle id="a" cx="42" cy="42" r="32"/>
        <linearGradient id="c" x1="50%" x2="50%" y1="95.558%" y2="72.203%">
            <stop offset="0%" stop-color="#C2CDDD"/>
            <stop offset="100%" stop-color="#E0E7EF"/>
        </linearGradient>
        <linearGradient id="d" x1="50%" x2="50%" y1="95.558%" y2="72.203%">
            <stop offset="0%" stop-color="#C2CDDD"/>
            <stop offset="100%" stop-color="#E0E7EF"/>
        </linearGradient>
        <linearGradient id="e" x1="100%" x2="78.616%" y1="50%" y2="50%">
            <stop offset="0%" stop-color="#C2CDDD"/>
            <stop offset="100%" stop-color="#E0E7EF"/>
        </linearGradient>
        <linearGradient id="f" x1="100%" x2="0%" y1="50%" y2="50%">
            <stop offset="0%" stop-color="#C2CDDD"/>
            <stop offset="100%" stop-color="#E0E7EF"/>
        </linearGradient>
    </defs>
    <g fill="none" fill-rule="evenodd">
        <mask id="b" fill="#fff">
            <use xlink:href="#a"/>
        </mask>
        <use fill="#A3B4CC" xlink:href="#a"/>
        <path fill="#ECF0F4" fill-rule="nonzero" d="M33 52.143c0-.631.448-1.143 1-1.143s1 .512 1 1.143v13.714c0 .631-.448 1.143-1 1.143s-1-.512-1-1.143V52.143z" mask="url(#b)" transform="matrix(1 0 0 -1 0 118)"/>
        <path fill="url(#c)" d="M33 52.143c0-.631.448-1.143 1-1.143s1 .512 1 1.143v13.714c0 .631-.448 1.143-1 1.143s-1-.512-1-1.143V52.143z" mask="url(#b)" transform="matrix(1 0 0 -1 0 118)"/>
        <path fill="url(#d)" d="M33 21.357c0-.75.448-1.357 1-1.357s1 .608 1 1.357v16.286c0 .75-.448 1.357-1 1.357s-1-.608-1-1.357V21.357z" mask="url(#b)"/>
        <path fill="#ECF0F4" fill-rule="nonzero" d="M53.004 65c.55 0 .996.448.996 1s-.446 1-.996 1H12.996A.998.998 0 0 1 12 66c0-.552.446-1 .996-1h40.008z" mask="url(#b)" transform="matrix(1 0 0 -1 0 132)"/>
        <path fill="url(#e)" d="M55.933 65c.59 0 1.067.448 1.067 1s-.478 1-1.067 1H13.067c-.59 0-1.067-.448-1.067-1s.478-1 1.067-1h42.866z" mask="url(#b)" transform="matrix(1 0 0 -1 0 132)"/>
        <path fill="url(#e)" d="M55.933 20c.59 0 1.067.448 1.067 1s-.478 1-1.067 1H13.067c-.59 0-1.067-.448-1.067-1s.478-1 1.067-1h42.866z" mask="url(#b)" transform="matrix(1 0 0 -1 0 42)"/>
        <rect width="8" height="4" x="30" y="64" fill="#1D74F5" mask="url(#b)" rx="1"/>
        <rect width="8" height="4" x="30" y="19" fill="#1D74F5" mask="url(#b)" rx="1"/>
        <path fill="#1D74F5" fill-rule="nonzero" d="M76.125 63.125h-19.25c-.76 0-1.375-.63-1.375-1.406v-2.813c0-.776.616-1.406 1.375-1.406h19.25c.76 0 1.375.63 1.375 1.406v2.813c0 .776-.616 1.406-1.375 1.406zm0 11.25h-19.25c-.76 0-1.375-.63-1.375-1.406v-2.813c0-.776.616-1.406 1.375-1.406h19.25c.76 0 1.375.63 1.375 1.406v2.813c0 .776-.616 1.406-1.375 1.406z"/>
        <path fill="#306BC4" d="M76.125 68.75h-19.25c-.76 0-1.375-.63-1.375-1.406V64.53c0-.776.616-1.406 1.375-1.406h19.25c.76 0 1.375.63 1.375 1.406v2.813c0 .776-.616 1.406-1.375 1.406z"/>
        <path fill="#F2F7FB" d="M74.484 59.258a1.055 1.055 0 1 0 0 2.11 1.055 1.055 0 0 0 0-2.11zM71.672 59.258a1.055 1.055 0 1 0 0 2.11 1.055 1.055 0 0 0 0-2.11zM74.484 64.883a1.055 1.055 0 1 0 0 2.11 1.055 1.055 0 0 0 0-2.11zM71.672 64.883a1.055 1.055 0 1 0 0 2.11 1.055 1.055 0 0 0 0-2.11zM74.484 70.508a1.055 1.055 0 1 0 0 2.11 1.055 1.055 0 0 0 0-2.11zM71.672 70.508a1.055 1.055 0 1 0 0 2.11 1.055 1.055 0 0 0 0-2.11z"/>
        <g>
            <path fill="#1D74F5" fill-rule="nonzero" d="M76.125 18.125h-19.25c-.76 0-1.375-.63-1.375-1.406v-2.813c0-.776.616-1.406 1.375-1.406h19.25c.76 0 1.375.63 1.375 1.406v2.813c0 .776-.616 1.406-1.375 1.406zm0 11.25h-19.25c-.76 0-1.375-.63-1.375-1.406v-2.813c0-.776.616-1.406 1.375-1.406h19.25c.76 0 1.375.63 1.375 1.406v2.813c0 .776-.616 1.406-1.375 1.406z"/>
            <path fill="#306BC4" d="M76.125 23.75h-19.25c-.76 0-1.375-.63-1.375-1.406V19.53c0-.776.616-1.406 1.375-1.406h19.25c.76 0 1.375.63 1.375 1.406v2.813c0 .776-.616 1.406-1.375 1.406z"/>
            <path fill="#F2F7FB" d="M74.484 14.258a1.055 1.055 0 1 0 0 2.11 1.055 1.055 0 0 0 0-2.11zM71.672 14.258a1.055 1.055 0 1 0 0 2.11 1.055 1.055 0 0 0 0-2.11zM74.484 19.883a1.055 1.055 0 1 0 0 2.11 1.055 1.055 0 0 0 0-2.11zM71.672 19.883a1.055 1.055 0 1 0 0 2.11 1.055 1.055 0 0 0 0-2.11zM74.484 25.508a1.055 1.055 0 1 0 0 2.11 1.055 1.055 0 0 0 0-2.11zM71.672 25.508a1.055 1.055 0 1 0 0 2.11 1.055 1.055 0 0 0 0-2.11z"/>
        </g>
        <g>
            <path fill="#F2F7FB" fill-rule="nonzero" d="M43.625 40.625h-19.25c-.76 0-1.375-.63-1.375-1.406v-2.813c0-.776.616-1.406 1.375-1.406h19.25c.76 0 1.375.63 1.375 1.406v2.813c0 .776-.616 1.406-1.375 1.406zm0 11.25h-19.25c-.76 0-1.375-.63-1.375-1.406v-2.813c0-.776.616-1.406 1.375-1.406h19.25c.76 0 1.375.63 1.375 1.406v2.813c0 .776-.616 1.406-1.375 1.406z"/>
            <path fill="url(#f)" d="M20.625 11.25H1.375C.615 11.25 0 10.62 0 9.844V7.03c0-.776.616-1.406 1.375-1.406h19.25c.76 0 1.375.63 1.375 1.406v2.813c0 .776-.616 1.406-1.375 1.406z" transform="translate(23 35)"/>
            <path fill="#1D74F5" d="M41.984 36.758a1.055 1.055 0 1 0 0 2.11 1.055 1.055 0 0 0 0-2.11zM39.172 36.758a1.055 1.055 0 1 0 0 2.11 1.055 1.055 0 0 0 0-2.11zM41.984 42.383a1.055 1.055 0 1 0 0 2.11 1.055 1.055 0 0 0 0-2.11zM39.172 42.383a1.055 1.055 0 1 0 0 2.11 1.055 1.055 0 0 0 0-2.11zM41.984 48.008a1.055 1.055 0 1 0 0 2.11 1.055 1.055 0 0 0 0-2.11zM39.172 48.008a1.055 1.055 0 1 0 0 2.11 1.055 1.055 0 0 0 0-2.11z"/>
        </g>
    </g>
</svg>
