<svg height="367" viewBox="0 0 431 367" width="431" xmlns="http://www.w3.org/2000/svg"><g fill="none" fill-rule="evenodd"><g stroke="#35363e" stroke-width="2"><ellipse cx="372" cy="314.905" rx="4" ry="3.905"/><ellipse cx="245" cy="322.905" rx="4" ry="3.905"/><ellipse cx="259" cy="42.905" rx="4" ry="3.905"/><ellipse cx="93" cy="48.905" rx="4" ry="3.905"/><ellipse cx="50" cy="107.905" rx="4" ry="3.905"/><ellipse cx="201" cy="305.905" rx="4" ry="3.905"/><path d="m65 308c30.928 0 56-25.072 56-56s-25.072-56-56-56-56 25.072-56 56 25.072 56 56 56zm293-157c30.928 0 56-25.072 56-56s-25.072-56-56-56-56 25.072-56 56 25.072 56 56 56zm10 160.435-134-121.435m11 128.766v-156.766m-25.5 66-124.5-175.19m104 250.19-145-191.19m205 110.956v-175.956" stroke-dasharray="4" stroke-linecap="round" stroke-linejoin="round"/></g><g transform="translate(70 72)"><path d="m8.505 0h291.99c4.697 0 8.505 3.775 8.505 8.431v184.08c0 4.657-3.808 8.431-8.505 8.431h-291.99c-4.697 0-8.505-3.774-8.505-8.43v-184.081c0-4.657 3.808-8.431 8.505-8.431z" fill="#fff"/><rect fill="#d8d8d8" height="9.292" opacity=".48" rx="1" width="9.328" x="89.785" y="169.581"/><rect fill="#d8d8d8" height="3.485" opacity=".48" rx="1" width="17.491" x="102.611" y="169.581"/><rect fill="#d8d8d8" height="3.485" opacity=".48" rx="1" width="114.272" x="102.611" y="176.551"/><path d="m8.279 0h74.51v200.942h-74.51c-4.572 0-8.279-3.774-8.279-8.43v-184.081c0-4.657 3.707-8.431 8.279-8.431z" fill="#1d74f5"/><path d="m82.789 25.553h226.211v1.162h-226.211zm0 161.451h144.006v1.162h-144.006z" fill="#c6c7ca" opacity=".23"/><path d="m226.794 200.942v-174.227h1.166v174.227z" fill="#c6c7ca" opacity=".23"/><rect fill="#fff" height="9.292" rx="1" width="9.328" x="9.328" y="9.292"/><rect fill="#d8d8d8" height="13.938" opacity=".48" rx="1" width="13.992" x="88.619" y="6.969"/><rect fill="#d8d8d8" height="4.646" opacity=".48" rx="1" width="34.981" x="106.109" y="9.292"/><rect fill="#d8d8d8" height="2.323" opacity=".48" rx="1" width="23.321" x="106.109" y="16.261"/><rect fill="#fff" height="9.292" rx="1" width="9.328" x="9.328" y="39.492"/><g transform="translate(235.539 33.684)"><g fill="#d8d8d8"><rect height="34.846" opacity=".19" rx="1" width="65.298" y="18.584"/><rect height="3.485" opacity=".48" rx="1" width="17.491" x="12.826"/><rect height="3.485" opacity=".48" rx="1" width="53.638" x="12.826" y="6.969"/><rect height="9.292" opacity=".48" rx="1" width="9.328"/></g><path d="m34.284 35.986.792 4.19-6.338-9.977-8.914 13.967c-.1 1.297 5.645 2.295 12.776 2.295s12.875-.998 12.875-2.295l-7.824-11.672zm.697-5.787a2.305 2.305 0 0 0 2.332-2.323 2.305 2.305 0 0 0 -2.332-2.323 2.305 2.305 0 0 0 -2.332 2.323 2.305 2.305 0 0 0 2.332 2.323z" fill="#b0b8be" fill-rule="nonzero" opacity=".149"/></g><g transform="translate(102.611 94.083)"><rect fill="#d8d8d8" height="34.846" opacity=".19" rx="1" width="65.298" x="132.928" y="18.584"/><g transform="translate(0 22.069)"><rect fill="#d8d8d8" height="44.138" opacity=".19" rx="1" width="115.438"/><path d="m57.605 22.048.792 4.19-6.339-9.977-8.913 13.967c-.1 1.297 5.645 2.294 12.776 2.294 7.13 0 12.875-.997 12.875-2.294l-7.824-11.672zm.697-5.787a2.305 2.305 0 0 0 2.332-2.323 2.305 2.305 0 0 0 -2.332-2.323 2.305 2.305 0 0 0 -2.332 2.323 2.305 2.305 0 0 0 2.332 2.323z" fill="#b0b8be" fill-rule="nonzero" opacity=".149"/></g><g fill="#d8d8d8"><rect height="3.485" opacity=".48" rx="1" width="17.491" x="145.755"/><rect height="3.485" opacity=".48" rx="1" width="53.638" x="145.755" y="6.969"/><rect height="9.292" opacity=".48" rx="1" width="9.328" x="132.928"/></g><path d="m167.212 35.986.792 4.19-6.338-9.977-8.914 13.967c-.099 1.297 5.645 2.295 12.776 2.295s12.876-.998 12.876-2.295l-7.825-11.672zm.697-5.787a2.305 2.305 0 0 0 2.333-2.323 2.305 2.305 0 0 0 -2.333-2.323 2.305 2.305 0 0 0 -2.332 2.323 2.305 2.305 0 0 0 2.332 2.323z" fill="#b0b8be" fill-rule="nonzero" opacity=".149"/></g><g transform="translate(235.539 154.482)"><g fill="#d8d8d8"><rect height="27.876" opacity=".19" rx="1" width="65.298" y="18.584"/><rect height="3.485" opacity=".48" rx="1" width="17.491" x="12.826"/><rect height="3.485" opacity=".48" rx="1" width="53.638" x="12.826" y="6.969"/><rect height="9.292" opacity=".48" rx="1" width="9.328"/></g><path d="m34.284 35.986.792 4.19-6.338-9.977-8.914 13.967c-.1 1.297 5.645 2.295 12.776 2.295s12.875-.998 12.875-2.295l-7.824-11.672zm.697-5.787a2.305 2.305 0 0 0 2.332-2.323 2.305 2.305 0 0 0 -2.332-2.323 2.305 2.305 0 0 0 -2.332 2.323 2.305 2.305 0 0 0 2.332 2.323z" fill="#b0b8be" fill-rule="nonzero" opacity=".149"/></g><rect fill="#d8d8d8" height="3.485" opacity=".48" rx="1" width="17.491" x="102.611" y="33.684"/><rect fill="#d8d8d8" height="3.485" opacity=".48" rx="1" width="114.272" x="102.611" y="40.653"/><rect fill="#d8d8d8" height="3.485" opacity=".48" rx="1" width="114.272" x="102.611" y="47.622"/><rect fill="#d8d8d8" height="3.485" opacity=".48" rx="1" width="57.136" x="102.611" y="54.591"/><rect fill="#d8d8d8" height="3.485" opacity=".48" rx="1" width="114.272" x="88.619" y="192.812"/><g fill="#d8d8d8" opacity=".48"><rect height="9.292" rx="1" width="9.328" x="89.785" y="67.368"/><rect height="9.292" rx="1" width="9.328" x="89.785" y="33.684"/><rect height="3.485" rx="1" width="10.494" x="102.611" y="67.368"/><rect height="3.485" rx="1" width="115.438" x="102.611" y="74.337"/><rect height="3.485" rx="1" width="57.136" x="102.611" y="81.306"/></g><g fill="#d8d8d8" opacity=".48"><rect height="9.292" rx="1" width="9.328" x="89.785" y="94.083"/><rect height="3.485" rx="1" width="17.491" x="102.611" y="94.083"/><rect height="3.485" rx="1" width="115.438" x="102.611" y="101.052"/><rect height="3.485" rx="1" width="115.438" x="102.611" y="108.021"/></g><rect fill="#fff" height="9.292" rx="1" width="9.328" x="9.328" y="109.182"/><rect fill="#fff" height="9.292" rx="1" width="9.328" x="9.328" y="123.12"/><rect fill="#fff" height="9.292" rx="1" width="9.328" x="9.328" y="137.059"/><rect fill="#fff" height="9.292" rx="1" width="9.328" x="9.328" y="150.997"/><rect fill="#fff" height="9.292" rx="1" width="9.328" x="9.328" y="164.935"/><rect fill="#d8d8d8" height="2.323" opacity=".564" rx="1" width="19.823" x="9.328" y="102.213"/><g fill="#fff"><rect height="4.646" opacity=".564" rx="1" width="50.14" x="23.32" y="111.505"/><rect height="4.646" opacity=".564" rx="1" width="50.14" x="23.32" y="125.443"/><rect height="4.646" opacity=".564" rx="1" width="50.14" x="23.32" y="139.382"/><rect height="4.646" opacity=".564" rx="1" width="50.14" x="23.32" y="153.32"/><rect height="4.646" opacity=".564" rx="1" width="50.14" x="23.32" y="167.258"/><rect height="9.292" rx="1" width="9.328" x="9.328" y="178.873"/><rect height="4.646" opacity=".564" rx="1" width="50.14" x="23.32" y="181.196"/><rect height="9.292" rx="1" width="9.328" x="9.328" y="53.43"/><rect height="9.292" rx="1" width="9.328" x="9.328" y="67.368"/><rect height="9.292" rx="1" width="9.328" x="9.328" y="81.306"/><rect height="2.323" opacity=".564" rx="1" width="19.823" x="9.328" y="32.522"/><rect height="4.646" opacity=".564" rx="1" width="50.14" x="23.321" y="41.815"/><rect height="4.646" opacity=".564" rx="1" width="50.14" x="23.321" y="55.753"/><rect height="4.646" opacity=".564" rx="1" width="50.14" x="23.321" y="69.691"/><rect height="4.646" opacity=".564" rx="1" width="50.14" x="23.321" y="83.629"/><rect height="6.969" opacity=".564" rx="1" width="6.996" x="32.649" y="10.454"/><rect height="6.969" opacity=".564" rx="1" width="6.996" x="44.309" y="10.454"/><rect height="6.969" opacity=".564" rx="1" width="6.996" x="54.804" y="10.454"/><rect height="6.969" opacity=".564" rx="1" width="6.996" x="66.464" y="10.454"/></g></g><g transform="translate(29 146)"><rect fill="#fff" height="140" rx="8" stroke="#030c1a" stroke-width="3" width="83" x="-1.5" y="-1.5"/><path d="m8 0h64a8 8 0 0 1 8 8v13.701h-80v-13.701a8 8 0 0 1 8-8z" fill="#1d74f5"/><rect fill="#d8d8d8" height="3.513" opacity=".48" rx="1" width="31.304" x="18.551" y="11.709"/><rect fill="#fff" height="5.855" opacity=".564" rx="1" width="5.797" x="10.435" y="10.538"/><g fill="#d8d8d8" opacity=".48"><rect height="9.368" rx="1" width="9.275" x="9.275" y="30.444"/><rect height="3.513" rx="1" width="17.391" x="22.029" y="30.444"/><rect height="3.513" rx="1" width="48.696" x="22.029" y="37.47"/><rect height="3.513" rx="1" width="26.667" x="22.029" y="44.495"/></g><g transform="translate(9.275 57.376)"><g fill="#d8d8d8"><rect height="9.368" opacity=".48" rx="1" width="9.275"/><rect height="3.513" opacity=".48" rx="1" width="17.391" x="12.754"/><rect height="3.513" opacity=".48" rx="1" width="48.696" x="12.754" y="7.026"/><rect height="26.932" opacity=".19" rx="1" width="48.696" x="12.754" y="14.051"/></g><path d="m38.431 27.248.645 3.62-5.157-8.62-7.251 12.069c-.08 1.12 4.592 1.982 10.394 1.982 5.801 0 10.474-.862 10.474-1.982l-6.365-10.087zm.41-5a1.73 1.73 0 0 0 1.739-1.757 1.73 1.73 0 0 0 -1.74-1.756 1.73 1.73 0 0 0 -1.739 1.756 1.73 1.73 0 0 0 1.74 1.757z" fill="#b0b8be" fill-rule="nonzero" opacity=".149"/></g><g fill="#d8d8d8" opacity=".48"><rect height="9.368" rx="1" width="9.275" x="9.275" y="107.726"/><rect height="3.513" rx="1" width="17.391" x="22.029" y="107.726"/><rect height="3.513" rx="1" width="48.696" x="22.029" y="114.752"/><rect height="3.513" rx="1" width="26.667" x="22.029" y="121.777"/></g></g><path d="m370 283s31-10.74 31-42.067v-24.167c-20.103-6.355-41.897-6.355-62 0v24.167c0 31.326 31 42.067 31 42.067z" fill="#1867de" stroke="#030c1a" stroke-width="3"/><path d="m385.507 233.948a3.16 3.16 0 0 1 -.316 4.118l-19.011 18.89a2 2 0 0 1 -3.097-.346l-3.485-5.476-3.556-6.26a3.157 3.157 0 0 1 .649-3.92 2.074 2.074 0 0 1 3.179.523l5.403 9.476 16.715-17.242a2.311 2.311 0 0 1 3.519.237z" fill="#e7ebf2" fill-rule="nonzero"/><circle cx="204" cy="74" fill="#1d74f5" r="32" stroke="#030c1a" stroke-width="3"/><g fill="#fff"><path d="m195 64.091v5.909l4.104-.517v-5.465c0-1.7 1.444-3.102 3.192-3.102h4.408c1.748 0 3.192 1.403 3.192 3.102v5.465l4.104.517v-5.909c0-3.914-3.268-7.09-7.296-7.09h-4.408c-4.028-.074-7.296 3.176-7.296 7.09z"/><path d="m203.498 69.675h-.389l-10.656 1.244c-1.71.22-2.955 1.537-2.955 3.147v12.22c0 1.609 1.244 2.926 2.955 3.145l10.656 1.244h.778l10.655-1.244c1.711-.22 2.956-1.536 2.956-3.146v-12.22c0-1.61-1.245-2.926-2.956-3.146l-10.655-1.244h-.39zm2.154 8.704c0 .852-.417 1.626-1.042 2.014l.625 5.032h-3.474l.625-5.032c-.625-.388-1.042-1.162-1.042-2.014 0-1.316.973-2.4 2.154-2.4 1.181-.077 2.154 1.007 2.154 2.4z" fill-rule="nonzero"/></g></g></svg>