<svg xmlns="http://www.w3.org/2000/svg" xmlns:xlink="http://www.w3.org/1999/xlink" width="84" height="84" viewBox="0 0 84 84">
    <defs>
        <circle id="a" cx="32" cy="32" r="32"/>
        <linearGradient id="c" x1="100%" x2="0%" y1="50%" y2="50%">
            <stop offset="0%" stop-color="#C2CDDD"/>
            <stop offset="100%" stop-color="#E0E7EF"/>
        </linearGradient>
    </defs>
    <g fill="none" fill-rule="evenodd" transform="translate(10 10)">
        <mask id="b" fill="#fff">
            <use xlink:href="#a"/>
        </mask>
        <use fill="#A3B4CC" xlink:href="#a"/>
        <rect width="70.667" height="42.667" x="-1.333" y="10.667" fill="#ECF0F4" mask="url(#b)" rx="2"/>
        <path fill="#DFE6EE" d="M.667 10.667h66.666a2 2 0 0 1 2 2v6H-1.333v-6a2 2 0 0 1 2-2z" mask="url(#b)"/>
        <rect width="60" height="42.667" x="8" y="10.667" fill="#ECF0F4" rx="2"/>
        <g transform="translate(9 23)">
            <path fill="#1867DE" d="M42.737 24s10.737-3.63 10.737-14.22V1.611a36.582 36.582 0 0 0-21.474 0V9.78C32 20.37 42.737 24 42.737 24z"/>
            <g fill="#FFF">
                <path d="M38.568 5.705v2.567l1.735-.224V5.673c0-.738.61-1.348 1.35-1.348h1.864c.739 0 1.35.61 1.35 1.348v2.375l1.735.224V5.705c0-1.7-1.382-3.08-3.085-3.08h-1.864c-1.704-.032-3.085 1.38-3.085 3.08z"/>
                <path fill-rule="nonzero" d="M42.585 8.144h-.161l-4.403.546a1.387 1.387 0 0 0-1.221 1.38v5.358c0 .706.514 1.284 1.221 1.38l4.403.546h.321l4.403-.546a1.387 1.387 0 0 0 1.221-1.38V10.07c0-.706-.514-1.283-1.22-1.38l-4.404-.545h-.16zm.996 3.594a.957.957 0 0 1-.482.834l.29 2.086H41.78l.29-2.086a.957.957 0 0 1-.483-.834 1 1 0 0 1 .997-.995c.546-.032.996.417.996.995z"/>
            </g>
            <rect width="26.667" height="4" y="5.333" fill="#1867DE" opacity=".529" rx="2"/>
            <rect width="16" height="4" y="12" fill="#1867DE" opacity=".529" rx="2"/>
        </g>
        <path fill="url(#c)" d="M8 10.667h58a2 2 0 0 1 2 2v6H8v-8z"/>
    </g>
</svg>
