<svg height="84" viewBox="0 0 84 84" width="84" xmlns="http://www.w3.org/2000/svg" xmlns:xlink="http://www.w3.org/1999/xlink"><defs><circle id="a" cx="32" cy="32" r="32"/><linearGradient id="b" x1="100%" x2="0%" y1="50%" y2="50%"><stop offset="0" stop-color="#c2cddd"/><stop offset="1" stop-color="#e0e7ef"/></linearGradient><mask id="c" fill="#fff"><use fill="#fff" fill-rule="evenodd" xlink:href="#a"/></mask></defs><g fill="none" fill-rule="evenodd" transform="translate(10 10)"><use fill="#a3b4cc" xlink:href="#a"/><rect fill="#ecf0f4" height="42.667" mask="url(#c)" rx="2" width="70.667" x="-1.333" y="10.667"/><path d="m.667 10.667h66.666a2 2 0 0 1 2 2v6h-70.666v-6a2 2 0 0 1 2-2z" fill="#dfe6ee" mask="url(#c)"/><rect fill="#ecf0f4" height="42.667" rx="2" width="60" x="8" y="10.667"/><g transform="translate(9 23)"><path d="m42.737 24s10.737-3.63 10.737-14.22v-8.169a36.582 36.582 0 0 0 -21.474 0v8.169c0 10.59 10.737 14.22 10.737 14.22z" fill="#1867de"/><g fill="#fff"><path d="m38.568 5.705v2.567l1.735-.224v-2.375c0-.738.61-1.348 1.35-1.348h1.864c.739 0 1.35.61 1.35 1.348v2.375l1.735.224v-2.567c0-1.7-1.382-3.08-3.085-3.08h-1.864c-1.704-.032-3.085 1.38-3.085 3.08z"/><path d="m42.585 8.144h-.161l-4.403.546a1.387 1.387 0 0 0 -1.221 1.38v5.358c0 .706.514 1.284 1.221 1.38l4.403.546h.321l4.403-.546a1.387 1.387 0 0 0 1.221-1.38v-5.358c0-.706-.514-1.283-1.22-1.38l-4.404-.545h-.16zm.996 3.594a.957.957 0 0 1 -.482.834l.29 2.086h-1.609l.29-2.086a.957.957 0 0 1 -.483-.834 1 1 0 0 1 .997-.995c.546-.032.996.417.996.995z" fill-rule="nonzero"/></g><g fill="#1867de"><rect height="4" opacity=".529" rx="2" width="26.667" y="5.333"/><rect height="4" opacity=".529" rx="2" width="16" y="12"/></g></g><path d="m8 10.667h58a2 2 0 0 1 2 2v6h-60z" fill="url(#b)"/></g></svg>