<svg height="36" viewBox="0 0 36 36" width="36" xmlns="http://www.w3.org/2000/svg" xmlns:xlink="http://www.w3.org/1999/xlink"><mask id="a" fill="#fff"><path d="m16.992.015c-9.384 0-16.992 7.595-16.992 16.96 0 9.368 7.608 16.961 16.992 16.961 9.385 0 16.993-7.593 16.993-16.96s-7.608-16.96-16.993-16.96z" fill="#fff" fill-rule="evenodd"/></mask><g fill="none" fill-rule="evenodd"><path d="m16.992.015c-9.384 0-16.992 7.595-16.992 16.96 0 9.368 7.608 16.961 16.992 16.961 9.385 0 16.993-7.593 16.993-16.96s-7.608-16.96-16.993-16.96z" fill="#2399d6" mask="url(#a)" transform="translate(1 1.048)"/><path d="m26.26 10.82-3.034 15.274s-.425 1.059-1.592.55l-7.004-5.36-2.547-1.228-4.287-1.44s-.658-.233-.721-.742c-.064-.508.742-.784.742-.784l17.043-6.672s1.4-.615 1.4.402" fill="#fefefe"/><path d="m14.092 25.922s-.205-.02-.46-.824c-.254-.805-1.549-5.042-1.549-5.042l10.294-6.524s.594-.36.573 0c0 0 .106.063-.212.36-.319.296-8.087 7.266-8.087 7.266" fill="#d2e5f1"/><path d="m17.316 23.34-2.77 2.52s-.217.165-.454.062l.53-4.683" fill="#b5d0e4"/></g></svg>