<svg xmlns="http://www.w3.org/2000/svg" xmlns:xlink="http://www.w3.org/1999/xlink" width="36" height="36" viewBox="0 0 36 36">
    <defs>
        <path id="a" d="M16.992.015C7.608.015 0 7.61 0 16.975c0 9.368 7.608 16.961 16.992 16.961 9.385 0 16.993-7.593 16.993-16.96S26.377.016 16.992.016z"/>
    </defs>
    <g fill="none" fill-rule="evenodd">
        <g transform="translate(1 1.048)">
            <mask id="b" fill="#fff">
                <use xlink:href="#a"/>
            </mask>
            <path fill="#2399D6" d="M16.992.015C7.608.015 0 7.61 0 16.975c0 9.368 7.608 16.961 16.992 16.961 9.385 0 16.993-7.593 16.993-16.96S26.377.016 16.992.016z" mask="url(#b)"/>
        </g>
        <path fill="#FEFEFE" d="M26.26 10.82l-3.034 15.274s-.425 1.059-1.592.55l-7.004-5.36-2.547-1.228-4.287-1.44s-.658-.233-.721-.742c-.064-.508.742-.784.742-.784l17.043-6.672s1.4-.615 1.4.402"/>
        <path fill="#D2E5F1" d="M14.092 25.922s-.205-.02-.46-.824c-.254-.805-1.549-5.042-1.549-5.042l10.294-6.524s.594-.36.573 0c0 0 .106.063-.212.36-.319.296-8.087 7.266-8.087 7.266"/>
        <path fill="#B5D0E4" d="M17.316 23.34l-2.77 2.52s-.217.165-.454.062l.53-4.683"/>
    </g>
</svg>
