<svg height="36" viewBox="0 0 36 36" width="36" xmlns="http://www.w3.org/2000/svg" xmlns:xlink="http://www.w3.org/1999/xlink"><defs><path id="a" d="m28.908 4.94a16.721 16.721 0 0 0 -11.916-4.94c-9.289 0-16.848 7.559-16.848 16.848 0 2.968.774 5.867 2.247 8.424l-2.391 8.728 8.933-2.345a16.797 16.797 0 0 0 8.052 2.049h.007c9.282 0 17.008-7.559 17.008-16.848 0-4.5-1.913-8.728-5.092-11.915z"/><filter id="b" height="108.8%" width="108.8%" x="-4.4%" y="-4.4%"><feOffset in="SourceAlpha" result="shadowOffsetOuter1"/><feGaussianBlur in="shadowOffsetOuter1" result="shadowBlurOuter1" stdDeviation=".5"/><feColorMatrix in="shadowBlurOuter1" values="0 0 0 0 0 0 0 0 0 0 0 0 0 0 0 0 0 0 0.1 0"/></filter></defs><g fill="none"><g transform="translate(1 1)"><use fill="#000" filter="url(#b)" xlink:href="#a"/><use fill="#fff" xlink:href="#a"/></g><path d="m18.346 31.6c-2.51 0-4.966-.676-7.105-1.953l-.507-.303-5.276 1.39 1.406-5.174-.332-.532a14.026 14.026 0 0 1 -2.132-7.46c0-7.728 6.259-14.018 13.953-14.018 3.727 0 7.226 1.459 9.857 4.11 2.63 2.652 4.248 6.17 4.24 9.915 0 7.734-6.417 14.025-14.104 14.025z" fill="#24d366"/><path d="m25.646 21.836c-.414-.216-2.473-1.25-2.858-1.389-.384-.146-.663-.216-.943.216-.279.432-1.078 1.389-1.327 1.682-.241.286-.49.324-.905.108-2.458-1.257-4.072-2.245-5.694-5.091-.43-.756.43-.702 1.23-2.337.135-.286.067-.533-.038-.749-.106-.216-.943-2.322-1.29-3.178-.34-.833-.686-.717-.942-.733-.242-.015-.52-.015-.8-.015-.279 0-.731.108-1.116.532-.385.432-1.463 1.466-1.463 3.572s1.5 4.142 1.704 4.428c.212.285 2.95 4.605 7.15 6.464 2.654 1.172 3.695 1.273 5.022 1.072.807-.123 2.474-1.034 2.82-2.036.348-1.003.348-1.86.242-2.037-.098-.193-.377-.3-.792-.509z" fill="#fff"/></g></svg>