<svg height="36" viewBox="0 0 36 36" width="36" xmlns="http://www.w3.org/2000/svg"><path d="m22 18.007a9.571 9.571 0 0 1 -.614 3.378 9.566 9.566 0 0 1 -3.38.615h-.013a9.567 9.567 0 0 1 -3.378-.614 9.57 9.57 0 0 1 -.615-3.379v-.014c0-1.189.219-2.327.614-3.377a9.575 9.575 0 0 1 3.38-.616h.013c1.19.001 2.328.22 3.379.616a9.577 9.577 0 0 1 .614 3.378zm11.778-2.674h-9.34l6.604-6.604a16.074 16.074 0 0 0 -1.729-2.043v-.001a16.085 16.085 0 0 0 -2.042-1.727l-6.604 6.604v-9.34a16.099 16.099 0 0 0 -2.659-.222h-.017c-.89 0-1.78.075-2.658.222v9.34l-6.603-6.604a16.075 16.075 0 0 0 -2.043 1.728l-.002.002a16.08 16.08 0 0 0 -1.727 2.042l6.604 6.604h-9.34s-.222 1.754-.222 2.66v.012c0 .891.075 1.782.222 2.661h9.34l-6.604 6.604a16.091 16.091 0 0 0 3.771 3.771l6.604-6.604v9.34c.878.147 1.766.221 2.656.222h.023c.89 0 1.777-.075 2.655-.222v-9.34l6.604 6.604a16.083 16.083 0 0 0 2.042-1.728h.002a16.095 16.095 0 0 0 1.727-2.043l-6.604-6.604h9.34c.147-.877.221-1.766.222-2.655v-.023c0-.89-.075-1.778-.222-2.655z" fill="#ff4a00"/></svg>