<svg xmlns="http://www.w3.org/2000/svg" xmlns:xlink="http://www.w3.org/1999/xlink" width="1048" height="758" viewBox="0 0 1048 758">
    <defs>
        <path id="a" d="M0 617.489h928.647V.143H0z"/>
    </defs>
    <g fill="none" fill-rule="evenodd" transform="translate(0 1)">
        <ellipse cx="524" cy="753" fill="#0B1725" fill-rule="nonzero" rx="524" ry="4"/>
        <g transform="translate(9 135)">
            <path fill="#FF3582" d="M243.097 335.678c8.833-3.252 7.673-18.872-1.179-18.415-8.126.42-6.672 7.044-12.268 9.05-5.923 2.125-14.035-1.338-20.443 6.217-7.654 9.024-2.877 37.556 23.17 56.452 43.824 31.794 71.922 16.37 69.825-11.857-1.388-18.677-15.106-22.736-24.114-21.511-10.799 1.47-14.42 8.35-25.582 7.66-10.169-.629-12.79-9.024-14.049-17.05l4.64-10.546z"/>
            <path fill="#F5B68C" d="M236.65 369.596V353.62c10.064 1.81 10.064 1.024 6.604-19.437 0 0-2.516 1.81-6.762-.55 0 0 .472 7.16-6.92 9.836-5.19-8.971-12.66 2.598-2.359 4.25l-6.055 21.799 15.491.078zM253.712 535.094l-6.133 52.097h-11.638l-2.988-50.838z"/>
            <path fill="#F5B68C" d="M233.249 541.384s13.296 1.79 15.445 2c2.148.21 3.727.888 3.517 4.463l1.364-11.494-20.72-1.138.394 6.169zM203.23 535.094l6.134 52.097H221l2.988-50.838z"/>
            <path fill="#F5B68C" d="M203.965 541.33s13.682 1.844 15.83 2.054c2.15.21 3.728.888 3.518 4.463l.677-11.494-20.759-1.259.734 6.237z"/>
            <mask id="b" fill="#fff">
                <use xlink:href="#a"/>
            </mask>
            <path fill="#64A0DE" d="M216.335 413.64h25.792v-44.28h-25.792z" mask="url(#b)"/>
            <path fill="#003DDC" d="M248.444 584.2h-13.132s1.533 28.764 1.613 30.102c.078 1.338.76 2.164 2.136 2.164h11.505c2.675 0 3.029-3.738.473-4.131a270.47 270.47 0 0 0-5.19-.748l2.595-27.386zM187.084 538.82c-3.564-88.35 23.065-125.548 23.065-125.548h36.786s26.631 37.198 23.066 125.548h-82.917z" mask="url(#b)"/>
            <path fill="#F5B68C" d="M290.983 394.962s17.693-22.534 20.235-25.602c1.272-1.535 8.912-6.506 8.912-6.506s-4.725 9.387-6.343 12.644c-1.501 3.026-13.263 27.334-13.263 27.334l-9.54-7.87z" mask="url(#b)"/>
            <path fill="#003DDC" d="M309.21 365.901c.714-6.4 2.94-26.327 3.122-27.725.198-1.515.82-2.104 2.163-2.104h8.1c1.546 0 2.11.815 1.906 2.65-.192 1.71-2.333 20.948-3.027 27.195-.136 1.222-.905 1.948-2.615 1.948h-8.022c-1.375 0-1.765-.731-1.628-1.964" mask="url(#b)"/>
            <path fill="#64A0DE" d="M311.114 364.657l2.858-25.535h8.072l-2.86 25.535z" mask="url(#b)"/>
            <path fill="#003DDC" d="M208.499 584.2h13.132s-1.534 28.764-1.613 30.102c-.078 1.338-.864 2.138-2.24 2.138-1.495 0-8.73.026-11.402.026-2.674 0-3.028-3.738-.473-4.131a270.47 270.47 0 0 1 5.191-.748L208.5 584.2z" mask="url(#b)"/>
            <path fill="#F5B68C" d="M304.635 377.625c3.137-4.33 3.153-7.115 3.27-10.864.115-3.748.125-4.722.069-6.413-.058-1.69.34-2.708 1.725-3.58 1.625-1.022 3.336-1.949 3.627-.99.33 1.096-1.055 2.042-3.426 3.95 0 0-.523 4.71-.64 5.719-.17 1.493.026 2.418 1.775 2.418h2.752l-8.314 10.33-.838-.57z" mask="url(#b)"/>
            <path fill="#052590" d="M199.377 436.487c1.756-3.12 7.47-5.481 21.1-6.321l-17.437-3.193s-2.502 6.123-3.663 9.514M240.345 384.39s-2.998 41.12-3.383 45.292c-.287 3.108 1.179 2.886 3.383 2.95 5.302.153 16.453.236 18.196 6.31 0 0-2.823-8.652-5.85-15.03l-7.21-4.292-3.353-35.23h-1.783z" mask="url(#b)"/>
            <path fill="#F5B68C" d="M292.138 393.491s6.224 3.268 8.006 4.003c1.783.736 3.058-.195 3.712-1.546l-3.332 6.884-9.54-7.87 1.154-1.47z" mask="url(#b)"/>
            <path fill="#00D4B0" d="M240.345 369.255v61.279h19.29s-1.991-7.975-8.596-18.887l3.46-8.29s18.825 17.783 21.388 20.146c2.988 2.755 7.628 2.912 10.773-.865 3.344-4.017 10.93-14.034 14.914-19.7l-11.062-9.103-9.514 11.725s-22.306-31.478-24.088-33.786-2.936-2.519-5.557-2.519h-11.008z" mask="url(#b)"/>
            <path fill="#052590" d="M210.923 445.816c-7.85 8.457-10.917 6.017-7.929.823l7.929-.823z" mask="url(#b)"/>
            <path fill="#F5B68C" d="M181.37 426.088l24.848 16.577s3.102-2.326 5.151-3.895c2.674-2.046 5.87 1.463 3.538 3.62-2.594 2.4-4.364 3.738-6.172 5.116-1.378 1.05-2.517 1.101-4.561.707-2.044-.393-28.857-10.282-28.857-10.282l6.054-11.843z" mask="url(#b)"/>
            <path fill="#F5B68C" d="M183.63 427.595s-2.469 6.661-2.94 8.367c-.472 1.706-.511 3.756 1.28 4.41l-6.654-2.44 6.055-11.844 2.26 1.507z" mask="url(#b)"/>
            <path fill="#00D4B0" d="M198.303 398.005c1.468 5.876 8.282 13.642 8.282 13.642-6.605 10.912-8.598 18.887-8.598 18.887h25.478v-61.279h-18.661c-2.622 0-3.61.348-5.557 2.519-3.67 4.092-35.379 37.065-40.13 42.128-5.267 5.615-5.163 13.903 1.443 17.576 6.071 3.375 14.887 8.185 14.887 8.185l7.34-13.327-7.234-4.616 22.75-23.715z" mask="url(#b)"/>
            <path fill="#052590" d="M198.303 398.005l6.08-7.554s-4.388 12.318-.674 17.57c0 0-4.194-4.98-5.406-10.016" mask="url(#b)"/>
        </g>
        <path stroke="#285FB9" stroke-linecap="round" stroke-linejoin="round" stroke-width="1.5" d="M63.56 750.086l-8.336-24.522h41.944l-8.336 24.522zM64.033 637.383c-1.888 12.366 4.3 14.146 4.194 22.32-.101 7.86-5.767 10.269-5.767 18.34 0 8.068 4.934 10.108 5.033 17.29.104 7.597-4.486 9.746-4.614 16.766-.105 5.763 2.307 9.64 3.041 13.151M88.36 637.383c1.888 12.366-4.3 14.146-4.194 22.32.101 7.86 5.767 10.269 5.767 18.34 0 8.068-4.934 10.108-5.033 17.29-.104 7.597 4.486 9.746 4.614 16.766.105 5.763-1.731 9.64-2.465 13.151M42.117 608.775a2.411 2.411 0 1 1-4.822-.001 2.411 2.411 0 0 1 4.822 0zM66.654 594.105a2.41 2.41 0 0 1-2.413 2.41 2.41 2.41 0 1 1 0-4.82 2.411 2.411 0 0 1 2.413 2.41z"/>
        <path stroke="#285FB9" stroke-linecap="round" stroke-linejoin="round" stroke-width="1.5" d="M76.564 595.048c7.235 12.365 5.715 26.407 5.715 26.407s6.92-15.51 19.19-20.54c.104 15.195-10.067 25.256-10.067 25.256 11.744-7.336 26.529-4.821 26.529-4.821-43.727 37.304-82.735 0-82.735 0s14.786-2.515 26.53 4.82c0 0-10.172-10.06-10.067-25.255 12.269 5.03 19.19 20.54 19.19 20.54s-1.52-14.042 5.715-26.407zM111.01 608.775a2.412 2.412 0 1 0 4.824 0 2.41 2.41 0 0 0-2.412-2.41 2.41 2.41 0 0 0-2.412 2.41zM86.473 594.105a2.41 2.41 0 0 0 2.413 2.41 2.41 2.41 0 1 0 0-4.82 2.411 2.411 0 0 0-2.413 2.41zM121.658 750.086l-9.595-74.454h41.944l-9.595 74.454zM113.798 689.091h38.475M148.45 675.527c18.77-15.51 3.04-24.94-5.663-6.183 13.108-28.712-8.494-33.009-9.752-3.772-1.258-29.237-22.86-24.94-9.752 3.772-8.704-18.758-24.433-9.326-5.662 6.183"/>
        <path stroke="#003DDC" stroke-linecap="round" stroke-linejoin="round" stroke-width="1.5" d="M499.622 678.372l-14.584 71.713M486.48 750.086h-2.83M536.492 678.28l14.601 71.806M549.65 750.086h2.831"/>
        <path stroke="#285FB9" stroke-linecap="round" stroke-linejoin="round" stroke-width="1.5" d="M476.937 649.525H648.79M643.077 649.525v18.019c0 5.905-4.792 10.694-10.7 10.694H493.35c-5.91 0-10.7-4.789-10.7-10.694v-18.019"/>
        <path stroke="#285FB9" stroke-linecap="round" stroke-linejoin="round" stroke-width="1.5" d="M568.85 678.238c-5.91 0-10.701-4.789-10.701-10.694v-18.019M628.548 678.64l14.529 71.445M641.634 750.086h2.831M577.846 678.42l-14.574 71.665M564.714 750.086h-2.83"/>
        <path fill="#64A0DE" d="M573.974 579.314a4.797 4.797 0 0 1-9.595 0h9.595z"/>
        <path stroke="#285FB9" stroke-linecap="round" stroke-linejoin="round" stroke-width="1.5" d="M569.176 570.092v-1.827c0-5.907 4.792-10.694 10.701-10.694h27.516c5.909 0 10.7 4.787 10.7 10.694v71.824"/>
        <path fill="#285FB9" d="M625.773 646.303h-18.347v-2.99c0-4.686 3.802-8.485 8.491-8.485h1.364c4.69 0 8.492 3.8 8.492 8.485v2.99z"/>
        <path stroke="#285FB9" stroke-linecap="round" stroke-linejoin="round" stroke-width="1.5" d="M612.297 638.417l-3.775-4.24M578.404 579.314h-18.456c0-5.094 4.13-9.222 9.228-9.222 5.096 0 9.228 4.128 9.228 9.222z"/>
        <path fill="#003DDC" d="M521.04 644.567s19.838-38.594 20.689-40.26c.797-1.56 1.848-1.95 3.474-1.95h45.771c1.259 0 1.77 1.244 1.14 2.404-.74 1.366-20.447 39.806-20.447 39.806h-50.628z"/>
        <path fill="#64A0DE" d="M526.815 642.188l18.315-35.629h39.48l-18.318 35.629z"/>
        <path stroke="#003DDC" stroke-linecap="round" stroke-linejoin="round" stroke-width="3" d="M497.766 643.761h72.197"/>
        <path stroke="#31415B" stroke-linecap="round" stroke-linejoin="round" stroke-width="1.5" d="M504.701 474.628h-50.119c-5.91 0-10.7 4.787-10.7 10.694v12.407c0 5.907 4.79 10.694 10.7 10.694h31.559l5.767 17.03 5.872-17.03h61.862c5.909 0 10.7-4.787 10.7-10.694v-12.407c0-5.907-4.791-10.694-10.7-10.694h-5.447M705.273 423.029h-27.572c-5.91 0-10.701 4.787-10.701 10.694v4.862c0 5.907 4.792 10.694 10.7 10.694h44.042c5.91 0 10.7-4.787 10.7-10.694v-4.862c0-5.907-4.79-10.694-10.7-10.694h-4.83L716.906 406l-11.632 17.029z"/>
        <path stroke="#285FB9" stroke-linecap="round" stroke-linejoin="round" stroke-width="1.5" d="M337.91 431.293h27.573c5.909 0 10.7-4.787 10.7-10.693v-4.863c0-5.906-4.791-10.694-10.7-10.694h-44.041c-5.91 0-10.701 4.788-10.701 10.694v4.863c0 5.906 4.79 10.693 10.7 10.693h4.83l.008 17.03 11.632-17.03zM505.225 485.789h48.603v-40.711h-48.603zM505.224 453.722h48.603"/>
        <path stroke="#285FB9" stroke-linecap="round" stroke-linejoin="round" stroke-width="1.5" d="M519.38 466.979l8.887 9.955 12.715-15.3"/>
        <path stroke="#31415B" stroke-linecap="round" stroke-linejoin="round" stroke-width="1.5" d="M489.024 456.709v-39.14"/>
        <path stroke="#31415B" stroke-dasharray="3,4" stroke-linecap="round" stroke-linejoin="round" stroke-width="1.5" d="M489.024 456.709v-39.14H386M718.735 396.952v-36.724L718 294.69V85.684h63.732"/>
        <path fill="#31415B" d="M490.911 456.709a1.886 1.886 0 0 0-1.887-1.886 1.886 1.886 0 1 0 0 3.772 1.886 1.886 0 0 0 1.887-1.886M490.911 417.713a1.886 1.886 0 0 0-1.887-1.886 1.886 1.886 0 1 0 0 3.773 1.886 1.886 0 0 0 1.887-1.887M388.775 417.886a1.886 1.886 0 0 0-1.888-1.886 1.886 1.886 0 1 0 0 3.772 1.886 1.886 0 0 0 1.888-1.886M752.775 186.886a1.886 1.886 0 0 0-1.888-1.886 1.886 1.886 0 1 0 0 3.772 1.886 1.886 0 0 0 1.888-1.886"/>
        <path stroke="#285FB9" stroke-linecap="round" stroke-linejoin="round" stroke-width="1.5" d="M690.102 532.77c-5.91 0-10.701 4.788-10.701 10.694v9.893c0 5.907 4.79 10.694 10.7 10.694h17.718l5.767 17.029 5.872-17.03h55.57c5.91 0 10.701-4.786 10.701-10.693v-9.893c0-5.906-4.791-10.693-10.7-10.693h-84.927zM681.814 519.986h48.603v-40.711h-48.603zM681.813 487.92h48.603"/>
        <path stroke="#31415B" stroke-dasharray="3,4" stroke-linecap="round" stroke-linejoin="round" stroke-width="1.5" d="M674 547.926h-62.499v-51.58"/>
        <path fill="#31415B" d="M613.389 548.04a1.888 1.888 0 0 0-3.775 0 1.887 1.887 0 1 0 3.775 0M676.389 548.04a1.888 1.888 0 0 0-3.775 0 1.887 1.887 0 1 0 3.775 0M613.389 491.997a1.887 1.887 0 1 0-3.774.001 1.887 1.887 0 0 0 3.774 0M582.036 491.997a1.887 1.887 0 1 0-3.773.001 1.887 1.887 0 0 0 3.773 0"/>
        <path stroke="#31415B" stroke-dasharray="3,4" stroke-linecap="round" stroke-linejoin="round" stroke-width="1.5" d="M606.258 492.024h-22.125"/>
        <g stroke="#285FB9" stroke-linecap="round" stroke-linejoin="round" stroke-width="1.5">
            <path d="M941.506 725.408s-8.035-4.905-7.952-16.909c9.691 3.975 15.16 10.396 15.16 10.396s-1.203-8.452 4.514-18.22c5.716 9.768 4.514 18.22 4.514 18.22s5.467-6.421 15.16-10.396c.083 12.004-7.953 16.91-7.953 16.91"/>
            <path d="M943.22 703.507a2.41 2.41 0 0 1-2.413 2.41 2.409 2.409 0 1 1 0-4.82 2.411 2.411 0 0 1 2.412 2.41zM965.924 750.086l8.337-24.522h-41.945l8.336 24.522zM935.515 734.98h35.39"/>
        </g>
        <g>
            <path stroke="#285FB9" stroke-linecap="round" stroke-linejoin="round" stroke-width="1.5" d="M427.523 749.85v-3.758c0-5.899-4.79-10.68-10.697-10.68H374.54c-5.908 0-10.697 4.781-10.697 10.68v3.758M395.683 735.411V684.54"/>
            <path fill="#285FB9" d="M373.422 609.46c0-5.9-4.789-10.682-10.697-10.682h-6.646c-5.907 0-10.697 4.782-10.697 10.681v39.53c0 5.898 4.79 10.68 10.697 10.68h6.646c5.908 0 10.697-4.782 10.697-10.68v-39.53z"/>
            <path fill="#052590" d="M361.981 598.764h-4.796c1.123 0 1.732 1.246.2 2.757-1.916 1.887-12.003 11.912-12.003 11.912v17.898l17.741-32.106-1.142-.461z"/>
            <path fill="#003DDC" d="M510.503 718.542h-13.13s23.013 28.8 24.294 30.274c1.022 1.176 1.834 1.91 3.563 1.91h9.88c2.673 0 3.027-3.729.471-4.12-2.824-.435-5.187-.747-5.187-.747l-19.89-27.317z"/>
            <path fill="#02A797" d="M510.581 737.538h15.306s-30.923-55.366-33.65-59.762c-2.725-4.396-6.499-8.688-13.941-11.305-7.442-2.615-61.95-21.666-61.95-21.666l-12.997 1.362-1.677 25.328 69.601 16.327 39.308 49.716z"/>
            <path fill="#003DDC" d="M463.648 718.542h-13.13s9.592 28.102 10.26 30.025c.44 1.263 1.245 2.159 2.62 2.159h11.021c2.673 0 3.026-3.729.472-4.12-2.825-.435-5.19-.747-5.19-.747l-6.053-27.317z"/>
            <path fill="#00D4B0" d="M398.737 682.59l40.723 6.437 16.038 48.511h14.308s-7.705-48.668-8.648-55.105c-.943-6.437-4.088-8.321-8.805-10.676-4.717-2.355-48.113-24.177-48.113-24.177l-5.503 35.01z"/>
            <path fill="#F5B68C" d="M394.087 566.987s-1.039-6.826-1.558-10.63c-.52-3.804.78-4.495 3.03-6.31 2.249-1.816 8.041-6.322 9.434-7.347 1.234-.907 2.077-.173 1.817 1.038-.259 1.21-.388 1.988-.562 2.765-.172.779.413 1.207 1.082.626.649-.562 4.177-3.52 5.28-4.428 1.18-.97 2.252-.303 1.775 1.125-.493 1.477-.844 2.721-1.124 3.67-.25.84.17 1.183.908.886.865-.345 2.683-1.145 4.002-1.663 1.135-.446 1.927.083 1.408 1.362-.564 1.384-4.394 10.286-4.394 10.286l-6.642 2.916-2.424 7.519-12.032-1.815z"/>
            <path fill="#7141FF" d="M409.743 591.428l-.032-13.767c9.348.519 10.387-.649 5.973-20.354l-9.155.648s1.104 7.13-5.128 9.335c-6.622-9.335-13.633 2.593-3.765 4.667l-7.39 19.575 19.497-.104zM431.127 633.085s9.441 9.619 13.207 13.29c4.403 4.293 8.405 5.076 13.941 2.618 5.66-2.512 30.104-13.423 33.465-14.876 2.827-1.22 3.887-1.99 5.765-.98 1.389.745 2.947 1.616 4.023 2.236 3.263 1.884 5.738-2.276 2.75-4.12-1.668-1.03-3.694-2.356-4.833-2.945-1.986-1.025-3.067-1.177-6.918-.47-7.504 1.376-36.558 6.817-36.558 6.817l-11.11-13.188-13.732 11.618z"/>
            <path fill="#FF3582" d="M369.072 620.105h-20.83s16.315-24.339 18.273-26.946c1.957-2.608 3.806-2.824 6.851-2.824h42.561c3.853 0 6.761.57 9.67 3.866 2.206 2.5 20.833 25.781 20.833 25.781l-15.853 14.77-7.504-7.167-7.67 18.68h-60.09l13.759-26.16z"/>
            <path stroke="#003DDC" stroke-linecap="round" stroke-linejoin="round" stroke-width="1.5" d="M415.482 590.433l-5.424 7.065-6.133-6.908M390.141 590.433l5.424 7.065 8.045-6.908"/>
            <path fill="#FFF" d="M405.026 602.627c0-.81-.657-1.465-1.468-1.465a1.466 1.466 0 1 0 0 2.93c.811 0 1.468-.655 1.468-1.465M403.244 612.675c0-.81-.656-1.466-1.468-1.466a1.466 1.466 0 1 0 0 2.93c.812 0 1.468-.654 1.468-1.464M401.462 622.723c0-.81-.656-1.466-1.468-1.466a1.466 1.466 0 1 0 0 2.93c.812 0 1.468-.654 1.468-1.464"/>
            <path fill="#285FB9" d="M345.383 649.412h62.054v38.724h-38.779c-14.89 0-23.275-7.325-23.275-23.24v-15.484z"/>
            <path fill="#052590" d="M345.383 660.453c0-3.925 2.817-4.205 7.285-4.789 4.816-.626 43.946-6.514 43.946-6.514l-51.231-1.256v12.56z"/>
            <path fill="#7141FF" d="M349.68 619.791s-5.364 9.184-9.197 15.7c-4.482 7.614-1.967 14.13 5.895 14.13h58.858c1.596 0 2.525.368 3.655 1.125.652.437 2.085 1.642 3.014 2.367 2.359 1.845 5.464-1.176 2.988-3.728-1.278-1.315-2.005-2.041-3.578-3.414-1.81-1.583-3.694-1.688-6.8-2.277-4.893-.927-43.304-7.261-43.304-7.261l7.861-16.328-19.392-.314z"/>
        </g>
        <g>
            <path fill="#285FB9" d="M912.586 609.713c0-5.9-4.781-10.681-10.677-10.681h-6.635c-5.896 0-10.677 4.781-10.677 10.68v39.53c0 5.899 4.781 10.68 10.677 10.68h6.635c5.896 0 10.677-8.832 10.677-8.832v-41.377z"/>
            <path fill="#02A797" d="M779.931 720.051l12.478-.235s-4.774 28.69-4.853 30.026c-.078 1.333-.862 2.132-2.236 2.132-1.491 0-8.71.025-11.379.025-2.668 0-3.02-3.727-.47-4.12 2.818-.434 5.178-.746 5.178-.746l1.282-27.082z"/>
            <path fill="#64A0DE" d="M782.661 678.447h6.79c6.356 0 11.509-4.378 11.509-10.785v-7.198c10.456-.422 23.432-1.12 23.432-1.12l-9.699 22.662-11.3-.105-11.666 55.263H777.13s3.768-41.54 5.53-58.717z"/>
            <path fill="#00D4B0" d="M812.443 720.051l12.478-.235s-1.53 28.69-1.608 30.026c-.078 1.333-.863 2.132-2.236 2.132-1.492 0-8.712.025-11.38.025-2.668 0-3.02-3.727-.47-4.12 2.818-.434 5.179-.746 5.179-.746l-1.963-27.082z"/>
            <path fill="#052590" d="M831.645 621.092l-10.255 14.55s-28.93-9.212-32.436-10.415c-2.833-.972-4.498-.576-6.775 1.858-1.292 1.379-2.746 3.009-4.315 4.736-3.112 3.425 1.046 7.222 4.08 4.343 1.208-1.145 2.512-2.46 3.505-3.401 1.238-1.176 1.557-1.301 3.454-.314 2.511 1.307 21.396 11.094 29.035 15.124 5.91 3.119 10.673 2.933 13.707-.208 3.033-3.141 12.66-17.061 12.66-17.061l-12.66-9.212z"/>
            <path fill="#02A797" d="M846.606 632.814l-16.113-11.512 16.009-22.085z"/>
            <path fill="#FF3582" d="M886.05 562.27c0 10.493-8.501 18.997-18.99 18.997-10.489 0-18.99-8.504-18.99-18.996 0-10.493 8.501-18.997 18.99-18.997 10.489 0 18.99 8.504 18.99 18.997"/>
            <path fill="#003DDC" d="M857.66 594.978l.032-13.766c-9.33.518-10.367-.65-5.961-20.354l9.137.648s-1.102 7.13 5.118 9.334c6.61-9.334 13.61 2.594 3.76 4.667l7.376 19.576-19.461-.105z"/>
            <path fill="#00D4B0" d="M848.07 657.096s-3.453-38.621-4.08-47.099c-.629-8.478 3.138-15.228 11.927-15.228h28.72c10.36 0 16.14 3.765 15.067 16.484-1.098 13.03-4.237 48.826-4.237 48.826l-47.397-2.983z"/>
            <path fill="#02A797" d="M890.968 624.86l-11.352 16.38-4.277-3.2-13.301 15.76c6.357 6.515 15.872 5.642 19.46-3.455 2.56-6.488 5.181-13.239 9.47-25.485"/>
            <path fill="#FFF" d="M869.414 683.942l-38.399-.365-4.84 54.006-14.673.052s-1.727-55.498-1.727-63.504c0-8.48 3.453-14.523 12.242-15.151 8.482-.605 29.976-2.198 29.976-2.198l26.053.942-8.632 26.218z"/>
            <path fill="#285FB9" d="M912.586 649.666h-61.939v38.724h38.706c14.864 0 23.233-7.325 23.233-23.24v-15.484z"/>
            <path fill="#052590" d="M854.322 658.065c2.014 4.265 6.486 5.678 10.698 2.329 4.06-3.228 13.418-10.735 13.418-10.735H868.08l-13.758 8.406z"/>
            <path fill="#003DDC" d="M864.012 629.582l-11.705 12.285s-42.528-13.866-46.401-14.913c-3.874-1.048-5.18-.682-7.22.68-2.187 1.459-4.75 3.47-6.75 5.023-3.034 2.355.366 7.065 3.61 4.867 1.681-1.14 4.08-2.722 5.545-3.664 1.465-.942 2.93-.626 4.604.42s37.982 21.82 41.851 23.915c6.382 3.454 11.993 1.642 16.532-3.14 4.395-4.631 14.373-14.679 14.373-14.679l-14.44-10.794z"/>
            <path stroke="#285FB9" stroke-linecap="round" stroke-linejoin="round" stroke-width="1.5" d="M830.597 750.104v-3.758c0-5.9 4.78-10.68 10.678-10.68h42.208c5.897 0 10.677 4.78 10.677 10.68v3.758M862.379 735.665v-50.872"/>
            <path fill="#003DDC" d="M761.895 644.713s-19.795-38.547-20.644-40.211c-.796-1.557-1.844-1.947-3.467-1.947h-45.67c-1.256 0-1.766 1.242-1.138 2.4.74 1.366 20.403 39.758 20.403 39.758h50.516z"/>
            <path stroke="#003DDC" stroke-linecap="round" stroke-linejoin="round" stroke-width="3" d="M785.117 643.908h-72.038"/>
            <path stroke="#285FB9" stroke-linecap="round" stroke-linejoin="round" stroke-width="1.5" d="M705.564 649.666h101.097M695.99 649.666h3.14M800.96 649.666v17.996c0 5.898-4.78 10.681-10.677 10.681H687.045"/>
            <path stroke="#285FB9" stroke-linecap="round" stroke-linejoin="round" stroke-width="1.5" d="M726.896 678.343c-5.896 0-10.677-4.783-10.677-10.68v-17.997M786.464 678.745l14.497 71.358M799.521 750.104h2.825M735.873 678.526l-14.542 71.577M722.77 750.104h-2.825"/>
        </g>
        <g>
            <path fill="#64A0DE" d="M951.823 138.577l27.71-14.46-12.47-29.748c-2.078-4.958-4.695-5.16-8.66-5.303-3.809-.138-3.798-.738-6.373-5.164-2.562-4.407-5.033-8.542-6.857-11.844-1.94-3.512-5.819-5.096-11.084-3.305-5.264 1.79-26.185 9.09-26.185 9.09l29.51 62.662 14.41-1.928z"/>
            <path stroke="#285FB9" stroke-linecap="round" stroke-width="1.5" d="M933.806 68.758c-3.052 1.32-4.62 5.542-2.633 9.844 2.124 4.596 7.322 15.566 7.322 15.566"/>
            <path fill="#285FB9" d="M926.557 71.747c-1.627 1.104-2.245 2.814-1.266 5.348 1.178 3.045 3.118 7.821 4.572 11.143 1.455 3.322 3.672 4.014 6.304 4.43 2.24.352 25.372 4.26 32.233 5.419l11.133 26.694-27.71 14.534-14.409 1.938-29.51-62.981s10.64-3.732 18.653-6.525"/>
            <path fill="#FFF" d="M928.05 100.44l-5.927-4.03-18.696 11.998.366 6.687s24.165-14.838 24.257-14.654"/>
            <path fill="#64A0DE" d="M903.427 109.069l18.463-11.911.19.221-5.513 11.597-12.771 6.866z"/>
            <path fill="#FFF" d="M899.691 117.095l-31.657 24.46c-31.338-20.62-31.354-20.56-34.189-22.59-1.935-1.385-2.173-2.019-2.903-4.64-1.126-4.042-2.281-10.183-6.774-8.728-4.389 1.421-.622 8.312.622 11.083 1.244 2.77 2.42 4.017 4.77 6.65 3.35 3.752 26.92 30.914 30.179 34.11 3.494 3.426 9.492 4.249 15.022 1.94 6.244-2.606 36.128-15.757 36.128-15.757l-11.198-26.528z"/>
            <path fill="#64A0DE" d="M908.65 144.721c-2.02.895-5.25 2.326-9.048 4.005-3.947-11.414-7.243-23.764-.515-30.642l9.563 26.637z"/>
            <path stroke="#003DDC" stroke-linecap="round" stroke-width="1.5" d="M903.427 132.284s-18.858 10.808-20.717 11.824c-1.858 1.015-2.88 2.217-2.973 5.08-.093 2.863-.186 7.76-.186 7.76"/>
            <path fill="#FFF" d="M932.858 97.935c-5.693 3.303-28.492 16.742-32.208 18.964-3.716 2.223-5.506 7.642-2.202 14.45 3.303 6.808 15.003 27.093 15.003 27.093l48.174-18.895s-15.278-32.72-17.686-37.583c-2.26-4.563-5.094-7.503-11.08-4.03"/>
            <path fill="#64A0DE" d="M952.545 120.111c1.635 3.498 5.35 11.426 5.35 11.426s-14.288-6.324-18.326-8.2c-5.798-2.695-9.414-5.873-9.277-13.474l22.253 10.248z"/>
            <path fill="#FFF" d="M911.616 218.186s32.678 40.45 33.506 41.37c.829.923 1.473 2.121 1.381 3.78-.092 1.657-.346 10.78-.368 13.082-.045 4.746-6.073 4.123-6.052.116.014-2.581.07-4.17-.023-5.458-.093-1.292-1.105-2.398-2.394-3.595-1.289-1.197-38.331-35.081-42.251-38.515-5.156-4.515-9.943-11.058-4.512-22.3 5.432-11.24 20.343-41.737 21.54-44.226 1.198-2.489.924-3.685-.366-5.99l48.418-18.934s2.624 4.054 2.853 9.26c.22 4.992 2.025 73.16 2.025 73.16s35.072 42.938 35.9 43.86c.829.92 1.473 2.12 1.38 3.777-.09 1.658-.345 10.78-.367 13.085-.045 4.744-6.073 4.123-6.052.115.014-2.582.07-4.169-.023-5.46-.093-1.29-1.105-2.396-2.394-3.594-1.29-1.197-38.569-35.382-42.343-38.976-4.577-4.355-6.167-6.264-7.825-14.835-1.327-6.856-8.1-43.12-8.1-43.12l-23.933 43.398z"/>
            <path fill="#64A0DE" d="M948.535 161.795c.435-1.727 10.789-2.11 15.749-1.717.078 2.793.326 11.07.326 11.07s-8.309-2.279-11.045-3.213c-5.788-1.975-5.766-3.222-5.03-6.14"/>
            <path fill="#FFF" d="M860.996 133.924a3.85 3.85 0 0 0-5.432.505l-7.207 8.702a3.877 3.877 0 0 0 .506 5.45 3.848 3.848 0 0 0 5.432-.506l7.205-8.702a3.878 3.878 0 0 0-.504-5.45"/>
            <path fill="#FFF" d="M854.747 152.463c-2.208-2.597-3.707-3.113-5.041-3.868l2.895-2.11 3.074 3.927-.928 2.051zM864.628 139.825c-2.413-1.797-2.26-3.756-3.39-5.299l-1.086 4.055 3.868 2.672.608-1.428z"/>
            <path stroke="#003DDC" stroke-linecap="round" stroke-width="1.5" d="M855.675 133.779l-8.208 9.716"/>
            <path fill="#FFF" d="M960.447 244.74a3.717 3.717 0 0 0 5.293.074l10.421-10.38a3.802 3.802 0 0 0 .072-5.342 3.719 3.719 0 0 0-5.292-.076l-10.422 10.382a3.804 3.804 0 0 0-.072 5.341"/>
            <path fill="#FFF" d="M969.135 224.21c1.976 2.59 4.572 2.875 5.92 3.73l-3.933 1.502-2.781-4.129.794-1.102zM956.402 237.263c1.977 1.67 2.005 5.052 3.058 6.38l1.42-4.35-3.849-3.125-.629 1.095zM904.487 240.255a3.717 3.717 0 0 0 5.293.075l10.422-10.38a3.802 3.802 0 0 0 .072-5.342 3.719 3.719 0 0 0-5.293-.076l-10.422 10.381a3.804 3.804 0 0 0-.072 5.342"/>
            <path fill="#FFF" d="M913.176 220.474c1.975 2.59 4.571 2.874 5.92 3.729l-3.934 1.502-2.781-4.128.795-1.103zM900.443 233.526c1.976 1.67 2.004 5.053 3.057 6.38l1.42-4.35-3.849-3.124-.628 1.094z"/>
            <path stroke="#FF3582" stroke-linecap="round" stroke-width="1.5" d="M928.05 100.147l-24.623 14.2"/>
            <path fill="#FF3582" d="M900.443 125.184a3.362 3.362 0 0 0 3.357 3.363 3.362 3.362 0 0 0 3.358-3.363 3.36 3.36 0 0 0-3.358-3.363 3.36 3.36 0 0 0-3.357 3.363"/>
            <path stroke="#003DDC" stroke-linecap="round" stroke-width="1.5" d="M960.133 136.768l-47.752 20.18M977.294 233.926l-11.192 11.21M921.334 230.19l-11.938 11.21"/>
            <path fill="#00D4B0" d="M995.201 264.568a2.24 2.24 0 0 0 2.24 2.243 2.24 2.24 0 0 0 2.237-2.243 2.24 2.24 0 0 0-2.238-2.242 2.24 2.24 0 0 0-2.239 2.242M938.495 259.337a2.24 2.24 0 0 0 2.24 2.242 2.24 2.24 0 0 0 2.237-2.242 2.24 2.24 0 0 0-2.238-2.242 2.24 2.24 0 0 0-2.239 2.242"/>
            <path fill="#003DDC" d="M908.65 121.821a2.24 2.24 0 1 0 4.477 0 2.24 2.24 0 0 0-2.238-2.242 2.24 2.24 0 0 0-2.239 2.242"/>
            <path stroke="#003DDC" stroke-linecap="round" stroke-width="1.5" d="M946.703 142.747s-2.937-5.687-4.17-7.98c-1.233-2.294-1.329-5.322-.57-7.798.759-2.477 2.844-9.632 2.844-9.632"/>
            <path fill="#FFF" d="M947.228 96.821c8.21 2.7 42.223 16.783 48.275 19.384 6.788 2.918 8.865 12.645 2.909 18.066-6.892 6.27-32.603 28.225-35.069 30.177-2.631 2.084-3.668 2.374-7.688 2.153-6.741-.37-10.015-2.262-9.211-5.558.761-3.126 4.363-2.64 9.004-1.807 2.41.433 3.047.231 4.432-1.806 2.078-3.057 18.654-27.537 18.654-27.537s-29.643-6.809-38.37-8.893c-8.727-2.085-12.984-9.932-10.805-17.509 2.078-7.226 9.42-9.449 17.87-6.67"/>
            <path stroke="#003DDC" stroke-linecap="round" stroke-width="1.5" d="M976.548 133.779c-3.445 5.043-15.526 22.104-16.351 23.307-1.391 2.03-2.032 2.229-4.452 1.8-4.66-.831-8.096-1.266-9.042 1.798"/>
            <path fill="#FFF" d="M978.702 130.968c-1.17 1.76-.747 4.174.945 5.393l8.96 6.446c1.694 1.217 4.016.777 5.186-.985 1.171-1.762.747-4.176-.945-5.393l-8.96-6.447c-1.694-1.217-4.015-.775-5.186.986"/>
            <path fill="#FFF" d="M996.693 135.115c-1.741 2.031-1.58 4.005-2.153 5.39l-2.323-2.38 3.302-3.599 1.174.59z"/>
            <path stroke="#003DDC" stroke-linecap="round" stroke-width="1.5" d="M988.486 143.495l-11.938-9.716"/>
            <path fill="#00D4B0" d="M939.241 106.5a3.36 3.36 0 0 0 3.358 3.363 3.36 3.36 0 0 0 3.358-3.363 3.36 3.36 0 0 0-3.358-3.363 3.36 3.36 0 0 0-3.358 3.363"/>
            <path fill="#64A0DE" d="M930.09 173.184c1.734-.368 5.628-1.29 5.628-1.29l.539 3.175-14.177 25.226c1.178-5.411 4.69-21.551 5.197-23.655.61-2.534 1.079-3.087 2.813-3.456"/>
            <path fill="#FFF" d="M878.805 85.2c0 12.383 10.021 22.421 22.384 22.421 12.362 0 22.384-10.038 22.384-22.421s-10.022-22.421-22.384-22.421c-12.363 0-22.384 10.038-22.384 22.421"/>
            <path fill="#FFF" d="M895.19 110.064c1.346 2.063 4.137 2.662 6.233 1.336l25.3-15.784a4.395 4.395 0 0 0 1.356-6.133c-1.346-2.063-4.135-2.66-6.233-1.337l-25.298 15.785a4.394 4.394 0 0 0-1.358 6.133"/>
            <path fill="#003DDC" d="M885.577 79.221a.843.843 0 0 1-.802-.88c.172-4.458 1.606-8.523 3.873-11.595a22.187 22.187 0 0 1 6.572-3.22c-4.32 1.84-8.477 7.219-8.775 14.881a.84.84 0 0 1-.834.814h-.034"/>
            <path fill="#FF3582" d="M910.889 64.834c-3.67-.92-8.159.098-11.794 2.712-3.927 2.825-6.235 6.939-6.5 11.583a1.677 1.677 0 0 1-1.766 1.583 1.678 1.678 0 0 1-1.575-1.774c.32-5.599 3.196-10.748 7.893-14.127a19.937 19.937 0 0 1 3.448-1.984c.325-.013.645-.048.973-.048 3.33 0 6.478.748 9.32 2.055"/>
            <path fill="#003DDC" d="M894.496 106.874s13.71-17.095 17.133-21.337c3.173-3.93 1.008-8.627-3.699-8.557-5.222.077-27.727.301-27.727.301-4.764 14.194 3.299 27.923 14.293 29.593"/>
            <path fill="#FF3582" d="M904.92 81.837a2.614 2.614 0 0 0 2.611 2.616c1.441 0 2.611-1.171 2.611-2.616a2.614 2.614 0 0 0-2.61-2.616 2.614 2.614 0 0 0-2.612 2.616"/>
            <path stroke="#31415B" stroke-linecap="round" stroke-linejoin="round" stroke-width="1.5" d="M835.53 101.642H793V65.768h42.53zM793 72.868h42.53M813.9 31.016H793V.374h36.56V20.19M793 6.726h36.56"/>
            <path stroke="#31415B" stroke-linecap="round" stroke-linejoin="round" stroke-width="1.5" d="M819.778 87.555H805.07a2.037 2.037 0 0 1-2.048-2.027c0-1.119.917-2.026 2.048-2.026h19.219c2.302 0 5.27.774 5.27 4.257 0 3.074-2.025 4.167-5.938 4.167H805.39c-3.546 0-6.422-2.845-6.422-6.352 0-3.508 2.876-6.353 6.422-6.353h14.985"/>
            <path stroke="#285FB9" stroke-linecap="round" stroke-linejoin="round" stroke-width="1.5" d="M896.284 20.553c5.182 0 9.382 4.223 9.382 9.435v10.947c0 5.211-4.2 9.435-9.382 9.435h-11.585l-5.056 15.025-5.149-15.025H824.02c-5.181 0-9.382-4.224-9.382-9.435V29.988c0-5.212 4.201-9.435 9.382-9.435h72.264z"/>
        </g>
    </g>
</svg>
