<svg height="24" viewBox="0 0 24 24" width="24" xmlns="http://www.w3.org/2000/svg"><g fill="none" fill-rule="evenodd"><path d="m0 0h24v24h-24z"/><path d="m14.9937744 18h3.0062256c2.209139 0 4-1.790861 4-4s-1.790861-4-4-4c0-1.65685425-1.3431458-3-3-3-.7475967 0-1.4313241.27345718-1.9566131.72580245-.8237671-1.05069405-2.104737-1.72580245-3.5433869-1.72580245-2.48528137 0-4.5 2.01471863-4.5 4.5 0 .5259531.09023133 1.0308316.25605856 1.5h-.25605856c-1.65685425 0-3 1.3431458-3 3s1.34314575 3 3 3h3.49377441z" stroke="#fff" stroke-width="1.5"/></g></svg>