<svg height="24" viewBox="0 0 24 24" width="24" xmlns="http://www.w3.org/2000/svg"><g fill="none" fill-rule="evenodd"><path d="m0 0h24v24h-24z"/><circle cx="12" cy="12" fill="#a3b4cc" r="12"/><path d="m9.046875 9.71289062c.07519531-1.4765625 1.0595703-2.65234374 2.9804688-2.65234374 1.7226562 0 2.8984374 1.06640624 2.8984374 2.47460937 0 1.07324215-.5537109 1.83203125-1.4287109 2.35839845-.8681641.5126953-1.1142578.8955078-1.1142578 1.6132812v.444336h-1.1962891v-.6289063c-.0068359-.9023437.4306641-1.5175781 1.3671875-2.078125.7929688-.4853515 1.100586-.9160156 1.100586-1.64746091 0-.84765625-.65625-1.46972657-1.6748047-1.46972657-1.0322266 0-1.6884766.60839844-1.7636719 1.5859375zm2.8300781 7.41015628c-.5537109 0-.9501953-.3964844-.9501953-.9501953 0-.5605469.3964844-.9570313.9501953-.9570313.553711 0 .9433594.3964844.9433594.9570313 0 .5537109-.3896484.9501953-.9433594.9501953z" fill="#fff" stroke="#fff" stroke-width=".2"/></g></svg>