<svg height="16" viewBox="0 0 16 16" width="16" xmlns="http://www.w3.org/2000/svg"><g fill="none" fill-rule="evenodd"><path d="m0 0h16v16h-16z"/><circle cx="8" cy="8" fill="#384a66" r="8"/><path d="m6 5.8451087c.05116279-1.02717392.72093023-1.8451087 2.02790698-1.8451087 1.17209302 0 1.97209302.74184783 1.97209302 1.72146739 0 .74660326-.37674419 1.27445652-.97209302 1.640625-.59069768.35665761-.75813954.62296196-.75813954 1.12228261v.30910326h-.81395349v-.4375c-.00465116-.62771739.29302326-1.05570652.93023256-1.44565217.53953489-.33763587.74883721-.63722826.74883721-1.14605979 0-.58967391-.44651163-1.02241847-1.13953488-1.02241847-.70232558 0-1.14883721.42323369-1.2 1.10326087zm1.9255814 6.1548913c-.37674419 0-.64651163-.2758152-.64651163-.6610054 0-.3899457.26976744-.6657609.64651163-.6657609.37674418 0 .64186046.2758152.64186046.6657609 0 .3851902-.26511628.6610054-.64186046.6610054z" fill="#fff" stroke="#fff" stroke-width=".5"/></g></svg>