<svg height="141" viewBox="0 0 400 141" width="400" xmlns="http://www.w3.org/2000/svg"><path d="m45.8195251.69129288c9.53562 0 12.5319261 6.83060686 15.0364116 13.66015832 1.0638522 2.8939314 25.8311345 70.7166227 26.5688654 72.7514934.2079156.562533.0717678 1.5007915-.8042216 1.8343008-.8770449.3292876-13.7467019 5.3372031-14.4569921 5.605277-.7113457.2659631-1.5124011-.1298153-1.7741425-.8369393-.2638522-.7029024-5.5989446-15.4892243-6.2005277-17.1419947-1.7741425 0-34.9234828 0-36.6944591 0-.6047493 1.6527704-5.994723 16.4686438-6.2427441 17.1419947-.2448548.6807388-1.019525 1.1335092-1.7709762.8369393-.7546174-.2986807-13.68232191-5.3076517-14.44643801-5.605277-.73878628-.2828496-1.07968338-1.125066-.81477572-1.8343008.90765171-2.5435778 25.29815303-69.2728654 26.54670183-72.7514934 2.4147757-6.72084434 5.5208443-13.66015832 15.0532982-13.66015832zm-43.56306072 121.34674412c-.76939314 0-1.38997361.640633-1.38997361 1.426913v15.84591c0 .791557.62163588 1.422691 1.38997361 1.422691h87.12717682c.7630606 0 1.3783641-.631134 1.3783641-1.422691v-15.84591c0-.785224-.6153035-1.426913-1.3783641-1.426913zm43.49023742-99.2010977-12.410554 37.2559367h25.0153034l-12.4527705-37.2559367zm186.1656992 61.0817942c-1.824802.6248021-3.030079.776781-4.469657.776781-2.965699 0-4.616359-1.1746702-4.616359-4.2195251 0-3.1683377 2.098153-4.2364116 6.205805-4.2364116.989974 0 1.98839.1467019 2.448549.307124v2.2670185c0 2.4527705.12876 4.0601583.431662 5.1050132zm10.54248 3.6412032c-2.186807-3.330913-2.757783-5.2918628-2.757783-9.4902797v-8.5055409c0-4.5931398-.531926-6.2427441-1.749868-7.9197889-1.682322-2.3672823-4.48971-3.3931399-9.665436-3.3931399-3.65277 0-7.207388.3978892-10.642744 1.269657l1.228496 6.0580475c2.331399-.3240105 4.767282-.6079155 6.486544-.6079155 5.494459 0 6.12876.7989445 6.12876 4.9160949v1.5398417c-1.221109-.3261213-2.598417-.5614775-4.192085-.5614775-8.265963 0-12.630079 4.0422163-12.630079 10.7324538 0 6.2786702 4.65752 9.7003061 10.344063 9.7003061 2.129816 0 4.343008-.3915568 6.097098-1.1007916 1.05752-.4675462 1.517678-.7356201 2.896042-1.6306069.816887 1.2084433 2.480211 2.4348285 3.154618 2.655409zm81.76781-3.6412032c-1.830079.6248021-3.026913.776781-4.471768.776781-2.96992 0-4.649076-1.1746702-4.649076-4.2195251 0-3.1683377 2.124538-4.2364116 6.240633-4.2364116.99314 0 1.984169.1467019 2.43694.307124v2.2670185c-.001056 2.4527705.134036 4.0601583.443271 5.1050132zm10.543536 3.6412032c-2.198417-3.330913-2.763061-5.2918628-2.763061-9.4902797v-8.5055409c0-4.5931398-.532981-6.2427441-1.754089-7.9197889-1.679156-2.3672823-4.486544-3.3931399-9.665436-3.3931399-3.658047 0-7.243272.3978892-10.670185 1.269657l1.223219 6.0580475c2.329288-.3240105 4.774671-.6079155 6.530871-.6079155 5.476517 0 6.111874.7989445 6.111874 4.9160949v1.5398417c-1.213721-.3261213-2.582586-.5614775-4.187863-.5614775-8.292349 0-12.661742 4.0422163-12.661742 10.7324538 0 6.2786702 4.662797 9.7003061 10.381003 9.7003061 2.126649 0 4.340897-.3915568 6.090765-1.1007916 1.068074-.4675462 1.520844-.7356201 2.891821-1.6306069.826385 1.2084433 2.492876 2.4348285 3.164116 2.655409zm64.367282 3.0300791s-4.526649-9.6612559-5.630607-11.8512295c-1.25277-2.4802111-2.404221-4.1931399-4.959366-4.794723v-.1488126c1.709762-.3240106 3.073351-1.362533 4.539314-4.5203167 1.429023-3.0828496 1.842744-3.7467018 2.668073-4.4738786.818998-.7387863 1.931399-.4633245 1.931399-.4633245l.424274-5.7055409c-1.190501-.1562006-2.507651-.1604222-3.864907-.0823219-2.244855.1340369-3.411082.7725593-4.516095 1.8923483-.856992.8538258-1.448021 2.1277044-2.173087 3.5862796-.777837 1.5957784-1.389974 2.8833774-2.181531 4.510818-.790501 1.6601583-1.184169 2.4063324-3.331926 2.4063324h-1.392084v-25.2200527h-8.293404v44.8633667h8.293404v-12.8971398l1.125066-.0242744c2.377836 0 2.789446.5878628 4.041161 3.0902374 1.474406 2.9889182 4.279683 9.8322322 4.279683 9.8322322zm-233.153562 0h9.554618l-14.443272-44.1076939c-1.515567-.5118734-3.40686-.8316623-5.415304-.8316623-2.193139 0-2.972031.2923483-4.691292.8316623l-15.277045 44.1076939h9.159894s1.232718-3.8670184 2.697626-8.6702269h15.835356c1.419525 4.7989868 2.579419 8.6702269 2.579419 8.6702269zm-16.087599-16.066533s2.635356-8.8474934 3.042744-10.2321899c1.068074-3.5620053 2.660686-9.2295515 2.660686-9.2295515h.265963s1.46913 5.8744064 2.43694 9.176781c.367282 1.3044855 2.894987 10.2849604 2.894987 10.2849604zm106.665963-5.0364116c-2.924538 0-5.296042 2.3799473-5.296042 5.3044855 0 2.9372032 2.370449 5.2992085 5.296042 5.2992085 2.921372 0 5.28971-2.3620053 5.28971-5.2992085 0-2.9245382-2.369393-5.3044855-5.28971-5.3044855zm-69.680211-23.7614775h-8.295514v44.8633667h8.295514zm164.866491 19.6538258c4.578364.1044855 5.140897 1.0448549 5.140897 4.8970977v20.3134986h8.219525v-21.0269551c0-4.5931399-.531926-6.2427441-1.750923-7.9197889-1.681267-2.3672824-5.00686-3.3931399-10.612137-3.3931399-5.546175 0-9.074407.5899736-13.628497 1.9440634v30.3947651h8.305014v-24.8190396c2.189973-.3166226 2.563588-.3905013 4.326121-.3905013zm-144.350396-20.4496042c-5.175725 0-7.989446 1.0195251-9.668601 3.3878628-1.217942 1.6759894-1.751979 3.3699208-1.751979 7.9662269v3.9102903h-4.122428v6.7060686h4.122428v23.6886965h8.217414l-.018997-23.6886965h8.208971v-6.7060686h-8.208971l.018997-3.5957784c0-4.1118734.637467-4.9097625 6.129815-4.9097625.589974 0 1.256992.0316622 1.97256.0865435l1.297097-6.441161c-2.033773-.2744063-4.107651-.4042216-6.196306-.4042216zm66.029552.4137203c2.823219-.1635884 9.125066-.3989446 13.094459-.3989446.705013 0 1.44591.0063325 2.204749.0401056 7.795251 0 12.252243 5.6738786 12.252243 12.3250659 0 4.5234829-2.070713 7.5261214-6.925594 9.3192612 5.721372 1.26438 8.715568 5.7298154 8.715568 11.1820581 0 4.005277-1.141953 7.182058-3.223219 9.3541319-2.680739 2.6532982-6.74723 4.1329816-12.158312 4.1308707-4.835884 0-10.8781-.144591-13.96095-.3282322v-45.6243166zm13.095514 7.3562005c-1.389973 0-3.072295.0221636-4.76306.0833774v10.7725593h4.770448c1.869129 0 3.394195-.5255936 4.432718-1.5398417.977308-.9488126 1.48496-2.3007915 1.48496-3.9050132 0-3.4385224-1.85963-5.3952506-5.322427-5.4110818-.287072 0-.41161 0-.602639 0zm.157256 30.8686016h.383114c4.289182 0 6.950923-2.2986807 6.977308-6.9245382-.048548-1.669657-.679683-3.1968338-1.811081-4.3039578-1.258048-1.2538259-3.023747-1.9092348-5.092349-1.9092348 0 0-4.681794 0-5.378364 0v13.0849604c1.516623.0327177 3.184169.0453826 4.921372.0527704z" fill="#e3e8f0"/></svg>