<svg fill="none" height="85" viewBox="0 0 700 85" width="700" xmlns="http://www.w3.org/2000/svg" xmlns:xlink="http://www.w3.org/1999/xlink"><clipPath id="a"><path d="m0 0h700v85h-700z"/></clipPath><g clip-path="url(#a)" fill="#e3e8f0"><path d="m190.1 2.99994c-18.9 4-31.9 12.79996-38 25.99996-2.1 4.5-2.6 7-2.6 14 0 7.6.3 9.2 3.2 15.1 5.8 11.6 16.8 19.7 33.2 24.1 10.9 3 33.3 2.9 44.4 0 16.8-4.6 29.2-14.1 33.8-26 2.7-7.2 3-17.7.6-24.7-3.9-11.4-15.2-21.3-30-26.09996-7.3-2.4-10-2.7-24.2-3-8.8-.2-18 .1-20.4.6zm32.7 19.59996c11.5 5.6 16.1 19.7 10.2 31.4-5.2 10.2-19.8 15.2-34 11.6-12-3.1-18.5-11.1-18.5-22.6.1-9.6 4.1-16.3 12.3-20.4 8.4-4.3 21.2-4.2 30 0z"/><path d="m524 3.59998c-8.6 1.8-18.6 7.00002-22.2 11.50002-3.1 3.8-4.5 9.9-3.4 14.3 1 3.9 6.4 9.4 11.9 12.2 5.9 3 16.1 5.7 31.7 8.4 23 3.9 29.2 7.7 22.8 13.8-3.5 3.1-10.7 4.5-20.8 4-10.5-.6-14.6-2.6-17.3-8.1l-1.9-3.7h-14.8c-8.2 0-15.1.3-15.3.7-.9 1.6 2.4 10 5.3 13.5 4.1 5 15.2 10.2 25.9 12.2 16.6 3.2 41.2 1.6 54.5-3.4 13.4-5.1 20.5-17.1 16.2-27.3-3.7-8.9-15.1-13.9-42.6-18.7-9.6-1.7-19.1-3.9-21-4.8-4.5-2.2-4.7-5.6-.7-8.6 2.4-1.8 4.2-2.1 12-2.1 10.6 0 16.3 2.1 18.5 6.7l1.3 2.8h14.5c16.1 0 16.5-.2 14.4-6.4-2.9-9-20.8-18.50002-34.7-18.60002-.221 0-.431.0052-.63.01516-3.401.1701-3.554 1.72908.13 2.48484 10.3 2.1 19.3 5 23.2 7.30002 4.5 2.8 9.3 8.7 8.7 10.6-.2.7-4.8 1.2-11.9 1.4-11.436.2983-11.5.2011-13.172-2.3569-.009-.0143-.019-.0287-.028-.0431-3-4.5-9.8-6.8-20.1-6.9-7.3 0-9.7.4-12.5 2.1-7.6 4.4-7.5 11 .3 14.4 2.4 1.1 12.1 3.3 21.6 5 18.7 3.3 27.1 5.7 33.2 9.5 7.3 4.7 9.5 11.2 6.1 18.8-5.1 11.6-23.7 17.5-51.7 16.4-19.2-.8-29.7-3.9-37.3-11.1-3.8-3.5-6.6-8.2-5.7-9.6.3-.6 5.7-1 12-1h11.4l2.7 3.6c3.8 5 9.3 7.5 17.9 8.1 14.2 1.1 23.3-1.6 26.3-8 3.2-6.6-3.6-11.4-21.3-14.7-21-3.9-29.5-6.2-35.7-9.3-12.2-6.2-14.2-15.4-5.1-23.8 4.8-4.5 11.6-7.20002 25.6-9.90002 1.417-.27435 2.73-.63234 3.738-.98792.395-.13946.743-.27855 1.033-.41208.41-.29432.929-.7.929-.7s.179-1.28851 0-1.39998c-1.141-.515339-7.218.65443-14 2.09998z"/><path d="m536.038 4.01206c.395-.13946.743-.27855 1.033-.41208.41-.29432.929-.7.929-.7s.179-1.28851 0-1.39998c7.937-1.068413 12.382-.698395 20.3.49998-.221 0-.431.0052-.63.01516-3.401.1701-3.554 1.72908.13 2.48484-8.501-.93287-13.262-1.01412-21.762-.48792z"/><path d="m557.8 4.49998c10.3 2.1 19.3 5 23.2 7.30002 4.5 2.8 9.3 8.7 8.7 10.6-.2.7-4.8 1.2-11.9 1.4-11.436.2983-11.5.2011-13.172-2.3569l-.028-.0431c-3-4.5-9.8-6.8-20.1-6.9-7.3 0-9.7.4-12.5 2.1-7.6 4.4-7.5 11 .3 14.4 2.4 1.1 12.1 3.3 21.6 5 18.7 3.3 27.1 5.7 33.2 9.5 7.3 4.7 9.5 11.2 6.1 18.8-5.1 11.6-23.7 17.5-51.7 16.4-19.2-.8-29.7-3.9-37.3-11.1-3.8-3.5-6.6-8.2-5.7-9.6.3-.6 5.7-1 12-1h11.4l2.7 3.6c3.8 5 9.3 7.5 17.9 8.1 14.2 1.1 23.3-1.6 26.3-8 3.2-6.6-3.6-11.4-21.3-14.7-21-3.9-29.5-6.2-35.7-9.3-12.2-6.2-14.2-15.4-5.1-23.8 4.8-4.5 11.6-7.20002 25.6-9.90002 1.417-.27435 2.73-.63234 3.738-.98792 8.5-.5262 13.261-.44495 21.762.48792z"/><path d="m0 43.1v40.1l37.8-.4c41-.5 44-.9 54.5-6.6 7.1-3.8 10-8 10.5-15.3.3-3.5-.1-7.2-.8-8.9-1.7-4.1-8-9.4-13-10.9-2.2-.6-4-1.5-4-2 0-.4 1.8-1.6 4.1-2.6 10.9-4.9 12.8-16.9 3.9-24.9-7.8-7.00005-18.6-8.60005-60.7-8.60005h-32.3zm61.3-23c7.3 2 8.7 9.2 2.4 12.6-2.6 1.5-5.7 1.8-17.7 1.8h-14.5l-.3-6.4c-.2-3.5-.1-7 .2-7.7.7-1.7 24-2 29.9-.3zm6.5 30.2c6.5 3.5 6.1 10.5-.8 13.9-2.8 1.4-6.7 1.7-19.5 1.9l-16 .1-.3-7.8c-.2-4.2 0-8.4.3-9.1.8-2.3 31.8-1.4 36.3 1z"/><path d="m111 3.49988c0 .3 0 18.20002-.1 39.70002v39.3h15.3 15.3v-39.5-39.50002l-15.2-.3c-8.4-.1-15.3 0-15.3.3z"/><path d="m275 3.69988v39.80002 39h14.2 14.3v-24.3c0-13.3.3-24.2.6-24.2s9.7 11 20.9 24.5l20.2 24.5h5.8c3.1 0 5.9-.3 6.3-.6.3-.3-5.4-7.6-12.7-16.3-7.3-8.6-22.1-26.3-33-39.4l-19.8-23.70002h-8.4c-4.6 0-8.4.3-8.4.7z"/><path d="m304.2 3.79988c.2.4 15 18.40002 33.1 40.00002l32.7 39.2h9 9l-.2-39.8-.3-39.70002h-14-14l-.3 23.70002c-.1 13.1-.6 23.8-1 23.7-.4 0-9.6-10.8-20.5-24l-19.9-23.90002h-7c-3.8 0-6.8.3-6.6.8zm21.3 13.30002c4.9 5.8 13.8 16.2 19.8 23.2 5.9 7 11.3 12.7 12 12.7 4-.1 4.2-1.2 4.7-24.2l.5-22.30002h11 11v36.00002 36l-6.5.3c-6.2.3-6.7.1-9.7-3-8.3-8.8-57.2-68.20002-56.7-69.00002 1.5-2.5 5.5.5 13.9 10.30002z"/><path d="m325.5 17.0999c4.9 5.8 13.8 16.2 19.8 23.2 5.9 7 11.3 12.7 12 12.7 4-.1 4.2-1.2 4.7-24.2l.5-22.30002h11 11v36.00002 36l-6.5.3c-6.2.3-6.7.1-9.7-3-8.3-8.8-57.2-68.20002-56.7-69.00002 1.5-2.5 5.5.5 13.9 10.30002z"/><path d="m396.5 4.19988c-.3.7-.4 18.60002-.3 39.80002l.3 38.5h48 48v-8.5-8.5l-32.5-.5-32.5-.5v-7.5-7.5l29-.1h29v-8-7.9l-29-.1-29-.1v-6.9-6.9l31.5-.2 31.5-.2v-7.8-7.80002l-46.8-.3c-36.9-.2-46.9 0-47.2 1zm91 6.80002v4.5l-29.8.5-29.9.5-2 2.5c-1.6 2-1.9 3.5-1.6 8.3.7 9.5-.3 9.2 30.3 9.5 25.6.3 26.5.4 27.6 2.4.8 1.5.8 2.7 0 4.4l-1 2.3-26.5.3c-30.9.3-29.8 0-30.4 10.1-.3 5.1-.1 6.7 1.6 8.7l2 2.5 30.9.5 30.8.5.3 4.7c.2 3.7-.1 4.8-1.5 5.5-1 .4-21.1.6-44.8.3l-43-.5-.3-35c-.1-19.2 0-35.60002.3-36.30002.3-1 9.5-1.2 43.7-1l43.3.3z"/><path d="m487.5 10.9999v4.5l-29.8.5-29.9.5-2 2.5c-1.6 2-1.9 3.5-1.6 8.3.7 9.5-.3 9.2 30.3 9.5 25.6.3 26.5.4 27.6 2.4.8 1.5.8 2.7 0 4.4l-1 2.3-26.5.3c-30.9.3-29.8 0-30.4 10.1-.3 5.1-.1 6.7 1.6 8.7l2 2.5 30.9.5 30.8.5.3 4.7c.2 3.7-.1 4.8-1.5 5.5-1 .4-21.1.6-44.8.3l-43-.5-.3-35c-.1-19.2 0-35.60002.3-36.30002.3-1 9.5-1.2 43.7-1l43.3.3z"/><path d="m598.4 4.29988c-.3.8-.4 4.7-.2 8.80002l.3 7.4 17.6.3 17.6.2v30.8l.1 30.7h15.2 15.1l.2-30.5.2-30.5 17.8-.3c14.8-.2 17.7-.5 17.7-1.7 0-.5785-.554-.9391-2.5-1.1613-2.427-.2771-7.019-.3387-15.4-.3387-15.4 0-18 .2-19.2 1.7-1.1 1.2-1.5 8-1.9 30.2l-.5 28.6h-11.5-11.5l-.5-28.6c-.4-22.2-.8-29-1.9-30.2-1.1-1.5-3.6-1.7-16.6-1.7-17.3 0-17.8-.2-17.3-7.2l.3-4.30002 49.3-.3c30.043-.14039 42.151-.28078 46.7-.80163 1.931-.22115 2.5-.5109 2.5-.89837 0-1.3-6.4-1.5-50.5-1.5-41.4 0-50.7.2-51.1 1.3z"/><path d="m700 19.4999c0-.5785-.554-.9391-2.5-1.1613v-12.94035c1.931-.22115 2.5-.5109 2.5-.89837z"/><path d="m682.1 17.9999c-15.4 0-18 .2-19.2 1.7-1.1 1.2-1.5 8-1.9 30.2l-.5 28.6h-11.5-11.5l-.5-28.6c-.4-22.2-.8-29-1.9-30.2-1.1-1.5-3.6-1.7-16.6-1.7-17.3 0-17.8-.2-17.3-7.2l.3-4.30002 49.3-.3c30.043-.14039 42.151-.28078 46.7-.80163v12.94035c-2.427-.2771-7.019-.3387-15.4-.3387z"/></g></svg>