<svg fill="none" height="30" viewBox="0 0 172 30" width="172" xmlns="http://www.w3.org/2000/svg" xmlns:xlink="http://www.w3.org/1999/xlink"><clipPath id="a"><path d="m0 0h172v30h-172z"/></clipPath><g clip-path="url(#a)" fill="#e3e8f0"><path d="m25 10.8 1-3.90001h-.4l-1.1 3.90001z"/><path d="m26.2001 10.8 1-3.90001h-.6l-1 3.90001z"/><path d="m46.8 6.89999h-.7-18l-1 3.90001h6.9c-.8.5-9.8 6.4-15 9.9l-1.5 5.6z"/><path d="m25.2 6.89999h-2v3.90001h.9z"/><path d="m16.2999 0h-.3l-1.1 3.9h.4z"/><path d="m17.2001 0h-.5l-1.1 3.9h.5z"/><path d="m17.7 0-1 3.9h.6l1-3.9z"/><path d="m39.3 0h-20l-1 3.9h8.9c-1.2.8-15 9.9-15 9.9l2.1 3.2 25.7-17z"/><path d="m2 16.9 1-3.9h-.4l-1.1 3.9z"/><path d="m2.20005 13h-.3l-1.100001 3.9h.300001z"/><path d="m3.2001 16.9 1-3.9h-.6l-1 3.9z"/><path d="m25.8 13h-.8-20l-1 3.9h8.8c-.8.5-7.1 4.7-11.3 7.4l-1.5 5.7z"/><path d="m60.1 14.4v-.2c2.1-.4 3.6-1.1 4.4-1.8.9-.8 1.4001-1.9 1.4001-3.2 0-1.8-.6001-3.1-1.9001-3.9s-3.3-1.3-6-1.3h-10.5-.2v.7h3.1v20.1h-3.1v.7h10.7c2.8 0 4.9001-.5 6.4001-1.4 1.5-1 2.1999-2.4 2.1999-4.2 0-1.6-.5999-2.8-1.6999-3.8-1.1-.9-2.8001-1.5-4.8001-1.7zm0-1.5c-.5.5-1.6 1.2-3.7 1.2h-1.6v-9.3h2.3c1.8 0 2.8.9 3.2 1.4.5.6.8 1.8.8 3.4 0 1.5-.3 2.6-1 3.3zm-5.3 1.9h1.8c2.3 0 3.5.8 4 1.3.8.7 1.2 1.9 1.2 3.6 0 1.8-.2999 3.1-.8999 3.7-.4.4-1.5001 1.5-3.5001 1.5h-2.6z"/><path d="m79.8 13.1c-.5-.4-1.1-.6-1.8-.6-.9 0-1.8.3-2.5.8s-1.2999 1.3-1.7999 2.3c0-.3 0-2.8 0-2.8h-.2001-5.5999v.6h2.0999v11.5h-2.2v.6h8.6001v-.6h-2.8001v-6.7c0-1.1.3-2.2 1-3.1.6-.9 1.3-1.4 2-1.4.1 0 .2001.1.3001.1v.6l-.1001.6c0 .5.2.9.5 1.2s.8001.4 1.4001.4c.5 0 .9999-.2 1.2999-.5.3-.4.5-.8.5-1.4s-.2-1.1-.7-1.6z"/><path d="m101.9 13-.2-.1h-.9-4.7v.6h2.1v11.4h-2.4v.6h8.4v-.6h-2.2c0-.3-.1-11.9-.1-11.9z"/><path d="m120.3 16.4c0-1.3-.4-2.2-1-2.9-.7-.6-1.7-1-3-1-1 0-1.8.2-2.6.7-.7.5-1.4 1.2-2 2.2v-2.4l-.2-.1h-5.6v.6h2.2v11.4h-2.2v.6h7.9v-.6h-2v-6.7c0-1.2.4-2.4 1.1-3.4.7-.9 1.5-1.4 2.4-1.4.5 0 .9.1 1.1.3s.3.8.3 1.5v9.6h-1.9v.6h7.6v-.6h-2v-8.4z"/><path d="m133.9 15.9c3 0 5.3-.5 6.8-1.4 1.5-1 2.2-2.5 2.2-4.4 0-1.99999-.7-3.49999-2.2-4.49999-1.4-1-3.6-1.5-6.4-1.5h-10.4-.2v.7h3.1v20.09999h-3.1v.7h10.8v-.7h-3.3v-9zm-2.6-11.09999h2.4c2 0 3.1 1 3.5 1.4.6.7.9 1.9.9 3.6 0 1.89999-.4 3.19999-1.1 3.89999-.6.6-1.9 1.5-4 1.5h-1.7z"/><path d="m93.4999 24.5c-.1 0-.2.2-.4.2-.3 0-.5-.1-.5-.1-.1-.1-.2-.2-.2-.4v-7.6s0-1.6-.2-2.1c-.2-.6-.8-.9-.8-.9s-.5-.4-1.8-.7c-1.4-.3-2.5-.2-2.5-.2-1.5 0-2.7.3-3.7.9s-1.5 1.4-1.5 2.3c0 .5.1.9.4 1.2s.7.4 1.2.4c.3 0 .9 0 1.3-.4s.5-.8.5-1.4c0-.5-.3-1.1-.4-1.3s-.2-.4-.3-.5c0-.1.2-.3.6-.4.3-.1.9-.3 1.7-.3.7 0 1.2.1 1.4.4.2.2.4.8.4 2.2v2.3h-1.1c-1.9 0-3.5.4-4.8 1.2s-1.9 1.9-1.9 3.2c0 1.1.3 2 .9 2.6s1.5.9 2.6.9c.9 0 1.7-.2 2.5-.5.7-.3 1.4-.9 2-1.6.1.7.3 1.2.8 1.6.4.4 1 .5 1.6.5.7 0 1.3-.2 1.9-.5s1-.8 1.3-1.4l.1-.2-.4-.2c-.2.4-.6.7-.7.8zm-8.9-2.5c0-.9.3-2 1-2.4s1.8-.7 3.2-.7v3.5c0 .8-.1 1.1-.6 1.6s-1 .7-1.6.7-1.1-.2-1.5-.5c-.5-.7-.5-1.6-.5-2.2z"/><path d="m170 25.1v-21l-.2-.1h-1-4.6v.6h2v9.9h-.2c-.4-.6-1-1.1-1.6-1.4s-1.3-.5-2.1-.5c-1.7 0-3.2.6-4.3 1.9-1.2 1.3-1.7 2.9-1.7 4.8s.6 3.5 1.7 4.8 2.5 1.9 4.2 1.9c.8 0 1.5-.2 2.2-.5.6-.3 1.2-.8 1.7-1.5h.1v1.7l.2.1h5.6v-.6zm-9.1-.5c-.3-.5-.5-1.7-.5-3v-4.4c0-1.6.2-2.9.5-3.4s.8-.7 1.6-.7c.9 0 1.8.4 2.5 1.2s1.1 1.7 1.1 2.7v4.2c0 1.2-.4 2.2-1.1 2.9s-1.7 1.1-2.7 1.1c-.7.1-1.1-.1-1.4-.6z"/><path d="m110 4.89999h-3.2-5.1v.6h4.2l-8.9 6.30001h5.1l9.8-6.90001z"/><path d="m154.1 24.5c-.1 0-.2.2-.4.2-.3 0-.5-.1-.5-.1-.1-.1-.2-.2-.2-.4v-7.6s0-1.6-.2-2.1c-.2-.6-.8-.9-.8-.9s-.5-.4-1.8-.7c-1.4-.3-2.5-.2-2.5-.2-1.5 0-2.7.3-3.7.9s-1.5 1.4-1.5 2.3c0 .5.1.9.4 1.2s.7.4 1.2.4c.3 0 .9 0 1.3-.4s.5-.8.5-1.4c0-.5-.3-1.1-.4-1.3s-.2-.4-.3-.5c0-.1.2-.3.6-.4.3-.1.9-.3 1.7-.3.7 0 1.2.1 1.4.4.2.2.4.8.4 2.2v2.3h-1.1c-1.9 0-3.5.4-4.8 1.2s-1.9 1.9-1.9 3.2c0 1.1.3 2 .9 2.6s1.5.9 2.6.9c.9 0 1.7-.2 2.5-.5.7-.3 1.4-.9 2-1.6.1.7.3 1.2.8 1.6.4.4 1 .5 1.6.5.7 0 1.3-.2 1.9-.5s1-.8 1.3-1.4l.1-.2-.4-.2c-.2.4-.6.7-.7.8zm-8.9-2.5c0-.9.3-2 1-2.4s1.8-.7 3.2-.7v3.5c0 .8-.1 1.1-.6 1.6s-1 .7-1.6.7-1.1-.2-1.5-.5c-.5-.7-.5-1.6-.5-2.2z"/></g></svg>