<svg fill="none" height="191" viewBox="0 0 662 191" width="662" xmlns="http://www.w3.org/2000/svg"><g fill="#e3e8f0"><path d="m283.422 111.178v28.513c5.504 0 11.012-.119 15.862-.119 14.158 0 17.041-8.13 17.041-14.14 0-5.89-3.801-14.254-17.827-14.254zm0-9.659h13.766c12.321 0 15.072-6.5999 15.072-12.1372 0-5.7707-2.49-12.1333-14.811-12.1333-3.672 0-9.833 0-14.027-.1187zm14.287-33.8132c19.272 0 28.58 8.012 28.58 21.324 0 7.424-4.983 13.9012-12.323 16.4962 8.912 2.354 16.65 10.482 16.65 20.617 0 13.076-9.442 22.973-31.2 22.973-10.619 0-19.14-.238-28.972-.354l-.787-.824v-79.0549l.787-.824c9.57-.1186 18.614-.3533 27.265-.3533"/><path d="m354.841 106.231c5.11-.118 10.878-.237 14.55-.237 12.848 0 15.994-7.3028 15.994-14.1361 0-7.188-3.146-14.256-15.994-14.256-3.804 0-10.093 0-14.55-.1187zm28.184 7.068c4.325 1.416 7.47 5.419 9.306 10.016l5.768 13.783c1.312 3.181 2.883 6.361 5.898 8.484-1.832 2.471-5.898 3.887-9.436 3.887-5.244 0-7.08-2.594-9.176-7.659l-6.558-15.905c-2.225-5.419-5.11-9.659-13.24-9.659h-10.746v32.399c-2.096.352-4.723.472-6.947.472-2.1 0-4.851-.12-6.819-.472v-79.7618l.787-.824c9.832-.1186 19.272-.3533 28.183-.3533 18.222 0 29.76 8.484 29.76 24.152 0 10.8401-7.212 18.7331-16.78 21.4411"/><path d="m434.916 118.955c2.1 0 5.64-.119 6.687-.119h13.108c.917 0 4.456.119 6.558.119l-6.034-17.083c-2.356-6.8329-5.111-15.0809-6.947-21.3236h-.653c-1.31 5.3-3.672 12.724-5.115 17.084zm-3.539 10.131-6.946 19.676c-1.706.354-3.932.472-6.03.472-2.493 0-4.982-.356-6.818-.824l-.394-.591 29.628-79.6412c2.096-.3534 5.768-.472 7.998-.472 2.228 0 5.896.1186 7.864.472l29.366 79.6412c-1.969 1.177-5.114 1.649-8.129 1.649-4.325 0-6.555-1.416-8.257-6.596l-4.851-13.786c-2.229 0-6.819.118-7.868.118h-17.959c-1.05 0-5.374-.118-7.604-.118"/><path d="m498.484 131.68c7.604 4.473 17.305 8.012 26.348 8.012 10.618 0 16.646-4.598 16.78-11.078 0-5.537-4.326-9.777-11.931-12.721l-15.468-6.009c-11.012-4.243-17.959-10.3682-17.959-20.3829 0-12.8426 12.058-22.8547 29.627-22.8547 10.88 0 20.972 3.0627 27.792 6.1241-.133 3.5346-2.229 7.4213-5.115 9.7813-6.816-3.0654-15.729-5.54-22.416-5.54-9.7 0-15.73 4.8306-15.73 11.0773 0 5.184 4.458 8.1267 10.88 10.6027l15.209 5.8892c11.271 4.24 19.661 11.428 19.661 21.915 0 13.548-10.486 23.68-32.116 23.68-10.884 0-22.681-3.302-31.464-8.838.394-3.649 3.015-7.541 5.902-9.658"/><path d="m572.451 68.1778c1.97-.3533 4.851-.472 6.947-.472 2.1 0 4.851.1187 6.951.472v80.4662c-2.1.352-4.851.472-6.951.472-2.096 0-4.977-.12-6.947-.472z"/><path d="m660.82 137.804c0 1.297-.134 3.419-.394 4.949-.786 4.007-4.065 6.01-9.046 6.01h-34.214c-4.717 0-8.129-2.71-8.129-7.778v-72.5728l.919-.7067h5.242c5.768 0 7.87 2.476 7.87 8.0133v62.5572c4.058-.353 8.124-.472 11.664-.472z"/><path d="m277.611 35.0775c1.962-.0613 4.099-.1213 4.988-.1213 5.283 0 6.351-4.3334 6.351-7.4774 0-3.2066-1.068-7.4826-6.351-7.4826-1.482 0-3.205 0-4.988-.06zm5.462 6.0547h-5.462v13.476c-1.245.2386-2.849.2946-3.976.2946-1.068 0-2.729-.056-3.978-.2946v-40.2507l.417-.356c4.748-.12 8.727-.2373 12.999-.2373 8.193 0 14.069 4.4533 14.069 13.7146 0 8.964-5.876 13.6534-14.069 13.6534z"/><path d="m308.602 39.1154c.832 0 2.078-.06 2.672-.06h5.104c.534 0 1.662.06 2.495.06l-1.783-6.0587c-1.006-3.384-2.316-7.9546-3.205-11.516h-.356c-.593 3.0267-1.84 7.304-2.611 10.032zm-1.961 6.2893-2.789 9.264c-1.01.2347-2.194.296-3.444.296-1.244 0-2.848-.1786-3.799-.5346l-.295-.416 13.238-39.9547c1.305-.1787 3.266-.296 4.633-.296 1.244 0 3.323.1173 4.571.356l12.998 39.956c-1.126.6507-3.026 1.0107-4.57 1.0107-2.552 0-3.8-.8934-4.75-4.2774l-1.661-5.404c-.889 0-2.316.0614-2.911.0614h-8.31c-.594 0-1.96 0-2.911-.0614"/><path d="m340.008 25.045c0-1.6054.056-2.732.056-4.3934h-.056c-.833 0-2.733.056-3.565.056h-6.588c-.239-1.184-.3-2.372-.3-3.3226 0-.8894.061-2.1374.3-3.3267h28.379c.234.8333.413 2.0773.413 3.0893 0 2.6107-1.363 3.56-4.273 3.56h-2.788c-.834 0-2.734-.056-3.566-.056h-.057c0 1.6614.057 2.788.057 4.3934v29.5626c-1.368.24-2.85.296-4.034.296-1.132 0-2.616-.056-3.978-.296z"/><path d="m371.649 32.8783c2.079-.1173 4.333-.1773 5.461-.1773 5.166 0 6.35-3.1454 6.35-6.4107 0-3.3227-1.184-6.412-6.35-6.412-1.428 0-3.621 0-5.461-.06zm12.584 4.2773c2.137.772 3.56 2.788 4.392 5.2214l2.2 5.9986c.589 1.6614 1.483 3.2654 2.789 4.3334-1.01 1.4226-3.206 2.376-5.284 2.376-2.91 0-3.921-1.604-5.048-4.692l-2.494-7.0667c-.89-2.372-2.078-4.272-5.522-4.272h-3.617v15.5533c-1.309.24-2.853.296-3.981.296-1.006 0-2.671-.056-3.918-.296v-40.2493l.418-.356c4.749-.1213 9.26-.2387 13.536-.2387 8.25 0 13.949 4.0947 13.949 12.5267 0 5.6387-3.561 9.4987-7.42 10.8653"/><path d="m400.024 14.0587c1.189-.2347 2.911-.2947 3.977-.2947 1.128 0 2.672.06 3.978.2947v40.5493c-1.306.2387-2.85.2947-3.978.2947-1.066 0-2.788-.056-3.977-.2947z"/><path d="m426.204 39.1154c.833 0 2.078-.06 2.672-.06h5.105c.533 0 1.661.06 2.493.06l-1.782-6.0587c-1.007-3.384-2.315-7.9546-3.204-11.516h-.356c-.595 3.0267-1.84 7.304-2.612 10.032zm-1.96 6.2893-2.79 9.264c-1.009.2347-2.198.296-3.444.296-1.244 0-2.848-.1786-3.798-.5346l-.296-.416 13.238-39.9547c1.306-.1787 3.266-.296 4.632-.296 1.246 0 3.323.1173 4.567.356l13.004 39.956c-1.127.6507-3.027 1.0107-4.571 1.0107-2.552 0-3.8-.8934-4.75-4.2774l-1.662-5.404c-.889 0-2.314.0614-2.91.0614h-8.31c-.593 0-1.961 0-2.91-.0614"/><path d="m476.37 39.1154c.832 0 2.078-.06 2.671-.06h5.105c.534 0 1.662.06 2.494.06l-1.783-6.0587c-1.005-3.384-2.315-7.9546-3.204-11.516h-.356c-.595 3.0267-1.84 7.304-2.612 10.032zm-1.961 6.2893-2.789 9.264c-1.01.2347-2.195.296-3.444.296-1.244 0-2.848-.1786-3.799-.5346l-.295-.416 13.238-39.9547c1.305-.1787 3.265-.296 4.633-.296 1.244 0 3.321.1173 4.569.356l13 39.956c-1.126.6507-3.026 1.0107-4.57 1.0107-2.552 0-3.8-.8934-4.751-4.2774l-1.661-5.404c-.888 0-2.315.0614-2.911.0614h-8.309c-.594 0-1.962 0-2.911-.0614"/><path d="m507.295 14.1193c1.723-.2947 3.981-.416 5.344-.416 1.427 0 3.383.1213 5.048.416l4.572 16.4466c.416 1.6627 1.899 7.7774 2.255 10.1494h.417c.355-2.372 1.839-8.4867 2.255-10.1494l4.512-16.4466c1.782-.2947 3.681-.416 5.044-.416 1.426 0 3.621.1213 5.404.416l3.144 40.372c-1.128.2946-2.728.412-4.034.412-1.249 0-2.377-.056-3.504-.2347l-1.128-19.0573c-.238-3.6827-.472-9.144-.472-12.8814h-.417l-6.948 25.824c-1.185.1774-2.967.2947-4.095.2947-1.072 0-2.849-.1173-4.037-.2947l-6.944-25.824h-.417c-.062 3.7374-.239 9.1987-.476 12.8814l-1.128 19.0573c-1.128.1787-2.312.2347-3.562.2347-1.245 0-2.85-.1174-3.977-.412z"/><path d="m562.214 39.1154c.832 0 2.079-.06 2.672-.06h5.105c.532 0 1.66.06 2.494.06l-1.783-6.0587c-1.007-3.384-2.316-7.9546-3.205-11.516h-.356c-.594 3.0267-1.839 7.304-2.611 10.032zm-1.961 6.2893-2.79 9.264c-1.009.2347-2.193.296-3.442.296-1.246 0-2.85-.1786-3.799-.5346l-.296-.416 13.237-39.9547c1.306-.1787 3.267-.296 4.634-.296 1.244 0 3.322.1173 4.57.356l12.999 39.956c-1.127.6507-3.027 1.0107-4.571 1.0107-2.552 0-3.8-.8934-4.749-4.2774l-1.661-5.404c-.89 0-2.316.0614-2.911.0614h-8.311c-.593 0-1.96 0-2.91-.0614"/><path d="m605.549 20.0574c-2.255 0-4.095 0-6.472-.06v28.6733c2.377-.0573 4.217-.0573 6.472-.0573 7.776 0 8.904-7.78 8.904-14.308 0-6.532-1.128-14.248-8.904-14.248zm10.626 31.8786c-2.61 2.1387-7.422 2.9667-10.626 2.9667-4.988 0-8.844-.1173-14.011-.2347l-.415-.3546v-39.9547l.415-.3573c5.105-.1774 9.023-.2374 14.011-.2374 3.204 0 8.016.832 10.626 2.9667 5.46 4.3933 6.471 10.6867 6.471 17.5747 0 6.944-.951 13.2373-6.471 17.6306"/><path d="m637.666 39.1154c.833 0 2.079-.06 2.672-.06h5.105c.534 0 1.662.06 2.494.06l-1.783-6.0587c-1.007-3.384-2.316-7.9546-3.204-11.516h-.357c-.594 3.0267-1.839 7.304-2.611 10.032zm-1.96 6.2893-2.789 9.264c-1.01.2347-2.199.296-3.444.296-1.244 0-2.85-.1786-3.799-.5346l-.296-.416 13.239-39.9547c1.304-.1787 3.265-.296 4.632-.296 1.244 0 3.322.1173 4.566.356l13.004 39.956c-1.128.6507-3.028 1.0107-4.57 1.0107-2.552 0-3.8-.8934-4.751-4.2774l-1.661-5.404c-.89 0-2.316.0614-2.911.0614h-8.309c-.595 0-1.962 0-2.911-.0614"/><path d="m321.228.175278c1.174.616 2.776 2.473332 3.192 4.238662l-9.833 5.84536c-.992-.36136-1.899-1.67469-2.193-2.66002z"/><path d="m279.467 173.323 4.53-.029c2.04 0 3.059.962 3.059 2.885v7.591c-2.481.786-5.088 1.181-7.82 1.181-1.385 0-2.611-.231-3.68-.692-1.067-.461-1.961-1.125-2.683-1.991-.72-.865-1.265-1.929-1.629-3.189-.367-1.259-.549-2.688-.549-4.285 0-1.75.254-3.275.765-4.574.509-1.298 1.192-2.38 2.048-3.246s1.841-1.515 2.959-1.948c1.114-.432 2.278-.648 3.49-.648 2.502 0 4.85.69 7.042 2.076-.019.308-.092.621-.216.938-.126.318-.28.626-.462.923-.184.299-.394.568-.636.808-.241.241-.485.448-.736.621-1.597-1.038-3.213-1.56-4.846-1.56-3.138 0-4.706 2.195-4.706 6.582 0 4.368 1.607 6.549 4.819 6.549.444 0 .872-.019 1.285-.056.414-.04.823-.096 1.227-.173v-1.934c0-.444.004-.829.015-1.156.009-.325.024-.605.042-.836h-1.442c-.827 0-1.4-.158-1.718-.476-.317-.318-.474-.812-.474-1.486 0-.578.105-1.203.316-1.875"/><path d="m304.89 179.152c.52 1.5 1.568 2.25 3.145 2.25.79 0 1.43-.196 1.92-.591s.875-.895 1.154-1.5c.278-.605.466-1.285.564-2.035.094-.752.142-1.492.142-2.222 0-.674-.022-1.423-.07-2.252-.05-.827-.19-1.6-.42-2.322-.231-.721-.596-1.326-1.096-1.817s-1.232-.736-2.194-.736c-.922 0-1.629.235-2.12.705-.492.472-.857 1.054-1.097 1.746-.24.693-.391 1.429-.448 2.209-.057.777-.085 1.467-.085 2.064 0 .884.042 1.672.129 2.364.087.693.245 1.405.476 2.137zm-2.337 3.982c-2.059-1.712-3.087-4.531-3.087-8.455 0-1.693.196-3.179.591-4.459.394-1.278.961-2.352 1.701-3.217.741-.867 1.641-1.519 2.7-1.963 1.057-.442 2.251-.662 3.577-.662 1.328 0 2.526.22 3.594.662 1.066.444 1.97 1.103 2.712 1.976.741.876 1.308 1.954 1.702 3.232.394 1.28.592 2.756.592 4.431 0 1.673-.198 3.149-.592 4.429s-.961 2.352-1.702 3.218c-.742.865-1.646 1.52-2.712 1.962-1.068.442-2.266.663-3.594.663-2.192 0-4.02-.605-5.482-1.817"/><path d="m336.43 180.653 3.78-15.843c.463-.116 1.058-.174 1.79-.174 1 0 1.789.106 2.365.317l.175.232-5.398 19.333c-1.096.116-2.197.174-3.304.174-1.105 0-1.904-.139-2.394-.419-.491-.279-.862-.832-1.111-1.659l-4.791-17.4c1.039-.442 1.895-.665 2.568-.665.808 0 1.404.184 1.79.549.384.364.682.943.894 1.731l2.222 8.225c.346 1.29.712 3.039 1.097 5.251.037.231.144.348.317.348"/><path d="m361.42 178.69-.028 2.078v.028c.881-.037 1.59-.058 2.126-.058h6.674c0 .713-.028 1.261-.087 1.646-.229 1.482-1.212 2.222-2.943 2.222h-7.676c-.828 0-1.477-.24-1.948-.722-.472-.481-.706-1.136-.706-1.962v-16.91l.201-.202h12.437c.116.558.174 1.165.174 1.818 0 .652-.135 1.336-.404 2.048h-7.848l.028 2.078v2.02c.497-.019 1.148-.028 1.953-.028h4.396c.172.537.259 1.153.259 1.846 0 .692-.087 1.327-.259 1.904h-6.349z"/><path d="m387.881 168.07v5.685c.865 0 1.606-.015 2.221-.043.616-.029 1.112-.145 1.487-.348.376-.204.658-.489.852-.856.19-.366.289-.898.289-1.596 0-1.876-.905-2.812-2.712-2.812h-1.199c-.356 0-.669-.009-.938-.03zm9.552 2.828c0 .636-.096 1.236-.29 1.804-.192.568-.446 1.078-.764 1.529-.317.453-.693.848-1.125 1.184-.433.336-.881.591-1.343.764 1 .367 1.742 1.252 2.222 2.655l.868 2.453c.325.963.806 1.672 1.441 2.135-.288.385-.721.708-1.299.966-.576.262-1.212.391-1.904.391s-1.23-.199-1.616-.593c-.385-.394-.741-1.082-1.068-2.063l-1.038-3.029c-.212-.578-.496-1.02-.852-1.327-.356-.308-.89-.463-1.6-.463h-1.184v7.215c-.616.115-1.386.173-2.308.173-.924 0-1.684-.058-2.279-.173v-19.565l.201-.203c1.674-.037 3.082-.065 4.227-.087 1.144-.018 2.044-.028 2.699-.028 1.057 0 2.02.13 2.885.39s1.603.649 2.208 1.169 1.076 1.173 1.413 1.961c.336.79.506 1.703.506 2.742"/><path d="m426.463 164.608.201.202v19.622c-.771.174-1.679.26-2.728.26-1.048 0-1.976-.057-2.783-.173l-4.532-10.331c-.538-1.172-1.086-2.529-1.644-4.068l-.088.028c.232 2.81.347 5.686.347 8.628v5.743c-.596.116-1.317.173-2.164.173s-1.559-.057-2.134-.173v-19.623c.73-.173 1.61-.26 2.64-.26 1.028 0 1.947.059 2.755.174l4.474 10.301c.806 1.905 1.404 3.368 1.789 4.387l.115-.059c-.231-2.672-.347-5.509-.347-8.511v-3.52c0-1.001.201-1.718.607-2.15.404-.435 1.057-.65 1.962-.65z"/><path d="m445.191 179.152c.518 1.5 1.568 2.25 3.144 2.25.789 0 1.429-.196 1.92-.591.49-.395.874-.895 1.153-1.5.28-.605.467-1.285.564-2.035.095-.752.144-1.492.144-2.222 0-.674-.024-1.423-.072-2.252-.048-.827-.188-1.6-.419-2.322-.232-.721-.596-1.326-1.096-1.817-.501-.491-1.232-.736-2.194-.736-.923 0-1.63.235-2.12.705-.492.472-.856 1.054-1.098 1.746-.24.693-.389 1.429-.448 2.209-.057.777-.085 1.467-.085 2.064 0 .884.043 1.672.131 2.364.085.693.244 1.405.476 2.137zm-2.339 3.982c-2.059-1.712-3.087-4.531-3.087-8.455 0-1.693.196-3.179.591-4.459.395-1.278.963-2.352 1.703-3.217.741-.867 1.641-1.519 2.698-1.963 1.059-.442 2.251-.662 3.578-.662 1.328 0 2.526.22 3.593.662 1.068.444 1.972 1.103 2.713 1.976.74.876 1.307 1.954 1.702 3.232.394 1.28.592 2.756.592 4.431 0 1.673-.198 3.149-.592 4.429-.395 1.28-.962 2.352-1.702 3.218-.741.865-1.645 1.52-2.713 1.962-1.067.442-2.265.663-3.593.663-2.192 0-4.02-.605-5.483-1.817"/><path d="m490.869 168.734.028 2.25v1.818h6.207c.152.578.23 1.208.23 1.891 0 .684-.078 1.312-.23 1.891h-6.207v7.934c-.611.116-1.375.174-2.293.174s-1.683-.058-2.294-.174v-19.534l.202-.174h12.35c.116.48.174 1.082.174 1.803s-.198 1.255-.594 1.603c-.394.345-1.017.518-1.868.518z"/><path d="m516.205 178.69-.028 2.078v.028c.881-.037 1.591-.058 2.128-.058h6.672c0 .713-.028 1.261-.085 1.646-.231 1.482-1.214 2.222-2.943 2.222h-7.677c-.827 0-1.478-.24-1.948-.722-.472-.481-.707-1.136-.707-1.962v-16.91l.203-.202h12.437c.115.558.172 1.165.172 1.818 0 .652-.135 1.336-.403 2.048h-7.849l.028 2.078v2.02c.499-.019 1.149-.028 1.953-.028h4.396c.174.537.259 1.153.259 1.846 0 .692-.085 1.327-.259 1.904h-6.349z"/><path d="m545.524 181.085c2.537 0 3.808-2.136 3.808-6.406 0-4.288-1.271-6.435-3.808-6.435h-1.632c-.471 0-.88-.009-1.227-.028v12.897c.347-.018.756-.028 1.227-.028zm5.309 2.163c-.616.501-1.424.867-2.425 1.097-1 .232-2.105.347-3.317.347-.596 0-1.458-.011-2.583-.029-1.125-.02-2.535-.048-4.228-.086l-.201-.202v-19.422l.201-.201c1.116-.039 2.275-.067 3.477-.087 1.203-.02 2.467-.029 3.795-.029 1.636 0 3 .26 4.099.78 1.096.519 1.97 1.231 2.624 2.135s1.116 1.966 1.386 3.188c.27 1.224.403 2.536.403 3.94 0 1.924-.221 3.588-.663 4.992-.442 1.405-1.297 2.598-2.568 3.577"/><path d="m571.782 178.69-.028 2.078v.028c.882-.037 1.592-.058 2.128-.058h6.673c0 .713-.029 1.261-.087 1.646-.23 1.482-1.213 2.222-2.942 2.222h-7.676c-.828 0-1.479-.24-1.948-.722-.474-.481-.707-1.136-.707-1.962v-16.91l.201-.202h12.438c.114.558.173 1.165.173 1.818 0 .652-.135 1.336-.404 2.048h-7.849l.028 2.078v2.02c.498-.019 1.149-.028 1.954-.028h4.395c.173.537.26 1.153.26 1.846 0 .692-.087 1.327-.26 1.904h-6.349z"/><path d="m598.244 168.07v5.685c.865 0 1.607-.015 2.221-.043.616-.029 1.111-.145 1.487-.348.376-.204.659-.489.852-.856.191-.366.289-.898.289-1.596 0-1.876-.906-2.812-2.713-2.812h-1.199c-.356 0-.668-.009-.937-.03zm9.551 2.828c0 .636-.096 1.236-.288 1.804s-.447 1.078-.766 1.529c-.316.453-.692.848-1.125 1.184-.432.336-.88.591-1.341.764 1 .367 1.741 1.252 2.221 2.655l.867 2.453c.326.963.808 1.672 1.442 2.135-.288.385-.721.708-1.298.966-.576.262-1.212.391-1.904.391s-1.231-.199-1.616-.593c-.386-.394-.742-1.082-1.068-2.063l-1.039-3.029c-.212-.578-.496-1.02-.852-1.327-.356-.308-.889-.463-1.6-.463h-1.184v7.215c-.616.115-1.385.173-2.308.173-.924 0-1.684-.058-2.28-.173v-19.565l.203-.203c1.673-.037 3.081-.065 4.226-.087 1.144-.018 2.043-.028 2.699-.028 1.056 0 2.02.13 2.884.39.867.26 1.603.649 2.209 1.169s1.076 1.173 1.414 1.961c.336.79.504 1.703.504 2.742"/><path d="m626.003 176.757 1.155-.03h2.107c.097 0 .265.006.504.015.241.009.42.015.536.015l-.492-1.79c-.462-1.616-.991-3.598-1.587-5.944h-.173c-.154.827-.616 2.664-1.384 5.512zm.087 3.636c-.519 0-.903-.01-1.155-.028l-1.24 4.182c-.461.115-1.106.174-1.933.174-.924 0-1.673-.106-2.251-.318l-.145-.23 6.349-19.363c.751-.115 1.626-.173 2.627-.173 1.133 0 2.037.068 2.712.202l6.233 19.391c-.674.367-1.433.549-2.28.549-1.001 0-1.701-.173-2.106-.521-.404-.345-.751-1.009-1.039-1.989l-.549-1.904c-.25.018-.624.028-1.124.028z"/><path d="m656.89 180.622h5.011c0 .771-.048 1.43-.144 1.976-.098.551-.404 1.023-.924 1.415-.519.395-1.202.592-2.048.592h-6.522c-.828 0-1.481-.239-1.962-.721-.482-.482-.722-1.136-.722-1.963v-17.111l.202-.202h1.692c1.796 0 2.694.982 2.694 2.942v13.187c.85-.075 1.756-.115 2.723-.115"/></g><path d="m3.78267 12.4267v174.4503h244.68033v-174.4503z" stroke="#e3e8f0" stroke-width="5"/><path d="m100.766 25.3887c-.849 0-1.6904.2853-2.373.8373l-96.10669 77.547c-.88934.717-1.406671 1.798-1.406671 2.941v65.897c0 1.483.866671 2.83 2.217331 3.443.5.227 1.032.337 1.56267.337.89733 0 1.784-.32 2.48667-.933.07467-.065 7.71069-6.695 21.63329-15.944.8774-.583 1.472-1.507 1.64-2.547 3.1894-19.82 13.376-37.982 28.6854-51.145 15.4693-13.3013 35.2426-20.6266 55.675-20.6266 18.694 0 36.45 5.928 51.346 17.1426.66.497 1.459.761 2.274.761.228 0 .457-.021.684-.062 21.974-4.051 44.381-6.1043 66.598-6.1043 3.44 0 6.93.0493 10.374.1467.036.0013.072.0013.108.0013 1.761 0 3.296-1.22 3.686-2.948.396-1.7627-.508-3.56-2.162-4.2893l-145.396-64.1334c-.491-.216-1.01-.3213-1.526-.3213zm-.001 3.7787 145.397 64.1333c-3.525-.1-7.016-.148-10.48-.148-23.933 0-46.429 2.3227-67.282 6.1667-14.928-11.2387-33.495-17.904-53.62-17.904-44.4217 0-81.255 32.4586-88.0924 74.9506-14.3386 9.527-22.02796 16.245-22.02796 16.245v-65.897z" fill="#e3e8f0"/><path d="m168.438 99.3197c-65.853 12.1183-115.3385 39.4003-141.9425 57.0463-14.3627 9.527-22.06398 16.246-22.06398 16.246v12.145s7.07998-5.899 20.91998-14.045c28.068-16.522 83.9895-42.31 165.3855-47.027 17.377-1.007 35.915-1.055 55.591.156v-30.5399c-27.916-.788-53.978 1.6186-77.89 6.0186" fill="#e3e8f0"/></svg>