<svg width="662" height="191" viewBox="0 0 662 191" fill="none" xmlns="http://www.w3.org/2000/svg">
<path d="M283.422 111.178V139.691C288.926 139.691 294.434 139.572 299.284 139.572C313.442 139.572 316.325 131.442 316.325 125.432C316.325 119.542 312.524 111.178 298.498 111.178H283.422ZM283.422 101.519H297.188C309.509 101.519 312.26 94.9191 312.26 89.3818C312.26 83.6111 309.77 77.2485 297.449 77.2485C293.777 77.2485 287.616 77.2485 283.422 77.1298V101.519ZM297.709 67.7058C316.981 67.7058 326.289 75.7178 326.289 89.0298C326.289 96.4538 321.306 102.931 313.966 105.526C322.878 107.88 330.616 116.008 330.616 126.143C330.616 139.219 321.174 149.116 299.416 149.116C288.797 149.116 280.276 148.878 270.444 148.762L269.657 147.938V68.8831L270.444 68.0591C280.014 67.9405 289.058 67.7058 297.709 67.7058" fill="#E3E8F0"/>
<path d="M354.841 106.231C359.951 106.113 365.719 105.994 369.391 105.994C382.239 105.994 385.385 98.6912 385.385 91.8579C385.385 84.6699 382.239 77.6019 369.391 77.6019C365.587 77.6019 359.298 77.6019 354.841 77.4832V106.231ZM383.025 113.299C387.35 114.715 390.495 118.718 392.331 123.315L398.099 137.098C399.411 140.279 400.982 143.459 403.997 145.582C402.165 148.053 398.099 149.469 394.561 149.469C389.317 149.469 387.481 146.875 385.385 141.81L378.827 125.905C376.602 120.486 373.717 116.246 365.587 116.246H354.841V148.645C352.745 148.997 350.118 149.117 347.894 149.117C345.794 149.117 343.043 148.997 341.075 148.645V68.8832L341.862 68.0592C351.694 67.9406 361.134 67.7059 370.045 67.7059C388.267 67.7059 399.805 76.1899 399.805 91.8579C399.805 102.698 392.593 110.591 383.025 113.299" fill="#E3E8F0"/>
<path d="M434.916 118.955C437.016 118.955 440.556 118.836 441.603 118.836H454.711C455.628 118.836 459.167 118.955 461.269 118.955L455.235 101.872C452.879 95.0391 450.124 86.7911 448.288 80.5484H447.635C446.325 85.8484 443.963 93.2724 442.52 97.6324L434.916 118.955ZM431.377 129.086L424.431 148.762C422.725 149.116 420.499 149.234 418.401 149.234C415.908 149.234 413.419 148.878 411.583 148.41L411.189 147.819L440.817 68.1778C442.913 67.8244 446.585 67.7058 448.815 67.7058C451.043 67.7058 454.711 67.8244 456.679 68.1778L486.045 147.819C484.076 148.996 480.931 149.468 477.916 149.468C473.591 149.468 471.361 148.052 469.659 142.872L464.808 129.086C462.579 129.086 457.989 129.204 456.94 129.204H438.981C437.931 129.204 433.607 129.086 431.377 129.086" fill="#E3E8F0"/>
<path d="M498.484 131.68C506.088 136.153 515.789 139.692 524.832 139.692C535.45 139.692 541.478 135.094 541.612 128.614C541.612 123.077 537.286 118.837 529.681 115.893L514.213 109.884C503.201 105.641 496.254 99.5158 496.254 89.5011C496.254 76.6585 508.312 66.6464 525.881 66.6464C536.761 66.6464 546.853 69.7091 553.673 72.7705C553.54 76.3051 551.444 80.1918 548.558 82.5518C541.742 79.4864 532.829 77.0118 526.142 77.0118C516.442 77.0118 510.412 81.8424 510.412 88.0891C510.412 93.2731 514.87 96.2158 521.292 98.6918L536.501 104.581C547.772 108.821 556.162 116.009 556.162 126.496C556.162 140.044 545.676 150.176 524.046 150.176C513.162 150.176 501.365 146.874 492.582 141.338C492.976 137.689 495.597 133.797 498.484 131.68" fill="#E3E8F0"/>
<path d="M572.451 68.1778C574.421 67.8245 577.302 67.7058 579.398 67.7058C581.498 67.7058 584.249 67.8245 586.349 68.1778V148.644C584.249 148.996 581.498 149.116 579.398 149.116C577.302 149.116 574.421 148.996 572.451 148.644V68.1778Z" fill="#E3E8F0"/>
<path d="M660.82 137.804C660.82 139.101 660.686 141.223 660.426 142.753C659.64 146.76 656.361 148.763 651.38 148.763H617.166C612.449 148.763 609.037 146.053 609.037 140.985V68.4122L609.956 67.7055H615.198C620.966 67.7055 623.068 70.1815 623.068 75.7188V138.276C627.126 137.923 631.192 137.804 634.732 137.804H660.82Z" fill="#E3E8F0"/>
<path d="M277.611 35.0775C279.573 35.0162 281.71 34.9562 282.599 34.9562C287.882 34.9562 288.95 30.6228 288.95 27.4788C288.95 24.2722 287.882 19.9962 282.599 19.9962C281.117 19.9962 279.394 19.9962 277.611 19.9362V35.0775ZM283.073 41.1322H277.611V54.6082C276.366 54.8468 274.762 54.9028 273.635 54.9028C272.567 54.9028 270.906 54.8468 269.657 54.6082V14.3575L270.074 14.0015C274.822 13.8815 278.801 13.7642 283.073 13.7642C291.266 13.7642 297.142 18.2175 297.142 27.4788C297.142 36.4428 291.266 41.1322 283.073 41.1322Z" fill="#E3E8F0"/>
<path d="M308.602 39.1154C309.434 39.1154 310.68 39.0554 311.274 39.0554H316.378C316.912 39.0554 318.04 39.1154 318.873 39.1154L317.09 33.0567C316.084 29.6727 314.774 25.1021 313.885 21.5407H313.529C312.936 24.5674 311.689 28.8447 310.918 31.5727L308.602 39.1154ZM306.641 45.4047L303.852 54.6687C302.842 54.9034 301.658 54.9647 300.408 54.9647C299.164 54.9647 297.56 54.7861 296.609 54.4301L296.314 54.0141L309.552 14.0594C310.857 13.8807 312.818 13.7634 314.185 13.7634C315.429 13.7634 317.508 13.8807 318.756 14.1194L331.754 54.0754C330.628 54.7261 328.728 55.0861 327.184 55.0861C324.632 55.0861 323.384 54.1927 322.434 50.8087L320.773 45.4047C319.884 45.4047 318.457 45.4661 317.862 45.4661H309.552C308.958 45.4661 307.592 45.4661 306.641 45.4047" fill="#E3E8F0"/>
<path d="M340.008 25.045C340.008 23.4396 340.064 22.313 340.064 20.6516H340.008C339.175 20.6516 337.275 20.7076 336.443 20.7076H329.855C329.616 19.5236 329.555 18.3356 329.555 17.385C329.555 16.4956 329.616 15.2476 329.855 14.0583H358.234C358.468 14.8916 358.647 16.1356 358.647 17.1476C358.647 19.7583 357.284 20.7076 354.374 20.7076H351.586C350.752 20.7076 348.852 20.6516 348.02 20.6516H347.963C347.963 22.313 348.02 23.4396 348.02 25.045V54.6076C346.652 54.8476 345.17 54.9036 343.986 54.9036C342.854 54.9036 341.37 54.8476 340.008 54.6076V25.045Z" fill="#E3E8F0"/>
<path d="M371.649 32.8783C373.728 32.761 375.982 32.701 377.11 32.701C382.276 32.701 383.46 29.5556 383.46 26.2903C383.46 22.9676 382.276 19.8783 377.11 19.8783C375.682 19.8783 373.489 19.8783 371.649 19.8183V32.8783ZM384.233 37.1556C386.37 37.9276 387.793 39.9436 388.625 42.377L390.825 48.3756C391.414 50.037 392.308 51.641 393.614 52.709C392.604 54.1316 390.408 55.085 388.33 55.085C385.42 55.085 384.409 53.481 383.282 50.393L380.788 43.3263C379.898 40.9543 378.71 39.0543 375.266 39.0543H371.649V54.6076C370.34 54.8476 368.796 54.9036 367.668 54.9036C366.662 54.9036 364.997 54.8476 363.75 54.6076V14.3583L364.168 14.0023C368.917 13.881 373.428 13.7636 377.704 13.7636C385.954 13.7636 391.653 17.8583 391.653 26.2903C391.653 31.929 388.092 35.789 384.233 37.1556" fill="#E3E8F0"/>
<path d="M400.024 14.0587C401.213 13.824 402.935 13.764 404.001 13.764C405.129 13.764 406.673 13.824 407.979 14.0587V54.608C406.673 54.8467 405.129 54.9027 404.001 54.9027C402.935 54.9027 401.213 54.8467 400.024 54.608V14.0587Z" fill="#E3E8F0"/>
<path d="M426.204 39.1154C427.037 39.1154 428.282 39.0554 428.876 39.0554H433.981C434.514 39.0554 435.642 39.1154 436.474 39.1154L434.692 33.0567C433.685 29.6727 432.377 25.1021 431.488 21.5407H431.132C430.537 24.5674 429.292 28.8447 428.52 31.5727L426.204 39.1154ZM424.244 45.4047L421.454 54.6687C420.445 54.9034 419.256 54.9647 418.01 54.9647C416.766 54.9647 415.162 54.7861 414.212 54.4301L413.916 54.0141L427.154 14.0594C428.46 13.8807 430.42 13.7634 431.786 13.7634C433.032 13.7634 435.109 13.8807 436.353 14.1194L449.357 54.0754C448.23 54.7261 446.33 55.0861 444.786 55.0861C442.234 55.0861 440.986 54.1927 440.036 50.8087L438.374 45.4047C437.485 45.4047 436.06 45.4661 435.464 45.4661H427.154C426.561 45.4661 425.193 45.4661 424.244 45.4047" fill="#E3E8F0"/>
<path d="M476.37 39.1154C477.202 39.1154 478.448 39.0554 479.041 39.0554H484.146C484.68 39.0554 485.808 39.1154 486.64 39.1154L484.857 33.0567C483.852 29.6727 482.542 25.1021 481.653 21.5407H481.297C480.702 24.5674 479.457 28.8447 478.685 31.5727L476.37 39.1154ZM474.409 45.4047L471.62 54.6687C470.61 54.9034 469.425 54.9647 468.176 54.9647C466.932 54.9647 465.328 54.7861 464.377 54.4301L464.082 54.0141L477.32 14.0594C478.625 13.8807 480.585 13.7634 481.953 13.7634C483.197 13.7634 485.274 13.8807 486.522 14.1194L499.522 54.0754C498.396 54.7261 496.496 55.0861 494.952 55.0861C492.4 55.0861 491.152 54.1927 490.201 50.8087L488.54 45.4047C487.652 45.4047 486.225 45.4661 485.629 45.4661H477.32C476.726 45.4661 475.358 45.4661 474.409 45.4047" fill="#E3E8F0"/>
<path d="M507.295 14.1193C509.018 13.8246 511.276 13.7033 512.639 13.7033C514.066 13.7033 516.022 13.8246 517.687 14.1193L522.259 30.5659C522.675 32.2286 524.158 38.3433 524.514 40.7153H524.931C525.286 38.3433 526.77 32.2286 527.186 30.5659L531.698 14.1193C533.48 13.8246 535.379 13.7033 536.742 13.7033C538.168 13.7033 540.363 13.8246 542.146 14.1193L545.29 54.4913C544.162 54.7859 542.562 54.9033 541.256 54.9033C540.007 54.9033 538.879 54.8473 537.752 54.6686L536.624 35.6113C536.386 31.9286 536.152 26.4673 536.152 22.7299H535.735L528.787 48.5539C527.602 48.7313 525.82 48.8486 524.692 48.8486C523.62 48.8486 521.843 48.7313 520.655 48.5539L513.711 22.7299H513.294C513.232 26.4673 513.055 31.9286 512.818 35.6113L511.69 54.6686C510.562 54.8473 509.378 54.9033 508.128 54.9033C506.883 54.9033 505.278 54.7859 504.151 54.4913L507.295 14.1193Z" fill="#E3E8F0"/>
<path d="M562.214 39.1154C563.046 39.1154 564.293 39.0554 564.886 39.0554H569.991C570.523 39.0554 571.651 39.1154 572.485 39.1154L570.702 33.0567C569.695 29.6727 568.386 25.1021 567.497 21.5407H567.141C566.547 24.5674 565.302 28.8447 564.53 31.5727L562.214 39.1154ZM560.253 45.4047L557.463 54.6687C556.454 54.9034 555.27 54.9647 554.021 54.9647C552.775 54.9647 551.171 54.7861 550.222 54.4301L549.926 54.0141L563.163 14.0594C564.469 13.8807 566.43 13.7634 567.797 13.7634C569.041 13.7634 571.119 13.8807 572.367 14.1194L585.366 54.0754C584.239 54.7261 582.339 55.0861 580.795 55.0861C578.243 55.0861 576.995 54.1927 576.046 50.8087L574.385 45.4047C573.495 45.4047 572.069 45.4661 571.474 45.4661H563.163C562.57 45.4661 561.203 45.4661 560.253 45.4047" fill="#E3E8F0"/>
<path d="M605.549 20.0574C603.294 20.0574 601.454 20.0574 599.077 19.9974V48.6707C601.454 48.6134 603.294 48.6134 605.549 48.6134C613.325 48.6134 614.453 40.8334 614.453 34.3054C614.453 27.7734 613.325 20.0574 605.549 20.0574V20.0574ZM616.175 51.936C613.565 54.0747 608.753 54.9027 605.549 54.9027C600.561 54.9027 596.705 54.7854 591.538 54.668L591.123 54.3134V14.3587L591.538 14.0014C596.643 13.824 600.561 13.764 605.549 13.764C608.753 13.764 613.565 14.596 616.175 16.7307C621.635 21.124 622.646 27.4174 622.646 34.3054C622.646 41.2494 621.695 47.5427 616.175 51.936" fill="#E3E8F0"/>
<path d="M637.666 39.1154C638.499 39.1154 639.745 39.0554 640.338 39.0554H645.443C645.977 39.0554 647.105 39.1154 647.937 39.1154L646.154 33.0567C645.147 29.6727 643.838 25.1021 642.95 21.5407H642.593C641.999 24.5674 640.754 28.8447 639.982 31.5727L637.666 39.1154ZM635.706 45.4047L632.917 54.6687C631.907 54.9034 630.718 54.9647 629.473 54.9647C628.229 54.9647 626.623 54.7861 625.674 54.4301L625.378 54.0141L638.617 14.0594C639.921 13.8807 641.882 13.7634 643.249 13.7634C644.493 13.7634 646.571 13.8807 647.815 14.1194L660.819 54.0754C659.691 54.7261 657.791 55.0861 656.249 55.0861C653.697 55.0861 652.449 54.1927 651.498 50.8087L649.837 45.4047C648.947 45.4047 647.521 45.4661 646.926 45.4661H638.617C638.022 45.4661 636.655 45.4661 635.706 45.4047" fill="#E3E8F0"/>
<path d="M321.228 0.175278C322.402 0.791278 324.004 2.64861 324.42 4.41394L314.587 10.2593C313.595 9.89794 312.688 8.58461 312.394 7.59928L321.228 0.175278Z" fill="#E3E8F0"/>
<path d="M279.467 173.323L283.997 173.294C286.037 173.294 287.056 174.256 287.056 176.179V183.77C284.575 184.556 281.968 184.951 279.236 184.951C277.851 184.951 276.625 184.72 275.556 184.259C274.489 183.798 273.595 183.134 272.873 182.268C272.153 181.403 271.608 180.339 271.244 179.079C270.877 177.82 270.695 176.391 270.695 174.794C270.695 173.044 270.949 171.519 271.46 170.22C271.969 168.922 272.652 167.84 273.508 166.974C274.364 166.108 275.349 165.459 276.467 165.026C277.581 164.594 278.745 164.378 279.957 164.378C282.459 164.378 284.807 165.068 286.999 166.454C286.98 166.762 286.907 167.075 286.783 167.392C286.657 167.71 286.503 168.018 286.321 168.315C286.137 168.614 285.927 168.883 285.685 169.123C285.444 169.364 285.2 169.571 284.949 169.744C283.352 168.706 281.736 168.184 280.103 168.184C276.965 168.184 275.397 170.379 275.397 174.766C275.397 179.134 277.004 181.315 280.216 181.315C280.66 181.315 281.088 181.296 281.501 181.259C281.915 181.219 282.324 181.163 282.728 181.086V179.152C282.728 178.708 282.732 178.323 282.743 177.996C282.752 177.671 282.767 177.391 282.785 177.16H281.343C280.516 177.16 279.943 177.002 279.625 176.684C279.308 176.366 279.151 175.872 279.151 175.198C279.151 174.62 279.256 173.995 279.467 173.323" fill="#E3E8F0"/>
<path d="M304.89 179.152C305.41 180.652 306.458 181.402 308.035 181.402C308.825 181.402 309.465 181.206 309.955 180.811C310.445 180.416 310.83 179.916 311.109 179.311C311.387 178.706 311.575 178.026 311.673 177.276C311.767 176.524 311.815 175.784 311.815 175.054C311.815 174.38 311.793 173.631 311.745 172.802C311.695 171.975 311.555 171.202 311.325 170.48C311.094 169.759 310.729 169.154 310.229 168.663C309.729 168.172 308.997 167.927 308.035 167.927C307.113 167.927 306.406 168.162 305.915 168.632C305.423 169.104 305.058 169.686 304.818 170.378C304.578 171.071 304.427 171.807 304.37 172.587C304.313 173.364 304.285 174.054 304.285 174.651C304.285 175.535 304.327 176.323 304.414 177.015C304.501 177.708 304.659 178.42 304.89 179.152V179.152ZM302.553 183.134C300.494 181.422 299.466 178.603 299.466 174.679C299.466 172.986 299.662 171.5 300.057 170.22C300.451 168.942 301.018 167.868 301.758 167.003C302.499 166.136 303.399 165.484 304.458 165.04C305.515 164.598 306.709 164.378 308.035 164.378C309.363 164.378 310.561 164.598 311.629 165.04C312.695 165.484 313.599 166.143 314.341 167.016C315.082 167.892 315.649 168.97 316.043 170.248C316.437 171.528 316.635 173.004 316.635 174.679C316.635 176.352 316.437 177.828 316.043 179.108C315.649 180.388 315.082 181.46 314.341 182.326C313.599 183.191 312.695 183.846 311.629 184.288C310.561 184.73 309.363 184.951 308.035 184.951C305.843 184.951 304.015 184.346 302.553 183.134" fill="#E3E8F0"/>
<path d="M336.43 180.653L340.21 164.81C340.673 164.694 341.268 164.636 342 164.636C343 164.636 343.789 164.742 344.365 164.953L344.54 165.185L339.142 184.518C338.046 184.634 336.945 184.692 335.838 184.692C334.733 184.692 333.934 184.553 333.444 184.273C332.953 183.994 332.582 183.441 332.333 182.614L327.542 165.214C328.581 164.772 329.437 164.549 330.11 164.549C330.918 164.549 331.514 164.733 331.9 165.098C332.284 165.462 332.582 166.041 332.794 166.829L335.016 175.054C335.362 176.344 335.728 178.093 336.113 180.305C336.15 180.536 336.257 180.653 336.43 180.653" fill="#E3E8F0"/>
<path d="M361.42 178.69L361.392 180.768V180.796C362.273 180.759 362.982 180.738 363.518 180.738H370.192C370.192 181.451 370.164 181.999 370.105 182.384C369.876 183.866 368.893 184.606 367.162 184.606H359.486C358.658 184.606 358.009 184.366 357.538 183.884C357.066 183.403 356.832 182.748 356.832 181.922V165.012L357.033 164.81H369.47C369.586 165.368 369.644 165.975 369.644 166.628C369.644 167.28 369.509 167.964 369.24 168.676H361.392L361.42 170.754V172.774C361.917 172.755 362.568 172.746 363.373 172.746H367.769C367.941 173.283 368.028 173.899 368.028 174.592C368.028 175.284 367.941 175.919 367.769 176.496H361.42V178.69Z" fill="#E3E8F0"/>
<path d="M387.881 168.07V173.755C388.746 173.755 389.487 173.74 390.102 173.712C390.718 173.683 391.214 173.567 391.589 173.364C391.965 173.16 392.247 172.875 392.441 172.508C392.631 172.142 392.73 171.61 392.73 170.912C392.73 169.036 391.825 168.1 390.018 168.1H388.819C388.463 168.1 388.15 168.091 387.881 168.07V168.07ZM397.433 170.898C397.433 171.534 397.337 172.134 397.143 172.702C396.951 173.27 396.697 173.78 396.379 174.231C396.062 174.684 395.686 175.079 395.254 175.415C394.821 175.751 394.373 176.006 393.911 176.179C394.911 176.546 395.653 177.431 396.133 178.834L397.001 181.287C397.326 182.25 397.807 182.959 398.442 183.422C398.154 183.807 397.721 184.13 397.143 184.388C396.567 184.65 395.931 184.779 395.239 184.779C394.547 184.779 394.009 184.58 393.623 184.186C393.238 183.792 392.882 183.104 392.555 182.123L391.517 179.094C391.305 178.516 391.021 178.074 390.665 177.767C390.309 177.459 389.775 177.304 389.065 177.304H387.881V184.519C387.265 184.634 386.495 184.692 385.573 184.692C384.649 184.692 383.889 184.634 383.294 184.519V164.954L383.495 164.751C385.169 164.714 386.577 164.686 387.722 164.664C388.866 164.646 389.766 164.636 390.421 164.636C391.478 164.636 392.441 164.766 393.306 165.026C394.171 165.286 394.909 165.675 395.514 166.195C396.119 166.715 396.59 167.368 396.927 168.156C397.263 168.946 397.433 169.859 397.433 170.898" fill="#E3E8F0"/>
<path d="M426.463 164.608L426.664 164.81V184.432C425.893 184.606 424.985 184.692 423.936 184.692C422.888 184.692 421.96 184.635 421.153 184.519L416.621 174.188C416.083 173.016 415.535 171.659 414.977 170.12L414.889 170.148C415.121 172.958 415.236 175.834 415.236 178.776V184.519C414.64 184.635 413.919 184.692 413.072 184.692C412.225 184.692 411.513 184.635 410.938 184.519V164.896C411.668 164.723 412.548 164.636 413.578 164.636C414.606 164.636 415.525 164.695 416.333 164.81L420.807 175.111C421.613 177.016 422.211 178.479 422.596 179.498L422.711 179.439C422.48 176.767 422.364 173.93 422.364 170.928V167.408C422.364 166.407 422.565 165.69 422.971 165.258C423.375 164.823 424.028 164.608 424.933 164.608H426.463Z" fill="#E3E8F0"/>
<path d="M445.191 179.152C445.709 180.652 446.759 181.402 448.335 181.402C449.124 181.402 449.764 181.206 450.255 180.811C450.745 180.416 451.129 179.916 451.408 179.311C451.688 178.706 451.875 178.026 451.972 177.276C452.067 176.524 452.116 175.784 452.116 175.054C452.116 174.38 452.092 173.631 452.044 172.802C451.996 171.975 451.856 171.202 451.625 170.48C451.393 169.759 451.029 169.154 450.529 168.663C450.028 168.172 449.297 167.927 448.335 167.927C447.412 167.927 446.705 168.162 446.215 168.632C445.723 169.104 445.359 169.686 445.117 170.378C444.877 171.071 444.728 171.807 444.669 172.587C444.612 173.364 444.584 174.054 444.584 174.651C444.584 175.535 444.627 176.323 444.715 177.015C444.8 177.708 444.959 178.42 445.191 179.152V179.152ZM442.852 183.134C440.793 181.422 439.765 178.603 439.765 174.679C439.765 172.986 439.961 171.5 440.356 170.22C440.751 168.942 441.319 167.868 442.059 167.003C442.8 166.136 443.7 165.484 444.757 165.04C445.816 164.598 447.008 164.378 448.335 164.378C449.663 164.378 450.861 164.598 451.928 165.04C452.996 165.484 453.9 166.143 454.641 167.016C455.381 167.892 455.948 168.97 456.343 170.248C456.737 171.528 456.935 173.004 456.935 174.679C456.935 176.352 456.737 177.828 456.343 179.108C455.948 180.388 455.381 181.46 454.641 182.326C453.9 183.191 452.996 183.846 451.928 184.288C450.861 184.73 449.663 184.951 448.335 184.951C446.143 184.951 444.315 184.346 442.852 183.134" fill="#E3E8F0"/>
<path d="M490.869 168.734L490.897 170.984V172.802H497.104C497.256 173.38 497.334 174.01 497.334 174.693C497.334 175.377 497.256 176.005 497.104 176.584H490.897V184.518C490.286 184.634 489.522 184.692 488.604 184.692C487.686 184.692 486.921 184.634 486.31 184.518V164.984L486.512 164.81H498.862C498.978 165.29 499.036 165.892 499.036 166.613C499.036 167.334 498.838 167.868 498.442 168.216C498.048 168.561 497.425 168.734 496.574 168.734H490.869Z" fill="#E3E8F0"/>
<path d="M516.205 178.69L516.177 180.768V180.796C517.058 180.759 517.768 180.738 518.305 180.738H524.977C524.977 181.451 524.949 181.999 524.892 182.384C524.661 183.866 523.678 184.606 521.949 184.606H514.272C513.445 184.606 512.794 184.366 512.324 183.884C511.852 183.403 511.617 182.748 511.617 181.922V165.012L511.82 164.81H524.257C524.372 165.368 524.429 165.975 524.429 166.628C524.429 167.28 524.294 167.964 524.026 168.676H516.177L516.205 170.754V172.774C516.704 172.755 517.354 172.746 518.158 172.746H522.554C522.728 173.283 522.813 173.899 522.813 174.592C522.813 175.284 522.728 175.919 522.554 176.496H516.205V178.69Z" fill="#E3E8F0"/>
<path d="M545.524 181.085C548.061 181.085 549.332 178.949 549.332 174.679C549.332 170.391 548.061 168.244 545.524 168.244H543.892C543.421 168.244 543.012 168.235 542.665 168.216V181.113C543.012 181.095 543.421 181.085 543.892 181.085H545.524ZM550.833 183.248C550.217 183.749 549.409 184.115 548.408 184.345C547.408 184.577 546.303 184.692 545.091 184.692C544.495 184.692 543.633 184.681 542.508 184.663C541.383 184.643 539.973 184.615 538.28 184.577L538.079 184.375V164.953L538.28 164.752C539.396 164.713 540.555 164.685 541.757 164.665C542.96 164.645 544.224 164.636 545.552 164.636C547.188 164.636 548.552 164.896 549.651 165.416C550.747 165.935 551.621 166.647 552.275 167.551C552.929 168.455 553.391 169.517 553.661 170.739C553.931 171.963 554.064 173.275 554.064 174.679C554.064 176.603 553.843 178.267 553.401 179.671C552.959 181.076 552.104 182.269 550.833 183.248" fill="#E3E8F0"/>
<path d="M571.782 178.69L571.754 180.768V180.796C572.636 180.759 573.346 180.738 573.882 180.738H580.555C580.555 181.451 580.526 181.999 580.468 182.384C580.238 183.866 579.255 184.606 577.526 184.606H569.85C569.022 184.606 568.371 184.366 567.902 183.884C567.428 183.403 567.195 182.748 567.195 181.922V165.012L567.396 164.81H579.834C579.948 165.368 580.007 165.975 580.007 166.628C580.007 167.28 579.872 167.964 579.603 168.676H571.754L571.782 170.754V172.774C572.28 172.755 572.931 172.746 573.736 172.746H578.131C578.304 173.283 578.391 173.899 578.391 174.592C578.391 175.284 578.304 175.919 578.131 176.496H571.782V178.69Z" fill="#E3E8F0"/>
<path d="M598.244 168.07V173.755C599.109 173.755 599.851 173.74 600.465 173.712C601.081 173.683 601.576 173.567 601.952 173.364C602.328 173.16 602.611 172.875 602.804 172.508C602.995 172.142 603.093 171.61 603.093 170.912C603.093 169.036 602.187 168.1 600.38 168.1H599.181C598.825 168.1 598.513 168.091 598.244 168.07V168.07ZM607.795 170.898C607.795 171.534 607.699 172.134 607.507 172.702C607.315 173.27 607.06 173.78 606.741 174.231C606.425 174.684 606.049 175.079 605.616 175.415C605.184 175.751 604.736 176.006 604.275 176.179C605.275 176.546 606.016 177.431 606.496 178.834L607.363 181.287C607.689 182.25 608.171 182.959 608.805 183.422C608.517 183.807 608.084 184.13 607.507 184.388C606.931 184.65 606.295 184.779 605.603 184.779C604.911 184.779 604.372 184.58 603.987 184.186C603.601 183.792 603.245 183.104 602.919 182.123L601.88 179.094C601.668 178.516 601.384 178.074 601.028 177.767C600.672 177.459 600.139 177.304 599.428 177.304H598.244V184.519C597.628 184.634 596.859 184.692 595.936 184.692C595.012 184.692 594.252 184.634 593.656 184.519V164.954L593.859 164.751C595.532 164.714 596.94 164.686 598.085 164.664C599.229 164.646 600.128 164.636 600.784 164.636C601.84 164.636 602.804 164.766 603.668 165.026C604.535 165.286 605.271 165.675 605.877 166.195C606.483 166.715 606.953 167.368 607.291 168.156C607.627 168.946 607.795 169.859 607.795 170.898" fill="#E3E8F0"/>
<path d="M626.003 176.757L627.158 176.727H629.265C629.362 176.727 629.53 176.733 629.769 176.742C630.01 176.751 630.189 176.757 630.305 176.757L629.813 174.967C629.351 173.351 628.822 171.369 628.226 169.023H628.053C627.899 169.85 627.437 171.687 626.669 174.535L626.003 176.757ZM626.09 180.393C625.571 180.393 625.187 180.383 624.935 180.365L623.695 184.547C623.234 184.662 622.589 184.721 621.762 184.721C620.838 184.721 620.089 184.615 619.511 184.403L619.366 184.173L625.715 164.81C626.466 164.695 627.341 164.637 628.342 164.637C629.475 164.637 630.379 164.705 631.054 164.839L637.287 184.23C636.613 184.597 635.854 184.779 635.007 184.779C634.006 184.779 633.306 184.606 632.901 184.258C632.497 183.913 632.15 183.249 631.862 182.269L631.313 180.365C631.063 180.383 630.689 180.393 630.189 180.393H626.09Z" fill="#E3E8F0"/>
<path d="M656.89 180.622H661.901C661.901 181.393 661.853 182.052 661.757 182.598C661.659 183.149 661.353 183.621 660.833 184.013C660.314 184.408 659.631 184.605 658.785 184.605H652.263C651.435 184.605 650.782 184.366 650.301 183.884C649.819 183.402 649.579 182.748 649.579 181.921V164.81L649.781 164.608H651.473C653.269 164.608 654.167 165.59 654.167 167.55V180.737C655.017 180.662 655.923 180.622 656.89 180.622" fill="#E3E8F0"/>
<path d="M3.78267 12.4267V186.877H248.463V12.4267H3.78267Z" stroke="#E3E8F0" stroke-width="5"/>
<path d="M100.766 25.3887C99.917 25.3887 99.0756 25.674 98.393 26.226L2.28631 103.773C1.39697 104.49 0.879639 105.571 0.879639 106.714V172.611C0.879639 174.094 1.74631 175.441 3.09697 176.054C3.59697 176.281 4.12897 176.391 4.65964 176.391C5.55697 176.391 6.44364 176.071 7.14631 175.458C7.22098 175.393 14.857 168.763 28.7796 159.514C29.657 158.931 30.2516 158.007 30.4196 156.967C33.609 137.147 43.7956 118.985 59.105 105.822C74.5743 92.5207 94.3476 85.1954 114.78 85.1954C133.474 85.1954 151.23 91.1234 166.126 102.338C166.786 102.835 167.585 103.099 168.4 103.099C168.628 103.099 168.857 103.078 169.084 103.037C191.058 98.986 213.465 96.9327 235.682 96.9327C239.122 96.9327 242.612 96.982 246.056 97.0794C246.092 97.0807 246.128 97.0807 246.164 97.0807C247.925 97.0807 249.46 95.8607 249.85 94.1327C250.246 92.37 249.342 90.5727 247.688 89.8434L102.292 25.71C101.801 25.494 101.282 25.3887 100.766 25.3887V25.3887ZM100.765 29.1674L246.162 93.3007C242.637 93.2007 239.146 93.1527 235.682 93.1527C211.749 93.1527 189.253 95.4754 168.4 99.3194C153.472 88.0807 134.905 81.4154 114.78 81.4154C70.3583 81.4154 33.525 113.874 26.6876 156.366C12.349 165.893 4.65964 172.611 4.65964 172.611V106.714L100.765 29.1674" fill="#E3E8F0"/>
<path d="M168.438 99.3197C102.585 111.438 53.0995 138.72 26.4955 156.366C12.1328 165.893 4.43152 172.612 4.43152 172.612V184.757C4.43152 184.757 11.5115 178.858 25.3515 170.712C53.4195 154.19 109.341 128.402 190.737 123.685C208.114 122.678 226.652 122.63 246.328 123.841V93.3011C218.412 92.5131 192.35 94.9197 168.438 99.3197" fill="#E3E8F0"/>
</svg>
