<?xml version="1.0" encoding="UTF-8"?>
<svg width="400px" height="91px" viewBox="0 0 400 91" version="1.1" xmlns="http://www.w3.org/2000/svg" xmlns:xlink="http://www.w3.org/1999/xlink">
    <!-- Generator: Sketch 52.4 (67378) - http://www.bohemiancoding.com/sketch -->
    <title>caixa@1x</title>
    <desc>Created with Sketch.</desc>
    <g id="Page-1" stroke="none" stroke-width="1" fill="none" fill-rule="evenodd">
        <g id="caixa" fill-rule="nonzero">
            <path d="M122.419681,30.1349578 L112.068229,55.9287723 L126.389691,55.9287723 L122.465792,30.0256795 L122.419681,30.1349578 Z M67.5844424,89.3413308 L110.047985,1.92731022 L142.143018,1.92731022 L160.050234,89.3413308 L131.861856,89.3413308 L129.790628,77.6940956 L102.445923,77.6940956 L96.1544517,89.3413308 L67.5844424,89.3413308 Z M173.389503,89.3413308 L185.690722,1.92731022 L214.089972,1.92731022 L201.79194,89.3413308 L173.389503,89.3413308 Z M362.262418,30.0256795 L351.868791,55.9287723 L366.19119,55.9287723 L362.262418,30.0256795 Z M307.383318,89.3413308 L349.846298,1.92731022 L381.938144,1.92731022 L399.844424,89.3413308 L371.658857,89.3413308 L369.585754,77.6940956 L342.241799,77.6940956 L335.951265,89.3413308 L307.383318,89.3413308 Z M244.603561,48.4676664 L280.183693,48.4676664 L304.567948,88.852671 L268.978444,88.852671 L244.603561,48.4676664 Z" id="Shape" fill="#E3E8F0"></path>
            <path d="M248.299906,42.2635426 L285.079663,42.2635426 L317.021556,2.05373946 L280.241799,2.05373946 L248.299906,42.2635426 Z M211.52015,89.0982193 L248.299906,89.0982193 L280.241799,48.3923149 L243.462043,48.3923149 L211.52015,89.0982193 Z" id="Shape" fill="#C9D2E2"></path>
            <path d="M224.781631,1.56264105 L259.111528,1.56264105 L282.629803,42.2635426 L248.299906,42.2635426 L224.781631,1.56264105 Z M68.4279288,5.05853796 L65.6954077,30.7670103 C55.2273664,16.3289597 30.9700094,26.2914714 29.064105,44.2789128 C26.6427366,67.1115276 49.9908154,72.4380506 62.6980319,58.9917526 L59.9582006,84.7611996 C56.1656982,86.6283037 52.4582943,88.0699157 48.7996251,89.049672 C45.2404873,90.0131209 41.5776945,90.5420806 37.891284,90.6249297 C33.3403936,90.7197751 29.2196813,90.2408622 25.5025305,89.1955014 C21.8794752,88.2112465 18.471284,86.5608247 15.4525398,84.3283974 C9.7152015,80.1347704 5.56779756,74.8035614 3.01030928,68.3126523 C0.457688847,61.8020619 -0.385891284,54.4579194 0.486864105,46.2481724 C1.18701218,39.652671 2.85229616,33.6358013 5.49973758,28.1805061 C8.12528585,22.7250234 11.7621743,17.7730272 16.3933646,13.2804124 C20.7716963,8.99443299 25.5390815,5.7635239 30.7002812,3.56582943 C35.8371134,1.39002812 41.447985,0.227986879 47.5111528,0.101571696 C51.0856607,0.015489672 54.6564199,0.39135895 58.1347704,1.21986129 C61.5990628,2.04886598 65.0172446,3.34219306 68.4279288,5.05853796 Z" id="Shape" fill="#E3E8F0"></path>
        </g>
    </g>
</svg>