<svg width="400" height="91" viewBox="0 0 400 91" fill="none" xmlns="http://www.w3.org/2000/svg">
<path d="M122.42 30.135L112.068 55.9288H126.39L122.466 30.0257L122.42 30.135ZM67.5845 89.3413L110.048 1.92731H142.143L160.05 89.3413H131.862L129.791 77.6941H102.446L96.1545 89.3413H67.5845ZM173.39 89.3413L185.691 1.92731H214.09L201.792 89.3413H173.39ZM362.262 30.0257L351.869 55.9288H366.191L362.262 30.0257ZM307.383 89.3413L349.846 1.92731H381.938L399.844 89.3413H371.659L369.586 77.6941H342.242L335.951 89.3413H307.383ZM244.604 48.4677H280.184L304.568 88.8527H268.978L244.604 48.4677Z" fill="#E3E8F0"/>
<path d="M248.3 42.2636H285.08L317.022 2.05377H280.242L248.3 42.2636ZM211.52 89.0983H248.3L280.242 48.3923H243.462L211.52 89.0983Z" fill="#E3E8F0"/>
<path d="M224.782 1.56265H259.112L282.63 42.2635H248.3L224.782 1.56265ZM68.428 5.05854L65.6954 30.767C55.2274 16.329 30.97 26.2915 29.0641 44.2789C26.6428 67.1115 49.9909 72.4381 62.6981 58.9918L59.9582 84.7612C56.1657 86.6283 52.4583 88.0699 48.7997 89.0497C45.2405 90.0131 41.5777 90.5421 37.8913 90.6249C33.3404 90.7198 29.2197 90.2409 25.5026 89.1955C21.8795 88.2113 18.4713 86.5608 15.4526 84.3284C9.71523 80.1348 5.56783 74.8036 3.01034 68.3127C0.457722 61.8021 -0.385858 54.4579 0.486897 46.2482C1.18705 39.6527 2.85233 33.6358 5.49977 28.1805C8.12532 22.725 11.7622 17.773 16.3934 13.2804C20.7717 8.99444 25.5391 5.76353 30.7003 3.56583C35.8371 1.39003 41.448 0.227992 47.5112 0.101577C51.0857 0.0154948 54.6565 0.391364 58.1348 1.21987C61.5991 2.04887 65.0173 3.3422 68.428 5.05854Z" fill="#E3E8F0"/>
</svg>
