<svg fill="none" height="65" viewBox="0 0 480 65" width="480" xmlns="http://www.w3.org/2000/svg"><g fill="#e3e8f0"><path d="m28.216 63.831c-4.213 0-8.049-.692-11.511-2.077s-6.435-3.419-8.914-6.102c-2.482-2.683-4.401-5.957-5.756-9.824-1.357-3.864-2.035-8.308-2.035-13.328s.75-9.477 2.25-13.372c1.499-3.894 3.548-7.169 6.145-9.82302 2.596-2.653 5.596-4.674 9.001-6.059 3.404-1.383 7.011-2.076 10.819-2.076 2.596 0 4.919.172 6.967.519 2.048.346 3.822.75 5.323 1.211 1.499.462 2.711.924 3.635 1.385.923.462 1.558.808 1.905 1.038l-2.511 6.92502c-.519-.347-1.269-.721-2.25-1.125-.982-.403-2.12-.807-3.419-1.21202-1.299-.402-2.726-.735-4.284-.995-1.557-.259-3.202-.389-4.933-.389-2.943 0-5.626.549-8.049 1.64502-2.424 1.097-4.501 2.683-6.232 4.76-1.731 2.078-3.072 4.602-4.024 7.573-.952 2.972-1.428 6.305-1.428 9.996 0 3.579.418 6.838 1.255 9.781.835 2.943 2.105 5.467 3.808 7.573 1.701 2.107 3.808 3.736 6.318 4.89 2.511 1.155 5.466 1.731 8.872 1.731 3.808 0 6.967-.404 9.477-1.212 2.511-.807 4.399-1.528 5.669-2.164l2.164 6.924c-.404.289-1.125.649-2.164 1.082s-2.337.853-3.895 1.254c-1.557.404-3.375.75-5.453 1.04-2.077.287-4.327.431-6.75.431z"/><path d="m81.5291 2.55402c2.077 4.328 4.068 8.69798 5.972 13.11198s3.822 9.044 5.755 13.891 3.908 9.969 5.929 15.363c2.0189 5.396 4.1819 11.267 6.4909 17.613h-9.1739c-.982-2.596-1.904-5.163-2.77-7.702s-1.761-5.106-2.683-7.703h-27.18l-5.453 15.406h-8.742c2.307-6.346 4.471-12.217 6.491-17.613 2.019-5.394 3.995-10.515 5.929-15.363 1.933-4.847 3.851-9.477 5.755-13.891 1.904-4.415 3.895-8.78498 5.972-13.11198l7.704-.001zm-4.067 9.60698c-2.02 4.328-3.937 8.828-5.756 13.502-1.817 4.673-3.621 9.551-5.409 14.627h22.33c-1.847-5.019-3.678-9.881-5.496-14.584-1.818-4.702-3.709-9.218-5.669-13.545z"/><path d="m155.27 62.533c-1.27-2.134-2.726-4.529-4.371-7.184-1.645-2.653-3.419-5.409-5.324-8.266-1.904-2.855-3.88-5.755-5.929-8.698-2.048-2.943-4.082-5.785-6.102-8.526s-3.981-5.324-5.885-7.747-3.666-4.558-5.279-6.405v46.823h-8.222v-59.97598h6.664c2.712 2.885 5.611 6.246 8.698 10.08298 3.086 3.838 6.145 7.789 9.174 11.857s5.885 8.064 8.568 11.988c2.683 3.925 4.947 7.415 6.795 10.472v-44.39998h8.222v59.97798l-7.01.001z"/><path d="m286.3 62.533c-1.271-2.134-2.726-4.529-4.371-7.184-1.645-2.653-3.419-5.409-5.323-8.266-1.905-2.855-3.881-5.755-5.929-8.698-2.049-2.943-4.083-5.785-6.102-8.526-2.019-2.74-3.981-5.324-5.885-7.747s-3.665-4.558-5.279-6.405v46.823h-8.222v-59.97598h6.664c2.713 2.885 5.612 6.246 8.699 10.08298 3.087 3.838 6.145 7.789 9.174 11.857 3.029 4.067 5.885 8.064 8.568 11.988 2.683 3.925 4.947 7.415 6.795 10.472v-44.39998h8.222v59.97798l-7.02.001z"/><path d="m308.55 2.55402h8.396v59.97798h-8.396z"/><path d="m357.97 63.831c-4.213 0-8.049-.692-11.512-2.077-3.461-1.385-6.435-3.419-8.914-6.102-2.482-2.683-4.402-5.957-5.756-9.824-1.355-3.865-2.034-8.309-2.034-13.329s.75-9.477 2.25-13.372c1.5-3.894 3.549-7.169 6.145-9.82299 2.596-2.653 5.597-4.674 9.001-6.059 3.404-1.383 7.011-2.076 10.819-2.076 2.596 0 4.918.172 6.967.519 2.048.346 3.822.75 5.323 1.211 1.5.462 2.711.924 3.635 1.385.921.462 1.558.808 1.904 1.038l-2.509 6.92499c-.519-.347-1.271-.721-2.251-1.125-.982-.403-2.12-.807-3.418-1.21199-1.298-.402-2.726-.735-4.284-.995-1.558-.259-3.202-.389-4.933-.389-2.942 0-5.626.549-8.049 1.64499-2.424 1.097-4.5 2.683-6.232 4.76-1.731 2.078-3.073 4.602-4.024 7.573-.952 2.972-1.429 6.305-1.429 9.996 0 3.579.418 6.838 1.254 9.781s2.106 5.467 3.808 7.573c1.701 2.107 3.808 3.736 6.318 4.89 2.511 1.155 5.467 1.731 8.872 1.731 3.808 0 6.967-.404 9.478-1.212 2.509-.807 4.399-1.528 5.668-2.164l2.164 6.924c-.405.289-1.125.649-2.164 1.082s-2.336.853-3.894 1.254c-1.558.404-3.375.75-5.453 1.04-2.1.288-4.35.432-6.77.432z"/><path d="m411.28 2.55402c2.077 4.328 4.068 8.69798 5.973 13.11198 1.904 4.414 3.822 9.044 5.754 13.891 1.933 4.847 3.909 9.969 5.93 15.363 2.018 5.396 4.182 11.267 6.491 17.613h-9.175c-.982-2.596-1.904-5.163-2.77-7.702s-1.76-5.106-2.683-7.703h-27.176l-5.454 15.406h-8.741c2.307-6.346 4.47-12.217 6.491-17.613 2.019-5.394 3.995-10.515 5.929-15.363 1.933-4.847 3.851-9.477 5.756-13.891 1.904-4.415 3.894-8.78498 5.972-13.11198l7.71-.001zm-4.07 9.60698c-2.02 4.328-3.939 8.828-5.756 13.502-1.817 4.673-3.622 9.551-5.409 14.627h22.33c-1.848-5.019-3.678-9.881-5.497-14.584-1.81-4.702-3.7-9.218-5.66-13.545z"/><path d="m480 55.522v7.011h-36.091v-59.97898h8.396v52.96798h27.69z"/><path d="m203.74 52.45c-11.018 0-19.95-8.929-19.95-19.95 0-11.019 8.932-19.949 19.95-19.949 11.019 0 19.95 8.931 19.95 19.949 0 11.021-8.93 19.95-19.95 19.95z"/><path d="m235.07 32.501c0 17.303-14.028 31.33-31.331 31.33-17.304 0-31.331-14.028-31.331-31.33 0-17.304 14.026-31.33102 31.331-31.33102 17.3 0 31.33 14.02702 31.33 31.33102zm-31.33-23.71002c-13.095 0-23.709 10.61602-23.709 23.71002 0 13.096 10.614 23.709 23.709 23.709s23.709-10.613 23.709-23.709c0-13.095-10.62-23.71002-23.71-23.71002z"/></g></svg>