<?xml version="1.0" encoding="UTF-8"?>
<svg width="395px" height="80px" viewBox="0 0 395 80" version="1.1" xmlns="http://www.w3.org/2000/svg" xmlns:xlink="http://www.w3.org/1999/xlink">
    <!-- Generator: Sketch 52.4 (67378) - http://www.bohemiancoding.com/sketch -->
    <title>centurylink@1x</title>
    <desc>Created with Sketch.</desc>
    <g id="Page-1" stroke="none" stroke-width="1" fill="none" fill-rule="evenodd">
        <g id="centurylink" transform="translate(-1.000000, -1.000000)" fill="#E3E8F0">
            <g id="Group" transform="translate(0.552939, 0.887485)">
                <path d="M7.60342424,62.9121212 C10.2464432,66.6548845 13.5095609,69.9185146 17.2519091,72.5621212 L30.431303,49.7312121 L7.60342424,62.9121212 Z" id="Path"></path>
                <path d="M17.2519091,7.26736364 C13.506444,9.90726966 10.2427421,13.1714841 7.60342424,16.9173636 L30.431303,30.0922121 L17.2519091,7.26736364 Z" id="Path"></path>
                <path d="M57.0261515,3.67009091 C52.8703221,1.7391172 48.4103414,0.545578149 43.8455455,0.142818182 L43.8455455,26.501 L57.0261515,3.67009091 Z" id="Path"></path>
                <path d="M23.4725152,76.1575758 C27.630413,78.0877943 32.0913661,79.2828499 36.6573636,79.689697 L36.6573636,53.3254545 L23.4725152,76.1575758 Z" id="Path"></path>
                <path d="M72.8997879,16.9173636 C70.2604426,13.1714054 66.9966267,9.90717942 63.251,7.26736364 L50.0719091,30.0922121 L72.8997879,16.9173636 Z" id="Path"></path>
                <path d="M63.2494848,72.5622121 C66.9925724,69.9198898 70.2554934,66.6560464 72.8967576,62.9122121 L50.0703939,49.731303 L63.2494848,72.5622121 Z" id="Path"></path>
                <path d="M80.0228182,36.3185758 C79.614043,31.7548504 78.4222789,27.2956269 76.4997879,23.1364545 L53.6631212,36.3185758 L80.0228182,36.3185758 Z" id="Path"></path>
                <path d="M0.477363636,43.5052424 C0.882040451,48.0684111 2.07453669,52.5269178 4.00190909,56.6828182 L26.8400909,43.5052424 L0.477363636,43.5052424 Z" id="Path"></path>
                <path d="M4.00190909,23.1363636 C2.07547755,27.2942038 0.883038356,31.7540351 0.477363636,36.3184848 L26.8400909,36.3184848 L4.00190909,23.1363636 Z" id="Path"></path>
                <path d="M53.6631212,43.5052424 L76.4997879,56.6828182 C78.4279119,52.5272845 79.619955,48.0685553 80.0228182,43.5052424 L53.6631212,43.5052424 Z" id="Path"></path>
                <path d="M36.6573636,0.142818182 C32.0909244,0.543972722 27.629277,1.73757364 23.4725152,3.67009091 L36.6573636,26.501 L36.6573636,0.142818182 Z" id="Path"></path>
                <path d="M43.8454545,79.6897879 C48.4100637,79.2827815 52.869596,78.087722 57.0260606,76.1576667 L43.8454545,53.3255455 L43.8454545,79.6897879 Z" id="Path"></path>
                <path d="M70.4094848,4.93827273 C70.4163307,2.28688602 72.5688074,0.141761832 75.220202,0.143988204 C77.8715966,0.146214575 80.0204677,2.2949506 80.0228608,4.94634506 C80.0252539,7.59773953 77.8802651,9.75035109 75.2288788,9.75736364 C73.9505292,9.75807957 72.7243274,9.25059497 71.8203692,8.34669359 C70.916411,7.44279222 70.4088493,6.21662235 70.4094848,4.93827273 Z M79.2576667,4.93827273 C79.2537359,3.30336428 78.2651871,1.83186401 76.753109,1.21012369 C75.2410309,0.588383364 73.5033057,0.938886935 72.3504603,2.09814905 C71.197615,3.25741116 70.856762,4.99705511 71.4868856,6.5056589 C72.1170092,8.01426269 73.5939737,8.99462868 75.2288788,8.98948485 C76.3131809,9.02984816 77.3650125,8.6152259 78.13012,7.84584247 C78.8952275,7.07645905 79.3039813,6.02233307 79.2575758,4.93827273 L79.2576667,4.93827273 Z M74.1279697,7.66069697 L73.4237273,7.66069697 L73.4237273,2.16554545 L75.791,2.16554545 C77.2234242,2.16554545 77.7100909,2.69948485 77.7100909,3.68493939 C77.7100909,4.74433333 76.9658485,5.14251515 76.0100909,5.2179697 L77.6434242,7.66069697 L76.8549394,7.66069697 L75.3055455,5.2179697 L74.1279697,5.2179697 L74.1279697,7.66069697 Z M75.0985758,4.57736364 C75.8679697,4.57736364 76.9422121,4.70584848 76.9422121,3.67160606 C76.9422121,2.90524242 76.3043333,2.80009091 75.6385758,2.80009091 L74.1279697,2.80009091 L74.1279697,4.57736364 L75.0985758,4.57736364 Z" id="Shape" fill-rule="nonzero"></path>
                <path d="M125.83403,31.0316061 C125.095795,27.3984613 121.759646,24.8895834 118.064333,25.1885758 C109.020697,25.1885758 107.345848,33.4673636 107.345848,39.9197879 C107.345848,47.4867576 109.639182,54.6334242 117.610091,54.6334242 C121.394226,55.0402858 124.874853,52.5244939 125.675545,48.8037273 L131.005242,48.8037273 C130.500697,54.9485758 124.30403,58.9970606 117.152818,58.9970606 C106.335242,58.9970606 102.02797,50.1722121 102.02797,39.9197879 C102.02797,30.9340303 105.977061,20.4716061 118.261,20.8267576 C125.316152,21.030697 130.602818,24.4843333 131.156152,31.0316061 L125.83403,31.0316061 Z" id="Path"></path>
                <path d="M139.933333,46.4125152 C139.581212,50.8840303 141.411515,55.4991818 146.328182,55.4991818 C147.856661,55.7408841 149.415061,55.3107938 150.603214,54.3193501 C151.791368,53.3279064 152.493528,51.8716924 152.529394,50.3246364 L157.603333,50.3246364 C156.838182,56.1116061 152.37697,58.9970606 146.282424,58.9970606 C138.110303,58.9970606 134.862727,53.2188788 134.862727,45.7067576 C134.862727,38.2449394 138.613636,31.9979697 146.683333,31.9979697 C154.302121,32.1458485 157.900606,36.971 157.900606,44.0200909 L157.900606,46.4125152 L139.933333,46.4125152 Z M152.831212,43.0731212 C152.929091,38.7982727 150.996667,35.4973636 146.328182,35.4973636 C144.448989,35.585503 142.691469,36.4525402 141.477989,37.8901076 C140.26451,39.327675 139.704787,41.2057972 139.933333,43.0731212 L152.831212,43.0731212 Z" id="Shape" fill-rule="nonzero"></path>
                <path d="M167.570091,36.5137273 L167.669182,36.5137273 C169.23423,33.7241136 172.183872,31.997251 175.382515,31.9979697 C177.162515,31.9979697 185.037364,32.4579697 185.037364,40.6300909 L185.037364,58.2334242 L180.209091,58.2334242 L180.209091,42.1970606 C180.209091,37.9831212 178.437879,35.7016061 174.366061,35.7016061 C172.624109,35.689007 170.947547,36.3642711 169.700606,37.580697 C168.992121,38.2864545 167.669091,39.4125152 167.669091,44.3855455 L167.669091,58.2334242 L162.843939,58.2334242 L162.843939,32.7585758 L167.57,32.7585758 L167.57,36.5137273" id="Path"></path>
                <path d="M192.658879,32.7494848 L192.658879,27.331303 L197.48403,25.8028182 L197.48403,32.7494848 L203.373121,32.7494848 L203.373121,36.2503939 L197.48403,36.2503939 L197.48403,52.6091818 C197.48403,54.4291818 198.905848,55.2934242 200.63403,55.2934242 C201.485679,55.2919824 202.334284,55.1917158 203.162818,54.9946364 L203.162818,58.6979697 C202.054636,58.7543333 200.978879,58.9970606 199.875242,58.9970606 C198.78698,59.0152553 197.69933,58.9340087 196.625848,58.7543333 C195.50131,58.5685952 194.486886,57.9690206 193.781909,57.0734242 C192.91797,55.8555455 192.658879,55.7579697 192.658879,52.3564545 L192.658879,36.2503939 L188.299788,36.2503939 L188.299788,32.7494848 L192.658879,32.7494848 Z" id="Path"></path>
                <path d="M224.570394,32.7585758 L229.38797,32.7585758 L229.38797,58.2334242 L224.672515,58.2334242 L224.672515,54.4870606 L224.570394,54.4870606 C222.696498,57.4670442 219.352035,59.1942253 215.837364,58.9970606 C213.465027,59.0177798 211.195886,58.0283208 209.596752,56.2758424 C207.997619,54.523364 207.219498,52.1733513 207.456758,49.8128182 L207.456758,32.7585758 L212.284939,32.7585758 L212.284939,47.8316061 C212.284939,52.2543333 213.297061,55.4991818 217.919182,55.4991818 C220.383245,55.5510357 222.632995,54.1046051 223.608576,51.841303 C224.248912,49.9109463 224.573689,47.8899402 224.570394,45.8561515 L224.570394,32.7585758 Z" id="Path"></path>
                <path d="M240.65403,58.2333333 L235.833333,58.2333333 L235.833333,32.7584848 L240.653939,32.7584848 L240.653939,37.6766667 L240.760303,37.6766667 C241.619505,34.3297171 244.77586,32.0971827 248.217879,32.4018182 C248.826061,32.4018182 249.340909,32.4578788 249.891212,32.4578788 L249.891212,37.0242424 C249.218915,36.8192978 248.515607,36.7351677 247.813939,36.7757576 C241.717879,36.9709091 240.653939,40.220303 240.653939,45.6060606 L240.653939,58.2333333" id="Path"></path>
            </g>
            <polygon id="Path" points="264.712121 68.8787879 259.775758 68.8787879 263.636364 59.0272727 253.036364 33.6454545 258.40303 33.6454545 266.378788 53.7484848 274.512121 33.6454545 279.681818 33.6454545"></polygon>
            <polygon id="Path" points="283.29697 59.1212121 283.29697 22.4727273 291.166667 22.4727273 291.166667 53.0393939 307.054545 53.0393939 307.054545 59.1212121"></polygon>
            <path d="M311.566667,22.4733333 L319.69,22.4733333 L319.69,29.0251515 L311.566667,29.0251515 L311.566667,22.4733333 Z M311.821212,33.6460606 L319.435455,33.6460606 L319.435455,59.1209091 L311.821212,59.1209091 L311.821212,33.6460606 Z" id="Shape" fill-rule="nonzero"></path>
            <path d="M334.29697,36.5890909 L334.397576,36.7442424 C336.122647,34.1483755 339.106328,32.6757895 342.216061,32.8854545 C344.752121,32.8854545 349.677879,34.7557576 350.587879,38.4681818 C350.920423,39.7977879 351.09376,41.1622061 351.104242,42.5327273 L351.104242,59.1209091 L343.485455,59.1209091 L343.485455,43.8006061 C343.439697,41.0545455 342.670303,37.9663636 338.917879,37.9663636 C336.528182,37.9663636 334.450909,40.0972727 334.347273,43.8006061 L334.347273,59.1209091 L326.736061,59.1209091 L326.736061,33.6460606 L334.29697,33.6460606 L334.29697,36.5890909 Z" id="Path"></path>
            <polygon id="Path" points="366.084848 43.9606061 366.181818 44.0515152 373.693939 33.3454545 382.169697 33.3454545 373.387879 44.5090909 382.727273 59.1212121 373.848485 59.1212121 366.181818 45.169697 366.084848 45.2727273 366.084848 59.1212121 358.472727 59.1212121 358.472727 22.4727273 366.084848 22.4727273"></polygon>
            <path d="M385.716061,38.1381818 C385.726331,35.4878787 387.879969,33.3460131 390.530289,33.3502693 C393.180608,33.3545255 395.327356,35.5032973 395.329114,38.1536197 C395.330873,40.8039421 393.186978,42.9555604 390.536667,42.9633333 C389.256969,42.9646565 388.029371,42.4565732 387.124914,41.5512636 C386.220457,40.6459541 385.713531,39.4178774 385.716061,38.1381818 Z M394.564242,38.1381818 C394.556047,35.9066434 392.740531,34.1041896 390.508991,34.1121081 C388.277452,34.1200265 386.474773,35.9353193 386.482415,38.1668597 C386.490056,40.3984 388.305125,42.2013042 390.536667,42.1939394 C391.621618,42.2341232 392.67394,41.8187681 393.438961,41.0483937 C394.203983,40.2780193 394.61199,39.2228268 394.564242,38.1381818 Z M389.437273,40.8636364 L388.731515,40.8636364 L388.731515,35.3639394 L391.101818,35.3639394 C392.531212,35.3639394 393.015152,35.9024242 393.015152,36.8863636 C393.015152,37.9472727 392.273636,38.3481818 391.316364,38.4209091 L392.951515,40.8636364 L392.159697,40.8636364 L390.612121,38.4209091 L389.437273,38.4209091 L389.437273,40.8636364 Z M390.406364,37.78 C391.177273,37.78 392.25,37.910303 392.25,36.8745455 C392.25,36.1081818 391.609394,36.0045455 390.946667,36.0045455 L389.437273,36.0045455 L389.437273,37.78 L390.406364,37.78 Z" id="Shape" fill-rule="nonzero"></path>
        </g>
    </g>
</svg>