<svg height="200" viewBox="0 0 400 200" width="400" xmlns="http://www.w3.org/2000/svg"><g fill="#e3e8f0" fill-rule="evenodd"><path d="m203.815385 5.29230769c-2.707693-3.2-5.661539-5.29230769-9.6-5.29230769-3.938462 0-7.384616 1.6-10.83077 4.18461538l-163.4461535 123.93846162h287.2615385zm144.984615 192.12307731c1.230769 1.353846 2.953846 2.338461 4.923077 2.338461 3.569231 0 6.4-2.830769 6.4-6.4 0-1.6-.615385-3.076923-1.476923-4.184615l-39.015385-46.4c-2.830769-3.323077-7.015384-5.415385-11.815384-5.415385h-1.723077c-4.676923 0-8.984616 2.092308-11.815385 5.415385l-39.138461 46.4c-.984616 1.107692-1.476924 2.584615-1.476924 4.184615 0 3.569231 2.83077 6.4 6.4 6.4 1.969231 0 3.692308-.861538 4.923077-2.338461l39.138462-46.4c.615385-.738462 1.723077-1.23077 2.707692-1.23077 1.107693 0 2.092308.492308 2.707693 1.23077zm-50.584615-17.6h17.476923c3.446154 0 6.276923-2.83077 6.276923-6.276923 0-3.446154-2.830769-6.276924-6.276923-6.276924-6.4 0-11.076923 0-17.476923 0-3.446154 0-6.276923 2.83077-6.276923 6.276924.123076 3.446153 2.830769 6.276923 6.276923 6.276923z"/><path d="m202.215385 1.72295385 187.692307 101.29230815s9.476923 5.16923 9.476923 15.138461v26.584739zm-125.2923081 148.06166115c3.4461539 0 6.2769231-2.830769 6.2769231-6.276923s-2.8307692-6.276923-6.2769231-6.276923h-59.4461538c-9.60000002 0-17.4769231 7.876923-17.4769231 17.476923v27.446154c0 9.6 7.87692308 17.476923 17.4769231 17.476923h59.4461538c3.4461539 0 6.2769231-2.830769 6.2769231-6.276923s-2.8307692-6.276923-6.2769231-6.276923h-59.4461538c-2.7076923 0-5.0461539-2.215385-5.0461539-5.046154v-27.446154c0-2.707692 2.2153846-5.046153 5.0461539-5.046153h59.4461538zm25.3538461 49.969231c-9.5999999 0-17.476923-7.876923-17.476923-17.476923v-27.446154c0-9.6 7.8769231-17.476923 17.476923-17.476923h53.292308c9.6 0 17.476923 7.876923 17.476923 17.476923v.861539c0 9.6-7.876923 17.476923-17.476923 17.476923h-45.784616c-3.446153 0-6.276923-2.830769-6.276923-6.276923s2.83077-6.276923 6.276923-6.276923h45.784616c2.707692 0 5.046154-2.215385 5.046154-5.046154v-.861539c0-2.707692-2.215385-5.046154-5.046154-5.046154h-53.292308c-2.7076922 0-5.0461538 2.215385-5.0461538 5.046154v27.446154c0 2.707692 2.2153846 5.046154 5.0461538 5.046154h64.492308c3.446154 0 6.276923 2.830769 6.276923 6.276923s-2.830769 6.276923-6.276923 6.276923zm83.815385-60.184615c-1.23077-1.353846-2.953846-2.338462-4.923077-2.338462-3.569231 0-6.4 2.830769-6.4 6.4 0 1.6.615384 3.076923 1.476923 4.184616l39.138461 46.4c2.83077 3.323077 7.015385 5.415384 11.815385 5.415384h1.723077c4.676923 0 8.984615-2.092307 11.815385-5.415384l39.138461-46.4c.984615-1.107693 1.476923-2.584616 1.476923-4.184616 0-3.569231-2.830769-6.4-6.4-6.4-1.969231 0-3.692308.861539-4.923077 2.338462l-39.138461 46.4c-.615385.738461-1.723077 1.230769-2.707693 1.230769-1.107692 0-2.092307-.492308-2.707692-1.230769z"/></g></svg>