<svg height="52" viewBox="0 0 400 52" width="400" xmlns="http://www.w3.org/2000/svg"><g fill="#e3e8f0" fill-rule="evenodd"><path d="m390.406504 50.7317073c-6.829268 0-11.056911-1.6260162-16.097561-6.0162601-2.764228-2.4390244-5.203252-5.3658537-6.829268-8.1300813-1.788618-3.4146342-2.113821-3.5772358-6.666667-3.5772358h-4.878049c-.162601 0-.325203.1626016-.325203.3252032v10.5691057c0 2.4390244.97561 3.0894309 4.715447 3.0894309h3.414634c0 .8130081 0 1.7886179-.325203 2.1138212-.325203.3252032-.813008.4878048-1.463414.4878048h-22.276423c0-.4878048-.162602-1.300813 0-2.1138211 6.01626-.4878049 7.804878-1.300813 7.804878-5.8536585v-33.17073175c0-3.08943089-1.300813-3.57723577-4.227642-3.57723577h-3.252033c-.162602-.81300813-.162602-1.46341463.162602-1.78861789.325203-.48780487 1.300813-.81300813 2.601626-.97560975 3.414634-.32520325 7.642276-.32520325 17.723577-.32520325 13.170732 0 21.138211 6.01626016 21.138211 16.09756101 0 5.8536585-3.414634 10.5691057-9.430894 13.1707317-.162602 0-.162602.1626016-.162602.1626016 0 .1626016 0 .1626016.162602.3252032 0 0 5.365854 5.0406505 8.130081 7.1544716 9.430895 7.4796748 12.682927 8.2926829 18.861789 8.2926829.162601.8130081 0 1.300813-.325203 1.7886179-1.300813 1.300813-4.065041 1.9512195-8.455285 1.9512195zm-34.308943-45.36585364c-.162602 0-.325203.16260162-.325203.32520325v23.57723579c0 .1626016.162601.3252032.325203.3252032h3.414634c6.666667 0 13.170732-.8130081 13.170732-11.2195122 0-8.78048777-4.715447-13.00813004-14.146342-13.00813004zm-185.691057 5.36585364c0-.1626016-.162602-.1626016-.325203-.1626016-.162602 0-.325203.1626016-.325203.3252032l-2.276423 32.195122c-.162602 1.1382114-.162602 2.1138211.487805 2.7642276.813008.8130082 2.601626 1.1382114 7.317073 1.1382114h3.577236c.162601 1.1382114.162601 1.7886179-.162602 2.1138212-.325203.3252032-.650407.4878048-1.463415.4878048h-23.252032c-.162602-.6504065-.162602-1.4634146 0-2.1138211 7.642276-.4878049 8.617886-1.9512195 8.780488-5.203252l2.926829-33.82113825c0-.81300813.162602-1.62601626-.487805-2.27642276-.813008-.81300813-2.601626-1.30081301-6.99187-1.46341464-.162602-.81300813 0-1.300813.325203-1.78861788.487805-.48780488 1.300813-.81300813 2.439025-.81300813h14.308943l17.886179 34.30894306c0 .1626017.162601.1626017.325203.1626017s.162602 0 .325203-.1626017l16.422764-34.30894306h16.585366c.162602.6504065.162602 1.46341463 0 2.11382114-3.739837.32520325-5.691057.81300813-6.504065 1.78861788-.650406.65040651-.487805 1.46341464-.487805 2.27642277l3.414635 35.12195117c.162601 2.6016261 1.788617 2.7642277 6.991869 3.4146342.162602 1.1382114 0 1.7886179-.325203 2.2764228-.325203.3252032-.650406.4878048-1.463414.4878048h-25.040651c-.162601-.6504065-.162601-1.4634146 0-2.1138211l3.577236-.1626016c3.414634-.1626017 5.365854-.4878049 6.341463-1.6260163.813008-.8130081.650407-2.1138211.650407-3.4146341l-3.252033-31.3821139c0-.1626016-.162601-.3252032-.325203-.3252032s-.162602 0-.325203.1626016l-17.235773 36.2601626c-1.138211 2.4390244-1.788617 2.7642277-3.08943 2.7642277zm116.260163 38.8617886c-.162602-.6504065-.162602-1.4634146 0-2.1138211 7.479674-.4878049 9.105691-.9756098 9.105691-6.0162602v-33.17073167c0-2.92682927-.97561-3.41463415-4.227643-3.41463415h-3.08943c-.162602-.97560976 0-1.46341463.325203-1.78861789.487805-.48780487 1.300813-.6504065 2.601626-.6504065h33.821138c.162602 2.92682927.650407 6.17886179 1.138211 9.43089431.162602.9756098 0 1.7886179-.325203 2.2764228-.325203.3252032-.813008.6504065-1.626016.6504065-.162602 0-.162602 0-.325203 0l-.813008-3.0894309c-1.300813-4.39024393-2.764228-5.69105694-6.99187-5.69105694h-11.544716c-.162601 0-.325203.16260163-.325203.32520325v18.53658539c0 .1626016.162602.3252032.325203.3252032h7.479675c2.439024 0 2.926829-.9756097 3.089431-2.9268292l.487805-3.4146342h.650406c.650407 0 1.138212.1626016 1.300813.3252033.325203.3252032.487805.9756097.325203 1.9512195-.162601 4.5528455-.162601 9.2682927 0 13.9837398-.325203.1626016-.650406.1626016-.975609.1626016-.325204 0-.650407 0-.97561-.1626016-.97561-5.3658536-1.788618-6.3414634-4.065041-6.3414634h-7.479674c-.162602 0-.325204.1626016-.325204.3252033v12.6829268c0 2.7642276.813008 4.0650406 5.853659 4.0650406h6.178862c5.365853 0 6.178861-.3252032 9.268292-6.9918699l1.95122-4.2276423c.97561 0 1.463414.1626017 1.788618.6504065.325203.4878049.325203 1.1382114 0 1.9512196-1.626017 4.8780487-2.92683 8.9430894-3.739838 12.6829268zm-45.853659 0c-.162601-.6504065-.162601-1.4634146 0-2.1138211 6.666667-.4878049 8.617886-1.300813 8.617886-6.3414634v-32.84552847c0-2.76422765-1.138211-3.41463415-4.227642-3.41463415h-3.252032c-.162602-.81300813-.162602-1.46341463.162601-1.78861789.325203-.48780487 1.300813-.81300813 2.601626-.81300813h22.113821c.162602.65040651.162602 1.62601626 0 2.11382114-7.317073.48780488-9.105691 1.13821138-9.105691 6.0162602v31.8699187c0 2.9268292 1.95122 3.4146341 3.577236 3.4146341h4.552846c5.365853 0 6.178861-.3252032 9.268292-6.9918699l1.95122-4.2276423c.975609 0 1.626016.1626016 1.788618.6504065.325203.4878049.325203 1.1382114 0 1.9512195-1.788618 4.8780488-2.92683 8.9430895-3.739838 12.6829269h-34.308943zm-119.186992 0c-.162601-.6504065-.162601-1.4634146 0-2.2764227 5.528456-.9756098 7.154472-1.6260163 7.154472-4.8780488v-34.3089431c0-2.92682927-.97561-3.41463415-4.227642-3.41463415h-3.252033c-.162602-.81300813-.162602-1.46341463.162602-1.78861788.325203-.48780488 1.300813-.81300813 2.601626-.81300813h20.325203c.162602.6504065.162602 1.62601626 0 2.11382114-6.178862.48780487-7.317073 1.95121951-7.317073 5.0406504v34.14634142c0 2.7642277 1.138211 3.4146342 4.06504 3.4146342h3.577236c.162602 1.1382114.162602 1.7886179 0 2.1138211-.325203.3252033-.813008.4878049-1.463414.4878049zm-30.2439022 0c-.1626016-.6504065-.1626016-1.4634146 0-2.1138211 5.3658537-.1626016 7.3170732-.4878049 7.9674797-1.4634146.3252032-.4878049.1626016-1.1382114 0-1.7886179l-4.5528455-10.894309c0-.1626016-.1626017-.1626016-.3252033-.1626016h-18.5365854c-.1626016 0-.3252032.1626016-.3252032.1626016l-2.9268293 7.8048781c-.9756097 2.601626-1.300813 3.902439-.8130081 4.8780488.4878049.6504065 1.4634146.9756097 3.4146341.9756097h5.8536586c.1626016.9756098.1626016 1.6260163-.1626016 2.1138212-.3252033.3252032-.6504065.4878048-1.3008131.4878048h-20.3252032c-.1626016-.6504065-.1626016-1.4634146 0-2.1138211 5.5284553-.6504065 6.1788618-1.300813 8.1300813-5.8536585l14.1463415-33.65853663c2.4390244-5.52845528 3.2520325-6.50406504 6.3414634-6.50406504h2.601626c.1626016 1.46341464.8130081 2.76422765 1.7886179 5.20325204l16.5853654 37.88617883c.813009 1.9512195 1.788618 2.7642277 5.528456 2.7642277h1.463414c.162602.9756097.162602 1.7886179-.162601 2.1138211-.325204.3252033-.650407.4878049-1.463415.4878049zm-6.504065-39.0243902c-.1626016 0-.3252033.1626016-.3252033.1626016l-7.4796748 18.699187v.3252033s.1626017.1626016.3252033.1626016h15.2845528c.1626017 0 .1626017 0 .3252033-.1626016 0-.1626017 0-.1626017 0-.3252033l-7.8048781-18.699187s-.1626016-.1626016-.3252032-.1626016zm-84.39024392 39.0243902c-.16260163-.6504065-.16260163-1.4634146 0-2.1138211 7.47967479-.4878049 9.10569105-.9756098 9.10569105-6.0162602v-33.9837398c0-3.0894309-.97560975-3.57723578-4.22764227-3.57723578h-3.25203252c-.16260163-.97560975-.16260163-1.62601626.16260162-1.95121951.65040651-.81300813 3.0894309-1.13821138 9.59349594-1.13821138h14.6341463c19.5121952 0 29.2682927 8.1300813 29.2682927 24.39024387 0 15.9349594-9.9186992 24.3902439-28.6178862 24.3902439zm17.72357722-45.203252c-.1626016 0-.3252032.16260163-.3252032.32520325v36.09756095c0 4.7154472 1.9512195 5.3658537 8.6178861 5.3658537 18.0487805 0 20.4878049-9.9186992 20.4878049-19.6747968 0-14.308943-7.6422764-22.1138211-21.300813-22.1138211z" fill-rule="nonzero"/><path d="m55.6097561 25.203252c0-15.93495932-9.7560976-24.06504062-28.9430894-24.06504062h-14.6341464c-5.36585363 0-8.61788615.16260163-9.43089428.97560976-.16260163.32520325-.32520326.6504065-.16260163 1.46341463v.32520325l-.48780488.32520326c-.48780488-3.0894309-.16260162-3.7398374 10.08130079-3.7398374h14.6341464c20.6504065 0 29.5934959 9.26829268 29.5934959 24.71544712l-.3252033.3252033z"/><path d="m55.6097561 25.203252c0 15.7723578-9.7560976 24.0650407-28.2926829 24.0650407h-26.50406507-.32520325l-.16260163.6504065h26.99186995c20.4878048 0 28.9430894-9.9186992 28.9430894-24.7154472z"/><path d="m25.6910569 46.6666667h.8130081c10.2439025 0 20.8130082-2.4390244 20.8130082-20 0-14.4715447-7.6422765-22.43902442-21.6260163-22.43902442l-.4878049.32520325.4878049.32520325c13.8211382 0 20.9756098 7.96747972 20.9756098 21.78861792 0 15.4471544-7.8048781 19.3495935-20.1626017 19.3495935-.3252032 0-.6504065 0-.8130081 0l-.3252032.3252032z"/><path d="m17.7235772 26.504065v-21.78861785c0-.32520325.3252033-.6504065.6504065-.6504065h7.3170732v.6504065h-7.4796748v21.78861785l-.3252032.1626017z"/><path d="m18.2113821 26.504065v14.3089431c0 4.2276423 1.4634146 5.0406504 7.4796748 5.0406504v.6504065c-6.1788618 0-7.9674797-.9756097-7.9674797-5.6910569v-14.3089431z"/><path d="m59.6747967 49.2682927c0-.4878049 0-.9756098 0-1.6260163 5.3658537-.6504065 6.1788618-1.4634146 8.1300813-6.0162601l14.1463415-33.65853663c2.2764228-5.52845528 3.0894309-6.34146341 6.0162602-6.34146341h2.2764227l.3252033-.16260163.1626016-.48780487h-2.601626c-3.4146341 0-4.3902439 1.13821138-6.6666667 6.66666666l-14.1463414 33.65853658c-1.9512195 4.5528455-2.601626 5.0406504-8.1300813 5.6910569-.1626017.9756098-.1626017 2.1138212 0 2.7642277z"/><path d="m59.6747967 49.2682927h20c.4878049 0 .9756098-.1626016 1.1382114-.3252033.1626017-.3252032.3252033-.8130081.1626017-1.6260162v-.3252033l.6504065-.3252032c.4878048 2.1138211 0 3.2520325-1.7886179 3.2520325h-20.4878049z"/><path d="m73.0081301 39.5121951-.6504065 1.6260163c-1.1382114 2.7642276-1.4634147 4.0650406-.8130082 5.0406504.6504066.9756097 1.9512196 1.1382114 3.5772358 1.1382114h5.6910569l.4878049-.6504065h-6.1788618c-3.902439 0-3.902439-1.1382114-2.2764227-5.3658537l.6504065-1.9512195-.1626017-.3252033z"/><path d="m73.0081301 39.5121951 2.2764227-6.1788618c.1626017-.3252032.3252033-.4878048.6504065-.4878048h9.1056911l.1626016.3252032-.1626016.3252033h-9.1056911l-2.2764227 5.8536585z"/><path d="m97.5609756 39.5121951-2.601626-6.1788618c-.1626016-.1626016-.3252033-.3252032-.6504065-.3252032h-9.4308943v.6504065h9.4308943l2.4390244 5.8536585.4878049.3252033z"/><path d="m97.5609756 39.5121951 1.9512195 4.7154472c.3252033.6504065.4878049 1.300813 0 1.9512195-.6504065.9756097-2.601626 1.4634146-7.9674797 1.6260162v1.4634147.3252032l-.6504065.3252033c-.1626016-.6504065-.1626016-1.9512195 0-2.7642277 7.8048781-.1626016 8.6178862-.8130081 7.8048781-2.7642276l-2.1138211-5.0406504z"/><path d="m91.7073171 49.2682927h22.7642279c.487805 0 .975609-.1626016 1.138211-.3252033.162602-.3252032.325203-.8130081.162602-1.6260162v-.3252033l.487805-.3252032c.487804 2.1138211 0 3.2520325-1.788618 3.2520325h-23.2520328z"/><path d="m115.772358 47.3170732h-1.138212c-3.739837 0-4.878048-.6504065-5.853658-2.9268293l-16.585366-37.88617886c-.9756098-2.27642276-1.6260163-3.57723577-1.7886179-4.87804878l.4878048-.6504065c.1626017 1.62601626.6504065 2.76422764 1.7886179 5.36585365l16.5853662 37.88617889c.813008 1.7886179 1.626016 2.4390244 5.203252 2.4390244h1.626016z"/><path d="m84.8780488 10.2439024c-.3252033 0-.4878049.1626017-.6504065.3252033l-7.4796748 18.699187v.6504065c.1626016.1626016.3252032.3252032.4878049.3252032h7.4796748l.1626016-.3252032-.1626016-.3252033h-7.4796748l7.4796748-18.699187.1626016-.3252032z"/><path d="m84.8780488 10.2439024c.3252032 0 .4878049.1626017.6504065.3252033l7.804878 18.699187c.1626017.1626016 0 .4878049 0 .6504065-.1626016.1626016-.3252032.3252032-.4878048.3252032h-7.9674797v-.6504065h7.804878l-7.804878-18.699187z"/><path d="m144.065041 2.60162602h-20c-1.138212 0-1.95122.16260162-2.276423.6504065-.162602.32520325-.325203.6504065-.162602 1.30081301l.162602.32520325-.650407.32520325c-.487804-1.78861788 0-3.25203252 3.089431-3.25203252h20.487805l-.325203.65040651z"/><path d="m121.788618 49.2682927c-.162602-.4878049 0-.9756098 0-1.6260163 5.203252-.8130081 7.154471-1.6260162 7.154471-5.203252v-34.3089431c0-3.08943089-1.138211-3.7398374-4.552845-3.7398374h-2.926829l-.487805.65040651h3.414634c3.252032 0 3.902439.48780487 3.902439 3.08943089v34.3089431c0 2.9268293-1.300813 3.7398374-7.154472 4.5528455-.325203.9756098-.325203 2.1138212 0 2.7642277l.487805-.3252033z"/><path d="m144.552846 47.3170732c.162601.8130081.162601 1.300813 0 1.6260162-.162602.1626017-.650407.3252033-1.300813.3252033h-21.300813l-.487805.6504065h21.788618c2.113821 0 2.439024-1.1382114 1.788617-3.2520325l-.650406.3252032z"/><path d="m136.747967 26.504065v17.0731708c0 3.0894309 1.300813 3.7398374 4.390244 3.7398374h3.414635l.487804-.6504065h-3.902439c-3.089431 0-3.739837-.4878049-3.739837-3.0894309v-17.0731708l-.325203-.3252032z"/><path d="m144.065041 4.22764228c-5.528456.48780487-7.317074 1.78861788-7.317074 5.36585365v17.07317077h.650407v-17.07317077c0-3.08943089.97561-4.3902439 7.154472-4.87804878l-.325204-.6504065z"/><path d="m144.065041 2.60162602v1.62601626l.487805.6504065c.162601-.6504065.162601-2.11382114 0-2.76422764z"/><path d="m175.284553 2.60162602h-13.98374c-1.138211 0-1.95122.16260162-2.276423.6504065-.162601.32520325-.325203.6504065-.162601 1.30081301l.162601.32520325-.650406.32520325c-.487805-1.62601626 0-3.25203252 3.089431-3.25203252h14.471544v.65040651z"/><path d="m154.308943 49.2682927c0-.4878049 0-.9756098 0-1.6260163 7.317073-.4878049 8.617886-1.7886179 8.94309-5.5284553l2.926829-33.82113817c.162601-.81300813.162601-1.78861789-.487805-2.43902439-.813008-.97560976-2.601626-1.30081301-6.99187-1.46341464l-.487805.65040651c7.154472.16260162 7.479675.97560975 7.317073 3.25203252l-2.926829 33.82113817c-.162602 3.0894309-.813008 4.3902439-8.780488 4.8780488-.162601.9756098-.162601 1.7886179 0 2.7642277l.650407-.3252033z"/><path d="m178.699187 47.3170732c.162602.8130081.162602 1.300813-.162602 1.6260162-.162601.1626017-.650406.3252033-1.138211.3252033h-23.089431l-.487805.6504065h23.577236c1.951219 0 2.276423-1.1382114 1.788618-3.2520325l-.487805.3252032z"/><path d="m170.243902 10.2439024c-.487804 0-.650406.3252033-.650406.6504065l-2.276423 32.195122c-.162601 1.1382114-.162601 2.2764228.487805 2.9268293.813008.9756097 2.601626 1.300813 7.479675 1.300813h3.414634l.487805-.6504065h-3.902439c-7.642277 0-7.642277-.6504065-7.317073-3.5772358l2.276422-32.195122.162602-.1626016z"/><path d="m190.406504 49.4308943-19.674797-38.8617886c-.162601-.1626016-.325203-.3252033-.650406-.3252033v.6504065l19.837398 39.1869919.325203-.1626016z"/><path d="m210.894309 10.2439024c-.325203 0-.650407.1626017-.650407.3252033l-17.235772 36.2601626c-1.138211 2.2764228-1.626016 2.601626-2.601626 2.601626l-.325203.6504065c1.626016 0 2.276423-.4878049 3.577236-3.0894309l17.235772-36.2601626.162602-.3252032z"/><path d="m203.902439 49.2682927c-.162602-.4878049-.162602-.9756098 0-1.4634147l3.414634-.1626016c3.414634-.1626016 5.528455-.4878049 6.666667-1.7886179.813008-.9756097.813008-2.2764227.650406-3.5772357l-3.252032-31.3821139c0-.3252032-.325203-.4878048-.487805-.4878048l-.162602.6504065 3.252033 31.3821138c.325203 3.5772358-.650407 4.3902439-6.666667 4.7154471l-3.902439.1626017c-.325203.9756097-.325203 1.7886179 0 2.7642276l.487805-.3252032z"/><path d="m230.243902 47.3170732c0 .6504065 0 1.4634146-.325203 1.6260162-.162601.1626017-.650406.3252033-1.138211.3252033h-24.878049l-.487805.6504065h25.365854c1.951219 0 2.276423-1.1382114 1.951219-3.2520325l-.487805.1626016z"/><path d="m226.829268 4.22764228c-3.739837.32520325-5.691057.81300813-6.504065 1.78861788-.650406.81300813-.650406 1.78861789-.487805 2.60162602l1.788618 18.04878052h.650407l-1.788618-18.21138215c-.162602-2.11382114.162602-3.25203252 6.829268-3.7398374l-.162601-.6504065z"/><path d="m221.626016 26.504065 1.626017 16.9105691c.325203 2.7642277 1.951219 3.0894309 6.991869 3.7398374l.650407-.6504065c-5.528455-.6504065-6.666667-.9756097-6.829268-3.2520325l-1.626017-16.9105691-.325203-.4878049z"/><path d="m226.829268 2.60162602c.162602.48780487.162602.97560975 0 1.62601626l.487805.6504065c.325203-.97560976.325203-1.78861789 0-2.76422764l-.650406.32520325z"/><path d="m210.731707 2.60162602h16.097561l.487805-.65040651h-16.910569v.65040651z"/><path d="m193.821138 37.2357724c.325203 0 .487805-.1626017.650407-.3252033l16.422764-34.14634146-.325203-.6504065-16.747968 34.47154476-.325203.1626016z"/><path d="m175.284553 2.60162602 17.886179 34.14634148c.162601.1626016.325203.3252032.650406.3252032v-.6504065l-18.04878-34.47154469z"/><path d="m241.138211 49.2682927c0-.4878049-.162601-.9756098 0-1.6260163 6.504065-.4878049 8.617887-1.4634146 8.617887-6.6666666v-32.8455285c0-3.08943089-1.463415-3.7398374-4.552846-3.7398374h-2.926829-.325203l-.162602.65040651h3.414634c3.089431 0 3.902439.48780487 3.902439 3.08943089v32.8455285c0 4.7154471-1.626016 5.5284552-8.617886 6.0162601-.162602.9756098-.162602 1.7886179 0 2.7642277l.650406-.3252033z"/><path d="m241.138211 49.2682927h33.98374c.813008-3.7398374 1.95122-7.6422764 3.577236-12.5203252.162602-.4878049.325203-1.300813 0-1.6260163-.325203-.3252032-.813008-.4878049-1.463415-.4878049h-.487805v-.6504065c2.113822 0 3.089431.8130082 2.439025 3.0894309-1.463415 4.3902439-2.764228 8.4552846-3.739838 13.0081301h-35.121951z"/><path d="m277.398374 34.6341463-1.788618 4.0650407c-3.089431 6.504065-3.902439 7.1544715-9.593496 7.1544715l-.325203-.3252032.325203-.3252033c5.365854 0 6.01626-.3252032 9.105691-6.8292683l1.95122-4.3902439z"/><path d="m257.398374 26.504065v15.6097561c0 3.2520326 2.276423 3.7398374 3.902439 3.7398374h4.552846v-.6504065h-4.552846c-1.95122 0-3.252033-.6504065-3.252033-3.0894309v-15.6097561l-.325203-.4878048z"/><path d="m257.398374 26.504065v-16.0975609c0-5.20325207 2.276423-6.0162602 9.105691-6.34146345h.325203l.325204.6504065c-7.479675.48780488-8.94309 1.13821139-8.94309 5.69105695v16.0975609z"/><path d="m266.504065 4.22764228c0-.48780488 0-1.13821139 0-1.46341464l-.162602-.32520325.650407-.32520325c.162602.6504065.162602 2.11382114 0 2.76422764z"/><path d="m266.504065 2.60162602h-21.788618c-1.138211 0-1.951219.16260162-2.276423.6504065-.162601.32520325-.325203.6504065-.162601 1.30081301l-.487805.6504065c-.487805-1.78861788 0-3.25203252 3.089431-3.25203252h22.113821z"/><path d="m324.878049 2.60162602h-33.658537c-1.138211 0-1.951219.16260162-2.276423.6504065-.162601.32520325-.325203.6504065-.325203 1.30081301v.32520325l-.650406.32520325c-.325204-1.78861788 0-3.25203252 3.089431-3.25203252h34.146341l-.162602.48780488z"/><path d="m286.99187 49.2682927c-.162602-.4878049-.162602-.9756098 0-1.4634147 6.99187-.3252032 9.105691-.9756097 9.105691-6.3414634v-33.17073167c0-3.0894309-1.138211-3.7398374-4.552846-3.7398374h-2.926829l-.650406.6504065h3.414634c3.252032 0 3.902439.48780488 3.902439 3.0894309v33.17073167c0 4.8780488-1.300813 5.3658537-8.94309 5.6910569-.325203.9756098-.325203 1.7886179 0 2.7642277l.487805-.1626016z"/><path d="m327.804878 34.6341463c.487805 0 1.138211.1626017 1.300813.4878049.325203.4878049.162602 1.1382114 0 1.6260163-1.626016 4.7154471-2.764228 8.7804878-3.577236 12.5203252h-38.699187l-.487805.6504065h39.674797c.97561-4.3902439 2.276423-8.7804878 3.739838-13.0081301.650406-2.1138211-.325204-3.0894309-2.439025-3.0894309v.4878049z"/><path d="m310.243902 45.8536585h6.178862c5.691057 0 6.666667-.6504065 9.593496-7.1544715l1.788618-4.0650407-.487805-.6504065-1.951219 4.3902439c-3.089431 6.5040651-3.739838 6.8292683-9.105691 6.8292683h-6.178862l-.162602.3252033z"/><path d="m304.065041 37.0731707v4.5528456c0 3.2520325 1.463414 4.2276422 6.178861 4.2276422v-.6504065c-4.878048 0-5.528455-1.1382113-5.528455-3.7398374v-4.5528455l-.162601-.1626016z"/><path d="m308.292683 28.2926829h-3.577236c-.325203 0-.650406.3252033-.650406.6504065v8.1300813h.650406v-8.1300813h3.577236l.162602-.3252032z"/><path d="m316.585366 34.796748c-.813008-5.0406504-1.788618-6.3414634-4.227642-6.3414634h-3.902439v.6504065h3.902439c1.788617 0 2.764227.6504065 3.739837 6.1788617l.487805-.1626016z"/><path d="m317.723577 34.796748c-.162601 0-.325203 0-.650406 0-.162602 0-.487805 0-.650407 0l-.650406.4878048c.813008.3252033 1.788618.3252033 2.439024 0l-.162602-.3252032z"/><path d="m316.097561 19.0243902h.325203c.813008 0 .97561.1626017 1.138212.3252033.325203.3252032.325203.8130081.325203 1.7886179-.162602 4.3902439-.162602 9.105691 0 13.6585366l.650406.4878048c-.162601-4.7154471-.162601-9.5934959 0-14.1463414.162602-2.2764228-.650406-2.7642277-2.113821-2.7642277h-.813008l.162602.4878049z"/><path d="m308.455285 25.203252h3.739837c2.601626 0 3.252032-1.1382113 3.414634-3.0894309l.487805-3.0894309-.487805-.6504065-.487805 3.7398374c-.162601 1.7886179-.650406 2.6016261-2.764227 2.6016261h-3.739838l-.162601.1626016z"/><path d="m304.065041 15.1219512v9.4308943c0 .3252033.325203.6504065.650406.6504065h3.739838v-.6504065h-3.739838v-9.4308943l-.162601-.1626016z"/><path d="m308.455285 5.52845528h-3.739838c-.325203 0-.650406.32520326-.650406.65040651v8.94308941h.650406v-8.94308941h3.739838l.162601-.32520325z"/><path d="m324.227642 14.3089431-.813008-2.7642277c-1.300813-4.55284548-2.926829-6.01626012-7.317073-6.01626012h-7.642276v.65040651h7.642276c3.902439 0 5.528455 1.13821138 6.666667 5.52845531l.975609 3.2520325.487805-.1626016z"/><path d="m324.878049 2.60162602c.162601 2.76422764.650406 6.01626016 1.138211 9.10569108.162602.6504065.162602 1.4634146-.325203 2.1138211-.325203.3252033-.813008.4878049-1.463415.4878049l-.487805.6504065c2.276423.1626016 3.089431-.9756098 2.764228-3.2520325-.487805-3.08943092-.97561-6.50406507-1.138211-9.75609759z"/><path d="m372.195122 31.2195122c6.01626-2.4390244 9.756098-7.3170732 9.756098-13.495935 0-9.91869915-7.642277-16.42276419-21.463415-16.42276419-10.081301 0-14.308943 0-17.886179.32520325-2.926829.16260163-3.414634 1.62601626-2.926829 3.41463415l.487805-.65040651c-.162602-.6504065 0-.97560975.162601-1.30081301.325204-.48780487 1.138212-.81300813 2.276423-.81300813 3.414634-.32520325 7.642276-.32520325 17.723577-.32520325 13.00813 0 20.813008 5.85365854 20.813008 15.77235769 0 5.6910569-3.414634 10.4065041-9.268292 12.8455285-.162602.1626016-.325204.3252032-.325204.4878049z"/><path d="m340.325203 4.55284553h2.92683c3.08943 0 4.552845.6504065 4.552845 3.90243902v33.17073175c0 5.0406504-2.113821 5.6910569-7.804878 6.1788617v1.6260163l-.162602.4878049-.487805.1626016c-.162601-.8130081-.162601-1.9512195 0-2.7642276 6.178862-.4878049 7.642277-1.1382114 7.642277-5.5284553v-33.17073172c0-2.76422764-.97561-3.25203252-3.902439-3.25203252h-3.414634z"/><path d="m363.577236 47.3170732c0 .6504065 0 1.300813-.325203 1.6260162-.162602.1626017-.650407.3252033-1.300813.3252033h-22.113822l-.487805.6504065h22.601627c2.113821 0 2.276422-1.1382114 2.113821-3.2520325z"/><path d="m355.447154 39.8373984v4.0650406c0 2.601626 1.138212 3.4146342 5.040651 3.4146342h3.089431l.650406-.6504065h-3.739837c-3.739838 0-4.390244-.6504065-4.390244-2.7642277v-4.0650406l-.325203-.1626017z"/><path d="m360.97561 32.6829268h-4.878049c-.325203 0-.650407.3252033-.650407.6504065v6.5040651h.650407v-6.5040651h4.878049l.162601-.3252032z"/><path d="m390.569106 50.4065041c-.162602 0-.162602 0 0 0-6.829269 0-11.056911-1.4634147-15.93496-5.8536586-2.764227-2.4390244-5.04065-5.203252-6.666666-8.1300813-1.95122-3.4146341-2.276423-3.7398374-6.829269-3.7398374v.6504065c4.390244 0 4.552846.1626017 6.341464 3.4146342s4.390244 6.1788618 6.829268 8.2926829c5.365854 4.5528455 9.756098 6.0162602 16.422764 6.0162602l.325204-.3252033z"/><path d="m398.699187 47.3170732c0 .4878048 0 .9756097-.325203 1.300813-.650407.8130081-2.439025 1.7886179-7.804878 1.7886179v.6504065c7.642276 0 9.430894-1.7886179 8.780487-4.3902439l-.325203.1626016z"/><path d="m371.544715 31.2195122c0 .1626016 0 .4878049.162602.6504065 0 0 5.365854 5.0406504 8.130081 7.1544715 9.268293 7.4796748 12.682927 8.292683 18.699187 8.4552846l.487805-.6504065c-6.178862 0-9.430894-.6504065-18.861788-8.2926829-2.764228-2.2764228-8.130082-7.1544716-8.130082-7.1544716l-.162601-.1626016z"/><path d="m358.373984 29.7560976h1.138211c6.504065 0 13.495935-.8130082 13.495935-11.5447155 0-8.94308942-4.715447-13.33333332-14.471545-13.33333332h-.162601l-.162602.32520325.162602.32520325h.162601c8.130082 0 13.821139 3.0894309 13.821139 12.68292682 0 9.7560976-5.691057 10.894309-12.845529 10.894309h-1.138211l-.162602.3252032z"/><path d="m355.447154 18.3739837v-12.68292679c0-.32520325.325204-.6504065.650407-.6504065h2.276423v.6504065h-2.276423v12.68292679l-.325203.1626017z"/><path d="m355.447154 18.3739837v10.894309c0 .3252032.325204.6504065.650407.6504065h2.276423v-.6504065h-2.276423v-10.894309z"/></g></svg>