<?xml version="1.0" encoding="UTF-8"?>
<svg width="400px" height="52px" viewBox="0 0 400 52" version="1.1" xmlns="http://www.w3.org/2000/svg" xmlns:xlink="http://www.w3.org/1999/xlink">
    <!-- Generator: Sketch 52.4 (67378) - http://www.bohemiancoding.com/sketch -->
    <title>daimler@1x</title>
    <desc>Created with Sketch.</desc>
    <g id="Page-1" stroke="none" stroke-width="1" fill="none" fill-rule="evenodd">
        <g id="daimler" fill="#E3E8F0">
            <path d="M390.406504,50.7317073 C383.577236,50.7317073 379.349593,49.1056911 374.308943,44.7154472 C371.544715,42.2764228 369.105691,39.3495935 367.479675,36.5853659 C365.691057,33.1707317 365.365854,33.0081301 360.813008,33.0081301 L355.934959,33.0081301 C355.772358,33.0081301 355.609756,33.1707317 355.609756,33.3333333 L355.609756,43.902439 C355.609756,46.3414634 356.585366,46.9918699 360.325203,46.9918699 L363.739837,46.9918699 C363.739837,47.804878 363.739837,48.7804878 363.414634,49.1056911 C363.089431,49.4308943 362.601626,49.5934959 361.95122,49.5934959 L339.674797,49.5934959 C339.674797,49.1056911 339.512195,48.2926829 339.674797,47.4796748 C345.691057,46.9918699 347.479675,46.1788618 347.479675,41.6260163 L347.479675,8.45528455 C347.479675,5.36585366 346.178862,4.87804878 343.252033,4.87804878 L340,4.87804878 C339.837398,4.06504065 339.837398,3.41463415 340.162602,3.08943089 C340.487805,2.60162602 341.463415,2.27642276 342.764228,2.11382114 C346.178862,1.78861789 350.406504,1.78861789 360.487805,1.78861789 C373.658537,1.78861789 381.626016,7.80487805 381.626016,17.8861789 C381.626016,23.7398374 378.211382,28.4552846 372.195122,31.0569106 C372.03252,31.0569106 372.03252,31.2195122 372.03252,31.2195122 C372.03252,31.3821138 372.03252,31.3821138 372.195122,31.5447154 C372.195122,31.5447154 377.560976,36.5853659 380.325203,38.699187 C389.756098,46.1788618 393.00813,46.9918699 399.186992,46.9918699 C399.349593,47.804878 399.186992,48.2926829 398.861789,48.7804878 C397.560976,50.0813008 394.796748,50.7317073 390.406504,50.7317073 Z M356.097561,5.36585366 C355.934959,5.36585366 355.772358,5.52845528 355.772358,5.69105691 L355.772358,29.2682927 C355.772358,29.4308943 355.934959,29.5934959 356.097561,29.5934959 L359.512195,29.5934959 C366.178862,29.5934959 372.682927,28.7804878 372.682927,18.3739837 C372.682927,9.59349593 367.96748,5.36585366 358.536585,5.36585366 L356.097561,5.36585366 Z M170.406504,10.7317073 C170.406504,10.5691057 170.243902,10.5691057 170.081301,10.5691057 C169.918699,10.5691057 169.756098,10.7317073 169.756098,10.8943089 L167.479675,43.0894309 C167.317073,44.2276423 167.317073,45.203252 167.96748,45.8536585 C168.780488,46.6666667 170.569106,46.9918699 175.284553,46.9918699 L178.861789,46.9918699 C179.02439,48.1300813 179.02439,48.7804878 178.699187,49.1056911 C178.373984,49.4308943 178.04878,49.5934959 177.235772,49.5934959 L153.98374,49.5934959 C153.821138,48.9430894 153.821138,48.1300813 153.98374,47.4796748 C161.626016,46.9918699 162.601626,45.5284553 162.764228,42.2764228 L165.691057,8.45528455 C165.691057,7.64227642 165.853659,6.82926829 165.203252,6.17886179 C164.390244,5.36585366 162.601626,4.87804878 158.211382,4.71544715 C158.04878,3.90243902 158.211382,3.41463415 158.536585,2.92682927 C159.02439,2.43902439 159.837398,2.11382114 160.97561,2.11382114 L175.284553,2.11382114 L193.170732,36.4227642 C193.170732,36.5853659 193.333333,36.5853659 193.495935,36.5853659 C193.658537,36.5853659 193.658537,36.5853659 193.821138,36.4227642 L210.243902,2.11382114 L226.829268,2.11382114 C226.99187,2.76422764 226.99187,3.57723577 226.829268,4.22764228 C223.089431,4.55284553 221.138211,5.04065041 220.325203,6.01626016 C219.674797,6.66666667 219.837398,7.4796748 219.837398,8.29268293 L223.252033,43.4146341 C223.414634,46.0162602 225.04065,46.1788618 230.243902,46.8292683 C230.406504,47.9674797 230.243902,48.6178862 229.918699,49.1056911 C229.593496,49.4308943 229.268293,49.5934959 228.455285,49.5934959 L203.414634,49.5934959 C203.252033,48.9430894 203.252033,48.1300813 203.414634,47.4796748 L206.99187,47.3170732 C210.406504,47.1544715 212.357724,46.8292683 213.333333,45.6910569 C214.146341,44.8780488 213.98374,43.5772358 213.98374,42.2764228 L210.731707,10.8943089 C210.731707,10.7317073 210.569106,10.5691057 210.406504,10.5691057 C210.243902,10.5691057 210.243902,10.5691057 210.081301,10.7317073 L192.845528,46.9918699 C191.707317,49.4308943 191.056911,49.7560976 189.756098,49.7560976 L170.406504,10.7317073 Z M286.666667,49.5934959 C286.504065,48.9430894 286.504065,48.1300813 286.666667,47.4796748 C294.146341,46.9918699 295.772358,46.504065 295.772358,41.4634146 L295.772358,8.29268293 C295.772358,5.36585366 294.796748,4.87804878 291.544715,4.87804878 L288.455285,4.87804878 C288.292683,3.90243902 288.455285,3.41463415 288.780488,3.08943089 C289.268293,2.60162602 290.081301,2.43902439 291.382114,2.43902439 L325.203252,2.43902439 C325.365854,5.36585366 325.853659,8.61788618 326.341463,11.8699187 C326.504065,12.8455285 326.341463,13.6585366 326.01626,14.1463415 C325.691057,14.4715447 325.203252,14.796748 324.390244,14.796748 C324.227642,14.796748 324.227642,14.796748 324.065041,14.796748 L323.252033,11.7073171 C321.95122,7.31707317 320.487805,6.01626016 316.260163,6.01626016 L304.715447,6.01626016 C304.552846,6.01626016 304.390244,6.17886179 304.390244,6.34146341 L304.390244,24.8780488 C304.390244,25.0406504 304.552846,25.203252 304.715447,25.203252 L312.195122,25.203252 C314.634146,25.203252 315.121951,24.2276423 315.284553,22.2764228 L315.772358,18.8617886 L316.422764,18.8617886 C317.073171,18.8617886 317.560976,19.0243902 317.723577,19.1869919 C318.04878,19.5121951 318.211382,20.1626016 318.04878,21.1382114 C317.886179,25.6910569 317.886179,30.4065041 318.04878,35.1219512 C317.723577,35.2845528 317.398374,35.2845528 317.073171,35.2845528 C316.747967,35.2845528 316.422764,35.2845528 316.097561,35.1219512 C315.121951,29.7560976 314.308943,28.7804878 312.03252,28.7804878 L304.552846,28.7804878 C304.390244,28.7804878 304.227642,28.9430894 304.227642,29.1056911 L304.227642,41.7886179 C304.227642,44.5528455 305.04065,45.8536585 310.081301,45.8536585 L316.260163,45.8536585 C321.626016,45.8536585 322.439024,45.5284553 325.528455,38.8617886 L327.479675,34.6341463 C328.455285,34.6341463 328.943089,34.796748 329.268293,35.2845528 C329.593496,35.7723577 329.593496,36.4227642 329.268293,37.2357724 C327.642276,42.1138211 326.341463,46.1788618 325.528455,49.9186992 L286.666667,49.5934959 Z M240.813008,49.5934959 C240.650407,48.9430894 240.650407,48.1300813 240.813008,47.4796748 C247.479675,46.9918699 249.430894,46.1788618 249.430894,41.1382114 L249.430894,8.29268293 C249.430894,5.52845528 248.292683,4.87804878 245.203252,4.87804878 L241.95122,4.87804878 C241.788618,4.06504065 241.788618,3.41463415 242.113821,3.08943089 C242.439024,2.60162602 243.414634,2.27642276 244.715447,2.27642276 L266.829268,2.27642276 C266.99187,2.92682927 266.99187,3.90243902 266.829268,4.3902439 C259.512195,4.87804878 257.723577,5.52845528 257.723577,10.4065041 L257.723577,42.2764228 C257.723577,45.203252 259.674797,45.6910569 261.300813,45.6910569 L265.853659,45.6910569 C271.219512,45.6910569 272.03252,45.3658537 275.121951,38.699187 L277.073171,34.4715447 C278.04878,34.4715447 278.699187,34.6341463 278.861789,35.1219512 C279.186992,35.6097561 279.186992,36.2601626 278.861789,37.0731707 C277.073171,41.9512195 275.934959,46.0162602 275.121951,49.7560976 L240.813008,49.7560976 L240.813008,49.5934959 Z M121.626016,49.5934959 C121.463415,48.9430894 121.463415,48.1300813 121.626016,47.3170732 C127.154472,46.3414634 128.780488,45.6910569 128.780488,42.4390244 L128.780488,8.1300813 C128.780488,5.20325203 127.804878,4.71544715 124.552846,4.71544715 L121.300813,4.71544715 C121.138211,3.90243902 121.138211,3.25203252 121.463415,2.92682927 C121.788618,2.43902439 122.764228,2.11382114 124.065041,2.11382114 L144.390244,2.11382114 C144.552846,2.76422764 144.552846,3.7398374 144.390244,4.22764228 C138.211382,4.71544715 137.073171,6.17886179 137.073171,9.26829268 L137.073171,43.4146341 C137.073171,46.1788618 138.211382,46.8292683 141.138211,46.8292683 L144.715447,46.8292683 C144.878049,47.9674797 144.878049,48.6178862 144.715447,48.9430894 C144.390244,49.2682927 143.902439,49.4308943 143.252033,49.4308943 L121.626016,49.5934959 Z M91.3821138,49.5934959 C91.2195122,48.9430894 91.2195122,48.1300813 91.3821138,47.4796748 C96.7479675,47.3170732 98.699187,46.9918699 99.3495935,46.0162602 C99.6747967,45.5284553 99.5121951,44.8780488 99.3495935,44.2276423 L94.796748,33.3333333 C94.796748,33.1707317 94.6341463,33.1707317 94.4715447,33.1707317 L75.9349593,33.1707317 C75.7723577,33.1707317 75.6097561,33.3333333 75.6097561,33.3333333 L72.6829268,41.1382114 C71.7073171,43.7398374 71.3821138,45.0406504 71.8699187,46.0162602 C72.3577236,46.6666667 73.3333333,46.9918699 75.2845528,46.9918699 L81.1382114,46.9918699 C81.300813,47.9674797 81.300813,48.6178862 80.9756098,49.1056911 C80.6504065,49.4308943 80.3252033,49.5934959 79.6747967,49.5934959 L59.3495935,49.5934959 C59.1869919,48.9430894 59.1869919,48.1300813 59.3495935,47.4796748 C64.8780488,46.8292683 65.5284553,46.1788618 67.4796748,41.6260163 L81.6260163,7.96747967 C84.0650407,2.43902439 84.8780488,1.46341463 87.9674797,1.46341463 L90.5691057,1.46341463 C90.7317073,2.92682927 91.3821138,4.22764228 92.3577236,6.66666667 L108.943089,44.5528455 C109.756098,46.504065 110.731707,47.3170732 114.471545,47.3170732 L115.934959,47.3170732 C116.097561,48.2926829 116.097561,49.1056911 115.772358,49.4308943 C115.447154,49.7560976 115.121951,49.9186992 114.308943,49.9186992 L91.3821138,49.5934959 Z M84.8780488,10.5691057 C84.7154472,10.5691057 84.5528455,10.7317073 84.5528455,10.7317073 L77.0731707,29.4308943 L77.0731707,29.7560976 C77.0731707,29.7560976 77.2357724,29.9186992 77.398374,29.9186992 L92.6829268,29.9186992 C92.8455285,29.9186992 92.8455285,29.9186992 93.0081301,29.7560976 C93.0081301,29.5934959 93.0081301,29.5934959 93.0081301,29.4308943 L85.203252,10.7317073 C85.203252,10.7317073 85.0406504,10.5691057 84.8780488,10.5691057 Z M0.487804878,49.5934959 C0.325203252,48.9430894 0.325203252,48.1300813 0.487804878,47.4796748 C7.96747967,46.9918699 9.59349593,46.504065 9.59349593,41.4634146 L9.59349593,7.4796748 C9.59349593,4.3902439 8.61788618,3.90243902 5.36585366,3.90243902 L2.11382114,3.90243902 C1.95121951,2.92682927 1.95121951,2.27642276 2.27642276,1.95121951 C2.92682927,1.13821138 5.36585366,0.81300813 11.8699187,0.81300813 L26.504065,0.81300813 C46.0162602,0.81300813 55.7723577,8.94308943 55.7723577,25.203252 C55.7723577,41.1382114 45.8536585,49.5934959 27.1544715,49.5934959 L0.487804878,49.5934959 Z M18.2113821,4.3902439 C18.0487805,4.3902439 17.8861789,4.55284553 17.8861789,4.71544715 L17.8861789,40.8130081 C17.8861789,45.5284553 19.8373984,46.1788618 26.504065,46.1788618 C44.5528455,46.1788618 46.9918699,36.2601626 46.9918699,26.504065 C46.9918699,12.195122 39.3495935,4.3902439 25.6910569,4.3902439 L18.2113821,4.3902439 Z" id="Shape" fill-rule="nonzero"></path>
            <path d="M55.6097561,25.203252 C55.6097561,9.26829268 45.8536585,1.13821138 26.6666667,1.13821138 L12.0325203,1.13821138 C6.66666667,1.13821138 3.41463415,1.30081301 2.60162602,2.11382114 C2.43902439,2.43902439 2.27642276,2.76422764 2.43902439,3.57723577 L2.43902439,3.90243902 L1.95121951,4.22764228 C1.46341463,1.13821138 1.78861789,0.487804878 12.0325203,0.487804878 L26.6666667,0.487804878 C47.3170732,0.487804878 56.2601626,9.75609756 56.2601626,25.203252 L55.9349593,25.5284553 L55.6097561,25.203252 Z" id="Path"></path>
            <path d="M55.6097561,25.203252 C55.6097561,40.9756098 45.8536585,49.2682927 27.3170732,49.2682927 L0.81300813,49.2682927 L0.487804878,49.2682927 L0.325203252,49.9186992 L27.3170732,49.9186992 C47.804878,49.9186992 56.2601626,40 56.2601626,25.203252 L55.6097561,25.203252 Z" id="Path"></path>
            <path d="M25.6910569,46.6666667 L26.504065,46.6666667 C36.7479675,46.6666667 47.3170732,44.2276423 47.3170732,26.6666667 C47.3170732,12.195122 39.6747967,4.22764228 25.6910569,4.22764228 L25.203252,4.55284553 L25.6910569,4.87804878 C39.5121951,4.87804878 46.6666667,12.8455285 46.6666667,26.6666667 C46.6666667,42.1138211 38.8617886,46.0162602 26.504065,46.0162602 C26.1788618,46.0162602 25.8536585,46.0162602 25.6910569,46.0162602 L25.3658537,46.3414634 L25.6910569,46.6666667 Z" id="Path"></path>
            <path d="M17.7235772,26.504065 L17.7235772,4.71544715 C17.7235772,4.3902439 18.0487805,4.06504065 18.3739837,4.06504065 L25.6910569,4.06504065 L25.6910569,4.71544715 L18.2113821,4.71544715 L18.2113821,26.504065 L17.8861789,26.6666667 L17.7235772,26.504065 Z" id="Path"></path>
            <path d="M18.2113821,26.504065 L18.2113821,40.8130081 C18.2113821,45.0406504 19.6747967,45.8536585 25.6910569,45.8536585 L25.6910569,46.504065 C19.5121951,46.504065 17.7235772,45.5284553 17.7235772,40.8130081 L17.7235772,26.504065 L18.2113821,26.504065 Z" id="Path"></path>
            <path d="M59.6747967,49.2682927 C59.6747967,48.7804878 59.6747967,48.2926829 59.6747967,47.6422764 C65.0406504,46.9918699 65.8536585,46.1788618 67.804878,41.6260163 L81.9512195,7.96747967 C84.2276423,2.43902439 85.0406504,1.62601626 87.9674797,1.62601626 L90.2439024,1.62601626 L90.5691057,1.46341463 L90.7317073,0.975609756 L88.1300813,0.975609756 C84.7154472,0.975609756 83.7398374,2.11382114 81.4634146,7.64227642 L67.3170732,41.300813 C65.3658537,45.8536585 64.7154472,46.3414634 59.1869919,46.9918699 C59.0243902,47.9674797 59.0243902,49.1056911 59.1869919,49.7560976 L59.6747967,49.2682927 Z" id="Path"></path>
            <path d="M59.6747967,49.2682927 L79.6747967,49.2682927 C80.1626016,49.2682927 80.6504065,49.1056911 80.8130081,48.9430894 C80.9756098,48.6178862 81.1382114,48.1300813 80.9756098,47.3170732 L80.9756098,46.9918699 L81.6260163,46.6666667 C82.1138211,48.7804878 81.6260163,49.9186992 79.8373984,49.9186992 L59.3495935,49.9186992 L59.6747967,49.2682927 Z" id="Path"></path>
            <path d="M73.0081301,39.5121951 L72.3577236,41.1382114 C71.2195122,43.902439 70.8943089,45.203252 71.5447154,46.1788618 C72.195122,47.1544715 73.495935,47.3170732 75.1219512,47.3170732 L80.8130081,47.3170732 L81.300813,46.6666667 L75.1219512,46.6666667 C71.2195122,46.6666667 71.2195122,45.5284553 72.8455285,41.300813 L73.495935,39.3495935 L73.3333333,39.0243902 L73.0081301,39.5121951 Z" id="Path"></path>
            <path d="M73.0081301,39.5121951 L75.2845528,33.3333333 C75.4471545,33.0081301 75.6097561,32.8455285 75.9349593,32.8455285 L85.0406504,32.8455285 L85.203252,33.1707317 L85.0406504,33.495935 L75.9349593,33.495935 L73.6585366,39.3495935 L73.0081301,39.5121951 Z" id="Path"></path>
            <path d="M97.5609756,39.5121951 L94.9593496,33.3333333 C94.796748,33.1707317 94.6341463,33.0081301 94.3089431,33.0081301 L84.8780488,33.0081301 L84.8780488,33.6585366 L94.3089431,33.6585366 L96.7479675,39.5121951 L97.2357724,39.8373984 L97.5609756,39.5121951 Z" id="Path"></path>
            <path d="M97.5609756,39.5121951 L99.5121951,44.2276423 C99.8373984,44.8780488 100,45.5284553 99.5121951,46.1788618 C98.8617886,47.1544715 96.9105691,47.6422764 91.5447154,47.804878 L91.5447154,49.2682927 L91.5447154,49.5934959 L90.8943089,49.9186992 C90.7317073,49.2682927 90.7317073,47.9674797 90.8943089,47.1544715 C98.699187,46.9918699 99.5121951,46.3414634 98.699187,44.3902439 L96.5853659,39.3495935 L97.5609756,39.5121951 Z" id="Path"></path>
            <path d="M91.7073171,49.2682927 L114.471545,49.2682927 C114.95935,49.2682927 115.447154,49.1056911 115.609756,48.9430894 C115.772358,48.6178862 115.934959,48.1300813 115.772358,47.3170732 L115.772358,46.9918699 L116.260163,46.6666667 C116.747967,48.7804878 116.260163,49.9186992 114.471545,49.9186992 L91.2195122,49.9186992 L91.7073171,49.2682927 Z" id="Path"></path>
            <path d="M115.772358,47.3170732 L114.634146,47.3170732 C110.894309,47.3170732 109.756098,46.6666667 108.780488,44.3902439 L92.195122,6.50406504 C91.2195122,4.22764228 90.5691057,2.92682927 90.4065041,1.62601626 L90.8943089,0.975609756 C91.0569106,2.60162602 91.5447154,3.7398374 92.6829268,6.34146341 L109.268293,44.2276423 C110.081301,46.0162602 110.894309,46.6666667 114.471545,46.6666667 L116.097561,46.6666667 L115.772358,47.3170732 Z" id="Path"></path>
            <path d="M84.8780488,10.2439024 C84.5528455,10.2439024 84.3902439,10.4065041 84.2276423,10.5691057 L76.7479675,29.2682927 L76.7479675,29.9186992 C76.9105691,30.0813008 77.0731707,30.2439024 77.2357724,30.2439024 L84.7154472,30.2439024 L84.8780488,29.9186992 L84.7154472,29.5934959 L77.2357724,29.5934959 L84.7154472,10.8943089 L84.8780488,10.5691057 L84.8780488,10.2439024 Z" id="Path"></path>
            <path d="M84.8780488,10.2439024 C85.203252,10.2439024 85.3658537,10.4065041 85.5284553,10.5691057 L93.3333333,29.2682927 C93.495935,29.4308943 93.3333333,29.7560976 93.3333333,29.9186992 C93.1707317,30.0813008 93.0081301,30.2439024 92.8455285,30.2439024 L84.8780488,30.2439024 L84.8780488,29.5934959 L92.6829268,29.5934959 L84.8780488,10.8943089 L84.8780488,10.2439024 Z" id="Path"></path>
            <path d="M144.065041,2.60162602 L124.065041,2.60162602 C122.926829,2.60162602 122.113821,2.76422764 121.788618,3.25203252 C121.626016,3.57723577 121.463415,3.90243902 121.626016,4.55284553 L121.788618,4.87804878 L121.138211,5.20325203 C120.650407,3.41463415 121.138211,1.95121951 124.227642,1.95121951 L144.715447,1.95121951 L144.390244,2.60162602 L144.065041,2.60162602 Z" id="Path"></path>
            <path d="M121.788618,49.2682927 C121.626016,48.7804878 121.788618,48.2926829 121.788618,47.6422764 C126.99187,46.8292683 128.943089,46.0162602 128.943089,42.4390244 L128.943089,8.1300813 C128.943089,5.04065041 127.804878,4.3902439 124.390244,4.3902439 L121.463415,4.3902439 L120.97561,5.04065041 L124.390244,5.04065041 C127.642276,5.04065041 128.292683,5.52845528 128.292683,8.1300813 L128.292683,42.4390244 C128.292683,45.3658537 126.99187,46.1788618 121.138211,46.9918699 C120.813008,47.9674797 120.813008,49.1056911 121.138211,49.7560976 L121.626016,49.4308943 L121.788618,49.2682927 Z" id="Path"></path>
            <path d="M144.552846,47.3170732 C144.715447,48.1300813 144.715447,48.6178862 144.552846,48.9430894 C144.390244,49.1056911 143.902439,49.2682927 143.252033,49.2682927 L121.95122,49.2682927 L121.463415,49.9186992 L143.252033,49.9186992 C145.365854,49.9186992 145.691057,48.7804878 145.04065,46.6666667 L144.390244,46.9918699 L144.552846,47.3170732 Z" id="Path"></path>
            <path d="M136.747967,26.504065 L136.747967,43.5772358 C136.747967,46.6666667 138.04878,47.3170732 141.138211,47.3170732 L144.552846,47.3170732 L145.04065,46.6666667 L141.138211,46.6666667 C138.04878,46.6666667 137.398374,46.1788618 137.398374,43.5772358 L137.398374,26.504065 L137.073171,26.1788618 L136.747967,26.504065 Z" id="Path"></path>
            <path d="M144.065041,4.22764228 C138.536585,4.71544715 136.747967,6.01626016 136.747967,9.59349593 L136.747967,26.6666667 L137.398374,26.6666667 L137.398374,9.59349593 C137.398374,6.50406504 138.373984,5.20325203 144.552846,4.71544715 L144.227642,4.06504065 L144.065041,4.22764228 Z" id="Path"></path>
            <path d="M144.065041,2.60162602 L144.065041,4.22764228 L144.552846,4.87804878 C144.715447,4.22764228 144.715447,2.76422764 144.552846,2.11382114 L144.065041,2.60162602 Z" id="Path"></path>
            <path d="M175.284553,2.60162602 L161.300813,2.60162602 C160.162602,2.60162602 159.349593,2.76422764 159.02439,3.25203252 C158.861789,3.57723577 158.699187,3.90243902 158.861789,4.55284553 L159.02439,4.87804878 L158.373984,5.20325203 C157.886179,3.57723577 158.373984,1.95121951 161.463415,1.95121951 L175.934959,1.95121951 L175.934959,2.60162602 L175.284553,2.60162602 Z" id="Path"></path>
            <path d="M154.308943,49.2682927 C154.308943,48.7804878 154.308943,48.2926829 154.308943,47.6422764 C161.626016,47.1544715 162.926829,45.8536585 163.252033,42.1138211 L166.178862,8.29268293 C166.341463,7.4796748 166.341463,6.50406504 165.691057,5.85365854 C164.878049,4.87804878 163.089431,4.55284553 158.699187,4.3902439 L158.211382,5.04065041 C165.365854,5.20325203 165.691057,6.01626016 165.528455,8.29268293 L162.601626,42.1138211 C162.439024,45.203252 161.788618,46.504065 153.821138,46.9918699 C153.658537,47.9674797 153.658537,48.7804878 153.821138,49.7560976 L154.471545,49.4308943 L154.308943,49.2682927 Z" id="Path"></path>
            <path d="M178.699187,47.3170732 C178.861789,48.1300813 178.861789,48.6178862 178.536585,48.9430894 C178.373984,49.1056911 177.886179,49.2682927 177.398374,49.2682927 L154.308943,49.2682927 L153.821138,49.9186992 L177.398374,49.9186992 C179.349593,49.9186992 179.674797,48.7804878 179.186992,46.6666667 L178.699187,46.9918699 L178.699187,47.3170732 Z" id="Path"></path>
            <path d="M170.243902,10.2439024 C169.756098,10.2439024 169.593496,10.5691057 169.593496,10.8943089 L167.317073,43.0894309 C167.154472,44.2276423 167.154472,45.3658537 167.804878,46.0162602 C168.617886,46.9918699 170.406504,47.3170732 175.284553,47.3170732 L178.699187,47.3170732 L179.186992,46.6666667 L175.284553,46.6666667 C167.642276,46.6666667 167.642276,46.0162602 167.96748,43.0894309 L170.243902,10.8943089 L170.406504,10.7317073 L170.243902,10.2439024 Z" id="Path"></path>
            <path d="M190.406504,49.4308943 L170.731707,10.5691057 C170.569106,10.4065041 170.406504,10.2439024 170.081301,10.2439024 L170.081301,10.8943089 L189.918699,50.0813008 L190.243902,49.9186992 L190.406504,49.4308943 Z" id="Path"></path>
            <path d="M210.894309,10.2439024 C210.569106,10.2439024 210.243902,10.4065041 210.243902,10.5691057 L193.00813,46.8292683 C191.869919,49.1056911 191.382114,49.4308943 190.406504,49.4308943 L190.081301,50.0813008 C191.707317,50.0813008 192.357724,49.5934959 193.658537,46.9918699 L210.894309,10.7317073 L211.056911,10.4065041 L210.894309,10.2439024 Z" id="Path"></path>
            <path d="M203.902439,49.2682927 C203.739837,48.7804878 203.739837,48.2926829 203.902439,47.804878 L207.317073,47.6422764 C210.731707,47.4796748 212.845528,47.1544715 213.98374,45.8536585 C214.796748,44.8780488 214.796748,43.5772358 214.634146,42.2764228 L211.382114,10.8943089 C211.382114,10.5691057 211.056911,10.4065041 210.894309,10.4065041 L210.731707,11.0569106 L213.98374,42.4390244 C214.308943,46.0162602 213.333333,46.8292683 207.317073,47.1544715 L203.414634,47.3170732 C203.089431,48.2926829 203.089431,49.1056911 203.414634,50.0813008 L203.902439,49.7560976 L203.902439,49.2682927 Z" id="Path"></path>
            <path d="M230.243902,47.3170732 C230.243902,47.9674797 230.243902,48.7804878 229.918699,48.9430894 C229.756098,49.1056911 229.268293,49.2682927 228.780488,49.2682927 L203.902439,49.2682927 L203.414634,49.9186992 L228.780488,49.9186992 C230.731707,49.9186992 231.056911,48.7804878 230.731707,46.6666667 L230.243902,46.8292683 L230.243902,47.3170732 Z" id="Path"></path>
            <path d="M226.829268,4.22764228 C223.089431,4.55284553 221.138211,5.04065041 220.325203,6.01626016 C219.674797,6.82926829 219.674797,7.80487805 219.837398,8.61788618 L221.626016,26.6666667 L222.276423,26.6666667 L220.487805,8.45528455 C220.325203,6.34146341 220.650407,5.20325203 227.317073,4.71544715 L227.154472,4.06504065 L226.829268,4.22764228 Z" id="Path"></path>
            <path d="M221.626016,26.504065 L223.252033,43.4146341 C223.577236,46.1788618 225.203252,46.504065 230.243902,47.1544715 L230.894309,46.504065 C225.365854,45.8536585 224.227642,45.5284553 224.065041,43.2520325 L222.439024,26.3414634 L222.113821,25.8536585 L221.626016,26.504065 Z" id="Path"></path>
            <path d="M226.829268,2.60162602 C226.99187,3.08943089 226.99187,3.57723577 226.829268,4.22764228 L227.317073,4.87804878 C227.642276,3.90243902 227.642276,3.08943089 227.317073,2.11382114 L226.666667,2.43902439 L226.829268,2.60162602 Z" id="Path"></path>
            <polygon id="Path" points="210.731707 2.60162602 226.829268 2.60162602 227.317073 1.95121951 210.406504 1.95121951 210.406504 2.60162602"></polygon>
            <path d="M193.821138,37.2357724 C194.146341,37.2357724 194.308943,37.0731707 194.471545,36.9105691 L210.894309,2.76422764 L210.569106,2.11382114 L193.821138,36.5853659 L193.495935,36.7479675 L193.821138,37.2357724 Z" id="Path"></path>
            <path d="M175.284553,2.60162602 L193.170732,36.7479675 C193.333333,36.9105691 193.495935,37.0731707 193.821138,37.0731707 L193.821138,36.4227642 L175.772358,1.95121951 L175.284553,2.60162602 Z" id="Path"></path>
            <path d="M241.138211,49.2682927 C241.138211,48.7804878 240.97561,48.2926829 241.138211,47.6422764 C247.642276,47.1544715 249.756098,46.1788618 249.756098,40.9756098 L249.756098,8.1300813 C249.756098,5.04065041 248.292683,4.3902439 245.203252,4.3902439 L242.276423,4.3902439 L241.95122,4.3902439 L241.788618,5.04065041 L245.203252,5.04065041 C248.292683,5.04065041 249.105691,5.52845528 249.105691,8.1300813 L249.105691,40.9756098 C249.105691,45.6910569 247.479675,46.504065 240.487805,46.9918699 C240.325203,47.9674797 240.325203,48.7804878 240.487805,49.7560976 L241.138211,49.4308943 L241.138211,49.2682927 Z" id="Path"></path>
            <path d="M241.138211,49.2682927 L275.121951,49.2682927 C275.934959,45.5284553 277.073171,41.6260163 278.699187,36.7479675 C278.861789,36.2601626 279.02439,35.4471545 278.699187,35.1219512 C278.373984,34.796748 277.886179,34.6341463 277.235772,34.6341463 L276.747967,34.6341463 L276.747967,33.9837398 C278.861789,33.9837398 279.837398,34.796748 279.186992,37.0731707 C277.723577,41.4634146 276.422764,45.5284553 275.447154,50.0813008 L240.325203,50.0813008 L241.138211,49.2682927 Z" id="Path"></path>
            <path d="M277.398374,34.6341463 L275.609756,38.699187 C272.520325,45.203252 271.707317,45.8536585 266.01626,45.8536585 L265.691057,45.5284553 L266.01626,45.203252 C271.382114,45.203252 272.03252,44.8780488 275.121951,38.3739837 L277.073171,33.9837398 L277.398374,34.6341463 Z" id="Path"></path>
            <path d="M257.398374,26.504065 L257.398374,42.1138211 C257.398374,45.3658537 259.674797,45.8536585 261.300813,45.8536585 L265.853659,45.8536585 L265.853659,45.203252 L261.300813,45.203252 C259.349593,45.203252 258.04878,44.5528455 258.04878,42.1138211 L258.04878,26.504065 L257.723577,26.0162602 L257.398374,26.504065 Z" id="Path"></path>
            <path d="M257.398374,26.504065 L257.398374,10.4065041 C257.398374,5.20325203 259.674797,4.3902439 266.504065,4.06504065 L266.829268,4.06504065 L267.154472,4.71544715 C259.674797,5.20325203 258.211382,5.85365854 258.211382,10.4065041 L258.211382,26.504065 L257.398374,26.504065 Z" id="Path"></path>
            <path d="M266.504065,4.22764228 C266.504065,3.7398374 266.504065,3.08943089 266.504065,2.76422764 L266.341463,2.43902439 L266.99187,2.11382114 C267.154472,2.76422764 267.154472,4.22764228 266.99187,4.87804878 L266.504065,4.22764228 Z" id="Path"></path>
            <path d="M266.504065,2.60162602 L244.715447,2.60162602 C243.577236,2.60162602 242.764228,2.76422764 242.439024,3.25203252 C242.276423,3.57723577 242.113821,3.90243902 242.276423,4.55284553 L241.788618,5.20325203 C241.300813,3.41463415 241.788618,1.95121951 244.878049,1.95121951 L266.99187,1.95121951 L266.504065,2.60162602 Z" id="Path"></path>
            <path d="M324.878049,2.60162602 L291.219512,2.60162602 C290.081301,2.60162602 289.268293,2.76422764 288.943089,3.25203252 C288.780488,3.57723577 288.617886,3.90243902 288.617886,4.55284553 L288.617886,4.87804878 L287.96748,5.20325203 C287.642276,3.41463415 287.96748,1.95121951 291.056911,1.95121951 L325.203252,1.95121951 L325.04065,2.43902439 L324.878049,2.60162602 Z" id="Path"></path>
            <path d="M286.99187,49.2682927 C286.829268,48.7804878 286.829268,48.2926829 286.99187,47.804878 C293.98374,47.4796748 296.097561,46.8292683 296.097561,41.4634146 L296.097561,8.29268293 C296.097561,5.20325203 294.95935,4.55284553 291.544715,4.55284553 L288.617886,4.55284553 L287.96748,5.20325203 L291.382114,5.20325203 C294.634146,5.20325203 295.284553,5.69105691 295.284553,8.29268293 L295.284553,41.4634146 C295.284553,46.3414634 293.98374,46.8292683 286.341463,47.1544715 C286.01626,48.1300813 286.01626,48.9430894 286.341463,49.9186992 L286.829268,49.7560976 L286.99187,49.2682927 Z" id="Path"></path>
            <path d="M327.804878,34.6341463 C328.292683,34.6341463 328.943089,34.796748 329.105691,35.1219512 C329.430894,35.6097561 329.268293,36.2601626 329.105691,36.7479675 C327.479675,41.4634146 326.341463,45.5284553 325.528455,49.2682927 L286.829268,49.2682927 L286.341463,49.9186992 L326.01626,49.9186992 C326.99187,45.5284553 328.292683,41.1382114 329.756098,36.9105691 C330.406504,34.796748 329.430894,33.8211382 327.317073,33.8211382 L327.317073,34.3089431 L327.804878,34.6341463 Z" id="Path"></path>
            <path d="M310.243902,45.8536585 L316.422764,45.8536585 C322.113821,45.8536585 323.089431,45.203252 326.01626,38.699187 L327.804878,34.6341463 L327.317073,33.9837398 L325.365854,38.3739837 C322.276423,44.8780488 321.626016,45.203252 316.260163,45.203252 L310.081301,45.203252 L309.918699,45.5284553 L310.243902,45.8536585 Z" id="Path"></path>
            <path d="M304.065041,37.0731707 L304.065041,41.6260163 C304.065041,44.8780488 305.528455,45.8536585 310.243902,45.8536585 L310.243902,45.203252 C305.365854,45.203252 304.715447,44.0650407 304.715447,41.4634146 L304.715447,36.9105691 L304.552846,36.7479675 L304.065041,37.0731707 Z" id="Path"></path>
            <path d="M308.292683,28.2926829 L304.715447,28.2926829 C304.390244,28.2926829 304.065041,28.6178862 304.065041,28.9430894 L304.065041,37.0731707 L304.715447,37.0731707 L304.715447,28.9430894 L308.292683,28.9430894 L308.455285,28.6178862 L308.292683,28.2926829 Z" id="Path"></path>
            <path d="M316.585366,34.796748 C315.772358,29.7560976 314.796748,28.4552846 312.357724,28.4552846 L308.455285,28.4552846 L308.455285,29.1056911 L312.357724,29.1056911 C314.146341,29.1056911 315.121951,29.7560976 316.097561,35.2845528 L316.585366,35.1219512 L316.585366,34.796748 Z" id="Path"></path>
            <path d="M317.723577,34.796748 C317.560976,34.796748 317.398374,34.796748 317.073171,34.796748 C316.910569,34.796748 316.585366,34.796748 316.422764,34.796748 L315.772358,35.2845528 C316.585366,35.6097561 317.560976,35.6097561 318.211382,35.2845528 L318.04878,34.9593496 L317.723577,34.796748 Z" id="Path"></path>
            <path d="M316.097561,19.0243902 L316.422764,19.0243902 C317.235772,19.0243902 317.398374,19.1869919 317.560976,19.3495935 C317.886179,19.6747967 317.886179,20.1626016 317.886179,21.1382114 C317.723577,25.5284553 317.723577,30.2439024 317.886179,34.796748 L318.536585,35.2845528 C318.373984,30.5691057 318.373984,25.6910569 318.536585,21.1382114 C318.699187,18.8617886 317.886179,18.3739837 316.422764,18.3739837 L315.609756,18.3739837 L315.772358,18.8617886 L316.097561,19.0243902 Z" id="Path"></path>
            <path d="M308.455285,25.203252 L312.195122,25.203252 C314.796748,25.203252 315.447154,24.0650407 315.609756,22.1138211 L316.097561,19.0243902 L315.609756,18.3739837 L315.121951,22.1138211 C314.95935,23.902439 314.471545,24.7154472 312.357724,24.7154472 L308.617886,24.7154472 L308.455285,24.8780488 L308.455285,25.203252 Z" id="Path"></path>
            <path d="M304.065041,15.1219512 L304.065041,24.5528455 C304.065041,24.8780488 304.390244,25.203252 304.715447,25.203252 L308.455285,25.203252 L308.455285,24.5528455 L304.715447,24.5528455 L304.715447,15.1219512 L304.552846,14.9593496 L304.065041,15.1219512 Z" id="Path"></path>
            <path d="M308.455285,5.52845528 L304.715447,5.52845528 C304.390244,5.52845528 304.065041,5.85365854 304.065041,6.17886179 L304.065041,15.1219512 L304.715447,15.1219512 L304.715447,6.17886179 L308.455285,6.17886179 L308.617886,5.85365854 L308.455285,5.52845528 Z" id="Path"></path>
            <path d="M324.227642,14.3089431 L323.414634,11.5447154 C322.113821,6.99186992 320.487805,5.52845528 316.097561,5.52845528 L308.455285,5.52845528 L308.455285,6.17886179 L316.097561,6.17886179 C320,6.17886179 321.626016,7.31707317 322.764228,11.7073171 L323.739837,14.9593496 L324.227642,14.796748 L324.227642,14.3089431 Z" id="Path"></path>
            <path d="M324.878049,2.60162602 C325.04065,5.36585366 325.528455,8.61788618 326.01626,11.7073171 C326.178862,12.3577236 326.178862,13.1707317 325.691057,13.8211382 C325.365854,14.1463415 324.878049,14.3089431 324.227642,14.3089431 L323.739837,14.9593496 C326.01626,15.1219512 326.829268,13.9837398 326.504065,11.7073171 C326.01626,8.61788618 325.528455,5.20325203 325.365854,1.95121951 L324.878049,2.60162602 Z" id="Path"></path>
            <path d="M372.195122,31.2195122 C378.211382,28.7804878 381.95122,23.902439 381.95122,17.7235772 C381.95122,7.80487805 374.308943,1.30081301 360.487805,1.30081301 C350.406504,1.30081301 346.178862,1.30081301 342.601626,1.62601626 C339.674797,1.78861789 339.186992,3.25203252 339.674797,5.04065041 L340.162602,4.3902439 C340,3.7398374 340.162602,3.41463415 340.325203,3.08943089 C340.650407,2.60162602 341.463415,2.27642276 342.601626,2.27642276 C346.01626,1.95121951 350.243902,1.95121951 360.325203,1.95121951 C373.333333,1.95121951 381.138211,7.80487805 381.138211,17.7235772 C381.138211,23.4146341 377.723577,28.1300813 371.869919,30.5691057 C371.707317,30.7317073 371.544715,30.8943089 371.544715,31.0569106 L372.195122,31.2195122 Z" id="Path"></path>
            <path d="M340.325203,4.55284553 L343.252033,4.55284553 C346.341463,4.55284553 347.804878,5.20325203 347.804878,8.45528455 L347.804878,41.6260163 C347.804878,46.6666667 345.691057,47.3170732 340,47.804878 L340,49.4308943 L339.837398,49.9186992 L339.349593,50.0813008 C339.186992,49.2682927 339.186992,48.1300813 339.349593,47.3170732 C345.528455,46.8292683 346.99187,46.1788618 346.99187,41.7886179 L346.99187,8.61788618 C346.99187,5.85365854 346.01626,5.36585366 343.089431,5.36585366 L339.674797,5.36585366 L340.325203,4.55284553 Z" id="Path"></path>
            <path d="M363.577236,47.3170732 C363.577236,47.9674797 363.577236,48.6178862 363.252033,48.9430894 C363.089431,49.1056911 362.601626,49.2682927 361.95122,49.2682927 L339.837398,49.2682927 L339.349593,49.9186992 L361.95122,49.9186992 C364.065041,49.9186992 364.227642,48.7804878 364.065041,46.6666667 L363.577236,47.3170732 Z" id="Path"></path>
            <path d="M355.447154,39.8373984 L355.447154,43.902439 C355.447154,46.504065 356.585366,47.3170732 360.487805,47.3170732 L363.577236,47.3170732 L364.227642,46.6666667 L360.487805,46.6666667 C356.747967,46.6666667 356.097561,46.0162602 356.097561,43.902439 L356.097561,39.8373984 L355.772358,39.6747967 L355.447154,39.8373984 Z" id="Path"></path>
            <path d="M360.97561,32.6829268 L356.097561,32.6829268 C355.772358,32.6829268 355.447154,33.0081301 355.447154,33.3333333 L355.447154,39.8373984 L356.097561,39.8373984 L356.097561,33.3333333 L360.97561,33.3333333 L361.138211,33.0081301 L360.97561,32.6829268 Z" id="Path"></path>
            <path d="M390.569106,50.4065041 C390.406504,50.4065041 390.406504,50.4065041 390.569106,50.4065041 C383.739837,50.4065041 379.512195,48.9430894 374.634146,44.5528455 C371.869919,42.1138211 369.593496,39.3495935 367.96748,36.4227642 C366.01626,33.0081301 365.691057,32.6829268 361.138211,32.6829268 L361.138211,33.3333333 C365.528455,33.3333333 365.691057,33.495935 367.479675,36.7479675 C369.268293,40 371.869919,42.9268293 374.308943,45.0406504 C379.674797,49.5934959 384.065041,51.0569106 390.731707,51.0569106 L391.056911,50.7317073 L390.569106,50.4065041 Z" id="Path"></path>
            <path d="M398.699187,47.3170732 C398.699187,47.804878 398.699187,48.2926829 398.373984,48.6178862 C397.723577,49.4308943 395.934959,50.4065041 390.569106,50.4065041 L390.569106,51.0569106 C398.211382,51.0569106 400,49.2682927 399.349593,46.6666667 L399.02439,46.8292683 L398.699187,47.3170732 Z" id="Path"></path>
            <path d="M371.544715,31.2195122 C371.544715,31.3821138 371.544715,31.7073171 371.707317,31.8699187 C371.707317,31.8699187 377.073171,36.9105691 379.837398,39.0243902 C389.105691,46.504065 392.520325,47.3170732 398.536585,47.4796748 L399.02439,46.8292683 C392.845528,46.8292683 389.593496,46.1788618 380.162602,38.5365854 C377.398374,36.2601626 372.03252,31.3821138 372.03252,31.3821138 L371.869919,31.2195122 L371.544715,31.2195122 Z" id="Path"></path>
            <path d="M358.373984,29.7560976 L359.512195,29.7560976 C366.01626,29.7560976 373.00813,28.9430894 373.00813,18.2113821 C373.00813,9.26829268 368.292683,4.87804878 358.536585,4.87804878 L358.373984,4.87804878 L358.211382,5.20325203 L358.373984,5.52845528 L358.536585,5.52845528 C366.666667,5.52845528 372.357724,8.61788618 372.357724,18.2113821 C372.357724,27.9674797 366.666667,29.1056911 359.512195,29.1056911 L358.373984,29.1056911 L358.211382,29.4308943 L358.373984,29.7560976 Z" id="Path"></path>
            <path d="M355.447154,18.3739837 L355.447154,5.69105691 C355.447154,5.36585366 355.772358,5.04065041 356.097561,5.04065041 L358.373984,5.04065041 L358.373984,5.69105691 L356.097561,5.69105691 L356.097561,18.3739837 L355.772358,18.5365854 L355.447154,18.3739837 Z" id="Path"></path>
            <path d="M355.447154,18.3739837 L355.447154,29.2682927 C355.447154,29.5934959 355.772358,29.9186992 356.097561,29.9186992 L358.373984,29.9186992 L358.373984,29.2682927 L356.097561,29.2682927 L356.097561,18.3739837 L355.447154,18.3739837 Z" id="Path"></path>
        </g>
    </g>
</svg>