<?xml version="1.0" encoding="UTF-8"?>
<svg width="389px" height="267px" viewBox="0 0 389 267" version="1.1" xmlns="http://www.w3.org/2000/svg" xmlns:xlink="http://www.w3.org/1999/xlink">
    <!-- Generator: Sketch 52.4 (67378) - http://www.bohemiancoding.com/sketch -->
    <title>deutsche-bahn@1x</title>
    <desc>Created with Sketch.</desc>
    <g id="Page-1" stroke="none" stroke-width="1" fill="none" fill-rule="evenodd">
        <g id="deutsche-bahn" fill="#E3E8F0">
            <path d="M343.259067,0.592746114 C368.272539,0.592746114 388.620725,20.9409326 388.620725,45.9523316 L388.620725,221.539896 C388.620725,246.553368 368.270466,266.901554 343.259067,266.901554 L46.2331606,266.901554 C21.2217617,266.901554 0.87357513,246.551295 0.87357513,221.539896 L0.87357513,45.9523316 C0.87357513,20.9409326 21.2217617,0.592746114 46.2331606,0.592746114 L343.259067,0.592746114 Z M368.133679,221.539896 L368.133679,45.9523316 C368.133679,32.2362694 356.977202,21.0756477 343.259067,21.0756477 L46.2331606,21.0756477 C32.5170984,21.0756477 21.3564767,32.2362694 21.3564767,45.9523316 L21.3564767,221.539896 C21.3564767,235.258031 32.5170984,246.418653 46.2331606,246.418653 L343.259067,246.418653 C356.977202,246.418653 368.133679,235.258031 368.133679,221.539896 Z" id="Combined-Shape"></path>
            <path d="M50.6393782,44.4994819 L126.734715,44.4994819 C166.21658,44.4994819 188.158549,75.2103627 188.158549,127.867358 C188.158549,180.563731 170.58342,222.998964 126.734715,222.998964 L50.6393782,222.998964 L50.6393782,44.4994819 Z M91.5740933,70.8062176 L113.518135,70.8062176 C134.007254,70.8062176 147.221762,85.4756477 147.221762,132.271503 C147.221762,179.108808 134.007254,195.19171 113.518135,195.19171 L91.5740933,195.19171 L91.5740933,70.8062176 Z M208.649741,44.4994819 L293.55544,44.4994819 C331.582383,44.4994819 360.840415,104.509845 302.32228,130.81658 C362.251813,138.132642 352.067358,222.996891 289.105699,222.996891 L208.649741,222.996891 L208.649741,44.4994819 Z M249.625907,70.8062176 L268.618653,70.8062176 C299.370984,70.8062176 299.370984,116.14715 268.618653,116.14715 L249.625907,116.14715 L249.625907,70.8062176 Z M249.625907,146.901554 L273.064249,146.901554 C305.192746,146.901554 305.192746,195.193782 273.064249,195.193782 L249.625907,195.193782 L249.625907,146.901554 Z" id="Shape" fill-rule="nonzero"></path>
        </g>
    </g>
</svg>