<svg fill="none" height="267" viewBox="0 0 389 267" width="389" xmlns="http://www.w3.org/2000/svg"><g fill="#e3e8f0"><path clip-rule="evenodd" d="m343.259.592773c25.014 0 45.362 20.348227 45.362 45.359627v175.5876c0 25.013-20.351 45.362-45.362 45.362h-297.0259c-25.0114 0-45.359565-20.351-45.359565-45.362v-175.5876c0-25.0114 20.348165-45.359627 45.359565-45.359627zm24.875 220.947227v-175.5876c0-13.7161-11.157-24.8767-24.875-24.8767h-297.0259c-13.716 0-24.8767 11.1606-24.8767 24.8767v175.5876c0 13.718 11.1607 24.879 24.8767 24.879h297.0259c13.718 0 24.875-11.161 24.875-24.879z" fill-rule="evenodd"/><path d="m91.574 70.3063h-.5v.5 124.3857.5h.5 21.944c5.188 0 9.942-1.019 14.149-3.306 4.209-2.288 7.844-5.83 10.816-10.835 5.934-9.992 9.239-25.832 9.239-49.279 0-23.425-3.304-38.9066-9.243-48.5439-5.97-9.6876-14.572-13.4218-24.961-13.4218zm197.532 152.1907h-79.956v-177.4975h84.405c18.752 0 35.399 14.8143 40.104 32.9193 2.348 9.0364 1.715 18.8749-3.115 28.0802-4.829 9.207-13.877 17.821-28.427 24.362l-1.635.735 1.78.217c14.857 1.814 25.327 8.425 31.726 17.286 6.406 8.869 8.762 20.031 7.314 30.986-2.894 21.898-20.983 42.912-52.196 42.912zm-39.48-152.1907h-.5v.5 45.3407.5h.5 18.993c7.82 0 13.724-2.887 17.669-7.249 3.936-4.353 5.895-10.1448 5.895-15.9213s-1.959-11.5681-5.895-15.9213c-3.945-4.3618-9.849-7.2491-17.669-7.2491zm0 76.0957h-.5v.5 48.292.5h.5 23.438c8.168 0 14.331-3.075 18.446-7.714 4.108-4.63 6.151-10.79 6.151-16.932 0-6.143-2.043-12.302-6.151-16.933-4.115-4.639-10.278-7.713-18.446-7.713zm-198.4867-101.4025h75.5957c19.594 0 34.794 7.6117 45.114 21.7326 10.335 14.1428 15.809 34.8659 15.809 61.1349 0 26.306-4.388 49.989-14.202 67.078-9.796 17.059-24.996 27.554-46.721 27.554h-75.5957z" stroke="#e3e8f0"/></g></svg>