<svg fill="none" height="88" viewBox="0 0 511 88" width="511" xmlns="http://www.w3.org/2000/svg"><g fill="#e3e8f0"><path d="m155.435 15.9941c.271.14.467.32.675.3374 3.857.3186 7.673.0906 11.38-1.0867 2.537-.8067 3.997-2.6587 4.608-5.1987.765-3.18529-.371-5.30262-3.601-5.94395-2.824-.56-5.738-.72667-8.623-.92-1.884-.128-2.047.08-2.48 2.02933-.68 3.056-1.323 6.12132-1.944 9.19062-.104.512-.015 1.0627-.015 1.592zm-3.806 16.4667c.805.188 1.325.4373 1.83.408 3.515-.2027 7.047-.3107 10.536-.7453 3.504-.4374 5.53-2.68 6.287-6.0987.815-3.6707-.488-5.8667-4.12-6.912-3.281-.944-6.652-.9787-10.025-1.0253-1.047-.0134-1.556.432-1.767 1.452-.868 4.2146-1.781 8.42-2.741 12.9213zm19.002-15.408c1.124.4667 1.742.728 2.363.98.436.176.887.3213 1.316.5107 4.599 2.0293 5.749 6.248 2.832 10.3973-1.365 1.9427-3.323 3.052-5.484 3.8853-3.275 1.26-6.727 1.6134-10.167 1.7094-5.805.1613-11.617.0693-17.426.0706-.299 0-.596-.112-1.14-.2213.169-1.112.277-2.172.496-3.2067 1.9-8.9733 3.818-17.9413 5.734-26.91062.098-.46.255-.91067.314-1.376.122-.98133.733-1.332 1.626-1.31467 7.602.13734 15.231-.51466 22.79.80534.768.13466 1.542.31333 2.272.58266 1.993.73467 3.746 1.83334 4.112 4.11467.422 2.63067-.116 5.10662-2.414 6.71202-1.389.9706-3.057 1.5466-4.616 2.2653-.681.3133-1.404.54-2.608.996"/><path d="m359.766 14.4872c-.104-1.012-.108-2.0453-.328-3.0306-1.315-5.88402-6.339-9.28669-12.848-9.04135-8.628.32533-16.436 6.88-18.211 15.98535-.47 2.4093-.618 4.8333.132 7.22 1.718 5.464 6.111 8.384 12.583 8.1586 9.993-.3453 18.512-9.312 18.672-19.292zm-19.929 20.8174c-3.179.0213-6.59-.3227-9.88-1.5227-2.386-.868-4.563-2.076-6.472-3.7467-4.147-3.6253-5.366-8.1346-3.643-13.372 1.033-3.1386 2.877-5.74 5.352-7.88129 5.451-4.71733 11.779-7.38266 18.987-7.825329 4.156-.254667 8.304-.194667 12.357.990669 2.82.82533 5.396 2.09066 7.639 4.012 4.001 3.428 5.064 7.76265 3.896 12.74535-.834 3.564-2.856 6.4253-5.608 8.7666-6.434 5.472-13.951 7.9107-22.628 7.8334z"/><path d="m262.019 34.3402c-2.872.7506-4.528-.068-6.149-1.9907-6.221-7.3827-12.627-14.6093-18.968-21.8893-.648-.74269-1.333-1.45202-2.404-2.61335-2.252 9.11465-3.771 17.80135-5.847 26.61865-1.129.0533-2.249.1067-3.662.1747.152-1.004.225-1.748.38-2.4747 2.018-9.5067 4.046-19.012 6.082-28.51599.428-1.99866.487-2.02666 2.442-2.084 5.705-.17066 5.706-.172 9.512 4.20534 4.841 5.56935 9.676 11.14265 14.521 16.70795.551.6347 1.149 1.228 2.104 2.24 2.036-7.852 3.249-15.39329 5.099-22.95729h3.816c-2.338 10.99729-4.64 21.82529-6.926 32.57869z"/><path d="m190.988 66.2087c.09-4.5787-1.388-7.972-4.911-10.2587-2.741-1.7786-5.832-2.24-9.029-1.7773-9.168 1.3267-16.178 9.2773-16.474 18.6733-.262 8.36 5.643 13.1787 13.584 12.236 9.478-1.1253 16.82-9.7026 16.83-18.8733zm-18.551 20.4867c-4.484.0346-8.479-.5627-12.212-2.4467-9.009-4.544-10.499-12.8547-5.133-20.6093 3.236-4.6774 7.926-7.5387 13.212-9.388 6.706-2.348 13.529-2.5694 20.318-.416 1.91.6053 3.776 1.5826 5.42 2.7346 4.846 3.3934 6.51 8.6187 4.826 14.312-1.138 3.8494-3.535 6.784-6.643 9.1814-5.928 4.572-12.665 6.7493-19.788 6.632"/><path d="m302.323 59.8256c-1.854 8.6214-3.71 17.2427-5.576 25.9107h-3.598c.574-2.8373 1.082-5.4293 1.625-8.0147 1.516-7.208 3.044-14.4146 4.571-21.62.129-.6133.329-1.2146.414-1.8333.134-.9693.707-1.3307 1.614-1.3307 1.726.0027 3.454.0227 5.18-.0066 1.214-.0214 1.777.8626 2.424 1.6386 5.329 6.388 10.65 12.7814 15.981 19.168.54.6467 1.121 1.26 1.956 2.1934.329-.8654.604-1.38.723-1.9294 1.318-6.1293 2.606-12.2653 3.918-18.3946.624-2.9134.952-3.0934 4.191-2.2814-.588 2.8014-1.176 5.616-1.772 8.4294-1.561 7.36-3.128 14.7173-4.687 22.0773-.174.828-.109 1.892-1.226 2.0173-1.212.136-2.543.4707-3.579-.5506-.613-.6027-1.141-1.2947-1.695-1.9574-6.036-7.228-12.068-14.46-18.106-21.6853-.542-.648-1.126-1.2613-1.69-1.892-.222.0213-.445.0413-.668.0613z"/><path d="m404.088 75.4927c.264-1.12.55-2.2346.788-3.36 1.174-5.52 2.323-11.044 3.502-16.5626.614-2.8694 1.033-3.092 4.169-2.2134-.605 2.9574-1.196 5.9347-1.828 8.9027-1.52 7.128-3.059 14.2533-4.593 21.3787-.191.884-.044 2.08-1.294 2.22-1.284.144-2.693.4733-3.734-.756-.407-.4787-.816-.9547-1.219-1.4374-6.136-7.3493-12.269-14.7013-18.411-22.048-.538-.644-1.124-1.2506-2.017-2.2413-.335 1.0907-.599 1.776-.752 2.4853-1.559 7.2-3.101 14.404-4.645 21.6067-.575 2.6827-.72 2.772-3.812 2.1773 0-.4893-.09-1.0213.013-1.5133 1.983-9.5133 3.988-19.0213 5.993-28.5307.096-.46.274-.9066.338-1.3693.114-.8413.586-1.2413 1.406-1.284.156-.0093.315-.0053.471-.0147 5.661-.3613 5.66-.36 9.311 4.0254 4.721 5.6693 9.444 11.3373 14.173 17 .488.584 1.027 1.1266 1.543 1.688.2-.0507.398-.1027.598-.1534z"/><path d="m209.611 59.2847c-2.212 9.056-3.716 17.7507-5.816 26.4694h-3.584c2.318-11.0027 4.586-21.7654 6.909-32.7827 2.431 0 4.693-.1213 6.931.072.697.06 1.434.8707 1.962 1.4987 5.402 6.424 10.762 12.8826 16.143 19.3253.532.636 1.127 1.2213 1.931 2.088.314-.9453.558-1.504.684-2.088 1.269-5.8973 2.517-11.7973 3.774-17.6973.098-.4587.2-.9174.318-1.372.47-1.8334.505-1.8707 2.348-1.8587.45.0027.902.1013 1.524.1773-.106.8814-.138 1.6507-.296 2.3934-2.003 9.424-4.02 18.844-6.042 28.2626-.176.8174-.118 1.924-1.196 2.0587-1.272.1587-2.681.5613-3.749-.648-.468-.5293-.919-1.0733-1.371-1.6147-6.081-7.2866-12.16-14.5773-18.248-21.8586-.585-.7-1.232-1.348-2.222-2.4254z"/><path d="m33.3148 71.3232h6.7946c.092.3627.272.672.2187.9347-.5853 2.916-1.1667 5.836-1.86 8.728-.1213.508-.6707 1.06-1.164 1.3107-7.996 4.0493-16.3373 5.904-25.2493 3.732-1.36-.332-2.71469-.7987-3.98002-1.3974-7.133336-3.372-9.64534-9.888-6.72267-17.24 1.216-3.0586 3.124-5.6173 5.64933-7.696 7.58666-6.2466 16.29336-8.084 25.82266-6.3013 3.7627.704 6.616 2.728 8.7613 5.84-.6773.3387-1.3253.6627-2.2826 1.1413-.2867-.4346-.5267-.8333-.8-1.2066-2.3067-3.1494-5.5414-4.4587-9.32-4.7214-8.9454-.6213-17.3654 4.556-19.82802 15.1107-.37067 1.588-.55467 3.256-.55467 4.8867-.00267 5.0813 2.84269 8.628 7.78929 9.8226 4.4294 1.072 8.7107.484 12.8814-1.2573 1.044-.4373 1.56-1.1173 1.78-2.2467.6-3.0693 1.3266-6.1133 2.064-9.44"/><path d="m370.407 53.1601c.105 1.3546-.428 1.796-1.508 1.7786-1.805-.0293-3.611-.0053-5.416-.004-3.532 0-7.064 0-10.596 0h-2.835c-.889 4.1934-1.74 8.2067-2.654 12.516 1.206.1307 2.104.3067 3.001.312 4.317.0307 8.633.0107 12.951.02.625.0014 1.27-.016 1.868.132.273.0667.641.5227.625.7814-.019.2813-.393.704-.681.7706-.599.1387-1.244.1067-1.871.1067-4.631.0067-9.261-.0067-13.892.0093-2.396.008-2.425.024-2.957 2.368-.712 3.1334-1.386 6.276-2.046 9.4214-.141.6786-.156 1.384-.262 2.396 2.24.3333 4.41.1293 6.558.1653 2.196.0373 4.395.008 6.592.008h6.583c.044 1.324-.295 1.968-1.415 1.992-.393.0093-.785.0133-1.177.0133-7.771.0014-15.541.004-23.312-.0053-.689-.0013-1.379-.088-2.208-.1453 0-.7507-.104-1.3707.016-1.9427 1.997-9.5907 4.019-19.1773 6.045-28.7613.415-1.964.546-2.144 2.163-2.148 8.476-.0227 16.953-.008 25.431.004.297.0013.593.1226.997.212z"/><path d="m316.776 7.32514c-1.087.47333-1.768.76933-2.375 1.03333-.352-.248-.589-.34533-.724-.52-3.9-5.04933-9.308-5.86267-15.064-4.996-9.167 1.37867-15.76 8.89063-16.315 18.89203-.35 6.3453 4.324 11.1346 10.636 11.3586 6.916.2454 12.998-1.7133 18.09-6.496.224-.2106.496-.3706.814-.6066.351.1546.712.2906 1.05.4733.196.1053.352.2867.566.4667-.084.224-.102.484-.242.624-4.194 4.2-9.292 6.62-15.111 7.5426-4.635.7347-9.253.5854-13.727-.9106-1.842-.6174-3.665-1.4467-5.309-2.4774-5.011-3.1426-6.789-7.828-5.4-13.608 1.181-4.9146 4.153-8.55063 8.155-11.43597 7.204-5.19333 15.337-6.545326 23.954-5.52666 2.984.35333 5.799 1.43866 8.168 3.384.936.76933 1.735 1.70667 2.834 2.80267z"/><path d="m192.53 23.9751c4.66.144 9.071.088 13.904.06-1.377-4.4693-2.832-8.4053-4.514-12.3773-2.035 1.6373-8.652 10.28-9.39 12.3173zm-12.473 10.3467c8.767-11.0587 17.364-21.9053 25.988-32.78398 1.189 1.43333 12.365 29.52528 13.075 32.70268-1.007.2933-7.055.668-7.838.3146-.493-.2226-.985-.752-1.188-1.26-.756-1.8893-1.377-3.8333-2.08-5.7453-.674-1.84-.69-1.86-2.704-1.868-4.393-.0173-8.786.032-13.178-.028-1.227-.0173-2.072.376-2.786 1.356-1.384 1.9027-2.954 3.6773-4.237 5.6427-1.153 1.7653-2.568 2.3813-5.052 1.6693"/><path d="m150.078 58.9434c-.378.2507-.617.4667-.897.5827-.425.1773-.88.2866-1.445.4626-2.018-3.0693-4.843-4.9226-8.432-5.492-9.63-1.5253-18.264 3.8787-21.116 13.2227-.923 3.0267-1.455 6.088-.575 9.26 1.173 4.2347 4.588 7.148 8.967 7.4533 6.834.4787 12.868-1.404 17.898-6.1746.282-.2667.594-.5014.97-.816.541.2893 1.073.5733 1.638.8746-.13.316-.164.5707-.308.7174-3.441 3.4933-7.545 5.848-12.316 6.9866-5.545 1.324-11.065 1.2734-16.414-.8386-1.802-.7107-3.574-1.6694-5.107-2.844-3.779-2.896-5.007-6.8627-4.241-11.4987.674-4.0933 2.518-7.604 5.578-10.376 7.974-7.224 17.288-9.52 27.726-7.136 3.649.8333 6.105 2.6907 8.074 5.616z"/><path d="m464.487 75.302c-.318-2.712-3.201-10.588-4.51-12.1426-2.846 4.0253-6.07 7.6733-8.868 12.1426zm12.683 10.5347h-8.532c-.607-1.7173-1.256-3.5373-1.891-5.364-.257-.7387-.469-1.4933-.718-2.2347-.252-.748-.755-1.1426-1.578-1.1413-4.704.0107-9.408-.04-14.11.0613-.631.0134-1.396.6414-1.843 1.1934-1.528 1.8866-2.937 3.8706-4.4 5.8106-1.532 2.032-1.536 2.0294-4.696 1.5427 8.433-10.972 16.8-21.756 25.435-32.9413 4.182 11.2173 8.209 22.016 12.333 33.0733z"/><path d="m252.453 85.9469c2.229-10.5307 4.344-20.524 6.545-30.9267h-11.608c-.558-1.268-.32-1.8747.712-2.0373.462-.072.939-.0507 1.41-.0507 9.336-.0027 18.67-.0053 28.006.004.606.0013 1.211.0987 1.866.1547.22 1.3346-.264 1.856-1.479 1.8453-2.667-.02-5.335-.0133-8.001.004-.846.0067-1.69.0813-2.719.1333-.695 3.1814-1.373 6.2267-2.024 9.276-1.388 6.512-2.749 13.028-4.151 19.5374-.433 2.0133-.474 2.0253-2.437 2.0533-1.863.028-3.727.0067-6.12.0067z"/><path d="m423.126 85.4261c1.779-10 4.3-19.912 6.19-30.0467-2.023-.8347-3.987-.34-5.891-.4253-1.945-.088-3.897-.02-5.88-.02-.257-1.3694.163-1.9894 1.392-1.9974.157-.0013.315-.0053.471-.0053 9.566 0 19.133-.0013 28.7.004.389.0013.836-.0333 1.149.1387.277.1533.564.5786.556.876-.009.3053-.313.7746-.587.8626-.505.16-1.082.1147-1.629.1174-2.588.0093-5.176-.012-7.764.0106-2.129.0187-2.229.0894-2.664 2.1214-1.277 5.972-2.529 11.9493-3.792 17.9253-.631 2.988-1.251 5.9773-1.895 8.9627-.41 1.904-.489 1.9746-2.516 1.9893-1.645.012-3.289-.036-4.933-.0867-.209-.0053-.412-.1866-.907-.4266z"/><path d="m72.5262 85.9949c2.176-10.5107 4.248-20.5134 6.3854-30.8387-4.052-.4107-7.8-.012-11.5707-.268-.4773-1.0533-.3453-1.7253.832-1.9093.4613-.072.9387-.0467 1.4093-.0467 9.0974-.0027 18.196-.0027 27.2934-.0013.392 0 .8306-.1 1.1653.0413.432.184 1.04.5147 1.1107.872.148.752-.44 1.0867-1.1707 1.1-.548.0093-1.0973.0227-1.6453.0227-2.3534.004-4.7067-.016-7.06.0093-2.1254.0227-2.288.144-2.696 2.108-1.752 8.4347-3.448 16.8813-5.244 25.3067-.872 4.0826-.0254 3.5613-4.436 3.6026-1.3147.012-2.628.0014-4.3734.0014z"/><path d="m490.926 83.8034c6.652.3293 13.131-.016 19.65.2067.324 1.2586-.052 1.8906-1.296 1.9266-.392.0107-.784.0107-1.178.0107-7.766 0-15.532.0027-23.298-.004-.756-.0013-1.512-.068-2.554-.1173.632-3.024 1.202-5.7627 1.778-8.5014 1.565-7.4346 3.129-14.8706 4.702-22.3053.43-2.024.454-2.052 2.418-2.0827 1.862-.028 3.726-.0053 5.92-.0053-.139 1.1547-.175 1.9827-.344 2.784-1.819 8.6627-3.663 17.32-5.49 25.98-.125.5947-.178 1.204-.308 2.108z"/><path d="m54.5518 68.3642c1.536-.84 2.3107-2.16 2.7854-3.6746.4413-1.4054-.0414-2.7787-1.172-3.524-.9134-.6027-1.8654-.7854-2.8534-.12-1.096.7386-1.6253 2.1053-1.1626 3.5373.456 1.4067 1.1693 2.6973 2.4026 3.7813zm-3.6706 4.3267c-2.1627 1.14-3.1214 2.7867-2.8494 4.7693.3227 2.3574 1.64 4.2387 4.0254 5.084 2.1053.7454 3.9293.2387 5.7093-1.44-2.36-2.884-4.6227-5.6493-6.8853-8.4133zm-1.3254-.3427c-.5653-1.216-1.1213-2.1746-1.468-3.2026-.8373-2.4907-1.012-5.0174.9494-7.0654 2.08-2.1693 4.82-2.6506 7.612-1.8906 3.8613 1.052 4.7506 5.6546 1.764 8.656-.816.82-1.7547 1.5173-2.8694 2.4706 2.084 2.4414 4.08 4.78 6.168 7.2267 2.136-2.1107 2.9374-4.6 4.216-7.1573.6534.7066 1.2027 1.3013 1.9694 2.1293-1.5094 2.2827-3.0014 4.54-4.6 6.96 1.564 1.8827 3.1333 3.7707 5.068 6.0987-2.4814 0-4.4027.056-6.316-.04-.456-.024-.916-.5187-1.3214-.86-.5293-.4454-1.0053-.9534-1.2106-1.1507-2.6227.964-4.9147 1.94-7.2867 2.636-1.9573.5747-3.9093.0107-5.6907-.876-3.0666-1.5253-4.2106-4.848-2.892-8.232.64-1.6453 1.6707-3.0067 3.192-3.96.856-.536 1.7014-1.0907 2.716-1.7427"/><path d="m278.099 85.5585c.986-4.6574 1.92-9.092 2.865-13.5254 1.224-5.7426 2.445-11.4853 3.696-17.2226.395-1.808.463-1.8427 2.345-1.8734 1.863-.0293 3.726-.0066 5.831-.0066-.152 1.06-.217 1.8093-.371 2.54-1.99 9.4213-3.986 18.8413-6 28.2573-.469 2.1973-.504 2.2453-2.782 2.2013-1.768-.0333-3.575.3014-5.584-.3706z"/></g></svg>