<svg height="230" viewBox="0 0 400 230" width="400" xmlns="http://www.w3.org/2000/svg"><g fill="#e3e8f0" fill-rule="evenodd"><path d="m187.30315.29527559c-33.956693 2.46062992-62.401575 12.59842521-76.476378 27.16535431-6.299213 6.496063-9.055118 12.5-9.055118 19.6850394-.098426 20.1771653 26.771653 38.7795276 65.944881 45.9645669 11.614174 2.0669292 19.980315 2.7559055 33.661418 2.7559055 13.877953.0984252 21.751968-.5905511 33.661417-2.7559055 25.885827-4.7244094 48.031496-15.1574803 58.759843-27.5590551 7.972441-9.2519685 9.547244-18.7007874 4.724409-28.4448819-9.448819-19.2913386-42.716535-34.0551181-83.169291-36.81102361-5.905512-.39370079-22.34252-.39370079-28.051181 0zm24.704724 4.23228347c35.925197 2.16535433 65.551181 13.77952754 76.574803 30.01968504 2.952756 4.2322835 4.232284 8.4645669 4.232284 13.0905512 0 6.6929134-2.46063 12.1062992-8.366142 18.3070866-19.488189 20.2755905-66.830709 30.511811-109.448819 23.8188976-26.377953-4.1338582-49.015748-14.5669291-59.153543-27.1653543-3.937008-4.8228346-6.200788-10.4330709-6.200788-15.0590551 0-2.2637795.984252-6.5944882 2.066929-9.0551181 5.118111-11.4173229 19.68504-21.2598426 40.846457-27.6574803 17.22441-5.21653548 39.370079-7.48031501 59.448819-6.29921264z"/><path d="m167.322835 16.0433071c-.196851.0984252-.295276.8858268-.295276 1.8700787v1.5748032l2.46063.492126c3.248031.4921259 4.133858.9842519 5.019685 2.4606299l.787402 1.2795275.098425 23.4251969c.098425 16.8307087 0 23.8188976-.196851 24.8031496-.787401 2.7559055-2.066929 3.4448819-6.791338 4.2322835-1.377953.1968504-1.377953.1968504-1.377953 1.9685039v1.7716535h13.976378 13.877953v-1.7716535c0-1.8700787.19685-1.7716535-2.952756-2.2637795-2.755906-.492126-3.740158-1.0826772-4.527559-2.9527559-.787402-1.5748032-.787402-2.0669292-.787402-11.0236221v-9.3503937l14.862205-.0984252h14.96063l-.098425 9.5472441c-.098426 8.0708662-.196851 9.8425197-.688977 10.9251969-.787401 1.5748031-2.362204 2.6574803-4.330708 2.9527559-3.543307.492126-3.346457.3937008-3.346457 2.2637795v1.7716535h13.877953 13.877952v-1.7716535c0-1.7716535 0-1.7716535-1.279527-1.9685039-4.429134-.7874016-5.314961-1.1811024-6.299213-3.2480315-.590551-1.2795276-.688976-2.5590552-.787401-23.8188977-.098425-24.9015748 0-25.6889763 1.870078-27.5590551.984252-.984252 1.574804-1.1811024 3.838583-1.5748031l2.65748-.3937008v-1.8700788-1.9685039h-13.877952-13.877953v1.8700787 1.8700788l2.362205.492126c3.444882.4921259 4.133858.9842519 5.019685 2.8543307.787401 1.4763779.885826 2.0669291.984252 11.023622l.098425 9.4488189h-14.96063-15.059055v-8.0708661c0-13.3858268.492126-14.5669292 6.791338-15.4527559l1.673229-.1968504v-1.8700788-1.9685039h-13.681103c-7.480315 0-13.779527.0984252-13.877952.2952756z"/><path d="m0 108.464567v7.38189h200 200v-7.38189-7.38189h-200-200z"/><path d="m6.2992126 128.149606c0 1.968504.0984252 2.165355.88582677 2.26378.39370079.098425 1.77165354.393701 3.05118113.590551 3.0511811.492126 4.1338582 1.279528 5.3149606 3.346457l.8858268 1.771653v28.937008c0 28.838583 0 28.838583-.7874016 30.314961-.3937008.688976-1.0826772 1.673228-1.476378 1.968504-.8858267.885826-3.2480314 1.574803-5.70866137 1.870078l-2.16535433.295276v2.165354 2.26378h16.9291339 16.9291338v-2.165354-2.165355l-2.5590551-.492126c-3.6417323-.492126-4.9212598-1.181102-6.003937-2.755905-1.3779528-2.066929-1.6732284-4.92126-1.6732284-15.944882v-9.940945h18.4055119 18.3070866v9.645669c0 10.629921-.2952756 13.779528-1.5748032 15.944882-1.0826771 1.771654-2.5590551 2.46063-6.2007874 3.149606l-2.6574803.393701-.0984252 2.165355-.0984252 2.165354h17.1259843 17.1259842l-.0984252-2.165354-.0984252-2.165355-2.7559055-.492126c-3.6417323-.590551-5.3149606-1.574803-6.2992126-3.543307l-.7874016-1.673228v-29.035433-29.133859l.8858268-1.574803c.984252-1.870078 2.9527559-2.952756 5.9055118-3.346456 3.2480315-.393701 3.2480315-.295276 3.2480315-2.657481v-2.066929h-17.1259842-17.1259843v2.066929c0 2.362205-.0984252 2.26378 3.3464567 2.657481 2.4606299.3937 4.5275591 1.377952 5.4133858 2.559055 1.476378 2.165354 1.5748032 3.051181 1.7716536 14.665354l.0984252 11.220473h-18.3070866-18.4055119l.0984252-11.220473c.1968504-12.204724.2952756-13.090551 2.1653544-15.15748 1.0826771-1.082677 4.035433-2.165355 6.1023622-2.165355 1.6732283 0 1.8700787-.3937 1.8700787-2.559055v-2.066929h-16.9291338-16.9291339z"/><path d="m136.417323 126.870079c-1.082677 2.952756-27.755906 63.582677-28.641732 65.15748-1.377953 2.65748-2.854331 4.330709-4.625985 5.413386-1.476378.885827-5.7086611 1.968504-7.6771651 1.968504h-.9842519v2.263779 2.26378h16.830709 16.929133v-2.165354-2.26378l-2.65748-.393701c-2.165354-.393701-2.952756-.688976-3.740157-1.476378-1.574803-1.574803-1.181103-3.838582 1.771653-10.531496l1.574803-3.543307h13.188977l13.287401.098425 1.870079 4.625985c2.26378 5.31496 2.755906 8.070866 1.574803 9.251968-.787401.787402-2.559055 1.377953-5.019685 1.771654l-1.673228.19685-.098425 2.165354-.098426 2.26378h17.02756 16.929133v-2.26378-2.165354l-1.771653-.19685c-5.413386-.590552-7.874016-1.870079-10.236221-5.216536-.984252-1.279527-6.496063-13.582677-15.846456-34.940945l-14.370079-32.874015-1.574803-.098426c-1.476378-.098425-1.673229 0-1.968504.688977zm6.200787 36.122047 3.937008 9.055118-4.035433.098425c-2.165354.098425-5.905512.098425-8.169291 0l-4.232284-.098425 4.133859-9.251968c2.165354-5.019685 4.133858-9.153544 4.232283-9.055119.098425.196851 1.968504 4.330709 4.133858 9.251969z"/><path d="m154.035433 128.149606c0 2.362205-.098425 2.26378 3.346457 2.657481 4.724409.590551 7.480315 2.559055 10.137795 7.283464.590551 1.279528 7.38189 16.535433 15.059055 34.055118l13.877953 31.889764 1.574803-.098425 1.574803-.098425 13.779528-31.988189c7.677165-17.519685 14.370079-32.677166 14.862204-33.759843 2.362205-4.527559 5.413386-6.692913 10.137796-7.283464 3.444882-.393701 3.346456-.295276 3.346456-2.657481l.000288-2.066929h-17.126272-17.125984l.295276 1.968504c.295275 2.559055.295275 2.65748 1.673228 2.65748.688976 0 1.968504.196851 3.051181.492126 2.46063.688977 3.149606 2.06693 2.559055 4.92126-.19685 1.082677-3.051181 7.972441-6.200787 15.255906-3.149607 7.283464-6.889764 15.846456-8.267717 18.897638-1.279527 3.149606-2.559055 5.610236-2.65748 5.610236-.196851 0-.787402-1.082677-1.279528-2.26378-.492126-1.279527-4.232283-9.744094-8.169291-18.897638-4.035433-9.055118-7.480315-17.322834-7.677165-18.307086-.885827-3.641732.3937-5.11811 4.822834-5.708662l2.066929-.19685.098426-2.26378.098425-2.165354h-16.929134-16.929422z"/><path d="m257.086614 127.952756c-.492126.984252-6.889764 15.748031-14.271653 32.677165-13.976378 32.086614-15.157481 34.448819-18.011811 36.417323-1.377953 1.082677-5.905512 2.362205-7.972441 2.362205h-1.181103v2.263779 2.26378h16.929134 16.929134v-2.26378-2.165354l-1.968504-.295276c-2.362205-.295275-4.625984-1.082677-5.11811-1.968504-.984252-1.870078-.098425-5.807086 2.65748-11.220472l1.279528-2.46063h13.188976 13.090551l1.673229 3.346457c2.65748 5.708661 3.248031 8.661417 2.165354 10.334645-.688976.984252-1.771654 1.377953-4.724409 1.968504l-2.362205.393701-.098425 2.165355-.098426 2.165354h17.125985 17.125984l-.098425-2.165354-.098426-2.165355-2.755905-.393701c-5.216535-.885826-7.57874-2.263779-9.84252-6.102362-.688976-1.082677-7.185039-15.748031-14.566929-32.480315-7.283464-16.830708-13.681102-31.397638-14.173228-32.57874-.885827-1.968504-.885827-1.968504-2.46063-1.968504-1.476378 0-1.476378 0-2.362205 1.870079zm6.988189 35.826772 3.641732 8.267716-3.937007.098425c-2.165355.098425-5.905512.098425-8.267717 0l-4.232283-.098425 3.543307-8.070866c1.968504-4.527559 3.740157-8.661417 4.133858-9.350394l.492126-1.279527.492126 1.082677c.295275.590551 2.165354 4.822835 4.133858 9.350394z"/><path d="m307.677165 128.149606c0 2.066929 0 2.165355.984252 2.362205 5.511811.984252 6.692914 1.673228 7.677166 4.330709.590551 1.574803.688976 3.641732.688976 30.31496v28.838583l-.885827 1.673228c-1.082677 2.066929-2.46063 2.854331-5.905512 3.444882l-2.362204.492126-.098425 2.165355-.098426 2.165354h15.649607 15.748031v-2.165354-2.26378l-2.46063-.393701c-3.444882-.492126-4.92126-1.377953-6.003937-3.444882l-.885827-1.673228-.098425-21.751969-.098425-21.653543.787402.885827c1.771653 2.066929 24.114173 29.822835 28.937008 36.023622 2.755905 3.641732 6.692913 8.858268 8.759842 11.515748l3.543307 4.92126h6.299213 6.299212l.098426-33.956693c.098425-32.086614.098425-33.956693.688976-35.334646.984252-2.165354 2.263779-3.149606 4.92126-3.641732 1.181102-.19685 2.559055-.492126 3.051181-.590551.688976-.098425.787401-.295276.787401-2.26378v-2.066929h-15.748031-15.649606v2.066929c0 2.066929 0 2.165355.984252 2.362205 4.133858.787402 5.511811 1.279528 6.496063 2.26378 1.771653 1.968503 1.771653 1.968503 1.870078 27.65748l.196851 24.015748-.984252-1.181102c-.590551-.492126-10.925197-13.681103-23.129922-29.133859l-22.145669-28.051181h-8.956693-8.956693z"/><path d="m0 221.555118v7.480315h200 200v-7.480315-7.38189h-200-200z"/></g></svg>