<svg fill="none" height="830" viewBox="0 0 2500 830" width="2500" xmlns="http://www.w3.org/2000/svg" xmlns:xlink="http://www.w3.org/1999/xlink"><clipPath id="a"><path d="m0 0h2500v830h-2500z"/></clipPath><g clip-path="url(#a)"><path d="m2292.1 701.493c-132.34.91-257.59 1.957-292.5-1.174-70.66-6.123-117.89-52.354-123.34-120.393-3.75-44.623-3.75-81.609-.24-116.808 6.43-66.22 61.86-129.341 123.6-132.313 22.11-1.206 81.31-1.068 188.46-.645l311.92.645v-129.383s-248.44-.286-323.14-.624c-100.27-.455-150.73-.519-182.68.624-70.29 2.665-129.21 27.7-175.03 74.226-43.35 43.904-69.22 113.783-73.06 184.53-2.17 38.139-2.91 88.018 0 117.665 7.21 76.045 31.81 135.75 73.06 177.57 44.13 44.908 111.28 73.338 175.1 74.248 52.36.655 505.75 0 505.75 0v-129.352s-137.74.56-207.9 1.184zm-1408.066-493.197v129.257h307.726v489.813h129.91v-489.813h307.79v-129.257zm-134.915 244.457c-.952-69.594-25.468-129.341-73.105-177.613-49.636-50.503-125.439-71.508-175.011-74.152-43.111-2.422-213.023-1.661-252.929 0-56.193 2.39-97.167 19.144-117.675 34.458-.212.138-.423.074-.423-.243v-235.1280488h-129.97597711v829.6070488h129.75397711s-2.528-339.583.359-376.548c5.162-65.755 55.041-117.379 118.585-122.953 51.011-4.368 204.033-3.173 252.009.106 65.934 4.537 114.586 56.066 118.426 125.438 1.258 25.543-.074 373.946-.074 373.946h130.049c.011-.01.349-347.05.011-376.918z" fill="#e3e8f0"/></g></svg>