<svg fill="none" height="70" viewBox="0 0 219 70" width="219" xmlns="http://www.w3.org/2000/svg"><g fill="#e3e8f0"><path clip-rule="evenodd" d="m3.05273 9.00004h5.13021l-2.01491 9.53176h4.76487l-.7329 3.6625h-9.899341zm25.65747-.18369c4.5832 0 6.2327 2.74995 5.3161 6.78185-.9166 4.032-3.6644 6.7819-8.2476 6.7819-4.3995 0-6.0491-2.7499-5.1325-6.7819.7351-4.0319 3.6668-6.78185 8.064-6.78185zm-2.1987 10.26045c.9166 0 1.468-.5471 2.1987-3.4807.5514-2.9338.1838-3.485-.7328-3.485-.733 0-1.4681.5512-2.015 3.485-.7349 2.9357-.1837 3.4807.5491 3.4807zm29.1425-1.8311c-.733 3.6687-3.8481 5.1323-7.1473 5.1323-4.5832 0-6.0489-2.75-5.1323-6.7819.7328-4.2157 3.6644-6.78189 8.0639-6.78189 3.299 0 5.8653 1.28209 4.9486 5.13229h-4.7649c.3676-1.47-.1837-1.8354-.7328-1.8354-1.468 0-1.8334 1.47-2.1986 3.485-.5514 2.0148-.733 3.4807.549 3.4807.7328 0 1.2842-.3632 1.6496-1.8311zm13.0146-8.24566h4.9486l-1.1005 5.67946 3.8504-5.67946h5.4977l-4.7647 6.23066 2.3824 6.9636h-5.4999l-1.8332-5.8631-1.2821 5.8631h-4.9486zm29.3262 8.24566h-2.2008l-.9166 4.9486h-5.1323l2.7499-13.19426h5.1323l-.9167 4.39736h2.1987l.9188-4.39736h5.1299l-2.75 13.19426h-5.132zm18.6942-8.24566h9.899l-.735 3.48076h-4.948l-.368 1.4678h4.583l-.733 3.2971h-4.583l-.365 1.47h5.132l-.735 3.4786h-10.079zm21.811 0h9.897l-.732 3.48076h-4.949l-.368 1.4678h4.584l-.55 3.2971h-4.766l-.184 1.47h5.134l-.735 3.4786h-10.081zm21.812 0h6.23c5.133 0 6.234 2.93376 5.501 6.78186-.918 3.8483-4.033 6.4145-8.065 6.4145h-6.414zm2.931 10.07676h.549c.917 0 1.466-.1838 1.834-.7308.548-.5512.733-1.47 1.1-2.7499.183-1.2863.366-2.1987 0-2.7499-.184-.5513-.548-.7351-1.468-.7351h-.365z" fill-rule="evenodd"/><path d="m26.1453 48.9978 3.8485-9.3481-2.0148 9.3481h4.397l2.7496-13.1942h-7.1466l-3.117 7.8781.1829-7.8781h-7.1467l-2.7512 13.1942h4.4003l2.0149-9.3481-.1846 9.3481z"/><path d="m93.9625 39.468h3.117l-2.0165 9.5298h5.313l2.015-9.5298h3.118l.735-3.6644h-11.5484z"/><path d="m122.918 35.8036h-5.127l-2.751 13.1942h5.133z"/><path d="m141.43 35.8036h-6.23l-2.75 13.1942h4.216c.643-3.15 1.004-4.916 1.647-8.066h.185l.918 8.066h6.23l2.751-13.1942h-4.032l-1.831 7.8781z"/><g clip-rule="evenodd" fill-rule="evenodd"><path d="m49.4254 35.8036h6.598l1.4646 13.1964h-5.3146l-.1846-2.1987h-3.6639l-.9193 2.1987h-4.9439zm2.5618 2.9338v4.9443h-2.1994z"/><path d="m71.4172 35.8036h7.7018c2.7446 0 4.2158.9145 3.6639 3.297-.3674 1.6516-1.1021 2.7499-3.3015 3.1175v.1837c1.2867 0 1.8353.5512 1.8353 1.6474.0831.5102.0106 1.1764-.073 1.9446-.097.892-.209 1.9215-.1099 3.004h-4.9489c-.1845-1.0983 0-2.7499.1829-3.8482 0-.5513-.3674-.9188-1.1022-.9188h-.7298l-.9193 4.7649h-5.1318zm6.2306 4.2137c-.1828.9145-.911 1.282-2.0148 1.282v-.0021h-.369l.5519-2.3826h.3673c1.0972 0 1.6491.1839 1.4646 1.1027z"/><path d="m218.876 27.7599h-29.326c3.848-14.4803 7.329-26.759961 7.329-26.759961s-13.196 14.112861-24.928 26.759961h-116.2038c-.7298 0-.7298.3676 0 .3676.3674 0 114.0048 2.015 114.0048 2.015-9.165 9.7133-14.114 15.2131-14.293 15.397-.368.3675 0 .5512.364.1837.183-.1837 6.786-6.2349 16.128-15.5807l14.482.1836c-.92 4.2157-1.648 8.064-2.75 12.6472-17.778 9.5318-46.736 25.1105-46.736 25.1105-.368.1837-.183.5512.184.3674.183-.1837 27.125-13.7475 46-23.2793-3.112 14.1129-5.128 23.8243-5.128 24.008-.183.1838.184.3675.369 0 0-.1837 2.744-9.8951 6.78-24.9267 16.859-8.6109 33.724-16.4933 33.724-16.4933zm-44.541 0c8.796-8.6151 16.129-15.5807 16.129-15.5807s-1.282 6.0489-3.48 15.5807zm14.483 2.5684 17.593.3654s-8.797 4.7647-20.712 11.1792c1.101-4.0319 2.015-7.5127 3.119-11.5446z"/></g></g></svg>