<?xml version="1.0" encoding="UTF-8"?>
<svg width="400px" height="69px" viewBox="0 0 400 69" version="1.1" xmlns="http://www.w3.org/2000/svg" xmlns:xlink="http://www.w3.org/1999/xlink">
    <!-- Generator: Sketch 52.4 (67378) - http://www.bohemiancoding.com/sketch -->
    <title>lockheed-martin@1x</title>
    <desc>Created with Sketch.</desc>
    <g id="Page-1" stroke="none" stroke-width="1" fill="none" fill-rule="evenodd">
        <g id="lockheed-martin" fill="#E3E8F0">
            <path d="M399.874794,26.8289951 L370.5486,26.8289951 C374.397035,12.3486326 377.878089,0.0690189456 377.878089,0.0690189456 C377.878089,0.0690189456 364.682043,14.1819275 352.950577,26.8289951 L236.746293,26.8289951 C236.016474,26.8289951 236.016474,27.1965404 236.746293,27.1965404 C237.113674,27.1965404 350.751236,29.2115321 350.751236,29.2115321 C341.586491,38.9248764 336.637562,44.4247117 336.45799,44.6085667 C336.09061,44.976112 336.45799,45.1598023 336.822076,44.792257 C337.004942,44.6085667 343.607908,38.5573311 352.950577,29.2115321 L367.431631,29.3952224 C366.512356,33.6108731 365.784185,37.4591433 364.682043,42.0423394 C346.904448,51.5741351 317.945634,67.152883 317.945634,67.152883 C317.578254,67.3365733 317.762768,67.7041186 318.130148,67.5202636 C318.313015,67.3365733 345.255354,53.7728171 364.130148,44.2410214 C361.018122,58.3538715 359.001647,68.0652389 359.001647,68.2489292 C358.818781,68.4327842 359.186161,68.6164745 359.370675,68.2489292 C359.370675,68.0652389 362.115321,58.3538715 366.151565,43.3222405 C383.009885,34.7113674 399.874794,26.8289951 399.874794,26.8289951 Z M355.334432,26.8289951 C364.130148,18.2138386 371.462932,11.2482372 371.462932,11.2482372 C371.462932,11.2482372 370.181219,17.2971993 367.983526,26.8289951 L355.334432,26.8289951 Z M369.817133,29.3973641 L387.410214,29.7627677 C387.410214,29.7627677 378.61285,34.5275124 366.698517,40.9420099 C367.799012,36.9100494 368.713344,33.4293245 369.817133,29.3973641 Z" id="Shape"></path>
            <path d="M2.87667216,35.4462932 L8.00688633,35.4462932 L5.99197694,44.978089 L10.7568204,44.978089 L10.0239374,48.6405272 L0.124604283,48.6405272 L2.87667216,35.4462932 Z M28.5341021,35.262603 C33.1172982,35.262603 34.7668863,38.0125206 33.8502471,42.0444811 C32.9336079,46.0764415 30.185832,48.8263591 25.6026359,48.8263591 C21.2031301,48.8263591 19.553542,46.0764415 20.4701812,42.0444811 C21.2052718,38.0125206 24.1369028,35.262603 28.5341021,35.262603 Z M26.3354201,45.5230643 C27.2520593,45.5230643 27.8034596,44.9759473 28.5341021,42.0423394 C29.0855025,39.1085667 28.7179572,38.5573311 27.801318,38.5573311 C27.068369,38.5573311 26.3332784,39.1085667 25.7863262,42.0423394 C25.0514003,44.978089 25.6026359,45.5230643 26.3354201,45.5230643 Z M55.4779242,43.6919275 C54.7449753,47.360626 51.6298188,48.8242175 48.3306425,48.8242175 C43.7474465,48.8242175 42.2817133,46.0742998 43.1983526,42.0423394 C43.9311367,37.8266886 46.8627677,35.2604613 51.2622735,35.2604613 C54.561285,35.2604613 57.1275124,36.5425041 56.2108731,40.3927512 L51.4459638,40.3927512 C51.8135091,38.9227348 51.2622735,38.5573311 50.7131796,38.5573311 C49.24514,38.5573311 48.8797364,40.0273476 48.5144975,42.0423394 C47.9630972,44.0571664 47.7815486,45.5230643 49.0635914,45.5230643 C49.7963756,45.5230643 50.3477759,45.1598023 50.7131796,43.6919275 L55.4779242,43.6919275 Z M68.4925865,35.4462932 L73.4411862,35.4462932 L72.3406919,41.1257002 L76.1911038,35.4462932 L81.6887974,35.4462932 L76.9240527,41.6769357 L79.306425,48.6405272 L73.8065898,48.6405272 L71.9733114,42.77743 L70.6912685,48.6405272 L65.7426689,48.6405272 L68.4925865,35.4462932 Z M97.8187809,43.6919275 L95.6179572,43.6919275 L94.701318,48.6405272 L89.569028,48.6405272 L92.3189456,35.4462932 L97.4512356,35.4462932 L96.5345964,39.8436573 L98.7332784,39.8436573 L99.6520593,35.4462932 L104.782208,35.4462932 L102.03229,48.6405272 L96.9,48.6405272 L97.8187809,43.6919275 Z M116.512685,35.4462932 L126.412026,35.4462932 L125.6771,38.9270181 L120.728501,38.9270181 L120.360956,40.3948929 L124.944152,40.3948929 L124.211203,43.6919275 L119.628007,43.6919275 L119.262603,45.161944 L124.395058,45.161944 L123.659967,48.6405272 L113.581219,48.6405272 L116.512685,35.4462932 Z M138.324217,35.4462932 L148.221417,35.4462932 L147.488468,38.9270181 L142.539868,38.9270181 L142.172323,40.3948929 L146.755519,40.3948929 L146.206425,43.6919275 L141.439539,43.6919275 L141.255684,45.161944 L146.39028,45.161944 L145.655189,48.6405272 L135.5743,48.6405272 L138.324217,35.4462932 Z M160.135585,35.4462932 L166.365733,35.4462932 C171.499176,35.4462932 172.599671,38.3800659 171.866557,42.2281713 C170.948929,46.0764415 167.833608,48.6426689 163.802142,48.6426689 L157.387809,48.6426689 L160.135585,35.4462932 Z M163.067216,45.5230643 L163.61631,45.5230643 C164.532949,45.5230643 165.082372,45.3392092 165.449753,44.792257 C165.998353,44.2410214 166.182867,43.3222405 166.550247,42.0423394 C166.733114,40.7560132 166.91598,39.8436573 166.550247,39.2924217 C166.365733,38.7411862 166.001647,38.5573311 165.082372,38.5573311 L164.716639,38.5573311 L163.067216,45.5230643 Z M205.589786,39.2924217 L201.741351,48.6405272 L196.973641,48.6405272 L197.158155,39.2924217 L195.143328,48.6405272 L190.742998,48.6405272 L193.494234,35.4462932 L200.640857,35.4462932 L200.45799,43.3243822 L203.574959,35.4462932 L210.721582,35.4462932 L207.971993,48.6405272 L203.574959,48.6405272 L205.589786,39.2924217 Z M225.021417,35.4462932 L231.61944,35.4462932 L233.08402,48.6426689 L227.769357,48.6426689 L227.584843,46.4439868 L223.920923,46.4439868 L223.001647,48.6426689 L218.057661,48.6426689 L225.021417,35.4462932 Z M227.583196,43.3243822 L227.583196,38.3800659 L225.383855,43.3243822 L227.583196,43.3243822 Z M247.01318,35.4462932 L254.714992,35.4462932 C257.459638,35.4462932 258.930807,36.3607908 258.378913,38.7433278 C258.011532,40.3948929 257.276771,41.4932455 255.07743,41.8607908 L255.07743,42.0444811 C256.364086,42.0444811 256.912685,42.5957166 256.912685,43.6919275 C257.092257,44.7943987 256.545305,46.6255354 256.729819,48.6405272 L251.78089,48.6405272 C251.596376,47.5421746 251.78089,45.8906096 251.963756,44.792257 C251.963756,44.2410214 251.596376,43.8734761 250.861614,43.8734761 L250.131796,43.8734761 L249.212521,48.6383855 L244.080725,48.6383855 L247.01318,35.4462932 Z M251.228995,40.9420099 C252.332784,40.9420099 253.060956,40.5744646 253.243822,39.6599671 C253.428336,38.7411862 252.876442,38.5573311 251.779242,38.5573311 L251.411862,38.5573311 L250.859967,40.9398682 L251.228995,40.9398682 L251.228995,40.9420099 Z M272.675453,39.1107084 L269.558484,39.1107084 L270.291598,35.4462932 L281.840198,35.4462932 L281.105437,39.1107084 L277.98682,39.1107084 L275.971993,48.6405272 L270.658979,48.6405272 L272.675453,39.1107084 Z M293.38715,35.4462932 L298.514003,35.4462932 L295.769357,48.6405272 L290.635914,48.6405272 L293.38715,35.4462932 Z M310.795717,35.4462932 L317.026359,35.4462932 L318.130148,43.3243822 L319.960461,35.4462932 L323.99341,35.4462932 L321.242175,48.6405272 L315.011532,48.6405272 L314.093904,40.5744646 L313.90939,40.5744646 L312.261944,48.6405272 L308.046129,48.6405272 L310.795717,35.4462932 Z" id="Shape"></path>
        </g>
    </g>
</svg>