<svg width="2280" height="794" viewBox="0 0 2280 794" fill="none" xmlns="http://www.w3.org/2000/svg">
<path d="M492.5 703C492.5 703 478.946 696.956 477 695C473.096 693.044 466.712 693.191 455 703C443.301 712.809 408.808 717 408.808 717C408.808 717 414.658 709.148 416.604 701.296C418.549 695.413 401 691.487 401 691.487L416.604 677.778L410.754 666L477 662.5C477 662.5 478.946 669.617 477 675.5L505.5 680.5C515.254 680.513 492.5 703 492.5 703Z" fill="#E3E8F0"/>
<mask id="path-2-inside-1" fill="white">
<path fill-rule="evenodd" clip-rule="evenodd" d="M431.176 176.117H565.816V639.683H421.553L136.867 364.62V639.683H0.294922V176.117H142.638L431.176 449.274V176.117ZM771.646 178.037H810.114V385.787H769.726L688.925 237.672V385.787H650.456V178.037H692.777L771.646 322.3V178.037V178.037ZM865.897 385.787H823.577L892.822 178.037H938.995L1008.24 385.787H964L952.457 343.466H879.36L865.897 385.787ZM890.903 306.917H940.914L915.908 224.209L890.903 306.917ZM1077.49 385.787H1037.08V214.586H977.463V178.037H1137.12V214.586H1077.49V385.787V385.787ZM1146.73 178.037H1187.13V385.787H1146.73V178.037ZM1300.62 172.265C1325.62 172.265 1394.88 183.808 1394.88 281.912C1394.88 380.002 1325.62 391.558 1300.62 391.558C1273.69 391.558 1206.35 380.015 1206.35 281.912C1206.35 183.795 1273.69 172.265 1300.62 172.265V172.265ZM1300.62 355.009C1321.77 355.009 1352.55 339.614 1352.55 281.912C1352.55 224.209 1321.77 208.814 1300.62 208.814C1277.54 208.814 1246.77 224.209 1246.77 281.912C1246.77 339.614 1277.53 355.009 1300.62 355.009ZM1546.84 178.037H1583.38V385.787H1542.98L1464.13 237.672H1462.21V385.787H1425.65V178.037H1467.98L1544.92 322.3H1546.84V178.037ZM1602.62 178.037H1644.95C1669.96 291.522 1673.81 306.917 1675.7 329.991H1677.62C1681.47 308.837 1683.39 287.67 1704.55 178.037H1746.88C1769.95 291.522 1771.89 303.065 1777.66 329.991C1781.51 310.756 1783.43 291.522 1808.44 178.037H1850.77L1794.96 385.787H1756.5C1735.33 283.831 1733.41 264.597 1725.73 224.209C1719.96 264.597 1716.1 278.06 1694.95 385.787H1656.47L1602.62 178.037V178.037ZM1871.92 178.037H1912.3V385.787H1871.92V178.037ZM1941.17 178.037H2025.8C2093.1 178.037 2106.58 237.672 2106.58 276.127C2106.58 322.3 2089.28 385.774 2025.8 385.774H1941.17V178.037ZM1979.62 349.225H2020.02C2052.72 349.225 2064.25 314.608 2064.25 279.979C2064.25 218.425 2037.33 214.586 2020.02 214.586H1979.62V349.225ZM2275.85 214.586H2171.99V258.826H2266.26V295.374H2171.99V349.225H2279.71V385.787H2131.59V178.037H2275.85V214.586ZM650.456 439.637H692.777V645.467H650.456V439.637ZM850.502 439.637H890.903V645.467H848.582L765.874 497.352V645.467H725.473V439.637H769.726L850.502 583.9V439.637ZM960.148 581.98C960.148 593.536 965.92 614.677 1002.47 614.677C1023.62 614.677 1044.79 610.825 1044.79 589.671C1044.79 572.344 1029.39 568.518 1008.24 562.746L987.086 556.974C954.39 549.27 923.6 543.499 923.6 497.339C923.6 474.266 935.143 433.853 1000.55 433.853C1062.1 433.853 1079.42 474.253 1079.42 501.178H1039.02C1037.1 491.555 1033.25 468.482 996.697 468.482C981.302 468.482 962.081 474.253 962.081 493.487C962.081 510.789 975.556 512.709 983.235 514.641L1033.25 528.117C1060.17 535.821 1085.18 545.418 1085.18 583.9C1085.18 645.454 1023.62 651.226 1006.31 651.226C933.21 651.226 919.748 606.973 919.748 581.967H960.148V581.98V581.98ZM1279.46 574.276C1279.46 628.127 1246.77 651.239 1196.76 651.239C1177.51 651.239 1150.57 647.387 1133.27 626.233C1121.73 612.757 1117.87 597.375 1115.95 576.209V439.637H1160.21V572.344C1160.21 601.201 1175.59 614.677 1194.84 614.677C1223.69 614.677 1237.14 601.201 1237.14 574.276V439.637H1279.48V574.276H1279.46V574.276ZM1321.77 439.637H1423.73C1477.58 439.637 1487.21 480.012 1487.21 497.339C1487.21 520.413 1477.59 539.647 1456.44 547.338C1473.74 555.042 1483.36 560.814 1483.36 599.269C1483.36 630.046 1483.36 637.75 1491.07 639.67V645.441H1444.88C1442.96 635.818 1441.03 626.22 1441.03 603.108C1441.03 576.183 1439.13 564.653 1408.33 564.653H1364.1V645.441H1321.77V439.637ZM1414.1 530.049C1435.28 530.049 1446.8 522.345 1446.8 501.191C1446.8 491.568 1441.03 474.266 1416.02 474.266H1364.09V530.049H1414.1V530.049ZM1560.29 645.467H1516.06L1587.24 439.65H1635.32L1706.47 645.467H1660.31L1648.75 603.134H1573.75L1560.29 645.467ZM1585.29 566.598H1637.25L1612.24 485.796H1610.32L1585.29 566.598ZM1848.84 439.637H1887.29V645.467H1846.92L1764.21 497.352H1762.28V645.467H1723.81V439.637H1768.03L1848.84 583.9V439.637V439.637ZM2056.59 506.976C2054.67 493.5 2046.96 470.427 2012.33 470.427C1993.11 470.427 1962.33 483.877 1962.33 543.512C1962.33 580.061 1977.72 614.69 2012.33 614.69C2035.41 614.69 2052.73 601.214 2056.59 574.289H2098.89C2091.19 620.474 2062.34 651.252 2012.33 651.252C1958.48 651.252 1920 614.703 1920 543.512C1920 470.427 1960.4 433.878 2012.33 433.878C2071.97 433.878 2096.96 476.212 2098.89 506.989H2056.59V506.976ZM2273.93 476.199H2170.07V518.506H2266.26V555.055H2170.07V608.905H2279.71V645.467H2129.67V439.637H2273.93V476.199V476.199Z"/>
</mask>
<path fill-rule="evenodd" clip-rule="evenodd" d="M431.176 176.117H565.816V639.683H421.553L136.867 364.62V639.683H0.294922V176.117H142.638L431.176 449.274V176.117ZM771.646 178.037H810.114V385.787H769.726L688.925 237.672V385.787H650.456V178.037H692.777L771.646 322.3V178.037V178.037ZM865.897 385.787H823.577L892.822 178.037H938.995L1008.24 385.787H964L952.457 343.466H879.36L865.897 385.787ZM890.903 306.917H940.914L915.908 224.209L890.903 306.917ZM1077.49 385.787H1037.08V214.586H977.463V178.037H1137.12V214.586H1077.49V385.787V385.787ZM1146.73 178.037H1187.13V385.787H1146.73V178.037ZM1300.62 172.265C1325.62 172.265 1394.88 183.808 1394.88 281.912C1394.88 380.002 1325.62 391.558 1300.62 391.558C1273.69 391.558 1206.35 380.015 1206.35 281.912C1206.35 183.795 1273.69 172.265 1300.62 172.265V172.265ZM1300.62 355.009C1321.77 355.009 1352.55 339.614 1352.55 281.912C1352.55 224.209 1321.77 208.814 1300.62 208.814C1277.54 208.814 1246.77 224.209 1246.77 281.912C1246.77 339.614 1277.53 355.009 1300.62 355.009ZM1546.84 178.037H1583.38V385.787H1542.98L1464.13 237.672H1462.21V385.787H1425.65V178.037H1467.98L1544.92 322.3H1546.84V178.037ZM1602.62 178.037H1644.95C1669.96 291.522 1673.81 306.917 1675.7 329.991H1677.62C1681.47 308.837 1683.39 287.67 1704.55 178.037H1746.88C1769.95 291.522 1771.89 303.065 1777.66 329.991C1781.51 310.756 1783.43 291.522 1808.44 178.037H1850.77L1794.96 385.787H1756.5C1735.33 283.831 1733.41 264.597 1725.73 224.209C1719.96 264.597 1716.1 278.06 1694.95 385.787H1656.47L1602.62 178.037V178.037ZM1871.92 178.037H1912.3V385.787H1871.92V178.037ZM1941.17 178.037H2025.8C2093.1 178.037 2106.58 237.672 2106.58 276.127C2106.58 322.3 2089.28 385.774 2025.8 385.774H1941.17V178.037ZM1979.62 349.225H2020.02C2052.72 349.225 2064.25 314.608 2064.25 279.979C2064.25 218.425 2037.33 214.586 2020.02 214.586H1979.62V349.225ZM2275.85 214.586H2171.99V258.826H2266.26V295.374H2171.99V349.225H2279.71V385.787H2131.59V178.037H2275.85V214.586ZM650.456 439.637H692.777V645.467H650.456V439.637ZM850.502 439.637H890.903V645.467H848.582L765.874 497.352V645.467H725.473V439.637H769.726L850.502 583.9V439.637ZM960.148 581.98C960.148 593.536 965.92 614.677 1002.47 614.677C1023.62 614.677 1044.79 610.825 1044.79 589.671C1044.79 572.344 1029.39 568.518 1008.24 562.746L987.086 556.974C954.39 549.27 923.6 543.499 923.6 497.339C923.6 474.266 935.143 433.853 1000.55 433.853C1062.1 433.853 1079.42 474.253 1079.42 501.178H1039.02C1037.1 491.555 1033.25 468.482 996.697 468.482C981.302 468.482 962.081 474.253 962.081 493.487C962.081 510.789 975.556 512.709 983.235 514.641L1033.25 528.117C1060.17 535.821 1085.18 545.418 1085.18 583.9C1085.18 645.454 1023.62 651.226 1006.31 651.226C933.21 651.226 919.748 606.973 919.748 581.967H960.148V581.98V581.98ZM1279.46 574.276C1279.46 628.127 1246.77 651.239 1196.76 651.239C1177.51 651.239 1150.57 647.387 1133.27 626.233C1121.73 612.757 1117.87 597.375 1115.95 576.209V439.637H1160.21V572.344C1160.21 601.201 1175.59 614.677 1194.84 614.677C1223.69 614.677 1237.14 601.201 1237.14 574.276V439.637H1279.48V574.276H1279.46V574.276ZM1321.77 439.637H1423.73C1477.58 439.637 1487.21 480.012 1487.21 497.339C1487.21 520.413 1477.59 539.647 1456.44 547.338C1473.74 555.042 1483.36 560.814 1483.36 599.269C1483.36 630.046 1483.36 637.75 1491.07 639.67V645.441H1444.88C1442.96 635.818 1441.03 626.22 1441.03 603.108C1441.03 576.183 1439.13 564.653 1408.33 564.653H1364.1V645.441H1321.77V439.637ZM1414.1 530.049C1435.28 530.049 1446.8 522.345 1446.8 501.191C1446.8 491.568 1441.03 474.266 1416.02 474.266H1364.09V530.049H1414.1V530.049ZM1560.29 645.467H1516.06L1587.24 439.65H1635.32L1706.47 645.467H1660.31L1648.75 603.134H1573.75L1560.29 645.467ZM1585.29 566.598H1637.25L1612.24 485.796H1610.32L1585.29 566.598ZM1848.84 439.637H1887.29V645.467H1846.92L1764.21 497.352H1762.28V645.467H1723.81V439.637H1768.03L1848.84 583.9V439.637V439.637ZM2056.59 506.976C2054.67 493.5 2046.96 470.427 2012.33 470.427C1993.11 470.427 1962.33 483.877 1962.33 543.512C1962.33 580.061 1977.72 614.69 2012.33 614.69C2035.41 614.69 2052.73 601.214 2056.59 574.289H2098.89C2091.19 620.474 2062.34 651.252 2012.33 651.252C1958.48 651.252 1920 614.703 1920 543.512C1920 470.427 1960.4 433.878 2012.33 433.878C2071.97 433.878 2096.96 476.212 2098.89 506.989H2056.59V506.976ZM2273.93 476.199H2170.07V518.506H2266.26V555.055H2170.07V608.905H2279.71V645.467H2129.67V439.637H2273.93V476.199V476.199Z" fill="#E3E8F0" stroke="#E3E8F0" stroke-width="25.9395" mask="url(#path-2-inside-1)"/>
<path fill-rule="evenodd" clip-rule="evenodd" d="M504.261 672.392H486.946V662.769C486.946 662.769 490.798 655.091 473.484 655.091H369.622C369.622 655.091 344.616 660.836 346.536 639.683C346.536 639.683 348.455 620.461 367.689 616.609C377.313 614.69 379.233 606.986 379.233 606.986V47.2367C379.233 47.2367 375.381 18.379 394.628 1.07737C394.628 1.07737 344.616 -4.69416 329.221 31.8546C329.221 31.8546 283.062 60.7124 277.29 85.7181C277.29 85.7181 271.519 101.113 256.124 114.576C256.124 114.576 204.193 160.748 208.032 224.222C208.032 224.222 163.792 280.005 186.878 343.479C186.878 343.479 171.483 374.256 175.335 414.657C175.335 414.657 163.792 447.354 165.711 470.44L159.94 468.521C159.94 468.521 154.168 516.6 165.711 533.927L159.94 532.008C159.94 532.008 169.55 582.006 179.174 593.562H173.402C173.402 593.562 188.798 643.561 209.951 655.117H32.9917C32.9917 655.117 69.5405 691.639 77.2316 693.572L83.0031 705.128C83.0031 705.128 109.928 720.51 123.391 714.752C123.391 714.752 136.867 732.053 165.711 741.677C165.711 741.677 165.711 728.201 169.55 722.43C169.55 722.43 234.957 753.207 308.055 764.763C308.055 764.763 311.894 789.769 325.356 793.621C325.356 793.621 327.276 774.4 346.51 774.4H363.824C363.824 774.4 377.287 776.293 373.448 793.621C373.448 793.621 379.22 793.621 392.682 787.849C392.682 787.849 408.077 780.145 413.836 770.548C413.836 770.548 417.688 760.924 402.293 753.22L377.287 741.69C377.287 741.69 438.842 720.51 456.156 708.993C456.156 708.993 473.458 697.437 479.229 703.221C479.229 703.221 485.001 716.697 483.081 720.523C483.081 720.523 506.155 705.141 513.859 689.746C513.885 689.694 519.656 674.312 504.261 672.392ZM494.65 697.385C494.65 697.385 483.107 693.533 481.188 691.614C477.336 689.694 463.886 687.762 452.33 697.385C440.787 707.009 410.01 716.632 410.01 716.632C410.01 716.632 415.781 708.928 417.701 701.224C419.62 695.453 402.306 691.601 402.306 691.601L417.701 678.151L411.929 666.595H473.484C473.484 666.595 471.564 670.447 469.645 676.218C467.725 680.07 471.564 683.923 471.564 683.923H498.49C508.113 683.936 494.65 697.385 494.65 697.385Z" fill="#86898E"/>
<path fill-rule="evenodd" clip-rule="evenodd" d="M369.622 14.54C369.622 14.54 336.925 18.3791 323.45 72.2425C323.45 72.2425 302.283 133.797 327.289 274.208L315.746 283.831C315.746 283.831 281.129 149.192 308.055 68.3905C308.055 68.3905 227.266 128.026 286.888 314.609L279.197 324.232C279.197 324.232 233.024 208.814 258.03 135.717C258.03 135.717 184.933 185.728 256.111 356.929L246.5 368.472C246.5 368.472 217.642 301.146 211.884 256.906C211.884 256.906 167.631 295.374 227.266 405.021L225.346 420.429C225.346 420.429 202.26 385.799 198.408 376.163C198.408 376.163 175.335 416.577 211.884 451.18L215.723 468.508C215.723 468.508 190.717 453.1 181.093 443.502C181.093 443.502 171.483 491.581 211.884 506.989L213.803 520.439C213.803 520.439 181.106 508.883 175.335 499.285C175.335 499.285 169.563 549.283 217.655 558.92L219.575 572.37C219.575 572.37 188.797 564.691 179.174 556.987C179.174 556.987 188.797 601.214 231.105 612.77L236.876 628.153C236.876 628.153 202.26 622.407 196.476 614.703C196.476 614.703 209.951 647.4 244.567 666.634H65.6885C65.6885 666.634 71.46 682.042 104.157 687.788L96.4657 695.492C96.4657 695.492 111.861 708.967 121.471 703.196C121.471 703.196 127.243 699.344 134.934 699.344C134.934 699.344 134.934 714.752 156.088 724.349C156.088 724.349 154.168 710.9 159.94 708.967C159.94 708.967 163.792 708.967 173.402 712.819C173.402 712.819 250.352 743.596 315.746 751.275C315.746 751.275 325.369 751.275 321.517 762.831C321.517 762.831 319.598 768.602 323.437 776.28C323.437 776.28 333.047 768.602 334.98 764.75C334.98 764.75 361.905 762.831 377.3 766.67C377.3 766.67 384.991 772.441 383.072 780.119L398.467 766.67L340.764 739.744C340.764 739.744 392.695 732.04 398.467 712.819C398.467 712.819 410.01 703.196 381.152 695.492L394.615 682.042C394.615 682.042 408.077 672.418 386.924 670.486C386.924 670.486 371.529 668.566 354.227 666.634C336.912 666.634 308.054 632.005 363.837 601.227V47.2368C363.85 47.2368 363.85 26.0702 369.622 14.54Z" fill="#E3E8F0"/>
<path fill-rule="evenodd" clip-rule="evenodd" d="M444.639 678.164L458.102 682.016L454.25 672.392L444.639 678.164Z" fill="#86898E"/>
</svg>
