<?xml version="1.0" encoding="UTF-8"?>
<svg width="400px" height="68px" viewBox="0 0 400 68" version="1.1" xmlns="http://www.w3.org/2000/svg" xmlns:xlink="http://www.w3.org/1999/xlink">
    <!-- Generator: Sketch 52.4 (67378) - http://www.bohemiancoding.com/sketch -->
    <title>nationwide@1x</title>
    <desc>Created with Sketch.</desc>
    <g id="Page-1" stroke="none" stroke-width="1" fill="none" fill-rule="evenodd">
        <g id="nationwide">
            <path d="M399.919727,34.4942784 C399.919727,21.6418446 392.971819,16.0840307 386.370623,16.0840307 C381.159693,16.0840307 371.781383,19.9074295 371.781383,35.1897523 C371.781383,53.252263 384.982067,53.9499573 386.370623,53.9499573 C392.276687,53.9499573 396.447481,50.4766866 398.877882,47.6988898 L399.222886,47.3487617 L397.83433,44.570965 L397.137489,44.9166524 C397.137489,44.9166524 393.665243,47.6988898 390.53971,47.6988898 C383.938514,47.6988898 382.549957,43.1820666 382.549957,35.1919727 L399.919727,35.1919727 L399.919727,34.4942784 Z M382.549957,30.3275833 C382.549957,22.3374893 383.938514,20.6006832 386.720751,20.6006832 C389.842869,20.6006832 390.189582,24.4218617 390.189582,30.3275833 L382.549957,30.3275833 Z M369.00427,49.7788215 C367.610589,49.7788215 366.570453,48.3899231 366.570453,47.0010248 L366.570453,0.799427839 L350.934244,0.799427839 L350.934244,3.92722459 L353.019641,3.92722459 C354.061486,3.92722459 356.146883,4.96835184 356.146883,6.35947054 L356.146883,19.2117848 C354.758326,17.8228864 352.326217,16.0840307 348.502135,16.0840307 C343.292912,16.0840307 334.956447,21.2963279 334.956447,35.5376601 C334.956447,50.1265585 343.29462,53.9499573 347.463706,53.9499573 C351.629377,53.9499573 354.408198,52.2111016 355.796755,50.4766866 L355.796755,52.9087959 L369.69257,52.9087959 L369.69257,49.7810418 L369.00427,49.7810418 L369.00427,49.7788215 Z M355.798463,26.1586678 L355.798463,43.875491 C355.798463,44.918702 352.676345,48.0466268 350.935952,48.0466268 C346.770282,48.0466268 346.075149,41.4454313 346.075149,35.5398804 C346.075149,23.728608 348.507259,21.9918019 351.289496,21.9918019 C353.716482,21.9895816 355.798463,25.81076 355.798463,26.1586678 Z M332.526046,49.7788215 C331.830914,49.7788215 330.093937,48.7354398 330.093937,47.3465414 L330.093937,17.1251921 L319.327071,17.1251921 L319.327071,47.3465414 C319.327071,48.7354398 317.936806,49.7788215 316.548249,49.7788215 L315.853117,49.7788215 L315.853117,52.9065756 L333.224594,52.9065756 L333.224594,49.7788215 L332.526046,49.7788215 Z M305.431255,17.1251921 L305.431255,20.2507259 L306.126388,20.2507259 C306.816396,20.2507259 307.859949,20.2507259 308.210077,20.9441503 C308.408198,21.1251921 308.53117,21.3730145 308.556789,21.6396243 L308.556789,22.335269 C307.859949,24.0719044 305.082835,32.4097353 303.694278,36.5764304 C302.650726,32.4097353 300.565329,23.3764304 300.220325,22.335269 L300.220325,21.6396243 C300.220325,21.2918873 300.220325,21.2918873 300.565329,20.9441503 C300.912041,20.2507259 301.608881,20.2507259 302.650726,20.2507259 L303.342442,20.2507259 L303.342442,17.1251921 L286.321093,17.1251921 L286.321093,20.2507259 L287.016225,20.2507259 C287.706234,20.2507259 289.099915,20.2507259 289.448335,21.2941076 C289.448335,21.2941076 290.836892,25.4630231 290.836892,26.1564475 C290.836892,26.5041845 287.70965,34.4920581 286.666097,36.9243382 C285.622545,33.453117 282.498719,25.1152861 281.803587,23.030743 C281.458582,22.683006 281.458582,21.9873612 281.458582,21.6418446 C281.458582,21.2963279 281.458582,20.9463706 281.803587,20.9463706 C282.153715,20.2529462 282.498719,20.2529462 283.542272,20.2529462 L284.233988,20.2529462 L284.233988,17.1251921 L268.256191,17.1251921 L268.256191,19.9052092 L268.601196,20.2507259 C268.951324,20.2507259 269.644748,20.5984629 269.989752,21.2941076 C270.686593,22.3374893 277.289496,41.095474 281.801879,53.252263 L282.152007,53.6022203 L285.620837,53.6022203 C285.620837,53.6022203 291.87532,36.5764304 292.918873,33.4508967 C293.962425,36.5764304 299.16994,53.6022203 299.16994,53.6022203 L302.643894,53.6022203 L313.412468,23.3764304 C314.102477,20.9441503 314.801025,19.9029889 316.189582,19.9029889 L316.53971,19.9029889 L316.53971,17.1251921 L305.431255,17.1251921 Z M268.608027,49.7788215 C266.527754,49.7788215 266.175918,48.7354398 266.175918,47.6988898 L266.175918,27.2018787 C266.175918,21.6440649 262.701964,16.0840307 256.449189,16.0840307 C252.28181,16.0840307 249.154569,17.4729291 247.069172,20.2529462 L247.069172,17.1274125 L232.826644,17.1274125 L232.826644,20.2529462 L234.565329,20.2529462 C234.565329,20.2529462 236.300598,20.6006832 236.300598,22.3374893 L236.300598,47.0010248 C236.300598,48.7354398 234.910333,49.7788215 233.171648,49.7788215 L232.826644,49.7788215 L232.826644,52.9065756 L250.543126,52.9065756 L250.543126,49.7788215 L249.847993,49.7788215 C248.112724,49.7788215 247.069172,48.7354398 247.069172,47.0010248 L247.069172,26.5064048 C247.069172,25.4630231 249.502989,22.3374893 251.931682,22.3374893 C254.362084,22.3374893 255.405636,24.0741247 255.405636,26.8519214 L255.405636,47.6988898 C255.405636,48.3899231 253.670367,49.7788215 252.628523,49.7788215 L252.28181,49.7788215 L252.28181,52.9065756 L269.30316,52.9065756 L269.30316,49.7788215 L268.608027,49.7788215 Z M214.76345,16.0840307 C207.123826,16.0840307 198.783945,23.3784799 198.783945,34.8420154 C198.783945,49.7788215 209.204099,53.9499573 214.76345,53.9499573 C221.362938,53.9499573 230.741247,48.0444065 230.741247,35.8876174 C230.741247,24.7695986 223.796755,16.0840307 214.76345,16.0840307 Z M219.280956,35.8876174 C219.280956,49.0877882 216.153715,49.0877882 214.76345,49.0877882 C212.679761,49.0877882 209.900939,49.0877882 209.900939,35.5376601 C209.900939,21.9895816 212.334757,20.6006832 214.76345,20.6006832 C216.848847,20.6006832 219.280956,22.3374893 219.280956,35.8876174 Z M196.006832,49.7788215 C195.309991,49.7788215 193.573015,48.7354398 193.573015,47.3465414 L193.573015,17.1251921 L182.804441,17.1251921 L182.804441,47.3465414 C182.804441,48.7354398 181.414176,49.7788215 180.025619,49.7788215 L179.332195,49.7788215 L179.332195,52.9065756 L196.701964,52.9065756 L196.701964,49.7788215 L196.006832,49.7788215 Z M177.24509,21.6418446 L177.24509,17.1251921 L170.992314,17.1251921 L170.992314,4.61837746 L168.211785,4.61837746 L167.865073,4.96614859 C165.779675,8.43952178 161.611272,14.692912 157.09462,18.1663535 L156.748933,18.5140905 L156.748933,21.6396243 L160.222374,21.6396243 L160.222374,45.6099061 C160.222374,50.8199829 164.042699,53.6 168.211785,53.6 C171.340734,53.6 173.771136,52.904526 176.203245,49.7743809 L176.203245,46.6510675 L175.161401,46.9965841 C174.467976,47.6922289 173.077711,47.3421008 172.034159,46.9965841 C171.340734,46.3011102 170.992314,45.6076857 170.992314,44.9122118 L170.992314,21.6374039 C172.035867,21.6418446 177.24509,21.6418446 177.24509,21.6418446 Z M153.623399,47.6988898 C153.623399,48.0444065 153.275662,48.0444065 152.929974,47.6988898 C152.2345,47.6988898 151.888984,47.3487617 151.888984,46.6555081 L151.888984,26.1586678 C151.888984,20.2529462 145.983262,16.4317506 137.297694,16.4317506 C130.003074,16.4317506 126.182067,18.8640478 124.44526,20.6006832 L124.097523,20.9463706 L124.097523,31.7164816 L127.223057,31.7164816 L127.223057,31.0230572 C129.3076,21.6440649 134.517677,20.9485909 136.60205,20.9485909 C138.686593,20.9485909 141.464389,22.6874466 141.464389,24.771819 L141.464389,29.9818958 C128.957643,33.4553373 123.051921,38.6676345 123.051921,45.616567 C123.051921,50.8266439 126.525363,53.954398 131.73766,53.954398 C135.210931,53.954398 138.684372,52.5654996 141.809906,50.1287788 C142.505551,52.2133219 144.937831,53.954398 147.715628,53.954398 C150.493424,53.954398 152.927925,52.5654996 154.66456,50.1287788 L155.012297,49.7832622 L155.012297,46.3098207 L153.623399,47.6988898 Z M137.297694,47.3465414 C135.908796,47.3465414 134.172161,46.3033305 134.172161,42.829889 C134.172161,39.7065756 137.297694,36.2309137 141.118873,34.8420154 L141.118873,44.570965 C140.077711,46.3055508 137.993168,47.3465414 137.297694,47.3465414 Z M104.644065,0.799427839 L104.644065,4.27280956 L107.076174,4.27280956 C108.117336,4.27280956 110.204099,5.66172502 110.204099,7.74618275 L110.204099,30.6753202 C108.119556,27.5475662 88.6660974,0.799427839 88.6660974,0.799427839 L73.3813834,0.799427839 L73.3813834,3.92722459 L74.4225448,3.92722459 C74.7702818,4.27501281 77.8959863,8.09617421 78.2437233,8.44394535 L78.2437233,46.6577284 C78.2437233,49.4355252 74.7702818,49.7810418 73.7270709,49.7810418 L73.0314261,49.7810418 L73.0314261,52.9087959 L90.4005124,52.9087959 L90.4005124,49.4355252 L88.663877,49.4355252 C86.9270709,49.4355252 84.8426985,47.7009394 84.8426985,46.6577284 L84.8426985,16.0862511 C86.9270709,18.8662681 113.327412,54.2976943 113.327412,54.2976943 L116.800854,54.2976943 L116.800854,7.74618275 C116.800854,5.31393681 118.189752,4.27280956 120.621862,4.27280956 L121.315286,4.27280956 L121.315286,0.799427839 L104.644065,0.799427839 Z M188.015371,0.103869172 C184.88813,0.103869172 182.111016,2.88167378 182.111016,6.35726729 C182.111016,9.83284372 184.88813,12.2628523 188.015371,12.2628523 C191.489325,12.2628523 194.269855,9.83064048 194.269855,6.35726729 C194.269855,2.88389411 191.489325,0.103869172 188.015371,0.103869172 Z M324.536294,0.103869172 C321.06234,0.103869172 318.630231,2.88167378 318.630231,6.35726729 C318.630231,9.83284372 321.06234,12.2628523 324.536294,12.2628523 C328.010248,12.2628523 330.792485,9.83064048 330.792485,6.35726729 C330.792485,2.88389411 328.010248,0.103869172 324.536294,0.103869172 Z M52.8823228,19.2095645 L52.8823228,0.797209223 L31.3443211,0.797209223 L31.3443211,8.78729291 L24.0498719,8.78729291 L24.0498719,11.9151153 L22.3130658,11.9151153 C10.1540564,11.9151153 0.079559351,21.987532 0.079559351,34.1465414 C0.079559351,41.4409906 4.24848847,48.0421862 10.8474808,52.2088813 L11.8886422,52.9043553 L11.8886422,67.8391119 L52.8801025,67.8391119 L52.8801025,59.5011102 L65.3868488,59.5011102 L65.3868488,31.7164816 C65.3890692,31.7164816 54.2734415,20.9463706 52.8823228,19.2095645 Z" id="Shape" fill="#E3E8F0"></path>
            <polygon id="Path" fill="#C9D2E2" points="49.4090521 49.7788215 49.4090521 43.1820666 46.2833476 43.1820666 46.2833476 49.7788215"></polygon>
            <path d="M49.4090521,20.6006832 L49.4090521,3.92722459 L34.8199829,3.92722459 L34.8199829,11.9173356 L27.5253629,11.9173356 L27.5253629,16.0840307 C25.7887276,15.3907771 24.0498719,15.3906063 22.3130658,15.3906063 C19.8469684,15.3803587 17.4030743,15.8585824 15.1226302,16.7976089 C12.8421862,17.7366354 10.7702818,19.1180188 9.02637062,20.8618275 C7.28247652,22.605807 5.9011614,24.6777114 4.96211785,26.9581554 C4.0230743,29.2385995 3.54488471,31.6824936 3.55514944,34.1485909 C3.55514944,40.7497865 7.37629377,46.30538 12.5863365,49.4333049 L24.3976089,30.6753202 L41.0710504,30.6753202 C40.0300598,24.7695986 36.206661,19.9074295 30.6488471,17.1274125 L30.6488471,15.3906063 L37.9432963,15.3906063 L37.9432963,7.40059778 L45.9333903,7.40059778 L45.9333903,34.1485909 L58.4401366,34.1485909 L58.4401366,52.9087959 L45.9333903,52.9087959 L45.9333903,60.8988898 L35.1654996,60.8988898 L35.1654996,51.1677199 L45.9333903,34.1465414 L26.4797609,34.1465414 L15.3619129,51.5176772 L15.3619129,64.3723313 L49.4068318,64.3723313 L49.4068318,56.3822374 L61.9135781,56.3822374 L61.9135781,33.10538 L49.4090521,20.6006832 Z M18.839795,60.8988898 L18.839795,51.1677199 L31.6920581,51.1677199 L31.6920581,60.8988898 L18.839795,60.8988898 Z" id="Shape" fill="#C9D2E2"></path>
        </g>
    </g>
</svg>