<svg fill="none" height="794" viewBox="0 0 2280 794" width="2280" xmlns="http://www.w3.org/2000/svg" xmlns:xlink="http://www.w3.org/1999/xlink"><mask id="a" fill="#fff"><path clip-rule="evenodd" d="m431.176 176.117h134.64v463.566h-144.263l-284.686-275.063v275.063h-136.572078v-463.566h142.343078l288.538 273.157zm340.47 1.92h38.468v207.75h-40.388l-80.801-148.115v148.115h-38.469v-207.75h42.321l78.869 144.263zm94.251 207.75h-42.32l69.245-207.75h46.173l69.245 207.75h-44.24l-11.543-42.321h-73.097zm25.006-78.87h50.011l-25.006-82.708zm186.587 78.87h-40.41v-171.201h-59.617v-36.549h159.657v36.549h-59.63zm69.24-207.75h40.4v207.75h-40.4zm153.89-5.772c25 0 94.26 11.543 94.26 109.647 0 98.09-69.26 109.646-94.26 109.646-26.93 0-94.27-11.543-94.27-109.646 0-98.117 67.34-109.647 94.27-109.647zm0 182.744c21.15 0 51.93-15.395 51.93-73.097 0-57.703-30.78-73.098-51.93-73.098-23.08 0-53.85 15.395-53.85 73.098 0 57.702 30.76 73.097 53.85 73.097zm246.22-176.972h36.54v207.75h-40.4l-78.85-148.115h-1.92v148.115h-36.56v-207.75h42.33l76.94 144.263h1.92zm55.78 0h42.33c25.01 113.485 28.86 128.88 30.75 151.954h1.92c3.85-21.154 5.77-42.321 26.93-151.954h42.33c23.07 113.485 25.01 125.028 30.78 151.954 3.85-19.235 5.77-38.469 30.78-151.954h42.33l-55.81 207.75h-38.46c-21.17-101.956-23.09-121.19-30.77-161.578-5.77 40.388-9.63 53.851-30.78 161.578h-38.48zm269.3 0h40.38v207.75h-40.38zm69.25 0h84.63c67.3 0 80.78 59.635 80.78 98.09 0 46.173-17.3 109.647-80.78 109.647h-84.63zm38.45 171.188h40.4c32.7 0 44.23-34.617 44.23-69.246 0-61.554-26.92-65.393-44.23-65.393h-40.4zm296.23-134.639h-103.86v44.24h94.27v36.548h-94.27v53.851h107.72v36.562h-148.12v-207.75h144.26zm-1625.394 225.051h42.321v205.83h-42.321zm200.046 0h40.401v205.83h-42.321l-82.708-148.115v148.115h-40.401v-205.83h44.253l80.776 144.263zm109.646 142.343c0 11.556 5.772 32.697 42.322 32.697 21.15 0 42.32-3.852 42.32-25.006 0-17.327-15.4-21.153-36.55-26.925l-21.154-5.772c-32.696-7.704-63.486-13.475-63.486-59.635 0-23.073 11.543-63.486 76.95-63.486 61.55 0 78.87 40.4 78.87 67.325h-40.4c-1.92-9.623-5.77-32.696-42.323-32.696-15.395 0-34.616 5.771-34.616 25.005 0 17.302 13.475 19.222 21.154 21.154l50.015 13.476c26.92 7.704 51.93 17.301 51.93 55.783 0 61.554-61.56 67.326-78.87 67.326-73.1 0-86.562-44.253-86.562-69.259h40.4zm319.312-7.704c0 53.851-32.69 76.963-82.7 76.963-19.25 0-46.19-3.852-63.49-25.006-11.54-13.476-15.4-28.858-17.32-50.024v-136.572h44.26v132.707c0 28.857 15.38 42.333 34.63 42.333 28.85 0 42.3-13.476 42.3-40.401v-134.639h42.34v134.639zm42.31-134.639h101.96c53.85 0 63.48 40.375 63.48 57.702 0 23.074-9.62 42.308-30.77 49.999 17.3 7.704 26.92 13.476 26.92 51.931 0 30.777 0 38.481 7.71 40.401v5.771h-46.19c-1.92-9.623-3.85-19.221-3.85-42.333 0-26.925-1.9-38.455-32.7-38.455h-44.23v80.788h-42.33zm92.33 90.412c21.18 0 32.7-7.704 32.7-28.858 0-9.623-5.77-26.925-30.78-26.925h-51.93v55.783zm146.19 115.418h-44.23l71.18-205.817h48.08l71.15 205.817h-46.16l-11.56-42.333h-75zm25-78.869h51.96l-25.01-80.802h-1.92zm263.55-126.961h38.45v205.83h-40.37l-82.71-148.115h-1.93v148.115h-38.47v-205.83h44.22l80.81 144.263zm207.75 67.339c-1.92-13.476-9.63-36.549-44.26-36.549-19.22 0-50 13.45-50 73.085 0 36.549 15.39 71.178 50 71.178 23.08 0 40.4-13.476 44.26-40.401h42.3c-7.7 46.185-36.55 76.963-86.56 76.963-53.85 0-92.33-36.549-92.33-107.74 0-73.085 40.4-109.634 92.33-109.634 59.64 0 84.63 42.334 86.56 73.111h-42.3zm217.34-30.777h-103.86v42.307h96.19v36.549h-96.19v53.85h109.64v36.562h-150.04v-205.83h144.26z" fill="#fff" fill-rule="evenodd"/></mask><path d="m492.5 703s-13.554-6.044-15.5-8c-3.904-1.956-10.288-1.809-22 8-11.699 9.809-46.192 14-46.192 14s5.85-7.852 7.796-15.704c1.945-5.883-15.604-9.809-15.604-9.809l15.604-13.709-5.85-11.778 66.246-3.5s1.946 7.117 0 13l28.5 5c9.754.013-13 22.5-13 22.5z" fill="#e3e8f0"/><g clip-rule="evenodd" fill-rule="evenodd"><path d="m431.176 176.117h134.64v463.566h-144.263l-284.686-275.063v275.063h-136.572078v-463.566h142.343078l288.538 273.157zm340.47 1.92h38.468v207.75h-40.388l-80.801-148.115v148.115h-38.469v-207.75h42.321l78.869 144.263zm94.251 207.75h-42.32l69.245-207.75h46.173l69.245 207.75h-44.24l-11.543-42.321h-73.097zm25.006-78.87h50.011l-25.006-82.708zm186.587 78.87h-40.41v-171.201h-59.617v-36.549h159.657v36.549h-59.63zm69.24-207.75h40.4v207.75h-40.4zm153.89-5.772c25 0 94.26 11.543 94.26 109.647 0 98.09-69.26 109.646-94.26 109.646-26.93 0-94.27-11.543-94.27-109.646 0-98.117 67.34-109.647 94.27-109.647zm0 182.744c21.15 0 51.93-15.395 51.93-73.097 0-57.703-30.78-73.098-51.93-73.098-23.08 0-53.85 15.395-53.85 73.098 0 57.702 30.76 73.097 53.85 73.097zm246.22-176.972h36.54v207.75h-40.4l-78.85-148.115h-1.92v148.115h-36.56v-207.75h42.33l76.94 144.263h1.92zm55.78 0h42.33c25.01 113.485 28.86 128.88 30.75 151.954h1.92c3.85-21.154 5.77-42.321 26.93-151.954h42.33c23.07 113.485 25.01 125.028 30.78 151.954 3.85-19.235 5.77-38.469 30.78-151.954h42.33l-55.81 207.75h-38.46c-21.17-101.956-23.09-121.19-30.77-161.578-5.77 40.388-9.63 53.851-30.78 161.578h-38.48zm269.3 0h40.38v207.75h-40.38zm69.25 0h84.63c67.3 0 80.78 59.635 80.78 98.09 0 46.173-17.3 109.647-80.78 109.647h-84.63zm38.45 171.188h40.4c32.7 0 44.23-34.617 44.23-69.246 0-61.554-26.92-65.393-44.23-65.393h-40.4zm296.23-134.639h-103.86v44.24h94.27v36.548h-94.27v53.851h107.72v36.562h-148.12v-207.75h144.26zm-1625.394 225.051h42.321v205.83h-42.321zm200.046 0h40.401v205.83h-42.321l-82.708-148.115v148.115h-40.401v-205.83h44.253l80.776 144.263zm109.646 142.343c0 11.556 5.772 32.697 42.322 32.697 21.15 0 42.32-3.852 42.32-25.006 0-17.327-15.4-21.153-36.55-26.925l-21.154-5.772c-32.696-7.704-63.486-13.475-63.486-59.635 0-23.073 11.543-63.486 76.95-63.486 61.55 0 78.87 40.4 78.87 67.325h-40.4c-1.92-9.623-5.77-32.696-42.323-32.696-15.395 0-34.616 5.771-34.616 25.005 0 17.302 13.475 19.222 21.154 21.154l50.015 13.476c26.92 7.704 51.93 17.301 51.93 55.783 0 61.554-61.56 67.326-78.87 67.326-73.1 0-86.562-44.253-86.562-69.259h40.4zm319.312-7.704c0 53.851-32.69 76.963-82.7 76.963-19.25 0-46.19-3.852-63.49-25.006-11.54-13.476-15.4-28.858-17.32-50.024v-136.572h44.26v132.707c0 28.857 15.38 42.333 34.63 42.333 28.85 0 42.3-13.476 42.3-40.401v-134.639h42.34v134.639zm42.31-134.639h101.96c53.85 0 63.48 40.375 63.48 57.702 0 23.074-9.62 42.308-30.77 49.999 17.3 7.704 26.92 13.476 26.92 51.931 0 30.777 0 38.481 7.71 40.401v5.771h-46.19c-1.92-9.623-3.85-19.221-3.85-42.333 0-26.925-1.9-38.455-32.7-38.455h-44.23v80.788h-42.33zm92.33 90.412c21.18 0 32.7-7.704 32.7-28.858 0-9.623-5.77-26.925-30.78-26.925h-51.93v55.783zm146.19 115.418h-44.23l71.18-205.817h48.08l71.15 205.817h-46.16l-11.56-42.333h-75zm25-78.869h51.96l-25.01-80.802h-1.92zm263.55-126.961h38.45v205.83h-40.37l-82.71-148.115h-1.93v148.115h-38.47v-205.83h44.22l80.81 144.263zm207.75 67.339c-1.92-13.476-9.63-36.549-44.26-36.549-19.22 0-50 13.45-50 73.085 0 36.549 15.39 71.178 50 71.178 23.08 0 40.4-13.476 44.26-40.401h42.3c-7.7 46.185-36.55 76.963-86.56 76.963-53.85 0-92.33-36.549-92.33-107.74 0-73.085 40.4-109.634 92.33-109.634 59.64 0 84.63 42.334 86.56 73.111h-42.3zm217.34-30.777h-103.86v42.307h96.19v36.549h-96.19v53.85h109.64v36.562h-150.04v-205.83h144.26z" fill="#e3e8f0" mask="url(#a)" stroke="#e3e8f0" stroke-width="25.9395"/><path d="m504.261 672.392h-17.315v-9.623s3.852-7.678-13.462-7.678h-103.862s-25.006 5.745-23.086-15.408c0 0 1.919-19.222 21.153-23.074 9.624-1.919 11.544-9.623 11.544-9.623v-559.7493s-3.852-28.8577 15.395-46.15933c0 0-50.012-5.77153-65.407 30.77723 0 0-46.159 28.8578-51.931 53.8635 0 0-5.771 15.3949-21.166 28.8579 0 0-51.931 46.172-48.092 109.646 0 0-44.24 55.783-21.154 119.257 0 0-15.395 30.777-11.543 71.178 0 0-11.543 32.697-9.624 55.783l-5.771-1.919s-5.772 48.079 5.771 65.406l-5.771-1.919s9.61 49.998 19.234 61.554h-5.772s15.396 49.999 36.549 61.555h-176.9593s36.5488 36.522 44.2399 38.455l5.7715 11.556s26.9249 15.382 40.3879 9.624c0 0 13.476 17.301 42.32 26.925 0 0 0-13.476 3.839-19.247 0 0 65.407 30.777 138.505 42.333 0 0 3.839 25.006 17.301 28.858 0 0 1.92-19.221 21.154-19.221h17.314s13.463 1.893 9.624 19.221c0 0 5.772 0 19.234-5.772 0 0 15.395-7.704 21.154-17.301 0 0 3.852-9.624-11.543-17.328l-25.006-11.53s61.555-21.18 78.869-32.697c0 0 17.302-11.556 23.073-5.772 0 0 5.772 13.476 3.852 17.302 0 0 23.074-15.382 30.778-30.777.026-.052 5.797-15.434-9.598-17.354zm-9.611 24.993s-11.543-3.852-13.462-5.771c-3.852-1.92-17.302-3.852-28.858 5.771-11.543 9.624-42.32 19.247-42.32 19.247s5.771-7.704 7.691-15.408c1.919-5.771-15.395-9.623-15.395-9.623l15.395-13.45-5.772-11.556h61.555s-1.92 3.852-3.839 9.623c-1.92 3.852 1.919 7.705 1.919 7.705h26.926c9.623.013-3.84 13.462-3.84 13.462z" fill="#86898e"/><path d="m369.622 14.54s-32.697 3.8391-46.172 57.7025c0 0-21.167 61.5545 3.839 201.9655l-11.543 9.623s-34.617-134.639-7.691-215.4405c0 0-80.789 59.6355-21.167 246.2185l-7.691 9.623s-46.173-115.418-21.167-188.515c0 0-73.097 50.011-1.919 221.212l-9.611 11.543s-28.858-67.326-34.616-111.566c0 0-44.253 38.468 15.382 148.115l-1.92 15.408s-23.086-34.63-26.938-44.266c0 0-23.073 40.414 13.476 75.017l3.839 17.328s-25.006-15.408-34.63-25.006c0 0-9.61 48.079 30.791 63.487l1.919 13.45s-32.697-11.556-38.468-21.154c0 0-5.772 49.998 42.32 59.635l1.92 13.45s-30.778-7.679-40.401-15.383c0 0 9.623 44.227 51.931 55.783l5.771 15.383s-34.616-5.746-40.4-13.45c0 0 13.475 32.697 48.091 51.931h-178.8785s5.7715 15.408 38.4685 21.154l-7.6913 7.704s15.3953 13.475 25.0053 7.704c0 0 5.772-3.852 13.463-3.852 0 0 0 15.408 21.154 25.005 0 0-1.92-13.449 3.852-15.382 0 0 3.852 0 13.462 3.852 0 0 76.95 30.777 142.344 38.456 0 0 9.623 0 5.771 11.556 0 0-1.919 5.771 1.92 13.449 0 0 9.61-7.678 11.543-11.53 0 0 26.925-1.919 42.32 1.92 0 0 7.691 5.771 5.772 13.449l15.395-13.449-57.703-26.926s51.931-7.704 57.703-26.925c0 0 11.543-9.623-17.315-17.327l13.463-13.45s13.462-9.624-7.691-11.556c0 0-15.395-1.92-32.697-3.852-17.315 0-46.173-34.629 9.61-65.407v-553.9902c.013 0 .013-21.1666 5.785-32.6968z" fill="#e3e8f0"/><path d="m444.639 678.164 13.463 3.852-3.852-9.624z" fill="#86898e"/></g></svg>