<svg fill="none" height="58" viewBox="0 0 200 58" width="200" xmlns="http://www.w3.org/2000/svg" xmlns:xlink="http://www.w3.org/1999/xlink"><clipPath id="a"><path d="m0 0h200v57.418h-200z"/></clipPath><g clip-path="url(#a)" fill="#e3e8f0"><path d="m121.805 32.274s-.401-1.472-.401-2.563v-17.069h6.836v32.877l-21.886-18.123c-1.171-.995-1.864-2.106-1.864-2.106s.347 1.225.347 2.285l-.006 17.202h-6.84v-32.748l21.685 17.759c1.163.985 2.129 2.486 2.129 2.486z"/><path d="m183.702 12.645c10.833 0 13.607 4.272 13.607 10.412 0 4.45-3.277 8.81-9.886 9.326l-.724.035s.639.113 1.307.756l11.994 11.602h-9.268l-16.744-17.001h8.337c7.468 0 7.685-3.935 7.736-4.927.14-2.554-.677-4.596-6.372-4.596h-9.533v26.524h-7.104v-32.131z"/><path d="m131.315 29.169c0-13.461 11.267-16.998 20.738-16.998 3.792 0 7.15.34 10.684 1.089l.01 6.826c-2.032-.625-6.113-1.997-10.693-1.997-8.979 0-13.339 3.488-13.339 11.079 0 6.218 4.7 10.179 13.339 10.179 4.58 0 9.166-1.09 11.387-1.909l-.013 6.622c-3.53.745-7.582 1.205-11.374 1.205-10.116.001-20.739-4.916-20.739-16.096z"/><path d="m54.387 13.471 6.667 6.279c-.182.081-.392.181-.639.305-.386.201-.846.47-1.397.852-1.099.755-2.531 1.961-4.363 3.938l-13.03 13.789c-2.233 2.36-4.502 4.23-6.612 5.219l-6.671-6.281c.182-.085.392-.179.635-.309.386-.197.846-.47 1.397-.846 1.096-.762 2.532-1.961 4.366-3.941l13.027-13.766c2.234-2.357 4.507-4.25 6.62-5.239z"/><path d="m28.579 46.803c2.947 0 5.656-.584 7.494-1.537.84-.438 2.039-1.192 3.07-1.996 1.027-.801 2.483-2.049 3.714-3.358l13.043-13.75c3.29-3.465 5.267-4.535 6.467-4.956l6.69 6.337c-1.396 1.493-18.047 19.227-18.047 19.227-1.135 1.226-2.331 2.409-3.144 3.154-.781.72-2.117 1.793-2.807 2.298-3.916 2.869-9.147 5.196-16.191 5.196-15.961 0-28.868-12.991-28.868-27.95 0-18.557 14.499-29.325007 27.704-29.325007 4.048-.1199999 7.296.561 9.864 1.432997 2.373.807 4.165 1.783 5.465 2.447-1.537.985-3.024 2.328-5.475 4.946l-2.678 2.87501c-.616-.237-3.348-1.19-6.855-1.083-8.473.25-17.74 7.118-17.406 18.385.311 10.535 8.995 17.657 17.96 17.657z"/><path d="m53.2399 12.152c-.843.441-2.039 1.193-3.076 1.997-1.024.801-2.479 2.049-3.714 3.355l-13.04 13.753c-3.29 3.465-5.268 4.531-6.467 4.953l-6.69-6.331c1.4-1.497 18.048-19.228 18.048-19.228 1.138-1.226 2.331-2.409 3.144-3.157.781-.72 2.117-1.789 2.813-2.298 3.909-2.869 9.147-5.196 16.191-5.196 15.96 0 28.861 12.992 28.861 27.947 0 18.563-14.496 29.325-27.704 29.325-4.045.123-7.296-.558-9.86-1.437-2.379-.804-4.178-1.786-5.475-2.447 1.624-1.096 3.014-2.298 5.484-4.937l2.674-2.875c.616.233 3.349 1.187 6.859 1.083 8.47-.253 17.74-7.128 17.406-18.392-.314-10.53-9.004-17.655-17.964-17.655-2.952 0-5.649.587-7.49 1.54z"/></g></svg>