<?xml version="1.0" encoding="UTF-8"?>
<svg width="400px" height="68px" viewBox="0 0 400 68" version="1.1" xmlns="http://www.w3.org/2000/svg" xmlns:xlink="http://www.w3.org/1999/xlink">
    <!-- Generator: Sketch 52.4 (67378) - http://www.bohemiancoding.com/sketch -->
    <title>nokia@1x</title>
    <desc>Created with Sketch.</desc>
    <g id="Page-1" stroke="none" stroke-width="1" fill="none" fill-rule="evenodd">
        <g id="nokia" fill="#E3E8F0" fill-rule="nonzero">
            <path d="M19.2600639,66.627476 L0,66.627476 L0,1.13099042 L33.3099042,1.13099042 L71.5233227,50.028115 L71.5233227,1.13099042 L90.7833866,1.13099042 L90.7833866,66.627476 L58.1482428,66.627476 L19.2600639,16.8958466 L19.2600639,66.627476 Z M182.935463,46.3757188 C182.935463,55.4798722 181.326518,58.6172524 178.659425,61.629393 C174.572524,66.1124601 168.630032,67.4594249 157.173163,67.4594249 L124.288818,67.4594249 C112.831949,67.4594249 106.881789,66.1111821 102.798722,61.629393 C100.136741,58.6198083 98.5239617,55.4798722 98.5239617,46.3757188 L98.5239617,21.1271565 C98.5239617,12.0242812 100.136741,8.88817891 102.798722,5.87348243 C106.881789,1.38658147 112.833227,0.0396166134 124.288818,0.0396166134 L157.174441,0.0396166134 C168.630032,0.0396166134 174.573802,1.38785942 178.659425,5.87348243 C181.32524,8.88690096 182.935463,12.0230032 182.935463,21.1271565 L182.935463,46.3757188 Z M156.364217,50.8626198 C160.762939,50.8626198 162.314377,50.6057508 163.367412,49.6460064 C164.35655,48.7488818 164.792332,47.5948882 164.792332,43.7469649 L164.792332,23.7533546 C164.792332,19.9067093 164.35655,18.7591054 163.367412,17.858147 C162.314377,16.8958466 160.762939,16.6415335 156.364217,16.6415335 L125.095208,16.6415335 C120.696486,16.6415335 119.146326,16.8958466 118.095847,17.858147 C117.104153,18.7591054 116.670927,19.9079872 116.670927,23.7533546 L116.670927,43.7469649 C116.670927,47.5936102 117.102875,48.7488818 118.095847,49.6460064 C119.146326,50.6057508 120.696486,50.8626198 125.095208,50.8626198 L156.364217,50.8626198 Z M210.92524,1.13099042 L210.92524,66.627476 L190.801278,66.627476 L190.801278,1.13099042 L210.92524,1.13099042 Z M244.92524,1.13099042 L271.492652,1.13099042 L235.637061,31.7674121 L276.077955,66.627476 L247.648562,66.627476 L210.92524,32.4690096 L244.92524,1.13099042 Z M279.790415,1.13099042 L299.920767,1.13099042 L299.920767,66.627476 L279.790415,66.627476 L279.790415,1.13099042 Z M376.654313,66.627476 L370.699042,55.2178914 L331.754633,55.2178914 L325.870927,66.627476 L303.637061,66.627476 L339.311182,1.12971246 L364.327157,1.12971246 L400,66.627476 L376.654313,66.627476 Z M338.747604,40.9916933 L363.772524,40.9916933 L351.257508,17.2792332 L338.747604,40.9916933 Z" id="Shape"></path>
        </g>
    </g>
</svg>