<svg height="68" viewBox="0 0 400 68" width="400" xmlns="http://www.w3.org/2000/svg"><path d="m19.2600639 66.627476h-19.2600639v-65.49648558h33.3099042l38.2134185 48.89712458v-48.89712458h19.2600639v65.49648558h-32.6351438l-38.8881789-49.7316294zm163.6753991-20.2517572c0 9.1041534-1.608945 12.2415336-4.276038 15.2536742-4.086901 4.4830671-10.029393 5.8300319-21.486262 5.8300319h-32.884345c-11.456869 0-17.407029-1.3482428-21.490096-5.8300319-2.661981-3.0095847-4.2747603-6.1495208-4.2747603-15.2536742v-25.2485623c0-9.1028753 1.6127793-12.23897759 4.2747603-15.25367407 4.083067-4.48690096 10.034505-5.83386582 21.490096-5.83386582h32.885623c11.455591 0 17.399361 1.34824281 21.484984 5.83386582 2.665815 3.01341853 4.276038 6.14952077 4.276038 15.25367407zm-26.571246 4.486901c4.398722 0 5.95016-.256869 7.003195-1.2166134.989138-.8971246 1.42492-2.0511182 1.42492-5.8990415v-19.9936103c0-3.8466453-.435782-4.9942492-1.42492-5.8952076-1.053035-.9623004-2.604473-1.2166135-7.003195-1.2166135h-31.269009c-4.398722 0-5.948882.2543131-6.999361 1.2166135-.991694.9009584-1.42492 2.0498402-1.42492 5.8952076v19.9936103c0 3.8466453.431948 5.0019169 1.42492 5.8990415 1.050479.9597444 2.600639 1.2166134 6.999361 1.2166134zm54.561023-49.73162938v65.49648558h-20.123962v-65.49648558zm34 0h26.567412l-35.855591 30.63642168 40.440894 34.8600639h-28.429393l-36.723322-34.1584664zm34.865175 0h20.130352v65.49648558h-20.130352zm96.863898 65.49648558-5.955271-11.4095846h-38.944409l-5.883706 11.4095846h-22.233866l35.674121-65.49776354h25.015975l35.672843 65.49776354zm-37.906709-25.6357827h25.02492l-12.515016-23.7124601z" fill="#e3e8f0"/></svg>