<svg width="236" height="65" viewBox="0 0 236 65" fill="none" xmlns="http://www.w3.org/2000/svg">
<path d="M0.430328 33.889C0.430328 28.0471 0.308582 23.7481 0.0713501 19.8636H9.62604L10.0396 28.1519H10.346C12.4942 22.0089 17.5882 18.8743 22.2966 18.8743C23.3723 18.8743 24 18.917 24.8847 19.1115V29.5023C23.7891 29.2878 22.6738 29.1839 21.5585 29.1924C16.2999 29.1924 12.6524 32.5386 11.6672 37.5384C11.4679 38.6389 11.3723 39.7554 11.3789 40.8738V63.5013H0.338562L0.430328 33.889ZM38.201 44.6557C38.4975 52.555 44.6145 56.0186 51.6853 56.0186C56.7562 56.0186 60.3855 55.226 63.7216 53.9952L65.3625 61.5954C61.6228 63.1723 56.4432 64.3624 50.1038 64.3624C35.9407 64.3624 27.6376 55.6106 27.6376 42.2369C27.6376 30.1882 34.9423 18.7952 48.9802 18.7952C63.1697 18.7952 67.7891 30.4638 67.7891 40.0213C67.7891 42.0704 67.6145 43.7176 67.3921 44.7326L38.201 44.6557ZM57.3987 36.9657C57.4481 32.9209 55.687 26.3313 48.2966 26.3313C41.5025 26.3313 38.6771 32.4957 38.1862 36.9657H57.3987ZM196.727 53.2816C196.727 56.6875 196.86 60.2087 197.353 63.5013H193.43L192.809 57.3371H192.603C190.516 60.6554 185.72 64.4865 178.881 64.4865C170.226 64.4865 166.198 58.3883 166.198 52.6555C166.198 42.7283 174.962 36.7435 192.468 36.9188V35.7756C192.468 31.5236 191.638 23.0259 181.46 23.0964C177.695 23.0964 173.773 24.1028 170.659 26.3015L169.301 23.2055C173.237 20.543 178.033 19.4875 181.926 19.4875C194.344 19.4875 196.725 28.8056 196.725 36.4936V53.2816H196.727ZM192.468 40.5041C183.099 40.2328 170.722 41.6559 170.722 51.9888C170.722 58.1704 174.802 60.9481 179.285 60.9481C186.458 60.9481 190.532 56.5079 192.013 52.3223C192.334 51.3992 192.468 50.4783 192.468 49.7432V40.5041ZM214.267 10.99V20.4725H226.532V23.9275H214.267V51.8928C214.267 57.3648 215.97 60.79 220.59 60.79C222.806 60.79 224.374 60.5015 225.476 60.119L225.993 63.416C224.6 63.9992 222.647 64.4458 220.056 64.4458C216.908 64.4458 214.311 63.4608 212.631 61.3989C210.682 59.1318 210.008 55.5272 210.008 51.132V23.9275H202.753V20.4725H210.008V12.5603L214.267 10.99ZM144.181 19.4875C141.119 19.4837 138.115 20.3377 135.512 21.9532C133.018 23.4394 130.985 25.587 129.636 28.1583H129.456V6.86822L125.201 5.70792V63.5013H129.456V37.1901C129.456 35.4422 129.59 34.2308 130.041 32.9509C131.876 27.6005 136.918 23.2055 143.018 23.2055C151.824 23.2055 154.875 30.2758 154.875 38.0213V63.5035H159.132V37.5534C159.133 21.5237 148.259 19.4875 144.181 19.4875ZM115.331 3.03494L104.301 0.0477905V24.5621H104.122C102.17 21.34 97.8666 18.8743 91.8896 18.8743C81.3987 18.8743 72.2554 27.5578 72.3262 42.1814C72.3262 55.5977 80.5799 64.4865 91 64.4865C97.2982 64.4865 102.565 61.4822 105.17 56.5956H105.371L105.867 63.5013H115.695C115.45 59.4257 115.329 55.3433 115.331 51.2603V3.03494ZM104.301 44.5766C104.301 45.7369 104.219 46.818 103.969 47.7989C102.855 52.5765 98.9522 55.6532 94.4415 55.6532C87.4926 55.6532 83.5157 49.7944 83.5157 41.7776C83.5157 33.6816 87.4597 27.4168 94.5667 27.4168C99.5289 27.4168 103.076 30.919 104.056 35.1623C104.244 36.0598 104.301 37.1623 104.301 38.0427V44.5766ZM232.382 61.5827H232.911L233.705 62.8924H234.213L233.359 61.5656C233.801 61.5079 234.138 61.2771 234.138 60.7344C234.138 60.1425 233.787 59.8798 233.069 59.8798H231.931V62.8924H232.382V61.5827ZM232.382 61.198V60.2664H233.008C233.32 60.2664 233.664 60.3326 233.664 60.7045C233.664 61.1681 233.321 61.1959 232.932 61.1959H232.382V61.198Z" fill="#E3E8F0"/>
<path d="M235.875 61.3903C235.875 62.173 235.565 62.9236 235.012 63.4769C234.458 64.0303 233.707 64.3412 232.924 64.3412C232.142 64.3412 231.392 64.0303 230.839 63.4769C230.285 62.9236 229.974 62.173 229.974 61.3903C230.003 60.6272 230.326 59.9049 230.876 59.3753C231.427 58.8456 232.161 58.5497 232.924 58.5497C233.689 58.5497 234.422 58.8456 234.972 59.3753C235.522 59.9049 235.847 60.6272 235.875 61.3903ZM232.924 58.9609C232.28 58.9609 231.662 59.2168 231.206 59.6725C230.751 60.1282 230.496 60.746 230.496 61.3903C230.496 62.0346 230.751 62.6525 231.206 63.1082C231.662 63.5637 232.28 63.8198 232.924 63.8198C234.264 63.8198 235.346 62.73 235.346 61.3903C235.346 60.0463 234.264 58.9609 232.924 58.9609Z" fill="#E3E8F0"/>
</svg>
