<svg fill="none" height="65" viewBox="0 0 227 65" width="227" xmlns="http://www.w3.org/2000/svg"><path d="m.430267 33.889c0-5.8419-.121746-10.1409-.3589779-14.0254h9.5546909l.41352 8.2883h.3064c2.1482-6.143 7.2422-9.2776 11.9506-9.2776 1.0757 0 1.7034.0427 2.5881.2372v10.3908c-1.0956-.2145-2.2109-.3184-3.3262-.3099-5.2586 0-8.9061 3.3462-9.8913 8.346-.1993 1.1005-.2949 2.217-.2883 3.3354v22.6275h-11.040299zm37.770633 10.7667c.2965 7.8993 6.4135 11.3629 13.4843 11.3629 5.0709 0 8.7002-.7926 12.0363-2.0234l1.6409 7.6002c-3.7397 1.5769-8.9193 2.767-15.2587 2.767-14.1631 0-22.4662-8.7518-22.4662-22.1255 0-12.0487 7.3047-23.4417 21.3426-23.4417 14.1895 0 18.8089 11.6686 18.8089 21.2261 0 2.0491-.1746 3.6963-.397 4.7113zm19.1977-7.69c.0494-4.0448-1.7117-10.6344-9.1021-10.6344-6.7941 0-9.6195 6.1644-10.1104 10.6344zm139.3284 16.3159c0 3.4059.133 6.9271.626 10.2197h-3.923l-.621-6.1642h-.206c-2.087 3.3183-6.883 7.1494-13.722 7.1494-8.655 0-12.683-6.0982-12.683-11.831 0-9.9272 8.764-15.912 26.27-15.7367v-1.1432c0-4.252-.83-12.7497-11.008-12.6792-3.765 0-7.687 1.0064-10.801 3.2051l-1.358-3.096c3.936-2.6625 8.732-3.718 12.625-3.718 12.418 0 14.799 9.3181 14.799 17.0061v16.788zm-4.259-12.7775c-9.369-.2713-21.746 1.1518-21.746 11.4847 0 6.1816 4.08 8.9593 8.563 8.9593 7.173 0 11.247-4.4402 12.728-8.6258.321-.9231.455-1.844.455-2.5791zm21.799-29.5141v9.4825h12.265v3.455h-12.265v27.9653c0 5.472 1.703 8.8972 6.323 8.8972 2.216 0 3.784-.2885 4.886-.671l.517 3.297c-1.393.5832-3.346 1.0298-5.937 1.0298-3.148 0-5.745-.985-7.425-3.0469-1.949-2.2671-2.623-5.8717-2.623-10.2669v-27.2045h-7.255v-3.455h7.255v-7.9122zm-70.086 8.4975c-3.062-.0038-6.066.8502-8.669 2.4657-2.494 1.4862-4.527 3.6338-5.876 6.2051h-.18v-21.29008l-4.255-1.1603v57.79338h4.255v-26.3112c0-1.7479.134-2.9593.585-4.2392 1.835-5.3504 6.877-9.7454 12.977-9.7454 8.806 0 11.857 7.0703 11.857 14.8158v25.4822h4.257v-25.9501c.001-16.0297-10.873-18.0659-14.951-18.0659zm-28.85-16.45256-11.03-2.9871495v24.5143095h-.179c-1.952-3.2221-6.2555-5.6878-12.2325-5.6878-10.4909 0-19.6342 8.6835-19.5634 23.3071 0 13.4163 8.2537 22.3051 18.6738 22.3051 6.2982 0 11.5651-3.0043 14.1701-7.8909h.201l.496 6.9057h9.828c-.245-4.0756-.366-8.158-.364-12.241zm-11.03 41.54166c0 1.1603-.082 2.2414-.332 3.2223-1.114 4.7776-5.0169 7.8543-9.5276 7.8543-6.9489 0-10.9258-5.8588-10.9258-13.8756 0-8.096 3.944-14.3608 11.051-14.3608 4.9622 0 8.5094 3.5022 9.4894 7.7455.188.8975.245 2 .245 2.8804z" fill="#e3e8f0"/></svg>