<svg height="133" viewBox="0 0 400 133" width="400" xmlns="http://www.w3.org/2000/svg"><path d="m399.309453 31.5820896c-5.432836-31.19601995-99.166169-40.93134333-209.367164-21.74527368-46.280597 8.06169158-88.069652 19.95223878-120.6129358 33.32935328 4.999005.1094527 8.7064677 1.2557213 10.959204 3.5024875 1.761194 1.7631841 2.6507463 4.1830846 2.6507463 7.19801v3.0945273h-10.8059702v-2.7323383c0-2.2766169-1.3651741-3.6875622-3.7830845-3.6875622-2.0318408 0-3.2835821.917413-3.6875622 2.7243781-.1353928.7143075-.1204823 1.4489881.0437811 2.157214 1.1562189 4.7263681 17.20199 7.6616915 18.9472636 16.3840796.2288558 1.122388.5393035 3.5243781.0497513 6.961194-1.000995 7.0348259-7.1820896 9.7492537-15.0507463 9.7492537-10.9830846 0-15.4447761-5.20199-15.4447761-12.3741293l.0079602-3.3930348h11.5840796l.0059701 4.2268656c0 2.3761194 1.7273632 3.6875622 4.079602 3.6875622 2.2288558 0 3.5303483-.8975124 3.9800995-2.7323383.2089553-.8437811.3004976-2.0875622-.0796019-3.038806-2.1432836-5.3771144-17.1263682-7.8885572-18.9711443-16.5830845-.4119403-1.9542289-.4457712-3.6179105-.1034826-5.7213931.1756171-1.042714.4985831-2.0551656.959204-3.0069651-36.0975125 16.881592-57.21393038 35.4567164-54.42388063 51.4945274 5.43880597 31.2 99.17014923 40.925373 209.36915383 21.739303 48.441791-8.43184 91.99204-21.054726 125.136319-35.1999996-.479602.0238806-.945274.0756219-1.442786.0756219-7.542289 0-14.276617-2.8258707-14.975125-10.5353234-.123383-1.4029851-.145273-1.9900497-.149253-2.7900497l.00398-17.7233831c0-.7641791.089552-2.1054727.175124-2.79801.893532-7.4507462 6.78408-10.5233831 14.949254-10.5233831 6.318408 0 14.065671 1.8129354 14.917413 10.5293533.113433 1.0945273.101492 2.2626865.099502 2.6467661v1.6736319h-10.913433v-2.4975125c0-.0537313-.01592-.9870646-.135323-1.5701492-.179104-.8895523-.937313-2.9512438-4.045771-2.9512438-3.070647 0-3.866667 2.0656716-4.065672 2.9532338-.113433.4875622-.167164 1.1880597-.167164 1.9641791v19.2616916c-.00995.6686567.023881 1.1920398.091542 1.5761194.053732.3024875.604975 2.9572139 4.179105 2.9572139 3.548259 0 4.097512-2.6547264 4.147264-2.9572139.093532-.521393.105472-1.1422886.101492-1.5761194v-5.9681592h-4.294527v-6.4278607h15.186069v11.4348259c-.00398.7781094-.01592 1.3532338-.147263 2.7860696-.183085 2.0218906-.819901 3.7333333-1.818906 5.1960199 35.150249-16.6905473 55.615921-34.9651741 52.861692-50.7701492zm-285.747264 55.2895522-5.528358-37.5641791h-.199005l-5.669652 37.5641791h-11.6517412l7.836816-42.4218906h19.0109452l7.789055 42.4218906zm56.043781 0-.256716-36.837811h-.187065l-6.855721 36.837811h-10.935324l-6.82189-36.837811h-.195025l-.248756 36.837811h-10.835821l.939303-42.4218906h17.428856l5.074627 31.5124379h.248756l5.088557-31.5124379h17.420896l.935323 42.4218906zm51.026866-8.2208955c-1.166169 8.2169154-9.215921 9.6537313-14.905473 9.6537313-9.446766 0-15.289552-4.0378109-15.289552-12.2547264l.00597-3.3512437h11.444776l.00796 4.1751243c0 2.2666667 1.59801 3.6537314 4.065672 3.6537314 2.200995 0 3.490547-.8835821 3.938309-2.6985075.206965-.8457711.292537-2.079602-.073632-3.0109453-2.109453-5.2756218-16.975125-7.8606965-18.78209-16.4199004-.41393-1.9402986-.443781-3.5880598-.103482-5.6696518 1.257711-7.759204 8.704477-9.3711443 14.698507-9.3711443 5.361194 0 9.263682 1.1701493 11.60398 3.5104478 1.745274 1.7472637 2.628856 4.1452736 2.628856 7.1283582v3.0606965h-10.702488v-2.7004975c0-2.3124378-1.434826-3.6497512-3.741293-3.6497512-2.045771 0-3.283582.9094527-3.689553 2.6985074-.131761.7069344-.114136 1.4336178.051742 2.1333334 1.146268 4.7044776 17.050746 7.5800995 18.79204 16.2208955.224875 1.1024875.533333 3.4686567.049751 6.8915423zm39.637811-3.8547264c.01592.7960199-.061692 2.3860697-.105473 2.7940299-.652736 6.9890547-5.651741 10.5412935-14.8199 10.5412935-9.20398 0-14.206966-3.5522388-14.855722-10.5412935-.073523-.9268404-.108711-1.8563234-.105472-2.7860697l-.000205-30.3641791h10.949458v31.321393c-.01194.7004975.023881 1.2179105.093533 1.5781095.135323.6965174.82786 2.9572139 3.918408 2.9572139 3.080597 0 3.773134-2.2626866 3.918408-2.9492537.061691-.3701493.099502-.9134329.099502-1.5880597v-31.319403h10.907463zm47.174129 11.6437811h-15.235821l-10.226865-33.6019901h-.171145l.567164 33.6019901h-10.618905v-41.9900498h15.874627l9.452736 32.278607h.220896l-.559204-32.278607h10.696517z" fill="#e3e8f0"/></svg>