<svg fill="none" height="32" viewBox="0 0 128 32" width="128" xmlns="http://www.w3.org/2000/svg"><g fill="#e3e8f0"><path d="m22.1375 14.4919c-.8693.7663-1.5385.8959-1.8314.5845-.1924-.204-.2306-.5982-.0852-1.1078.4611-1.6176.8196-3.2502 1.1173-4.90959.0023-.0009.0049-.00202.0074-.00336 1.7515-.82641 3.5109-1.58511 5.4557-1.79025-.9192 2.6467-2.5842 5.3928-4.6638 7.2265zm-.8991 5.4297c-1.0975-.2446-1.6226-.7408-1.589-1.1921.0222-.2957.2778-.5809.7268-.7813 1.3801-.617 2.7427-1.2963 4.0257-2.1097.0022.0015.0047.0029.0067.004 1.7001.8748 3.3332 1.9848 4.6466 3.3908-2.3882.9385-5.3449 1.2398-7.8168.6883zm-4.5395 2.8785c-.5297-1.1681-.4901-1.9604-.1312-2.2344.2357-.1793.6107-.1455 1.0479.1146 1.3344.7941 2.7096 1.5358 4.1512 2.1248.0004.0027.0009.006.0015.0087.5184 2.1837.8202 4.4755.687 6.7231-2.3996-1.5844-4.5773-4.1354-5.7564-6.7368zm-5.1546-2.0954c.5952-1.277 1.2305-1.7568 1.6682-1.6229.2871.0874.4977.4376.5751 1.0001.2449 1.7766.5996 3.5209 1.0312 5.2647-.0018.0025-.004.0054-.0058.0079-1.4926 2.1357-3.0943 4.1921-5.10361 5.8651-.2373-3.4516.38381-7.4011 1.83491-10.5149zm-1.55492-5.8711c1.36152-.2895 2.10492-.0511 2.27192.402.1097.2975-.0262.695-.4118 1.1194-1.2741 1.401-2.44212 2.8745-3.56364 4.4076h-.01045c-2.74342.2047-5.59804.0908-8.27541-.5829 2.72808-2.4362 6.42622-4.5885 9.98938-5.3461zm3.47772-4.7603c1.0186.9199 1.2977 1.6546 1.07 2.0551-.1488.2623-.5209.3867-1.0657.3219-1.8261-.217-3.64726-.3015-5.48999-.315-.00178-.0024-.00401-.0058-.00623-.0083-1.73999-2.0871-3.31363-4.43876-4.32529-6.97784 3.4484.82349 7.17971 2.54289 9.81721 4.92414zm5.409.0762c-.0069 1.3031-.342 1.9594-.7576 2.0082-.2725.0323-.5861-.195-.8709-.6665-.9327-1.5448-1.9544-3.01736-3.0386-4.46301.0007-.00291.0016-.00605.0025-.00919.4207-2.2808 1.0944-4.60644 2.2461-6.628741 1.4418 2.927621 2.4363 6.502071 2.4185 9.759241z"/><path d="m22.1111 2.2616c-.1025 1.73717-.2265 3.47793-.4598 5.17773-.0632.46098-.1349.99804-.2068 1.42187.002-.00089.0046-.00223.0071-.00313 1.7479-.82506 3.5031-1.58187 5.4438-1.78663-1.219-1.93521-2.8533-3.59653-4.7843-4.80984zm6.9314 10.0666c-1.1209.9293-2.2736 1.83-3.4915 2.617-.3407.2205-.7273.4861-1.0495.683.0022.0011.0047.0025.0069.0038 1.6962.8727 3.3255 1.9807 4.6362 3.3837.311-2.319.2863-4.3806-.1021-6.6875zm-1.873 12.0087c-1.3961-.3565-2.7872-.7615-4.1227-1.2927-.3804-.1515-.8234-.312-1.1749-.463.0004.0026.0011.006.0016.0087.5173 2.1793.8186 4.4666.6857 6.7097 1.8815-1.2816 3.4585-2.9914 4.6103-4.9627zm-10.0475 7.2201c-.6498-1.6521-1.2743-3.3159-1.7701-4.9931-.1378-.4659-.3004-1.0074-.4134-1.446-.0016.0024-.004.0054-.0056.0078-1.4895 2.1315-3.0874 4.1835-5.09204 5.8533 2.42054.7148 4.77164 1.0502 7.28114.578zm-12.89098-4.1899c1.01043-1.8565 2.07434-3.6953 3.239-5.4284.30915-.4601.6569-.9889.94918-1.3964-.00355.0003-.0071.0003-.01021.0003-2.73745.2043-5.58543.0906-8.256749-.5814.68331 2.7779 2.084329 5.3643 4.078779 7.4059zm-4.23102-14.8075c2.14713-.265 4.30536-.5067 6.44273-.5798.55215-.0191 1.17865-.047 1.67288-.0482-.002-.0024-.00422-.0058-.00622-.0082-1.73635-2.08295-3.30625-4.42969-4.31579-6.96351-1.915 2.13371-3.222807 4.78232-3.7936 7.59971zm16.5734-12.350035c-1.1491 2.018465-1.8209 4.339245-2.241 6.615725-.0007.00291-.0015.00604-.0024.00917-.2883-.37795-.6711-.83401-1.0022-1.24889-1.2555-1.57606-2.6425-3.05097-4.04642-4.49858 2.30422-.932698 4.83492-1.238152 7.29202-.877425z"/><path clip-rule="evenodd" d="m41.2219 16.8944c-2.9252-1.2088-4.0023-3.0606-3.6025-6.1931.641-4.73144 3.3399-5.62812 8.0972-5.62812h6.9893l-.5836 4.16824h-7.8307c-1.0593.07544-1.5683.37879-1.7845 1.78198-.1876 1.2587.0736 1.474 1.4883 2.0111l3.6513 1.4132c3.5103 1.3838 3.9935 3.4189 3.6358 6.2541-.5801 4.4927-2.4992 5.8621-8.2153 5.8621h-7.3372l.5837-4.1682h6.562c2.7005 0 3.3096-.4252 3.5481-2.0165.158-1.234-.1128-1.4665-1.3392-1.9223zm19.2271-11.82122-.5741 4.16824h-4.748l.5741-4.16824zm66.977 4.16824.574-4.16824h-4.748l-.574 4.16824zm-10.044 17.32588 2.991-21.46421h-4.774l-.865 6.20671c-1.414-.2129-3.004-.34-4.393-.34-3.514 0-5.867 1.2872-6.743 7.6967-.443 3.419-.115 5.7122 1.005 7.0105.725.8407 1.755 1.2499 3.148 1.2499 1.984 0 3.942-.9275 5.827-2.7587v2.3991zm-54.0137-13.8033c1.2677-1.224 3.1154-1.7942 5.8157-1.7942 3.6042 0 5.6211.6762 5.6211.6762l-.468 3.4014s-3.6002-.063-4.5645-.063c-2.3791 0-3.4408.5605-3.8569 4.0339-.2323 1.8736-.1511 2.8402.2799 3.3366.3474.401.9703.5569 2.222.5569 1.809 0 3.345-.0895 4.5647-.2665l.316-.0541-.4945 3.586-.1235.041c-1.7537.5856-3.702.7087-5.0276.7087-2.6985 0-4.5365-.6165-5.6194-1.8849-1.1237-1.3158-1.4718-3.3726-1.0639-6.2878.4071-2.9334 1.1471-4.7809 2.3989-5.9902zm38.1907-.1085c.725.85.969 2.0419.744 3.6438-.464 3.2308-2.6929 4.0334-6.1388 4.2815l-4.0965.3136c.1105 1.7505 1.008 2.0781 2.6982 2.0781 1.4567 0 4.9688-.1742 5.5421-.3229l.231-.06.027.2408c.142 1.2676.557 2.669.561 2.683l.054.1822-.172.0741c-1.864.7949-4.8025 1.1572-6.7441 1.1572-2.7522 0-4.645-.6344-5.7865-1.9395-1.1636-1.3303-1.5629-3.4066-1.2224-6.3481.6844-5.7346 2.8616-7.6695 8.6289-7.6695 2.8505 0 4.7071.5514 5.6741 1.6857zm-48.8178 13.9118h4.7479l2.0903-15.1784h-4.748zm35.0425-15.1784h-.9208c-1.7478 0-3.4589.8803-5.6642 2.9285v-2.9285h-3.7753l-2.0899 15.1784h4.7792l1.1578-8.73c.6019-.7795 2.2757-1.6979 3.5206-1.6979h1.0201l.0358-.1661c.004-.0195.4351-1.9705 1.7538-4.2664zm32.5083 15.1784h4.748l2.09-15.1784h-4.748zm-8.125-12.0623c-2.651 0-3.216.3426-3.74 4.277-.268 2.0165-.346 3.2736.047 3.731.163.1894.438.2685.858.2499 1.448-.0292 2.598-.806 4.082-2.1406l.84-6.1173zm-14.4869 1.3199c-.1618 1.3409-.8079 1.6173-2.1983 1.7306l-3.1146.3022c.4382-2.4571.9902-3.2324 3.2255-3.2324.1581-.0027.3069-.0043.4467-.0043.7566 0 1.2692.048 1.4863.2884.1471.1634.1943.4477.1544.9155z" fill-rule="evenodd"/></g></svg>