<svg fill="none" height="50" viewBox="0 0 291 50" width="291" xmlns="http://www.w3.org/2000/svg"><g clip-rule="evenodd" fill="#e3e8f0" fill-rule="evenodd"><path d="m82.942 31.2838c0-2.4957-.7405-3.8537-2.6284-3.8537s-2.7763 1.4678-2.9614 3.8537zm-10.5508 1.3949c0-5.6894 2.8875-9.2862 7.8484-9.2862 5.0717 0 7.848 4.0376 7.2559 11.1579h-9.9582c.407 2.569 1.9619 3.5969 4.5163 3.5969 1.4809 0 2.8875-.1836 4.3684-.771v3.6701c-1.4438.6608-3.0726.9177-5.0349.9177-5.8121 0-8.9959-3.5231-8.9959-9.2854z"/><path d="m89.8917 41.378h4.9605v-26.7931h-4.9605z"/><path d="m107.612 31.1748c0-2.4957-.741-3.8537-2.629-3.8537s-2.776 1.4678-2.961 3.8537zm-10.551 1.3949c0-5.6894 2.8875-9.2862 7.848-9.2862 5.072 0 7.848 4.0376 7.256 11.1579h-9.958c.407 2.569 1.962 3.5969 4.516 3.5969 1.481 0 2.888-.1836 4.369-.771v3.6701c-1.444.6608-3.073.9181-5.035.9181-5.812 0-8.996-3.5235-8.996-9.2858z"/><path d="m119.363 35.7626c.592 1.1012 1.517 1.7985 2.702 1.7985 2.11 0 2.925-1.7985 2.925-4.9914 0-3.1933-.815-4.9917-2.925-4.9917-1.185 0-2.11.6973-2.702 1.7984zm4.146 6.0929c-1.999 0-3.295-.8443-4.146-1.7988v9.396h-4.961v-25.6919h4.442v1.7984c.815-1.138 2.259-2.2757 4.554-2.2757 4.775 0 6.515 4.331 6.515 9.2862 0 5.4317-1.999 9.2858-6.404 9.2858z"/><path d="m141.963 31.1748c0-2.4957-.741-3.8537-2.629-3.8537s-2.776 1.4678-2.961 3.8537zm-10.551 1.3949c0-5.6894 2.887-9.2862 7.848-9.2862 5.072 0 7.849 4.0376 7.256 11.1579h-9.958c.407 2.569 1.962 3.5969 4.516 3.5969 1.481 0 2.888-.1836 4.369-.771v3.6701c-1.444.6608-3.073.9181-5.035.9181-5.812 0-8.996-3.5235-8.996-9.2858z"/><path d="m148.509 23.7608h4.442v2.6792c1.074-2.2388 3.073-3.2663 5.738-3.0463v4.9917c-2.369-.2937-4.257.5506-5.22 3.0094v9.9835h-4.96z"/><path d="m162.813 28.0182h-2.332v-4.2576h2.332v-2.3121c0-4.5878 2.925-6.2396 6.108-6.2396 1.296 0 2.222.1836 3.221.5875v4.0372c-.592-.2569-1.296-.3671-1.999-.3671-1.407 0-2.369.6608-2.369 2.1655v2.1286h3.554v4.2576h-3.554v13.3599h-4.961z"/><path d="m177.002 32.5695c0 3.2298.851 4.9913 2.999 4.9913 2.11 0 2.961-1.7615 2.961-4.9913 0-3.2302-.851-5.0282-2.961-5.0282-2.148 0-2.999 1.798-2.999 5.0282zm10.958 0c0 5.7992-2.85 9.2858-7.959 9.2858-5.146 0-7.996-3.4866-7.996-9.2858s2.85-9.2858 7.996-9.2858c5.109 0 7.959 3.4498 7.959 9.2858z"/><path d="m189.745 23.7608h4.442v2.6792c1.073-2.2388 3.072-3.2663 5.738-3.0463v4.9917c-2.369-.2937-4.257.5506-5.22 3.0094v9.9835h-4.96z"/><path d="m225.019 28.9359v12.4423h-4.886v-11.4148c0-1.4314-.667-2.1286-1.852-2.1286-1.036 0-1.851.587-2.48 1.578v11.9654h-4.849v-11.4148c0-1.4314-.704-2.1286-1.851-2.1286-1 0-1.852.587-2.481 1.6517v11.8917h-4.886v-17.6175h4.442v1.6517c1.037-1.3211 2.554-2.129 4.479-2.129 1.926 0 3.369.8079 4.22 2.129 1.296-1.5046 2.888-2.129 4.813-2.129 3.591 0 5.331 2.4961 5.331 5.6525z"/><path d="m236.746 37.4876v-3.3765c-.629-.147-1.184-.2204-1.776-.2204-1.815 0-3.036.5875-3.036 2.349 0 1.578.963 2.2753 2.147 2.2753 1.111 0 1.888-.3298 2.665-1.0274zm6.59.367v3.4502c-.74.22-1.481.3302-2.369.3302-1.37 0-2.628-.404-3.369-1.3581-1.333 1.0643-2.925 1.5785-4.776 1.5785-3.035 0-5.664-1.762-5.664-5.469 0-3.7804 2.777-5.6521 6.738-5.6521.963 0 1.777.1102 2.85.3306v-.9545c0-1.4314-.666-2.6792-3.109-2.6792-1.999 0-3.887.4768-5.368 1.1007v-4.2207c1.629-.587 3.813-1.0278 5.849-1.0278 4.924 0 7.478 2.1658 7.478 7.194v6.276c0 .8808.444 1.1745 1.148 1.1745.185 0 .407-.0364.592-.0733z"/><path d="m245.169 23.7608h4.443v1.6517c.999-1.1745 2.48-2.129 4.812-2.129 2.814 0 5.368 1.9455 5.368 5.6157v12.4791h-4.961v-11.4148c0-1.5047-.74-2.1286-2.036-2.1286-1.295 0-2.184.8443-2.665 1.7615v11.7819h-4.961z"/><path d="m261.862 32.7162c0-6.0556 3.554-9.4325 8.44-9.4325 1.518 0 2.666.22 3.888.8075v4.1474c-.926-.4773-1.889-.7341-3.11-.7341-2.592 0-4.221 1.8717-4.221 5.065s1.444 4.9913 3.999 4.9913c1.517 0 2.591-.3302 3.517-.7337v4.2572c-1.111.5142-2.481.771-4.295.771-4.775 0-8.218-3.2666-8.218-9.1391z"/><path d="m286.246 31.1748c0-2.4957-.741-3.8537-2.628-3.8537-1.888 0-2.777 1.4678-2.962 3.8537zm-10.551 1.3949c0-5.6894 2.888-9.2862 7.849-9.2862 5.071 0 7.848 4.0376 7.255 11.1579h-9.958c.407 2.569 1.962 3.5969 4.517 3.5969 1.48 0 2.887-.1836 4.368-.771v3.6701c-1.444.6608-3.073.9181-5.035.9181-5.812 0-8.996-3.5235-8.996-9.2858z"/><path d="m31.4461.0462341h-28.70246c-.96277 0-1.743762.7738859-1.743762 1.7288159v8.48045c0 .7084.138732 1.0987.474282 1.4313 2.4558 2.4348 7.46478 7.4004 9.92144 9.836.1571.1558.3882.058.3882-.14v-10.0369c0-.2126-.1739-.3853-.3886-.3853h-7.84508c-.51021 0-.9239-.4102-.9239-.916v-7.47329c0-.50585.41369-.91599.9239-.91599h26.31018c.5106 0 .9243.41014.9243.91599v7.47409c0 .5055-.4137.9152-.9235.9152h-7.8442c-.2152 0-.3894.1727-.3894.3861v29.1123c0 .5054-.4133.9151-.9231.9151h-7.8003c-.2048 0-.3418.2527-.1968.3961 1.7078 1.6919 5.1439 5.0998 6.8889 6.8299.4689.4648 1.0769.8526 1.8616.8526h7.4928c.7096 0 1.2845-.5701 1.2845-1.2735v-17.3412c0-.2133.1743-.3861.3891-.3861h.8219c8.4196 0 16.5952-5.092 16.5952-15.2615 0-9.05417-6.2948-15.1441659-16.5952-15.1441659z"/><path d="m62.9872 21.7859h-5.9872v-4.7859h17v4.7859h-5.9876v20.2141h-5.0252z"/></g></svg>