<svg height="80" viewBox="0 0 398 80" width="398" xmlns="http://www.w3.org/2000/svg"><g fill="#e3e8f0" fill-rule="evenodd"><path d="m372.628406 78.0527536h-19.362319v-77.92679128h44.391884v17.46667538h-25.029565v13.697913h25.029565v16.5292754h-25.029565z"/><path d="m0 .12454725h49.1222609v17.47243825h-14.1739131v60.4546087h-19.8329855v-60.4546087h-15.1153623z"/><path d="m324.927536 30.2292754c-.446956 1.3507246-.802898 2.1530434-1.768695 3.1820289-.957102 1.0289856-1.696812 1.4133334-2.952464 2.0144928-1.226087.5872464-1.975652.822029-3.307247 1.0672464h-5.07826-2.474783v-18.8991305h7.553043c2.831884.7113044 2.788406.7252174 4.254493 1.7733334 1.649276 1.1785507 2.216232 1.6828985 3.062609 3.1837101.606377 1.0666667.851594 1.7403478 1.063188 2.9611594.326957 1.8127537.230145 2.9617392-.351884 4.7171015zm18.775073-10.982029c-1.057392-4.168116-2.077102-6.6249276-4.84058-9.92347828-2.106087-2.49507247-3.668986-3.65913624-6.495652-5.3026145-2.495652-1.4573913-4.058551-2.08695072-6.846957-2.83767536-3.269565-.89797101-5.236521-.87478261-8.62029-1.0573913-2.942608-.16811595-4.616231-.16811595-7.553043 0h-20.314203v77.92782604h20.314203v-25.5115362c2.942029 0 4.605217.0573913 7.553043 0 3.687537-.0724638 5.774493-.0533333 9.44174-.3501449 2.831884-.2318841 4.173333-1.2701449 6.495652-2.7217391 2.683478-1.6684058 3.933333-3.0718841 5.905507-5.5536232 1.932174-2.417971 2.874203-3.9623189 4.013333-6.8417392 1.481739-3.7397101 1.736232-6.1344927 1.769276-10.1495652.024348-3.0185507-.081739-4.7588406-.822029-7.6782609z" fill-rule="nonzero"/><path d="m194.344928.12454725v77.92704695h17.948985v-48.4111884l16.524638 48.4111884h12.985507l16.534493-48.4111884v48.4111884h18.885797v-77.92704695h-26.208696l-15.351304 47.69440925-15.346087-47.69440925z"/><path d="m162.93913.12454725v47.69440925 3.3130435c.091015 1.7785507-.163478 2.8794203-.942029 4.4753623-.67884 1.3901449-1.308405 2.0921739-2.480579 3.0737971-1.058551.9037681-1.773913 1.3165218-3.067826 1.7727536-1.538551.5344928-2.524058.6446377-4.134493.4718841-1.236522-.1292754-1.937971-.3368116-3.077681-.822029-1.46087-.6486956-2.354783-1.0481159-3.417971-2.250029-.975652-1.0863768-1.268986-1.9327536-1.774493-3.3078261-.466087-1.2742029-.576812-2.0631884-.702029-3.413913v-3.3130435-47.69440404h-19.602319v47.69440404h-.12l.12 3.3130435c.125218 1.5727536.231884 2.4515942.477102 4.0052174.375072 2.4655072.528695 3.890029 1.293333 6.263942.841159 2.6115942 1.423188 4.0968116 2.946667 6.3715942 1.87942 2.7831884 3.433043 4.048116 6.144927 6.0237681 3.110145 2.2695653 5.148986 3.3228986 8.856232 4.3657971 3.648696 1.0342029 5.889275 1.0342029 9.677681.9426087 2.875942-.0626087 4.538551-.1101449 7.322899-.8231884 3.043478-.7628985 4.707246-1.5234782 7.433043-3.062029 2.754203-1.5675362 4.298551-2.5773913 6.49971-4.8463768 2.453334-2.5281159 3.539131-4.3275362 4.958261-7.5628985 1.302609-2.9611594 1.639421-4.8121739 2.124638-8.0245218.216811-1.4191304.273623-2.2313043.350145-3.653913v-3.3129855-47.69446725l-18.885218.00001101z"/><path d="m75.8017391 17.7775652h11.5721739c1.9478261.5437681 3.0243479 1.1982609 4.4852174 2.6017391 1.0684058 1.0289856 1.6168116 1.7310145 2.2405797 3.0724638.7797102 1.6544928.8231885 2.7692754.9472464 4.5965218.0968116 1.3889855.1733334 2.1971014-.12 3.5426087-.1976811.9617391-.3843478 1.4962318-.8272464 2.3657971-.6197101 1.2266666-1.0805797 1.9228985-2.1188405 2.8417391-1.4968116 1.2933333-2.6498551 1.8371014-4.6069566 2.1147826v.12h-11.5721739zm20.7797102 33.5309565v-.3744927c1.1872464-.2168116 2.3744927-.5576812 3.7779707-1.1489855 2.52-1.0631884 3.838261-1.9953623 5.909566-3.7942029 2.268985-1.9478261 3.480579-3.2695652 4.953043-5.8892754 1.74029-3.1060869 2.105507-5.2266087 2.6-8.7455072.496232-3.5529855.471884-5.6596522-.12-9.1982609-.518841-3.1587826-1.091594-4.9332754-2.48-7.7942029-1.563478-3.2492174-2.731594-5.05211594-5.313043-7.55710145-3.019711-2.9477971-5.182609-4.42373913-9.2075367-5.66837681-3.4857971-1.08753507-5.7895652-1.18840469-9.3275363-.83652058h-11.5721739-19.3624348v77.92681044h19.3624348v-25.5006377l16.0573913 25.5006377h23.6121736l-18.8898547-26.9197681z" fill-rule="nonzero"/></g></svg>