<?xml version="1.0" encoding="UTF-8"?>
<svg width="400px" height="62px" viewBox="0 0 400 62" version="1.1" xmlns="http://www.w3.org/2000/svg" xmlns:xlink="http://www.w3.org/1999/xlink">
    <!-- Generator: Sketch 52.4 (67378) - http://www.bohemiancoding.com/sketch -->
    <title>uci@1x</title>
    <desc>Created with Sketch.</desc>
    <g id="Page-1" stroke="none" stroke-width="1" fill="none" fill-rule="evenodd">
        <g id="uci" fill="#E3E8F0">
            <path d="M188.252366,13.4611987 C188.252366,19.666877 184.692744,22.8921136 179.369085,22.8921136 C174.105994,22.8921136 170.516088,19.666877 170.516088,13.644164 L170.516088,1.26182965 L172.919874,1.26182965 L172.919874,13.4914826 C172.919874,18.0858044 175.353943,20.6712934 179.429653,20.6712934 C183.353943,20.6712934 185.84858,18.2977918 185.84858,13.644164 L185.84858,1.26182965 L188.252366,1.26182965 L188.252366,13.4611987 Z" id="Path"></path>
            <path d="M195.271924,22.5564669 L192.929968,22.5564669 L192.929968,6.82902208 L195.271924,6.82902208 L195.271924,9.56719243 C196.306625,7.8637224 197.949527,6.49463722 200.657413,6.49463722 C204.459306,6.49463722 206.680126,9.04984227 206.680126,12.792429 L206.680126,22.5577287 L204.33817,22.5577287 L204.33817,13.370347 C204.33817,10.4504732 202.755836,8.62460568 199.987382,8.62460568 C197.279495,8.62460568 195.271924,10.6018927 195.271924,13.5533123 L195.271924,22.5564669 Z" id="Path"></path>
            <path d="M211.115457,3.39179811 L211.115457,0.806309148 L213.79306,0.806309148 L213.79306,3.39179811 L211.115457,3.39179811 Z M211.268139,22.5564669 L211.268139,6.82902208 L213.610095,6.82902208 L213.610095,22.5564669 L211.268139,22.5564669 Z" id="Shape" fill-rule="nonzero"></path>
            <polygon id="Path" points="230.095899 6.82902208 232.62082 6.82902208 225.776656 22.6788644 223.707256 22.6788644 216.893375 6.82902208 219.478864 6.82902208 224.77224 19.8801262"></polygon>
            <path d="M241.711041,20.8832808 C243.870032,20.8832808 245.391798,20.0012618 246.670032,18.6624606 L248.129968,19.9709779 C246.547634,21.7350158 244.632177,22.9223975 241.650473,22.9223975 C237.33123,22.9223975 233.801893,19.6063091 233.801893,14.7078864 C233.801893,10.1451104 236.996845,6.49463722 241.346372,6.49463722 C246.001262,6.49463722 248.678864,10.2056782 248.678864,14.8302839 C248.678864,15.0422713 248.678864,15.2858044 248.64858,15.5608833 L236.176656,15.5608833 C236.508517,18.9678233 238.942587,20.8832808 241.711041,20.8832808 Z M246.304101,13.8258675 C246.060568,10.9665615 244.417666,8.47192429 241.284543,8.47192429 C238.547634,8.47192429 236.478233,10.7545741 236.174132,13.8258675 L246.304101,13.8258675 Z" id="Shape" fill-rule="nonzero"></path>
            <path d="M254.512303,22.5564669 L252.170347,22.5564669 L252.170347,6.82902208 L254.512303,6.82902208 L254.512303,10.9362776 C255.668139,8.32050473 257.949527,6.4340694 260.93123,6.55520505 L260.93123,9.08012618 L260.748265,9.08012618 C257.311041,9.08012618 254.512303,11.5444795 254.512303,16.2902208 L254.512303,22.5564669 Z" id="Path"></path>
            <path d="M269.080126,22.8618297 C266.829022,22.8618297 264.334385,21.9798107 262.570347,20.5488959 L263.756467,18.8757098 C265.459937,20.1526814 267.346372,20.8832808 269.201262,20.8832808 C271.087697,20.8832808 272.456782,19.9104101 272.456782,18.3886435 L272.456782,18.3280757 C272.456782,16.7457413 270.600631,16.1375394 268.532492,15.5596215 C266.068139,14.859306 263.329968,14.0088328 263.329968,11.1179811 L263.329968,11.0574132 C263.329968,8.34952681 265.581073,6.55520505 268.683912,6.55520505 C270.600631,6.55520505 272.730599,7.22397476 274.341956,8.28895899 L273.276972,10.0529968 C271.817035,9.10914826 270.143849,8.53123028 268.623344,8.53123028 C266.767192,8.53123028 265.581073,9.50410095 265.581073,10.8126183 L265.581073,10.8731861 C265.581073,12.3634069 267.528076,12.9413249 269.62776,13.5810726 C272.06183,14.3116719 274.677603,15.2542587 274.677603,18.0832808 L274.677603,18.1438486 C274.677603,21.1268139 272.213249,22.8618297 269.080126,22.8618297 Z" id="Path"></path>
            <path d="M278.47571,3.39179811 L278.47571,0.806309148 L281.153312,0.806309148 L281.153312,3.39179811 L278.47571,3.39179811 Z M278.627129,22.5564669 L278.627129,6.82902208 L280.969085,6.82902208 L280.969085,22.5564669 L278.627129,22.5564669 Z" id="Shape" fill-rule="nonzero"></path>
            <path d="M288.967823,18.0858044 C288.967823,20.0025237 290.032808,20.7015773 291.615142,20.7015773 C292.406309,20.7015773 293.075079,20.5488959 293.89653,20.1539432 L293.89653,22.1615142 C293.075079,22.5867508 292.19306,22.8302839 291.067508,22.8302839 C288.542587,22.8302839 286.625868,21.5835962 286.625868,18.3886435 L286.625868,8.89716088 L284.435331,8.89716088 L284.435331,6.82776025 L286.625868,6.82776025 L286.625868,2.08201893 L288.967823,2.08201893 L288.967823,6.82776025 L293.957098,6.82776025 L293.957098,8.89716088 L288.967823,8.89716088 L288.967823,18.0858044 Z" id="Path"></path>
            <path d="M305.148265,23.073817 C303.809464,26.3293375 302.287697,27.5154574 299.915457,27.5154574 C298.60694,27.5154574 297.634069,27.2416404 296.569085,26.7242902 L297.360252,24.8694006 C298.121136,25.2643533 298.820189,25.4473186 299.824606,25.4473186 C301.223975,25.4473186 302.105994,24.7167192 303.049842,22.4958991 L295.900315,6.82902208 L298.485804,6.82902208 L304.204416,19.940694 L309.254259,6.82902208 L311.748896,6.82902208 L305.148265,23.073817 Z" id="Path"></path>
            <path d="M330.541325,22.9223975 C325.825868,22.9223975 322.388644,19.2113565 322.388644,14.7394322 C322.388644,10.2675079 325.857413,6.49463722 330.601893,6.49463722 C335.31735,6.49463722 338.784858,10.2056782 338.784858,14.6776025 C338.784858,19.1495268 335.287066,22.9223975 330.541325,22.9223975 Z M330.541325,8.56277603 C327.134385,8.56277603 324.791167,11.2706625 324.791167,14.6776025 C324.791167,18.0845426 327.285804,20.8227129 330.600631,20.8227129 C334.007571,20.8227129 336.381073,18.1148265 336.381073,14.7381703 C336.382334,11.3009464 333.857413,8.56277603 330.541325,8.56277603 Z" id="Shape" fill-rule="nonzero"></path>
            <path d="M350.582965,6.88958991 L350.582965,8.89716088 L345.623975,8.89716088 L345.623975,22.5564669 L343.282019,22.5564669 L343.282019,8.89842271 L341.121767,8.89842271 L341.121767,6.86056782 L343.282019,6.86056782 L343.282019,5.49148265 C343.282019,2.05299685 345.015773,0.228391167 348.02776,0.228391167 C349.123028,0.228391167 349.852366,0.349526814 350.613249,0.623343849 L350.613249,2.66119874 C349.761514,2.41766562 349.121767,2.26624606 348.330599,2.26624606 C346.505994,2.26624606 345.593691,3.3615142 345.593691,5.6126183 L345.593691,6.89085174 L350.582965,6.89085174 L350.582965,6.88958991 Z" id="Path"></path>
            <path d="M180.585489,58.4063091 C174.440379,58.4063091 169.907886,53.5697161 169.907886,47.4246057 C169.907886,41.3400631 174.410095,36.3823344 180.676341,36.3823344 C184.540063,36.3823344 186.851735,37.7514196 188.981703,39.7589905 L187.338801,41.5230284 C185.544479,39.8195584 183.536909,38.6031546 180.646057,38.6031546 C175.930599,38.6031546 172.401262,42.4063091 172.401262,47.3640379 C172.401262,52.3230284 175.960883,56.1867508 180.646057,56.1867508 C183.565931,56.1867508 185.48265,55.0611987 187.521767,53.1141956 L189.102839,54.6649842 C186.883281,56.9160883 184.449211,58.4063091 180.585489,58.4063091 Z" id="Path"></path>
            <path d="M193.203785,45.3249211 L192.50347,43.4082019 C194.237224,42.6170347 195.940694,42.0996845 198.222082,42.0996845 C202.511041,42.0996845 204.914826,44.288959 204.914826,48.4277603 L204.914826,58.0403785 L202.663722,58.0403785 L202.663722,55.6681388 C201.568454,57.0977918 199.743849,58.3760252 196.975394,58.3760252 C194.055521,58.3760252 191.104101,56.733123 191.104101,53.4473186 C191.104101,50.1009464 193.841009,48.3369085 197.827129,48.3369085 C199.8347,48.3369085 201.265615,48.6107256 202.663722,49.0069401 L202.663722,48.459306 C202.663722,45.6302839 200.929968,44.170347 197.978549,44.170347 C196.124921,44.1690852 194.663722,44.6561514 193.203785,45.3249211 Z M193.477603,53.3564669 C193.477603,55.3640379 195.302208,56.5198738 197.432177,56.5198738 C200.321767,56.5198738 202.694006,54.755836 202.694006,52.2611987 L202.694006,50.7394322 C201.53817,50.4050473 199.98612,50.0706625 198.070662,50.0706625 C195.120505,50.0719243 193.477603,51.3488959 193.477603,53.3564669 Z" id="Shape" fill-rule="nonzero"></path>
            <polygon id="Path" points="209.504101 58.0416404 209.504101 35.8334385 211.846057 35.8334385 211.846057 58.0416404"></polygon>
            <path d="M216.741956,38.8769716 L216.741956,36.2902208 L219.419558,36.2902208 L219.419558,38.8757098 L216.741956,38.8757098 L216.741956,38.8769716 Z M216.893375,58.0416404 L216.893375,42.3141956 L219.235331,42.3141956 L219.235331,58.0416404 L216.893375,58.0416404 Z" id="Shape" fill-rule="nonzero"></path>
            <path d="M232.253628,42.3747634 L232.253628,44.3823344 L227.294637,44.3823344 L227.294637,58.0416404 L224.952681,58.0416404 L224.952681,44.3823344 L222.793691,44.3823344 L222.793691,42.3432177 L224.952681,42.3432177 L224.952681,40.9753943 C224.952681,37.5369085 226.687697,35.7123028 229.698423,35.7123028 C230.793691,35.7123028 231.523028,35.8334385 232.283912,36.1072555 L232.283912,38.1451104 C231.432177,37.9015773 230.793691,37.7501577 230.002524,37.7501577 C228.177918,37.7501577 227.265615,38.8454259 227.265615,41.09653 L227.265615,42.3747634 L232.253628,42.3747634 Z" id="Path"></path>
            <path d="M241.497792,58.4063091 C236.782334,58.4063091 233.34511,54.6952681 233.34511,50.2233438 C233.34511,45.7514196 236.81388,41.9785489 241.559621,41.9785489 C246.275079,41.9785489 249.742587,45.6895899 249.742587,50.1615142 C249.742587,54.6334385 246.243533,58.4063091 241.497792,58.4063091 Z M241.497792,44.0479495 C238.090852,44.0479495 235.747634,46.755836 235.747634,50.162776 C235.747634,53.5697161 238.242271,56.3078864 241.55836,56.3078864 C244.9653,56.3078864 247.338801,53.6 247.338801,50.2233438 C247.338801,46.7861199 244.81388,44.0479495 241.497792,44.0479495 Z" id="Shape" fill-rule="nonzero"></path>
            <path d="M255.698423,58.0416404 L253.356467,58.0416404 L253.356467,42.3141956 L255.698423,42.3141956 L255.698423,46.4214511 C256.854259,43.8044164 259.135647,41.9192429 262.11735,42.0403785 L262.11735,44.5652997 L261.934385,44.5652997 C258.497161,44.5652997 255.698423,47.029653 255.698423,51.7753943 L255.698423,58.0416404 Z" id="Path"></path>
            <path d="M267.40694,58.0416404 L265.064984,58.0416404 L265.064984,42.3141956 L267.40694,42.3141956 L267.40694,45.0523659 C268.44164,43.3488959 270.084543,41.9798107 272.792429,41.9798107 C276.594322,41.9798107 278.815142,44.5350158 278.815142,48.2776025 L278.815142,58.0429022 L276.473186,58.0429022 L276.473186,48.8555205 C276.473186,45.9356467 274.890852,44.1097792 272.122397,44.1097792 C269.414511,44.1097792 267.40694,46.0870662 267.40694,49.0384858 L267.40694,58.0416404 Z" id="Path"></path>
            <path d="M283.250473,38.8769716 L283.250473,36.2902208 L285.928076,36.2902208 L285.928076,38.8757098 L283.250473,38.8757098 L283.250473,38.8769716 Z M283.403155,58.0416404 L283.403155,42.3141956 L285.74511,42.3141956 L285.74511,58.0416404 L283.403155,58.0416404 Z" id="Shape" fill-rule="nonzero"></path>
            <path d="M291.492744,45.3249211 L290.792429,43.4082019 C292.526183,42.6170347 294.229653,42.0996845 296.511041,42.0996845 C300.8,42.0996845 303.203785,44.288959 303.203785,48.4277603 L303.203785,58.0403785 L300.952681,58.0403785 L300.952681,55.6681388 C299.857413,57.0977918 298.032808,58.3760252 295.264353,58.3760252 C292.344479,58.3760252 289.39306,56.733123 289.39306,53.4473186 C289.39306,50.1009464 292.129968,48.3369085 296.116088,48.3369085 C298.123659,48.3369085 299.554574,48.6107256 300.952681,49.0069401 L300.952681,48.459306 C300.952681,45.6302839 299.218927,44.170347 296.267508,44.170347 C294.412618,44.1690852 292.952681,44.6561514 291.492744,45.3249211 Z M291.766562,53.3564669 C291.766562,55.3640379 293.591167,56.5198738 295.721136,56.5198738 C298.610726,56.5198738 300.982965,54.755836 300.982965,52.2611987 L300.982965,50.7394322 C299.827129,50.4050473 298.275079,50.0706625 296.359621,50.0706625 C293.408202,50.0719243 291.766562,51.3488959 291.766562,53.3564669 Z" id="Shape" fill-rule="nonzero"></path>
            <path d="M308.4,58.0416404 L307.304732,58.0416404 L307.304732,54.8479495 L310.10347,54.8479495 L310.10347,57.584858 C310.10347,60.0492114 309.038486,61.2353312 306.726814,61.7526814 L306.360883,60.6876972 C307.883912,60.1413249 308.522397,59.3501577 308.4,58.0416404 Z" id="Path"></path>
            <polygon id="Path" points="325.948265 36.7470032 325.948265 58.0416404 323.545741 58.0416404 323.545741 36.7470032"></polygon>
            <path d="M333.520505,58.0416404 L331.178549,58.0416404 L331.178549,42.3141956 L333.520505,42.3141956 L333.520505,46.4214511 C334.676341,43.8044164 336.957729,41.9192429 339.939432,42.0403785 L339.939432,44.5652997 L339.756467,44.5652997 C336.319243,44.5652997 333.520505,47.029653 333.520505,51.7753943 L333.520505,58.0416404 Z" id="Path"></path>
            <polygon id="Path" points="354.537539 42.3141956 357.062461 42.3141956 350.218297 58.1640379 348.148896 58.1640379 341.335016 42.3141956 343.920505 42.3141956 349.21388 55.3652997"></polygon>
            <path d="M360.190536,38.8769716 L360.190536,36.2902208 L362.868139,36.2902208 L362.868139,38.8757098 L360.190536,38.8757098 L360.190536,38.8769716 Z M360.343218,58.0416404 L360.343218,42.3141956 L362.685174,42.3141956 L362.685174,58.0416404 L360.343218,58.0416404 Z" id="Shape" fill-rule="nonzero"></path>
            <path d="M369.861199,58.0416404 L367.519243,58.0416404 L367.519243,42.3141956 L369.861199,42.3141956 L369.861199,45.0523659 C370.895899,43.3488959 372.538801,41.9798107 375.246688,41.9798107 C379.04858,41.9798107 381.269401,44.5350158 381.269401,48.2776025 L381.269401,58.0429022 L378.927445,58.0429022 L378.927445,48.8555205 C378.927445,45.9356467 377.34511,44.1097792 374.576656,44.1097792 C371.86877,44.1097792 369.861199,46.0870662 369.861199,49.0384858 L369.861199,58.0416404 Z" id="Path"></path>
            <path d="M392.580442,56.3684543 C394.740694,56.3684543 396.261199,55.4864353 397.539432,54.1476341 L398.999369,55.4561514 C397.417035,57.2201893 395.501577,58.4063091 392.518612,58.4063091 C388.199369,58.4063091 384.670032,55.0914826 384.670032,50.1930599 C384.670032,45.6302839 387.863722,41.9798107 392.214511,41.9798107 C396.868139,41.9798107 399.545741,45.6908517 399.545741,50.3154574 C399.545741,50.5274448 399.545741,50.7709779 399.516719,51.0460568 L387.043533,51.0460568 C387.377918,54.451735 389.811987,56.3684543 392.580442,56.3684543 Z M397.174763,49.311041 C396.93123,46.451735 395.288328,43.9570978 392.153943,43.9570978 C389.415773,43.9570978 387.347634,46.2384858 387.043533,49.311041 L397.174763,49.311041 Z" id="Shape" fill-rule="nonzero"></path>
            <path d="M0,33.1356467 L0,1.2555205 L15.8990536,1.2555205 L15.8990536,32.8113565 C15.8990536,41.0044164 20.0353312,44.8984227 26.3634069,44.8984227 C32.7722397,44.8984227 36.9097792,41.1671924 36.9097792,33.2164038 L36.9097792,1.2555205 L52.8100946,1.2555205 L52.8100946,32.7293375 C52.8100946,50.9817035 42.3444795,59.0940063 26.2018927,59.0940063 C10.1388013,59.0940063 4.48291947e-15,50.9009464 4.48291947e-15,33.1356467 Z" id="Path"></path>
            <path d="M60.4328076,29.8107256 L60.4328076,29.6492114 C60.4328076,13.1003155 73.0876972,0.122397476 90.2864353,0.122397476 C101.885174,0.122397476 109.347634,4.98927445 114.377287,11.8839117 L102.535016,21.0511041 C99.2883281,17.0776025 95.5570978,14.3987382 90.1236593,14.3987382 C82.1728707,14.3987382 76.577918,21.2138801 76.577918,29.4876972 L76.577918,29.6504732 C76.577918,38.1678233 82.1741325,44.8176656 90.1236593,44.8176656 C96.044164,44.8176656 99.533123,42.059306 102.941325,37.9255521 L114.783596,46.3608833 C109.428391,53.7438486 102.209464,59.1772871 89.718612,59.1772871 C73.4927445,59.1747634 60.4328076,46.7634069 60.4328076,29.8107256 Z" id="Path"></path>
            <polygon id="Path" points="123.622713 1.2555205 139.360252 1.2555205 139.360252 58.0378549 123.622713 58.0378549"></polygon>
        </g>
    </g>
</svg>