<svg height="84" viewBox="0 0 84 84" width="84" xmlns="http://www.w3.org/2000/svg"><g fill="none" fill-rule="evenodd"><circle cx="32" cy="32" fill="#0b182b" r="32" transform="translate(10 10)"/><path d="m36.323 44.629 7.151 4.114-7.45 12.857a1 1 0 0 1 -1.698.051l-1.653-2.495-2.99-.178a1 1 0 0 1 -.806-1.5l7.446-12.85z" fill="#f3f5f8"/><path d="m46.571 44.629-7.152 4.114 7.451 12.857a1 1 0 0 0 1.699.051l1.653-2.495 2.99-.178a1 1 0 0 0 .805-1.5l-7.445-12.85z" fill="#f3f5f8"/><path d="m42 53.271-1.005.583-.923-.704-1.07.453-.828-.813-1.118.315-.719-.91-1.15.173-.598-.993-1.162.029-.469-1.06-1.157-.117-.332-1.11-1.132-.26-.19-1.144-1.091-.4-.044-1.157-1.033-.533.102-1.154-.957-.657.246-1.132-.867-.772.386-1.093-.763-.874.521-1.036-.647-.962.647-.963-.52-1.035.762-.874-.386-1.093.867-.772-.246-1.132.957-.658-.102-1.154 1.033-.532.044-1.158 1.091-.4.19-1.143 1.132-.26.332-1.11 1.157-.117.469-1.06 1.162.029.599-.994 1.15.174.718-.91 1.118.315.828-.814 1.07.453.923-.704 1.005.584 1.005-.584.923.704 1.07-.453.828.814 1.118-.316.719.911 1.15-.174.598.994 1.162-.03.469 1.061 1.157.117.332 1.11 1.132.26.19 1.143 1.091.4.044 1.158 1.033.532-.102 1.154.957.658-.246 1.132.867.772-.386 1.093.763.874-.521 1.035.647.963-.647.962.52 1.036-.762.874.386 1.093-.867.772.246 1.132-.957.657.102 1.154-1.033.533-.044 1.158-1.091.4-.19 1.142-1.132.26-.332 1.111-1.157.117-.469 1.06-1.162-.029-.599.993-1.15-.173-.718.91-1.118-.315-.828.813-1.07-.453-.923.704z" fill="#1d74f5"/><path d="m42 49.315-.745.433-.685-.522-.794.336-.614-.604-.83.234-.534-.675-.852.129-.444-.737-.863.021-.348-.787-.858-.086-.246-.824-.84-.193-.141-.848-.81-.296-.033-.86-.766-.395.076-.856-.71-.488.182-.84-.643-.572.287-.811-.566-.649.386-.768-.48-.714.48-.714-.386-.769.566-.648-.287-.81.643-.573-.182-.84.71-.488-.076-.857.766-.395.033-.859.81-.296.14-.848.841-.193.246-.824.858-.087.348-.786.863.021.444-.737.852.129.534-.676.83.235.614-.604.794.336.685-.522.745.432.745-.432.685.522.794-.336.614.604.83-.235.534.676.852-.129.444.737.863-.021.348.786.858.087.246.824.84.193.141.848.81.296.033.86.766.394-.076.857.71.487-.182.84.643.573-.287.81.566.65-.386.768.48.714-.48.714.386.768-.566.649.287.81-.643.573.182.84-.71.488.076.856-.766.396-.033.859-.81.296-.14.848-.841.193-.246.824-.858.086-.348.787-.863-.021-.444.737-.852-.13-.534.676-.83-.234-.614.604-.794-.336-.685.522z" fill="#f3f5f8" opacity=".187"/></g></svg>