<svg xmlns="http://www.w3.org/2000/svg" xmlns:xlink="http://www.w3.org/1999/xlink" width="398" height="300" viewBox="0 0 398 300">
    <defs>
        <path id="a" d="M.874.18h10.514v11.305H.874z"/>
    </defs>
    <g fill="none" fill-rule="evenodd">
        <path fill="#131C29" d="M238.978 71.893h86.174s-10.626-13.921-32.488-8c-38.76-15.556-53.686 8-53.686 8"/>
        <path fill="#0F1721" d="M233.717 156.213s-9.676 13.728-9.676 79.064c14.953-68.174 53.95-76.629 53.95-76.629s-22.924 16.729-37.84 77.146c6.584-24.473 30.47-35.198 57.46-37.26-44.655 20.572-48.039 64.188-48.039 64.188h-40.994c-5.658-75.332 25.139-106.509 25.139-106.509M172.21 156.213s9.666 13.728 9.666 79.064c-14.937-68.174-53.892-76.629-53.892-76.629s22.9 16.729 37.798 77.146c-6.575-24.473-30.436-35.198-57.398-37.26 44.608 20.572 47.988 64.188 47.988 64.188h41.048c5.652-75.332-25.21-106.509-25.21-106.509"/>
        <path fill="#0F1721" d="M98.93 262.722S16.204 145.468 65.335 115.396c49.13-30.071 53.33 117.34 53.33 117.34S104.46 77.605 153.098 80.817c61.848 4.085-8.399 181.904-8.399 181.904H98.93zM302.624 262.722s82.725-117.254 33.594-147.326c-49.13-30.071-53.33 117.34-53.33 117.34s14.205-155.13-34.434-151.918c-61.848 4.085 8.4 181.904 8.4 181.904h45.77z"/>
        <path fill="#1C2A3C" d="M330.552 156.213s-9.676 13.728-9.676 79.064c14.953-68.174 53.95-76.629 53.95-76.629s-22.923 16.729-37.838 77.146c6.581-24.473 30.467-35.198 57.458-37.26-44.655 20.572-48.039 64.188-48.039 64.188l-40.994-.03c-5.658-75.333 25.139-106.479 25.139-106.479M63.827 156.213s9.665 13.728 9.665 79.064C58.555 167.103 19.6 158.648 19.6 158.648s22.898 16.729 37.798 77.146C50.823 211.32 26.96 200.596 0 198.534c44.608 20.572 47.987 64.188 47.987 64.188h41.05c5.651-75.332-25.21-106.509-25.21-106.509"/>
        <path fill="#DB2626" d="M102.079 185.288c4.46-8.013 10.105-15.588 16.378-22.057-1.894-10.427-2.849-21.179-2.849-32.086 0-32.653 8.587-63.612 24.172-87.167 8.074-12.197 17.655-21.893 28.478-28.813C180.316 7.46 193.286 3.55 207.18 3.55c13.522 0 26.497 3.909 38.554 11.615 10.827 6.92 20.406 16.616 28.48 28.813 15.585 23.555 24.165 54.51 24.165 87.167 0 10.907-.954 21.657-2.845 32.086a106.545 106.545 0 0 1 16.378 22.057c21.493 42.815.505 78.321.505 78.321s-28.09-33.011-52.715-27.642c-15.174 14.77-33.473 22.773-52.89 22.773-19.05 0-37.35-8.006-52.527-22.773-24.618-5.368-52.704 27.631-52.713 27.642-.005-.01-20.986-35.513.506-78.321"/>
        <path fill="#FEFEFE" d="M249.8 209.992c-11.556 14.649-26.345 23.44-42.463 23.44-36.987 0-66.97-46.295-66.97-103.402 0-57.108 29.983-103.403 66.97-103.403 36.986 0 66.97 46.295 66.97 103.403 0 14.075-1.822 27.492-5.12 39.722l8.633 8.942a82.132 82.132 0 0 1 12.282 16.486c3.867 7.868 5.977 15.637 6.621 23.324-.79-.433-1.589-.834-2.379-1.26-16.523-8.96-31.37-11.377-44.544-7.252"/>
        <path fill="#DB2626" d="M222.987 82.706c0 8.423-6.961 15.25-15.548 15.25s-15.546-6.827-15.546-15.25 6.959-15.25 15.546-15.25 15.548 6.827 15.548 15.25m0 49.098c0 8.423-6.961 15.25-15.548 15.25s-15.546-6.827-15.546-15.25c0-8.422 6.959-15.25 15.546-15.25s15.548 6.828 15.548 15.25m0 49.098c0 8.424-6.961 15.252-15.548 15.252s-15.546-6.828-15.546-15.252c0-8.422 6.959-15.25 15.546-15.25s15.548 6.828 15.548 15.25"/>
        <path fill="#BBD8E9" d="M127.515 16.864l-4.917 2.295c3.76 9.39 10.262 15.584 14.782 19.007l2.098-1.708c-9.225-9.144-11.963-19.594-11.963-19.594"/>
        <path fill="#8A5E42" d="M144.808 35.677c-1.97-.822-3.537 1.48-4.084 2.433a43.329 43.329 0 0 1-1.84-1.724l-2.071 1.681c1.78 1.343 3.257 2.265 4.116 2.761.693-.953 2.986-3.606 3.879-5.15"/>
        <g transform="translate(120.821)">
            <mask id="b" fill="#fff">
                <use xlink:href="#a"/>
            </mask>
            <path fill="#282C46" d="M3.23 11.485s-2.633-.6-2.333-6.239C1.197-.36 8.514-.73 10.5 1.326c1.985 2.057.706 4.775-4.433 4.775-3.32 0-2.836 5.384-2.836 5.384" mask="url(#b)"/>
        </g>
        <path fill="#8A5E42" d="M124.375 9.763c-.49 0-.888-.483-.888-1.075v-.512c0-.59.399-1.075.888-1.075.49 0 .888.484.888 1.075v.512c0 .592-.399 1.075-.888 1.075"/>
        <path fill="#724E36" d="M126.152 15.976h2.665v-4.438h-2.665z"/>
        <path fill="#1E3668" d="M134.29 39.053h-14.915l-4.772 40.829h2.386l9.097-32.638 3.639 15.94-1.944 16.698h2.094l5.16-17.568z"/>
        <path fill="#323757" d="M117.003 79.882h-2.4v1.775h6.218c0-1.775-3.818-1.775-3.818-1.775M130.329 79.882h-2.4v1.775h6.218c0-1.775-3.818-1.775-3.818-1.775"/>
        <path fill="#D0E9F8" d="M127.34 15.976l-3.853 3.891c7.158 7.812 15.891 11.391 21.397 12.973l1.7-2.154c-12.59-5.375-19.245-14.71-19.245-14.71"/>
        <path fill="#8A5E42" d="M148.206 31.474a47.11 47.11 0 0 1-2.594-.996l-1.692 2.1c1.34.379 2.495.644 3.382.821h.002c1.254.25 1.98.329 1.98.329s1.22-2.044 2.631-5.318c-1.585-.136-2.894 1.603-3.709 3.064M131.151 5.327c-2.862.658-4.986.336-6.185-.002-.37.55-.591 1.2-.591 1.898V8.9c0 1.94 1.657 3.526 3.684 3.526 2.025 0 3.422-1.155 3.422-3.095V7.654c0-.698.04-1.973-.33-2.327"/>
        <path fill="#282C46" d="M126.643 7.987c0 .439.178.794.398.794.219 0 .396-.355.396-.794 0-.438-.177-.791-.396-.791-.22 0-.398.353-.398.791M129.31 7.987c0 .439.177.794.395.794.22 0 .397-.355.397-.794 0-.438-.176-.791-.397-.791-.218 0-.396.353-.396.791"/>
        <path fill="#D0E9F8" d="M127.366 14.201c-10.515 0-8.077 24.852-8.077 24.852h15.238s3.353-24.852-7.161-24.852"/>
        <path fill="#0E2345" d="M132.878 98.919h-27.277l3.147-13.822h27.277l-3.147 13.822zM71.993 246.54l3.342-14.68h27.277l-3.344 14.68H71.993zm29.873-131.218l3.344-14.683h27.277l-3.343 14.683h-27.278zm-3.733 16.402l3.342-14.682h27.277l-3.342 14.682H98.133zm-3.734 16.402l3.342-14.682h27.277l-3.342 14.682H94.399zm-3.735 16.402l3.343-14.682h27.277l-3.343 14.682H90.664zm-3.734 16.403l3.342-14.683h27.277l-3.342 14.683H86.93zm-3.734 16.403l3.342-14.683h27.277l-3.344 14.683H83.196zm23.15 18.122l-3.343 14.683H75.727l3.342-14.683h27.278zm-26.885-1.72l3.343-14.682h27.277l-3.343 14.682H79.461zm27.505-128.64h.016L66.629 262.342l1.68.38 3.292-14.46h27.277l-3.207 14.08 1.68.38 40.442-177.624h.796v-3.44h-31.623v3.44z"/>
        <path fill="#9CA0A7" d="M128.361 171.5a2.335 2.335 0 0 1-2.33-2.34 2.336 2.336 0 0 1 2.33-2.341 2.336 2.336 0 0 1 2.331 2.34 2.335 2.335 0 0 1-2.33 2.34zm75.913-29.245l-6.706-14.366 15.158-7.135c-4.38-2.984-10.158-3.655-15.296-1.236-6.286 2.958-9.667 9.608-8.79 16.167l-62.468 29.36a4.69 4.69 0 0 0-2.265 6.18 4.653 4.653 0 0 0 6.216 2.297l62.473-29.363c4.46 4.874 11.714 6.516 17.998 3.558 5.14-2.42 8.323-7.309 8.839-12.598l-15.159 7.136z"/>
        <path fill="#D0E9F8" d="M154.58 190.697s7.343-13.059 5.122-29.975l1.912-.071s5.115 15.455-1.663 31.953"/>
        <path fill="#F7A78F" d="M155.913 186.39c-2.199 0-3.998-1.935-3.998-4.301v-2.048c0-2.365 1.8-4.301 3.998-4.301 2.199 0 3.998 1.936 3.998 4.301v2.048c0 2.366-1.8 4.302-3.998 4.302"/>
        <path fill="#F7A78F" d="M151.915 183.728c-.488 0-.888-.484-.888-1.075v-.512c0-.592.4-1.076.888-1.076.489 0 .889.484.889 1.076v.512c0 .59-.4 1.075-.889 1.075M153.692 188.166h3.554v-4.438h-3.554z"/>
        <path fill="#323757" d="M160.176 260.06h2.4v1.774h-6.219c0-1.775 3.82-1.775 3.82-1.775M147.738 260.06h2.4v1.774h-6.218c0-1.775 3.818-1.775 3.818-1.775"/>
        <path fill="#F7A78F" d="M155.618 217.456h-8.145l.302 42.603h2.563l5.131-35.871 5.359 35.871h2.636v-42.603z"/>
        <path fill="#D0E9F8" d="M147.473 217.456s3.383-4.796 1.015-14.205c-1.718-6.832 3.838-15.085 7.666-15.085 8.06 0 7.29 29.29 7.29 29.29h-15.97z"/>
        <path fill="#D0E9F8" d="M143.13 169.527h-1.855s-.507 9.467 3.477 17.16c3.985 7.692 7.325 7.692 7.325 7.692l3.392-5.327s-11.012-3.696-12.34-19.525"/>
        <path fill="#620714" d="M161.507 177.56c-1.628-3.886-6.974-4.904-9.68-1.654-.507.609-.882 1.324-.985 2.15-.406 3.3 3.73 6.117-1.394 11.174-5.125 5.057.464 8.785 8.292 7.585 7.828-1.199 11.542-5.862 7.828-9.527-2.13-2.103-2.677-6.426-4.06-9.729"/>
        <path fill="#1E3668" d="M149.009 213.905h14.24s3.769 9.898 3.769 25.74h-22.21s.384-20.482 4.2-25.74"/>
        <path fill="#F7A78F" d="M159.457 156.257c-1.082.43.197 3.045.197 3.045l-.59.346 1.18 1.003 1.444-.075c0-1.92-1.149-4.748-2.23-4.32M142.438 169.527s-.824-4.224.281-4.426c1.104-.203.822 2.16.822 2.16l.379-.228-.041 2.494h-1.44z"/>
        <path fill="#620714" d="M364.802 201.156l2.716 5.649s4.36-.114 4.36-4.516c4.478-7.616-4.333-10.525-7.076-9.48a3.504 3.504 0 0 0-1.8 1.535c-.832 1.404-.66 3.19.254 4.538l1.546 2.274z"/>
        <path fill="#323757" d="M389.116 258.907v-2.398h1.777v6.213c-1.777 0-1.777-3.815-1.777-3.815"/>
        <path fill="#F48B74" d="M367.795 209.315a4.982 4.982 0 0 0-7.157-.209c-3.821 3.721-10.737 9.212-20.384 11.96l.67 1.715s15.258-1.287 26.87-13.466"/>
        <path fill="#1E3668" d="M374.932 230.77h-14.809l-17.203 6.718 3.92 23.071h3.01l-.37-18.998 15.715-2.546 4.138 23.707 18.895-3.824v-2.404l-14.336.689z"/>
        <path fill="#D0E9F8" d="M358.91 210.24l4.639 4.553s5.603-3.523 2.332-6.917c-3.27-3.395-6.97 2.363-6.97 2.363"/>
        <path fill="#D0E9F8" d="M367.47 205.917c10.514 0 8.075 24.852 8.075 24.852h-15.237s-3.354-24.852 7.162-24.852"/>
        <path fill="#323757" d="M346.738 260.947h2.4v1.775h-6.218c0-1.775 3.818-1.775 3.818-1.775"/>
        <path fill="#F7A78F" d="M371.348 204.142c.49 0 .889-.483.889-1.075v-.512c0-.591-.4-1.076-.889-1.076-.488 0-.888.485-.888 1.076v.512c0 .592.4 1.075.888 1.075"/>
        <path fill="#F48B74" d="M365.815 208.58c1.094 0 1.98-.974 1.98-2.176v-1.507c0-.417-.309-.755-.687-.755h-1.293c-.378 0-.686.338-.686.755v2.929c0 .415.308.754.686.754"/>
        <path fill="#F7A78F" d="M366.906 205.917c1.955 0 3.554-1.614 3.554-3.585v-1.705c0-1.971-1.6-3.586-3.554-3.586-1.955 0-3.553 1.615-3.553 3.586v1.705c0 1.97 1.598 3.585 3.553 3.585M369.681 207.692s-5.915 9.559-19.654 13.95c.654 1.513 0 2.027 0 2.027s13.009-1.238 23.098-12.486"/>
        <path fill="#D0E9F8" d="M364.241 210.24l4.638 4.553s5.603-3.523 2.333-6.917c-3.27-3.395-6.97 2.363-6.97 2.363"/>
        <path fill="#282C46" d="M364.732 201.48c0 .437.178.792.397.792.22 0 .398-.355.398-.792 0-.438-.178-.793-.398-.793-.219 0-.397.355-.397.793M367.398 201.48c0 .437.177.792.396.792.22 0 .398-.355.398-.792 0-.438-.178-.793-.398-.793-.219 0-.396.355-.396.793"/>
        <path fill="#0E2345" d="M335.813 262.722h20.433v-34.615h-20.433z"/>
        <path fill="#1E3668" d="M332.259 244.97h3.553v-10.65h-3.553z"/>
        <path fill="#4370B6" d="M343.808 228.107h3.554v-3.55h-3.554zM335.813 224.556h20.433v-1.775h-20.433z"/>
        <path stroke="#1E3668" stroke-width="2" d="M332.259 239.718s-18.108-1.52-23.758 9.304c-9.841 24.2-48.48-2.473-48.48-2.473s-15.61-13.315-38.811 0"/>
        <path fill="#F48B74" d="M340.056 221.893s-2.467-.021-2.467 2.294c0 2.313 2.467 2.64 2.467 1.528v-2.301h1.087l-1.087-1.52z"/>
        <path fill="#F7A78F" d="M349.829 221.893s-2.467-.021-2.467 2.294c0 2.313 2.467 2.64 2.467 1.528v-2.301h1.086l-1.086-1.52z"/>
        <path fill="#620714" d="M363.353 196.15s3.227 3.558 7.022 4.442c.698-5.266-3.019-6.365-7.022-4.442"/>
        <path fill="#1E3668" d="M224.74 245.923a3.107 3.107 0 0 0-3.465-2.704 3.107 3.107 0 1 0 .758 6.166 3.106 3.106 0 0 0 2.707-3.462"/>
        <path fill="#FEFEFE" d="M16.88 50.592h88.839s-8.821-12.473-29.52-6.87c-15.915-15.033-53.23-7.474-59.32 6.87" opacity=".07"/>
        <path fill="#FEFEFE" d="M302.054 22.19h86.174s-10.626-13.922-32.486-8.002c-38.76-15.555-53.688 8.001-53.688 8.001" opacity=".066"/>
        <path fill="#1E3668" d="M47.741 222.76v22.14l-10.428 12.389 1.75 1.637 13.182-13.012 5.117-16.655 11.871 13.812-.163 17.876h2.405l2.262-21.938-11.053-18.89z"/>
        <path fill="#6D4B35" d="M74.235 180.178c-10.029 12.287-23.597 15.458-23.597 15.458l2.164 4.956c15.534-5.749 22.711-19.126 22.711-19.126l-1.278-1.288z"/>
        <path fill="#282C46" d="M44.774 184.829s-5.66 1.28-4.282 10.527c1.376 9.246-8.274 9.118-10.12 16.001-1.846 6.884 12.013 12.103 19.603 3.026 7.59-9.077 4.381-32.228-5.201-29.554"/>
        <path fill="#D0E9F8" d="M54.685 192.604s-6.11.546-5.813 4.8c.299 4.257 7.985 1.3 7.985 1.3l-2.172-6.1z"/>
        <path fill="#795338" d="M50.638 195.983l-2.83 1.058-1.612-4.265 2.83-1.06z"/>
        <path fill="#D0E9F8" d="M49.779 195.29c-6.588-.538-6.071 8.279-3.884 15.804 1.73 5.953 1.443 11.687 1.443 11.687l14.85-2.609c-5.145-11.149-1.343-14.21-2.684-18.46-.705-2.234-2.827-5.859-9.725-6.422"/>
        <path fill="#8A5E42" d="M48.248 194.147c-1.9.703-4.038-.25-4.752-2.12l-.619-1.617c-.713-1.867.256-3.973 2.157-4.676 1.9-.702 4.038.252 4.751 2.12l.618 1.618c.715 1.868-.255 3.973-2.155 4.675"/>
        <path fill="#8A5E42" d="M43 193.422c-.422.211-.897-.077-1.056-.637l-.138-.484c-.158-.562.058-1.192.48-1.404.422-.21.897.076 1.055.637l.138.484c.159.562-.057 1.192-.479 1.404"/>
        <path fill="#323757" d="M38.427 258.898l-1.564-1.502-1.327 1.433s1.57 1.51 4.052 3.893c1.327-1.434-1.161-3.824-1.161-3.824M70.806 260.947h-2.4v1.775h6.219c0-1.775-3.819-1.775-3.819-1.775"/>
        <path fill="#6D4B35" d="M73.737 179.059s2.848-5.677 3.489-5.045c.374.368-1.006 2.52-1.006 2.52s2.25 2.595-1.249 3.644"/>
        <path fill="#8A5E42" d="M58.878 186.39l-1.271 2.216s7.137 2.1 5.86 5.875c-1.692 5.007-12.829 2.367-12.829 2.367v6.406s15.25-.12 16.77-8.108c1.25-6.574-8.53-8.755-8.53-8.755"/>
        <path fill="#282C46" d="M56.407 180.44l-4.88 3.307.916 1.32.917 1.324 4.88-3.307s8.121-5.746 17.273-4.058l-4.522-6.525-4.524-6.525c-1.71 9.047-10.06 14.464-10.06 14.464"/>
        <path fill="#282C46" d="M59.522 189.24l-.946.7-3.496-5.51.948-.702z"/>
        <path fill="#8A5E42" d="M59.409 186.34s-1.787-1.969-3.15.132c-.903.913.52 2.581 1.283 2.581.759 0 2.429-1.51 1.867-2.713"/>
        <path fill="#D0E9F8" d="M54.192 197.23s-5.867-1.333-7 3.09c-1.13 4.423 7 3.79 7 3.79v-6.88z"/>
        <path fill="#282C46" d="M42.483 191.716s3.852-1.635 4.602-6.072c-4.91-1.009-6.385 3.642-4.602 6.072M45.847 190.13c.208.384.533.613.727.509.194-.103.18-.501-.028-.888-.208-.385-.533-.612-.727-.508-.194.105-.18.5.028.886M48.512 189.241c.21.386.535.615.727.51.193-.105.18-.5-.029-.888-.208-.385-.533-.612-.727-.507-.192.104-.18.5.029.885"/>
        <path fill="#F7A78F" d="M233.489 55.03s-7.457 8.997-20.275 11.86l.464 1.453s12.541-.305 22.635-9.8M236.633 77.219h6.787l-.084 36.39h-2.114l-4.465-30.64-4.36 30.64h-2.303V77.22z"/>
        <path fill="#D0E9F8" d="M236.759 53.45c6.944-2.138 5.683 14.006 5.683 14.006h-9.9s-1.178-1.74-2.096-4.179c-.298-.79-2.041-7.257 6.313-9.828"/>
        <path fill="#1E3668" d="M232.386 67.456h10.016c3.122 7.656 4.349 16.764 4.571 26.64l-1.319.21c-6.016.952-12.15.88-18.144-.21-.415-9.905.694-19.045 4.876-26.64"/>
        <path fill="#F7A78F" d="M237.483 55.917s-3.847 11.487-15.385 19.208l1.026 1.206s12.264-5.173 18.519-18.161"/>
        <path fill="#323757" d="M235.81 42.633s-2.714-.443-4.327 2.103c-1.614 2.546 1.063 2.954-1.297 5.14-2.36 2.186.281 5.154.281 5.154s1.655-2.083 6.024-2.083h6.463s1.504-4.004-.892-5.665c-2.394-1.66-2.344-4.649-6.253-4.649"/>
        <path fill="#F48B74" d="M235.585 55.03c.892 0 1.616-.795 1.616-1.777v-2.661h-2.665v3.283c0 .638.47 1.155 1.049 1.155"/>
        <path fill="#F7A78F" d="M235.868 52.367c1.711 0 3.11-1.453 3.11-3.228v-1.534c0-1.775-1.399-3.226-3.11-3.226-1.71 0-3.11 1.451-3.11 3.226v1.534c0 1.775 1.4 3.228 3.11 3.228"/>
        <path fill="#323757" d="M241.363 113.61h2.057v1.775h-5.33c0-1.776 3.273-1.776 3.273-1.776"/>
        <path fill="#F7A78F" d="M239.866 49.704c.49 0 .888-.322.888-.717v-.341c0-.394-.399-.717-.888-.717-.49 0-.888.323-.888.717v.341c0 .395.399.717.888.717"/>
        <path fill="#323757" d="M230.702 113.61h2.057v1.775h-5.33c0-1.776 3.273-1.776 3.273-1.776"/>
        <path fill="#D0E9F8" d="M236.313 58.354l5.433 2.001s2.09-3.176-.548-4.733c-2.635-1.557-4.13.165-4.886 2.732"/>
        <path fill="#323757" d="M232.759 44.485s2.124 2.556 6.219 2.556c0-4.188-4.006-4.143-6.22-2.556"/>
        <path fill="#282C46" d="M233.29 48.817c0 .395.16.715.358.715.197 0 .357-.32.357-.715 0-.396-.16-.716-.357-.716-.199 0-.359.32-.359.716M235.954 48.817c0 .395.16.715.36.715.197 0 .357-.32.357-.715 0-.396-.16-.716-.358-.716-.199 0-.359.32-.359.716"/>
        <path fill="#F7A78F" d="M223.489 74.83s-1.354-.615-1.965 0c-.611.613-1.75 1.797-.897 2.28.853.482 1.683-.782 1.683-.782s1.033.575 1.565-.44M213.716 66.84s-1.353-.613-1.964 0c-.613.615-1.75 1.798-.897 2.28.853.483 1.683-.78 1.683-.78s1.033.575 1.565-.44"/>
        <path fill="#0E2345" d="M255.764 251.096l-2.471-10.977h20.127l2.396 10.643.03-.007.077.341h-20.16zm-7.22-121.52l2.472 10.978h-20.161l-2.47-10.977h20.16zm-22.775-11.62h20.16l2.326 10.335h-20.16l-2.326-10.334zm28.006 34.862h-20.128l-1.84-8.182h-.033l-.63-2.795h20.16l2.471 10.977zm-3.242 75.036h20.128l2.432 10.81h-20.127l-2.433-10.81zm-2.759-12.264h20.127l2.433 10.81h-20.127l-2.433-10.81zm-2.76-12.263h20.128l2.433 10.81h-20.129l-2.433-10.81zm-2.76-12.264h20.127l2.433 10.81h-20.127l-2.433-10.81zm-2.76-12.264h20.128l2.432 10.81h-20.128l-2.431-10.81zm-2.76-12.263h20.127l2.434 10.81h-20.128l-2.433-10.81zm-2.76-12.264h20.128l2.432 10.81h-20.128l-2.431-10.81zm19.298-9.636h-.033l-6.004-26.68h.01v-2.571h-23.37v2.572h.59l29.886 132.805.03-.007 2.694 11.967h1.305l-2.326-10.34h20.158l2.328 10.34h1.304l-26.572-118.086z"/>
        <path fill="#23344C" d="M23.098 262.722h374.898s2.02 21.468-83.486 21.468c-65.924 0-69.356 15.81-177.873 15.81-108.52 0-113.539-37.278-113.539-37.278"/>
    </g>
</svg>
