<svg height="32" viewBox="0 0 32 32" width="32" xmlns="http://www.w3.org/2000/svg"><g fill="none"><rect fill="#77c158" height="32" rx="7.467" width="32"/><rect height="31" rx="7.467" stroke="#5d9b41" width="31" x=".5" y=".5"/><path d="m10.395 12.21c.054-1.947 1.21-3.696 2.985-4.516l-.85-1.512c-.038-.089-.003-.193.081-.242l.136-.016.107.085.85 1.524c.738-.276 1.52-.413 2.308-.403.791-.007 1.576.144 2.308.444l.891-1.56.107-.085.136.016c.084.049.119.152.081.242l-.891 1.536c1.758.813 2.903 2.546 2.956 4.475h-11.206v.012zm0 .484v8.064c.009.742.619 1.337 1.365 1.331h8.505c.735-.007 1.33-.598 1.336-1.331v-8.064zm8.707-2.903c-.008-.264-.221-.475-.486-.484-.13-.002-.254.048-.346.139s-.142.216-.14.345c-.005.13.045.255.137.347s.218.141.349.137c.267-.004.482-.218.486-.484zm-5.184 0c0-.267-.218-.484-.486-.484s-.486.217-.486.484.218.484.486.484.486-.217.486-.484zm9.344 2.702c.692.004 1.251.561 1.255 1.25v5.161c0 .69-.562 1.25-1.255 1.25s-1.255-.56-1.255-1.25v-5.161c.004-.688.564-1.245 1.255-1.25zm-9.437 5.926c.692.004 1.251.561 1.255 1.25v5.161c0 .328-.133.642-.37.87s-.556.351-.885.34c-.334.015-.66-.105-.905-.332-.244-.228-.385-.544-.391-.877v-5.161c.004-.337.143-.659.387-.893.243-.235.571-.363.909-.356zm-5.09-5.926c.696-.002 1.263.557 1.268 1.25v5.161c0 .697-.568 1.262-1.268 1.262s-1.268-.565-1.268-1.262v-5.161c.004-.693.571-1.252 1.268-1.25zm9.545 5.926c.339-.006.666.122.909.356.243.235.383.556.387.893v5.161c0 .701-.571 1.27-1.276 1.27s-1.276-.569-1.276-1.27v-5.161c.004-.688.564-1.245 1.255-1.25z" fill="#fff"/></g></svg>