<svg height="32" viewBox="0 0 32 32" width="32" xmlns="http://www.w3.org/2000/svg" xmlns:xlink="http://www.w3.org/1999/xlink"><linearGradient id="a" x1="50%" x2="50%" y1="0%" y2="100%"><stop offset="0" stop-color="#004655"/><stop offset=".1238" stop-color="#17858b"/><stop offset=".30576" stop-color="#2abdb9"/><stop offset=".81784" stop-color="#dac0ab"/><stop offset="1" stop-color="#e9bca5"/></linearGradient><g fill="none"><rect fill="#fff" height="32" rx="7.5" width="32"/><rect height="31" rx="7.5" stroke="#ebedf0" width="31" x=".5" y=".5"/><path d="m7.202 11.045c0 .205-.127.357-.344.357-.181 0-.317-.152-.317-.357 0-.197.145-.357.335-.357.199 0 .326.161.326.357zm-.501 10.73v-8.208h.341v8.208zm11.681-5.848c0 4.138-2.328 6.019-4.876 6.019-2.603 0-4.711-2.035-4.711-5.848 0-3.916 2.181-6.019 4.894-6.019 2.658 0 4.693 2.069 4.693 5.848zm-9.241.085c0 3.138 1.541 5.575 4.382 5.575 2.86 0 4.501-2.513 4.501-5.611 0-2.873-1.314-5.495-4.314-5.495s-4.568 2.469-4.568 5.531zm10.493 4.874c.572.376 1.559.739 2.408.739 1.612 0 3.045-1.113 3.045-2.75 0-1.52-.955-2.313-2.576-2.994-1.451-.61-2.755-1.271-2.755-2.896 0-1.693 1.351-2.89 3.188-2.89.988 0 1.733.274 2.079.513l-.138.295c-.295-.205-1.091-.466-1.957-.466-1.941 0-2.787 1.447-2.787 2.513 0 1.472 1.156 1.964 2.646 2.665 1.733.838 2.651 1.576 2.651 3.184 0 1.727-1.247 3.129-3.465 3.129-.919 0-1.975-.308-2.495-.701l.155-.342z" fill="#030c1a" stroke="url(#a)" stroke-width=".6"/></g></svg>