<svg height="40" viewBox="0 0 43 40" width="43" xmlns="http://www.w3.org/2000/svg"><g fill="none"><path d="m2.006 0h38.74c1.244 0 2.253 1.009 2.253 2.253v35.493c0 1.244-1.009 2.253-2.253 2.253h-38.74c-1.108 0-2.006-.898-2.006-2.006v-35.987c0-1.108.898-2.006 2.006-2.006z" fill="#1baff9"/><g fill="#fff"><path d="m22.407 0c-4.436 10.938-4.404 19.063-4.404 19.063 0 .516.396.938.919.938h4.484c.412 0 .729.313.713.734 0 0-.665 10.344 1.774 19.266h15.104c1.108 0 2.006-.898 2.006-2.006v-35.987c0-1.108-.898-2.006-2.006-2.006h-18.589z"/><rect height="4.622" opacity=".1" rx=".805" width="1.765" x="11.071" y="10.199"/><rect height="4.622" opacity=".1" rx=".805" width="1.765" x="30.164" y="10.199"/></g><rect fill="#030c1a" height="4.622" rx=".882" width="1.765" x="11.071" y="10.04"/><rect fill="#030c1a" height="4.622" rx=".882" width="1.765" x="30.164" y="10.04"/><path d="m8.905 26.215s4.091 5.339 13.237 5.02 11.953-5.02 11.953-5.02" opacity=".1" stroke="#fff" stroke-linecap="round" stroke-width="1.61"/><path d="m8.905 26.056s4.091 5.339 13.237 5.02 11.953-5.02 11.953-5.02" stroke="#030c1a" stroke-linecap="round" stroke-width="1.61"/></g></svg>