<svg xmlns="http://www.w3.org/2000/svg" xmlns:xlink="http://www.w3.org/1999/xlink" width="1120" height="486" viewBox="0 0 1120 486">
    <defs>
        <rect id="a" width="1120" height="486" rx="2"/>
        <path id="c" d="M218.558.132l-1.955 126.657c-34.58-7.766-70.824-7.882-105.451-.336-19.599 4.27-38.931 10.99-58.98 11.197-15.355.158-30.466-3.526-45.388-7.187-1.783-.438-3.659-.926-4.969-2.223-2.735-2.709-1.68-7.36.003-10.834C12.68 94.981 39.048 85.581 63.171 80.1c24.124-5.482 50.481-10.177 67.258-28.515 5.998-6.554 10.722-14.813 18.673-18.71 9.284-4.55 20.915-2.042 29.968-7.045 7.489-4.14 11.537-12.445 17.103-18.981"/>
        <linearGradient id="d" x1="-10.295%" x2="73.165%" y1="65.517%" y2="12.498%">
            <stop offset="0%" stop-color="#FFF" stop-opacity="0"/>
            <stop offset="100%" stop-color="#1D74F5"/>
        </linearGradient>
        <path id="f" d="M.28 17.256c8.06-5.348 27.637-5.348 27.637-5.348C41.275 4.236 66.84 3.306 66.84 3.306c10.594-5.347 27.637-2.092 37.54 0 9.904 2.092 84.294 8.137 84.294 8.137s-23.261-.697-33.164 3.255c-9.904 3.952-35.907 3.952-35.907 3.952-8.499 4.883-13.84 4.418-19.368 4.418-5.528 0-7.14 1.395-13.819 2.79-6.679 1.395-20.267-1.86-28.098-3.487"/>
        <path id="g" d="M.27 31.054c14.81-9.824 50.776-9.824 50.776-9.824 24.542-14.096 71.51-15.804 71.51-15.804 19.464-9.824 50.775-3.844 68.97 0s154.866 14.95 154.866 14.95-42.736-1.281-60.93 5.98c-18.195 7.261-65.968 7.261-65.968 7.261-15.616 8.97-25.43 8.116-35.585 8.116-10.154 0-13.116 2.563-25.387 5.126-12.271 2.562-37.236-3.418-51.622-6.407"/>
        <path id="i" d="M154.682 14.062S113.52 16.92 107.1 18.255c-6.42 1.334-17.561 4.003-23.037 2.86-5.476-1.144-6.798-2.288-11.33-2.288s-8.91.38-15.88-3.622c0 0-21.318 0-29.437-3.24C19.295 8.725.224 9.296.224 9.296s60.99-4.956 69.11-6.671c8.12-1.716 22.092-4.384 30.778 0 0 0 20.96.762 31.912 7.053"/>
        <path id="k" d="M.332 9.524C4.802 6.56 15.654 6.56 15.654 6.56c7.405-4.254 21.577-4.77 21.577-4.77 5.874-2.964 15.322-1.16 20.812 0 5.49 1.16 46.73 4.512 46.73 4.512s-12.895-.387-18.385 1.805c-5.49 2.19-19.906 2.19-19.906 2.19-4.712 2.707-7.673 2.45-10.737 2.45-3.065 0-3.958.773-7.661 1.546-3.702.773-11.236-1.031-15.577-1.933"/>
        <path id="l" d="M839.028 89.826c4.01 2.63 7.878 7.935 5.051 11.83-1.25 1.72-3.421 2.436-5.45 3.037a466.169 466.169 0 0 1-136.337 19.161c-24.12-.215-48.266-2.304-72.328-.619-44.68 3.13-88.675 19.223-133.213 14.46-3.414-.366-6.928-.893-9.85-2.713-7.26-4.523-7.428-13.58-4.943-22.432-39.072 24.22-89.622 32.184-138.236 37.596a2045.538 2045.538 0 0 1-210.504 12.473c-27.004.207-55.602-.488-78.42-12.437-29.4-15.398-41.667-45.21-51.888-72.728C-.272 68.888-2.558 57.82 6.14 52.48l-2.638 2.597c15.362-13.894 32.975-28.74 55.664-30.237 11.122-.733 22.302 1.924 33.396.944 17.587-1.553 31.926-11.779 47.356-18.93C155.348-.3 176.694-3.88 189.278 6.4c3.982 3.252 6.664 7.633 11.352 10.16 5.464 2.945 12.45 2.77 18.846 3.82 21.955 3.608 35.595 21.085 51.542 34.08 0 0 12.84 11.542 34.125 17.494.273.076.41-.324.147-.43-5.092-2.055-12.674-5.973-13.483-11.329a1.98 1.98 0 0 1 1.15-2.097c6.503-2.908 19.309-7.305 25.475-8.592 8.478-1.77 17.497.483 26.132-.652 11.27-1.483 20.151-8.381 29.513-13.78 9.361-5.398 21.88-9.516 31.887-4.978 4.127 1.871 7.232 5 11.263 7.01 17.575 8.765 44.905-6.305 59.108 5.949 5.171 4.462 6.46 11.314 11.727 15.7 3.465 2.886 8.287 4.385 12.008 7.045a18.158 18.158 0 0 1 3.397 3.146l.217-.41-1.485-1.39c14.63 12.84 37.024 7.9 55.416 1.711 18.391-6.189 39.958-12.548 55.954-1.493 2.939 2.032 5.643 4.64 9.093 5.532 5.49 1.42 10.94-1.86 16.303-3.71 19.9-6.857 41.501 6.072 62.38 3.54 17.812-2.16 34.59-15.465 51.993-11.062 7.356 1.861 13.564 6.708 20.41 10.004"/>
        <path id="n" d="M154.8 41.31c-25.182-8.996-52.628-8.08-79.321-7.056-5.158.198-10.418.415-15.26 2.224-3.345 1.251-6.37 3.22-9.495 4.958C35.52 49.901 17.43 52.964.32 49.97l33.457-20.764c3.655-2.269 7.365-4.582 10.238-7.8 2.712-3.035 4.563-6.75 7.068-9.962 7.654-9.814 21.72-13.947 33.395-9.814 0 0 7.594 2.535 13.62 8.956 6.026 6.42 19.75 19.398 23.433 20.343"/>
        <path id="p" d="M56.412 24.61c-9.487-1.253-19.013 1.197-28.41 3.013-1.088.21-2.22.411-3.29.123-1.462-.395-2.528-1.615-3.682-2.602-4.292-3.671-10.378-4.375-15.978-3.84-.758.073-1.571.154-2.236-.22-.513-.288-.854-.806-1.134-1.326C-.762 15.214.374 9.202 3.822 5.38 7.272 1.56 12.65-.157 17.757.212c5.108.37 9.946 2.645 14.046 5.741 4.38 3.306 8 7.525 12.192 11.07s9.258 6.494 14.726 6.49"/>
        <path id="r" d="M.346.273h5.857C9.946 101.79 44.813 162.17 44.813 162.17 4.953 132.352.346.273.346.273z"/>
        <path id="t" d="M.048 5.391c6.698 3.735 9.226 3.08 24.128-3.21 14.9-6.29 19.106 3.735 19.106 3.735 3.546 6.182 17.22 3.727 17.22 3.727 8.13-1.972 15.846 5.496 15.846 5.496s-6.645-4.404-16.873-.94C49.248 17.665 44.71 7.605 34.133 5.392c-10.578-2.212-10.325 18.25-20.65 17.776"/>
        <path id="v" d="M62.236 35.142S59.382 16.392 48.534 18.7c-10.848 2.305-19.983-3.145-21.696-6.184C25.125 9.477.322.292.322.292s26.103 5.6 30.958 6.43c4.854.828 11.969-2.763 13.61.828 1.643 3.591.274 3.867 4.105 6.63"/>
        <path id="x" d="M.42.15s-3.157 101.292 10.468 124.147L.42.15z"/>
        <path id="z" d="M.275 67.087C10.954 55.674 25.786.272 25.786.272 56.57 51.602 47.62 135.115 47.62 135.115"/>
        <linearGradient id="A" x1="10.066%" x2="43.197%" y1="53.991%" y2="-8.265%">
            <stop offset="0%" stop-color="#FFF" stop-opacity="0"/>
            <stop offset="100%" stop-color="#7E9EB6"/>
        </linearGradient>
        <path id="C" d="M122.634 40.876c-5.962 6.578 0 24.307 0 24.307s-12.174-3.308-22.942-4.68c-10.767-1.372-18.785-1.425-20.631-7.95-1.848-6.527-14.777-6.527-31.4-13.914a54.184 54.184 0 0 1-3.45-1.679C35.517 34.504.148 2.115.148 2.115L3.044.036c1.935 5.067 13.414 12.47 23.202 18.033a50.15 50.15 0 0 0 21.137 6.408c19.52-1.409 27.195 4.334 27.195 4.334 10.868 8.422 19.482 9.828 19.482 9.828"/>
        <path id="E" d="M122.634 40.876c-5.962 6.578 0 24.307 0 24.307s-12.174-3.308-22.942-4.68c-10.767-1.372-18.785-1.425-20.631-7.95-1.848-6.527-14.777-6.527-31.4-13.914a54.184 54.184 0 0 1-3.45-1.679C35.517 34.504.148 2.115.148 2.115L3.044.036c1.935 5.067 13.414 12.47 23.202 18.033a50.149 50.149 0 0 0 21.137 6.408c19.52-1.409 27.195 4.334 27.195 4.334 10.868 8.421 19.482 9.828 19.482 9.828"/>
    </defs>
    <g fill="none" fill-rule="evenodd">
        <mask id="b" fill="#fff">
            <use xlink:href="#a"/>
        </mask>
        <use fill="#1A69F3" xlink:href="#a"/>
        <g mask="url(#b)">
            <path fill="#1D74F5" d="M-8 505.154h1137.163V-168H-8z"/>
            <g transform="translate(909.947 304.868)">
                <mask id="e" fill="#fff">
                    <use xlink:href="#c"/>
                </mask>
                <path fill="url(#d)" d="M218.558.132c-7.06-4.847-16.82.18-22.385 6.716-5.566 6.536-9.614 14.841-17.103 18.98-9.053 5.004-20.684 2.496-29.968 7.046-7.951 3.897-12.675 12.156-18.673 18.71C113.652 69.922 87.295 74.617 63.171 80.1 39.047 85.581 12.68 94.981 1.818 117.406c-1.682 3.475-2.738 8.125-.003 10.834 1.31 1.297 3.186 1.785 4.97 2.223 14.921 3.66 30.032 7.345 45.388 7.187 20.048-.206 39.38-6.926 58.979-11.197 34.627-7.546 70.872-7.43 105.451.336" mask="url(#e)"/>
            </g>
            <path fill="#E3CEC8" d="M1085.08 130.959c0 .667-.535 1.208-1.197 1.208a1.203 1.203 0 0 1-1.197-1.208c0-.668.536-1.208 1.197-1.208.662 0 1.197.54 1.197 1.208M102.138 44.952c0 .668-.535 1.209-1.197 1.209a1.203 1.203 0 0 1-1.197-1.209c0-.667.536-1.208 1.197-1.208.662 0 1.197.541 1.197 1.208"/>
            <g transform="translate(649.028 296.215)">
                <mask id="h" fill="#fff">
                    <use xlink:href="#g"/>
                </mask>
                <path fill="url(#d)" d="M.27 31.054s92.243 6.408 106.63 9.398c14.386 2.99 39.35 8.97 51.622 6.407 12.27-2.563 15.233-5.126 25.387-5.126 10.156 0 19.97.854 35.585-8.116 0 0 47.773 0 65.967-7.261 18.195-7.261 60.931-5.98 60.931-5.98S209.721 9.27 191.526 5.426c-18.195-3.844-49.506-9.824-68.97 0 0 0-46.968 1.708-71.51 15.804 0 0-35.965 0-50.775 9.824" mask="url(#h)" opacity=".463"/>
            </g>
            <g transform="translate(884.722 138.796)">
                <mask id="j" fill="#fff">
                    <use xlink:href="#i"/>
                </mask>
                <path fill="url(#d)" d="M154.682 14.062S113.52 16.92 107.1 18.255c-6.42 1.334-17.561 4.003-23.037 2.86-5.476-1.144-6.798-2.288-11.33-2.288s-8.91.38-15.88-3.622c0 0-21.318 0-29.437-3.24C19.295 8.725.224 9.296.224 9.296s60.99-4.956 69.11-6.671c8.12-1.716 22.092-4.384 30.778 0 0 0 20.96.762 31.912 7.053 0 0 16.05 0 22.658 4.384" mask="url(#j)" opacity=".463"/>
            </g>
            <path fill="#E3CEC8" d="M302.7 318.785c0 .667-.536 1.209-1.197 1.209a1.203 1.203 0 0 1-1.197-1.209c0-.667.536-1.208 1.197-1.208s1.197.54 1.197 1.208M781.001 248.288c0 .667-.536 1.209-1.197 1.209a1.203 1.203 0 0 1-1.197-1.209c0-.667.536-1.208 1.197-1.208s1.197.541 1.197 1.208M591.625 354.879c0 .667-.536 1.208-1.197 1.208a1.203 1.203 0 0 1-1.197-1.208c0-.668.535-1.209 1.197-1.209.66 0 1.197.541 1.197 1.209M57.88 389.164c0 .667-.536 1.209-1.197 1.209a1.203 1.203 0 0 1-1.197-1.209c0-.667.536-1.208 1.197-1.208.66 0 1.197.541 1.197 1.208M677.403.274c0 .667-.535 1.209-1.197 1.209A1.203 1.203 0 0 1 675.01.274c0-.667.536-1.208 1.197-1.208.662 0 1.197.541 1.197 1.208M519.261 65.639c0 .667-.536 1.208-1.197 1.208a1.203 1.203 0 0 1-1.197-1.208c0-.667.536-1.209 1.197-1.209s1.197.542 1.197 1.209M336.15 116.053c0 .667-.536 1.209-1.198 1.209a1.203 1.203 0 0 1-1.197-1.209c0-.667.536-1.208 1.197-1.208.662 0 1.197.54 1.197 1.208M487.306 64.43c0 .668-.536 1.209-1.197 1.209s-1.197-.541-1.197-1.209c0-.667.536-1.208 1.197-1.208s1.197.541 1.197 1.208"/>
            <path fill="#7F9EB7" d="M1070.264 318.276s2.485 2.136 2.917 2.364c0 0 1.438-1.617 2.342-1.97 0 0 .74-.25 1.479.02 0 0-.637.187-1.007.768-.37.58-1.068 1.514-1.335 1.742 0 0 .598.16.87.621a.014.014 0 0 1-.011.022h-.768c-.11 0-.217.016-.322.05-.315.1-1.082.313-1.762.282 0 0-1.25.245-1.83.256a.212.212 0 0 1-.213-.176.213.213 0 0 1 .14-.24c.391-.135 1.286-.496.896-.856 0 0-1.294-1.349-1.396-1.888-.103-.54 0-.995 0-.995M1081.656 324.983s1.627-1.311 1.91-1.452c0 0 .941.994 1.533 1.21 0 0 .485.153.969-.013 0 0-.417-.114-.66-.47-.242-.357-.7-.93-.874-1.07 0 0 .392-.1.57-.382.004-.006 0-.013-.008-.013h-.502a.745.745 0 0 1-.21-.03c-.208-.062-.71-.194-1.155-.174 0 0-.818-.15-1.198-.158a.137.137 0 0 0-.139.109.13.13 0 0 0 .091.147c.256.083.843.304.587.526 0 0-.847.828-.914 1.16a1.56 1.56 0 0 0 0 .61M1089.906 315.35s-1.3.736-1.515.803c0 0-.552-.811-.945-1.033 0 0-.324-.164-.685-.104 0 0 .281.13.412.41.13.28.388.738.495.857 0 0-.287.024-.446.204-.003.003-.001.009.004.01l.355.058c.05.008.1.024.145.046.14.067.479.219.795.256 0 0 .56.202.829.25a.098.098 0 0 0 .11-.06.094.094 0 0 0-.047-.114c-.172-.088-.56-.313-.355-.44 0 0 .693-.486.778-.712.085-.226.07-.432.07-.432"/>
            <path fill="#4677B1" d="M1073.18 320.64s.905.456 1.48.56c0 0 .562-.605.949-1.174l-2.428.614z"/>
            <g transform="translate(-7.212 331.723)">
                <mask id="m" fill="#fff">
                    <use xlink:href="#l"/>
                </mask>
                <path fill="#F8F9FA" d="M839.028 89.826c-19.05-12.498-44.775-8.283-65.28-18.157-6.846-3.296-13.054-8.143-20.41-10.004-17.402-4.403-34.18 8.903-51.994 11.062-20.878 2.532-42.478-10.397-62.379-3.54-5.364 1.85-10.812 5.13-16.303 3.71-3.45-.892-6.154-3.5-9.093-5.532-15.996-11.055-37.563-4.696-55.954 1.493-18.392 6.19-40.786 11.129-55.416-1.712l1.485 1.39-.217.411a18.158 18.158 0 0 0-3.397-3.146c-3.721-2.66-8.543-4.159-12.008-7.045-5.266-4.386-6.556-11.238-11.727-15.7-14.203-12.254-41.533 2.816-59.108-5.948-4.03-2.01-7.136-5.14-11.263-7.011-10.007-4.538-22.526-.42-31.887 4.978-9.362 5.399-18.243 12.297-29.513 13.78-8.635 1.135-17.654-1.118-26.132.652-6.166 1.287-18.972 5.684-25.475 8.592a1.98 1.98 0 0 0-1.15 2.097c.809 5.356 8.39 9.274 13.483 11.328.263.107.126.507-.147.43-21.284-5.951-34.125-17.493-34.125-17.493-15.947-12.995-29.587-30.472-51.542-34.08-6.396-1.05-13.382-.875-18.846-3.82-4.688-2.527-7.37-6.908-11.352-10.16-12.584-10.281-33.93-6.7-49.36.452-15.43 7.151-29.77 17.377-47.356 18.93-11.094.98-22.274-1.677-33.396-.944-22.69 1.496-40.302 16.343-55.664 30.237L6.14 52.48c-8.698 5.34-6.412 16.41-3.23 24.975 10.22 27.518 22.487 57.33 51.889 72.728 22.817 11.95 51.415 12.644 78.42 12.437 70.39-.539 140.738-4.707 210.503-12.473 48.614-5.412 99.164-13.375 138.236-37.596-2.485 8.853-2.317 17.91 4.943 22.432 2.922 1.82 6.436 2.347 9.85 2.712 44.538 4.764 88.533-11.33 133.213-14.459 24.062-1.685 48.208.404 72.328.62 46.048.409 92.15-6.07 136.337-19.162 2.029-.601 4.2-1.316 5.45-3.038 2.827-3.894-1.042-9.199-5.051-11.83" mask="url(#m)"/>
            </g>
            <path fill="#FFF" d="M729.409 182.746s4.146 3.562 4.865 3.942c0 0 2.398-2.697 3.906-3.285 0 0 1.233-.416 2.467.034 0 0-1.063.312-1.68 1.28-.616.968-1.781 2.525-2.226 2.905 0 0 .997.268 1.452 1.036.01.015-.002.036-.02.036h-1.28c-.182 0-.363.028-.537.083-.527.167-1.804.524-2.939.47 0 0-2.083.41-3.052.429a.355.355 0 0 1-.355-.295.356.356 0 0 1 .233-.399c.653-.226 2.146-.827 1.496-1.429 0 0-2.159-2.248-2.33-3.147-.171-.9 0-1.66 0-1.66"/>
            <path fill="#1D74F5" d="M734.274 186.688s1.507.76 2.467.934c0 0 .938-1.009 1.582-1.957l-4.049 1.023z"/>
            <path fill="#FFF" d="M770.105 160.428s-2.22.134-2.797.626c0 0 1.465 4.48 1.687 4.884.222.402.976 2.015 2.396 2.822 0 0-3.372.672-5.591-1.882 0 0-2.44-4.569-3.106-4.658-.666-.09-3.151 1.075-4.438-1.076 0 0-.443-1.478.976-1.523 1.42-.044 2.84-.224 2.84-.224s.089-.403-.177-1.164c-.16-.458-.57-1.536-.88-2.698a8.333 8.333 0 0 1 .039-4.502c.16-.541.374-1.065.66-1.423 0 0 4.008 8.715 4.607 9.337 0 0 2.907-.22 3.784 1.48"/>
            <path fill="#1D74F5" d="M767.309 161.055s-2.392.934-4.615 1.164c0 0 .317.197.476.394 0 0 3.402.977 4.98.973l-.841-2.531z"/>
            <path fill="#FFF" d="M944.998 437.643c1.105 9.97-4.642 19.52-14.074 22.677-3.677 1.23-7.47 1.482-11.458.195l-.5-.16c-11.618-3.691-19.026-18.219-18.484-30.502"/>
            <path fill="#FFF" d="M1125.908 415.503c-2.951-1.496-6.332-1.767-9.618-2.013l-31.576-2.357c-2.648-.198-5.37-.415-7.757-1.601-2.379-1.182-4.255-3.248-6.646-4.403-7.792-3.766-18.726 2.91-24.992-3.131-1.36-1.312-2.242-3.061-3.555-4.42-5.143-5.325-13.902-2.638-20.531.545-6.587 3.162-14.945 6.312-20.576 1.662a39.056 39.056 0 0 1-1.595-3.44c-24.538-60.471-25.9-136.61-25.9-136.61H961.06s-2.3 100.089-38.61 161.898c-36.31-61.81-38.61-161.898-38.61-161.898h-11.715s-1.948 84.804-30.576 146.496l-.103.22c-5.298 11.27-18.16 16.72-29.867 12.724-4.882-1.668-9.868-2.716-15.23-1.501-5.135 1.163-10.33 2.332-15.591 2.216-21.363-.468-42.705-21.491-61.308-10.878-4.15 2.368-7.519 6.157-12.031 7.712-10.022 3.452-20.654-5.384-31.107-3.675-5.88.962-11.017 5.199-16.973 5.343-4.307.104-8.33-1.955-12.28-3.69-14.44-6.34-31.562-8.693-45.75-1.8-3.002 1.46-5.784 3.423-8.24 5.749-5.481 5.188-12.84 7.8-20.343 7.422l-.134-.007c-8.788-.418-18.182 1.37-25.978-2.745-3.715-1.961-6.688-5.109-10.29-7.275-13.057-7.855-30.584-1.168-44.555-7.21-8.905-3.852-21.324-14.888-29.874-19.485-12.574-6.763-21.86-1.475-35.114 3.8-13.255 5.274-25.705 12.922-39.638 15.923-8.952 1.929-18.499 1.941-26.672 6.101-8.106 4.126-13.766 11.774-20.469 17.954l-.046.042a22.08 22.08 0 0 1-9.496 5.155c-11.033 2.814-22.206 4.489-33.603 4.21-15.092-.367-29.92-4.195-44.997-4.962-10.42-.529-20.826.407-31.22 1.737-8.657 1.107-17.427.103-25.674-2.775a57.245 57.245 0 0 0-.979-.333c-11.313-3.745-23.595-5.443-33.44-12.202-9.499-6.523-15.629-17.049-24.727-24.13-20.418-15.889-50.264-11.016-73.346-22.61-12.147-6.101-21.735-16.445-33.587-23.113-10.897-6.132-25.737-8.322-35.374-.969l-1.43 131.12v20.667H.316a654.336 654.336 0 0 0 5.065 11.788c6.41 14.522 15.689 30.633 31.28 32.885 6.707.968 13.463-.917 19.963-2.845 39.44-11.7 90.917 10.57 128.783-5.582l665.167-8.926 7.59-18.206 19.819 4.39 19.82-4.39h49.295l19.82 4.39 33.74 19.171 128.857-32.675-.379-48.735c1.573-1.272 2.901-2.786 3.799-4.635 1.28-2.638 1.52-5.658 1.739-8.593.761-10.237.243-22.931-8.766-27.5"/>
            <g transform="translate(48.362 400.372)">
                <mask id="o" fill="#fff">
                    <use xlink:href="#n"/>
                </mask>
                <path d="M154.8 41.31c-25.182-8.996-52.628-8.08-79.321-7.056-5.158.198-10.418.415-15.26 2.224-3.345 1.251-6.37 3.22-9.495 4.958C35.52 49.901 17.43 52.964.32 49.97l33.457-20.764c3.655-2.269 7.365-4.582 10.238-7.8 2.712-3.035 4.563-6.75 7.068-9.962 7.654-9.814 21.72-13.947 33.395-9.814 0 0 7.594 2.535 13.62 8.956 6.026 6.42 19.75 19.398 23.433 20.343" mask="url(#o)"/>
            </g>
            <g transform="translate(10.524 354.212)">
                <mask id="q" fill="#fff">
                    <use xlink:href="#p"/>
                </mask>
                <path d="M56.412 24.61c-9.487-1.253-19.013 1.197-28.41 3.013-1.088.21-2.22.411-3.29.123-1.462-.395-2.528-1.615-3.682-2.602-4.292-3.671-10.378-4.375-15.978-3.84-.758.073-1.571.154-2.236-.22-.513-.288-.854-.806-1.134-1.326C-.762 15.214.374 9.202 3.822 5.38 7.272 1.56 12.65-.157 17.757.212c5.108.37 9.946 2.645 14.046 5.741 4.38 3.306 8 7.525 12.192 11.07s9.258 6.494 14.726 6.49" mask="url(#q)"/>
            </g>
            <g transform="translate(877.628 259.523)">
                <mask id="s" fill="#fff">
                    <use xlink:href="#r"/>
                </mask>
                <path d="M.346.273S4.954 132.352 44.813 162.17c0 0-34.867-60.381-38.61-161.897H.346z" mask="url(#s)"/>
            </g>
            <g transform="translate(1000.599 394.454)">
                <mask id="u" fill="#fff">
                    <use xlink:href="#t"/>
                </mask>
                <path d="M.048 5.391s3.11 17.302 13.435 17.776c10.325.474 10.072-19.988 20.65-17.776C44.71 7.604 49.248 17.664 59.475 14.2c10.228-3.465 16.873.939 16.873.939S68.633 7.67 60.502 9.643c0 0-13.674 2.455-17.22-3.727 0 0-4.205-10.025-19.106-3.735C9.274 8.471 6.746 9.126.048 5.391" mask="url(#u)"/>
            </g>
            <g transform="translate(767.663 417.337)">
                <mask id="w" fill="#fff">
                    <use xlink:href="#v"/>
                </mask>
                <path d="M62.236 35.142S59.382 16.392 48.534 18.7c-10.848 2.305-19.983-3.145-21.696-6.184C25.125 9.477.322.292.322.292s26.103 5.6 30.958 6.43c4.854.828 11.969-2.763 13.61.828 1.643 3.591.274 3.867 4.105 6.63 3.831 2.762 13.622 7.119 13.241 20.962" mask="url(#w)"/>
            </g>
            <g transform="translate(966.703 266.625)">
                <mask id="y" fill="#fff">
                    <use xlink:href="#x"/>
                </mask>
                <path d="M.42.15s-3.157 101.292 10.468 124.147L.42.15z" mask="url(#y)"/>
            </g>
            <g transform="translate(922.166 354.606)">
                <mask id="B" fill="#fff">
                    <use xlink:href="#z"/>
                </mask>
                <path fill="url(#A)" d="M.275 67.087S21.53 119.81 47.62 135.115c0 0 8.95-83.513-21.833-134.843 0 0-14.832 55.402-25.51 66.815" mask="url(#B)" opacity=".279"/>
            </g>
            <path fill="#FFF" d="M539.763 339.67s-1.617 68.59-19.92 79.823l44.594-7.931s-21.006-14.128-18.984-71.86l-5.69-.032z"/>
            <path fill="#FFF" d="M583.65 339.64s1.838 59.824-19.214 71.922c0 0 23.618 29.004 47.236 22.362 0 0-27.134-52.885-22.342-94.285"/>
            <g transform="translate(564.288 409.447)">
                <mask id="D" fill="#fff">
                    <use xlink:href="#C"/>
                </mask>
                <path d="M122.634 40.876s-7.751-2.766-28.574-2.237c0 0-8.614-1.406-19.482-9.828 0 0-7.675-5.743-27.195-4.334l-.129-.01a50.15 50.15 0 0 1-21.008-6.398C16.458 12.506 4.98 5.103 3.044.036L.148 2.116s35.37 32.388 44.063 34.844a54.184 54.184 0 0 0 3.45 1.679c16.623 7.387 29.552 7.387 31.4 13.913 1.846 6.526 9.864 6.579 20.631 7.95 10.768 1.373 22.942 4.681 22.942 4.681s-5.962-17.73 0-24.307" mask="url(#D)"/>
            </g>
            <g transform="translate(223.753 426.017)">
                <mask id="F" fill="#fff">
                    <use xlink:href="#E"/>
                </mask>
                <path d="M122.634 40.876s-7.751-2.766-28.574-2.237c0 0-8.614-1.407-19.482-9.828 0 0-7.675-5.743-27.195-4.334l-.129-.01a50.149 50.149 0 0 1-21.008-6.398C16.458 12.506 4.98 5.103 3.044.036L.148 2.116s35.37 32.388 44.063 34.844a54.184 54.184 0 0 0 3.45 1.679c16.623 7.387 29.552 7.387 31.4 13.913 1.846 6.526 9.864 6.579 20.631 7.95 10.768 1.373 22.942 4.681 22.942 4.681s-5.962-17.73 0-24.307" mask="url(#F)"/>
            </g>
            <path fill="#FFF" d="M519.661 419.792l31.744-10.309 13.032 2.079 16.733 15.58-21.86 6.143zM-7.814 548.664v-62.728h1135.5v62.728"/>
            <path fill="#E3CEC8" d="M871.724 66.847c0 .667-.536 1.208-1.197 1.208a1.203 1.203 0 0 1-1.197-1.208c0-.667.536-1.208 1.197-1.208.66 0 1.197.54 1.197 1.208"/>
            <path fill="#384A66" d="M972.922 259.773c13.206-36.943-5.799-70.093-5.799-70.093s-19.004 33.15-5.797 70.093l.179.04c3.703.805 7.534.805 11.238 0l.179-.04zM882.863 224.76s0-23.576 21.33-50.629c6.182-7.84 4.511 39.824 4.511 39.824s-15.568.395-22.876 22.808l-2.965-12.003z"/>
            <path fill="#4EB4F9" d="M882.863 224.76s0-23.576 21.33-50.629c6.182-7.84 4.511 39.824 4.511 39.824s-15.568.395-22.876 22.808l-2.965-12.003z"/>
            <path fill="#384A66" d="M962.176 224.76s0-23.576-21.33-50.629c-6.182-7.84-4.511 39.824-4.511 39.824s15.568.395 22.875 22.808l2.966-12.003z"/>
            <path fill="#4EB4F9" d="M962.176 224.76s0-23.576-21.33-50.629c-6.182-7.84-4.511 39.824-4.511 39.824s15.568.395 22.875 22.808l2.966-12.003z"/>
            <path fill="#384A66" d="M883.658 259.773c13.207-36.943-5.798-70.093-5.798-70.093s-19.005 33.15-5.798 70.093c3.822.83 7.775.83 11.596 0"/>
            <path fill="#4EB4F9" d="M883.834 259.773c13.35-36.943-5.86-70.093-5.86-70.093s-19.21 33.15-5.861 70.093c3.863.83 7.859.83 11.721 0M934.224 246.472c24.407-99.545-5.558-189.755-10.933-204.638-.273-.752-1.326-.752-1.597 0-5.376 14.883-35.342 105.093-10.934 204.638a38.804 38.804 0 0 0 23.464 0M972.922 259.773c13.206-36.943-5.799-70.093-5.799-70.093s-19.004 33.15-5.797 70.093l.179.04c3.703.805 7.534.805 11.238 0l.179-.04z"/>
            <path fill="#FFF" d="M967.008 189.778s5.124 18.149 3.941 22.883c-1.182 4.735.789 9.864 1.183 13.809.394 3.945-3.942 11.047-2.365 16.57 1.576 5.524-.185 16.757-.185 16.757l3.58-.062s1.764-.777 3.5-11.076c1.926-11.436 1.555-23.133-.89-34.469-1.725-7.99-4.475-17.255-8.764-24.412M877.539 189.778s5.123 18.149 3.941 22.883c-1.182 4.735.788 9.864 1.182 13.809.395 3.945-3.941 11.047-2.364 16.57 1.576 5.524-.185 16.757-.185 16.757l3.722-.024s1.621-.815 3.357-11.114c1.927-11.436 1.556-23.133-.89-34.469-1.724-7.99-4.474-17.255-8.763-24.412M943.484 177.604l-1.09 10.108s2.932-1.32 5.837 3.128c2.905 4.447.683 5.13 2.905 8.039 2.221 2.907 5.06 3.69 5.52 6.55.46 2.857 2.896 4.312 2.896 4.312s-4.604-17.716-16.068-32.137"/>
            <path fill="#FFF" d="M923.29 41.27c-.64 0-1.123.583-1.002 1.214.773 4.045 3.185 17.15 3.185 23.155 0 7.15 6.2 15.427 5.787 20.393-.413 4.965-3.72 9.931-1.654 18.622 2.068 8.69 7.258 10.345 6.523 20.69-.735 10.346-5.696 18.737-3.216 24.266 2.481 5.53 2.852 13.806 3.287 21.255.434 7.448-1.371 19.665-2.146 24.515-.775 4.85.97 12.416-.388 16.296-1.356 3.88-2.52 13.579-1.938 17.265.582 3.686-1.356 6.014-1.744 10.282a260.212 260.212 0 0 1-.934 8.506l.83-.098a15.485 15.485 0 0 0 3.737-.925l.607-.234s10.357-40.665 9.26-68.867c0 0 1.076-45.348-5.151-75.671 0 0-9.333-51.25-15.042-60.664"/>
            <path fill="#1D74F5" d="M901.312 177.937s.947 29.305 3.461 37.521c0 0-3.934.77-5.816 2.168 0 0-.548-5.354.792-9.043 1.34-3.69-1.47-5.199-.903-8.888.568-3.689 2.243-6.782 1.573-10.014-.67-3.233-1.987-7.938.893-11.744M959.552 209.74s-2.88 16.305-2.87 20.71c0 0-2.266-4.233-3.35-5.662-1.084-1.43 1.985-4.692 1.985-4.692s.886-1.165 1.009-2.944c.122-1.779 2.303-4.286 2.303-5.175 0-.89.923-2.237.923-2.237M869.193 249.594s8.428 1.872 17.837 0l.313-1.865s-7.934 1.979-18.543 0l.393 1.865z"/>
            <path fill="#1D8CFC" d="M887.036 249.594l.001-.004.224-1.335c.029-.174.054-.349.082-.524-.077.019-2.489.606-6.39.81.01.6.007 1.205-.005 1.81a43.705 43.705 0 0 0 6.088-.757"/>
            <path fill="#1D74F5" d="M958.484 249.594s8.513 1.872 18.017 0l.316-1.865s-8.014 1.979-18.73 0l.397 1.865z"/>
            <path fill="#1D8CFC" d="M976.51 249.594l.001-.004.224-1.335c.029-.174.054-.349.082-.524-.077.019-2.489.606-6.39.81.01.6.007 1.205-.005 1.81a43.705 43.705 0 0 0 6.088-.757"/>
            <path fill="#1D74F5" d="M908.287 235.544s13.838 3.474 28.441 0l-2.504 10.928s-9.049 4.543-23.464 0l-2.473-10.928z"/>
            <path fill="#1D8CFC" d="M936.756 235.544a55.335 55.335 0 0 1-6.303 1.106 17.258 17.258 0 0 0-.44 2.573c-.389 4.268-.935 8.507-.935 8.507l.83-.099a15.481 15.481 0 0 0 3.737-.925l.607-.234 2.504-10.926v-.002"/>
            <path fill="#1D74F5" d="M913.776 117.386c-.492 5.12-2.332 9.132-4.11 8.96-1.776-.17-2.818-4.46-2.326-9.58.493-5.12 2.332-9.133 4.11-8.962 1.777.172 2.818 4.461 2.326 9.582"/>
            <path fill="#E3CEC8" d="M540.108 245.713a.58.58 0 0 1-.577.583.58.58 0 0 1-.578-.583.58.58 0 0 1 .578-.583.58.58 0 0 1 .577.583"/>
            <path fill="#4EB4F9" d="M588.92 338.77c6.37-17.819-2.796-33.808-2.796-33.808s-9.167 15.99-2.796 33.809l.086.018a12.76 12.76 0 0 0 5.42 0l.087-.018zM545.481 321.882s0-11.372 10.289-24.42c2.982-3.783 2.175 19.208 2.175 19.208s-7.509.19-11.033 11.002l-1.43-5.79z"/>
            <path fill="#4EB4F9" d="M545.481 321.882s0-11.372 10.289-24.42c2.982-3.783 2.175 19.208 2.175 19.208s-7.509.19-11.033 11.002l-1.43-5.79zM583.737 321.882s0-11.372-10.288-24.42c-2.982-3.783-2.176 19.208-2.176 19.208s7.51.19 11.034 11.002l1.43-5.79z"/>
            <path fill="#4EB4F9" d="M583.737 321.882s0-11.372-10.288-24.42c-2.982-3.783-2.176 19.208-2.176 19.208s7.51.19 11.034 11.002l1.43-5.79zM545.865 338.77c6.37-17.819-2.797-33.808-2.797-33.808s-9.167 15.99-2.796 33.809c1.843.4 3.75.4 5.593 0"/>
            <path fill="#4EB4F9" d="M545.95 338.77c6.44-17.819-2.827-33.808-2.827-33.808s-9.267 15.99-2.827 33.809c1.863.4 3.79.4 5.654 0M570.255 332.355c11.773-48.015-2.68-91.528-5.274-98.707a.408.408 0 0 0-.77 0c-2.593 7.18-17.047 50.692-5.274 98.707a18.718 18.718 0 0 0 11.318 0M588.92 338.77c6.37-17.819-2.796-33.808-2.796-33.808s-9.167 15.99-2.796 33.809l.086.018a12.76 12.76 0 0 0 5.42 0l.087-.018z"/>
            <path fill="#FFF" d="M586.068 305.009s2.472 8.753 1.902 11.038c-.57 2.283.38 4.757.57 6.66.19 1.903-1.901 5.328-1.14 7.993.76 2.664-.09 8.082-.09 8.082l1.727-.03s.85-.374 1.687-5.342c.93-5.516.751-11.158-.429-16.626-.831-3.854-2.158-8.323-4.227-11.775M542.913 305.009s2.471 8.753 1.901 11.038c-.57 2.283.38 4.757.57 6.66.19 1.903-1.9 5.328-1.14 7.993.76 2.664-.09 8.082-.09 8.082l1.796-.011s.782-.393 1.619-5.361c.93-5.516.751-11.158-.429-16.626-.832-3.854-2.158-8.323-4.227-11.775M574.722 299.137l-.526 4.875s1.414-.637 2.815 1.509c1.401 2.145.33 2.475 1.401 3.877 1.072 1.403 2.441 1.78 2.663 3.16.223 1.378 1.397 2.08 1.397 2.08s-2.22-8.545-7.75-15.501"/>
            <path fill="#FFF" d="M564.981 233.376a.493.493 0 0 0-.484.585c.374 1.951 1.537 8.273 1.537 11.17 0 3.448 2.99 7.44 2.792 9.836-.2 2.395-1.795 4.79-.798 8.982.997 4.191 3.5 4.99 3.146 9.98-.355 4.99-2.747 9.038-1.551 11.705s1.376 6.66 1.585 10.252c.21 3.593-.66 9.485-1.035 11.824-.374 2.34.467 5.99-.187 7.86-.654 1.872-1.215 6.551-.935 8.329.28 1.778-.654 2.9-.841 4.96-.187 2.058-.45 4.102-.45 4.102l.4-.047a7.455 7.455 0 0 0 1.803-.447l.292-.112s4.996-19.615 4.467-33.218c0 0 .519-21.874-2.485-36.5 0 0-4.502-24.72-7.256-29.261"/>
            <path fill="#1D74F5" d="M554.38 299.297s.457 14.135 1.67 18.098c0 0-1.898.372-2.806 1.046 0 0-.264-2.582.382-4.362.647-1.78-.71-2.507-.436-4.287.275-1.78 1.083-3.27.76-4.83-.324-1.56-.959-3.829.43-5.665M582.472 314.637s-1.388 7.865-1.384 9.99c0 0-1.093-2.042-1.616-2.732-.523-.69.957-2.263.957-2.263s.428-.562.487-1.42c.059-.858 1.111-2.067 1.111-2.496 0-.43.445-1.079.445-1.079M538.888 333.861s4.064.903 8.603 0l.151-.9s-3.827.955-8.944 0l.19.9z"/>
            <path fill="#1D8CFC" d="M547.494 333.861v-.002l.108-.644.04-.253c-.037.01-1.2.293-3.082.39.005.29.003.582-.002.874a21.12 21.12 0 0 0 2.936-.365"/>
            <path fill="#1D74F5" d="M581.957 333.861s4.106.903 8.69 0l.153-.9s-3.866.955-9.034 0l.191.9z"/>
            <path fill="#1D8CFC" d="M590.652 333.861v-.002l.108-.644.04-.253c-.038.01-1.2.293-3.083.39.005.29.004.582-.002.874.928-.052 1.92-.163 2.937-.365"/>
            <path fill="#1D74F5" d="M557.745 327.084s6.674 1.675 13.718 0l-1.208 5.27s-4.365 2.192-11.318 0l-1.192-5.27z"/>
            <path fill="#1D8CFC" d="M571.477 327.084a26.606 26.606 0 0 1-3.04.533c-.093.38-.172.787-.214 1.241-.187 2.06-.45 4.103-.45 4.103l.4-.047a7.448 7.448 0 0 0 1.803-.446l.293-.113 1.207-5.27v-.001"/>
            <path fill="#1D74F5" d="M560.392 270.09c-.237 2.47-1.125 4.405-1.982 4.323-.857-.083-1.36-2.152-1.122-4.622.237-2.47 1.125-4.405 1.982-4.322.857.082 1.36 2.151 1.122 4.621"/>
            <path fill="#E3CEC8" d="M189.93 179.29c0 .447-.358.81-.8.81a.805.805 0 0 1-.803-.81c0-.447.36-.809.802-.809.443 0 .802.362.802.81"/>
            <path fill="#1D74F5" d="M209.747 253.69s.634 19.626 2.318 25.129c0 0-2.635.515-3.895 1.451 0 0-.368-3.585.53-6.056.898-2.47-.985-3.481-.604-5.952.38-2.471 1.502-4.542 1.053-6.707-.449-2.165-1.331-5.316.598-7.865M248.751 274.99s-1.928 10.919-1.922 13.87c0 0-1.517-2.836-2.243-3.793-.727-.958 1.33-3.142 1.33-3.142s.593-.78.675-1.972c.082-1.191 1.543-2.87 1.543-3.466 0-.596.617-1.498.617-1.498M188.236 301.68s5.644 1.254 11.946 0l.21-1.248s-5.314 1.324-12.42 0l.264 1.248z"/>
            <path fill="#1D8CFC" d="M200.186 301.68v-.003l.15-.893c.02-.117.037-.235.055-.351-.051.012-1.666.406-4.28.541.008.402.006.808-.003 1.213a29.135 29.135 0 0 0 4.078-.507"/>
            <path fill="#1D74F5" d="M218.094 213.137c-.33 3.43-1.562 6.116-2.752 6.002-1.19-.115-1.888-2.988-1.558-6.417.33-3.43 1.562-6.116 2.752-6.001 1.19.114 1.888 2.987 1.558 6.416"/>
        </g>
    </g>
</svg>
