<svg fill="none" height="171" viewBox="0 0 705 171" width="705" xmlns="http://www.w3.org/2000/svg" xmlns:xlink="http://www.w3.org/1999/xlink"><clipPath id="a"><path d="m0 0h705v170.6h-705z"/></clipPath><g clip-path="url(#a)" fill="#fff"><path d="m91.5 25.4-46.9 32.3h40.6zm16 32.2h16.4l-4.4 22.3h-16.3l-4.4 21.8h-22.2l4.3-21.9h-70.3l5.2-27.4 73-49.50001h29.5z"/><path d="m128.9 92.1-1.8 9.2h86.7l1.7-9.2zm503.7-.1-1.8 9.4h55l1.8-9.4zm-67.9 0-1.7 9.4h54.9l1.7-9.4zm-107.3 0c6.4 5.1 15.9 8.5 26.4 9.5h12c10.5-1 20.3-4.5 27.6-9.5zm-230.4-.1-1.8 9.5h55.1l1.8-9.5zm143.4-.2 5.9 9.8h40l1.9-9.8zm-75.2 0-1.9 9.8h42.3l1.9-9.8zm-163.7-12.7-1.9 9.5h86.5l1.8-9.5zm503.6-.2-1.8 9.4h54.9l1.8-9.4zm-68 0-1.7 9.4h55l1.7-9.4zm-117.9 0c.4 3.4 2 6.7 4.4 9.5h74.3c3.1-2.9 5.5-6.1 7-9.5zm-219.7 0-1.8 9.5h55.1l1.8-9.5zm133-.2 5.9 9.7h50.3l1.8-9.7zm-64.8 0-1.9 9.7h42.4l1.9-9.7zm-97.9-12.8-1.8 9.5h20.6l1.8-9.5zm-49.3 0-1.9 9.5h24c.1-.3 1.2-5.8 1.9-9.5zm484.1-.1 9.4 9.4h30.6l-8.3-9.4zm-40.6 0-13.2 9.4h35.4l13.5-9.4zm-79.8 0c-.8 4-3.5 7.3-7.3 9.5h29.3c.1-.4.2-.7.2-1.1l1.7-8.4zm-63 0-2 9.5h30.3c-2.9-1.9-4.5-4.7-4-8.5l.1-1zm-204.4 0-1.8 9.5h24c.6-3.3 1.1-6.4 1.7-9.5zm107.8-.2 5.9 9.8h42.5c.3-1.6 1.3-6.2 2-9.8zm-35 0c-.6 3.1-1.2 6.4-1.9 9.8h23.1l2-9.8zm-166.4-12.8-1.9 9.5h24c.7-3.5 1-5.2 1.9-9.5zm459.5-.1-1.6 1-11.8 8.4h63.7l-8.3-9.4zm-96.1 0-1.8 9.5h24l1.9-9.5zm-62.7 0-2 9.5h24.3l1.8-9.5zm-204.5 0-1.8 9.5h23.9c.6-3.2 1.2-6.4 1.8-9.5zm97.3-.2 5.9 9.8h53c.8-4 1.1-5.2 2-9.8h-24.1l-2 9.7-5.6-9.7zm-24.5 0c-.6 3.2-1.3 6.5-2 9.8h23.2l1.9-9.8zm-166.5-12.9c-1.2 6.3-1.6 8.4-1.6 8.4l-.2 1.1h23.9c.6-3.2 1.2-6.3 1.8-9.5zm450.7-.1 11.7 9.4h35.3l13.3-9.4zm-87.3 0-1.8 9.5h24.1l1.9-9.5zm-62.4 0-2 9.5h24l1.8-9.5zm-204.8 0-1.8 9.5h23.9c.6-3.1 1.3-6.3 1.9-9.5zm134.3-.1-2 9.8h24.1c.7-3.4 1.4-6.7 2-9.8zm-61.5 0c-.7 3.3-1.3 6.6-1.9 9.8h51.1l-5.7-9.8zm-234.9-12.3-5.6 28.4h-35.8zm68.4-.7c-.7 3.7-1.3 7-1.7 9.5h23.9c.6-3.3 1.2-6.6 1.8-9.5zm96.2 0-1.8 9.5h23.9c.6-3.1 1.1-6.2 1.7-9.5zm335.6 0 11.7 9.4h70.4l13.3-9.4h-38.1l-10.6 8.2-8.4-8.2zm-68.5 0-1.8 9.6h24.2l1.9-9.6zm-62.1 0-2 9.6h23.7l1.8-9.6zm-70.6 0-2 9.8h24.1c.9-4.6 1.5-7.7 2-9.8zm-61.5 0c-.7 3.4-1.3 6.6-1.9 9.8h40.9l-5.7-9.8zm-234-4.6-2.4 1.7-46.9 32.3-3.2 2.2h3.8l40.6-.1h1l.2-1 6.3-32.3zm149.1-8.5-1.8 9.5h54.9l1.9-9.5zm404.8 0-1.8 9.4h55.4l1.8-9.4zm-67.9 0-1.8 9.4h55.1l1.7-9.4zm-68.1 0-1.7 9.5h55.3l1.8-9.5zm-66.4 0-1.7 9.5h55.2l1.8-9.5zm-299.6 0-1.7 9.5h54.7l1.8-9.5zm246.3-.1-2 9.8h41l2-9.8zm-81.2 0-1.9 9.8h50.2l-5.7-9.8zm-221.1-9.9h27.6l-10.4 53.2-.3 1.4h1.5 15l-4 20h-15.3-1l-.2.9-4.2 20.9h-19.8l4-20.5.3-1.4h-1.4-68.9l4.8-25.5zm-.8-2.4-.3.2-72.9 49.5-.4.3-.1.5-5.19999 27.4-.3 1.4h1.39999 68.9l-4 20.5-.2 1.4h1.4 22.1 1l.2-.9 4.3-20.9h15.3 1l.2-1 4.4-22.3.2-1.4h-1.4-15l10.4-53.2.3-1.4h-1.5-29.4-.4zm156.5-.7-1.8 9.5h55l1.9-9.5zm404.7-.1-1.8 9.4h55.4l1.8-9.4zm-67.8 0-1.8 9.4h55.1l1.8-9.4zm-68.3 0-1.7 9.5h55.4l1.8-9.5zm-66.4 0-1.7 9.5h55.4l1.8-9.5zm-53 0-2 9.8h40.9l2-9.8zm-81.2 0-1.9 9.8h40.1l-5.7-9.8zm-165.3 0-1.8 9.5h54.7l1.8-9.5z"/><path d="m.4 118.3-.4 4.1h697.3l.4-4.1z"/><path d="m668.159 166.4s3.06 4.2 9.86 4.2c6.4 0 10.923-4.1 11.804-9.1 1.834-10.4-14.083-8.6-12.902-15.3.441-2.5 3.229-4.7 6.629-4.7 4.1 0 6.506 2.8 6.506 2.8l2.653-3.7s-2.536-3.2-8.536-3.2-11.106 4-11.987 9c-1.746 9.9 14.119 8.4 12.902 15.3-.529 3-3.329 4.7-6.329 4.7-4.8 0-7.583-3.5-7.583-3.5zm-19.852 3.7h4.5l4.972-28.2h11l.688-3.9h-26.5l-.688 3.9h11zm-35.048-3.7s3.06 4.2 9.86 4.2c6.4 0 10.923-4.1 11.804-9.1 1.834-10.4-14.083-8.6-12.902-15.3.441-2.5 3.229-4.7 6.629-4.7 4.1 0 6.506 2.8 6.506 2.8l2.652-3.7s-2.535-3.2-8.535-3.2-11.106 4-11.987 9c-1.746 9.9 14.119 8.4 12.902 15.3-.529 3-3.329 4.7-6.329 4.7-4.8 0-7.583-3.5-7.583-3.5zm-12.952 3.7h4.5l5.66-32.1h-4.5zm-25.6 0h18.9l.688-3.9h-14.4l4.972-28.2h-4.5zm-11 0h4.7l-5.94-32.1h-4.7l-17.26 32.1h4.6l4.822-9.2h12.1zm-4.316-27.7s.189 2.9.407 4.5l1.701 10.2h-9.7l5.399-10.2c.882-1.6 2.093-4.5 2.193-4.5zm-29.584 27.7h4.5l5.66-32.1h-4.5zm-33.726-16.3c-1.657 9.4 3.838 16.8 13.438 16.8 8.1 0 13.399-5.1 13.399-5.1l-1.836-3.2s-4.64 4.2-10.64 4.2c-7.1 0-10.878-5.8-9.661-12.7 1.199-6.8 6.869-12.3 14.069-12.3 5.5 0 8.683 3.5 8.683 3.5l2.799-3.4s-3.259-4.2-10.959-4.2c-9.4 0-17.652 7.1-19.292 16.4zm-27.974 16.3h19.4l.688-3.9h-14.9l1.816-10.3h11.5l.687-3.9h-11.5l1.781-10.1h14.1l.688-3.9h-18.6zm-29.1 0h4.5l2.098-11.9h7.2c5.9 0 10.823-4.1 11.899-10.2 1.075-6.1-2.419-10.1-8.319-10.1h-11.7zm7.286-15.8 2.186-12.4h6.5c3.8 0 5.795 2.3 5.125 6.1-.688 3.9-3.511 6.3-7.311 6.3zm-35.534 12.1s3.06 4.2 9.86 4.2c6.4 0 10.923-4.1 11.804-9.1 1.834-10.4-14.083-8.6-12.902-15.3.441-2.5 3.229-4.7 6.629-4.7 4.1 0 6.506 2.8 6.506 2.8l2.653-3.7s-2.536-3.2-8.536-3.2-11.106 4-11.987 9c-1.746 9.9 14.119 8.4 12.902 15.3-.529 3-3.329 4.7-6.329 4.7-4.8 0-7.583-3.5-7.583-3.5zm-40.852 3.7h19.4l.688-3.9h-14.9l1.816-10.3h11.5l.687-3.9h-11.5l1.781-10.1h14.1l.688-3.9h-18.6zm-30.6 0h4.5l2.257-12.8h6.9l4.543 12.8h5.1l-4.596-12.5c-.424-1-.736-1.5-.736-1.5l.018-.1c3.694-1.1 6.611-4.6 7.334-8.7.741-4.2-.777-7.5-3.866-8.7-1.112-.5-2.476-.7-5.876-.7h-9.8zm7.445-16.7 2.027-11.5h5.2c2.5 0 3.447.3 4.277.7 1.441.9 2.041 2.6 1.618 5-.635 3.6-3.222 5.8-6.722 5.8zm-18.445 16.7h4.7l-5.94-32.1h-4.7l-17.26 32.1h4.6l4.822-9.2h12.1zm-4.316-27.7s.189 2.9.407 4.5l1.701 10.2h-9.7l5.399-10.2c.882-1.6 2.093-4.5 2.193-4.5zm-37.706-4.5-10.462 23.6c-.817 1.8-1.299 3.4-1.299 3.4h-.1s.1-1.7-.001-3.4l-1.538-23.6h-4.6l2.54 32.1h5.2l9.167-20.8c.853-2 1.794-4.5 1.794-4.5h.1s-.041 2.5.206 4.5l1.833 20.8h5.2l14.06-32.1h-4.6l-10.062 23.6c-.799 1.7-1.199 3.4-1.199 3.4h-.1s.082-1.6-.101-3.4l-2.138-23.6zm-42.378 32.2h4.5l4.972-28.2h11l.688-3.9h-26.5l-.688 3.9h11zm-32.1 0h4.5l2.416-13.7h11.2l.687-3.9h-11.2l1.869-10.6h13.2l.688-3.9h-17.7zm-38.226-16.3c-1.675 9.5 4.238 16.8 13.538 16.8s17.805-7.4 19.462-16.8c1.622-9.2-4.308-16.4-13.608-16.4s-17.752 7.1-19.392 16.4zm4.7 0c1.234-7 7.469-12.3 14.069-12.3s10.865 5.3 9.631 12.3c-1.27 7.2-7.539 12.7-14.039 12.7s-10.931-5.5-9.661-12.7zm-33.522 12.6s3.06 4.2 9.86 4.2c6.4 0 10.923-4.1 11.804-9.1 1.834-10.4-14.083-8.6-12.902-15.3.441-2.5 3.229-4.7 6.629-4.7 4.1 0 6.506 2.8 6.506 2.8l2.653-3.7s-2.536-3.2-8.536-3.2-11.106 4-11.987 9c-1.746 9.9 14.119 8.4 12.902 15.3-.529 3-3.329 4.7-6.329 4.7-4.8 0-7.583-3.5-7.583-3.5zm-49.3521 3.7h4.5l3.6671-20.8c.318-1.8.529-4.7.529-4.7h.1s.989 2.9 1.871 4.7l10.633 20.8h4.4l5.66-32.1h-4.5l-3.685 20.9c-.318 1.8-.511 4.6-.511 4.6h-.1s-.989-2.9-1.889-4.6l-10.615-20.9h-4.5l-5.6601 32.1zm-27.5 0h19.4l.6877-3.9h-14.9l1.8161-10.3h11.5l.6877-3.9h-11.5l1.7809-10.1h14.1l.6877-3.9h-18.6zm-29.2 0h4.5l2.0983-11.9h7.2c5.9 0 10.8229-4.1 11.8985-10.2s-2.4191-10.1-8.3191-10.1h-11.7zm7.286-15.8 2.1864-12.4h6.5c3.8 0 5.7945 2.3 5.1244 6.1-.6877 3.9-3.5108 6.3-7.3108 6.3zm-45.411874-.5c-1.675096 9.5 4.237714 16.8 13.537674 16.8 9.3 0 17.8049-7.4 19.4623-16.8 1.6222-9.2-4.3082-16.4-13.6082-16.4s-17.75194 7.1-19.391774 16.4zm4.599994 0c1.23429-7 7.46878-12.3 14.06878-12.3 6.5 0 10.8655 5.3 9.6312 12.3-1.2695 7.2-7.5393 12.7-14.0393 12.7-6.50002 0-10.93023-5.5-9.66068-12.7z"/></g></svg>