<svg height="132" viewBox="0 0 430 132" width="430" xmlns="http://www.w3.org/2000/svg" xmlns:xlink="http://www.w3.org/1999/xlink"><linearGradient id="a" x1="0%" x2="100%" y1="50.705516%" y2="50.705516%"><stop offset="0" stop-color="#f50"/><stop offset=".409877232" stop-color="#f50"/><stop offset=".581981215" stop-color="#ff2000"/><stop offset="1" stop-color="#ff2000"/></linearGradient><linearGradient id="b" x1="2.148438%" x2="100%" y1="50.705516%" y2="50.705516%"><stop offset="0" stop-color="#ff452a"/><stop offset="1" stop-color="#ff2000"/></linearGradient><g fill="none" fill-rule="evenodd"><g fill="#fff" fill-rule="nonzero" transform="translate(143 26)"><path d="m.21764947 45.5301365v-45.32585947h4.34026443c3.53605453 0 6.4025931 2.86367203 6.4025931 6.3961905v20.15315077c6.9556721-6.1995287 12.8708057-8.6812132 20.7545258-8.8404156 15.1206188-.3090399 28.2445285 10.9100468 29.4913 25.9687208 1.4905011 17.989871-11.6052859 31.5314398-28.6663685 31.5314398-18.7296941 0-32.32231483-11.6030454-32.32231483-29.8832268zm10.56474733 3.5586419c1.059287 9.364847 10.0116683 17.1002106 19.451509 17.2500482 12.2989783.1872969 20.6795321-7.8196473 20.6795321-19.6661787 0-11.8465315-8.1930694-19.6661787-20.1452015-19.6661787-12.7770635-.0280946-21.4388439 9.2431039-19.9858396 22.0823092z"/><path d="m79.1298437 19.0463492v8.0724981c6.7588135-7.4918776 10.761606-9.5053197 18.6734487-9.5053197 2.3014516.0024781 4.5990846.1872323 6.8713046.552526v10.7227498c-2.42465-.6658354-4.9285547-.9997756-7.4431321-.9926738-5.7276491 0-10.5366246 1.8729694-14.0613318 5.4128816-3.093493 3.0997643-4.0121667 5.5252597-4.0121667 10.3949802v29.8551322h-11.1365748v-54.5127744z"/><path d="m107.318127 37.0736797c.571827-5.3098683 1.602992-8.1848763 3.890302-10.9475062 4.583994-5.6189082 12.833309-8.5126459 24.513588-8.5126459 9.280479 0 16.039293 1.4421864 20.735778 4.532586 3.899676 2.5378735 5.502667 6.302542 5.502667 12.9328537v24.2081295c0 5.3098682 1.378011 7.1828376 5.155822 7.0798243.843978-.0297466 1.685747-.1047735 2.521666-.2247563v7.2952158c-1.878059.6411766-3.856321.9393638-5.84014.8802956-6.983795 0-10.189779-2.0977257-12.364598-8.1848763-6.871304 6.3025421-13.976964 8.9527938-24.166742 8.9527938-13.630118 0-21.991923-6.1901639-21.991923-16.2573744-.059719-5.7408103 3.320874-10.9614795 8.586786-13.2606234 4.124658-1.7699561 6.646323-2.322482 18.439094-3.5399122 10.077287-.9926737 11.802144-1.2174301 14.661282-2.1070905 3.093493-.9926738 4.471503-2.6502517 4.471503-5.4128816 0-5.8623942-4.921466-8.5126459-15.233109-8.5126459-9.749191 0-14.773773 1.9291585-16.789231 6.855068-.998255 2.5189267-3.428297 4.1793394-6.140115 4.1954514zm44.05884 9.2899282c-7.065299 2.0529308-14.320401 3.386409-21.654451 3.98006-9.964797.9926738-13.05829 2.875008-13.05829 7.8477418 0 5.5252597 4.583994 8.4283623 13.630117 8.4283623 7.443132 0 13.05829-1.8729694 17.070457-5.5252598 3.205984-2.9873861 4.012167-5.0851119 4.012167-10.3013317z"/><path d="m196.523216 73.5497588h-2.868512c-2.527002.0159361-4.838623-1.4191867-5.943256-3.6897498l-24.026129-50.8136598h6.674446c3.889347-.0310249 7.430103 2.2352905 9.027375 5.7781106l16.029918 36.5229033 16.564249-36.663376c1.620868-3.4870055 5.13215-5.7059086 8.980504-5.6750973l6.065121-.0003168-24.588582 50.9076251c-1.116139 2.2395404-3.410916 3.6491806-5.915134 3.6335607z"/><path d="m234.554432 49.4540074c1.143655 10.5073584 9.374221 17.0252919 21.645076 17.0252919 6.965047 0 12.186488-2.0696312 15.420594-6.1995287 1.886316-2.368265 4.751067-3.747487 7.780604-3.7459388h6.458838c-5.624532 12.3803277-15.692446 18.4674782-30.700574 18.4674782-18.748443 0-31.384893-11.3876539-31.384893-28.4129458 0-17.0252918 12.9458-28.9654717 31.619248-28.9654717 13.508253 0 24.372976 6.0777857 28.750737 16.2573744 1.949838 4.6824235 2.746647 8.8404155 2.746647 15.5831054zm41.002843-8.4283623c-2.521665-9.6176979-9.964797-15.0399443-20.27644-15.0399443-10.311644 0-17.754775 5.4222464-20.388931 15.0399443z"/></g><g transform="translate(.38181)"><path d="m108.381438 31.6316453 3.088588-7.5905693s-3.930931-4.216983-8.704204-8.9962303c-4.7732734-4.7792473-14.8813815-1.9679254-14.8813815-1.9679254l-11.512012-13.07686407h-20.2162162-20.2162162l-11.512012 13.07686407s-10.1081081-2.8113219-14.8813814 1.9679254c-4.77327327 4.7792473-8.7042042 8.9962303-8.7042042 8.9962303l3.08858859 7.5905693-3.93093093 11.2452878s11.56114864 43.8439716 12.91591594 49.1981343c2.6674174 10.5424576 4.4924925 14.6188746 12.0735735 19.9603856 7.5810811 5.341512 21.3393394 14.618875 23.5855856 16.024535 2.2462463 1.405661 5.0540541 3.800064 7.5810811 3.800064s5.3348348-2.394403 7.5810811-3.800064c2.2462462-1.40566 16.0045045-10.683023 23.5855856-16.024535 7.5810811-5.341511 9.4061561-9.417928 12.0735736-19.9603856 1.3544864-5.3541627 12.9159154-49.1981343 12.9159154-49.1981343z" fill="url(#a)"/><path d="m84.6554616 21.3703201s14.8072552 17.9221775 14.8072552 21.7526037c0 3.8304261-1.8626997 4.8413775-3.7355075 6.8326369-1.8728078 1.9912593-10.0522327 10.6878027-11.1026336 11.8044597-1.0504009 1.1169383-3.2371216 2.8101975-1.9508649 5.8579516 1.2862568 3.0477542 3.1837733 6.9259728 1.0737057 10.8595745-2.1103483 3.9336017-5.7254009 6.5590952-8.0418423 6.1250271-2.3164415-.4343492-7.7565691-3.2808127-9.7571322-4.5810491-2.000563-1.3002364-8.3411546-6.5360424-8.3411546-8.5393905 0-2.0030668 6.5542658-5.5998722 7.7649925-6.4171235 1.2112883-.8169701 6.7342462-3.9799885 6.8474009-5.2214682.1128739-1.2417609.0699144-1.6058271-1.560018-4.6735417-1.6299325-3.0679956-4.5652148-7.1618427-4.0766562-9.8857325.4885586-2.7236087 5.2225225-4.1399527 8.6008769-5.4174174 3.3777928-1.2771836 9.8820796-3.689579 10.6943784-4.0646093.8128603-.3753115.6028363-.7326305-1.8587688-.9662514-2.4610436-.2336208-9.4457463-1.1619193-12.5947027-.2831001-3.1489565.8788193-8.5287162 2.215884-8.964488 2.9248994s-.8201607.7329116-.3725961 3.1787617c.4472838 2.4458501 2.7513709 14.1819948 2.9748724 16.26659.2237823 2.0845952.6612387 3.4627053-1.5836036 3.9766149-2.2451231.5139097-6.0241517 1.4062233-7.3227628 1.4062233s-5.0779204-.8923136-7.3227628-1.4062233c-2.2451231-.5139096-1.8076666-1.8920197-1.5838843-3.9766149.2237822-2.0845952 2.5275886-13.8207399 2.9751531-16.26659.4472838-2.4458501.0628949-2.4697463-.3725961-3.1787617-.4357717-.7090154-5.8158123-2.0460801-8.9647687-2.9248994-3.1489565-.8788192-10.1333784.0494793-12.5947027.2831001-2.4613244.2336209-2.6713484.5909399-1.8587688.9662514.8125796.3750303 7.3168663 2.7874257 10.6946591 4.0646093 3.3780736 1.2774647 8.1123184 2.6938087 8.6008769 5.4174174.4885586 2.7238898-2.4470045 6.8177369-4.0766561 9.8857325-1.6299325 3.0677146-1.6731727 3.4317808-1.5600181 4.6735417.1128739 1.2414797 5.6361127 4.4044981 6.8471202 5.2214682 1.2110075.8172513 7.7649925 4.4140567 7.7649925 6.4171235 0 2.0033481-6.3403109 7.2391541-8.3408739 8.5393905-2.0005631 1.3002364-7.4406907 4.1466999-9.7571321 4.5810491-2.3164415.4340681-5.931494-2.1914254-8.0418424-6.1250271-2.1100676-3.9336017-.212551-7.8118203 1.0734249-10.8595745 1.2862568-3.0477541-.9001832-4.7410133-1.9508648-5.8579516-1.0501202-1.116657-9.2298259-9.8132004-11.1026337-11.8044597-1.8728078-1.9912594-3.7352267-3.0022108-3.7352267-6.8326369 0-3.8304262 14.8072553-21.7526037 14.8072553-21.7526037s12.4947447 2.3896237 14.1794294 2.3896237 5.3348348-1.405661 8.7042042-2.5301898 5.6156156-1.1326816 5.6156156-1.1326816 2.2462463.0081528 5.6156156 1.1326816c3.3693694 1.1245288 7.0195195 2.5301898 8.7042042 2.5301898s14.1794295-2.3896237 14.1794295-2.3896237zm-11.1004436 68.5558853c.9164685.5746342.357434 1.6578365-.4773273 2.2487764-.8350421.5909399-12.0553228 9.2902942-13.1441907 10.2517662-1.0891486.961754-2.6893183 2.549869-3.7773438 2.549869-1.0880256 0-2.688476-1.588115-3.7773439-2.549869-1.0891486-.961472-12.3091486-9.6608263-13.1441907-10.2517662-.835042-.5909399-1.3937958-1.6741422-.4773273-2.2487764.9167492-.5743531 3.7843634-2.0241519 7.7414069-4.074449 3.956482-2.0500159 8.8878348-3.7930356 9.657455-3.7930356.7696201 0 5.7006921 1.7430197 9.6577357 3.7930356 3.9567628 2.0502971 6.8243769 3.5000959 7.7411261 4.074449z" fill="#fff"/><path d="m87.8844405 13.0769203-11.512012-13.07686407h-20.2162162-20.2162162l-11.512012 13.07686407s-10.1081081-2.8113219-14.8813814 1.9679254c0 0 13.4774775-1.2181458 18.1103604 6.3254744 0 0 12.4947447 2.3896237 14.1794294 2.3896237s5.3348348-1.405661 8.7042042-2.5301898 5.6156156-1.1326816 5.6156156-1.1326816 2.2462463.0081528 5.6156156 1.1326816c3.3693694 1.1245288 7.0195195 2.5301898 8.7042042 2.5301898s14.1794295-2.3896237 14.1794295-2.3896237c4.6328828-7.5436202 18.1103604-6.3254744 18.1103604-6.3254744-4.7732734-4.7792473-14.8813815-1.9679254-14.8813815-1.9679254" fill="url(#b)"/></g></g></svg>