<svg width="800" height="220" viewBox="0 0 800 220" fill="none" xmlns="http://www.w3.org/2000/svg">
<g clip-path="url(#clip0)">
<path d="M504.16 47.08C478.65 47.84 458.68 69.44 458.68 94.97V153.26C458.68 153.587 458.744 153.911 458.87 154.213C458.995 154.515 459.178 154.789 459.409 155.021C459.641 155.252 459.915 155.435 460.217 155.56C460.519 155.686 460.843 155.75 461.17 155.75H475.3C475.627 155.75 475.951 155.686 476.253 155.56C476.555 155.435 476.829 155.252 477.061 155.021C477.292 154.789 477.475 154.515 477.6 154.213C477.726 153.911 477.79 153.587 477.79 153.26V94.77C477.79 79.77 489.26 66.94 504.19 66.2C507.955 66.0143 511.719 66.5959 515.253 67.9094C518.786 69.2228 522.016 71.2408 524.746 73.8407C527.476 76.4406 529.649 79.5683 531.133 83.0337C532.617 86.4992 533.382 90.2301 533.38 94V153.29C533.38 153.95 533.642 154.584 534.109 155.051C534.576 155.518 535.21 155.78 535.87 155.78H550C550.66 155.78 551.294 155.518 551.761 155.051C552.228 154.584 552.49 153.95 552.49 153.29V94C552.482 87.7211 551.216 81.5074 548.766 75.726C546.317 69.9446 542.734 64.7125 538.229 60.3389C533.723 55.9652 528.388 52.5386 522.536 50.2613C516.685 47.984 510.436 46.9023 504.16 47.08V47.08Z" fill="white"/>
<path d="M623.42 47.61C614.582 47.2159 605.782 48.9879 597.786 52.7716C589.789 56.5554 582.839 62.2363 577.539 69.3198C572.24 76.4033 568.752 84.6748 567.379 93.4141C566.007 102.153 566.791 111.096 569.664 119.463C572.537 127.83 577.411 135.368 583.862 141.421C590.314 147.474 598.147 151.858 606.68 154.193C615.213 156.527 624.187 156.74 632.822 154.814C641.456 152.887 649.488 148.88 656.22 143.14V153.25C656.22 153.91 656.482 154.544 656.949 155.011C657.416 155.478 658.05 155.74 658.71 155.74H672.85C673.51 155.74 674.144 155.478 674.611 155.011C675.078 154.544 675.34 153.91 675.34 153.25V102.95C675.33 73.7 652.64 48.86 623.42 47.61ZM621.06 137C614.104 137.002 607.303 134.941 601.518 131.078C595.733 127.214 591.223 121.722 588.56 115.296C585.897 108.87 585.199 101.798 586.555 94.9748C587.91 88.1518 591.259 81.8842 596.178 76.9646C601.096 72.045 607.362 68.6944 614.185 67.3365C621.008 65.9786 628.08 66.6745 634.507 69.3362C640.934 71.9978 646.427 76.5056 650.292 82.2895C654.157 88.0734 656.22 94.8736 656.22 101.83C656.209 111.153 652.502 120.091 645.911 126.684C639.32 133.277 630.383 136.987 621.06 137Z" fill="white"/>
<path d="M748.09 47.61C739.252 47.2159 730.452 48.9879 722.456 52.7716C714.459 56.5554 707.509 62.2363 702.209 69.3198C696.91 76.4033 693.422 84.6748 692.049 93.4141C690.677 102.153 691.461 111.096 694.334 119.463C697.207 127.83 702.081 135.368 708.532 141.421C714.984 147.474 722.817 151.858 731.35 154.193C739.883 156.527 748.857 156.74 757.492 154.814C766.126 152.887 774.158 148.88 780.89 143.14V164.6C780.89 184.32 764.76 201.07 745.04 200.71C739.537 200.623 734.133 199.237 729.267 196.665C724.401 194.093 720.212 190.408 717.04 185.91C716.674 185.405 716.129 185.057 715.516 184.938C714.904 184.82 714.269 184.938 713.74 185.27L701.74 192.71C701.452 192.89 701.203 193.127 701.01 193.406C700.816 193.685 700.681 194.001 700.612 194.334C700.544 194.666 700.544 195.01 700.613 195.343C700.681 195.675 700.816 195.991 701.01 196.27C705.873 203.409 712.38 209.275 719.983 213.373C727.586 217.471 736.063 219.683 744.7 219.82C775.13 220.4 800.04 194.89 800.04 164.45V103C800 73.7 777.31 48.86 748.09 47.61ZM745.72 137C738.764 137 731.964 134.937 726.181 131.073C720.397 127.208 715.889 121.715 713.227 115.289C710.565 108.862 709.869 101.791 711.226 94.9687C712.583 88.1463 715.932 81.8796 720.851 76.961C725.77 72.0424 732.036 68.6928 738.859 67.3358C745.681 65.9787 752.752 66.6752 759.179 69.3371C765.605 71.9991 771.098 76.5069 774.963 82.2906C778.827 88.0743 780.89 94.874 780.89 101.83C780.879 111.154 777.171 120.094 770.577 126.687C763.984 133.281 755.044 136.989 745.72 137V137Z" fill="white"/>
<path d="M292.47 47.61C283.633 47.2175 274.833 48.9908 266.838 52.7757C258.842 56.5605 251.893 62.2422 246.594 69.3261C241.296 76.41 237.809 84.6815 236.438 93.4207C235.066 102.16 235.851 111.102 238.725 119.468C241.598 127.835 246.473 135.372 252.925 141.424C259.377 147.476 267.21 151.86 275.742 154.194C284.275 156.527 293.249 156.74 301.883 154.814C310.517 152.887 318.549 148.88 325.28 143.14V164.6C325.28 184.32 309.15 201.08 289.43 200.71C283.927 200.623 278.523 199.237 273.657 196.665C268.791 194.093 264.602 190.408 261.43 185.91C261.064 185.405 260.519 185.057 259.906 184.938C259.294 184.82 258.659 184.938 258.13 185.27L246.13 192.71C245.842 192.89 245.593 193.127 245.4 193.406C245.206 193.685 245.071 194.001 245.002 194.334C244.934 194.666 244.934 195.01 245.003 195.343C245.071 195.675 245.206 195.991 245.4 196.27C250.254 203.397 256.747 209.255 264.333 213.353C271.92 217.45 280.379 219.668 289 219.82C319.43 220.4 344.34 194.89 344.34 164.45V103C344.39 73.7 321.7 48.86 292.47 47.61ZM290.11 137C283.154 137 276.354 134.937 270.571 131.073C264.787 127.208 260.279 121.715 257.617 115.289C254.955 108.862 254.259 101.791 255.616 94.9687C256.973 88.1463 260.322 81.8796 265.241 76.961C270.16 72.0424 276.426 68.6928 283.249 67.3358C290.071 65.9787 297.142 66.6752 303.569 69.3371C309.995 71.9991 315.488 76.5069 319.353 82.2906C323.217 88.0743 325.28 94.874 325.28 101.83C325.269 111.154 321.561 120.094 314.967 126.687C308.374 133.281 299.434 136.989 290.11 137V137Z" fill="white"/>
<path d="M215.59 48.31L201.45 48.53C200.8 48.5404 200.18 48.8046 199.722 49.2662C199.264 49.7277 199.005 50.35 199 51V107.4C198.996 111.167 198.228 114.893 196.742 118.354C195.255 121.815 193.081 124.937 190.352 127.533C187.622 130.129 184.394 132.143 180.863 133.454C177.332 134.765 173.572 135.346 169.81 135.16C154.88 134.43 143.41 121.54 143.41 106.59V51.06C143.41 50.733 143.346 50.4092 143.22 50.1071C143.095 49.805 142.912 49.5305 142.681 49.2993C142.449 49.0681 142.175 48.8847 141.873 48.7596C141.571 48.6344 141.247 48.57 140.92 48.57H126.79C126.463 48.57 126.139 48.6344 125.837 48.7596C125.535 48.8847 125.261 49.0681 125.029 49.2993C124.798 49.5305 124.615 49.805 124.49 50.1071C124.364 50.4092 124.3 50.733 124.3 51.06V106.43C124.3 131.95 144.3 153.56 169.79 154.32C176.064 154.498 182.31 153.417 188.159 151.141C194.009 148.866 199.343 145.442 203.848 141.072C208.352 136.701 211.936 131.473 214.387 125.695C216.839 119.917 218.108 113.706 218.12 107.43V50.8C218.12 50.4696 218.054 50.1425 217.927 49.8378C217.799 49.5331 217.612 49.2568 217.377 49.025C217.141 48.7933 216.862 48.6107 216.555 48.4879C216.248 48.3652 215.92 48.3047 215.59 48.31V48.31Z" fill="white"/>
<path d="M405.15 92.72C391.3 88.87 382.89 86 382.89 78.5C382.89 67.65 394.76 63.71 402.74 63.71C411.84 63.71 417.35 65.81 424.51 70.19C425.064 70.5251 425.727 70.631 426.358 70.4854C426.989 70.3398 427.539 69.954 427.89 69.41L434.45 59.23C434.631 58.9488 434.754 58.6339 434.811 58.3041C434.868 57.9744 434.858 57.6365 434.782 57.3108C434.705 56.985 434.564 56.678 434.366 56.4081C434.168 56.1382 433.918 55.911 433.63 55.74C424.112 50.0014 413.204 46.9788 402.09 47C384.09 47 365.56 58.85 365.56 78.68C365.56 98.92 383.56 103.78 399.39 108.07C414.39 112.12 423.47 115.26 423.47 124.71C423.47 133.39 414.55 139.94 402.73 139.94C391.35 139.94 382.04 134.8 375.73 129.94C375.22 129.541 374.574 129.359 373.93 129.431C373.287 129.504 372.698 129.827 372.29 130.33L364.5 139.83C364.083 140.345 363.887 141.005 363.954 141.664C364.022 142.324 364.347 142.93 364.86 143.35C375.1 151.94 388.74 156.64 403.58 156.64C425.13 156.64 440.76 142.95 440.76 124.08C440.81 102.63 421 97.13 405.15 92.72Z" fill="white"/>
<path d="M60.63 47.92C53.213 47.043 45.6948 47.7116 38.5489 49.8836C31.4031 52.0556 24.7845 55.6839 19.11 60.54V2.65997C19.1083 2.21928 18.9896 1.78695 18.7662 1.40712C18.5427 1.02728 18.2224 0.713564 17.838 0.497993C17.4537 0.282422 17.019 0.172722 16.5784 0.180097C16.1377 0.187472 15.7069 0.311658 15.33 0.539972L1.19001 9.13997C0.825559 9.36306 0.524654 9.67619 0.316243 10.0492C0.107832 10.4223 -0.00107242 10.8427 7.96063e-06 11.27V100.73C7.96063e-06 130 22.69 154.82 51.91 156.07C65.9375 156.664 79.6495 151.8 90.1676 142.5C100.686 133.2 107.192 120.186 108.32 106.192C109.448 92.1971 105.111 78.3095 96.2192 67.4443C87.327 56.5792 74.5714 49.5814 60.63 47.92V47.92ZM54.28 137C47.324 137 40.5243 134.937 34.7406 131.073C28.9569 127.208 24.4491 121.715 21.7872 115.289C19.1252 108.862 18.4287 101.791 19.7858 94.9686C21.1428 88.1463 24.4924 81.8796 29.4111 76.961C34.3297 72.0424 40.5964 68.6928 47.4187 67.3358C54.241 65.9787 61.3125 66.6752 67.739 69.3371C74.1655 71.9991 79.6583 76.5069 83.5228 82.2906C87.3873 88.0742 89.45 94.874 89.45 101.83C89.4394 111.154 85.7306 120.094 79.1373 126.687C72.5439 133.281 63.6044 136.989 54.28 137V137Z" fill="white"/>
</g>
<defs>
<clipPath id="clip0">
<rect width="800" height="220" fill="white"/>
</clipPath>
</defs>
</svg>
