<?xml version="1.0" encoding="utf-8"?>
<!-- Generator: Adobe Illustrator 23.0.2, SVG Export Plug-In . SVG Version: 6.00 Build 0)  -->
<svg version="1.1" id="Layer_1" xmlns="http://www.w3.org/2000/svg" xmlns:xlink="http://www.w3.org/1999/xlink" x="0px" y="0px"
	 viewBox="0 0 237 41" style="enable-background:new 0 0 237 41;" xml:space="preserve">
<style type="text/css">
	.st0{filter:url(#Adobe_OpacityMaskFilter);}
	.st1{fill-rule:evenodd;clip-rule:evenodd;fill:#FFFFFF;}
	.st2{mask:url(#mask-2_1_);fill-rule:evenodd;clip-rule:evenodd;fill:#FFFFFF;}
	.st3{filter:url(#Adobe_OpacityMaskFilter_1_);}
	.st4{mask:url(#mask-4_1_);fill-rule:evenodd;clip-rule:evenodd;fill:#FE0033;}
	.st5{filter:url(#Adobe_OpacityMaskFilter_2_);}
	.st6{mask:url(#mask-6_1_);fill-rule:evenodd;clip-rule:evenodd;fill:#FFFFFF;}
	.st7{filter:url(#Adobe_OpacityMaskFilter_3_);}
	.st8{mask:url(#mask-6_2_);fill-rule:evenodd;clip-rule:evenodd;fill:#FFFFFF;}
	.st9{filter:url(#Adobe_OpacityMaskFilter_4_);}
	.st10{mask:url(#mask-6_3_);fill-rule:evenodd;clip-rule:evenodd;fill:#FFFFFF;}
	.st11{filter:url(#Adobe_OpacityMaskFilter_5_);}
	.st12{mask:url(#mask-6_4_);fill-rule:evenodd;clip-rule:evenodd;fill:#FFFFFF;}
	.st13{filter:url(#Adobe_OpacityMaskFilter_6_);}
	.st14{mask:url(#mask-6_5_);fill-rule:evenodd;clip-rule:evenodd;fill:#FFFFFF;}
	.st15{filter:url(#Adobe_OpacityMaskFilter_7_);}
	.st16{mask:url(#mask-6_6_);fill-rule:evenodd;clip-rule:evenodd;fill:#FFFFFF;}
	.st17{filter:url(#Adobe_OpacityMaskFilter_8_);}
	.st18{mask:url(#mask-6_7_);fill-rule:evenodd;clip-rule:evenodd;fill:#FFFFFF;}
</style>
<title>Full Logo</title>
<desc>Created with Sketch.</desc>
<g id="Group">
	<g id="Group-3">
		<g id="Clip-2">
		</g>
		<defs>
			<filter id="Adobe_OpacityMaskFilter" filterUnits="userSpaceOnUse" x="0.5" y="4.5" width="30.4" height="30.5">
				<feColorMatrix  type="matrix" values="1 0 0 0 0  0 1 0 0 0  0 0 1 0 0  0 0 0 1 0"/>
			</filter>
		</defs>
		<mask maskUnits="userSpaceOnUse" x="0.5" y="4.5" width="30.4" height="30.5" id="mask-2_1_">
			<g class="st0">
				<path id="path-1_1_" class="st1" d="M30.8,4.6v0.6c0,4.5,0,7.9,0,10.2c0,1.8,0,3.7-0.1,5.5c-0.1,2-0.7,3.9-1.6,5.7
					c-1.5,2.9-3.7,5.1-6.6,6.6c-3.1,1.6-6.4,2.1-9.8,1.4c-3.9-0.8-7-2.7-9.3-5.9C2,26.8,1,24.5,0.7,22c-0.2-1.7-0.2-3.5-0.2-5.2
					c0-2.8,0-5.5,0-8.3c0-1.2,0-3.6,0.1-3.7c2.2,0,4.4,0,6.8,0c0,0.8,0.1,10.5,0,14.6c0,1.7,0.1,3.2,1,4.6c1.4,2.3,3.4,3.8,6.2,4.2
					c4.2,0.6,8.3-2.2,9.3-6.3c0.3-1.2,0.2-2.4,0.2-3.6l0-8.5c0-3.2,0-5,0-5.2C24.9,4.6,27.1,4.6,30.8,4.6z"/>
			</g>
		</mask>
		<polygon id="Fill-1" class="st2" points="0.5,35 30.8,35 30.8,4.5 0.5,4.5 		"/>
	</g>
	<g id="Group-6" transform="translate(12.000000, 0.000000)">
		<g id="Clip-5">
		</g>
		<defs>
			<filter id="Adobe_OpacityMaskFilter_1_" filterUnits="userSpaceOnUse" x="-15" y="-5.8" width="37.4" height="37.4">
				<feColorMatrix  type="matrix" values="1 0 0 0 0  0 1 0 0 0  0 0 1 0 0  0 0 0 1 0"/>
			</filter>
		</defs>
		<mask maskUnits="userSpaceOnUse" x="-15" y="-5.8" width="37.4" height="37.4" id="mask-4_1_">
			<g class="st3">
				<path id="path-3_1_" class="st1" d="M0.3,4.7H7c0,1.6,0,3.5,0,5.1c0,3.1,0,6.2,0,9.3c0,0.9,0,1.8-0.6,2.5
					c-0.9,1.3-2.3,1.8-3.8,1.4c-1.4-0.4-2.4-1.8-2.4-3.2c0-2.6,0-5.2,0-7.8c0-2.2,0-4.5,0-6.7"/>
			</g>
		</mask>
		<polyline id="Fill-4" class="st4" points="-15,12.9 3.7,-5.8 22.4,12.9 3.7,31.6 		"/>
	</g>
</g>
<g id="Group-13" transform="translate(50.000000, 0.000000)">
	<polygon class="st1" points="0,2.1 0,31.9 19.2,31.9 19.2,26.7 5.9,26.7 5.9,2.1 	"/>
	<g id="Group-12" transform="translate(0.000000, 0.570300)">
		<path id="Fill-2" class="st1" d="M26.3,1.2c-1.8,0-3.4,1.5-3.4,3.4s1.6,3.4,3.4,3.4c1.9,0,3.4-1.5,3.4-3.4S28.2,1.2,26.3,1.2"/>
		<defs>
			<filter id="Adobe_OpacityMaskFilter_2_" filterUnits="userSpaceOnUse" x="23.5" y="10.8" width="5.5" height="20.5">
				<feColorMatrix  type="matrix" values="1 0 0 0 0  0 1 0 0 0  0 0 1 0 0  0 0 0 1 0"/>
			</filter>
		</defs>
		<mask maskUnits="userSpaceOnUse" x="23.5" y="10.8" width="5.5" height="20.5" id="mask-6_1_">
			<g class="st5">
				<polygon id="path-5_1_" class="st1" points="0,40 186.5,40 186.5,0.4 0,0.4 				"/>
			</g>
		</mask>
		<polygon class="st6" points="23.5,31.3 29,31.3 29,10.8 23.5,10.8 		"/>
		<defs>
			<filter id="Adobe_OpacityMaskFilter_3_" filterUnits="userSpaceOnUse" x="34.8" y="10.5" width="19.6" height="20.8">
				<feColorMatrix  type="matrix" values="1 0 0 0 0  0 1 0 0 0  0 0 1 0 0  0 0 0 1 0"/>
			</filter>
		</defs>
		<mask maskUnits="userSpaceOnUse" x="34.8" y="10.5" width="19.6" height="20.8" id="mask-6_2_">
			<g class="st7">
				<polygon id="path-5_2_" class="st1" points="0,40 186.5,40 186.5,0.4 0,0.4 				"/>
			</g>
		</mask>
		<path id="Fill-6" class="st8" d="M47,10.5c-2.5,0-4.9,1-6.6,3h-0.1v-2.6h-5.5v20.5h5.5V21c0-3.7,1.9-5.6,4.7-5.6
			c2.6,0,3.9,1.2,3.9,5.1v10.8h5.5V19.2C54.4,12.9,51.4,10.5,47,10.5"/>
		<defs>
			<filter id="Adobe_OpacityMaskFilter_4_" filterUnits="userSpaceOnUse" x="58.5" y="10.5" width="21.2" height="29.5">
				<feColorMatrix  type="matrix" values="1 0 0 0 0  0 1 0 0 0  0 0 1 0 0  0 0 0 1 0"/>
			</filter>
		</defs>
		<mask maskUnits="userSpaceOnUse" x="58.5" y="10.5" width="21.2" height="29.5" id="mask-6_3_">
			<g class="st9">
				<polygon id="path-5_3_" class="st1" points="0,40 186.5,40 186.5,0.4 0,0.4 				"/>
			</g>
		</mask>
		<path id="Fill-7" class="st10" d="M69.3,26c-2.9,0-5.2-2.1-5.2-5.3c0-3.1,2.1-5.2,5.2-5.2c2.9,0,5.2,2,5.2,5.2
			C74.5,23.8,72.3,26,69.3,26L69.3,26z M74.3,12.9h-0.1c-1.6-1.6-3.8-2.4-6.1-2.4c-5.5,0-9.5,4.3-9.5,10.4c0,6,4.1,10.1,9.8,10.1
			c2.5,0,4.5-0.8,6-2.4h0.1v2.1c0,2.5-2,4.6-5.8,4.6c-2.6,0-4.6-0.8-6.6-1.9l-1.3,4.7C63,39.3,65.8,40,69,40c7.9,0,10.7-4.6,10.7-11
			V10.8h-5.5V12.9z"/>
		<defs>
			<filter id="Adobe_OpacityMaskFilter_5_" filterUnits="userSpaceOnUse" x="84" y="10.5" width="21.8" height="21.2">
				<feColorMatrix  type="matrix" values="1 0 0 0 0  0 1 0 0 0  0 0 1 0 0  0 0 0 1 0"/>
			</filter>
		</defs>
		<mask maskUnits="userSpaceOnUse" x="84" y="10.5" width="21.8" height="21.2" id="mask-6_4_">
			<g class="st11">
				<polygon id="path-5_4_" class="st1" points="0,40 186.5,40 186.5,0.4 0,0.4 				"/>
			</g>
		</mask>
		<path id="Fill-8" class="st12" d="M94.9,26.8c-3.1,0-5.3-2.5-5.3-5.7c0-3.2,2.1-5.7,5.3-5.7c3.1,0,5.3,2.3,5.3,5.7
			C100.2,24.4,97.9,26.8,94.9,26.8 M94.9,10.5C88.4,10.5,84,15,84,21.1s4.4,10.6,10.9,10.6c6.4,0,10.9-4.3,10.9-10.6
			S101.3,10.5,94.9,10.5"/>
		<defs>
			<filter id="Adobe_OpacityMaskFilter_6_" filterUnits="userSpaceOnUse" x="110.7" y="1.5" width="24.1" height="29.8">
				<feColorMatrix  type="matrix" values="1 0 0 0 0  0 1 0 0 0  0 0 1 0 0  0 0 0 1 0"/>
			</filter>
		</defs>
		<mask maskUnits="userSpaceOnUse" x="110.7" y="1.5" width="24.1" height="29.8" id="mask-6_5_">
			<g class="st13">
				<polygon id="path-5_5_" class="st1" points="0,40 186.5,40 186.5,0.4 0,0.4 				"/>
			</g>
		</mask>
		<polygon id="Fill-9" class="st14" points="128.9,14.4 116.6,14.4 116.6,1.5 110.7,1.5 110.7,31.3 116.6,31.3 116.6,19.7
			128.9,19.7 128.9,31.3 134.8,31.3 134.8,1.5 128.9,1.5 		"/>
		<defs>
			<filter id="Adobe_OpacityMaskFilter_7_" filterUnits="userSpaceOnUse" x="140.5" y="10.8" width="19.2" height="20.8">
				<feColorMatrix  type="matrix" values="1 0 0 0 0  0 1 0 0 0  0 0 1 0 0  0 0 0 1 0"/>
			</filter>
		</defs>
		<mask maskUnits="userSpaceOnUse" x="140.5" y="10.8" width="19.2" height="20.8" id="mask-6_6_">
			<g class="st15">
				<polygon id="path-5_6_" class="st1" points="0,40 186.5,40 186.5,0.4 0,0.4 				"/>
			</g>
		</mask>
		<path id="Fill-10" class="st16" d="M154.2,20.8c0,3.9-2.1,6-4.5,6c-2.6,0-3.7-1.3-3.7-5V10.8h-5.5v12.4c0,6.3,3.1,8.5,7.5,8.5
			c2.3,0,4.5-1,6.1-2.9h0.1v2.5h5.5V10.8h-5.5V20.8z"/>
		<defs>
			<filter id="Adobe_OpacityMaskFilter_8_" filterUnits="userSpaceOnUse" x="165.1" y="0.4" width="21.5" height="31.3">
				<feColorMatrix  type="matrix" values="1 0 0 0 0  0 1 0 0 0  0 0 1 0 0  0 0 0 1 0"/>
			</filter>
		</defs>
		<mask maskUnits="userSpaceOnUse" x="165.1" y="0.4" width="21.5" height="31.3" id="mask-6_7_">
			<g class="st17">
				<polygon id="path-5_7_" class="st1" points="0,40 186.5,40 186.5,0.4 0,0.4 				"/>
			</g>
		</mask>
		<path id="Fill-11" class="st18" d="M175.7,26.8c-3,0-5.4-2.2-5.4-5.6c0-3.3,2.2-5.8,5.4-5.8c2.9,0,5.3,2.2,5.3,5.8
			C180.9,24.5,178.8,26.8,175.7,26.8 M176.9,10.5c-2.5,0-4.7,0.9-6.2,2.6h-0.1V0.4h-5.5v30.9h5.3v-2.5h0.1c1.4,1.8,3.5,2.8,6.3,2.8
			c5.7,0,9.8-4.2,9.8-10.5C186.5,14.9,182.4,10.5,176.9,10.5"/>
	</g>
</g>
</svg>
