<svg viewBox="0 0 495.61 104.73" xmlns="http://www.w3.org/2000/svg"><g fill="#fff"><path d="m82.12 61.86a30.43 30.43 0 0 0 13.46 3.7c4.72 0 6.68-1.54 6.68-4.11s-1.54-3.9-7.3-5.85c-10.48-3.5-14.49-9.15-14.38-15.11 0-9.49 8.01-16.49 20.42-16.49a33 33 0 0 1 14.08 3l-2.67 10.79a25 25 0 0 0 -10.89-2.88c-3.8 0-6 1.54-6 4s2 3.71 8.12 5.86c9.55 3.29 13.46 8.22 13.56 15.52 0 9.45-7.3 16.34-21.68 16.34a35.43 35.43 0 0 1 -16.18-3.63z"/><path d="m147.26 11.61v13.57h11.2v11.51h-11.2v18.18c0 6.07 1.54 8.84 6.17 8.84a19.09 19.09 0 0 0 4.62-.41l.11 11.82a33 33 0 0 1 -10.08 1.33c-5 0-9.24-1.74-11.81-4.31-2.88-3-4.32-7.81-4.32-14.9v-20.55h-6.68v-11.51h6.73v-9.35z"/><path d="m182 55.29c.42 6.47 6.89 9.55 14.19 9.55a41.38 41.38 0 0 0 13.87-2.16l2 10.59a47.61 47.61 0 0 1 -18.19 3.18c-17 0-26.81-9.86-26.81-25.58 0-12.75 7.91-26.82 25.38-26.82 16.23 0 22.4 12.64 22.4 25.07a36.54 36.54 0 0 1 -.52 6.17zm18.4-10.69c0-3.8-1.64-10.17-8.84-10.17-6.57 0-9.25 6.06-9.66 10.17z"/><path d="m229.06 75.42v-38.73h-6.68v-11.51h6.68v-1.95c0-6.07 1.85-12.75 6.27-16.85a20.59 20.59 0 0 1 14-5 34 34 0 0 1 8.22 1l-.61 12a17 17 0 0 0 -5-.72c-5.14 0-7.3 4-7.3 8.94v2.57h10.07v11.52h-10v38.73z"/><path d="m307.05 63.3a64.74 64.74 0 0 0 .82 12.12h-14.08l-.92-5h-.31c-3.29 4-8.43 6.17-14.38 6.17-10.18 0-16.24-7.4-16.24-15.42 0-13 11.71-19.21 29.49-19.21v-.62c0-2.77-1.44-6.58-9.15-6.58a28.23 28.23 0 0 0 -13.87 3.81l-2.87-10.07a41.25 41.25 0 0 1 19.52-4.5c16.75 0 22 9.86 22 21.78zm-15.11-11.61c-8.22 0-14.59 2-14.59 7.91 0 4 2.67 6 6.17 6a8.63 8.63 0 0 0 8.11-5.75 11.06 11.06 0 0 0 .31-2.68z"/><path d="m322.46 41.21c0-6.27-.2-11.51-.41-16h13.56l.72 7h.31a18.05 18.05 0 0 1 15.52-8.12c10.27 0 18 6.88 18 21.68v29.65h-15.64v-27.84c0-6.48-2.26-10.89-7.91-10.89-4.31 0-6.89 3-8 5.86a11 11 0 0 0 -.52 3.9v29h-15.63z"/><path d="m385.66 75.42v-50.24h15.62v50.24z"/><path d="m416.79 41.21c0-6.27-.2-11.51-.41-16h13.56l.72 7h.34a18.05 18.05 0 0 1 15.52-8.12c10.27 0 18 6.88 18 21.68v29.65h-15.67v-27.84c0-6.48-2.26-10.89-7.91-10.89-4.32 0-6.89 3-8 5.86a11.22 11.22 0 0 0 -.51 3.9v29h-15.64z"/><path d="m480 75.42v-50.24h15.63v50.24z"/><path d="m38.91 79.76c.32 0 .64.06 1 .08z"/><path d="m3.25 22.14s1.75-5.82 10.44-13.09a52.14 52.14 0 0 1 11.77-7.75l.86-1.3-2 .24a40.59 40.59 0 0 0 -13.83 10.18 37.42 37.42 0 0 0 -7.24 11.72z"/><path d="m59.78 15.49-9-3.5c-1.29.41-2.61.85-4 1.37-19.88 7.64-38.55 24.5-41.65 37.73-.83 3.52-.47 6.43.88 8.65l.64 1a40.82 40.82 0 0 0 8 9.07c-2.34-2.27-3.25-5.61-2.22-10 3-12.75 21-29 40.16-36.34l1.74-.64z"/><path d="m25.88 9.89-5.34-1c-10.28 7.02-18.29 16.11-20.09 23.79a14.23 14.23 0 0 0 -.32 1.92c-.13 1.46-.13 3.4-.13 4.89a41.62 41.62 0 0 0 .9 7.42l.39 1.64a12.58 12.58 0 0 1 .11-6c2.06-8.79 11.28-19.25 23.1-27.29z"/><path d="m31.56 70.31c2-8.56 13.48-19.34 26.24-25l5-8.07-9.8-2.58c-15.79 7.13-29.88 20.47-32.38 31.1-1.26 5.39.69 9.13 4.92 10.87.85.35 2 .76 2.89 1.08a46.43 46.43 0 0 0 8.36 1.88l2.08.17c-5.62-.56-8.62-3.89-7.31-9.45z"/><path d="m53.86 73.63a2.43 2.43 0 0 1 -.25-2 .14.14 0 0 1 0-.06s0 0 0-.06c.69-2.61 4.09-5.83 7.94-7.62l3.21-6.57-7.33-1.47c-7.8 4.24-14.43 10.9-15.68 16.32-1.51 6.44 5.12 8.67 14.81 5h.08c1.09-.41 1.17-.45 3.12-1.34l.26-.12c-2.97.1-5.32-.61-6.16-2.08z"/><path d="m134.2 104a4.6 4.6 0 0 1 -6.24-1.21 9.56 9.56 0 0 1 .04-9.79 4.17 4.17 0 0 1 3.64-2 4.33 4.33 0 0 1 2.58.73l-.42 1a3.54 3.54 0 0 0 -1.85-.52 2.71 2.71 0 0 0 -2 .83 4.42 4.42 0 0 0 -1.1 2 10.79 10.79 0 0 0 -.31 2.71 8.12 8.12 0 0 0 .85 3.92 2.73 2.73 0 0 0 2.56 1.57 3.45 3.45 0 0 0 1.85-.52z"/><path d="m145.41 97.89a11.67 11.67 0 0 1 -.46 3.47 5.14 5.14 0 0 1 -1.56 2.42 4.11 4.11 0 0 1 -2.75.93 4 4 0 0 1 -3.63-1.88 9.24 9.24 0 0 1 -1.17-4.94 11.58 11.58 0 0 1 .46-3.45 5.12 5.12 0 0 1 1.57-2.44 4.17 4.17 0 0 1 2.77-.94 4 4 0 0 1 3.6 1.89 9.25 9.25 0 0 1 1.17 4.94zm-1.79-.06a14.09 14.09 0 0 0 -.13-2 7.85 7.85 0 0 0 -.46-1.76 3 3 0 0 0 -.92-1.32 2.32 2.32 0 0 0 -1.47-.48 2.35 2.35 0 0 0 -1.49.48 2.93 2.93 0 0 0 -.93 1.32 8.43 8.43 0 0 0 -.46 1.76 14.09 14.09 0 0 0 -.13 2c0 3.72 1 5.57 3 5.57s2.99-1.85 2.99-5.57z"/><path d="m151.94 98.7h-4.35v-1.35h4.35z"/><path d="m161.69 104a4.6 4.6 0 0 1 -6.24-1.21 9.56 9.56 0 0 1 0-9.73 4.18 4.18 0 0 1 3.64-2 4.33 4.33 0 0 1 2.58.73l-.42 1a3.54 3.54 0 0 0 -1.85-.52 2.68 2.68 0 0 0 -2 .83 4.34 4.34 0 0 0 -1.11 2 10.79 10.79 0 0 0 -.31 2.71 8.12 8.12 0 0 0 .85 3.92 2.73 2.73 0 0 0 2.56 1.57 3.45 3.45 0 0 0 1.85-.52z"/><path d="m172 104.52h-2l-4.36-6.19v6.19h-1.75v-12.74a6.84 6.84 0 0 1 3.3-.71 4.93 4.93 0 0 1 3.39 1 3.69 3.69 0 0 1 1.15 2.9 3.33 3.33 0 0 1 -1.09 2.64 4.37 4.37 0 0 1 -2.93 1zm-2.06-9.44a3.17 3.17 0 0 0 -.69-2.25 2.82 2.82 0 0 0 -2.14-.72 3.21 3.21 0 0 0 -1.51.29v5.6a4.18 4.18 0 0 0 1.14.11q3.16-.05 3.16-3.03z"/><path d="m180.36 104.52h-6.15v-13.26h6.15v1.2h-4.36v4.62h3.93v1.18h-3.93v5.06h4.37z"/><path d="m192.15 104.52h-1.83l-1.25-4h-4.55l-1.29 4h-1.62l4.49-13.26h1.58zm-3.37-5-1.54-5a7.37 7.37 0 0 1 -.25-.87 4.46 4.46 0 0 1 -.12-.55v-.18a9.88 9.88 0 0 1 -.4 1.6l-1.58 5z"/><path d="m200.14 92.46h-2.63v12.06h-1.78v-12.06h-2.64v-1.2h7z"/><path d="m204 104.52h-1.78v-13.26h1.78z"/><path d="m216.58 104.52h-1.58l-5.65-9.67-.85-1.6c0 .54.05 1.08.05 1.64v9.63h-1.48v-13.26h1.93l5.41 9.31.75 1.41c0-.43-.05-.92-.05-1.47v-9.25h1.48z"/><path d="m228 104a6.73 6.73 0 0 1 -3.35.73 5.11 5.11 0 0 1 -4-1.77 7.57 7.57 0 0 1 -1.56-5.15 7.18 7.18 0 0 1 1.59-5 5.13 5.13 0 0 1 4-1.77 5.81 5.81 0 0 1 3.1.69l-.52 1.1a4.57 4.57 0 0 0 -2.39-.54 3.39 3.39 0 0 0 -2.91 1.4 7.17 7.17 0 0 0 -1 4.23 6.84 6.84 0 0 0 1 4.07 3.18 3.18 0 0 0 2.67 1.46 3.39 3.39 0 0 0 1.66-.31v-5h-2.26v-1.06h4z"/><path d="m242.62 100.78a3.77 3.77 0 0 1 -1.12 2.83 4 4 0 0 1 -2.88 1.1 5.59 5.59 0 0 1 -3.08-.73l.46-1.23a4.33 4.33 0 0 0 2.31.61 2.31 2.31 0 0 0 2.48-2.48 2.08 2.08 0 0 0 -.53-1.47 5 5 0 0 0 -1.78-1.08q-2.8-1.11-2.81-3.54a3.67 3.67 0 0 1 1-2.64 3.58 3.58 0 0 1 2.71-1.08 4.68 4.68 0 0 1 2.71.71l-.42 1.12a3.87 3.87 0 0 0 -2.1-.62 2.1 2.1 0 0 0 -1.62.63 2.46 2.46 0 0 0 -.58 1.71 1.9 1.9 0 0 0 .57 1.47 5.24 5.24 0 0 0 1.65 1c2.03.74 3.03 1.98 3.03 3.69z"/><path d="m254.28 97.89a11.67 11.67 0 0 1 -.46 3.47 5.14 5.14 0 0 1 -1.56 2.42 4.12 4.12 0 0 1 -2.76.93 4 4 0 0 1 -3.62-1.88 9.24 9.24 0 0 1 -1.17-4.94 11.58 11.58 0 0 1 .46-3.45 5.12 5.12 0 0 1 1.57-2.44 4.16 4.16 0 0 1 2.76-.94 4 4 0 0 1 3.61 1.94 9.25 9.25 0 0 1 1.17 4.89zm-1.79-.06a14 14 0 0 0 -.14-2 8.41 8.41 0 0 0 -.45-1.76 3 3 0 0 0 -.92-1.32 2.52 2.52 0 0 0 -3 0 3 3 0 0 0 -.94 1.32 8.41 8.41 0 0 0 -.45 1.76 14.09 14.09 0 0 0 -.13 2c0 3.72 1 5.57 3 5.57s3.03-1.85 3.03-5.57z"/><path d="m262.62 104.52h-5.76v-13.26h1.77v12.06h4z"/><path d="m273 100.74a3.84 3.84 0 0 1 -1.14 2.86 4.55 4.55 0 0 1 -6 0 3.87 3.87 0 0 1 -1.13-2.86v-9.48h1.77v9.46a2.56 2.56 0 0 0 .72 1.92 2.49 2.49 0 0 0 3.46 0 2.63 2.63 0 0 0 .7-1.92v-9.46h1.62z"/><path d="m282.1 92.46h-2.64v12.06h-1.77v-12.06h-2.64v-1.2h7.05z"/><path d="m286 104.52h-1.77v-13.26h1.77z"/><path d="m298.17 97.89a11.65 11.65 0 0 1 -.47 3.47 5 5 0 0 1 -1.56 2.42 4.11 4.11 0 0 1 -2.75.93 4 4 0 0 1 -3.62-1.88 9.15 9.15 0 0 1 -1.18-4.94 11.91 11.91 0 0 1 .46-3.45 5.19 5.19 0 0 1 1.57-2.44 4.17 4.17 0 0 1 2.77-.94 3.94 3.94 0 0 1 3.61 1.94 9.16 9.16 0 0 1 1.17 4.89zm-1.8-.06a14.09 14.09 0 0 0 -.13-2 8.41 8.41 0 0 0 -.45-1.76 2.93 2.93 0 0 0 -.93-1.32 2.28 2.28 0 0 0 -1.47-.48 2.33 2.33 0 0 0 -1.48.48 2.88 2.88 0 0 0 -.94 1.32 8.41 8.41 0 0 0 -.45 1.76 14 14 0 0 0 -.14 2c0 3.72 1 5.57 3 5.57s2.99-1.85 2.99-5.57z"/><path d="m310.19 104.52h-1.54l-5.65-9.67-.85-1.6c0 .54.05 1.08.05 1.64v9.63h-1.48v-13.26h1.87l5.41 9.31.75 1.41q-.06-.65-.06-1.47v-9.25h1.49z"/><path d="m319.59 100.78a3.77 3.77 0 0 1 -1.13 2.83 4 4 0 0 1 -2.88 1.1 5.62 5.62 0 0 1 -3.08-.73l.46-1.23a4.33 4.33 0 0 0 2.31.61 2.46 2.46 0 0 0 1.82-.67 2.49 2.49 0 0 0 .67-1.81 2.12 2.12 0 0 0 -.53-1.47 5.06 5.06 0 0 0 -1.78-1.08q-2.82-1.11-2.82-3.54a3.68 3.68 0 0 1 1-2.64 3.54 3.54 0 0 1 2.7-1.08 4.71 4.71 0 0 1 2.72.71l-.43 1.12a3.86 3.86 0 0 0 -2.09-.62 2.07 2.07 0 0 0 -1.62.63 2.41 2.41 0 0 0 -.58 1.71 1.9 1.9 0 0 0 .57 1.47 5.29 5.29 0 0 0 1.64 1c2.05.74 3.05 1.98 3.05 3.69z"/><path d="m333.56 92.46h-4.36v4.62h3.91v1.18h-3.91v6.26h-1.77v-13.26h6.13z"/><path d="m344.92 97.89a11.67 11.67 0 0 1 -.46 3.47 5.14 5.14 0 0 1 -1.56 2.42 4.11 4.11 0 0 1 -2.75.93 4 4 0 0 1 -3.63-1.88 9.24 9.24 0 0 1 -1.17-4.94 11.58 11.58 0 0 1 .46-3.45 5.12 5.12 0 0 1 1.57-2.44 4.17 4.17 0 0 1 2.77-.94 4 4 0 0 1 3.6 1.89 9.25 9.25 0 0 1 1.17 4.94zm-1.79-.06a14.09 14.09 0 0 0 -.13-2 7.85 7.85 0 0 0 -.46-1.76 3 3 0 0 0 -.92-1.32 2.32 2.32 0 0 0 -1.47-.48 2.35 2.35 0 0 0 -1.49.48 2.93 2.93 0 0 0 -.93 1.32 8.43 8.43 0 0 0 -.46 1.76 14.09 14.09 0 0 0 -.13 2c0 3.72 1 5.57 3 5.57s2.99-1.85 2.99-5.57z"/><path d="m355.63 104.52h-2l-4.35-6.19v6.19h-1.75v-12.74a6.8 6.8 0 0 1 3.29-.71 4.93 4.93 0 0 1 3.39 1 3.7 3.7 0 0 1 1.16 2.9 3.36 3.36 0 0 1 -1.09 2.64 4.42 4.42 0 0 1 -2.94 1zm-2.06-9.44a3.17 3.17 0 0 0 -.68-2.25 2.85 2.85 0 0 0 -2.15-.72 3.19 3.19 0 0 0 -1.5.29v5.6a4.13 4.13 0 0 0 1.14.11q3.2-.05 3.19-3.03z"/><path d="m372.63 104.52h-1.83l-1.26-4h-4.54l-1.29 4h-1.62l4.49-13.26h1.58zm-3.37-5-1.55-5c-.1-.31-.18-.6-.25-.87s-.1-.45-.11-.55v-.18a11.07 11.07 0 0 1 -.4 1.6l-1.58 5z"/><path d="m388.21 100.93a3.26 3.26 0 0 1 -1.31 2.85 5.89 5.89 0 0 1 -3.49.93 7.6 7.6 0 0 1 -3.62-.73v-12.18a7 7 0 0 1 3.45-.73 5.29 5.29 0 0 1 3.3.92 3.12 3.12 0 0 1 .4 4.49 3.33 3.33 0 0 1 -1.81 1 4.25 4.25 0 0 1 2.1 1.12 3 3 0 0 1 .98 2.33zm-2.21-6.41c0-1.62-.93-2.43-2.78-2.43a5.22 5.22 0 0 0 -1.75.29v4.72h.87a4.82 4.82 0 0 0 2.83-.62 2.28 2.28 0 0 0 .83-1.96zm.42 6.43a2.61 2.61 0 0 0 -1-2.26 5.36 5.36 0 0 0 -3.1-.7h-.89v5.28a5 5 0 0 0 1.87.3 3.63 3.63 0 0 0 2.24-.62 2.33 2.33 0 0 0 .88-1.95z"/><path d="m396.77 104.52h-6.15v-13.26h6.15v1.2h-4.38v4.62h3.93v1.18h-3.93v5.06h4.38z"/><path d="m405.28 92.46h-2.64v12.06h-1.77v-12.06h-2.64v-1.2h7z"/><path d="m413.49 92.46h-2.64v12.06h-1.77v-12.06h-2.64v-1.2h7.05z"/><path d="m421.69 104.52h-6.14v-13.26h6.14v1.2h-4.37v4.62h3.93v1.18h-3.93v5.06h4.37z"/><path d="m432.25 104.52h-2l-4.36-6.19v6.19h-1.79v-12.74a6.84 6.84 0 0 1 3.3-.71 4.93 4.93 0 0 1 3.39 1 3.69 3.69 0 0 1 1.15 2.9 3.35 3.35 0 0 1 -1.08 2.64 4.42 4.42 0 0 1 -2.94 1zm-2.06-9.44a3.22 3.22 0 0 0 -.68-2.25 2.86 2.86 0 0 0 -2.15-.72 3.14 3.14 0 0 0 -1.5.29v5.6a4.05 4.05 0 0 0 1.13.11q3.2-.05 3.2-3.03z"/><path d="m446 92.46h-4.36v4.62h3.92v1.18h-3.92v6.26h-1.77v-13.26h6.13z"/><path d="m456.45 100.74a3.84 3.84 0 0 1 -1.14 2.86 4.55 4.55 0 0 1 -6 0 3.87 3.87 0 0 1 -1.13-2.86v-9.48h1.82v9.46a2.56 2.56 0 0 0 .71 1.92 2.49 2.49 0 0 0 3.46 0 2.59 2.59 0 0 0 .7-1.92v-9.46h1.62z"/><path d="m465.56 92.46h-2.64v12.06h-1.77v-12.06h-2.64v-1.2h7.05z"/><path d="m475.89 100.74a3.84 3.84 0 0 1 -1.14 2.86 4.1 4.1 0 0 1 -3 1.13 4 4 0 0 1 -3-1.13 3.87 3.87 0 0 1 -1.13-2.86v-9.48h1.77v9.46a2.56 2.56 0 0 0 .72 1.92 2.49 2.49 0 0 0 3.46 0 2.63 2.63 0 0 0 .7-1.92v-9.46h1.62z"/><path d="m487 104.52h-2l-4.36-6.19v6.19h-1.76v-12.74a6.84 6.84 0 0 1 3.3-.71 4.93 4.93 0 0 1 3.39 1 3.69 3.69 0 0 1 1.15 2.9 3.35 3.35 0 0 1 -1.08 2.64 4.42 4.42 0 0 1 -2.94 1zm-2-9.44a3.22 3.22 0 0 0 -.68-2.25 2.86 2.86 0 0 0 -2.15-.72 3.14 3.14 0 0 0 -1.5.29v5.6a4.05 4.05 0 0 0 1.13.11q3.2-.05 3.2-3.03z"/><path d="m495.44 104.52h-6.14v-13.26h6.14v1.2h-4.37v4.62h3.93v1.18h-3.93v5.06h4.37z"/></g></svg>