<svg height="512" viewBox="0 0 512 512" width="512" xmlns="http://www.w3.org/2000/svg"><g fill="none" fill-rule="evenodd" transform="translate(84.039251 104.592328)"><path d="m302.2871 117.711837.004473.006983c-.000745-.001164-.001491-.002327-.002237-.003491-.000745-.001164-.001491-.002328-.002236-.003492zm-198.433545-104.8957001c10.62561 5.9023432 20.669514 13.3701059 29.247105 21.6703872 13.826718-2.5046712 28.083692-3.7676802 42.547189-3.7676802 43.297556 0 84.347453 11.359965 115.580622 31.9808095 16.174196 10.6839884 29.030256 23.3603288 38.206763 37.6803596 10.219448 15.956606 15.399735 33.115739 15.399735 51.502303 0 17.892034-5.180287 35.058282-15.399735 51.01133-9.176507 14.327147-22.032567 26.999929-38.206763 37.683918-31.233169 20.620844-72.279624 31.973694-115.580622 31.973694-14.463497 0-28.717029-1.263009-42.547189-3.764123-8.581033 8.296724-18.621495 15.768044-29.247105 21.670387-56.773185 28.437269-103.853555.668861-103.853555.668861s43.7725592-37.16804 36.6543983-69.750113c-19.5852687-20.076506-30.19711112-44.2907-30.19711112-69.981369 0-25.206812 10.61528442-49.421006 30.19711112-69.5010694 7.1169822-32.5731206-36.63990347-69.7342469-36.6543947-69.7465527.01400078-.0082627 47.08881-27.7677388 103.8535514.668858z" fill="#db2323" fill-rule="nonzero"/><path d="m69.925033 208.173342c-19.4842498-15.379788-31.1795309-35.060715-31.1795309-56.511616 0-49.222762 61.5816799-89.1256952 137.5465329-89.1256952 75.964852 0 137.546532 39.9029332 137.546532 89.1256952s-61.58168 89.125695-137.546532 89.125695c-18.72224 0-36.570815-2.42379-52.839141-6.813527l-11.893733 11.489243c-6.462579 6.242795-14.0372363 11.892227-21.9327209 16.344026-10.4653813 5.14781-20.7997454 7.956386-31.0241852 8.81336.5767784-1.050317 1.1078862-2.114309 1.6780438-3.166279 11.9174804-21.988367 15.1323918-41.748668 9.6447343-59.280902z" fill="#fff"/><path d="m110.48867 171.559023c-11.1931553 0-20.2670008-9.04371-20.2670008-20.199692 0-11.155981 9.0738455-20.199691 20.2670008-20.199691 11.193156 0 20.267001 9.04371 20.267001 20.199691 0 11.155982-9.073845 20.199692-20.267001 20.199692zm65.249857 0c-11.193155 0-20.267001-9.04371-20.267001-20.199692 0-11.155981 9.073846-20.199691 20.267001-20.199691 11.193156 0 20.267002 9.04371 20.267002 20.199691 0 11.155982-9.073846 20.199692-20.267002 20.199692zm65.249858 0c-11.193156 0-20.267002-9.04371-20.267002-20.199692 0-11.155981 9.073846-20.199691 20.267002-20.199691 11.193155 0 20.267001 9.04371 20.267001 20.199691 0 11.155982-9.073846 20.199692-20.267001 20.199692z" fill="#db2323" fill-rule="nonzero"/></g></svg>