<svg height="44" viewBox="0 0 44 44" width="44" xmlns="http://www.w3.org/2000/svg"><g fill="none" fill-rule="evenodd"><path d="m2 0h40c1.1045695 0 2 .8954305 2 2v40c0 1.1045695-.8954305 2-2 2h-40c-1.1045695 0-2-.8954305-2-2v-40c0-1.1045695.8954305-2 2-2z" fill="#6b7d99"/><g transform="translate(12 12)"><path d="m0 0h20v20h-20z"/><g stroke="#fff" stroke-width="1.5"><path d="m3 3.74989086c-.69035594 0-1.25.55964406-1.25 1.25v10.00010914c0 .6903559.55964406 1.25 1.24999991 1.25l14.00000009-.0000017c.6903555 0 1.2499994-.5596434 1.25-1.2499992l.000012-10.00010996c0-.69035594-.559644-1.25-1.2499999-1.25l-14.00001201.00000172z"/><path d="m14.3137085 2.8137085-1.4142136 7.08578644-7.0857864 1.41421356" transform="matrix(.70710678 .70710678 -.70710678 .70710678 7.942388 -5.047204)"/></g></g></g></svg>