<svg height="44" viewBox="0 0 44 44" width="44" xmlns="http://www.w3.org/2000/svg"><g fill="none" fill-rule="evenodd"><path d="m2 0h40c1.1045695 0 2 .8954305 2 2v40c0 1.1045695-.8954305 2-2 2h-40c-1.1045695 0-2-.8954305-2-2v-40c0-1.1045695.8954305-2 2-2z" fill="#3b5998"/><path d="m16 22.5h2.4430805v11.5h4.8616078v-11.5h3.2656234l.4296883-3.9651049h-3.6707597v-1.9765618c0-.3034742.014322-.5370653.0429691-.7007824.0286472-.163714.0941223-.3234352.1964286-.4791666.1023063-.1557284.2639497-.2635402.4849334-.3234352.2209837-.0598982.5156235-.0898442.8839286-.0898442h2.037948v-3.9651049h-3.2533506c-1.8824488 0-3.2328811.4352397-4.0513377 1.3057284-.8184572.8704917-1.2276792 2.152248-1.2276792 3.8453148v2.3838519h-2.4430805z" fill="#fff"/></g></svg>