<svg height="44" viewBox="0 0 44 44" width="44" xmlns="http://www.w3.org/2000/svg"><g fill="none" fill-rule="evenodd"><path d="m2 0h40c1.1045695 0 2 .8954305 2 2v40c0 1.1045695-.8954305 2-2 2h-40c-1.1045695 0-2-.8954305-2-2v-40c0-1.1045695.8954305-2 2-2z" fill="#1a1a1a"/><path d="m12.0684936 24.939508c-.0913248-.0922187-.0913248-.1844375 0-.2766562.1826146-.1844375.4109618-.2536016.6849013-.2074922.2739745.0461094.433793.0922187.4794554.1383281.3196369.1383281.6735382.4495487 1.0616337.9337325.3880955.4841485.6963344.8184237.9246816 1.0028612 1.0958981.9221875 2.2145923.9913516 3.3561528.2074922.0913249-.3227656.2397453-.5994219.4451911-.8300042.2054458-.2305468.3995637-.3918942.5822134-.4841484.1826848-.0922187.5023217-.2305468.9589459-.4149843-1.5068949-.1383282-2.7283472-.4034748-3.6644268-.7954045-.9360796-.3919296-1.6781115-.8875877-2.2260605-1.4870096-.7305988-.8299687-1.1758249-1.913539-1.3356434-3.2507108-.1598535-1.3371719-.0570955-2.5590703.3082389-3.6656953.2739745-.6916406.6621051-1.3140817 1.1643567-1.8674296-.3652994-1.1527344-.2968058-2.4668515.2054809-3.9423515 1.4611974.0922188 2.7854076.5994219 3.9726306 1.5216094 2.283121-.5994219 4.6575669-.6224766 7.1233025-.0691641.319637-.2305469.8105255-.5187128 1.4725956-.8645685.6621051-.3458203 1.4954618-.5418028 2.500035-.5879122.1826497.5072031.3082389 1.106625.3767325 1.7982656.0684937.6916406.0342644 1.3371718-.1027229 1.9365937 1.0502006 1.106625 1.5981497 2.5821249 1.6438121 4.4264999 0 1.4755-.2511082 2.6973984-.7533949 3.6656952-.5022866.9682969-1.3927038 1.7752109-2.6712516 2.4207068-.867586.4150197-2.0091465.6685859-3.4246815.7608046.6393089.3227656 1.1073312.6570763 1.4041369 1.0028966.2968408.3458203.4908886.8875878.5822485 1.6253377v2.1787211l.0684586 2.1094861c.1369872.2305823.2968408.4265295.4794905.5879477.1826496.1613828.3424681.2766562.4794554.3458203.1369522.069164.1826497.1729278.1369522.311256-.0456625.1383281-.2283121.2074922-.547914.2074922-.7762962 0-1.3927038-.2766563-1.8493281-.8300042-.1369872-.2305469-.2054808-.5071677-.2054808-.8299687v-3.319875c0-.3688749-.0913249-.6340216-.2739746-.7954044-.1826497-.1614182-.3652993-.2651466-.547949-.3112559v4.3573358c0 .7838594.0913248 1.2910625.2739745 1.5216093.1826497.2305469.2968057.4611292.3425032.6916406.0456624.0461094.0113981.0806737-.102758.1037284-.1141209.0230193-.3082038-.0115096-.5822134-.1037284-.5936114-.1383281-1.0045732-.4495841-1.2328853-.9337325s-.3424682-1.0028966-.3424682-1.5562091v-4.2880655h-.8904172v4.2881718c0 .5533125-.1141911 1.0836057-.3425032 1.5907734-.3196019.6455666-.9132484.9913515-1.7807993 1.0374609-.1369873-.0461094-.2054809-.0922187-.2054809-.1382927.0456624-.0461448.1826497-.2766563.4109618-.6916406.0456624-.0922188.1027579-.2766563.1712516-.5533125.0685287-.2766563.102758-.5994219.102758-.9682969v-4.3573712c-.1826497.0461094-.3539013.1498377-.5137198.311256-.1598185.1614182-.2397453.4265294-.2397453.7954044v3.3198749c0 .3227302-.0684936.5994219-.2054809.8299687-.4109617.5533125-1.0274044.8300042-1.8492929.8300042-.319637 0-.5022867-.0691641-.5479491-.2074922-.0456975-.0922188-.0342643-.1729279.0342644-.2420919.0685287-.0691641.1712516-.1498732.3082389-.2420919.1369872-.0922188.2283121-.1614183.2739745-.2074922.1826497-.1383282.3196019-.3227656.4109618-.5533125.1369872-.1844375.1712165-.6685859.1027229-1.4524453-.0684937-.7838594-.0799268-1.2910625-.0342644-1.5216093-1.187258.4149843-2.3972771.2074567-3.6301975-.6224766-.3652994-.368875-.7305987-.8991682-1.0958981-1.5907734-.2739745-.5072385-.8219236-1.1066604-1.6438121-1.798301z" fill="#fff"/></g></svg>