<svg height="44" viewBox="0 0 44 44" width="44" xmlns="http://www.w3.org/2000/svg"><g fill="none" fill-rule="evenodd"><path d="m2 0h40c1.1045695 0 2 .8954305 2 2v40c0 1.1045695-.8954305 2-2 2h-40c-1.1045695 0-2-.8954305-2-2v-40c0-1.1045695.8954305-2 2-2z" fill="#cb2027"/><path d="m21.2778641 10.080261c-4.0582241.4452146-8.102142 3.6718487-8.269049 8.2809912-.1049129 2.8142247.7081625 4.9254791 3.4335152 5.5183175 1.1826552-2.0503303-.3815017-2.5025746-.624709-3.9858421-.9990576-6.0783506 7.1340815-10.22353262 11.3902097-5.9799347 2.9447161 2.9384162 1.0062107 11.9786153-3.7434853 11.0389782-4.5494076-.8974588 2.2270161-8.0935323-1.4044031-9.5065028-2.9518693-1.148185-4.520795 3.5125087-3.1211607 5.8276245-.8202286 3.9811556-2.5870583 7.7326742-1.8717426 12.7261072 2.3200071-1.6543236 3.1020856-4.8223768 3.7434853-8.1263376 1.1659645.6959406 1.7882891 1.4200001 3.2761457 1.5324754 5.4864711.4170958 8.5504065-5.3824099 7.8017095-10.7320146-.6652436-4.7427068-5.4817024-7.15623847-10.6105157-6.5938622z" fill="#fff" fill-rule="nonzero"/></g></svg>