<svg height="44" viewBox="0 0 44 44" width="44" xmlns="http://www.w3.org/2000/svg"><g fill="none" fill-rule="evenodd"><path d="m2 0h40c1.1045695 0 2 .8954305 2 2v40c0 1.1045695-.8954305 2-2 2h-40c-1.1045695 0-2-.8954305-2-2v-40c0-1.1045695.8954305-2 2-2z" fill="#ef4056"/><path d="m1.92441362 0c-1.19868471.07888831-1.92441362.76993393-1.92441362 1.99903571v7.36079774c0 5.97860675 5.88809732 10.67704875 10.9816309 10.63994835 5.727318-.041738 11.0183691-4.9257321 11.0183691-10.63994835v-7.36079774c0-1.23373934-.7716024-1.92947238-1.979521-1.99903571zm4.63884811 5.98788188 4.41836917 4.23927412 4.4229614-4.23927412c1.979521-.83949726 2.842969 1.4424792 2.0300361 2.11038691l-5.759464 5.55185191c-.1882836.1809146-1.1941418.1809146-1.3824254 0l-5.7595134-5.55190178c-.77624403-.73747104.23420645-3.05654794 2.03003613-2.11033704z" fill="#fff" fill-rule="nonzero" transform="translate(11 12)"/></g></svg>