<svg height="44" viewBox="0 0 44 44" width="44" xmlns="http://www.w3.org/2000/svg"><g fill="none" fill-rule="evenodd"><path d="m2 0h40c1.1045695 0 2 .8954305 2 2v40c0 1.1045695-.8954305 2-2 2h-40c-1.1045695 0-2-.8954305-2-2v-40c0-1.1045695.8954305-2 2-2z" fill="#ff4500"/><path d="m33.9995888 21.6587667c-.0537464-1.4282011-1.2719986-2.5434321-2.7276308-2.4949438-.6449571.0220401-1.258562.2821138-1.7243644.7185085-2.0513217-1.3753047-4.4609529-2.1290774-6.9377671-2.1819738l1.1689846-5.5320749 3.8563057.797853c.1074929.9741742.9943088 1.6794586 1.9841387 1.573666.98983-.1057927 1.7064489-.9785822 1.5989561-1.9527564-.1074929-.9741741-.9943088-1.6794586-1.9841387-1.5736659-.5688163.0573043-1.0794073.3834984-1.361576.8683815l-4.4161643-.8683815c-.3000842-.0661204-.6001683.1190167-.6673514.4187626v.0088161l-1.3302239 6.1536069c-2.5081663.0396722-4.9491496.797853-7.0273445 2.1819738-1.0570129-.9785822-2.723152-.9300939-3.7174608.1146087-.99430874 1.0402946-.94504119 2.6800809.1164506 3.6586631.206028.1895452.443408.3526422.7076612.467251-.0179154.2600736-.0179154.5201472 0 .7802209 0 3.9716331 4.7028118 7.2027175 10.5029464 7.2027175s10.5029464-3.2266764 10.5029464-7.2027175c.0179155-.2600737.0179155-.5201473 0-.7802209.9047314-.4452109 1.4735477-1.3620807 1.4556322-2.3582949zm-18.0184875 1.7764352c0-.9785822.8106752-1.7764352 1.8049839-1.7764352.9943088 0 1.804984.797853 1.804984 1.7764352s-.8106752 1.7764352-1.804984 1.7764352c-.9987876-.0088161-1.8049839-.797853-1.8049839-1.7764352zm10.4671154 4.8752788c-1.2809563.947726-2.8485603 1.432609-4.4519952 1.3664886-1.6034349.0661204-3.1710388-.4187626-4.4519952-1.3664886-.170197-.2027693-.1388449-.5069232.0671831-.6744283.1791547-.1454649.4344502-.1454649.6180838 0 1.0838862.780221 2.4051523 1.1769435 3.7488129 1.1152311 1.3436605.0705284 2.6694055-.308562 3.7667283-1.0799669.1970702-.1895452.5195487-.1851371.71214.0088161.1925914.1939532.1881125.5113312-.0089577.7008764zm-.3224785-3.0371312c-.9943088 0-1.804984-.797853-1.804984-1.7764352s.8106752-1.7764353 1.804984-1.7764353 1.804984.7978531 1.804984 1.7764353c.0403098.9785822-.7345345 1.8028834-1.7288433 1.8425556-.031352 0-.0582252 0-.0895773 0z" fill="#fff" fill-rule="nonzero"/></g></svg>