<svg height="44" viewBox="0 0 44 44" width="44" xmlns="http://www.w3.org/2000/svg"><g fill="none" fill-rule="evenodd"><path d="m2 0h40c1.1045695 0 2 .8954305 2 2v40c0 1.1045695-.8954305 2-2 2h-40c-1.1045695 0-2-.8954305-2-2v-40c0-1.1045695.8954305-2 2-2z" fill="#00aced"/><path d="m11 28.6591926c0 .1153113.0572911.2190899.171875.311339.1909731.1306863.5309003.3228688 1.0197917.5765535 1.8638986.9686147 3.8194346 1.4529149 5.8666666 1.4529149 2.5514016 0 4.8697822-.6611081 6.9552091-1.9833441.9930595-.6303682 1.8753416-1.3894906 2.6468757-2.2773853.7715312-.8878975 1.3845451-1.8142178 1.8390622-2.7789901.4545141-.9647694.7944434-1.9314488 1.0197909-2.9000646.2253475-.9686128.3303813-1.9103068.3151045-2.8251115v-.4035882c.8937544-.6457428 1.5927062-1.3837225 2.0968728-2.2139655.0458363-.0922485.0687515-.1614335.0687515-.2075577 0-.0999355-.0381949-.1883406-.1145819-.2652154-.0763898-.0768748-.1642373-.1153092-.2635424-.1153092-.0534746 0-.1451384.0307475-.275.0922485-.0916666.0307476-.2043389.069185-.3380226.1153093-.1336808.0461242-.2482627.0864834-.3437486.1210773-.0954858.034594-.1585085.0557329-.1890621.0634198.1986101-.2229345.4048587-.5246597.6187485-.9051872.2138899-.3805275.3208334-.659192.3208334-.8360052 0-.0999354-.038192-.1864159-.1145819-.2594472s-.1680565-.109547-.275-.109547c-.0611131 0-.1222232.0192202-.1833333.0576575-.8708392.4689327-1.6843728.7879563-2.4406243.9570767-.9243109-.8840512-2.0281213-1.3260709-3.3114605-1.3260709-1.3138958 0-2.43298.4612369-3.357291 1.3837284-.9243109.9224886-1.3864576 2.0371494-1.3864576 3.3440089 0 .2306244.0152768.418962.0458334.5650218-1.2909806-.1076224-2.5361072-.4189591-3.7354182-.934016-1.1993109-.5150569-2.276384-1.2069123-3.2312485-2.0755927-.2215283-.2152476-.649303-.6649542-1.2833339-1.3491344-.0916673-.0922486-.1986107-.1383729-.3208334-.1383729-.0916672 0-.1871525.0614981-.2864584.1844971-.1986122.2998093-.3552079.6668789-.4697918 1.1012176-.1145837.4343387-.1718749.8590629-.1718749 1.2741814 0 1.1454261.3552047 2.1447776 1.0656251 2.9980813l-.3322918-.1614365c-.1909732-.0845617-.3322912-.1268425-.4239584-.1268425-.1298616 0-.2387147.0384374-.3265625.1153122-.0878474.0768748-.1317709.1768073-.1317709.2998063 0 .8071794.206248 1.5720661.6187503 2.2946838.4125021.7226176.9701352 1.2991638 1.6729158 1.729662l-.1374994-.0230636c-.0897571-.0192173-.1107636-.0249854-.1260415-.0288288-.1336811-.0057652-.2196178.0326722-.2921876.109547s-.108854.1614335-.108854.2536821c0 .0076869.0076387.0499677.0229164.1268425.2597238.7994924.6913157 1.4778957 1.2947904 2.0352335.6034776.5573378 1.3100677.9320942 2.1197938 1.1242812-1.3291754.8225531-2.7958274 1.2338229-4.4000006 1.2338229-.1069452 0-.2788183-.0115309-.5156251-.0345931-.3208348-.0153749-.4965277-.0230621-.5270833-.0230621-.0993061 0-.1852427.0384365-.2578125.1153107s-.1088542.1652781-.1088542.2652145z" fill="#fff"/></g></svg>