<svg height="32" viewBox="0 0 32 32" width="32" xmlns="http://www.w3.org/2000/svg"><g fill="none" fill-rule="evenodd"><path d="m2 0h28c1.1045695 0 2 .8954305 2 2v28c0 1.1045695-.8954305 2-2 2h-28c-1.1045695 0-2-.8954305-2-2v-28c0-1.1045695.8954305-2 2-2z" fill="#6b7d99"/><g transform="translate(8.727273 8.727273)"><path d="m0 0h14.545455v14.545455h-14.545455z"/><g stroke="#fff" stroke-width="1.090909"><path d="m2.18181818 2.72719335c-.50207704 0-.90909091.40701386-.90909091.90909091v7.27280664c0 .5020771.40701387.9090909.90909084.9090909l10.18181829-.0000012c.5020767 0 .9090904-.4070134.9090909-.9090903l.0000087-7.27280729c0-.50207705-.4070138-.90909091-.9090908-.90909091l-10.18182695.00000125z"/><path d="m10.4099698 2.04633345-1.02851894 5.15329923-5.15329922 1.02851896" transform="matrix(.70710678 .70710678 -.70710678 .70710678 5.776283 -3.670694)"/></g></g></g></svg>