<svg height="32" viewBox="0 0 32 32" width="32" xmlns="http://www.w3.org/2000/svg"><g fill="none" fill-rule="evenodd"><path d="m2 0h28c1.1045695 0 2 .8954305 2 2v28c0 1.1045695-.8954305 2-2 2h-28c-1.1045695 0-2-.8954305-2-2v-28c0-1.1045695.8954305-2 2-2z" fill="#fff"/><path d="m8.77708628 18.137824c-.06641807-.0670682-.06641807-.1341364 0-.2012045.13281062-.1341364.2988813-.1844375.49810999-.1509034.1992542.033534.31548582.0670681.34869485.1006022.23246323.1006023.48984598.3269445.77209728.6790782.2822513.352108.506425.5952173.6724957.7293536.7970168.6706818 1.6106126.720983 2.4408384.1509034.0664181-.2347386.1743602-.4359431.3237753-.6036394.1494152-.1676704.2905918-.285014.423428-.3521079.1328616-.0670682.3653248-.1676705.6974152-.3018068-1.0959236-.1006023-1.9842525-.2934362-2.6650377-.5784759-.6807852-.2850398-1.2204447-.6455184-1.6189531-1.0814616-.5313446-.6036136-.8551454-1.3916647-.97137702-2.3641533-.11625712-.9724887-.04152404-1.861142.22417373-2.6659602.19925419-.5030114.48153099-.9556958.84680489-1.3581307-.2656723-.83835222-.2158588-1.79407379.1494406-2.86716467 1.0626891.06706818 2.025751.43594317 2.8891859 1.10662497 1.6604517-.43594317 3.3873214-.45271021 5.1805837-.05030113.2324632-.16767045.5894731-.37724564 1.0709786-.62877707.4815309-.25150568 1.0876085-.39403844 1.8182073-.42757253.1328361.36887499.2241737.80481817.2739873 1.30782952.0498135.50301135.0249195.97248862-.0747076 1.40843179.7637822.80481812 1.1622906 1.87790902 1.1954997 3.21927262 0 1.0730909-.1826242 1.9617443-.5479236 2.6659602-.3652993.7042159-1.0128755 1.2910625-1.9427284 1.760514-.6309716.3018326-1.4611975.4862443-2.4906775.5533125.464952.2347386.8053318.4778736 1.0211905.7293793.2158842.2515057.3570099.6455184.4234534 1.1820638v1.5845244l.0497881 1.5341718c.0996271.1676962.2158842.3102032.3487203.4275982.1328362.1173694.2490678.2012046.3486949.2515057.0996016.0503012.1328361.1257657.0996016.226368-.033209.1006023-.1660452.1509034-.3984829.1509034-.5645791 0-1.0128755-.2012045-1.3449658-.6036394-.0996271-.1676704-.1494407-.3688492-.1494407-.6036136v-2.4144545c0-.2682727-.0664181-.4611066-.1992542-.5784759-.1328361-.1173951-.2656723-.1928339-.3985084-.226368v3.1689715c0 .5700795.0664181.9389545.1992542 1.106625.1328361.1676704.2158587.3353666.2490933.5030113.033209.0335341.0082895.0586718-.0747331.0754389-.0829971.0167413-.2241482-.0083707-.4234279-.0754389-.4317175-.1006022-.7305988-.3269702-.8966439-.6790782-.1660452-.3521079-.2490678-.7293793-.2490678-1.1317884v-3.1185931h-.6475761v3.1186704c0 .4024091-.0830481.7880769-.2490933 1.1569261-.2324377.469503-.6641807.7209829-1.2951268.754517-.0996271-.0335341-.1494406-.0670682-.1494406-.1005765.033209-.0335598.1328361-.2012045.2988813-.5030113.033209-.0670682.074733-.2012046.1245466-.4024091.049839-.2012046.0747331-.4359432.0747331-.7042159v-3.1689973c-.1328362.0335341-.2573828.1089729-.3736144.226368s-.1743602.3102032-.1743602.5784759v2.4144545c0 .2347129-.0498135.4359432-.1494406.6036136-.2988813.4024091-.7472033.6036394-1.3449404.6036394-.2324632 0-.3652993-.0503011-.3985084-.1509034-.0332345-.0670682-.0249195-.1257657.0249195-.1760668.0498391-.0503012.1245467-.1089987.2241738-.1760669s.1660451-.1173951.1992542-.1509034c.1328361-.1006023.2324377-.2347386.2988813-.4024091.0996271-.1341363.1245211-.4862443.0747075-1.0563238-.0498135-.5700795-.0581285-.9389545-.0249195-1.106625-.8634604.3018068-1.7434742.1508777-2.6401436-.4527102-.2656723-.2682727-.5313446-.6539405-.79701683-1.1569261-.1992542-.3689008-.5977626-.8048439-1.19549969-1.3078553z" fill="#000"/></g></svg>