<svg height="32" viewBox="0 0 32 32" width="32" xmlns="http://www.w3.org/2000/svg"><g fill="none" fill-rule="evenodd"><rect fill="#eb2626" height="32" rx="2" width="32"/><g transform="translate(7.001733 8.001733)"><path d="m17.976327 7.63034524c0-.90212211-.2700495-1.76694719-.8027918-2.57116458-.4783734-.72173355-1.1485628-1.36062464-1.9917274-1.89910063-1.6281923-1.03929632-3.768133-1.61184172-6.02524464-1.61184172-.75398547 0-1.49720484.063656-2.21799485.18989213-.44715178-.41833649-.97074283-.79471381-1.52465838-1.09219356-2.95959931-1.4334256-5.41390993-.03371078-5.41390993-.03371078s2.28187368 1.87327961 1.91080229 3.51524586c-1.02080516 1.01204079-1.57418241 2.23244292-1.57418241 3.50287328 0 .00394488.00017944.00806907.00017944.01219326 0 .00394488-.00017944.00788976-.00017944.01219327 0 1.27043036.55319781 2.49083253 1.57418241 3.50269393.37107139 1.6421456-1.91080229 3.5154252-1.91080229 3.5154252s2.45431062 1.3995355 5.41390993-.0337108c.55391555-.2974797 1.07732716-.6740364 1.52465838-1.0921935.72096944.1260568 1.46400938.1897128 2.21799485.1897128 2.25729114 0 4.39705234-.5721868 6.02524464-1.6114831.8431646-.538476 1.513354-1.1771878 1.9917274-1.89928.5327423-.80403803.8027918-1.66922173.8027918-2.57098522 0-.00412419-.0001794-.00806907-.0001794-.01219326s.0001794-.0084277.0001794-.01237258z" fill="#fff" fill-rule="nonzero"/><path d="m15.9724847 7.67268562c0 2.40148098-3.0616165 4.34858848-6.83805328 4.34858848-.84095556 0-1.64624306-.0968469-2.39024635-.2732697-.75616285.9055188-2.41959143 2.1646903-4.03551664 1.7577718.52561749-.5620351 1.30431608-1.5117806 1.13764896-3.0761813-.96854993-.75024091-1.54993929-1.71047821-1.54993929-2.75690928-.00016213-2.40180384 3.06145436-4.34858853 6.83805332-4.34858853 3.77643678 0 6.83805328 1.9469461 6.83805328 4.34858853z" fill="#db2323"/></g><g fill="#fff" fill-rule="nonzero"><circle cx="15.989896" cy="15.783186" r="1"/><circle cx="19.419879" cy="15.783186" r="1"/><circle cx="12.676928" cy="15.783186" r="1"/></g></g></svg>