<svg height="32" viewBox="0 0 32 32" width="32" xmlns="http://www.w3.org/2000/svg"><g fill="none" fill-rule="evenodd"><path d="m2 0h28c1.1045695 0 2 .8954305 2 2v28c0 1.1045695-.8954305 2-2 2h-28c-1.1045695 0-2-.8954305-2-2v-28c0-1.1045695.8954305-2 2-2z" fill="#00aced"/><path d="m8 20.8430492c0 .0838627.04166624.1593381.125.2264283.13888949.0950446.38610933.2348137.74166667.4193117 1.35556263.704447 2.77777063 1.0566653 4.26666663 1.0566653 1.8555648 0 3.5416598-.4808058 5.0583339-1.442432.7222251-.4584496 1.3638848-1.0105387 1.9250005-1.6562802.5611136-.6457437 1.0069419-1.3194311 1.3374998-2.0210838.3305557-.7016505.577777-1.40469.7416661-2.1091378.1638891-.7044457.2402773-1.3893141.2291669-2.0546266v-.2935187c.6500032-.4696311 1.1583318-1.0063436 1.5249984-1.6101567.0333355-.0670898.0500011-.1174062.0500011-.1509511 0-.0726803-.0277781-.136975-.0833323-.1928839-.0555562-.0559089-.1194453-.0838612-.1916672-.0838612-.0388906 0-.1055552.0223618-.2.0670898-.0666666.0223619-.1486101.0503163-.2458346.0838613-.0972224.0335449-.1805547.062897-.249999.0880562-.0694442.0251593-.1152789.040533-.1374997.0461235.1444437-.1621342.2944427-.3815706.4499989-.6583179.1555563-.2767473.2333334-.4794124.2333334-.60800381 0-.07268033-.027776-.1355752-.0833323-.1886889s-.1222229-.07967056-.2-.07967056c-.0444459 0-.0888896.01397831-.1333333.04193278-.6333376.34104189-1.2249984.57305909-1.7749995.69605569-.6722261-.64294628-1.4749973-.96441515-2.4083349-.96441515-.9555606 0-1.76944.33544503-2.4416662 1.00634795-.6722261.6709008-1.0083328 1.4815632-1.0083328 2.4320065 0 .1677268.0111104.3046996.0333334.4109249-.938895-.0782708-1.8444416-.3046975-2.7166678-.6792844-.8722261-.3745868-1.655552-.8777544-2.3499989-1.5095219-.1611115-.1565437-.4722204-.4836031-.93333376-.9811887-.06666709-.0670899-.14444416-.1006348-.23333333-.1006348-.0666671 0-.13611094.0447259-.20833344.1341797-.14444523.2180431-.25833302.4850028-.34166678.8008855-.08333354.3158827-.12499989.624773-.12499989.9266774 0 .8330372.25833067 1.5598383.77500011 2.1804227l-.24166678-.1174083c-.1388896-.0614994-.24166634-.0922491-.30833344-.0922491-.0944448 0-.17361066.0279545-.23749994.0838634-.06388907.0559089-.09583339.1285871-.09583339.218041 0 .5870395.14999851 1.1433208.45000021 1.6688609.3000015.5255401.70555286.9448464 1.21666603 1.257936l-.0999996-.0167735c-.0652778-.0139762-.0805553-.0181712-.0916665-.0209664-.09722265-.0041929-.15972206.0237616-.21250009.0796705-.05277802.055909-.0791665.1174062-.0791665.1844961 0 .0055904.00555541.0363401.01666645.0922491.18889003.581449.50277504 1.0748333.94166574 1.4801698.4388928.4053366.9527765.6778867 1.5416682.8176591-.966673.5982204-2.033329.8973257-3.20000039.8973257-.07777835 0-.20277696-.0083861-.37500011-.0251586-.2333344-.0111818-.36111104-.0167724-.38333333-.0167724-.0722226 0-.13472197.0279538-.18749999.0838623-.05277805.0559085-.07916668.1202023-.07916668.1928833z" fill="#fff"/></g></svg>