<svg xmlns="http://www.w3.org/2000/svg" xmlns:xlink="http://www.w3.org/1999/xlink" width="40" height="40" viewBox="0 0 40 40">
    <defs>
        <path id="a" d="M32.002 43.232c-.031-.73.34-1.476 1.105-1.782l18.287-7.332a1.626 1.626 0 0 1 1.215 0l18.056 7.258c.74.18 1.335.875 1.335 1.771v19.354c0 .688-.367 1.316-.947 1.623l-18.27 9.673a1.613 1.613 0 0 1-1.565 0l-18.269-9.673c-.58-.307-.947-.935-.947-1.623V43.232zm6.284.023L52 49.507l13.698-6.245L52 37.756l-13.714 5.499zm15.43 9.512v16.48l14.856-7.867V45.904l-.77.351-14.087 6.512zm-18.286-6.85V61.38l14.857 7.866V52.768l-14.857-6.85z"/>
    </defs>
    <use fill="#1D74F5" fill-rule="nonzero" transform="translate(-32 -34)" xlink:href="#a"/>
</svg>
