<svg viewBox="0 0 293.29 64.56" xmlns="http://www.w3.org/2000/svg" xmlns:xlink="http://www.w3.org/1999/xlink"><linearGradient id="a" gradientTransform="matrix(1 0 0 -1 0 -6348.42)" gradientUnits="userSpaceOnUse" x1="31.52" x2="31.52" y1="-6412.98" y2="-6349.93"><stop offset=".18" stop-color="#0052cc"/><stop offset="1" stop-color="#2684ff"/></linearGradient><g fill="#253858"><path d="m130.14 4.58v7.57h-19.14v50.24h-7.92v-50.25h-16.24v-7.56z"/><path d="m134 18.39h7.39v7.74c2.55-5.19 7-8.89 15.58-8.36v7.39c-9.68-1-15.58 1.94-15.58 11.26v26h-7.39z"/><path d="m183.64 63.27c-16.46 0-23.67-9.5-23.67-23 0-13.29 7.39-22.79 20.77-22.79 13.55 0 19 9.42 19 22.79v3.43h-32.11c1.06 7.48 5.9 12.32 16.28 12.32a39 39 0 0 0 13.38-2.38v7c-3.61 1.93-9.16 2.63-13.65 2.63zm-16.1-26h24.55c-.44-8.18-4.14-12.85-11.7-12.85-8.01-.04-12.06 5.15-12.85 12.8z"/><path d="m220.52 62.65c-7.22 0-11.79-3.43-11.79-11.53v-51.12h7.57v50.25c0 4 2.64 5.37 5.9 5.37a19.17 19.17 0 0 0 2.2-.09v6.77a16.11 16.11 0 0 1 -3.88.35z"/><path d="m243.48 62.65c-7.22 0-11.79-3.43-11.79-11.53v-51.12h7.57v50.25c0 4 2.64 5.37 5.9 5.37a19.17 19.17 0 0 0 2.2-.09v6.77a16.11 16.11 0 0 1 -3.88.35z"/><path d="m251.58 40.3c0-13.2 7.74-22.79 20.94-22.79s20.77 9.59 20.77 22.79-7.66 23-20.77 23-20.94-9.8-20.94-23zm7.39 0c0 8.36 4.14 15.93 13.55 15.93s13.38-7.57 13.38-15.93-4-15.75-13.37-15.75-13.53 7.39-13.53 15.75z"/></g><path d="m55.16 1.51h-47.28a7.88 7.88 0 0 0 -7.88 7.88v47.28a7.88 7.88 0 0 0 7.88 7.88h47.28a7.88 7.88 0 0 0 7.84-7.88v-47.28a7.88 7.88 0 0 0 -7.84-7.88zm-27.74 47.75a3.78 3.78 0 0 1 -3.78 3.74h-11.64a3.78 3.78 0 0 1 -3.8-3.74v-35.77a3.78 3.78 0 0 1 3.8-3.78h11.64a3.78 3.78 0 0 1 3.78 3.78zm27.43-15.76a3.78 3.78 0 0 1 -3.78 3.78h-11.67a3.78 3.78 0 0 1 -3.78-3.78v-20a3.78 3.78 0 0 1 3.78-3.79h11.67a3.78 3.78 0 0 1 3.78 3.78z" fill="url(#a)"/></svg>